<?xml version="1.0" encoding="UTF-8" standalone="no"?><svg xmlns="http://www.w3.org/2000/svg" xmlns:xlink="http://www.w3.org/1999/xlink" clip-rule="evenodd" stroke-miterlimit="10" viewBox="0 0 756 76"><desc>SVG generated by Keynote</desc><defs></defs><g transform="matrix(1.00, 0.00, -0.00, -1.00, 0.0, 76.0)"><text xml:space="preserve" font-family="HelveticaNeue-Thin,Helvetica Neue" font-size="100.0" fill="#EBEAE9" transform="matrix(1.00, 0.00, -0.00, -1.00, -3.9, 2.3)">M</text><text xml:space="preserve" font-family="HelveticaNeue-Thin,Helvetica Neue" font-size="100.0" fill="#EBEAE9" transform="matrix(1.00, 0.00, -0.00, -1.00, 77.0, 2.3)">i</text><text xml:space="preserve" font-family="HelveticaNeue-Thin,Helvetica Neue" font-size="100.0" fill="#EBEAE9" transform="matrix(1.00, 0.00, -0.00, -1.00, 93.8, 2.3)">c</text><text xml:space="preserve" font-family="HelveticaNeue-Thin,Helvetica Neue" font-size="100.0" fill="#EBEAE9" transform="matrix(1.00, 0.00, -0.00, -1.00, 145.7, 2.3)">r</text><text xml:space="preserve" font-family="HelveticaNeue-Thin,Helvetica Neue" font-size="100.0" fill="#EBEAE9" transform="matrix(1.00, 0.00, -0.00, -1.00, 172.3, 2.3)">o</text><text xml:space="preserve" font-family="HelveticaNeue-Thin,Helvetica Neue" font-size="100.0" fill="#EBEAE9" transform="matrix(1.00, 0.00, -0.00, -1.00, 226.0, 2.3)">c</text><text xml:space="preserve" font-family="HelveticaNeue-Thin,Helvetica Neue" font-size="100.0" fill="#EBEAE9" transform="matrix(1.00, 0.00, -0.00, -1.00, 277.9, 2.3)">o</text><text xml:space="preserve" font-family="HelveticaNeue-Thin,Helvetica Neue" font-size="100.0" fill="#EBEAE9" transform="matrix(1.00, 0.00, -0.00, -1.00, 331.6, 2.3)">n</text><text xml:space="preserve" font-family="HelveticaNeue-Thin,Helvetica Neue" font-size="100.0" fill="#EBEAE9" transform="matrix(1.00, 0.00, -0.00, -1.00, 383.5, 2.3)">t</text><text xml:space="preserve" font-family="HelveticaNeue-Thin,Helvetica Neue" font-size="100.0" fill="#EBEAE9" transform="matrix(1.00, 0.00, -0.00, -1.00, 409.4, 2.3)">r</text><text xml:space="preserve" font-family="HelveticaNeue-Thin,Helvetica Neue" font-size="100.0" fill="#EBEAE9" transform="matrix(1.00, 0.00, -0.00, -1.00, 437.2, 2.3)">i</text><text xml:space="preserve" font-family="HelveticaNeue-Thin,Helvetica Neue" font-size="100.0" fill="#EBEAE9" transform="matrix(1.00, 0.00, -0.00, -1.00, 454.0, 2.3)">b</text><text xml:space="preserve" font-family="HelveticaNeue-Thin,Helvetica Neue" font-size="100.0" fill="#EBEAE9" transform="matrix(1.00, 0.00, -0.00, -1.00, 509.6, 2.3)">u</text><text xml:space="preserve" font-family="HelveticaNeue-Thin,Helvetica Neue" font-size="100.0" fill="#EBEAE9" transform="matrix(1.00, 0.00, -0.00, -1.00, 561.5, 2.3)">t</text><text xml:space="preserve" font-family="HelveticaNeue-Thin,Helvetica Neue" font-size="100.0" fill="#EBEAE9" transform="matrix(1.00, 0.00, -0.00, -1.00, 587.4, 2.3)">i</text><text xml:space="preserve" font-family="HelveticaNeue-Thin,Helvetica Neue" font-size="100.0" fill="#EBEAE9" transform="matrix(1.00, 0.00, -0.00, -1.00, 604.2, 2.3)">o</text><text xml:space="preserve" font-family="HelveticaNeue-Thin,Helvetica Neue" font-size="100.0" fill="#EBEAE9" transform="matrix(1.00, 0.00, -0.00, -1.00, 657.9, 2.3)">n</text><text xml:space="preserve" font-family="HelveticaNeue-Thin,Helvetica Neue" font-size="100.0" fill="#EBEAE9" transform="matrix(1.00, 0.00, -0.00, -1.00, 709.8, 2.3)">s</text></g></svg>