<?xml version="1.0" encoding="UTF-8" standalone="no"?><svg xmlns="http://www.w3.org/2000/svg" xmlns:xlink="http://www.w3.org/1999/xlink" clip-rule="evenodd" stroke-miterlimit="10" viewBox="0 0 962 50"><desc>SVG generated by Keynote</desc><defs></defs><g transform="matrix(1.00, 0.00, -0.00, -1.00, 0.0, 50.0)"><text xml:space="preserve" font-family="HelveticaNeue-Thin,Helvetica Neue" font-size="50.0" fill="#EBEAE9" transform="matrix(1.00, 0.00, -0.00, -1.00, 0.1, 11.4)">C</text><text xml:space="preserve" font-family="HelveticaNeue-Thin,Helvetica Neue" font-size="50.0" fill="#EBEAE9" transform="matrix(1.00, 0.00, -0.00, -1.00, 35.3, 11.4)">r</text><text xml:space="preserve" font-family="HelveticaNeue-Thin,Helvetica Neue" font-size="50.0" fill="#EBEAE9" transform="matrix(1.00, 0.00, -0.00, -1.00, 48.6, 11.4)">e</text><text xml:space="preserve" font-family="HelveticaNeue-Thin,Helvetica Neue" font-size="50.0" fill="#EBEAE9" transform="matrix(1.00, 0.00, -0.00, -1.00, 74.5, 11.4)">a</text><text xml:space="preserve" font-family="HelveticaNeue-Thin,Helvetica Neue" font-size="50.0" fill="#EBEAE9" transform="matrix(1.00, 0.00, -0.00, -1.00, 99.5, 11.4)">t</text><text xml:space="preserve" font-family="HelveticaNeue-Thin,Helvetica Neue" font-size="50.0" fill="#EBEAE9" transform="matrix(1.00, 0.00, -0.00, -1.00, 111.8, 11.4)">e</text><text xml:space="preserve" font-family="HelveticaNeue-Thin,Helvetica Neue" font-size="50.0" fill="#EBEAE9" transform="matrix(1.00, 0.00, -0.00, -1.00, 137.7, 11.4)"> </text><text xml:space="preserve" font-family="HelveticaNeue-Thin,Helvetica Neue" font-size="50.0" fill="#3B3C1B" transform="matrix(1.00, 0.00, -0.00, -1.00, 151.6, 11.4)">a</text><text xml:space="preserve" font-family="HelveticaNeue-Thin,Helvetica Neue" font-size="50.0" fill="#3B3C1B" transform="matrix(1.00, 0.00, -0.00, -1.00, 176.6, 11.4)">r</text><text xml:space="preserve" font-family="HelveticaNeue-Thin,Helvetica Neue" font-size="50.0" fill="#3B3C1B" transform="matrix(1.00, 0.00, -0.00, -1.00, 191.8, 11.4)">t</text><text xml:space="preserve" font-family="HelveticaNeue-Thin,Helvetica Neue" font-size="50.0" fill="#3B3C1B" transform="matrix(1.00, 0.00, -0.00, -1.00, 204.8, 11.4)">i</text><text xml:space="preserve" font-family="HelveticaNeue-Thin,Helvetica Neue" font-size="50.0" fill="#3B3C1B" transform="matrix(1.00, 0.00, -0.00, -1.00, 213.2, 11.4)">c</text><text xml:space="preserve" font-family="HelveticaNeue-Thin,Helvetica Neue" font-size="50.0" fill="#3B3C1B" transform="matrix(1.00, 0.00, -0.00, -1.00, 239.1, 11.4)">l</text><text xml:space="preserve" font-family="HelveticaNeue-Thin,Helvetica Neue" font-size="50.0" fill="#3B3C1B" transform="matrix(1.00, 0.00, -0.00, -1.00, 247.5, 11.4)">e</text><text xml:space="preserve" font-family="HelveticaNeue-Thin,Helvetica Neue" font-size="50.0" fill="#3B3C1B" transform="matrix(1.00, 0.00, -0.00, -1.00, 273.5, 11.4)">s</text><text xml:space="preserve" font-family="HelveticaNeue-Thin,Helvetica Neue" font-size="50.0" fill="#EBEAE9" transform="matrix(1.00, 0.00, -0.00, -1.00, 297.5, 11.4)"> </text><text xml:space="preserve" font-family="HelveticaNeue-Thin,Helvetica Neue" font-size="50.0" fill="#EBEAE9" transform="matrix(1.00, 0.00, -0.00, -1.00, 311.4, 11.4)">i</text><text xml:space="preserve" font-family="HelveticaNeue-Thin,Helvetica Neue" font-size="50.0" fill="#EBEAE9" transform="matrix(1.00, 0.00, -0.00, -1.00, 319.8, 11.4)">n</text><text xml:space="preserve" font-family="HelveticaNeue-Thin,Helvetica Neue" font-size="50.0" fill="#EBEAE9" transform="matrix(1.00, 0.00, -0.00, -1.00, 345.8, 11.4)"> </text><text xml:space="preserve" font-family="HelveticaNeue-Thin,Helvetica Neue" font-size="50.0" fill="#EBEAE9" transform="matrix(1.00, 0.00, -0.00, -1.00, 359.7, 11.4)">W</text><text xml:space="preserve" font-family="HelveticaNeue-Thin,Helvetica Neue" font-size="50.0" fill="#EBEAE9" transform="matrix(1.00, 0.00, -0.00, -1.00, 405.3, 11.4)">i</text><text xml:space="preserve" font-family="HelveticaNeue-Thin,Helvetica Neue" font-size="50.0" fill="#EBEAE9" transform="matrix(1.00, 0.00, -0.00, -1.00, 413.7, 11.4)">k</text><text xml:space="preserve" font-family="HelveticaNeue-Thin,Helvetica Neue" font-size="50.0" fill="#EBEAE9" transform="matrix(1.00, 0.00, -0.00, -1.00, 436.9, 11.4)">i</text><text xml:space="preserve" font-family="HelveticaNeue-Thin,Helvetica Neue" font-size="50.0" fill="#EBEAE9" transform="matrix(1.00, 0.00, -0.00, -1.00, 445.3, 11.4)">p</text><text xml:space="preserve" font-family="HelveticaNeue-Thin,Helvetica Neue" font-size="50.0" fill="#EBEAE9" transform="matrix(1.00, 0.00, -0.00, -1.00, 473.1, 11.4)">e</text><text xml:space="preserve" font-family="HelveticaNeue-Thin,Helvetica Neue" font-size="50.0" fill="#EBEAE9" transform="matrix(1.00, 0.00, -0.00, -1.00, 499.0, 11.4)">d</text><text xml:space="preserve" font-family="HelveticaNeue-Thin,Helvetica Neue" font-size="50.0" fill="#EBEAE9" transform="matrix(1.00, 0.00, -0.00, -1.00, 526.8, 11.4)">i</text><text xml:space="preserve" font-family="HelveticaNeue-Thin,Helvetica Neue" font-size="50.0" fill="#EBEAE9" transform="matrix(1.00, 0.00, -0.00, -1.00, 535.2, 11.4)">a</text><text xml:space="preserve" font-family="HelveticaNeue-Thin,Helvetica Neue" font-size="50.0" fill="#EBEAE9" transform="matrix(1.00, 0.00, -0.00, -1.00, 560.2, 11.4)">,</text><text xml:space="preserve" font-family="HelveticaNeue-Thin,Helvetica Neue" font-size="50.0" fill="#EBEAE9" transform="matrix(1.00, 0.00, -0.00, -1.00, 574.1, 11.4)"> </text><text xml:space="preserve" font-family="HelveticaNeue-Thin,Helvetica Neue" font-size="50.0" fill="#EBEAE9" transform="matrix(1.00, 0.00, -0.00, -1.00, 588.0, 11.4)">i</text><text xml:space="preserve" font-family="HelveticaNeue-Thin,Helvetica Neue" font-size="50.0" fill="#EBEAE9" transform="matrix(1.00, 0.00, -0.00, -1.00, 596.4, 11.4)">n</text><text xml:space="preserve" font-family="HelveticaNeue-Thin,Helvetica Neue" font-size="50.0" fill="#EBEAE9" transform="matrix(1.00, 0.00, -0.00, -1.00, 622.4, 11.4)">t</text><text xml:space="preserve" font-family="HelveticaNeue-Thin,Helvetica Neue" font-size="50.0" fill="#EBEAE9" transform="matrix(1.00, 0.00, -0.00, -1.00, 634.6, 11.4)">e</text><text xml:space="preserve" font-family="HelveticaNeue-Thin,Helvetica Neue" font-size="50.0" fill="#EBEAE9" transform="matrix(1.00, 0.00, -0.00, -1.00, 660.6, 11.4)">r</text><text xml:space="preserve" font-family="HelveticaNeue-Thin,Helvetica Neue" font-size="50.0" fill="#EBEAE9" transform="matrix(1.00, 0.00, -0.00, -1.00, 674.5, 11.4)">p</text><text xml:space="preserve" font-family="HelveticaNeue-Thin,Helvetica Neue" font-size="50.0" fill="#EBEAE9" transform="matrix(1.00, 0.00, -0.00, -1.00, 702.3, 11.4)">r</text><text xml:space="preserve" font-family="HelveticaNeue-Thin,Helvetica Neue" font-size="50.0" fill="#EBEAE9" transform="matrix(1.00, 0.00, -0.00, -1.00, 715.6, 11.4)">e</text><text xml:space="preserve" font-family="HelveticaNeue-Thin,Helvetica Neue" font-size="50.0" fill="#EBEAE9" transform="matrix(1.00, 0.00, -0.00, -1.00, 741.5, 11.4)">t</text><text xml:space="preserve" font-family="HelveticaNeue-Thin,Helvetica Neue" font-size="50.0" fill="#EBEAE9" transform="matrix(1.00, 0.00, -0.00, -1.00, 754.5, 11.4)"> </text><text xml:space="preserve" font-family="HelveticaNeue-Thin,Helvetica Neue" font-size="50.0" fill="#3B3C1B" transform="matrix(1.00, 0.00, -0.00, -1.00, 768.4, 11.4)">o</text><text xml:space="preserve" font-family="HelveticaNeue-Thin,Helvetica Neue" font-size="50.0" fill="#3B3C1B" transform="matrix(1.00, 0.00, -0.00, -1.00, 795.2, 11.4)">l</text><text xml:space="preserve" font-family="HelveticaNeue-Thin,Helvetica Neue" font-size="50.0" fill="#3B3C1B" transform="matrix(1.00, 0.00, -0.00, -1.00, 803.6, 11.4)">d</text><text xml:space="preserve" font-family="HelveticaNeue-Thin,Helvetica Neue" font-size="50.0" fill="#3B3C1B" transform="matrix(1.00, 0.00, -0.00, -1.00, 831.4, 11.4)"> </text><text xml:space="preserve" font-family="HelveticaNeue-Thin,Helvetica Neue" font-size="50.0" fill="#3B3C1B" transform="matrix(1.00, 0.00, -0.00, -1.00, 845.3, 11.4)">m</text><text xml:space="preserve" font-family="HelveticaNeue-Thin,Helvetica Neue" font-size="50.0" fill="#3B3C1B" transform="matrix(1.00, 0.00, -0.00, -1.00, 885.1, 11.4)">a</text><text xml:space="preserve" font-family="HelveticaNeue-Thin,Helvetica Neue" font-size="50.0" fill="#3B3C1B" transform="matrix(1.00, 0.00, -0.00, -1.00, 910.1, 11.4)">p</text><text xml:space="preserve" font-family="HelveticaNeue-Thin,Helvetica Neue" font-size="50.0" fill="#3B3C1B" transform="matrix(1.00, 0.00, -0.00, -1.00, 937.9, 11.4)">s</text></g></svg>