<?xml version="1.0" encoding="UTF-8" standalone="no"?><svg xmlns="http://www.w3.org/2000/svg" xmlns:xlink="http://www.w3.org/1999/xlink" clip-rule="evenodd" stroke-miterlimit="10" viewBox="0 0 1024 768"><desc>SVG generated by Keynote</desc><defs></defs><g transform="matrix(1.00, 0.00, -0.00, -1.00, 0.0, 768.0)"><path d="M 0.0 768.0 L 1024.0 768.0 L 1024.0 0.0 L 0.0 0.0 Z M 0.0 768.0 " fill="#000000"></path><image xlink:href="../../3C934C74-174A-4251-89B6-A5A48542C79D/assets/CFF5A1D6E652662295969DCE2B97140E.png" width="717.00" height="433.00" transform="matrix(1.00, 0.00, -0.00, -1.00, 153.5, 590.5)" opacity="0.70"></image><image xlink:href="../../3C934C74-174A-4251-89B6-A5A48542C79D/assets/06044A8D63FDDE7703E2199B14B6403D.png" width="677.00" height="393.00" transform="matrix(1.00, 0.00, -0.00, -1.00, 174.0, 580.0)"></image><g><clipPath id="clip0x6080018a07e0"><path d="M 68.0 494.0 L 551.0 494.0 L 551.0 434.0 L 68.0 434.0 Z M 68.0 493.5 "></path></clipPath><g clip-path="url(#clip0x6080018a07e0)"><image xlink:href="../../3C934C74-174A-4251-89B6-A5A48542C79D/assets/06044A8D63FDDE7703E2199B14B6403D.png" width="677.00" height="393.00" transform="matrix(1.48, 0.00, -0.00, -1.48, -9.0, 642.0)"></image></g></g><path d="M 0.0 0.0 L 0.0 59.4 L 482.7 59.4 L 482.7 0.0 L 0.0 0.0 Z M 0.0 0.0 " fill="none" stroke="#000000" stroke-width="2.00" transform="matrix(1.00, 0.00, 0.00, -1.00, 68.0, 493.5)"></path></g></svg>