<?xml version="1.0" encoding="UTF-8" standalone="no"?><svg xmlns="http://www.w3.org/2000/svg" xmlns:xlink="http://www.w3.org/1999/xlink" clip-rule="evenodd" stroke-miterlimit="10" viewBox="0 0 1139 49"><desc>SVG generated by Keynote</desc><defs></defs><g transform="matrix(1.00, 0.00, -0.00, -1.00, 0.0, 49.0)"><text xml:space="preserve" font-family="HelveticaNeue-Thin,Helvetica Neue" font-size="50.0" fill="#3B3C1B" transform="matrix(1.00, 0.00, -0.00, -1.00, 1.4, 11.6)">W</text><text xml:space="preserve" font-family="HelveticaNeue-Thin,Helvetica Neue" font-size="50.0" fill="#3B3C1B" transform="matrix(1.00, 0.00, -0.00, -1.00, 47.0, 11.6)">i</text><text xml:space="preserve" font-family="HelveticaNeue-Thin,Helvetica Neue" font-size="50.0" fill="#3B3C1B" transform="matrix(1.00, 0.00, -0.00, -1.00, 55.4, 11.6)">k</text><text xml:space="preserve" font-family="HelveticaNeue-Thin,Helvetica Neue" font-size="50.0" fill="#3B3C1B" transform="matrix(1.00, 0.00, -0.00, -1.00, 78.6, 11.6)">i</text><text xml:space="preserve" font-family="HelveticaNeue-Thin,Helvetica Neue" font-size="50.0" fill="#3B3C1B" transform="matrix(1.00, 0.00, -0.00, -1.00, 87.0, 11.6)"> </text><text xml:space="preserve" font-family="HelveticaNeue-Thin,Helvetica Neue" font-size="50.0" fill="#3B3C1B" transform="matrix(1.00, 0.00, -0.00, -1.00, 100.9, 11.6)">L</text><text xml:space="preserve" font-family="HelveticaNeue-Thin,Helvetica Neue" font-size="50.0" fill="#3B3C1B" transform="matrix(1.00, 0.00, -0.00, -1.00, 125.0, 11.6)">o</text><text xml:space="preserve" font-family="HelveticaNeue-Thin,Helvetica Neue" font-size="50.0" fill="#3B3C1B" transform="matrix(1.00, 0.00, -0.00, -1.00, 151.8, 11.6)">v</text><text xml:space="preserve" font-family="HelveticaNeue-Thin,Helvetica Neue" font-size="50.0" fill="#3B3C1B" transform="matrix(1.00, 0.00, -0.00, -1.00, 174.0, 11.6)">e</text><text xml:space="preserve" font-family="HelveticaNeue-Thin,Helvetica Neue" font-size="50.0" fill="#3B3C1B" transform="matrix(1.00, 0.00, -0.00, -1.00, 200.0, 11.6)">s</text><text xml:space="preserve" font-family="HelveticaNeue-Thin,Helvetica Neue" font-size="50.0" fill="#3B3C1B" transform="matrix(1.00, 0.00, -0.00, -1.00, 224.0, 11.6)"> </text><text xml:space="preserve" font-family="HelveticaNeue-Thin,Helvetica Neue" font-size="50.0" fill="#3B3C1B" transform="matrix(1.00, 0.00, -0.00, -1.00, 237.9, 11.6)">M</text><text xml:space="preserve" font-family="HelveticaNeue-Thin,Helvetica Neue" font-size="50.0" fill="#3B3C1B" transform="matrix(1.00, 0.00, -0.00, -1.00, 278.4, 11.6)">a</text><text xml:space="preserve" font-family="HelveticaNeue-Thin,Helvetica Neue" font-size="50.0" fill="#3B3C1B" transform="matrix(1.00, 0.00, -0.00, -1.00, 303.4, 11.6)">p</text><text xml:space="preserve" font-family="HelveticaNeue-Thin,Helvetica Neue" font-size="50.0" fill="#3B3C1B" transform="matrix(1.00, 0.00, -0.00, -1.00, 331.2, 11.6)">s</text><text xml:space="preserve" font-family="HelveticaNeue-Thin,Helvetica Neue" font-size="50.0" fill="#EBEAE9" transform="matrix(1.00, 0.00, -0.00, -1.00, 355.2, 11.6)"> </text><text xml:space="preserve" font-family="HelveticaNeue-Thin,Helvetica Neue" font-size="50.0" fill="#EBEAE9" transform="matrix(1.00, 0.00, -0.00, -1.00, 369.1, 11.6)">h</text><text xml:space="preserve" font-family="HelveticaNeue-Thin,Helvetica Neue" font-size="50.0" fill="#EBEAE9" transform="matrix(1.00, 0.00, -0.00, -1.00, 395.1, 11.6)">a</text><text xml:space="preserve" font-family="HelveticaNeue-Thin,Helvetica Neue" font-size="50.0" fill="#EBEAE9" transform="matrix(1.00, 0.00, -0.00, -1.00, 420.1, 11.6)">c</text><text xml:space="preserve" font-family="HelveticaNeue-Thin,Helvetica Neue" font-size="50.0" fill="#EBEAE9" transform="matrix(1.00, 0.00, -0.00, -1.00, 446.0, 11.6)">k</text><text xml:space="preserve" font-family="HelveticaNeue-Thin,Helvetica Neue" font-size="50.0" fill="#EBEAE9" transform="matrix(1.00, 0.00, -0.00, -1.00, 469.2, 11.6)">a</text><text xml:space="preserve" font-family="HelveticaNeue-Thin,Helvetica Neue" font-size="50.0" fill="#EBEAE9" transform="matrix(1.00, 0.00, -0.00, -1.00, 494.2, 11.6)">t</text><text xml:space="preserve" font-family="HelveticaNeue-Thin,Helvetica Neue" font-size="50.0" fill="#EBEAE9" transform="matrix(1.00, 0.00, -0.00, -1.00, 507.1, 11.6)">h</text><text xml:space="preserve" font-family="HelveticaNeue-Thin,Helvetica Neue" font-size="50.0" fill="#EBEAE9" transform="matrix(1.00, 0.00, -0.00, -1.00, 533.1, 11.6)">o</text><text xml:space="preserve" font-family="HelveticaNeue-Thin,Helvetica Neue" font-size="50.0" fill="#EBEAE9" transform="matrix(1.00, 0.00, -0.00, -1.00, 559.9, 11.6)">n</text><text xml:space="preserve" font-family="HelveticaNeue-Thin,Helvetica Neue" font-size="50.0" fill="#EBEAE9" transform="matrix(1.00, 0.00, -0.00, -1.00, 585.9, 11.6)"> </text><text xml:space="preserve" font-family="HelveticaNeue-Thin,Helvetica Neue" font-size="50.0" fill="#EBEAE9" transform="matrix(1.00, 0.00, -0.00, -1.00, 599.8, 11.6)">i</text><text xml:space="preserve" font-family="HelveticaNeue-Thin,Helvetica Neue" font-size="50.0" fill="#EBEAE9" transform="matrix(1.00, 0.00, -0.00, -1.00, 608.2, 11.6)">n</text><text xml:space="preserve" font-family="HelveticaNeue-Thin,Helvetica Neue" font-size="50.0" fill="#EBEAE9" transform="matrix(1.00, 0.00, -0.00, -1.00, 634.1, 11.6)"> </text><text xml:space="preserve" font-family="HelveticaNeue-Thin,Helvetica Neue" font-size="50.0" fill="#EBEAE9" transform="matrix(1.00, 0.00, -0.00, -1.00, 648.0, 11.6)">H</text><text xml:space="preserve" font-family="HelveticaNeue-Thin,Helvetica Neue" font-size="50.0" fill="#EBEAE9" transform="matrix(1.00, 0.00, -0.00, -1.00, 681.5, 11.6)">e</text><text xml:space="preserve" font-family="HelveticaNeue-Thin,Helvetica Neue" font-size="50.0" fill="#EBEAE9" transform="matrix(1.00, 0.00, -0.00, -1.00, 707.5, 11.6)">l</text><text xml:space="preserve" font-family="HelveticaNeue-Thin,Helvetica Neue" font-size="50.0" fill="#EBEAE9" transform="matrix(1.00, 0.00, -0.00, -1.00, 715.9, 11.6)">s</text><text xml:space="preserve" font-family="HelveticaNeue-Thin,Helvetica Neue" font-size="50.0" fill="#EBEAE9" transform="matrix(1.00, 0.00, -0.00, -1.00, 739.9, 11.6)">i</text><text xml:space="preserve" font-family="HelveticaNeue-Thin,Helvetica Neue" font-size="50.0" fill="#EBEAE9" transform="matrix(1.00, 0.00, -0.00, -1.00, 748.3, 11.6)">n</text><text xml:space="preserve" font-family="HelveticaNeue-Thin,Helvetica Neue" font-size="50.0" fill="#EBEAE9" transform="matrix(1.00, 0.00, -0.00, -1.00, 774.3, 11.6)">k</text><text xml:space="preserve" font-family="HelveticaNeue-Thin,Helvetica Neue" font-size="50.0" fill="#EBEAE9" transform="matrix(1.00, 0.00, -0.00, -1.00, 797.4, 11.6)">i</text><text xml:space="preserve" font-family="HelveticaNeue-Thin,Helvetica Neue" font-size="50.0" fill="#EBEAE9" transform="matrix(1.00, 0.00, -0.00, -1.00, 805.8, 11.6)">,</text><text xml:space="preserve" font-family="HelveticaNeue-Thin,Helvetica Neue" font-size="50.0" fill="#EBEAE9" transform="matrix(1.00, 0.00, -0.00, -1.00, 819.7, 11.6)"> </text><text xml:space="preserve" font-family="HelveticaNeue-Thin,Helvetica Neue" font-size="50.0" fill="#EBEAE9" transform="matrix(1.00, 0.00, -0.00, -1.00, 833.6, 11.6)">F</text><text xml:space="preserve" font-family="HelveticaNeue-Thin,Helvetica Neue" font-size="50.0" fill="#EBEAE9" transform="matrix(1.00, 0.00, -0.00, -1.00, 857.9, 11.6)">e</text><text xml:space="preserve" font-family="HelveticaNeue-Thin,Helvetica Neue" font-size="50.0" fill="#EBEAE9" transform="matrix(1.00, 0.00, -0.00, -1.00, 883.9, 11.6)">b</text><text xml:space="preserve" font-family="HelveticaNeue-Thin,Helvetica Neue" font-size="50.0" fill="#EBEAE9" transform="matrix(1.00, 0.00, -0.00, -1.00, 911.7, 11.6)">r</text><text xml:space="preserve" font-family="HelveticaNeue-Thin,Helvetica Neue" font-size="50.0" fill="#EBEAE9" transform="matrix(1.00, 0.00, -0.00, -1.00, 925.6, 11.6)">u</text><text xml:space="preserve" font-family="HelveticaNeue-Thin,Helvetica Neue" font-size="50.0" fill="#EBEAE9" transform="matrix(1.00, 0.00, -0.00, -1.00, 951.5, 11.6)">a</text><text xml:space="preserve" font-family="HelveticaNeue-Thin,Helvetica Neue" font-size="50.0" fill="#EBEAE9" transform="matrix(1.00, 0.00, -0.00, -1.00, 976.5, 11.6)">r</text><text xml:space="preserve" font-family="HelveticaNeue-Thin,Helvetica Neue" font-size="50.0" fill="#EBEAE9" transform="matrix(1.00, 0.00, -0.00, -1.00, 991.3, 11.6)">y</text><text xml:space="preserve" font-family="HelveticaNeue-Thin,Helvetica Neue" font-size="50.0" fill="#EBEAE9" transform="matrix(1.00, 0.00, -0.00, -1.00, 1013.5, 11.6)"> </text><text xml:space="preserve" font-family="HelveticaNeue-Thin,Helvetica Neue" font-size="50.0" fill="#EBEAE9" transform="matrix(1.00, 0.00, -0.00, -1.00, 1027.4, 11.6)">2</text><text xml:space="preserve" font-family="HelveticaNeue-Thin,Helvetica Neue" font-size="50.0" fill="#EBEAE9" transform="matrix(1.00, 0.00, -0.00, -1.00, 1055.2, 11.6)">0</text><text xml:space="preserve" font-family="HelveticaNeue-Thin,Helvetica Neue" font-size="50.0" fill="#EBEAE9" transform="matrix(1.00, 0.00, -0.00, -1.00, 1083.0, 11.6)">1</text><text xml:space="preserve" font-family="HelveticaNeue-Thin,Helvetica Neue" font-size="50.0" fill="#EBEAE9" transform="matrix(1.00, 0.00, -0.00, -1.00, 1110.8, 11.6)">5</text></g></svg>