<?xml version="1.0" encoding="UTF-8" standalone="no"?><svg xmlns="http://www.w3.org/2000/svg" xmlns:xlink="http://www.w3.org/1999/xlink" clip-rule="evenodd" stroke-miterlimit="10" viewBox="0 0 1280 800"><desc>SVG generated by Keynote</desc><defs></defs><g transform="matrix(1.00, 0.00, -0.00, -1.00, 0.0, 800.0)"><path d="M 0.0 800.0 L 1280.0 800.0 L 1280.0 0.0 L 0.0 0.0 Z M 0.0 800.0 " fill="#DEDFE4"></path><g><clipPath id="clip0x6000022b2d80"><path d="M 636.0 401.0 L 1284.0 401.0 L 1284.0 -6.0 L 636.0 -6.0 Z M 636.4 401.4 "></path></clipPath><g clip-path="url(#clip0x6000022b2d80)"><image xlink:href="9AB1304C2F2A511E660B9CDB13F0C77B.jpeg" width="3244.00" height="4096.00" transform="matrix(0.28, 0.00, -0.00, -0.28, 510.0, 598.0)"></image></g></g><g><clipPath id="clip0x6080020aea00"><path d="M 774.2 161.8 L 1150.6 161.8 L 1150.6 245.3 L 774.2 245.3 Z M 774.2 161.8 "></path></clipPath><g clip-path="url(#clip0x6080020aea00)"><path d="M 776.4 244.0 L 775.2 169.0 L 1028.0 169.0 L 1027.0 162.8 L 1149.6 164.2 L 1148.6 244.0 L 776.4 244.0 Z M 776.4 243.6 " fill="#EDEDED" fill-opacity="0.97"></path></g></g><g><clipPath id="clip0x6080020aef40"><path d="M 639.0 804.0 L 1281.0 804.0 L 1281.0 400.0 L 639.0 400.0 Z M 638.7 804.1 "></path></clipPath><g clip-path="url(#clip0x6080020aef40)"><image xlink:href="4F3DE471019F7C494A4B3AB36B400CAA.png" width="4096.00" height="4096.00" transform="matrix(0.16, 0.00, -0.00, -0.16, 637.0, 940.0)"></image></g></g><image xlink:href="3BA497F7FC93FF3101E676AAF0B94122.png" width="425.00" height="105.00" transform="matrix(1.00, 0.00, -0.00, -1.00, 752.0, 646.0)"></image><text xml:space="preserve" font-family="HelveticaNeue-Thin,Helvetica Neue" font-size="70.0" fill="#FEFFFE" transform="matrix(1.00, 0.00, -0.00, -1.00, 773.8, 575.7)">A</text><text xml:space="preserve" font-family="HelveticaNeue-Thin,Helvetica Neue" font-size="70.0" fill="#FEFFFE" transform="matrix(1.00, 0.00, -0.00, -1.00, 815.3, 575.7)">e</text><text xml:space="preserve" font-family="HelveticaNeue-Thin,Helvetica Neue" font-size="70.0" fill="#FEFFFE" transform="matrix(1.00, 0.00, -0.00, -1.00, 851.7, 575.7)">r</text><text xml:space="preserve" font-family="HelveticaNeue-Thin,Helvetica Neue" font-size="70.0" fill="#FEFFFE" transform="matrix(1.00, 0.00, -0.00, -1.00, 871.1, 575.7)">i</text><text xml:space="preserve" font-family="HelveticaNeue-Thin,Helvetica Neue" font-size="70.0" fill="#FEFFFE" transform="matrix(1.00, 0.00, -0.00, -1.00, 882.9, 575.7)">a</text><text xml:space="preserve" font-family="HelveticaNeue-Thin,Helvetica Neue" font-size="70.0" fill="#FEFFFE" transform="matrix(1.00, 0.00, -0.00, -1.00, 917.9, 575.7)">l</text><text xml:space="preserve" font-family="HelveticaNeue-Thin,Helvetica Neue" font-size="70.0" fill="#FEFFFE" transform="matrix(1.00, 0.00, -0.00, -1.00, 929.7, 575.7)"> </text><text xml:space="preserve" font-family="HelveticaNeue-Thin,Helvetica Neue" font-size="70.0" fill="#FEFFFE" transform="matrix(1.00, 0.00, -0.00, -1.00, 949.1, 575.7)">i</text><text xml:space="preserve" font-family="HelveticaNeue-Thin,Helvetica Neue" font-size="70.0" fill="#FEFFFE" transform="matrix(1.00, 0.00, -0.00, -1.00, 960.9, 575.7)">m</text><text xml:space="preserve" font-family="HelveticaNeue-Thin,Helvetica Neue" font-size="70.0" fill="#FEFFFE" transform="matrix(1.00, 0.00, -0.00, -1.00, 1016.6, 575.7)">a</text><text xml:space="preserve" font-family="HelveticaNeue-Thin,Helvetica Neue" font-size="70.0" fill="#FEFFFE" transform="matrix(1.00, 0.00, -0.00, -1.00, 1051.6, 575.7)">g</text><text xml:space="preserve" font-family="HelveticaNeue-Thin,Helvetica Neue" font-size="70.0" fill="#FEFFFE" transform="matrix(1.00, 0.00, -0.00, -1.00, 1089.2, 575.7)">e</text><text xml:space="preserve" font-family="HelveticaNeue-Thin,Helvetica Neue" font-size="70.0" fill="#FEFFFE" transform="matrix(1.00, 0.00, -0.00, -1.00, 1125.5, 575.7)">s</text><g><clipPath id="clip0x6000020a34e0"><path d="M -13.0 401.0 L 638.0 401.0 L 638.0 -7.0 L -13.0 -7.0 Z M -13.0 401.2 "></path></clipPath><g clip-path="url(#clip0x6000020a34e0)"><image xlink:href="28FD9CEC0D27360D4D84876DB3639B2C.png" width="2000.00" height="1365.00" transform="matrix(0.32, 0.00, -0.00, -0.32, 0.0, 422.0)"></image></g></g><image xlink:href="DD750EF56212ACDAC1D1F6236F5BACFB.png" width="411.00" height="104.00" transform="matrix(1.00, 0.00, -0.00, -1.00, 116.0, 245.0)"></image><text xml:space="preserve" font-family="HelveticaNeue-Thin,Helvetica Neue" font-size="70.0" fill="#FEFFFE" transform="matrix(1.00, 0.00, -0.00, -1.00, 131.8, 174.8)">B</text><text xml:space="preserve" font-family="HelveticaNeue-Thin,Helvetica Neue" font-size="70.0" fill="#FEFFFE" transform="matrix(1.00, 0.00, -0.00, -1.00, 175.9, 174.8)">u</text><text xml:space="preserve" font-family="HelveticaNeue-Thin,Helvetica Neue" font-size="70.0" fill="#FEFFFE" transform="matrix(1.00, 0.00, -0.00, -1.00, 212.2, 174.8)">i</text><text xml:space="preserve" font-family="HelveticaNeue-Thin,Helvetica Neue" font-size="70.0" fill="#FEFFFE" transform="matrix(1.00, 0.00, -0.00, -1.00, 224.0, 174.8)">l</text><text xml:space="preserve" font-family="HelveticaNeue-Thin,Helvetica Neue" font-size="70.0" fill="#FEFFFE" transform="matrix(1.00, 0.00, -0.00, -1.00, 235.7, 174.8)">d</text><text xml:space="preserve" font-family="HelveticaNeue-Thin,Helvetica Neue" font-size="70.0" fill="#FEFFFE" transform="matrix(1.00, 0.00, -0.00, -1.00, 274.7, 174.8)">i</text><text xml:space="preserve" font-family="HelveticaNeue-Thin,Helvetica Neue" font-size="70.0" fill="#FEFFFE" transform="matrix(1.00, 0.00, -0.00, -1.00, 286.4, 174.8)">n</text><text xml:space="preserve" font-family="HelveticaNeue-Thin,Helvetica Neue" font-size="70.0" fill="#FEFFFE" transform="matrix(1.00, 0.00, -0.00, -1.00, 322.7, 174.8)">g</text><text xml:space="preserve" font-family="HelveticaNeue-Thin,Helvetica Neue" font-size="70.0" fill="#FEFFFE" transform="matrix(1.00, 0.00, -0.00, -1.00, 360.3, 174.8)"> </text><text xml:space="preserve" font-family="HelveticaNeue-Thin,Helvetica Neue" font-size="70.0" fill="#FEFFFE" transform="matrix(1.00, 0.00, -0.00, -1.00, 379.8, 174.8)">d</text><text xml:space="preserve" font-family="HelveticaNeue-Thin,Helvetica Neue" font-size="70.0" fill="#FEFFFE" transform="matrix(1.00, 0.00, -0.00, -1.00, 418.7, 174.8)">a</text><text xml:space="preserve" font-family="HelveticaNeue-Thin,Helvetica Neue" font-size="70.0" fill="#FEFFFE" transform="matrix(1.00, 0.00, -0.00, -1.00, 453.7, 174.8)">t</text><text xml:space="preserve" font-family="HelveticaNeue-Thin,Helvetica Neue" font-size="70.0" fill="#FEFFFE" transform="matrix(1.00, 0.00, -0.00, -1.00, 471.8, 174.8)">a</text><image xlink:href="18FF49A67096ABBF77FB8E2FB8E8C771.jpeg" width="3000.00" height="2000.00" transform="matrix(0.20, 0.00, -0.00, -0.20, 19.0, 802.0)"></image><image xlink:href="F3C632FA5A1C031DEE6F9033CE7D0876.png" width="404.00" height="105.00" transform="matrix(1.00, 0.00, -0.00, -1.00, 118.0, 646.0)"></image><text xml:space="preserve" font-family="HelveticaNeue-Thin,Helvetica Neue" font-size="70.0" fill="#FEFFFE" transform="matrix(1.00, 0.00, -0.00, -1.00, 134.5, 575.5)">P</text><text xml:space="preserve" font-family="HelveticaNeue-Thin,Helvetica Neue" font-size="70.0" fill="#FEFFFE" transform="matrix(1.00, 0.00, -0.00, -1.00, 175.9, 575.5)">h</text><text xml:space="preserve" font-family="HelveticaNeue-Thin,Helvetica Neue" font-size="70.0" fill="#FEFFFE" transform="matrix(1.00, 0.00, -0.00, -1.00, 212.2, 575.5)">o</text><text xml:space="preserve" font-family="HelveticaNeue-Thin,Helvetica Neue" font-size="70.0" fill="#FEFFFE" transform="matrix(1.00, 0.00, -0.00, -1.00, 249.8, 575.5)">t</text><text xml:space="preserve" font-family="HelveticaNeue-Thin,Helvetica Neue" font-size="70.0" fill="#FEFFFE" transform="matrix(1.00, 0.00, -0.00, -1.00, 267.0, 575.5)">o</text><text xml:space="preserve" font-family="HelveticaNeue-Thin,Helvetica Neue" font-size="70.0" fill="#FEFFFE" transform="matrix(1.00, 0.00, -0.00, -1.00, 304.5, 575.5)">g</text><text xml:space="preserve" font-family="HelveticaNeue-Thin,Helvetica Neue" font-size="70.0" fill="#FEFFFE" transform="matrix(1.00, 0.00, -0.00, -1.00, 342.1, 575.5)">r</text><text xml:space="preserve" font-family="HelveticaNeue-Thin,Helvetica Neue" font-size="70.0" fill="#FEFFFE" transform="matrix(1.00, 0.00, -0.00, -1.00, 360.2, 575.5)">a</text><text xml:space="preserve" font-family="HelveticaNeue-Thin,Helvetica Neue" font-size="70.0" fill="#FEFFFE" transform="matrix(1.00, 0.00, -0.00, -1.00, 395.2, 575.5)">p</text><text xml:space="preserve" font-family="HelveticaNeue-Thin,Helvetica Neue" font-size="70.0" fill="#FEFFFE" transform="matrix(1.00, 0.00, -0.00, -1.00, 434.1, 575.5)">h</text><text xml:space="preserve" font-family="HelveticaNeue-Thin,Helvetica Neue" font-size="70.0" fill="#FEFFFE" transform="matrix(1.00, 0.00, -0.00, -1.00, 470.4, 575.5)">s</text><text xml:space="preserve" font-family="HelveticaNeue-Thin,Helvetica Neue" font-size="70.0" fill="#121212" transform="matrix(1.00, 0.00, -0.00, -1.00, 791.5, 181.2)">D</text><text xml:space="preserve" font-family="HelveticaNeue-Thin,Helvetica Neue" font-size="70.0" fill="#121212" transform="matrix(1.00, 0.00, -0.00, -1.00, 838.2, 181.2)">o</text><text xml:space="preserve" font-family="HelveticaNeue-Thin,Helvetica Neue" font-size="70.0" fill="#121212" transform="matrix(1.00, 0.00, -0.00, -1.00, 875.8, 181.2)">c</text><text xml:space="preserve" font-family="HelveticaNeue-Thin,Helvetica Neue" font-size="70.0" fill="#121212" transform="matrix(1.00, 0.00, -0.00, -1.00, 912.1, 181.2)">u</text><text xml:space="preserve" font-family="HelveticaNeue-Thin,Helvetica Neue" font-size="70.0" fill="#121212" transform="matrix(1.00, 0.00, -0.00, -1.00, 948.5, 181.2)">m</text><text xml:space="preserve" font-family="HelveticaNeue-Thin,Helvetica Neue" font-size="70.0" fill="#121212" transform="matrix(1.00, 0.00, -0.00, -1.00, 1004.2, 181.2)">e</text><text xml:space="preserve" font-family="HelveticaNeue-Thin,Helvetica Neue" font-size="70.0" fill="#121212" transform="matrix(1.00, 0.00, -0.00, -1.00, 1040.5, 181.2)">n</text><text xml:space="preserve" font-family="HelveticaNeue-Thin,Helvetica Neue" font-size="70.0" fill="#121212" transform="matrix(1.00, 0.00, -0.00, -1.00, 1076.9, 181.2)">t</text><text xml:space="preserve" font-family="HelveticaNeue-Thin,Helvetica Neue" font-size="70.0" fill="#121212" transform="matrix(1.00, 0.00, -0.00, -1.00, 1095.0, 181.2)">s</text></g></svg>