<?xml version="1.0" encoding="UTF-8" standalone="no"?><svg xmlns="http://www.w3.org/2000/svg" xmlns:xlink="http://www.w3.org/1999/xlink" clip-rule="evenodd" stroke-miterlimit="10" viewBox="0 0 1024 768"><desc>SVG generated by Keynote</desc><defs></defs><g transform="matrix(1.00, 0.00, -0.00, -1.00, 0.0, 768.0)"><path d="M 0.0 768.0 L 1024.0 768.0 L 1024.0 0.0 L 0.0 0.0 Z M 0.0 768.0 " fill="#000000"></path><image xlink:href="../../B6CB5558-B752-4FD2-ABC6-D2B9F3CE95EF/assets/9D26B9CB708C3828DBE9D9463D3D7620.png" width="760.00" height="394.00" transform="matrix(1.00, 0.00, -0.00, -1.00, 158.0, 658.0)"></image><image xlink:href="../../B6CB5558-B752-4FD2-ABC6-D2B9F3CE95EF/assets/653FADBE23EC13379F576BFDAECAE9F1.png" width="760.00" height="397.00" transform="matrix(1.00, 0.05, 0.05, -1.00, 33.1, 521.8)"></image><image xlink:href="../../B6CB5558-B752-4FD2-ABC6-D2B9F3CE95EF/assets/442AA0A0C1CB8D04B85D3DE8F85DDB0D.png" width="760.00" height="398.00" transform="matrix(1.00, -0.07, -0.07, -1.00, 204.8, 644.0)"></image><image xlink:href="../../B6CB5558-B752-4FD2-ABC6-D2B9F3CE95EF/assets/37D967380B874B7A827CA227727822FB.png" width="760.00" height="437.00" transform="matrix(1.00, 0.00, -0.00, -1.00, 66.0, 562.0)"></image><image xlink:href="../../B6CB5558-B752-4FD2-ABC6-D2B9F3CE95EF/assets/904667EFB08E48E59BE81B7E9F72D137.png" width="760.00" height="405.00" transform="matrix(1.00, 0.09, 0.09, -1.00, 209.8, 418.1)"></image><image xlink:href="../../B6CB5558-B752-4FD2-ABC6-D2B9F3CE95EF/assets/45C0E96A1636D6BFFD12C215A6817B18.png" width="760.00" height="388.00" transform="matrix(1.00, 0.05, 0.05, -1.00, 17.4, 476.8)"></image><image xlink:href="../../B6CB5558-B752-4FD2-ABC6-D2B9F3CE95EF/assets/9828B12E70024AD0F128D4A69DBC1D95.png" width="760.00" height="406.00" transform="matrix(1.00, 0.02, 0.02, -1.00, 71.5, 428.3)"></image><image xlink:href="../../B6CB5558-B752-4FD2-ABC6-D2B9F3CE95EF/assets/D0CB97E9EE9621449E837F356D95FA69.png" width="760.00" height="383.00" transform="matrix(1.00, -0.03, -0.03, -1.00, 219.9, 729.1)"></image><image xlink:href="../../B6CB5558-B752-4FD2-ABC6-D2B9F3CE95EF/assets/9DA6E30C20C7F44AF0DE5340E9A84BEC.png" width="760.00" height="470.00" transform="matrix(1.00, 0.07, 0.07, -1.00, 35.5, 714.9)"></image><image xlink:href="../../B6CB5558-B752-4FD2-ABC6-D2B9F3CE95EF/assets/7258F0F11022201C25DE553F2E174FCD.png" width="760.00" height="391.00" transform="matrix(0.99, -0.13, -0.13, -0.99, 278.0, 491.8)"></image><image xlink:href="../../B6CB5558-B752-4FD2-ABC6-D2B9F3CE95EF/assets/C4A0134EC8B4A6A3F9ABFFB0D10092EF.png" width="760.00" height="469.00" transform="matrix(1.00, -0.09, -0.09, -1.00, 179.9, 728.2)"></image><image xlink:href="../../B6CB5558-B752-4FD2-ABC6-D2B9F3CE95EF/assets/855C4F673E9EDC44D9B037301BD4A8DB.png" width="760.00" height="389.00" transform="matrix(1.00, -0.05, -0.05, -1.00, 275.7, 752.6)"></image></g></svg>