<?xml version="1.0" encoding="UTF-8" standalone="no"?><svg xmlns="http://www.w3.org/2000/svg" xmlns:xlink="http://www.w3.org/1999/xlink" clip-rule="evenodd" stroke-miterlimit="10" viewBox="0 0 1280 800"><desc>SVG generated by Keynote</desc><defs></defs><g transform="matrix(1.00, 0.00, -0.00, -1.00, 0.0, 800.0)"><path d="M 0.0 800.0 L 1280.0 800.0 L 1280.0 0.0 L 0.0 0.0 Z M 0.0 800.0 " fill="#CD3A1C"></path><text xml:space="preserve" font-family="HelveticaNeue-Thin,Helvetica Neue" font-size="100.0" fill="#EBEAE9" transform="matrix(1.00, 0.00, -0.00, -1.00, 446.4, 362.3)">A</text><text xml:space="preserve" font-family="HelveticaNeue-Thin,Helvetica Neue" font-size="100.0" fill="#EBEAE9" transform="matrix(1.00, 0.00, -0.00, -1.00, 505.7, 362.3)">n</text><text xml:space="preserve" font-family="HelveticaNeue-Thin,Helvetica Neue" font-size="100.0" fill="#EBEAE9" transform="matrix(1.00, 0.00, -0.00, -1.00, 557.6, 362.3)">d</text><text xml:space="preserve" font-family="HelveticaNeue-Thin,Helvetica Neue" font-size="100.0" fill="#EBEAE9" transform="matrix(1.00, 0.00, -0.00, -1.00, 613.2, 362.3)"> </text><text xml:space="preserve" font-family="HelveticaNeue-Thin,Helvetica Neue" font-size="100.0" fill="#EBEAE9" transform="matrix(1.00, 0.00, -0.00, -1.00, 641.0, 362.3)">w</text><text xml:space="preserve" font-family="HelveticaNeue-Thin,Helvetica Neue" font-size="100.0" fill="#EBEAE9" transform="matrix(1.00, 0.00, -0.00, -1.00, 711.4, 362.3)">h</text><text xml:space="preserve" font-family="HelveticaNeue-Thin,Helvetica Neue" font-size="100.0" fill="#EBEAE9" transform="matrix(1.00, 0.00, -0.00, -1.00, 763.3, 362.3)">y</text><text xml:space="preserve" font-family="HelveticaNeue-Thin,Helvetica Neue" font-size="100.0" fill="#EBEAE9" transform="matrix(1.00, 0.00, -0.00, -1.00, 807.7, 362.3)">!</text></g></svg>