<?xml version="1.0" encoding="UTF-8" standalone="no"?><svg xmlns="http://www.w3.org/2000/svg" xmlns:xlink="http://www.w3.org/1999/xlink" clip-rule="evenodd" stroke-miterlimit="10" viewBox="0 0 1280 800"><desc>SVG generated by Keynote</desc><defs></defs><g transform="matrix(1.00, 0.00, -0.00, -1.00, 0.0, 800.0)"><path d="M 0.0 800.0 L 1280.0 800.0 L 1280.0 0.0 L 0.0 0.0 Z M 0.0 800.0 " fill="#BBB9B4"></path><text xml:space="preserve" font-family="HelveticaNeue-Thin,Helvetica Neue" font-size="33.0" fill="#44452D" transform="matrix(1.00, 0.00, -0.00, -1.00, 84.0, 259.1)">I</text><text xml:space="preserve" font-family="HelveticaNeue-Thin,Helvetica Neue" font-size="33.0" fill="#44452D" transform="matrix(1.00, 0.00, -0.00, -1.00, 89.6, 259.1)">b</text><text xml:space="preserve" font-family="HelveticaNeue-Thin,Helvetica Neue" font-size="33.0" fill="#44452D" transform="matrix(1.00, 0.00, -0.00, -1.00, 108.0, 259.1)">e</text><text xml:space="preserve" font-family="HelveticaNeue-Thin,Helvetica Neue" font-size="33.0" fill="#44452D" transform="matrix(1.00, 0.00, -0.00, -1.00, 125.1, 259.1)">r</text><text xml:space="preserve" font-family="HelveticaNeue-Thin,Helvetica Neue" font-size="33.0" fill="#44452D" transform="matrix(1.00, 0.00, -0.00, -1.00, 133.9, 259.1)">o</text><text xml:space="preserve" font-family="HelveticaNeue-Thin,Helvetica Neue" font-size="33.0" fill="#44452D" transform="matrix(1.00, 0.00, -0.00, -1.00, 151.6, 259.1)">c</text><text xml:space="preserve" font-family="HelveticaNeue-Thin,Helvetica Neue" font-size="33.0" fill="#44452D" transform="matrix(1.00, 0.00, -0.00, -1.00, 168.7, 259.1)">o</text><text xml:space="preserve" font-family="HelveticaNeue-Thin,Helvetica Neue" font-size="33.0" fill="#44452D" transform="matrix(1.00, 0.00, -0.00, -1.00, 186.4, 259.1)">n</text><text xml:space="preserve" font-family="HelveticaNeue-Thin,Helvetica Neue" font-size="33.0" fill="#44452D" transform="matrix(1.00, 0.00, -0.00, -1.00, 203.6, 259.1)">f</text><text xml:space="preserve" font-family="HelveticaNeue-Thin,Helvetica Neue" font-size="33.0" fill="#44452D" transform="matrix(1.00, 0.00, -0.00, -1.00, 211.5, 259.1)"> </text><text xml:space="preserve" font-family="HelveticaNeue-Thin,Helvetica Neue" font-size="33.0" fill="#44452D" transform="matrix(1.00, 0.00, -0.00, -1.00, 220.7, 259.1)">2</text><text xml:space="preserve" font-family="HelveticaNeue-Thin,Helvetica Neue" font-size="33.0" fill="#44452D" transform="matrix(1.00, 0.00, -0.00, -1.00, 239.0, 259.1)">0</text><text xml:space="preserve" font-family="HelveticaNeue-Thin,Helvetica Neue" font-size="33.0" fill="#44452D" transform="matrix(1.00, 0.00, -0.00, -1.00, 257.4, 259.1)">1</text><text xml:space="preserve" font-family="HelveticaNeue-Thin,Helvetica Neue" font-size="33.0" fill="#44452D" transform="matrix(1.00, 0.00, -0.00, -1.00, 275.7, 259.1)">4</text><text xml:space="preserve" font-family="HelveticaNeue-Thin,Helvetica Neue" font-size="33.0" fill="#44452D" transform="matrix(1.00, 0.00, -0.00, -1.00, 294.1, 259.1)"> </text><text xml:space="preserve" font-family="HelveticaNeue-Thin,Helvetica Neue" font-size="33.0" fill="#44452D" transform="matrix(1.00, 0.00, -0.00, -1.00, 303.3, 259.1)">-</text><text xml:space="preserve" font-family="HelveticaNeue-Thin,Helvetica Neue" font-size="33.0" fill="#44452D" transform="matrix(1.00, 0.00, -0.00, -1.00, 314.9, 259.1)"> </text><text xml:space="preserve" font-family="HelveticaNeue-Thin,Helvetica Neue" font-size="33.0" fill="#44452D" transform="matrix(1.00, 0.00, -0.00, -1.00, 324.0, 259.1)">E</text><text xml:space="preserve" font-family="HelveticaNeue-Thin,Helvetica Neue" font-size="33.0" fill="#44452D" transform="matrix(1.00, 0.00, -0.00, -1.00, 342.5, 259.1)">l</text><text xml:space="preserve" font-family="HelveticaNeue-Thin,Helvetica Neue" font-size="33.0" fill="#44452D" transform="matrix(1.00, 0.00, -0.00, -1.00, 348.1, 259.1)"> </text><text xml:space="preserve" font-family="HelveticaNeue-Thin,Helvetica Neue" font-size="33.0" fill="#44452D" transform="matrix(1.00, 0.00, -0.00, -1.00, 357.2, 259.1)">I</text><text xml:space="preserve" font-family="HelveticaNeue-Thin,Helvetica Neue" font-size="33.0" fill="#44452D" transform="matrix(1.00, 0.00, -0.00, -1.00, 362.9, 259.1)">V</text><text xml:space="preserve" font-family="HelveticaNeue-Thin,Helvetica Neue" font-size="33.0" fill="#44452D" transform="matrix(1.00, 0.00, -0.00, -1.00, 381.2, 259.1)"> </text><text xml:space="preserve" font-family="HelveticaNeue-Thin,Helvetica Neue" font-size="33.0" fill="#44452D" transform="matrix(1.00, 0.00, -0.00, -1.00, 390.4, 259.1)">E</text><text xml:space="preserve" font-family="HelveticaNeue-Thin,Helvetica Neue" font-size="33.0" fill="#44452D" transform="matrix(1.00, 0.00, -0.00, -1.00, 408.9, 259.1)">n</text><text xml:space="preserve" font-family="HelveticaNeue-Thin,Helvetica Neue" font-size="33.0" fill="#44452D" transform="matrix(1.00, 0.00, -0.00, -1.00, 426.0, 259.1)">c</text><text xml:space="preserve" font-family="HelveticaNeue-Thin,Helvetica Neue" font-size="33.0" fill="#44452D" transform="matrix(1.00, 0.00, -0.00, -1.00, 443.1, 259.1)">u</text><text xml:space="preserve" font-family="HelveticaNeue-Thin,Helvetica Neue" font-size="33.0" fill="#44452D" transform="matrix(1.00, 0.00, -0.00, -1.00, 460.2, 259.1)">e</text><text xml:space="preserve" font-family="HelveticaNeue-Thin,Helvetica Neue" font-size="33.0" fill="#44452D" transform="matrix(1.00, 0.00, -0.00, -1.00, 477.4, 259.1)">n</text><text xml:space="preserve" font-family="HelveticaNeue-Thin,Helvetica Neue" font-size="33.0" fill="#44452D" transform="matrix(1.00, 0.00, -0.00, -1.00, 494.5, 259.1)">t</text><text xml:space="preserve" font-family="HelveticaNeue-Thin,Helvetica Neue" font-size="33.0" fill="#44452D" transform="matrix(1.00, 0.00, -0.00, -1.00, 503.0, 259.1)">r</text><text xml:space="preserve" font-family="HelveticaNeue-Thin,Helvetica Neue" font-size="33.0" fill="#44452D" transform="matrix(1.00, 0.00, -0.00, -1.00, 511.8, 259.1)">o</text><text xml:space="preserve" font-family="HelveticaNeue-Thin,Helvetica Neue" font-size="33.0" fill="#44452D" transform="matrix(1.00, 0.00, -0.00, -1.00, 529.5, 259.1)"> </text><text xml:space="preserve" font-family="HelveticaNeue-Thin,Helvetica Neue" font-size="33.0" fill="#44452D" transform="matrix(1.00, 0.00, -0.00, -1.00, 538.7, 259.1)">W</text><text xml:space="preserve" font-family="HelveticaNeue-Thin,Helvetica Neue" font-size="33.0" fill="#44452D" transform="matrix(1.00, 0.00, -0.00, -1.00, 568.8, 259.1)">i</text><text xml:space="preserve" font-family="HelveticaNeue-Thin,Helvetica Neue" font-size="33.0" fill="#44452D" transform="matrix(1.00, 0.00, -0.00, -1.00, 574.4, 259.1)">k</text><text xml:space="preserve" font-family="HelveticaNeue-Thin,Helvetica Neue" font-size="33.0" fill="#44452D" transform="matrix(1.00, 0.00, -0.00, -1.00, 589.7, 259.1)">i</text><text xml:space="preserve" font-family="HelveticaNeue-Thin,Helvetica Neue" font-size="33.0" fill="#44452D" transform="matrix(1.00, 0.00, -0.00, -1.00, 595.2, 259.1)">m</text><text xml:space="preserve" font-family="HelveticaNeue-Thin,Helvetica Neue" font-size="33.0" fill="#44452D" transform="matrix(1.00, 0.00, -0.00, -1.00, 621.5, 259.1)">e</text><text xml:space="preserve" font-family="HelveticaNeue-Thin,Helvetica Neue" font-size="33.0" fill="#44452D" transform="matrix(1.00, 0.00, -0.00, -1.00, 638.6, 259.1)">d</text><text xml:space="preserve" font-family="HelveticaNeue-Thin,Helvetica Neue" font-size="33.0" fill="#44452D" transform="matrix(1.00, 0.00, -0.00, -1.00, 656.9, 259.1)">i</text><text xml:space="preserve" font-family="HelveticaNeue-Thin,Helvetica Neue" font-size="33.0" fill="#44452D" transform="matrix(1.00, 0.00, -0.00, -1.00, 662.5, 259.1)">a</text><text xml:space="preserve" font-family="HelveticaNeue-Thin,Helvetica Neue" font-size="33.0" fill="#44452D" transform="matrix(1.00, 0.00, -0.00, -1.00, 679.0, 259.1)"> </text><text xml:space="preserve" font-family="HelveticaNeue-Thin,Helvetica Neue" font-size="33.0" fill="#44452D" transform="matrix(1.00, 0.00, -0.00, -1.00, 688.2, 259.1)">I</text><text xml:space="preserve" font-family="HelveticaNeue-Thin,Helvetica Neue" font-size="33.0" fill="#44452D" transform="matrix(1.00, 0.00, -0.00, -1.00, 693.8, 259.1)">b</text><text xml:space="preserve" font-family="HelveticaNeue-Thin,Helvetica Neue" font-size="33.0" fill="#44452D" transform="matrix(1.00, 0.00, -0.00, -1.00, 712.1, 259.1)">e</text><text xml:space="preserve" font-family="HelveticaNeue-Thin,Helvetica Neue" font-size="33.0" fill="#44452D" transform="matrix(1.00, 0.00, -0.00, -1.00, 729.2, 259.1)">r</text><text xml:space="preserve" font-family="HelveticaNeue-Thin,Helvetica Neue" font-size="33.0" fill="#44452D" transform="matrix(1.00, 0.00, -0.00, -1.00, 738.0, 259.1)">o</text><text xml:space="preserve" font-family="HelveticaNeue-Thin,Helvetica Neue" font-size="33.0" fill="#44452D" transform="matrix(1.00, 0.00, -0.00, -1.00, 755.7, 259.1)">a</text><text xml:space="preserve" font-family="HelveticaNeue-Thin,Helvetica Neue" font-size="33.0" fill="#44452D" transform="matrix(1.00, 0.00, -0.00, -1.00, 772.2, 259.1)">m</text><text xml:space="preserve" font-family="HelveticaNeue-Thin,Helvetica Neue" font-size="33.0" fill="#44452D" transform="matrix(1.00, 0.00, -0.00, -1.00, 798.5, 259.1)">e</text><text xml:space="preserve" font-family="HelveticaNeue-Thin,Helvetica Neue" font-size="33.0" fill="#44452D" transform="matrix(1.00, 0.00, -0.00, -1.00, 815.6, 259.1)">r</text><text xml:space="preserve" font-family="HelveticaNeue-Thin,Helvetica Neue" font-size="33.0" fill="#44452D" transform="matrix(1.00, 0.00, -0.00, -1.00, 824.8, 259.1)">i</text><text xml:space="preserve" font-family="HelveticaNeue-Thin,Helvetica Neue" font-size="33.0" fill="#44452D" transform="matrix(1.00, 0.00, -0.00, -1.00, 830.4, 259.1)">c</text><text xml:space="preserve" font-family="HelveticaNeue-Thin,Helvetica Neue" font-size="33.0" fill="#44452D" transform="matrix(1.00, 0.00, -0.00, -1.00, 847.5, 259.1)">a</text><text xml:space="preserve" font-family="HelveticaNeue-Thin,Helvetica Neue" font-size="33.0" fill="#44452D" transform="matrix(1.00, 0.00, -0.00, -1.00, 864.0, 259.1)">n</text><text xml:space="preserve" font-family="HelveticaNeue-Thin,Helvetica Neue" font-size="33.0" fill="#44452D" transform="matrix(1.00, 0.00, -0.00, -1.00, 881.1, 259.1)">o</text><text xml:space="preserve" font-family="HelveticaNeue-Thin,Helvetica Neue" font-size="33.0" fill="#44452D" transform="matrix(1.00, 0.00, -0.00, -1.00, 898.8, 259.1)"> </text><text xml:space="preserve" font-family="HelveticaNeue-Thin,Helvetica Neue" font-size="33.0" fill="#44452D" transform="matrix(1.00, 0.00, -0.00, -1.00, 84.0, 213.1)">2</text><text xml:space="preserve" font-family="HelveticaNeue-Thin,Helvetica Neue" font-size="33.0" fill="#44452D" transform="matrix(1.00, 0.00, -0.00, -1.00, 102.3, 213.1)">2</text><text xml:space="preserve" font-family="HelveticaNeue-Thin,Helvetica Neue" font-size="33.0" fill="#44452D" transform="matrix(1.00, 0.00, -0.00, -1.00, 120.7, 213.1)"> </text><text xml:space="preserve" font-family="HelveticaNeue-Thin,Helvetica Neue" font-size="33.0" fill="#44452D" transform="matrix(1.00, 0.00, -0.00, -1.00, 129.9, 213.1)">N</text><text xml:space="preserve" font-family="HelveticaNeue-Thin,Helvetica Neue" font-size="33.0" fill="#44452D" transform="matrix(1.00, 0.00, -0.00, -1.00, 152.2, 213.1)">o</text><text xml:space="preserve" font-family="HelveticaNeue-Thin,Helvetica Neue" font-size="33.0" fill="#44452D" transform="matrix(1.00, 0.00, -0.00, -1.00, 170.0, 213.1)">v</text><text xml:space="preserve" font-family="HelveticaNeue-Thin,Helvetica Neue" font-size="33.0" fill="#44452D" transform="matrix(1.00, 0.00, -0.00, -1.00, 184.6, 213.1)">e</text><text xml:space="preserve" font-family="HelveticaNeue-Thin,Helvetica Neue" font-size="33.0" fill="#44452D" transform="matrix(1.00, 0.00, -0.00, -1.00, 201.7, 213.1)">m</text><text xml:space="preserve" font-family="HelveticaNeue-Thin,Helvetica Neue" font-size="33.0" fill="#44452D" transform="matrix(1.00, 0.00, -0.00, -1.00, 228.0, 213.1)">b</text><text xml:space="preserve" font-family="HelveticaNeue-Thin,Helvetica Neue" font-size="33.0" fill="#44452D" transform="matrix(1.00, 0.00, -0.00, -1.00, 246.4, 213.1)">e</text><text xml:space="preserve" font-family="HelveticaNeue-Thin,Helvetica Neue" font-size="33.0" fill="#44452D" transform="matrix(1.00, 0.00, -0.00, -1.00, 263.5, 213.1)">r</text><text xml:space="preserve" font-family="HelveticaNeue-Thin,Helvetica Neue" font-size="33.0" fill="#44452D" transform="matrix(1.00, 0.00, -0.00, -1.00, 272.7, 213.1)"> </text><text xml:space="preserve" font-family="HelveticaNeue-Thin,Helvetica Neue" font-size="33.0" fill="#44452D" transform="matrix(1.00, 0.00, -0.00, -1.00, 281.8, 213.1)">2</text><text xml:space="preserve" font-family="HelveticaNeue-Thin,Helvetica Neue" font-size="33.0" fill="#44452D" transform="matrix(1.00, 0.00, -0.00, -1.00, 300.2, 213.1)">0</text><text xml:space="preserve" font-family="HelveticaNeue-Thin,Helvetica Neue" font-size="33.0" fill="#44452D" transform="matrix(1.00, 0.00, -0.00, -1.00, 318.5, 213.1)">1</text><text xml:space="preserve" font-family="HelveticaNeue-Thin,Helvetica Neue" font-size="33.0" fill="#44452D" transform="matrix(1.00, 0.00, -0.00, -1.00, 336.9, 213.1)">4</text><text xml:space="preserve" font-family="HelveticaNeue-Thin,Helvetica Neue" font-size="33.0" fill="#44452D" transform="matrix(1.00, 0.00, -0.00, -1.00, 355.2, 213.1)">,</text><text xml:space="preserve" font-family="HelveticaNeue-Thin,Helvetica Neue" font-size="33.0" fill="#44452D" transform="matrix(1.00, 0.00, -0.00, -1.00, 364.4, 213.1)"> </text><text xml:space="preserve" font-family="HelveticaNeue-Thin,Helvetica Neue" font-size="33.0" fill="#44452D" transform="matrix(1.00, 0.00, -0.00, -1.00, 373.6, 213.1)">B</text><text xml:space="preserve" font-family="HelveticaNeue-Thin,Helvetica Neue" font-size="33.0" fill="#44452D" transform="matrix(1.00, 0.00, -0.00, -1.00, 394.4, 213.1)">u</text><text xml:space="preserve" font-family="HelveticaNeue-Thin,Helvetica Neue" font-size="33.0" fill="#44452D" transform="matrix(1.00, 0.00, -0.00, -1.00, 411.5, 213.1)">e</text><text xml:space="preserve" font-family="HelveticaNeue-Thin,Helvetica Neue" font-size="33.0" fill="#44452D" transform="matrix(1.00, 0.00, -0.00, -1.00, 428.6, 213.1)">n</text><text xml:space="preserve" font-family="HelveticaNeue-Thin,Helvetica Neue" font-size="33.0" fill="#44452D" transform="matrix(1.00, 0.00, -0.00, -1.00, 445.7, 213.1)">o</text><text xml:space="preserve" font-family="HelveticaNeue-Thin,Helvetica Neue" font-size="33.0" fill="#44452D" transform="matrix(1.00, 0.00, -0.00, -1.00, 463.5, 213.1)">s</text><text xml:space="preserve" font-family="HelveticaNeue-Thin,Helvetica Neue" font-size="33.0" fill="#44452D" transform="matrix(1.00, 0.00, -0.00, -1.00, 479.3, 213.1)"> </text><text xml:space="preserve" font-family="HelveticaNeue-Thin,Helvetica Neue" font-size="33.0" fill="#44452D" transform="matrix(1.00, 0.00, -0.00, -1.00, 488.5, 213.1)">A</text><text xml:space="preserve" font-family="HelveticaNeue-Thin,Helvetica Neue" font-size="33.0" fill="#44452D" transform="matrix(1.00, 0.00, -0.00, -1.00, 508.1, 213.1)">i</text><text xml:space="preserve" font-family="HelveticaNeue-Thin,Helvetica Neue" font-size="33.0" fill="#44452D" transform="matrix(1.00, 0.00, -0.00, -1.00, 513.6, 213.1)">r</text><text xml:space="preserve" font-family="HelveticaNeue-Thin,Helvetica Neue" font-size="33.0" fill="#44452D" transform="matrix(1.00, 0.00, -0.00, -1.00, 522.4, 213.1)">e</text><text xml:space="preserve" font-family="HelveticaNeue-Thin,Helvetica Neue" font-size="33.0" fill="#44452D" transform="matrix(1.00, 0.00, -0.00, -1.00, 539.5, 213.1)">s</text><text xml:space="preserve" font-family="HelveticaNeue-Thin,Helvetica Neue" font-size="33.0" fill="#44452D" transform="matrix(1.00, 0.00, -0.00, -1.00, 555.4, 213.1)"> </text><text xml:space="preserve" font-family="HelveticaNeue-Thin,Helvetica Neue" font-size="33.0" fill="#44452D" transform="matrix(1.00, 0.00, -0.00, -1.00, 84.0, 167.1)">S</text><text xml:space="preserve" font-family="HelveticaNeue-Thin,Helvetica Neue" font-size="33.0" fill="#44452D" transform="matrix(1.00, 0.00, -0.00, -1.00, 104.8, 167.1)">u</text><text xml:space="preserve" font-family="HelveticaNeue-Thin,Helvetica Neue" font-size="33.0" fill="#44452D" transform="matrix(1.00, 0.00, -0.00, -1.00, 121.9, 167.1)">s</text><text xml:space="preserve" font-family="HelveticaNeue-Thin,Helvetica Neue" font-size="33.0" fill="#44452D" transform="matrix(1.00, 0.00, -0.00, -1.00, 137.8, 167.1)">a</text><text xml:space="preserve" font-family="HelveticaNeue-Thin,Helvetica Neue" font-size="33.0" fill="#44452D" transform="matrix(1.00, 0.00, -0.00, -1.00, 154.3, 167.1)">n</text><text xml:space="preserve" font-family="HelveticaNeue-Thin,Helvetica Neue" font-size="33.0" fill="#44452D" transform="matrix(1.00, 0.00, -0.00, -1.00, 171.4, 167.1)">n</text><text xml:space="preserve" font-family="HelveticaNeue-Thin,Helvetica Neue" font-size="33.0" fill="#44452D" transform="matrix(1.00, 0.00, -0.00, -1.00, 188.5, 167.1)">a</text><text xml:space="preserve" font-family="HelveticaNeue-Thin,Helvetica Neue" font-size="33.0" fill="#44452D" transform="matrix(1.00, 0.00, -0.00, -1.00, 205.0, 167.1)"> </text><text xml:space="preserve" font-family="HelveticaNeue-Thin,Helvetica Neue" font-size="33.0" fill="#44452D" transform="matrix(1.00, 0.00, -0.00, -1.00, 214.2, 167.1)">Å</text><text xml:space="preserve" font-family="HelveticaNeue-Thin,Helvetica Neue" font-size="33.0" fill="#44452D" transform="matrix(1.00, 0.00, -0.00, -1.00, 233.8, 167.1)">n</text><text xml:space="preserve" font-family="HelveticaNeue-Thin,Helvetica Neue" font-size="33.0" fill="#44452D" transform="matrix(1.00, 0.00, -0.00, -1.00, 250.9, 167.1)">ä</text><text xml:space="preserve" font-family="HelveticaNeue-Thin,Helvetica Neue" font-size="33.0" fill="#44452D" transform="matrix(1.00, 0.00, -0.00, -1.00, 267.4, 167.1)">s</text><text xml:space="preserve" font-family="HelveticaNeue-Thin,Helvetica Neue" font-size="33.0" fill="#44452D" transform="matrix(1.00, 0.00, -0.00, -1.00, 283.3, 167.1)">,</text><text xml:space="preserve" font-family="HelveticaNeue-Thin,Helvetica Neue" font-size="33.0" fill="#44452D" transform="matrix(1.00, 0.00, -0.00, -1.00, 292.5, 167.1)"> </text><text xml:space="preserve" font-family="HelveticaNeue-Thin,Helvetica Neue" font-size="33.0" fill="#44452D" transform="matrix(1.00, 0.00, -0.00, -1.00, 301.6, 167.1)">W</text><text xml:space="preserve" font-family="HelveticaNeue-Thin,Helvetica Neue" font-size="33.0" fill="#44452D" transform="matrix(1.00, 0.00, -0.00, -1.00, 331.8, 167.1)">i</text><text xml:space="preserve" font-family="HelveticaNeue-Thin,Helvetica Neue" font-size="33.0" fill="#44452D" transform="matrix(1.00, 0.00, -0.00, -1.00, 337.3, 167.1)">k</text><text xml:space="preserve" font-family="HelveticaNeue-Thin,Helvetica Neue" font-size="33.0" fill="#44452D" transform="matrix(1.00, 0.00, -0.00, -1.00, 352.6, 167.1)">i</text><text xml:space="preserve" font-family="HelveticaNeue-Thin,Helvetica Neue" font-size="33.0" fill="#44452D" transform="matrix(1.00, 0.00, -0.00, -1.00, 358.1, 167.1)">m</text><text xml:space="preserve" font-family="HelveticaNeue-Thin,Helvetica Neue" font-size="33.0" fill="#44452D" transform="matrix(1.00, 0.00, -0.00, -1.00, 384.4, 167.1)">e</text><text xml:space="preserve" font-family="HelveticaNeue-Thin,Helvetica Neue" font-size="33.0" fill="#44452D" transform="matrix(1.00, 0.00, -0.00, -1.00, 401.5, 167.1)">d</text><text xml:space="preserve" font-family="HelveticaNeue-Thin,Helvetica Neue" font-size="33.0" fill="#44452D" transform="matrix(1.00, 0.00, -0.00, -1.00, 419.9, 167.1)">i</text><text xml:space="preserve" font-family="HelveticaNeue-Thin,Helvetica Neue" font-size="33.0" fill="#44452D" transform="matrix(1.00, 0.00, -0.00, -1.00, 425.4, 167.1)">a</text><text xml:space="preserve" font-family="HelveticaNeue-Thin,Helvetica Neue" font-size="33.0" fill="#44452D" transform="matrix(1.00, 0.00, -0.00, -1.00, 441.9, 167.1)"> </text><text xml:space="preserve" font-family="HelveticaNeue-Thin,Helvetica Neue" font-size="33.0" fill="#44452D" transform="matrix(1.00, 0.00, -0.00, -1.00, 451.1, 167.1)">S</text><text xml:space="preserve" font-family="HelveticaNeue-Thin,Helvetica Neue" font-size="33.0" fill="#44452D" transform="matrix(1.00, 0.00, -0.00, -1.00, 471.9, 167.1)">u</text><text xml:space="preserve" font-family="HelveticaNeue-Thin,Helvetica Neue" font-size="33.0" fill="#44452D" transform="matrix(1.00, 0.00, -0.00, -1.00, 489.0, 167.1)">o</text><text xml:space="preserve" font-family="HelveticaNeue-Thin,Helvetica Neue" font-size="33.0" fill="#44452D" transform="matrix(1.00, 0.00, -0.00, -1.00, 506.7, 167.1)">m</text><text xml:space="preserve" font-family="HelveticaNeue-Thin,Helvetica Neue" font-size="33.0" fill="#44452D" transform="matrix(1.00, 0.00, -0.00, -1.00, 533.0, 167.1)">i</text><text xml:space="preserve" font-family="HelveticaNeue-Thin,Helvetica Neue" font-size="33.0" fill="#44452D" transform="matrix(1.00, 0.00, -0.00, -1.00, 538.5, 167.1)"> </text><g><clipPath id="clip0x6080016a0780"><path d="M 74.3 115.1 L 1205.7 115.1 L 1205.7 291.1 L 74.3 291.1 Z M 74.3 115.1 "></path></clipPath><g clip-path="url(#clip0x6080016a0780)"><text xml:space="preserve" font-family="HelveticaNeue-Thin,Helvetica Neue" font-size="33.0" fill="#44452D" transform="matrix(1.00, 0.00, -0.00, -1.00, 84.0, 121.1)">s</text><text xml:space="preserve" font-family="HelveticaNeue-Thin,Helvetica Neue" font-size="33.0" fill="#44452D" transform="matrix(1.00, 0.00, -0.00, -1.00, 99.9, 121.1)">u</text><text xml:space="preserve" font-family="HelveticaNeue-Thin,Helvetica Neue" font-size="33.0" fill="#44452D" transform="matrix(1.00, 0.00, -0.00, -1.00, 117.0, 121.1)">s</text><text xml:space="preserve" font-family="HelveticaNeue-Thin,Helvetica Neue" font-size="33.0" fill="#44452D" transform="matrix(1.00, 0.00, -0.00, -1.00, 132.9, 121.1)">a</text><text xml:space="preserve" font-family="HelveticaNeue-Thin,Helvetica Neue" font-size="33.0" fill="#44452D" transform="matrix(1.00, 0.00, -0.00, -1.00, 149.4, 121.1)">n</text><text xml:space="preserve" font-family="HelveticaNeue-Thin,Helvetica Neue" font-size="33.0" fill="#44452D" transform="matrix(1.00, 0.00, -0.00, -1.00, 166.5, 121.1)">n</text><text xml:space="preserve" font-family="HelveticaNeue-Thin,Helvetica Neue" font-size="33.0" fill="#44452D" transform="matrix(1.00, 0.00, -0.00, -1.00, 183.6, 121.1)">a</text><text xml:space="preserve" font-family="HelveticaNeue-Thin,Helvetica Neue" font-size="33.0" fill="#44452D" transform="matrix(1.00, 0.00, -0.00, -1.00, 200.1, 121.1)">.</text><text xml:space="preserve" font-family="HelveticaNeue-Thin,Helvetica Neue" font-size="33.0" fill="#44452D" transform="matrix(1.00, 0.00, -0.00, -1.00, 209.3, 121.1)">a</text><text xml:space="preserve" font-family="HelveticaNeue-Thin,Helvetica Neue" font-size="33.0" fill="#44452D" transform="matrix(1.00, 0.00, -0.00, -1.00, 225.8, 121.1)">n</text><text xml:space="preserve" font-family="HelveticaNeue-Thin,Helvetica Neue" font-size="33.0" fill="#44452D" transform="matrix(1.00, 0.00, -0.00, -1.00, 242.9, 121.1)">a</text><text xml:space="preserve" font-family="HelveticaNeue-Thin,Helvetica Neue" font-size="33.0" fill="#44452D" transform="matrix(1.00, 0.00, -0.00, -1.00, 259.4, 121.1)">s</text><text xml:space="preserve" font-family="HelveticaNeue-Thin,Helvetica Neue" font-size="33.0" fill="#44452D" transform="matrix(1.00, 0.00, -0.00, -1.00, 275.3, 121.1)">@</text><text xml:space="preserve" font-family="HelveticaNeue-Thin,Helvetica Neue" font-size="33.0" fill="#44452D" transform="matrix(1.00, 0.00, -0.00, -1.00, 301.7, 121.1)">w</text><text xml:space="preserve" font-family="HelveticaNeue-Thin,Helvetica Neue" font-size="33.0" fill="#44452D" transform="matrix(1.00, 0.00, -0.00, -1.00, 324.9, 121.1)">i</text><text xml:space="preserve" font-family="HelveticaNeue-Thin,Helvetica Neue" font-size="33.0" fill="#44452D" transform="matrix(1.00, 0.00, -0.00, -1.00, 330.5, 121.1)">k</text><text xml:space="preserve" font-family="HelveticaNeue-Thin,Helvetica Neue" font-size="33.0" fill="#44452D" transform="matrix(1.00, 0.00, -0.00, -1.00, 345.8, 121.1)">i</text><text xml:space="preserve" font-family="HelveticaNeue-Thin,Helvetica Neue" font-size="33.0" fill="#44452D" transform="matrix(1.00, 0.00, -0.00, -1.00, 351.3, 121.1)">m</text><text xml:space="preserve" font-family="HelveticaNeue-Thin,Helvetica Neue" font-size="33.0" fill="#44452D" transform="matrix(1.00, 0.00, -0.00, -1.00, 377.6, 121.1)">e</text><text xml:space="preserve" font-family="HelveticaNeue-Thin,Helvetica Neue" font-size="33.0" fill="#44452D" transform="matrix(1.00, 0.00, -0.00, -1.00, 394.7, 121.1)">d</text><text xml:space="preserve" font-family="HelveticaNeue-Thin,Helvetica Neue" font-size="33.0" fill="#44452D" transform="matrix(1.00, 0.00, -0.00, -1.00, 413.0, 121.1)">i</text><text xml:space="preserve" font-family="HelveticaNeue-Thin,Helvetica Neue" font-size="33.0" fill="#44452D" transform="matrix(1.00, 0.00, -0.00, -1.00, 418.6, 121.1)">a</text><text xml:space="preserve" font-family="HelveticaNeue-Thin,Helvetica Neue" font-size="33.0" fill="#44452D" transform="matrix(1.00, 0.00, -0.00, -1.00, 435.1, 121.1)">.</text><text xml:space="preserve" font-family="HelveticaNeue-Thin,Helvetica Neue" font-size="33.0" fill="#44452D" transform="matrix(1.00, 0.00, -0.00, -1.00, 444.3, 121.1)">ﬁ</text><text xml:space="preserve" font-family="HelveticaNeue-Thin,Helvetica Neue" font-size="33.0" fill="#44452D" transform="matrix(1.00, 0.00, -0.00, -1.00, 457.1, 121.1)">,</text><text xml:space="preserve" font-family="HelveticaNeue-Thin,Helvetica Neue" font-size="33.0" fill="#44452D" transform="matrix(1.00, 0.00, -0.00, -1.00, 466.3, 121.1)"> </text><text xml:space="preserve" font-family="HelveticaNeue-Thin,Helvetica Neue" font-size="33.0" fill="#44452D" transform="matrix(1.00, 0.00, -0.00, -1.00, 475.4, 121.1)">@</text><text xml:space="preserve" font-family="HelveticaNeue-Thin,Helvetica Neue" font-size="33.0" fill="#44452D" transform="matrix(1.00, 0.00, -0.00, -1.00, 501.8, 121.1)">s</text><text xml:space="preserve" font-family="HelveticaNeue-Thin,Helvetica Neue" font-size="33.0" fill="#44452D" transform="matrix(1.00, 0.00, -0.00, -1.00, 517.7, 121.1)">u</text><text xml:space="preserve" font-family="HelveticaNeue-Thin,Helvetica Neue" font-size="33.0" fill="#44452D" transform="matrix(1.00, 0.00, -0.00, -1.00, 534.8, 121.1)">s</text><text xml:space="preserve" font-family="HelveticaNeue-Thin,Helvetica Neue" font-size="33.0" fill="#44452D" transform="matrix(1.00, 0.00, -0.00, -1.00, 550.7, 121.1)">a</text><text xml:space="preserve" font-family="HelveticaNeue-Thin,Helvetica Neue" font-size="33.0" fill="#44452D" transform="matrix(1.00, 0.00, -0.00, -1.00, 567.2, 121.1)">n</text><text xml:space="preserve" font-family="HelveticaNeue-Thin,Helvetica Neue" font-size="33.0" fill="#44452D" transform="matrix(1.00, 0.00, -0.00, -1.00, 584.3, 121.1)">n</text><text xml:space="preserve" font-family="HelveticaNeue-Thin,Helvetica Neue" font-size="33.0" fill="#44452D" transform="matrix(1.00, 0.00, -0.00, -1.00, 601.5, 121.1)">a</text><text xml:space="preserve" font-family="HelveticaNeue-Thin,Helvetica Neue" font-size="33.0" fill="#44452D" transform="matrix(1.00, 0.00, -0.00, -1.00, 618.0, 121.1)">a</text><text xml:space="preserve" font-family="HelveticaNeue-Thin,Helvetica Neue" font-size="33.0" fill="#44452D" transform="matrix(1.00, 0.00, -0.00, -1.00, 634.5, 121.1)">n</text><text xml:space="preserve" font-family="HelveticaNeue-Thin,Helvetica Neue" font-size="33.0" fill="#44452D" transform="matrix(1.00, 0.00, -0.00, -1.00, 651.6, 121.1)">a</text><text xml:space="preserve" font-family="HelveticaNeue-Thin,Helvetica Neue" font-size="33.0" fill="#44452D" transform="matrix(1.00, 0.00, -0.00, -1.00, 668.1, 121.1)">s</text><text xml:space="preserve" font-family="HelveticaNeue-Thin,Helvetica Neue" font-size="33.0" fill="#44452D" transform="matrix(1.00, 0.00, -0.00, -1.00, 684.0, 121.1)">,</text><text xml:space="preserve" font-family="HelveticaNeue-Thin,Helvetica Neue" font-size="33.0" fill="#44452D" transform="matrix(1.00, 0.00, -0.00, -1.00, 693.1, 121.1)"> </text><text xml:space="preserve" font-family="HelveticaNeue-Thin,Helvetica Neue" font-size="33.0" fill="#44452D" transform="matrix(1.00, 0.00, -0.00, -1.00, 702.3, 121.1)">@</text><text xml:space="preserve" font-family="HelveticaNeue-Thin,Helvetica Neue" font-size="33.0" fill="#44452D" transform="matrix(1.00, 0.00, -0.00, -1.00, 728.7, 121.1)">W</text><text xml:space="preserve" font-family="HelveticaNeue-Thin,Helvetica Neue" font-size="33.0" fill="#44452D" transform="matrix(1.00, 0.00, -0.00, -1.00, 758.1, 121.1)">M</text><text xml:space="preserve" font-family="HelveticaNeue-Thin,Helvetica Neue" font-size="33.0" fill="#44452D" transform="matrix(1.00, 0.00, -0.00, -1.00, 784.8, 121.1)">F</text><text xml:space="preserve" font-family="HelveticaNeue-Thin,Helvetica Neue" font-size="33.0" fill="#44452D" transform="matrix(1.00, 0.00, -0.00, -1.00, 801.7, 121.1)">i</text><text xml:space="preserve" font-family="HelveticaNeue-Thin,Helvetica Neue" font-size="33.0" fill="#44452D" transform="matrix(1.00, 0.00, -0.00, -1.00, 807.3, 121.1)">n</text><text xml:space="preserve" font-family="HelveticaNeue-Thin,Helvetica Neue" font-size="33.0" fill="#44452D" transform="matrix(1.00, 0.00, -0.00, -1.00, 824.4, 121.1)">l</text><text xml:space="preserve" font-family="HelveticaNeue-Thin,Helvetica Neue" font-size="33.0" fill="#44452D" transform="matrix(1.00, 0.00, -0.00, -1.00, 829.9, 121.1)">a</text><text xml:space="preserve" font-family="HelveticaNeue-Thin,Helvetica Neue" font-size="33.0" fill="#44452D" transform="matrix(1.00, 0.00, -0.00, -1.00, 846.4, 121.1)">n</text><text xml:space="preserve" font-family="HelveticaNeue-Thin,Helvetica Neue" font-size="33.0" fill="#44452D" transform="matrix(1.00, 0.00, -0.00, -1.00, 863.6, 121.1)">d</text></g></g><g><clipPath id="clip0x6080014bcfe0"><path d="M 83.0 116.8 L 457.1 116.8 L 457.1 120.4 L 83.0 120.4 Z M 83.0 116.8 "></path></clipPath><g clip-path="url(#clip0x6080014bcfe0)"><path d="M 4.0 176.5 L 377.1 176.5 " fill="none" stroke="#44452D" stroke-width="1.65" transform="matrix(1.00, 0.00, 0.00, -1.00, 80.0, 295.1)"></path></g></g><text xml:space="preserve" font-family="HelveticaNeue-Thin,Helvetica Neue" font-size="88.0" fill="#EBEAE9" transform="matrix(1.00, 0.00, -0.00, -1.00, 82.3, 400.6)">W</text><text xml:space="preserve" font-family="HelveticaNeue-Thin,Helvetica Neue" font-size="88.0" fill="#EBEAE9" transform="matrix(1.00, 0.00, -0.00, -1.00, 162.7, 400.6)">i</text><text xml:space="preserve" font-family="HelveticaNeue-Thin,Helvetica Neue" font-size="88.0" fill="#EBEAE9" transform="matrix(1.00, 0.00, -0.00, -1.00, 177.4, 400.6)">k</text><text xml:space="preserve" font-family="HelveticaNeue-Thin,Helvetica Neue" font-size="88.0" fill="#EBEAE9" transform="matrix(1.00, 0.00, -0.00, -1.00, 218.2, 400.6)">i</text><text xml:space="preserve" font-family="HelveticaNeue-Thin,Helvetica Neue" font-size="88.0" fill="#EBEAE9" transform="matrix(1.00, 0.00, -0.00, -1.00, 233.0, 400.6)">m</text><text xml:space="preserve" font-family="HelveticaNeue-Thin,Helvetica Neue" font-size="88.0" fill="#EBEAE9" transform="matrix(1.00, 0.00, -0.00, -1.00, 303.0, 400.6)">a</text><text xml:space="preserve" font-family="HelveticaNeue-Thin,Helvetica Neue" font-size="88.0" fill="#EBEAE9" transform="matrix(1.00, 0.00, -0.00, -1.00, 347.0, 400.6)">p</text><text xml:space="preserve" font-family="HelveticaNeue-Thin,Helvetica Neue" font-size="88.0" fill="#EBEAE9" transform="matrix(1.00, 0.00, -0.00, -1.00, 395.9, 400.6)">s</text><text xml:space="preserve" font-family="HelveticaNeue-Thin,Helvetica Neue" font-size="88.0" fill="#EBEAE9" transform="matrix(1.00, 0.00, -0.00, -1.00, 438.3, 400.6)"> </text><text xml:space="preserve" font-family="HelveticaNeue-Thin,Helvetica Neue" font-size="64.0" fill="#EBEAE9" transform="matrix(1.00, 0.00, -0.00, -1.00, 82.3, 327.3)">W</text><text xml:space="preserve" font-family="HelveticaNeue-Thin,Helvetica Neue" font-size="64.0" fill="#EBEAE9" transform="matrix(1.00, 0.00, -0.00, -1.00, 137.7, 327.3)">e</text><text xml:space="preserve" font-family="HelveticaNeue-Thin,Helvetica Neue" font-size="64.0" fill="#EBEAE9" transform="matrix(1.00, 0.00, -0.00, -1.00, 170.9, 327.3)"> </text><text xml:space="preserve" font-family="HelveticaNeue-Thin,Helvetica Neue" font-size="64.0" fill="#EBEAE9" transform="matrix(1.00, 0.00, -0.00, -1.00, 188.7, 327.3)">a</text><text xml:space="preserve" font-family="HelveticaNeue-Thin,Helvetica Neue" font-size="64.0" fill="#EBEAE9" transform="matrix(1.00, 0.00, -0.00, -1.00, 220.7, 327.3)">r</text><text xml:space="preserve" font-family="HelveticaNeue-Thin,Helvetica Neue" font-size="64.0" fill="#EBEAE9" transform="matrix(1.00, 0.00, -0.00, -1.00, 237.7, 327.3)">e</text><text xml:space="preserve" font-family="HelveticaNeue-Thin,Helvetica Neue" font-size="64.0" fill="#EBEAE9" transform="matrix(1.00, 0.00, -0.00, -1.00, 270.9, 327.3)"> </text><text xml:space="preserve" font-family="HelveticaNeue-Thin,Helvetica Neue" font-size="64.0" fill="#EBEAE9" transform="matrix(1.00, 0.00, -0.00, -1.00, 288.7, 327.3)">h</text><text xml:space="preserve" font-family="HelveticaNeue-Thin,Helvetica Neue" font-size="64.0" fill="#EBEAE9" transform="matrix(1.00, 0.00, -0.00, -1.00, 321.9, 327.3)">e</text><text xml:space="preserve" font-family="HelveticaNeue-Thin,Helvetica Neue" font-size="64.0" fill="#EBEAE9" transform="matrix(1.00, 0.00, -0.00, -1.00, 355.1, 327.3)">r</text><text xml:space="preserve" font-family="HelveticaNeue-Thin,Helvetica Neue" font-size="64.0" fill="#EBEAE9" transform="matrix(1.00, 0.00, -0.00, -1.00, 372.2, 327.3)">e</text><text xml:space="preserve" font-family="HelveticaNeue-Thin,Helvetica Neue" font-size="64.0" fill="#EBEAE9" transform="matrix(1.00, 0.00, -0.00, -1.00, 405.4, 327.3)">.</text><text xml:space="preserve" font-family="HelveticaNeue-Thin,Helvetica Neue" font-size="64.0" fill="#EBEAE9" transform="matrix(1.00, 0.00, -0.00, -1.00, 423.2, 327.3)"> </text><text xml:space="preserve" font-family="HelveticaNeue-Thin,Helvetica Neue" font-size="64.0" fill="#EBEAE9" transform="matrix(1.00, 0.00, -0.00, -1.00, 441.0, 327.3)">W</text><text xml:space="preserve" font-family="HelveticaNeue-Thin,Helvetica Neue" font-size="64.0" fill="#EBEAE9" transform="matrix(1.00, 0.00, -0.00, -1.00, 497.9, 327.3)">h</text><text xml:space="preserve" font-family="HelveticaNeue-Thin,Helvetica Neue" font-size="64.0" fill="#EBEAE9" transform="matrix(1.00, 0.00, -0.00, -1.00, 531.1, 327.3)">e</text><text xml:space="preserve" font-family="HelveticaNeue-Thin,Helvetica Neue" font-size="64.0" fill="#EBEAE9" transform="matrix(1.00, 0.00, -0.00, -1.00, 564.3, 327.3)">r</text><text xml:space="preserve" font-family="HelveticaNeue-Thin,Helvetica Neue" font-size="64.0" fill="#EBEAE9" transform="matrix(1.00, 0.00, -0.00, -1.00, 581.3, 327.3)">e</text><text xml:space="preserve" font-family="HelveticaNeue-Thin,Helvetica Neue" font-size="64.0" fill="#EBEAE9" transform="matrix(1.00, 0.00, -0.00, -1.00, 614.5, 327.3)"> </text><text xml:space="preserve" font-family="HelveticaNeue-Thin,Helvetica Neue" font-size="64.0" fill="#EBEAE9" transform="matrix(1.00, 0.00, -0.00, -1.00, 632.3, 327.3)">d</text><text xml:space="preserve" font-family="HelveticaNeue-Thin,Helvetica Neue" font-size="64.0" fill="#EBEAE9" transform="matrix(1.00, 0.00, -0.00, -1.00, 667.9, 327.3)">o</text><text xml:space="preserve" font-family="HelveticaNeue-Thin,Helvetica Neue" font-size="64.0" fill="#EBEAE9" transform="matrix(1.00, 0.00, -0.00, -1.00, 702.3, 327.3)"> </text><text xml:space="preserve" font-family="HelveticaNeue-Thin,Helvetica Neue" font-size="64.0" fill="#EBEAE9" transform="matrix(1.00, 0.00, -0.00, -1.00, 720.1, 327.3)">w</text><text xml:space="preserve" font-family="HelveticaNeue-Thin,Helvetica Neue" font-size="64.0" fill="#EBEAE9" transform="matrix(1.00, 0.00, -0.00, -1.00, 765.1, 327.3)">e</text><text xml:space="preserve" font-family="HelveticaNeue-Thin,Helvetica Neue" font-size="64.0" fill="#EBEAE9" transform="matrix(1.00, 0.00, -0.00, -1.00, 798.3, 327.3)"> </text><text xml:space="preserve" font-family="HelveticaNeue-Thin,Helvetica Neue" font-size="64.0" fill="#EBEAE9" transform="matrix(1.00, 0.00, -0.00, -1.00, 816.1, 327.3)">g</text><text xml:space="preserve" font-family="HelveticaNeue-Thin,Helvetica Neue" font-size="64.0" fill="#EBEAE9" transform="matrix(1.00, 0.00, -0.00, -1.00, 850.5, 327.3)">o</text><text xml:space="preserve" font-family="HelveticaNeue-Thin,Helvetica Neue" font-size="64.0" fill="#EBEAE9" transform="matrix(1.00, 0.00, -0.00, -1.00, 884.9, 327.3)"> </text><text xml:space="preserve" font-family="HelveticaNeue-Thin,Helvetica Neue" font-size="64.0" fill="#EBEAE9" transform="matrix(1.00, 0.00, -0.00, -1.00, 902.7, 327.3)">n</text><text xml:space="preserve" font-family="HelveticaNeue-Thin,Helvetica Neue" font-size="64.0" fill="#EBEAE9" transform="matrix(1.00, 0.00, -0.00, -1.00, 935.9, 327.3)">e</text><text xml:space="preserve" font-family="HelveticaNeue-Thin,Helvetica Neue" font-size="64.0" fill="#EBEAE9" transform="matrix(1.00, 0.00, -0.00, -1.00, 968.3, 327.3)">x</text><text xml:space="preserve" font-family="HelveticaNeue-Thin,Helvetica Neue" font-size="64.0" fill="#EBEAE9" transform="matrix(1.00, 0.00, -0.00, -1.00, 996.7, 327.3)">t</text><text xml:space="preserve" font-family="HelveticaNeue-Thin,Helvetica Neue" font-size="64.0" fill="#EBEAE9" transform="matrix(1.00, 0.00, -0.00, -1.00, 1013.3, 327.3)">?</text></g></svg>