<?xml version="1.0" encoding="UTF-8" standalone="no"?><svg xmlns="http://www.w3.org/2000/svg" xmlns:xlink="http://www.w3.org/1999/xlink" clip-rule="evenodd" stroke-miterlimit="10" viewBox="0 0 1303 101"><desc>SVG generated by Keynote</desc><defs></defs><g transform="matrix(1.00, 0.00, -0.00, -1.00, 0.0, 101.0)"><g><clipPath id="clip0x6080024a4ce0"><path d="M 0.0 0.0 L 1303.0 0.0 L 1303.0 101.0 L 0.0 101.0 Z M 0.0 0.0 "></path></clipPath><g clip-path="url(#clip0x6080024a4ce0)"><path d="M 1.0 100.0 L 1302.0 100.0 L 1302.0 1.0 L 1.0 1.0 Z M 1.0 100.0 " fill="#FFFFFF" fill-opacity="0.93"></path></g></g><g><clipPath id="clip0x6080024a50a0"><path d="M 68.0 78.0 L 292.0 78.0 L 292.0 22.0 L 68.0 22.0 Z M 67.6 78.3 "></path></clipPath><g clip-path="url(#clip0x6080024a50a0)"><g><clipPath id="clip0x6080024a5220"><path d="M 68.0 78.0 L 292.0 78.0 L 292.0 21.0 L 68.0 21.0 Z M 68.0 78.0 "></path></clipPath><g clip-path="url(#clip0x6080024a5220)"><g><clipPath id="clip0x6080024a53a0"><path d="M 68.0 21.5 L 292.0 21.5 L 292.0 78.0 L 68.0 78.0 Z M 68.0 21.5 "></path></clipPath><g clip-path="url(#clip0x6080024a53a0)"><path d="M 103.7 59.8 C 103.7 49.8 95.7 41.6 85.9 41.6 C 76.0 41.6 68.0 49.8 68.0 59.8 C 68.0 69.9 76.0 78.0 85.9 78.0 C 95.7 78.0 103.7 69.9 103.7 59.8 " fill="#FFFFFF"></path><path d="M 91.3 76.5 L 81.6 52.1 C 81.6 52.1 82.4 52.4 82.7 53.3 L 91.9 76.3 C 91.9 76.3 91.9 76.3 91.9 76.3 C 91.7 76.4 91.5 76.4 91.3 76.5 " fill="#0B2477"></path><path d="M 96.1 52.5 C 95.8 51.8 94.9 51.1 94.1 51.1 L 71.1 51.1 C 71.2 51.2 71.3 51.2 71.4 51.3 C 72.6 51.5 73.4 52.5 74.6 52.7 C 76.0 53.0 76.9 52.0 78.2 52.0 C 79.3 52.0 80.5 52.8 81.0 54.0 L 90.1 76.9 C 88.7 77.2 87.3 77.4 85.9 77.4 C 76.3 77.4 68.6 69.5 68.6 59.8 C 68.6 50.1 76.3 42.2 85.9 42.2 C 95.4 42.2 103.1 50.1 103.1 59.8 C 103.1 62.3 102.6 64.7 101.7 66.8 Z M 96.1 52.5 " fill="#0B2477"></path><path d="M 84.8 53.3 L 93.6 75.5 C 93.4 75.6 93.3 75.7 93.1 75.8 L 83.7 52.1 C 83.7 52.1 84.4 52.4 84.8 53.3 " fill="#0B2477"></path><path d="M 86.8 53.3 L 95.3 74.6 C 95.1 74.7 94.9 74.8 94.8 74.9 L 85.7 52.1 C 85.7 52.1 86.4 52.4 86.8 53.3 " fill="#0B2477"></path><path d="M 88.8 53.3 L 96.8 73.4 C 96.7 73.5 96.5 73.7 96.4 73.8 L 87.8 52.1 C 87.8 52.1 88.5 52.4 88.8 53.3 " fill="#0B2477"></path><path d="M 90.9 53.3 L 98.3 72.0 C 98.2 72.2 98.0 72.3 97.9 72.5 L 89.8 52.1 C 89.8 52.1 90.5 52.4 90.9 53.3 " fill="#0B2477"></path><path d="M 92.9 53.3 L 99.7 70.4 C 99.6 70.5 99.4 70.7 99.3 70.9 L 91.8 52.1 C 91.8 52.1 92.6 52.4 92.9 53.3 " fill="#0B2477"></path><path d="M 94.9 53.3 L 101.0 68.4 C 100.8 68.6 100.7 68.8 100.6 69.0 L 93.9 52.1 C 93.9 52.1 94.6 52.4 94.9 53.3 " fill="#0B2477"></path><path d="M 139.2 60.4 C 138.3 62.2 136.0 63.1 130.5 63.1 L 130.5 63.1 L 130.5 63.1 C 125.0 63.1 122.7 62.2 121.7 60.4 C 121.5 59.9 121.5 58.4 121.5 58.4 L 121.5 51.1 L 125.3 51.1 L 125.3 58.4 C 125.3 59.5 125.4 60.9 130.5 60.9 C 135.6 60.9 135.6 59.5 135.6 58.4 L 135.6 51.1 L 139.4 51.1 L 139.4 58.4 C 139.4 58.4 139.5 59.9 139.2 60.4 " fill="#0B2477"></path><path d="M 247.7 60.4 C 246.7 62.2 244.4 63.1 239.0 63.1 L 238.9 63.1 L 238.9 63.1 C 233.4 63.1 231.2 62.2 230.2 60.4 C 230.0 59.9 230.0 58.4 230.0 58.4 L 230.0 51.1 L 233.8 51.1 L 233.8 58.4 C 233.8 59.5 233.8 60.9 238.9 60.9 C 244.0 60.9 244.1 59.5 244.1 58.4 L 244.1 51.1 L 247.9 51.1 L 247.9 58.4 C 247.9 58.4 247.9 59.9 247.7 60.4 " fill="#0B2477"></path><path d="M 154.4 53.1 C 149.3 53.1 149.3 54.5 149.3 55.6 L 149.3 58.4 C 149.3 59.5 149.3 60.9 154.4 60.9 C 159.5 60.9 159.6 59.5 159.6 58.4 L 159.6 55.6 C 159.6 54.5 159.5 53.1 154.4 53.1 M 163.4 58.4 C 163.4 58.4 163.4 59.9 163.2 60.4 C 162.2 62.2 159.9 63.1 154.4 63.1 L 154.4 63.1 L 154.4 63.1 C 148.9 63.1 146.6 62.2 145.7 60.4 C 145.4 59.9 145.5 58.4 145.5 58.4 L 145.5 55.6 C 145.5 55.6 145.4 54.1 145.7 53.6 C 146.6 51.8 148.9 50.9 154.4 50.9 L 154.4 50.9 L 154.4 50.9 C 159.9 50.9 162.2 51.8 163.2 53.6 C 163.4 54.1 163.4 55.6 163.4 55.6 Z M 163.4 58.4 " fill="#0B2477"></path><path d="M 224.1 58.4 C 224.1 58.4 224.2 59.9 223.9 60.4 C 223.0 62.2 220.7 63.1 215.2 63.1 L 215.2 63.1 L 215.2 63.1 C 209.7 63.1 207.4 62.2 206.5 60.4 C 206.2 59.9 206.3 58.4 206.3 58.4 L 206.3 55.6 C 206.3 55.6 206.2 54.1 206.5 53.6 C 207.4 51.8 209.7 50.9 215.2 50.9 C 222.0 50.9 223.9 53.6 223.9 53.6 C 223.9 53.6 220.3 53.1 215.2 53.1 C 210.1 53.1 210.1 54.5 210.1 55.6 L 210.1 58.4 C 210.1 59.5 210.1 60.9 215.2 60.9 C 220.3 60.9 220.3 59.5 220.3 58.4 C 220.3 58.4 220.6 57.0 219.3 56.5 L 223.1 56.5 C 223.1 56.5 224.1 56.8 224.1 58.4 " fill="#0B2477"></path><path d="M 196.4 55.6 C 196.4 54.5 196.3 53.1 191.2 53.1 C 186.1 53.1 186.1 54.5 186.1 55.6 L 186.1 58.4 C 186.1 59.5 186.1 60.9 191.2 60.9 C 196.3 60.9 196.4 59.5 196.4 58.4 Z M 200.2 66.0 L 196.4 66.0 L 196.4 62.7 C 195.1 62.9 193.4 63.1 191.2 63.1 L 191.2 63.1 L 191.2 63.1 C 185.7 63.1 183.4 62.2 182.5 60.4 C 182.2 59.9 182.3 58.4 182.3 58.4 L 182.3 55.6 C 182.3 55.6 182.2 54.1 182.5 53.6 C 183.4 51.8 185.7 50.9 191.2 50.9 L 191.2 50.9 L 191.2 50.9 C 196.7 50.9 199.0 51.8 200.0 53.6 C 200.2 54.1 200.2 55.6 200.2 55.6 Z M 200.2 66.0 " fill="#0B2477"></path><path d="M 178.4 60.9 C 173.3 60.9 173.2 59.5 173.2 58.4 L 173.2 51.1 L 169.4 51.1 L 169.4 58.4 C 169.4 58.4 169.4 59.9 169.6 60.4 C 170.6 62.2 172.9 63.1 178.3 63.1 L 178.4 63.1 L 178.4 63.1 Z M 178.4 60.9 " fill="#0B2477"></path><path d="M 127.2 29.9 C 127.2 30.9 126.8 31.6 126.1 32.1 C 125.6 32.4 125.1 32.5 124.0 32.5 L 121.7 32.5 L 121.7 23.6 L 122.9 23.6 L 122.9 27.1 L 124.3 27.1 C 125.3 27.1 125.7 27.3 126.2 27.6 C 126.9 28.2 127.2 28.9 127.2 29.9 M 125.9 29.8 C 125.9 29.3 125.7 28.9 125.5 28.6 C 125.2 28.2 124.9 28.1 124.3 28.1 L 122.9 28.1 L 122.9 31.5 L 124.0 31.5 C 124.7 31.5 125.1 31.3 125.4 31.0 C 125.7 30.8 125.9 30.3 125.9 29.8 " fill="#000000"></path><path d="M 133.6 26.8 C 133.6 28.7 132.7 30.3 130.8 30.3 C 129.2 30.3 128.1 28.9 128.1 26.9 C 128.1 24.8 129.2 23.5 130.8 23.5 C 132.5 23.5 133.6 24.8 133.6 26.8 M 132.3 26.7 C 132.3 25.1 131.7 24.4 130.9 24.4 C 129.9 24.4 129.4 25.0 129.4 27.0 C 129.4 28.6 129.8 29.3 130.8 29.3 C 131.7 29.3 132.3 28.7 132.3 26.7 " fill="#000000"></path><path d="M 139.2 23.6 L 139.2 28.1 C 139.2 28.5 139.1 28.8 139.0 29.0 C 138.8 29.1 138.6 29.2 138.3 29.2 C 137.7 29.2 137.1 28.8 136.6 28.3 L 136.6 23.6 L 135.4 23.6 L 135.4 31.5 C 135.4 32.0 135.4 32.4 135.3 32.8 L 136.5 33.0 C 136.5 32.7 136.6 32.2 136.6 31.6 L 136.6 30.1 C 136.6 29.9 136.6 29.6 136.6 29.3 C 136.8 29.5 137.0 29.6 137.2 29.8 C 137.7 30.1 138.1 30.2 138.6 30.2 C 139.3 30.2 140.0 29.8 140.2 29.3 C 140.3 29.0 140.3 28.8 140.3 28.2 L 140.3 23.6 Z M 139.2 23.6 " fill="#000000"></path><path d="M 143.1 31.3 C 142.7 31.3 142.3 31.7 142.3 32.1 C 142.3 32.6 142.7 33.0 143.1 33.0 C 143.6 33.0 144.0 32.6 144.0 32.2 C 144.0 31.7 143.6 31.3 143.1 31.3 M 143.3 21.9 C 143.0 21.5 142.7 21.2 142.2 21.0 L 141.7 21.7 C 141.8 21.8 142.0 21.9 142.1 22.0 C 142.4 22.3 142.6 23.0 142.6 23.8 L 142.6 30.0 L 143.8 30.2 L 143.8 23.8 C 143.8 22.7 143.5 22.2 143.3 21.9 " fill="#000000"></path><path d="M 151.0 26.8 C 151.0 28.7 150.1 30.3 148.2 30.3 C 146.5 30.3 145.5 28.9 145.5 26.9 C 145.5 24.8 146.5 23.5 148.2 23.5 C 149.9 23.5 151.0 24.8 151.0 26.8 M 149.7 26.7 C 149.7 25.1 149.1 24.4 148.3 24.4 C 147.3 24.4 146.8 25.0 146.8 27.0 C 146.8 28.6 147.2 29.3 148.2 29.3 C 149.1 29.3 149.7 28.7 149.7 26.7 " fill="#000000"></path><path d="M 154.0 23.6 L 154.0 30.2 L 152.8 30.0 L 152.8 23.6 Z M 154.2 32.0 C 154.2 32.5 153.9 32.9 153.4 32.9 C 153.0 32.9 152.6 32.5 152.6 32.0 C 152.6 31.6 153.0 31.2 153.4 31.2 C 153.9 31.2 154.2 31.6 154.2 32.0 " fill="#000000"></path><path d="M 158.0 23.5 C 157.2 23.5 156.4 23.7 155.6 24.1 L 156.1 25.0 C 156.7 24.6 157.4 24.3 158.1 24.3 C 158.8 24.3 159.3 24.8 159.3 25.4 C 159.3 25.9 158.9 26.3 158.2 26.4 L 157.4 26.6 C 156.4 26.8 155.9 27.4 155.9 28.3 C 155.9 29.5 156.8 30.3 158.2 30.3 C 159.0 30.3 159.7 30.1 160.2 29.8 L 159.8 29.0 C 159.2 29.3 158.7 29.4 158.2 29.4 C 157.6 29.4 157.1 29.1 157.1 28.5 C 157.1 28.0 157.4 27.8 158.0 27.6 L 158.9 27.4 C 160.0 27.1 160.5 26.5 160.5 25.6 C 160.5 24.3 159.5 23.5 158.0 23.5 " fill="#000000"></path><path d="M 169.0 23.6 L 169.0 28.3 C 169.0 29.0 168.8 29.2 168.2 29.2 C 167.7 29.2 167.2 28.9 166.8 28.4 L 166.8 23.6 L 165.6 23.6 L 165.6 28.2 C 165.6 28.9 165.4 29.2 164.9 29.2 C 164.4 29.2 163.9 29.0 163.4 28.5 L 163.4 23.6 L 162.3 23.6 L 162.3 28.4 C 162.3 29.3 162.2 29.5 162.0 30.0 L 163.1 30.2 C 163.2 30.0 163.3 29.7 163.3 29.3 C 163.9 29.9 164.5 30.3 165.1 30.3 C 165.7 30.3 166.3 29.9 166.6 29.2 C 167.2 29.9 167.9 30.3 168.5 30.3 C 169.5 30.3 170.1 29.6 170.1 28.4 L 170.1 23.6 Z M 169.0 23.6 " fill="#000000"></path><path d="M 177.1 24.2 C 176.6 24.5 176.6 24.8 176.6 25.7 C 176.6 26.7 176.7 27.6 176.7 28.1 C 176.7 28.7 176.6 29.0 176.5 29.2 C 176.3 29.9 175.6 30.3 174.7 30.3 C 173.5 30.3 172.7 29.8 172.0 29.4 L 172.6 28.6 C 173.1 29.0 173.9 29.3 174.5 29.3 C 175.4 29.3 175.5 28.8 175.5 28.0 L 175.5 27.6 C 175.3 27.6 175.2 27.6 175.1 27.6 C 173.0 27.6 171.8 26.8 171.8 25.3 C 171.8 24.1 172.6 23.4 173.9 23.4 C 175.0 23.4 175.5 24.1 175.7 24.3 C 175.8 23.8 176.1 23.5 176.5 23.4 Z M 175.5 26.8 L 175.4 25.2 C 175.2 24.6 174.6 24.3 174.1 24.3 C 173.5 24.3 173.1 24.7 173.1 25.4 C 173.1 25.9 173.2 26.1 173.4 26.4 C 173.7 26.7 174.2 26.8 175.1 26.8 C 175.2 26.8 175.3 26.8 175.5 26.8 " fill="#000000"></path><path d="M 179.5 31.2 C 179.0 31.2 178.7 31.6 178.7 32.0 C 178.7 32.5 179.0 32.9 179.5 32.9 C 180.0 32.9 180.3 32.5 180.3 32.0 C 180.3 31.6 180.0 31.2 179.5 31.2 M 178.9 23.6 L 178.9 30.0 L 180.1 30.2 L 180.1 23.6 Z M 178.9 23.6 " fill="#000000"></path><path d="M 185.9 23.6 L 185.9 28.0 C 185.9 28.6 185.9 28.8 185.7 29.0 C 185.6 29.1 185.4 29.2 185.1 29.2 C 184.6 29.2 183.9 28.9 183.5 28.4 L 183.5 23.6 L 182.4 23.6 L 182.4 28.4 C 182.4 29.2 182.3 29.5 182.1 30.0 L 183.2 30.3 C 183.4 30.0 183.4 29.7 183.4 29.3 C 183.8 29.6 184.0 29.8 184.3 29.9 C 184.6 30.1 185.0 30.2 185.4 30.2 C 186.1 30.2 186.7 29.9 186.9 29.3 C 187.0 29.1 187.1 28.8 187.1 28.5 L 187.1 23.6 Z M 185.9 23.6 " fill="#000000"></path><path d="M 194.1 26.6 L 194.1 26.8 C 194.1 28.3 193.9 29.0 193.3 29.6 C 192.9 30.0 192.3 30.3 191.6 30.3 C 190.8 30.3 190.2 30.0 189.7 29.4 C 189.2 28.7 189.0 28.0 189.0 26.9 C 189.0 24.8 190.0 23.5 191.8 23.5 C 192.6 23.5 193.3 23.8 194.0 24.3 L 193.5 25.0 C 193.1 24.6 192.6 24.4 192.0 24.4 C 191.4 24.4 190.8 24.7 190.5 25.2 C 190.3 25.5 190.3 25.9 190.3 26.5 L 190.3 26.6 Z M 192.9 27.5 L 190.3 27.5 C 190.3 28.6 190.7 29.4 191.6 29.4 C 192.0 29.4 192.3 29.2 192.5 28.9 C 192.7 28.6 192.9 28.1 192.9 27.5 " fill="#000000"></path><path d="M 199.4 23.6 L 199.4 28.0 C 199.4 28.6 199.4 28.8 199.2 29.0 C 199.1 29.1 198.9 29.2 198.6 29.2 C 198.1 29.2 197.4 28.9 197.0 28.4 L 197.0 23.6 L 195.9 23.6 L 195.9 28.4 C 195.9 29.2 195.8 29.5 195.6 30.0 L 196.7 30.3 C 196.9 30.0 196.9 29.7 196.9 29.3 C 197.3 29.6 197.5 29.8 197.8 29.9 C 198.1 30.1 198.5 30.2 198.9 30.2 C 199.6 30.2 200.2 29.9 200.4 29.3 C 200.5 29.1 200.6 28.8 200.6 28.5 L 200.6 23.6 Z M 199.4 23.6 " fill="#000000"></path><path d="M 209.7 23.6 L 207.1 27.3 L 209.2 30.1 L 210.6 30.1 L 208.3 27.4 L 211.1 23.6 Z M 205.8 23.6 L 205.8 31.3 C 205.8 32.0 205.7 32.4 205.6 32.8 L 206.8 33.1 C 206.9 32.7 207.0 32.2 207.0 31.7 L 207.0 23.6 Z M 205.8 23.6 " fill="#000000"></path><path d="M 216.4 23.4 C 216.1 23.7 215.9 23.9 215.8 24.3 C 215.3 23.7 214.7 23.4 213.9 23.4 C 213.1 23.4 212.5 23.8 212.2 24.4 C 212.1 24.6 212.1 25.0 212.1 25.5 L 212.1 30.0 L 213.2 30.3 L 213.2 25.8 C 213.2 25.1 213.3 24.9 213.5 24.7 C 213.7 24.5 214.0 24.4 214.2 24.4 C 214.8 24.4 215.4 24.8 215.7 25.4 L 215.7 30.0 L 216.8 30.2 L 216.8 25.4 C 216.8 24.7 217.0 24.3 217.2 24.1 Z M 216.4 23.4 " fill="#000000"></path><path d="M 220.3 23.5 C 219.8 23.5 219.5 23.7 219.3 24.0 C 219.1 24.3 219.0 24.5 219.0 25.1 L 219.0 30.9 C 219.0 31.9 219.0 32.3 218.9 32.8 L 220.1 33.1 C 220.2 32.6 220.2 32.0 220.2 31.2 L 220.2 25.4 C 220.2 24.7 220.3 24.6 220.4 24.5 C 220.5 24.4 220.6 24.3 220.8 24.4 L 221.0 23.7 C 220.7 23.6 220.5 23.5 220.3 23.5 " fill="#000000"></path><path d="M 224.9 29.2 L 223.6 29.2 L 223.6 25.4 C 223.6 24.6 223.8 24.3 224.4 24.3 C 224.7 24.3 224.8 24.4 225.0 24.5 L 225.2 23.7 C 224.8 23.6 224.4 23.5 224.0 23.5 C 223.6 23.5 223.2 23.6 223.0 23.8 C 222.7 24.0 222.5 24.2 222.5 25.1 L 222.5 29.2 L 221.7 29.2 L 221.7 30.1 L 222.5 30.1 C 222.5 30.6 222.5 31.2 222.6 31.7 L 223.8 32.0 C 223.7 31.5 223.6 30.7 223.6 30.1 L 225.2 30.1 Z M 224.9 29.2 " fill="#000000"></path><path d="M 229.0 29.2 L 227.8 29.2 L 227.8 25.4 C 227.8 24.6 228.0 24.3 228.6 24.3 C 228.8 24.3 229.0 24.4 229.2 24.5 L 229.3 23.7 C 229.0 23.6 228.6 23.5 228.2 23.5 C 227.8 23.5 227.3 23.6 227.1 23.8 C 226.8 24.0 226.6 24.2 226.6 25.1 L 226.6 29.2 L 225.9 29.2 L 225.9 30.1 L 226.6 30.1 C 226.6 30.6 226.6 31.2 226.7 31.7 L 227.9 32.0 C 227.9 31.5 227.8 30.7 227.8 30.1 L 229.3 30.1 Z M 229.0 29.2 " fill="#000000"></path><path d="M 234.9 23.4 C 234.6 23.7 234.5 23.9 234.4 24.3 C 233.8 23.7 233.2 23.4 232.4 23.4 C 231.6 23.4 231.0 23.8 230.7 24.4 C 230.6 24.6 230.6 25.0 230.6 25.5 L 230.6 30.0 L 231.7 30.3 L 231.7 25.8 C 231.7 25.1 231.8 24.9 232.0 24.7 C 232.2 24.5 232.5 24.4 232.8 24.4 C 233.3 24.4 233.9 24.8 234.2 25.4 L 234.2 30.0 L 235.3 30.2 L 235.3 25.4 C 235.3 24.7 235.5 24.3 235.7 24.1 Z M 234.9 23.4 " fill="#000000"></path><path d="M 241.9 23.4 C 241.6 23.7 241.4 23.9 241.3 24.3 C 240.8 23.7 240.2 23.4 239.4 23.4 C 238.6 23.4 238.0 23.8 237.7 24.4 C 237.6 24.6 237.6 25.0 237.6 25.5 L 237.6 30.0 L 238.7 30.3 L 238.7 25.8 C 238.7 25.1 238.8 24.9 239.0 24.7 C 239.2 24.5 239.4 24.4 239.7 24.4 C 240.3 24.4 240.9 24.8 241.2 25.4 L 241.2 30.0 L 242.3 30.2 L 242.3 25.4 C 242.3 24.7 242.4 24.3 242.7 24.1 Z M 241.9 23.4 " fill="#000000"></path><path d="M 247.4 29.0 C 247.3 29.1 247.2 29.1 247.0 29.1 C 246.3 29.1 245.7 28.5 245.7 27.8 L 245.7 23.6 L 244.6 23.6 L 244.6 28.4 C 244.6 29.1 244.5 29.6 244.3 30.0 L 245.5 30.3 C 245.6 30.0 245.7 29.6 245.7 29.3 L 245.7 29.2 C 246.2 29.9 246.7 30.3 247.4 30.3 C 247.5 30.3 247.7 30.3 247.8 30.2 Z M 247.4 29.0 " fill="#000000"></path><path d="M 249.6 31.2 C 249.1 31.2 248.8 31.6 248.8 32.0 C 248.8 32.5 249.1 32.9 249.6 32.9 C 250.0 32.9 250.4 32.5 250.4 32.0 C 250.4 31.6 250.0 31.2 249.6 31.2 M 249.0 23.6 L 249.0 30.0 L 250.2 30.2 L 250.2 23.6 Z M 249.0 23.6 " fill="#000000"></path><path d="M 255.2 29.0 C 255.1 29.1 255.0 29.1 254.9 29.1 C 254.2 29.1 253.6 28.5 253.6 27.8 L 253.6 23.6 L 252.4 23.6 L 252.4 28.4 C 252.4 29.1 252.4 29.6 252.2 30.0 L 253.3 30.3 C 253.4 30.0 253.5 29.6 253.5 29.3 L 253.5 29.2 C 254.0 29.9 254.6 30.3 255.3 30.3 C 255.4 30.3 255.5 30.3 255.6 30.2 Z M 255.2 29.0 " fill="#000000"></path><path d="M 261.5 24.2 C 261.0 24.5 261.0 24.8 261.0 25.7 C 261.0 26.7 261.1 27.6 261.1 28.1 C 261.1 28.7 261.0 29.0 260.9 29.2 C 260.7 29.9 260.0 30.3 259.1 30.3 C 257.9 30.3 257.1 29.8 256.5 29.4 L 257.0 28.6 C 257.5 29.0 258.3 29.3 258.9 29.3 C 259.8 29.3 259.9 28.8 259.9 28.0 L 259.9 27.6 C 259.8 27.6 259.6 27.6 259.5 27.6 C 257.4 27.6 256.3 26.8 256.3 25.3 C 256.3 24.1 257.1 23.4 258.3 23.4 C 259.4 23.4 259.9 24.1 260.1 24.3 C 260.3 23.8 260.6 23.5 260.9 23.4 Z M 259.9 26.8 L 259.9 25.2 C 259.6 24.6 259.1 24.3 258.5 24.3 C 257.9 24.3 257.5 24.7 257.5 25.4 C 257.5 25.9 257.6 26.1 257.9 26.4 C 258.1 26.7 258.7 26.8 259.5 26.8 C 259.6 26.8 259.7 26.8 259.9 26.8 " fill="#000000"></path><path d="M 267.1 23.6 L 267.1 28.1 C 267.1 28.5 267.0 28.8 266.9 29.0 C 266.7 29.1 266.5 29.2 266.2 29.2 C 265.6 29.2 265.0 28.8 264.5 28.3 L 264.5 23.6 L 263.3 23.6 L 263.3 31.5 C 263.3 32.0 263.3 32.4 263.2 32.8 L 264.4 33.0 C 264.4 32.7 264.5 32.2 264.5 31.6 L 264.5 30.1 C 264.5 29.9 264.5 29.6 264.5 29.3 C 264.7 29.5 264.9 29.6 265.1 29.8 C 265.6 30.1 266.0 30.2 266.5 30.2 C 267.2 30.2 267.9 29.8 268.1 29.3 C 268.2 29.0 268.2 28.8 268.2 28.2 L 268.2 23.6 Z M 267.1 23.6 " fill="#000000"></path><path d="M 275.2 24.2 C 274.7 24.5 274.7 24.8 274.7 25.7 C 274.7 26.7 274.7 27.6 274.7 28.1 C 274.7 28.7 274.7 29.0 274.6 29.2 C 274.3 29.9 273.7 30.3 272.8 30.3 C 271.5 30.3 270.7 29.8 270.1 29.4 L 270.6 28.6 C 271.2 29.0 271.9 29.3 272.6 29.3 C 273.5 29.3 273.6 28.8 273.6 28.0 L 273.6 27.6 C 273.4 27.6 273.3 27.6 273.1 27.6 C 271.1 27.6 269.9 26.8 269.9 25.3 C 269.9 24.1 270.7 23.4 272.0 23.4 C 273.1 23.4 273.6 24.1 273.7 24.3 C 273.9 23.8 274.2 23.5 274.6 23.4 Z M 273.5 26.8 L 273.5 25.2 C 273.2 24.6 272.7 24.3 272.2 24.3 C 271.5 24.3 271.2 24.7 271.2 25.4 C 271.2 25.9 271.3 26.1 271.5 26.4 C 271.8 26.7 272.3 26.8 273.2 26.8 C 273.3 26.8 273.4 26.8 273.5 26.8 " fill="#000000"></path><path d="M 278.7 23.5 C 277.9 23.5 277.1 23.7 276.3 24.1 L 276.7 25.0 C 277.3 24.6 278.1 24.3 278.8 24.3 C 279.5 24.3 279.9 24.8 279.9 25.4 C 279.9 25.9 279.6 26.3 278.9 26.4 L 278.1 26.6 C 277.1 26.8 276.6 27.4 276.6 28.3 C 276.6 29.5 277.5 30.3 278.9 30.3 C 279.6 30.3 280.3 30.1 280.9 29.8 L 280.5 29.0 C 279.9 29.3 279.4 29.4 278.9 29.4 C 278.2 29.4 277.8 29.1 277.8 28.5 C 277.8 28.0 278.0 27.8 278.7 27.6 L 279.5 27.4 C 280.7 27.1 281.2 26.5 281.2 25.6 C 281.2 24.3 280.2 23.5 278.7 23.5 " fill="#000000"></path><path d="M 285.3 29.2 L 284.0 29.2 L 284.0 25.4 C 284.0 24.6 284.2 24.3 284.8 24.3 C 285.0 24.3 285.2 24.4 285.4 24.5 L 285.6 23.7 C 285.2 23.6 284.8 23.5 284.4 23.5 C 284.0 23.5 283.5 23.6 283.3 23.8 C 283.1 24.0 282.9 24.2 282.9 25.1 L 282.9 29.2 L 282.1 29.2 L 282.1 30.1 L 282.9 30.1 C 282.9 30.6 282.9 31.2 282.9 31.7 L 284.1 32.0 C 284.1 31.5 284.0 30.7 284.0 30.1 L 285.6 30.1 Z M 285.3 29.2 " fill="#000000"></path><path d="M 292.0 26.8 C 292.0 28.7 291.1 30.3 289.2 30.3 C 287.6 30.3 286.5 28.9 286.5 26.9 C 286.5 24.8 287.6 23.5 289.3 23.5 C 290.9 23.5 292.0 24.8 292.0 26.8 M 290.7 26.7 C 290.7 25.1 290.2 24.4 289.3 24.4 C 288.3 24.4 287.8 25.0 287.8 27.0 C 287.8 28.6 288.2 29.3 289.2 29.3 C 290.1 29.3 290.7 28.7 290.7 26.7 " fill="#000000"></path></g></g></g></g></g></g><g><clipPath id="clip0x6080024a60c0"><path d="M 360.6 14.1 L 433.4 14.1 L 433.4 86.9 L 360.6 86.9 Z M 360.6 14.1 "></path></clipPath><g clip-path="url(#clip0x6080024a60c0)"><image xlink:href="7981BA381C561726A9EA0A974D32456C.png" width="200.00" height="200.00" transform="matrix(0.36, 0.00, -0.00, -0.36, 361.0, 87.0)"></image></g></g></g></svg>