<?xml version="1.0" encoding="UTF-8" standalone="no"?><svg xmlns="http://www.w3.org/2000/svg" xmlns:xlink="http://www.w3.org/1999/xlink" clip-rule="evenodd" stroke-miterlimit="10" viewBox="0 0 657 77"><desc>SVG generated by Keynote</desc><defs></defs><g transform="matrix(1.00, 0.00, -0.00, -1.00, 0.0, 77.0)"><text xml:space="preserve" font-family="HelveticaNeue-Thin,Helvetica Neue" font-size="80.0" fill="#EBEAE9" transform="matrix(1.00, 0.00, -0.00, -1.00, 2.0, 18.4)">A</text><text xml:space="preserve" font-family="HelveticaNeue-Thin,Helvetica Neue" font-size="80.0" fill="#EBEAE9" transform="matrix(1.00, 0.00, -0.00, -1.00, 49.4, 18.4)">c</text><text xml:space="preserve" font-family="HelveticaNeue-Thin,Helvetica Neue" font-size="80.0" fill="#EBEAE9" transform="matrix(1.00, 0.00, -0.00, -1.00, 91.0, 18.4)">k</text><text xml:space="preserve" font-family="HelveticaNeue-Thin,Helvetica Neue" font-size="80.0" fill="#EBEAE9" transform="matrix(1.00, 0.00, -0.00, -1.00, 128.0, 18.4)">n</text><text xml:space="preserve" font-family="HelveticaNeue-Thin,Helvetica Neue" font-size="80.0" fill="#EBEAE9" transform="matrix(1.00, 0.00, -0.00, -1.00, 169.5, 18.4)">o</text><text xml:space="preserve" font-family="HelveticaNeue-Thin,Helvetica Neue" font-size="80.0" fill="#EBEAE9" transform="matrix(1.00, 0.00, -0.00, -1.00, 212.5, 18.4)">w</text><text xml:space="preserve" font-family="HelveticaNeue-Thin,Helvetica Neue" font-size="80.0" fill="#EBEAE9" transform="matrix(1.00, 0.00, -0.00, -1.00, 268.8, 18.4)">l</text><text xml:space="preserve" font-family="HelveticaNeue-Thin,Helvetica Neue" font-size="80.0" fill="#EBEAE9" transform="matrix(1.00, 0.00, -0.00, -1.00, 282.2, 18.4)">e</text><text xml:space="preserve" font-family="HelveticaNeue-Thin,Helvetica Neue" font-size="80.0" fill="#EBEAE9" transform="matrix(1.00, 0.00, -0.00, -1.00, 323.8, 18.4)">d</text><text xml:space="preserve" font-family="HelveticaNeue-Thin,Helvetica Neue" font-size="80.0" fill="#EBEAE9" transform="matrix(1.00, 0.00, -0.00, -1.00, 368.2, 18.4)">g</text><text xml:space="preserve" font-family="HelveticaNeue-Thin,Helvetica Neue" font-size="80.0" fill="#EBEAE9" transform="matrix(1.00, 0.00, -0.00, -1.00, 411.2, 18.4)">e</text><text xml:space="preserve" font-family="HelveticaNeue-Thin,Helvetica Neue" font-size="80.0" fill="#EBEAE9" transform="matrix(1.00, 0.00, -0.00, -1.00, 452.7, 18.4)">m</text><text xml:space="preserve" font-family="HelveticaNeue-Thin,Helvetica Neue" font-size="80.0" fill="#EBEAE9" transform="matrix(1.00, 0.00, -0.00, -1.00, 516.4, 18.4)">e</text><text xml:space="preserve" font-family="HelveticaNeue-Thin,Helvetica Neue" font-size="80.0" fill="#EBEAE9" transform="matrix(1.00, 0.00, -0.00, -1.00, 557.9, 18.4)">n</text><text xml:space="preserve" font-family="HelveticaNeue-Thin,Helvetica Neue" font-size="80.0" fill="#EBEAE9" transform="matrix(1.00, 0.00, -0.00, -1.00, 599.4, 18.4)">t</text><text xml:space="preserve" font-family="HelveticaNeue-Thin,Helvetica Neue" font-size="80.0" fill="#EBEAE9" transform="matrix(1.00, 0.00, -0.00, -1.00, 620.2, 18.4)">s</text></g></svg>