<?xml version="1.0" encoding="UTF-8" standalone="no"?><svg xmlns="http://www.w3.org/2000/svg" xmlns:xlink="http://www.w3.org/1999/xlink" clip-rule="evenodd" stroke-miterlimit="10" viewBox="0 0 1280 800"><desc>SVG generated by Keynote</desc><defs></defs><g transform="matrix(1.00, 0.00, -0.00, -1.00, 0.0, 800.0)"><path d="M 0.0 800.0 L 1280.0 800.0 L 1280.0 0.0 L 0.0 0.0 Z M 0.0 800.0 " fill="#BBB9B4"></path><g><clipPath id="clip0x600001ebc2c0"><path d="M 85.0 1732.0 L 1195.0 1732.0 L 1195.0 -932.0 L 85.0 -932.0 Z M 85.0 1732.0 "></path></clipPath><g clip-path="url(#clip0x600001ebc2c0)"><image xlink:href="../../F914AAB3-9361-4B28-A797-4EBF60544015/assets/5A81A9B87CBB634C931680F3E2702229.png" width="1110.00" height="2664.00" transform="matrix(1.00, 0.00, -0.00, -1.00, 85.0, 1732.0)"></image></g></g><path d="M 426.2 679.6 C 426.0 679.7 425.8 679.8 425.4 679.8 C 425.6 679.9 425.8 679.9 425.8 680.1 C 426.0 679.9 426.4 679.8 427.1 679.8 C 427.0 679.7 426.7 679.7 426.5 679.8 C 426.3 679.8 426.3 679.7 426.2 679.6 C 426.2 679.6 426.2 679.6 426.2 679.6 Z M 417.2 728.3 C 416.7 728.1 417.1 728.6 417.3 728.7 C 417.3 728.6 417.4 728.6 417.6 728.7 C 417.5 728.9 417.1 728.8 416.7 728.8 C 415.4 728.1 416.6 728.1 417.2 728.3 C 417.2 728.3 417.2 728.3 417.2 728.3 Z M 490.2 734.4 C 491.4 734.2 490.1 734.1 489.9 734.0 C 490.4 733.8 489.9 733.5 490.6 733.3 C 490.7 733.4 491.0 733.5 491.2 733.6 C 490.9 733.7 490.4 733.7 490.4 733.8 C 490.8 733.8 491.3 733.6 491.4 733.7 C 490.6 734.0 491.3 734.1 491.5 734.2 C 490.8 734.3 490.5 734.7 490.2 734.4 C 490.2 734.4 490.2 734.4 490.2 734.4 Z M 512.8 695.3 C 513.1 695.6 513.4 695.8 513.2 695.9 C 512.9 695.6 512.7 695.4 512.5 695.2 C 512.4 695.3 512.4 695.5 512.0 695.3 C 511.8 694.8 512.2 694.6 512.5 694.6 C 512.4 694.9 513.7 695.6 512.8 695.3 C 512.8 695.3 512.8 695.3 512.8 695.3 Z M 483.1 683.8 C 482.1 683.4 483.0 684.2 482.0 683.8 C 482.1 683.6 482.0 683.2 482.7 683.4 C 482.7 683.5 483.1 683.6 483.1 683.8 C 483.1 683.8 483.1 683.8 483.1 683.8 Z M 459.2 733.8 C 459.2 734.0 460.0 734.0 459.8 734.3 C 459.4 734.2 459.0 734.2 458.6 734.2 C 458.6 734.0 458.7 733.8 459.2 733.8 C 459.2 733.8 459.2 733.8 459.2 733.8 Z M 497.0 729.9 C 498.1 730.0 499.1 729.2 498.9 729.6 C 499.4 729.8 498.4 730.6 498.3 730.3 C 498.1 730.0 496.2 730.2 497.0 729.9 C 497.0 729.9 497.0 729.9 497.0 729.9 Z M 424.4 725.3 C 425.4 725.9 425.4 725.0 426.1 725.6 C 425.8 725.5 425.7 725.6 425.6 725.6 C 425.7 725.7 426.0 725.8 426.0 725.9 C 425.4 725.7 424.7 725.6 424.4 725.3 C 424.4 725.3 424.4 725.3 424.4 725.3 Z M 444.9 678.6 C 445.1 678.6 445.2 678.6 445.2 678.4 C 446.1 678.5 446.0 678.2 446.6 678.4 C 446.6 678.8 445.9 678.7 445.2 678.6 C 445.1 678.7 444.9 678.8 444.9 678.6 C 444.9 678.6 444.9 678.6 444.9 678.6 Z M 469.8 681.2 C 469.8 680.9 469.3 680.8 470.1 680.8 C 471.0 681.3 470.1 681.4 469.2 681.5 C 469.1 681.6 469.1 681.7 469.1 681.9 C 469.5 681.9 469.7 682.0 469.9 682.1 C 470.2 681.6 470.7 682.6 472.1 682.5 C 471.4 682.6 472.1 683.1 471.2 682.8 C 471.4 683.1 470.8 683.0 470.9 683.2 C 471.3 683.1 472.2 683.3 472.1 682.9 C 472.6 683.0 472.9 683.0 473.2 683.2 C 473.5 683.5 472.3 683.1 472.6 683.5 C 472.8 683.5 472.9 683.6 473.1 683.7 C 473.2 683.5 473.1 683.4 473.4 683.4 C 474.3 683.7 473.2 683.7 474.4 684.0 C 474.5 683.8 474.2 683.7 474.2 683.5 C 474.8 683.5 474.7 683.7 475.3 683.6 C 475.4 683.8 474.9 683.8 475.3 683.9 C 475.7 683.5 476.4 684.4 477.2 684.2 C 476.8 683.4 477.3 684.3 478.1 683.8 C 478.2 684.0 477.6 684.3 478.2 684.5 C 478.2 683.7 480.6 684.4 478.7 683.3 C 479.8 683.6 480.2 683.0 479.4 682.8 C 481.2 683.3 480.7 682.8 481.4 682.9 C 482.1 683.0 481.0 683.0 481.3 683.3 C 480.6 683.1 480.7 683.3 480.2 683.0 C 480.2 683.2 480.1 683.2 479.9 683.3 C 480.7 683.2 481.4 683.8 480.8 684.1 C 480.5 683.9 480.9 683.7 480.4 683.6 C 480.5 684.0 479.9 683.4 479.8 683.7 C 480.1 684.1 478.9 684.2 479.9 684.5 C 480.0 684.3 480.0 684.2 480.0 684.0 C 480.3 684.1 480.5 684.1 480.8 684.2 C 481.0 684.5 480.7 684.7 481.0 684.8 C 481.4 684.9 481.6 684.9 481.8 684.8 C 481.3 684.6 480.7 684.2 481.6 684.4 C 481.1 684.9 482.8 684.8 482.0 685.0 C 483.0 685.4 483.6 685.0 483.6 685.4 C 484.1 685.5 483.8 685.1 484.4 685.3 C 485.3 685.8 485.3 685.4 486.5 685.9 C 486.7 685.5 486.6 686.1 487.0 686.2 C 487.0 686.0 487.1 685.9 487.1 685.7 C 487.5 686.1 488.5 686.5 489.6 686.5 C 489.8 686.7 489.6 686.9 490.3 687.0 C 491.1 686.8 491.8 687.5 492.8 687.4 C 492.8 687.6 493.4 687.8 493.8 687.8 C 493.9 688.0 493.3 688.2 493.9 688.4 C 494.3 688.2 493.7 687.9 494.5 688.0 C 494.3 688.3 495.3 688.0 495.2 688.4 C 494.9 688.4 494.6 688.4 494.4 688.4 C 494.7 688.5 494.5 688.7 494.8 688.8 C 494.9 688.4 495.3 688.9 495.5 689.0 C 495.5 688.9 495.7 688.8 495.9 688.7 C 496.3 688.9 496.6 689.0 496.8 689.0 C 497.3 689.3 496.5 689.1 497.0 689.4 C 497.5 688.7 497.7 689.7 498.9 689.7 C 499.1 690.0 499.5 690.3 500.1 690.6 C 500.3 690.4 499.5 690.2 499.6 690.1 C 500.5 690.5 499.5 689.8 500.1 690.1 C 501.5 690.8 501.6 690.8 503.8 692.2 C 503.9 692.0 505.8 692.7 505.7 692.8 C 505.2 692.6 506.4 693.6 507.1 694.0 C 507.5 693.7 508.8 693.8 509.0 693.7 C 509.1 694.0 509.0 694.0 508.9 694.5 C 509.9 695.3 510.7 695.2 511.1 696.1 C 511.2 695.9 511.7 696.1 512.1 696.3 C 511.9 696.5 511.6 696.4 511.2 696.4 C 511.8 696.8 511.8 696.9 512.2 697.3 C 513.2 696.9 513.2 698.3 514.1 697.9 C 514.8 698.5 514.4 698.6 515.0 699.1 C 515.1 699.0 515.3 698.9 515.5 699.0 C 515.1 698.7 514.6 698.7 514.6 698.2 C 515.6 698.9 513.4 696.1 515.1 697.1 C 515.1 697.3 514.8 697.3 515.1 697.6 C 516.1 698.3 515.7 697.6 515.4 697.3 C 516.0 697.7 516.5 698.3 516.3 697.6 C 517.7 698.7 516.7 698.2 517.0 698.7 C 519.3 700.6 521.7 703.4 522.5 706.8 C 522.9 706.8 523.0 708.7 522.8 709.3 C 523.3 710.2 523.4 711.2 523.0 711.5 C 523.3 711.7 522.7 712.7 523.0 712.8 C 523.0 712.4 523.2 712.1 523.2 712.5 C 522.9 713.9 522.2 715.8 522.1 716.7 C 521.5 717.0 521.2 717.8 521.1 718.5 C 520.9 718.5 521.1 718.0 520.8 718.3 C 520.9 718.5 520.3 719.8 520.0 719.9 C 520.2 719.6 520.2 719.0 519.8 719.5 C 520.0 719.6 519.5 720.1 519.8 720.1 C 519.1 720.7 518.9 721.3 518.3 721.7 C 518.7 721.2 518.8 720.9 518.7 720.6 C 518.5 721.1 518.3 721.5 517.8 721.6 C 518.2 721.9 517.4 722.2 516.9 723.0 C 516.6 723.1 516.4 723.1 515.8 723.5 C 515.7 723.9 516.9 723.0 516.3 723.6 C 516.2 723.5 515.5 723.9 515.8 724.0 C 514.9 724.5 514.6 725.0 513.7 725.2 C 514.7 724.7 513.8 724.8 513.5 724.9 C 513.3 725.1 513.0 725.2 513.1 725.3 C 513.1 725.4 513.6 725.1 513.7 725.2 C 513.0 725.5 513.1 726.0 512.7 725.9 C 513.0 725.7 512.9 725.6 512.6 725.7 C 512.8 726.2 510.6 727.0 511.2 726.4 C 511.2 726.6 512.0 726.1 512.0 726.0 C 511.7 726.0 510.6 726.7 510.7 726.3 C 511.4 725.9 511.5 726.2 512.2 725.6 C 512.1 725.4 512.6 725.1 512.8 724.8 C 511.6 725.5 511.5 726.0 511.1 725.8 C 510.6 726.1 511.1 726.2 510.2 726.6 C 508.8 727.2 509.7 726.4 509.4 726.5 C 508.2 727.2 508.8 727.4 509.4 727.5 C 508.4 727.9 508.2 728.2 506.9 728.7 C 506.9 728.5 507.0 728.3 507.4 728.1 C 507.5 728.1 508.6 727.8 508.4 727.7 C 508.2 727.3 507.3 727.6 505.9 728.1 C 506.4 728.3 506.4 728.1 505.0 728.6 C 505.4 729.0 504.3 728.8 504.3 729.1 C 504.4 729.2 504.9 729.0 505.4 728.8 C 505.4 729.0 505.3 729.2 504.9 729.4 C 504.5 729.4 504.3 729.7 503.4 729.9 C 503.3 729.6 503.9 729.4 503.9 729.1 C 503.5 729.3 503.4 729.5 502.9 729.7 C 502.4 729.6 502.3 729.2 502.2 728.8 C 502.7 728.5 503.6 728.2 502.8 728.3 C 504.9 727.5 502.9 728.7 503.7 728.5 C 504.4 727.8 504.1 728.5 505.4 727.9 C 505.8 727.7 505.9 727.6 506.0 727.5 C 505.9 727.4 505.1 727.4 505.9 727.1 C 506.1 727.2 506.6 727.1 507.3 726.9 C 507.2 726.8 505.9 727.2 507.2 726.6 C 507.8 726.4 507.4 727.0 508.3 726.6 C 508.2 726.5 508.5 726.3 508.5 726.2 C 507.3 726.9 508.6 725.9 507.7 726.2 C 508.7 725.5 508.1 726.4 508.7 726.0 C 508.7 725.8 509.9 725.6 509.8 725.3 C 509.4 725.6 508.6 726.0 508.5 725.7 C 509.3 725.3 512.4 723.3 511.5 724.4 C 511.8 724.0 513.7 722.2 513.6 722.5 C 513.0 722.9 513.2 723.1 513.2 723.3 C 514.2 722.2 514.9 722.0 515.6 720.8 C 514.5 721.8 515.0 720.6 514.1 721.0 C 513.8 721.3 513.4 721.6 513.4 721.7 C 513.7 721.9 514.1 721.4 514.2 721.1 C 514.4 721.3 514.5 721.5 514.7 721.7 C 513.2 722.5 512.5 723.3 511.7 723.7 C 512.3 723.3 510.2 724.1 510.9 723.6 C 511.4 723.6 512.1 723.1 512.8 722.7 C 512.7 722.7 512.7 722.6 512.6 722.5 C 512.9 722.3 513.3 722.1 513.2 722.0 C 512.5 722.6 511.8 722.6 511.4 723.2 C 511.3 723.1 511.3 723.1 511.3 723.0 C 511.1 723.1 511.0 723.2 511.0 723.1 C 511.3 722.9 511.7 722.7 511.7 722.5 C 511.0 722.9 510.7 722.7 510.0 723.1 C 510.0 722.7 508.8 722.9 509.8 722.2 C 510.1 722.4 510.7 722.1 510.8 722.3 C 511.2 722.2 511.7 721.7 511.9 721.4 C 511.5 721.4 510.9 721.7 510.7 721.5 C 511.1 721.2 511.4 720.8 511.8 720.9 C 511.0 721.6 512.5 720.7 513.0 720.8 C 512.8 720.7 512.5 720.8 512.3 720.8 C 513.0 720.2 513.4 720.2 513.2 719.8 C 513.8 719.1 513.9 719.5 514.4 719.1 C 513.8 719.1 514.5 718.7 514.0 718.7 C 514.7 717.9 514.4 718.7 514.7 718.5 C 514.9 718.2 514.8 718.1 515.0 717.9 C 515.5 717.7 516.0 717.1 516.4 717.2 C 516.6 716.9 516.7 716.9 516.9 716.6 C 516.9 716.5 516.8 716.3 516.9 716.1 C 517.0 716.2 517.2 716.0 517.2 715.9 C 516.3 716.5 516.4 716.2 515.5 716.8 C 515.6 716.9 515.5 717.1 515.8 717.0 C 515.4 717.6 515.1 717.6 514.6 718.1 C 514.4 718.0 514.0 717.8 513.8 718.4 C 513.7 718.1 513.5 718.1 513.6 717.9 C 513.9 717.8 514.3 717.6 514.7 717.3 C 514.6 717.2 514.5 717.2 514.6 717.0 C 514.9 717.0 515.1 716.8 515.2 716.5 C 515.3 716.6 515.3 716.7 515.3 716.8 C 515.9 716.2 515.4 716.2 515.9 715.7 C 515.7 715.7 515.5 716.1 515.5 715.7 C 515.8 715.1 516.0 715.1 516.2 714.9 C 516.1 714.9 516.0 714.8 516.1 714.7 C 516.4 714.5 516.2 715.8 516.9 715.3 C 516.6 715.1 517.0 714.6 517.3 714.6 C 517.4 714.9 516.9 715.1 517.1 715.2 C 517.7 714.1 517.6 715.4 518.2 714.2 C 518.0 714.1 517.9 714.1 517.8 714.1 C 517.7 714.6 517.4 714.5 517.1 714.3 C 517.0 714.7 516.5 714.7 516.5 715.1 C 516.1 714.7 516.7 714.8 516.9 714.4 C 516.6 714.3 516.4 714.6 516.2 714.6 C 516.8 713.8 516.5 713.5 517.1 712.8 C 516.7 712.9 517.1 712.3 516.9 712.3 C 516.8 713.0 516.0 712.5 515.9 712.6 C 515.9 713.0 516.5 713.0 516.5 713.3 C 516.2 713.4 516.1 713.2 515.7 713.1 C 515.9 712.7 515.8 712.8 515.7 712.5 C 516.0 712.3 516.6 712.1 516.8 712.5 C 516.7 712.5 516.6 711.9 516.9 711.9 C 516.8 712.4 517.0 711.9 517.1 712.2 C 517.4 711.8 517.0 711.1 517.3 710.5 C 517.1 710.6 517.0 710.4 516.8 710.5 C 517.2 710.9 516.5 711.0 516.5 711.5 C 516.5 711.3 516.3 711.4 516.2 711.5 C 516.4 711.1 516.1 710.9 516.3 710.5 C 516.3 710.5 516.1 710.5 516.0 710.5 C 516.2 710.0 516.1 710.1 515.8 709.7 C 515.9 709.5 516.5 709.6 516.8 709.6 C 516.6 709.4 516.5 708.6 516.3 709.2 C 516.1 708.7 516.6 708.7 516.4 708.2 C 516.1 708.3 516.3 708.7 515.8 708.7 C 515.6 708.3 516.1 708.4 515.7 708.1 C 515.9 708.0 516.1 707.9 515.9 707.5 C 515.9 707.9 515.8 707.5 515.6 707.5 C 515.6 707.7 515.7 707.9 515.6 708.0 C 515.4 707.3 515.3 707.1 514.8 706.6 C 515.2 706.6 515.1 706.2 515.5 706.5 C 515.1 706.2 515.1 705.5 514.7 705.4 C 514.8 705.7 515.1 706.1 515.1 706.4 C 514.2 705.2 513.3 704.8 512.5 703.4 C 512.7 703.5 513.0 703.8 513.1 703.8 C 513.0 703.6 512.7 703.5 512.8 703.4 C 513.2 703.8 513.6 704.2 513.8 704.3 C 514.0 704.7 513.5 704.3 513.7 704.7 C 513.9 704.6 514.4 705.4 514.4 704.9 C 513.7 704.5 513.4 703.7 513.5 703.1 C 512.5 702.8 513.1 703.4 512.0 703.2 C 512.2 703.1 512.1 702.9 511.9 702.6 C 511.8 703.2 511.1 702.2 511.0 702.1 C 511.4 702.3 512.8 703.2 512.4 702.4 C 512.2 703.2 511.1 700.9 511.0 701.7 C 510.1 701.0 510.7 700.9 510.0 700.8 C 510.0 700.7 510.2 700.6 509.9 700.4 C 509.6 700.2 509.5 700.2 509.3 700.2 C 510.6 701.4 510.0 701.4 510.7 702.0 C 510.6 701.9 510.4 701.9 510.4 701.9 C 510.4 702.0 510.3 702.0 510.2 701.9 C 510.4 701.5 509.5 701.4 509.4 701.1 C 509.7 701.2 510.0 701.4 510.0 701.2 C 508.9 700.5 509.3 700.3 507.7 699.0 C 508.1 699.5 507.4 699.1 506.7 698.7 C 505.8 698.2 506.4 697.9 505.2 697.3 C 505.0 698.1 504.0 696.5 502.3 696.2 C 502.6 695.9 501.0 695.0 500.6 695.2 C 500.7 695.1 500.2 694.9 499.9 694.8 C 499.9 694.6 500.3 694.7 500.0 694.5 C 499.7 694.4 499.8 694.8 499.4 694.7 C 499.0 694.4 499.2 694.1 498.5 693.9 C 498.4 694.1 498.8 694.2 498.4 694.2 C 497.8 693.9 497.3 693.7 497.7 694.1 C 496.7 693.8 497.4 693.5 496.5 693.2 C 496.7 693.4 496.7 693.5 496.2 693.4 C 496.0 693.0 496.0 692.9 495.9 692.7 C 495.6 692.9 495.7 692.9 495.0 692.6 C 494.9 692.7 494.9 692.8 494.8 693.0 C 494.5 692.8 494.0 692.7 494.0 692.5 C 494.6 692.8 494.5 692.5 494.8 692.5 C 494.2 692.2 493.1 691.5 493.9 692.2 C 492.9 692.0 493.5 691.8 492.8 691.6 C 493.1 692.1 492.8 691.6 492.0 691.4 C 492.0 691.9 491.5 691.3 491.1 691.2 C 491.1 691.5 490.9 691.6 490.5 691.5 C 490.6 691.3 490.3 691.2 489.8 691.1 C 489.8 691.2 490.7 691.7 489.7 691.3 C 489.3 691.1 489.4 690.7 488.7 690.5 C 488.6 690.2 489.4 690.5 489.3 690.2 C 488.6 690.3 488.5 690.0 487.6 689.7 C 487.8 690.3 485.6 689.9 486.6 690.4 C 486.3 690.3 485.8 690.6 485.6 690.3 C 485.9 690.3 485.4 689.9 485.5 689.8 C 485.0 689.8 484.0 689.3 483.9 689.5 C 484.9 689.7 484.8 690.0 485.1 690.2 C 483.7 690.0 482.5 689.6 482.6 689.3 C 482.6 689.4 482.4 689.4 482.4 689.5 C 482.9 689.5 483.1 690.1 482.5 690.0 C 482.7 689.7 482.3 689.5 481.9 689.3 C 481.8 689.6 480.0 688.8 480.3 689.3 C 481.1 689.2 481.5 689.8 480.9 689.8 C 480.5 689.5 479.5 689.1 479.8 688.9 C 479.5 688.9 479.3 689.0 479.0 689.0 C 478.7 689.2 479.3 689.3 479.1 689.6 C 478.8 689.5 478.2 689.4 478.1 689.2 C 479.2 689.4 477.6 689.0 478.7 689.0 C 478.1 688.8 478.0 688.6 477.5 688.5 C 477.4 688.6 477.2 688.6 477.2 688.6 C 477.7 688.6 478.1 688.8 477.9 689.1 C 476.9 689.0 477.2 688.6 476.4 688.5 C 476.1 688.7 475.0 688.9 474.5 688.6 C 475.5 688.8 474.4 688.4 475.1 688.4 C 476.0 688.7 476.3 688.5 476.7 688.3 C 476.3 688.0 475.5 687.7 475.4 688.1 C 475.9 688.2 475.9 688.1 476.2 688.1 C 476.1 688.2 476.0 688.4 475.6 688.4 C 475.2 688.1 474.2 688.1 474.9 687.8 C 474.2 687.9 473.5 687.4 472.8 687.6 C 473.5 687.7 474.1 687.9 474.3 688.2 C 473.6 688.2 473.0 687.8 472.9 688.0 C 473.0 688.3 474.0 688.4 474.2 688.6 C 473.3 688.8 472.2 687.7 473.1 688.5 C 472.7 688.4 472.0 688.3 471.8 688.1 C 472.4 688.2 471.9 687.7 471.6 687.6 C 471.1 687.5 470.7 687.5 470.5 687.6 C 471.3 687.6 471.8 688.1 471.3 688.0 C 471.2 687.9 471.0 688.0 470.8 688.1 C 470.7 687.9 469.9 687.9 469.7 687.7 C 469.8 687.9 470.1 687.9 470.2 688.1 C 469.7 688.1 468.9 688.4 468.6 688.0 C 468.9 688.0 469.4 688.1 469.4 688.0 C 468.1 687.3 467.7 686.9 466.0 686.5 C 466.2 686.5 466.4 686.5 466.3 686.4 C 465.3 686.2 464.6 686.0 464.7 685.8 C 464.1 685.8 463.7 685.9 463.3 686.0 C 464.0 686.3 464.3 686.0 464.7 686.3 C 464.4 686.3 465.2 686.9 465.4 687.2 C 466.6 687.0 466.6 687.5 467.8 687.5 C 467.5 687.7 468.7 687.6 468.3 687.9 C 467.3 687.3 466.2 687.5 464.6 687.2 C 464.8 686.9 465.0 686.8 464.4 686.6 C 463.4 686.3 463.8 686.8 463.0 686.6 C 462.7 686.3 463.2 686.3 462.8 686.2 C 462.5 686.3 461.7 686.2 461.4 685.9 C 462.5 686.0 461.2 685.6 462.0 685.5 C 461.6 685.5 461.4 685.4 461.2 685.3 C 462.2 685.8 460.0 685.7 460.8 686.0 C 459.3 686.1 460.8 685.2 459.5 685.2 C 460.1 685.5 459.3 685.6 458.4 685.4 C 458.2 685.1 457.3 685.0 456.5 684.8 C 456.9 685.1 457.2 685.1 456.5 685.2 C 456.9 685.4 457.5 685.4 457.9 685.3 C 457.9 685.4 458.0 685.5 458.1 685.6 C 457.2 685.6 457.6 685.8 457.3 685.9 C 457.0 685.7 456.4 685.7 456.2 685.5 C 456.2 685.6 456.0 685.6 455.9 685.7 C 457.1 685.8 455.7 686.1 456.4 686.2 C 456.9 686.2 456.6 685.9 457.3 686.0 C 457.9 686.4 456.8 686.3 456.4 686.6 C 456.9 686.9 457.6 686.5 457.8 686.9 C 457.1 687.2 456.0 686.9 455.1 686.8 C 455.1 687.2 453.5 686.6 453.4 687.1 C 453.3 687.0 453.1 686.9 452.9 686.8 C 452.6 687.1 452.3 686.7 452.1 686.7 C 452.0 686.8 452.1 687.0 452.3 687.1 C 451.2 686.9 450.9 686.9 449.6 687.0 C 449.4 686.8 449.2 686.7 449.1 686.4 C 449.4 686.4 449.7 686.3 449.9 686.2 C 448.1 686.2 449.3 687.0 448.0 686.5 C 448.1 686.7 448.9 687.0 448.3 687.1 C 447.1 686.7 445.6 687.1 445.6 686.2 C 444.6 686.0 443.9 686.6 443.4 686.2 C 443.1 686.2 443.0 686.3 442.9 686.4 C 443.2 686.6 443.6 686.7 444.0 686.9 C 444.6 686.7 444.8 687.0 444.3 686.6 C 445.1 686.5 445.4 686.7 445.9 686.8 C 444.6 687.1 443.5 686.8 443.5 687.3 C 443.1 687.1 442.7 686.9 442.4 686.7 C 442.3 687.0 440.9 687.1 440.8 686.8 C 441.7 686.9 442.7 686.4 441.8 686.3 C 439.6 686.6 438.3 686.1 436.3 686.6 C 436.3 686.5 436.4 686.2 436.1 686.2 C 436.1 686.4 436.0 686.6 435.8 686.7 C 435.2 686.7 434.8 686.6 434.0 686.7 C 434.0 686.4 433.9 686.2 433.4 686.2 C 433.2 686.5 432.5 687.2 432.0 687.2 C 432.5 687.1 431.8 686.8 431.5 686.8 C 431.8 687.2 429.2 686.8 430.0 687.1 C 428.9 687.3 428.5 687.2 428.4 687.0 C 428.1 687.2 427.8 687.3 427.5 687.4 C 427.2 687.0 425.6 687.6 425.3 687.5 C 425.9 687.5 425.9 687.0 425.5 687.1 C 425.2 687.4 423.7 688.0 423.4 688.0 C 423.5 687.8 423.5 687.5 424.3 687.3 C 423.0 687.5 423.1 687.9 422.7 688.3 C 422.7 687.9 422.2 688.3 422.0 688.5 C 421.6 688.3 422.0 688.3 422.0 688.1 C 421.5 688.1 421.3 688.0 420.8 688.1 C 421.0 688.4 420.3 688.4 420.1 688.4 C 420.1 688.6 419.8 688.8 419.3 689.0 C 419.9 688.3 416.4 689.2 417.3 689.4 C 416.7 689.8 416.5 689.2 415.7 689.5 C 415.6 689.7 415.1 689.8 415.6 689.9 C 414.9 690.1 415.0 689.7 413.8 690.2 C 414.5 690.4 412.5 690.6 412.9 691.0 C 412.2 690.6 411.5 691.7 410.4 691.7 C 410.4 691.8 410.1 691.9 410.1 692.0 C 410.0 692.2 411.4 691.7 410.6 692.1 C 409.5 692.3 410.0 692.0 409.8 691.9 C 407.2 693.2 404.5 694.6 402.7 695.9 C 403.0 695.9 403.0 696.0 402.7 696.3 C 401.8 696.2 400.3 698.1 400.3 698.5 C 399.9 698.4 399.6 699.4 399.3 699.5 C 399.4 699.3 399.4 698.8 399.1 699.2 C 399.3 699.6 398.9 699.8 399.0 700.2 C 398.5 700.2 398.5 701.4 398.1 700.7 C 398.0 700.9 397.9 701.0 397.8 701.1 C 398.2 701.2 398.0 701.4 398.3 701.1 C 397.7 701.9 398.0 702.2 397.7 702.9 C 397.8 703.0 398.0 702.5 398.0 702.9 C 398.0 702.9 397.9 702.9 397.8 702.9 C 397.8 703.1 398.0 703.1 397.8 703.2 C 397.7 703.1 397.7 702.9 397.4 702.8 C 397.4 703.2 397.0 703.4 397.3 703.6 C 397.4 703.1 397.9 703.4 397.6 703.7 C 397.4 703.5 397.6 704.9 397.9 705.3 C 397.6 705.6 397.8 704.8 397.5 704.9 C 397.7 705.7 397.6 705.7 398.0 705.7 C 398.0 706.2 397.9 706.4 398.3 706.9 C 398.3 707.3 398.0 706.8 398.1 707.2 C 398.2 707.4 398.4 707.4 398.6 707.7 C 398.4 708.8 400.7 710.3 401.0 712.0 C 400.8 711.4 401.4 711.8 401.9 712.4 C 401.9 712.5 401.7 712.6 401.9 712.8 C 402.0 712.6 402.3 712.7 402.7 713.1 C 402.6 713.2 402.4 713.3 402.7 713.5 C 403.1 713.3 403.4 714.1 403.8 714.2 C 403.7 714.6 402.9 713.7 402.7 713.8 C 403.6 714.9 404.1 714.7 404.9 715.5 C 404.4 715.2 405.1 716.0 405.2 716.2 C 405.2 715.8 406.0 716.2 405.6 715.6 C 405.9 715.9 406.5 716.2 406.5 716.4 C 406.3 716.3 406.0 716.0 405.9 716.1 C 406.4 716.4 406.9 717.1 407.3 717.0 C 406.9 716.7 406.8 716.5 406.9 716.4 C 407.1 716.4 407.3 716.4 407.6 716.5 C 406.4 716.7 408.9 717.8 409.1 717.6 C 409.1 718.2 409.3 718.3 409.1 718.4 C 410.1 719.0 410.1 718.7 410.8 718.9 C 410.5 719.1 410.1 719.3 411.1 719.9 C 411.0 719.5 412.3 720.2 412.1 719.6 C 414.9 720.8 414.4 721.0 415.5 721.5 C 415.5 721.4 415.2 721.2 415.5 721.3 C 416.0 721.6 416.4 721.9 416.7 722.2 C 417.0 722.1 416.7 721.9 417.0 721.9 C 417.7 722.5 417.4 722.8 418.0 723.3 C 419.0 723.4 418.6 723.4 419.3 723.3 C 419.0 723.2 418.8 723.0 419.1 723.0 C 419.6 723.5 419.7 723.9 419.8 724.0 C 419.4 723.9 419.1 723.8 418.9 723.6 C 418.7 723.8 418.2 723.5 418.6 723.9 C 418.0 723.6 417.4 723.3 416.6 723.0 C 416.7 723.4 415.8 722.8 416.0 723.2 C 416.9 723.5 417.1 723.8 418.0 724.1 C 417.9 723.7 418.7 724.2 418.9 724.4 C 419.0 724.2 419.6 724.5 419.5 724.1 C 420.2 724.3 420.1 724.6 420.8 724.7 C 420.9 724.9 420.7 725.0 421.0 725.1 C 421.3 724.9 421.4 725.4 421.7 725.4 C 421.6 725.1 422.6 725.6 422.7 725.4 C 422.5 725.3 422.1 725.2 422.0 725.0 C 423.2 725.5 422.4 724.9 422.2 724.6 C 422.2 724.7 421.7 725.0 421.6 724.7 C 422.7 724.8 420.5 723.7 421.3 724.2 C 422.0 724.5 422.0 724.2 422.7 724.5 C 423.4 725.3 422.3 725.3 423.1 726.0 C 423.7 725.9 424.0 726.1 424.2 725.8 C 424.3 726.0 424.4 726.1 424.6 726.3 C 424.8 726.2 423.9 725.7 424.7 725.9 C 425.0 726.1 424.5 726.3 425.3 726.5 C 425.7 726.4 424.4 725.9 425.2 726.0 C 425.8 726.7 425.0 725.9 425.9 726.1 C 426.0 726.2 426.1 726.2 426.4 726.3 C 426.4 726.5 426.2 726.6 426.5 726.8 C 426.9 726.3 426.8 727.1 427.5 727.1 C 428.0 726.9 426.9 726.8 427.2 726.5 C 427.8 727.1 428.4 726.8 428.6 726.9 C 428.0 727.0 429.5 727.4 429.5 727.7 C 429.4 727.3 429.7 727.5 430.7 727.4 C 430.6 728.0 431.7 727.9 431.8 728.3 C 432.0 728.2 432.3 728.2 432.4 728.1 C 432.1 728.0 431.8 727.9 432.0 727.8 C 432.2 727.8 432.5 727.9 432.7 727.9 C 433.1 728.3 431.8 728.6 433.6 729.0 C 433.5 728.5 434.2 728.6 434.7 728.6 C 434.8 728.2 434.1 728.4 434.0 728.2 C 434.7 728.1 435.2 728.5 435.5 728.8 C 436.6 728.8 437.8 729.2 439.3 729.4 C 439.6 729.7 438.0 729.4 438.9 729.7 C 439.4 729.8 439.2 729.5 439.8 729.7 C 439.0 730.9 443.8 730.6 444.0 731.2 C 444.2 730.9 445.5 731.3 445.4 730.9 C 444.5 731.0 444.0 730.5 443.6 730.3 C 442.7 730.3 444.3 730.7 443.5 730.7 C 443.4 730.5 442.3 730.5 442.5 730.2 C 443.6 730.4 441.9 729.8 442.8 729.7 C 443.9 729.9 446.1 729.9 445.5 730.2 C 445.5 730.1 445.1 730.0 445.0 730.1 C 446.2 730.4 447.0 730.3 447.5 730.1 C 448.0 730.4 450.3 730.2 449.7 730.4 C 449.8 730.7 448.4 730.1 448.6 730.4 C 450.8 730.8 450.9 730.6 452.4 730.9 C 451.9 730.5 454.0 730.6 453.8 730.7 C 453.8 731.0 454.2 731.2 455.2 731.0 C 455.0 731.3 455.5 731.4 456.0 731.5 C 456.2 731.3 455.6 731.2 455.7 731.0 C 456.2 731.1 456.7 731.1 457.1 731.1 C 457.1 731.2 457.1 731.4 457.4 731.4 C 457.9 731.3 459.8 731.1 459.6 731.2 C 458.8 731.6 460.9 731.6 459.6 731.8 C 459.9 731.9 460.0 732.0 460.4 732.0 C 460.4 731.8 460.4 731.7 460.4 731.6 C 461.5 731.6 460.9 732.1 461.8 732.1 C 461.9 732.0 462.3 732.0 462.4 731.8 C 462.0 731.8 462.0 732.0 461.5 731.9 C 462.1 731.4 460.6 731.6 460.7 731.3 C 461.7 731.3 461.7 731.6 462.1 731.7 C 463.3 731.6 462.7 731.7 464.0 731.8 C 464.0 731.7 463.7 731.6 463.8 731.5 C 465.3 731.6 465.2 732.2 466.2 732.0 C 466.0 732.0 465.0 732.3 465.7 732.3 C 466.4 732.2 466.6 731.9 467.6 731.8 C 467.7 731.9 467.6 732.1 467.9 732.1 C 468.3 732.0 468.3 731.7 468.7 731.6 C 468.8 731.8 469.3 731.7 469.5 731.6 C 469.9 731.8 469.4 731.9 469.8 732.0 C 470.6 732.0 471.0 731.2 471.7 731.3 C 471.7 731.7 472.4 731.6 473.1 731.5 C 473.2 731.9 474.6 731.7 475.5 731.8 C 475.3 731.5 476.2 731.5 476.0 731.2 C 475.6 731.3 475.3 731.2 475.2 731.1 C 476.3 731.0 476.6 731.6 477.4 731.0 C 477.8 731.2 478.3 731.4 479.0 731.4 C 479.0 731.2 477.7 731.2 478.4 731.0 C 478.5 731.2 478.7 731.1 478.9 731.0 C 478.9 731.3 479.4 731.4 479.8 731.5 C 480.4 731.2 481.7 731.5 481.1 731.2 C 482.0 731.0 481.5 731.6 482.2 731.6 C 481.8 731.2 483.0 731.0 482.4 730.9 C 483.4 730.7 483.3 731.2 483.0 731.4 C 483.9 731.4 484.0 731.1 484.5 731.2 C 484.0 730.9 485.4 730.6 484.7 730.9 C 484.5 731.2 485.6 730.9 485.8 731.0 C 485.4 730.8 485.9 730.8 485.2 730.7 C 485.9 730.5 486.9 730.3 487.5 730.6 C 488.3 730.2 489.1 730.1 488.8 730.5 C 489.6 730.3 489.3 730.3 490.0 730.2 C 490.0 730.1 489.8 730.2 489.7 730.1 C 490.8 729.9 490.6 730.1 492.0 729.9 C 491.9 730.3 492.8 730.1 493.1 730.2 C 492.5 730.3 492.0 730.3 491.6 730.4 C 491.5 730.5 492.0 730.5 491.6 730.6 C 491.6 730.5 491.3 730.5 491.1 730.5 C 492.1 730.7 490.1 731.3 490.7 730.8 C 490.7 730.9 490.7 730.9 490.9 730.9 C 490.7 730.6 490.7 730.7 490.8 730.4 C 490.4 730.6 490.0 730.3 489.8 730.6 C 489.9 730.7 490.3 730.6 490.4 730.7 C 489.3 731.1 490.0 730.4 489.1 730.6 C 489.0 731.0 489.4 731.0 489.7 731.1 C 488.9 731.3 488.1 731.4 487.9 731.2 C 487.1 731.5 488.0 731.5 487.5 731.7 C 487.2 731.6 487.2 731.4 486.6 731.4 C 486.1 731.6 487.0 731.6 486.4 731.7 C 485.8 731.6 486.8 731.3 485.8 731.3 C 486.1 731.8 485.0 731.4 485.1 731.6 C 485.6 731.5 485.7 731.9 485.4 731.7 C 484.1 731.5 483.3 732.7 482.0 732.1 C 482.0 732.2 481.8 732.3 481.7 732.3 C 482.7 732.5 484.1 732.3 484.4 732.7 C 485.2 732.5 485.0 732.3 485.2 732.1 C 486.1 732.4 486.0 732.5 485.6 733.0 C 484.1 733.3 483.4 733.1 482.4 733.1 C 481.9 733.4 482.4 733.2 482.7 733.4 C 479.5 733.4 482.0 734.0 480.8 734.0 C 480.9 733.9 480.6 733.8 480.3 733.8 C 480.3 733.9 479.8 733.9 479.8 734.0 C 480.0 734.0 480.1 734.1 480.0 734.2 C 479.3 734.4 479.5 734.0 479.5 733.9 C 480.1 733.9 480.5 733.8 480.5 733.6 C 479.8 733.8 479.1 733.6 478.7 733.9 C 477.9 733.6 479.0 733.0 478.6 732.7 C 478.7 732.5 478.1 733.5 477.6 733.7 C 476.6 733.8 476.6 734.1 475.7 734.2 C 475.4 733.9 476.6 734.0 476.5 733.7 C 476.2 733.7 476.1 733.6 475.9 733.6 C 475.3 733.7 475.3 734.0 474.8 734.1 C 474.6 733.8 474.4 734.0 474.0 734.1 C 473.4 734.0 474.4 733.9 473.7 733.9 C 473.1 733.8 472.6 734.2 472.4 734.2 C 472.3 734.1 472.4 733.9 472.1 733.9 C 471.3 734.2 471.1 734.2 472.1 734.3 C 471.2 734.3 470.9 734.5 471.0 734.8 C 472.3 734.8 472.6 734.7 473.2 735.1 C 473.5 734.7 473.9 735.0 474.3 735.0 C 474.0 734.5 474.9 735.0 475.2 734.7 C 474.8 734.7 474.5 734.6 474.3 734.5 C 475.7 734.5 475.7 734.5 476.8 734.0 C 476.8 734.1 476.9 734.2 477.0 734.3 C 476.7 734.4 475.7 734.4 475.7 734.7 C 476.5 735.0 476.7 734.4 477.6 734.7 C 478.0 734.5 476.9 734.4 477.6 734.3 C 478.0 734.5 478.4 734.6 479.0 734.7 C 479.6 734.6 479.9 734.4 480.3 734.3 C 480.4 734.4 480.4 734.5 480.9 734.4 C 480.8 734.3 480.4 734.3 480.9 734.1 C 482.3 734.4 483.3 734.6 484.6 734.2 C 484.1 734.2 483.0 734.0 483.5 733.9 C 484.2 734.1 485.0 733.6 485.7 733.8 C 485.9 733.9 484.9 733.8 485.2 734.2 C 485.8 734.1 486.2 734.1 486.5 734.2 C 486.5 734.0 487.2 733.9 487.0 733.7 C 486.5 733.7 486.4 734.1 486.2 734.0 C 486.5 733.1 488.2 734.0 489.1 733.9 C 489.7 733.6 488.6 733.6 489.3 733.4 C 489.7 733.2 490.1 733.9 489.4 734.1 C 488.9 734.0 488.8 734.5 488.6 734.1 C 488.4 734.2 488.1 734.2 488.1 734.3 C 488.5 734.3 488.4 734.5 488.7 734.5 C 488.2 734.6 488.2 735.2 487.7 734.9 C 488.0 734.8 488.1 734.7 488.2 734.6 C 486.8 734.9 486.3 734.7 485.5 734.7 C 486.0 734.8 485.5 734.8 485.6 735.1 C 486.2 734.9 487.3 735.0 486.6 735.2 C 486.1 734.8 485.9 735.9 485.3 735.5 C 485.7 735.5 485.6 735.3 485.8 735.2 C 485.3 735.2 485.3 735.0 484.7 735.0 C 483.0 735.7 481.6 735.0 478.8 735.9 C 477.8 736.0 479.7 735.7 479.6 735.5 C 479.3 735.5 479.3 735.4 479.1 735.4 C 479.1 735.8 478.5 735.4 478.3 735.8 C 478.3 735.5 477.0 735.9 476.3 735.6 C 476.3 735.7 476.4 735.9 476.0 735.9 C 474.0 735.6 470.3 736.3 468.8 736.0 C 468.8 736.3 468.1 736.3 467.9 736.4 C 466.9 736.4 467.4 736.1 465.9 736.4 C 465.2 736.5 466.1 736.2 466.2 736.1 C 464.1 736.3 462.2 735.9 460.8 736.2 C 460.1 736.3 460.8 736.0 459.4 735.8 C 459.4 736.3 457.2 735.5 456.8 736.0 C 456.0 736.0 454.4 735.3 455.1 735.8 C 453.9 735.7 454.7 735.4 454.3 735.3 C 453.5 735.3 454.5 736.1 453.7 736.1 C 453.8 735.8 453.1 735.8 452.6 735.5 C 453.2 735.6 453.6 735.6 453.7 735.4 C 453.1 735.5 453.2 735.3 452.3 735.3 C 451.6 735.4 449.7 735.5 449.2 735.0 C 449.1 735.1 449.3 735.2 449.4 735.3 C 448.9 735.3 448.2 734.8 448.3 735.3 C 447.0 735.1 446.5 734.7 445.7 734.9 C 445.2 735.0 446.0 734.7 444.4 734.5 C 444.3 734.7 441.5 734.3 440.7 733.9 C 440.6 734.3 440.5 733.9 440.2 733.8 C 440.1 733.9 440.2 734.1 439.9 734.1 C 439.8 733.9 439.6 733.9 439.3 734.0 C 439.6 733.5 438.3 733.9 438.2 733.6 C 438.5 733.6 438.5 733.3 438.3 733.3 C 438.2 733.6 437.1 732.9 437.2 733.2 C 437.4 733.3 438.2 733.4 437.9 733.6 C 436.8 733.5 437.3 733.2 436.6 733.1 C 436.7 733.2 437.1 733.4 436.6 733.4 C 435.8 733.1 436.5 733.3 436.1 733.0 C 435.7 732.9 434.9 733.0 434.7 733.0 C 434.7 733.0 434.5 732.8 434.4 732.7 C 433.1 732.3 429.9 731.9 428.6 731.2 C 428.5 731.3 428.2 731.2 428.3 731.5 C 427.5 731.1 427.6 731.2 426.8 730.9 C 426.7 731.0 426.7 731.1 426.7 731.2 C 425.6 731.1 426.7 730.8 426.0 730.6 C 425.7 731.3 425.7 730.3 425.0 730.2 C 424.9 730.3 424.6 730.2 424.6 730.5 C 423.7 730.2 423.9 729.7 423.0 729.7 C 423.2 729.8 423.0 730.7 422.8 731.0 C 422.7 730.8 422.5 730.6 422.2 730.4 C 422.7 730.3 422.8 729.1 421.5 729.1 C 422.2 729.2 422.4 729.4 422.2 729.6 C 421.3 729.3 421.0 729.0 420.3 728.8 C 420.0 729.0 420.6 729.2 420.3 729.5 C 420.1 729.5 420.0 729.5 420.0 729.6 C 419.2 729.3 419.2 729.1 418.3 728.9 C 418.4 728.7 418.5 728.8 418.8 729.0 C 418.9 728.8 418.9 728.5 419.5 728.7 C 419.5 728.9 419.1 729.1 419.8 729.3 C 419.9 729.1 419.9 728.9 420.0 728.8 C 419.4 728.6 418.3 727.9 418.1 728.0 C 418.3 728.2 418.7 728.4 418.4 728.6 C 417.5 728.2 417.4 727.8 416.7 727.4 C 415.4 727.0 413.2 726.0 413.3 726.5 C 412.6 726.1 412.9 726.2 412.2 725.8 C 412.3 726.2 411.4 725.6 411.4 725.9 C 412.2 726.2 412.0 726.1 412.8 726.4 C 412.7 726.6 412.5 726.6 412.2 726.6 C 412.2 726.4 411.9 726.2 411.4 726.0 C 411.4 726.1 411.8 726.6 411.2 726.3 C 411.2 726.3 411.1 726.2 410.8 726.1 C 410.9 725.9 411.0 725.8 411.0 725.6 C 411.4 725.7 411.7 725.8 412.0 725.7 C 411.8 725.6 411.8 725.5 411.6 725.4 C 411.4 725.5 410.4 724.9 410.2 725.0 C 410.8 725.3 411.1 725.6 410.5 725.4 C 410.4 725.3 409.5 724.7 409.1 724.7 C 410.2 725.4 409.7 725.2 410.3 725.8 C 408.8 725.2 409.2 724.9 407.5 724.2 C 407.6 724.0 407.7 723.8 408.2 723.9 C 407.5 722.8 405.0 722.0 404.4 721.6 C 404.8 721.9 405.6 721.9 404.9 721.4 C 404.8 721.5 404.3 721.2 404.2 721.2 C 403.6 721.5 404.1 722.2 404.5 722.8 C 403.9 722.4 403.7 722.5 403.2 722.1 C 403.1 721.8 403.9 721.8 403.3 721.3 C 402.9 721.6 402.0 720.5 401.6 720.7 C 402.1 721.0 402.3 721.3 401.8 721.0 C 402.0 720.9 401.0 720.4 401.1 720.2 C 401.9 720.6 402.3 720.5 402.7 720.8 C 402.2 720.4 403.3 720.9 402.4 720.2 C 401.8 720.1 401.4 720.2 400.4 719.4 C 400.1 719.1 400.6 719.1 400.2 718.7 C 400.1 719.0 399.1 718.3 399.9 718.6 C 399.5 718.3 399.4 718.1 399.2 717.9 C 399.5 718.5 397.0 716.8 397.2 717.3 C 397.5 717.0 397.6 716.6 397.6 716.4 C 397.0 716.3 396.7 715.6 395.7 714.5 C 395.5 714.8 395.6 714.4 395.1 713.9 C 394.9 714.0 395.2 714.4 394.9 714.1 C 394.6 713.5 394.6 713.5 394.6 713.3 C 394.3 712.9 394.2 712.5 394.1 712.3 C 394.0 712.3 394.0 712.5 394.0 712.7 C 393.3 710.9 392.5 710.3 392.0 708.8 C 392.1 709.4 392.6 709.4 392.4 708.9 C 392.3 708.6 392.1 708.4 392.0 708.3 C 391.8 708.7 391.9 708.5 391.7 707.8 C 391.4 707.1 391.3 708.1 391.2 707.6 C 391.2 707.0 391.4 707.3 391.4 707.0 C 391.4 706.7 391.3 706.5 391.3 706.2 C 391.2 706.7 391.0 706.2 390.8 705.7 C 391.2 706.0 391.2 705.8 391.0 704.9 C 391.2 704.8 391.3 705.3 391.3 704.9 C 391.3 704.7 390.9 703.9 391.2 703.3 C 391.2 703.5 391.3 703.6 391.4 703.6 C 391.2 702.9 391.7 702.4 391.9 701.8 C 391.5 702.4 391.3 702.0 391.1 702.2 C 391.4 701.6 391.2 700.8 391.7 700.5 C 391.4 701.3 392.3 700.6 392.4 700.1 C 392.2 699.9 392.0 700.8 391.7 700.5 C 391.6 700.1 392.2 699.6 392.0 699.2 C 391.8 699.2 391.9 699.6 391.8 699.6 C 391.9 699.2 391.5 699.7 391.6 699.3 C 392.0 699.2 391.7 698.8 391.8 698.5 C 392.0 698.2 392.7 697.8 392.7 697.4 C 392.5 697.4 392.4 697.8 392.3 697.8 C 392.7 696.4 393.3 696.2 393.8 694.9 C 394.0 694.9 394.3 694.7 394.6 694.4 C 394.4 694.3 394.5 694.1 394.7 693.8 C 395.2 693.4 395.7 693.1 396.3 692.6 C 396.4 692.9 396.2 693.2 397.0 692.5 C 397.0 692.4 396.6 692.7 396.9 692.4 C 396.9 692.4 397.1 692.3 397.1 692.1 C 397.1 692.1 397.0 692.0 397.0 692.0 C 396.7 692.2 396.5 692.4 396.3 692.6 C 396.2 692.5 396.1 692.4 395.9 692.5 C 396.7 691.5 397.0 692.0 397.5 691.3 C 397.9 691.5 398.2 691.5 397.8 692.1 C 398.3 691.6 398.6 691.2 398.6 690.8 C 398.0 691.4 398.0 691.0 397.7 691.0 C 398.1 690.6 398.0 690.5 398.2 690.3 C 398.9 690.0 398.0 691.1 399.1 690.4 C 398.0 690.7 399.5 689.6 400.2 689.3 C 400.0 689.3 399.8 689.4 400.0 689.1 C 401.5 687.9 401.9 688.9 402.6 687.8 C 402.7 688.0 403.1 687.7 403.4 687.7 C 402.6 688.3 402.4 688.5 402.1 688.7 C 402.2 688.8 402.4 688.7 402.7 688.6 C 402.6 688.4 402.8 688.2 403.2 688.1 C 403.4 687.8 403.1 687.5 403.7 686.9 C 403.8 687.0 403.8 687.2 404.1 687.0 C 404.3 686.6 404.1 687.6 405.6 686.7 C 405.2 686.8 405.0 686.7 405.0 686.4 C 405.7 685.9 405.6 686.1 406.6 685.6 C 407.2 685.9 406.1 686.4 406.0 686.9 C 406.6 686.5 407.1 685.9 407.9 685.8 C 407.3 685.9 407.7 685.4 408.3 685.0 C 409.0 684.9 408.5 685.5 409.2 685.2 C 409.8 684.9 410.0 684.6 409.4 684.6 C 410.7 684.2 410.3 684.0 411.5 683.6 C 411.6 683.8 411.3 683.9 410.8 684.0 C 410.9 684.1 410.8 684.3 411.3 684.2 C 411.9 683.6 413.6 683.1 414.1 682.7 C 415.3 682.9 416.3 681.9 417.5 681.9 C 417.1 682.3 418.9 681.6 419.5 681.8 C 419.8 681.6 420.7 680.7 420.4 681.1 C 420.6 681.5 421.2 681.2 421.7 681.2 C 421.7 681.1 421.7 681.0 421.7 680.9 C 422.8 680.6 423.1 680.8 423.5 681.0 C 424.9 680.5 426.5 680.7 428.2 680.1 C 428.7 680.4 429.1 680.3 430.1 680.4 C 430.0 680.1 430.9 680.0 431.7 679.9 C 431.4 679.6 432.2 679.6 432.2 679.4 C 431.5 679.5 431.7 679.1 431.3 679.0 C 432.3 679.2 432.7 678.5 433.5 678.8 C 432.5 679.0 432.3 679.4 432.2 679.9 C 433.3 679.7 433.9 679.8 434.1 680.0 C 434.2 679.8 434.1 679.6 433.8 679.5 C 434.2 679.5 434.5 679.5 434.9 679.4 C 435.0 679.6 434.5 679.7 434.9 679.7 C 435.2 679.6 435.5 679.5 435.7 679.4 C 436.1 679.6 435.3 679.6 435.2 679.8 C 436.7 679.8 436.0 679.2 436.8 679.1 C 437.0 679.3 437.0 679.6 437.7 679.6 C 437.9 679.4 438.0 679.1 438.7 679.0 C 439.2 679.1 438.7 679.5 439.3 679.5 C 439.4 679.4 439.6 679.4 439.9 679.5 C 439.8 679.3 440.1 679.2 440.4 679.1 C 440.5 679.3 441.0 679.2 441.2 679.1 C 441.3 679.2 442.2 679.6 442.4 679.3 C 442.4 679.2 441.9 679.3 441.8 679.2 C 442.4 679.2 442.9 679.1 443.2 679.0 C 443.4 679.7 444.4 679.1 445.7 679.5 C 446.5 679.2 445.6 678.9 446.6 678.7 C 447.2 678.9 446.4 679.0 446.6 679.3 C 446.8 679.4 447.7 679.6 447.7 679.3 C 447.7 679.2 447.2 679.2 447.2 679.1 C 447.9 678.9 447.9 679.2 448.3 679.3 C 448.2 679.1 448.7 679.0 448.8 678.8 C 450.9 678.7 450.9 679.2 451.7 679.5 C 451.7 679.3 452.2 679.4 452.2 679.3 C 451.7 679.4 450.9 679.1 451.7 679.1 C 451.6 679.2 452.8 679.1 452.8 679.0 C 452.7 678.8 452.0 678.9 452.3 678.6 C 453.4 678.5 452.9 679.1 453.7 678.8 C 453.8 679.0 453.3 679.0 453.1 679.1 C 453.4 679.1 453.9 679.1 454.0 679.2 C 453.6 679.3 453.5 679.5 453.4 679.7 C 453.9 679.5 454.9 679.8 454.2 679.3 C 455.4 679.5 456.5 679.3 455.7 679.0 C 456.6 679.0 456.1 679.4 456.8 679.2 C 456.7 679.5 456.5 679.7 457.1 680.0 C 457.2 679.8 457.7 679.8 457.7 679.5 C 459.0 679.6 459.4 679.9 459.9 680.3 C 459.5 679.7 460.1 680.2 460.8 679.9 C 461.2 680.1 460.8 680.4 461.9 680.4 C 460.7 679.9 463.3 680.4 462.8 679.9 C 464.2 680.2 464.2 680.2 465.6 680.5 C 465.4 680.7 465.1 680.8 464.4 680.8 C 464.9 680.5 463.2 680.4 463.3 680.5 C 463.3 680.6 463.3 680.7 463.3 680.7 C 464.4 680.8 465.1 680.9 465.5 681.2 C 465.8 681.0 466.3 680.9 466.2 680.5 C 467.1 681.0 468.3 680.6 468.7 681.0 C 468.3 681.0 468.0 681.0 468.1 681.2 C 468.5 681.1 469.0 681.1 469.0 680.9 C 468.2 680.7 468.0 680.6 467.6 680.8 C 468.0 680.6 466.8 680.3 467.6 680.3 C 467.6 680.8 469.3 680.3 468.8 680.5 C 467.8 680.6 469.7 680.9 469.8 681.2 C 469.8 681.2 469.8 681.2 469.8 681.2 Z M 485.0 735.0 C 485.8 734.7 484.7 734.6 484.2 734.7 C 484.3 734.7 484.4 734.9 484.5 735.0 C 484.7 735.0 484.9 734.9 485.0 735.0 C 485.0 735.0 485.0 735.0 485.0 735.0 Z M 476.0 731.4 C 475.8 731.8 477.1 731.5 477.7 731.5 C 477.5 731.4 477.3 731.4 477.6 731.3 C 477.1 731.1 476.9 731.6 476.0 731.4 C 476.0 731.4 476.0 731.4 476.0 731.4 Z M 445.4 731.4 C 445.6 731.3 446.1 731.3 446.2 731.5 C 446.5 731.5 446.4 731.3 446.5 731.2 C 447.2 731.2 446.3 731.6 447.3 731.6 C 447.7 731.1 445.7 730.7 445.4 731.4 C 445.4 731.4 445.4 731.4 445.4 731.4 Z M 458.7 684.6 C 459.1 684.8 458.2 684.9 458.4 685.2 C 460.0 685.1 458.8 684.7 460.9 684.9 C 460.8 684.8 460.7 684.7 460.7 684.6 C 459.7 684.7 459.6 684.9 459.9 684.3 C 459.4 684.3 459.3 684.9 458.7 684.6 C 458.7 684.6 458.7 684.6 458.7 684.6 Z M 478.0 688.4 C 477.9 688.3 477.8 688.2 477.8 688.1 C 477.2 688.1 477.3 688.2 476.5 687.9 C 476.5 688.4 477.3 688.5 478.0 688.4 C 478.0 688.4 478.0 688.4 478.0 688.4 Z M 516.2 710.1 C 516.2 710.2 516.2 710.3 516.2 710.4 C 516.4 710.3 516.9 710.5 516.7 710.1 C 516.6 710.1 516.6 710.1 516.6 710.2 C 516.5 710.1 516.5 709.9 516.3 710.0 C 516.3 710.1 516.3 710.1 516.2 710.1 C 516.2 710.1 516.2 710.1 516.2 710.1 Z M 510.5 722.8 C 511.3 722.0 508.6 722.7 510.5 722.8 C 510.5 722.8 510.5 722.8 510.5 722.8 C 510.5 722.8 510.5 722.8 510.5 722.8 Z M 514.4 724.5 C 514.4 724.5 514.6 724.3 514.6 724.3 C 515.4 723.8 514.8 724.5 515.3 724.3 C 515.8 723.6 514.7 724.1 515.3 723.4 C 515.1 723.3 514.8 724.1 514.4 724.5 C 514.4 724.5 514.4 724.5 514.4 724.5 Z M 401.6 688.6 C 400.9 689.2 400.9 689.5 400.9 689.9 C 401.4 689.6 401.9 689.4 402.1 689.4 C 402.9 688.7 401.4 689.6 401.2 689.6 C 401.1 689.3 401.8 688.9 401.6 688.6 C 401.6 688.6 401.6 688.6 401.6 688.6 Z M 399.4 690.3 C 399.2 690.6 398.8 691.0 398.9 691.2 C 399.3 690.9 399.4 690.9 399.5 691.0 C 399.8 690.6 399.2 690.8 399.4 690.3 C 399.4 690.3 399.4 690.3 399.4 690.3 Z M 404.1 687.7 C 403.7 687.9 404.0 688.0 404.0 688.2 C 404.5 687.9 404.7 687.9 405.2 687.6 C 405.2 687.6 405.1 687.5 405.1 687.4 C 404.6 687.6 404.6 687.7 404.2 687.9 C 404.2 687.8 404.1 687.8 404.1 687.7 C 404.1 687.7 404.1 687.7 404.1 687.7 Z M 397.6 692.2 C 396.4 693.2 396.4 694.1 396.1 695.0 C 396.7 694.2 396.9 693.1 397.6 692.7 C 398.2 692.0 397.3 692.8 397.2 692.7 C 397.2 692.6 397.4 692.4 397.6 692.2 C 397.6 692.2 397.6 692.2 397.6 692.2 Z M 391.8 702.6 C 391.6 702.8 392.1 703.3 392.0 704.1 C 392.1 704.0 392.1 703.8 392.3 703.8 C 392.4 702.8 391.8 703.4 391.8 702.6 C 391.8 702.6 391.8 702.6 391.8 702.6 Z M 392.9 708.7 C 393.1 709.4 392.9 708.4 393.3 708.6 C 393.0 707.9 392.8 707.2 392.5 707.3 C 392.9 708.0 393.0 708.1 392.9 708.7 C 392.9 708.7 392.9 708.7 392.9 708.7 Z M 395.1 712.9 C 395.7 713.5 395.2 712.4 395.7 712.5 C 395.5 712.3 395.4 712.4 395.3 712.5 C 395.2 712.2 395.1 712.0 394.9 711.7 C 394.9 712.1 395.5 712.8 395.1 712.9 C 395.1 712.9 395.1 712.9 395.1 712.9 Z M 422.7 682.0 C 422.3 682.1 422.4 682.4 421.5 682.5 C 422.9 682.3 422.3 683.3 424.1 682.8 C 423.8 682.7 424.0 682.6 424.1 682.7 C 424.8 682.4 423.4 682.7 424.0 682.2 C 423.5 682.3 423.9 682.6 423.4 682.8 C 422.8 682.6 422.4 682.5 422.7 682.0 C 422.7 682.0 422.7 682.0 422.7 682.0 Z M 424.2 683.1 C 424.7 683.1 424.6 682.5 424.9 682.8 C 425.2 682.7 425.1 682.6 425.1 682.5 C 424.9 682.6 424.9 682.5 424.9 682.5 C 424.4 682.6 424.0 682.8 424.2 683.1 C 424.2 683.1 424.2 683.1 424.2 683.1 Z M 419.5 684.1 C 420.3 683.8 420.6 683.9 421.0 683.6 C 421.3 683.9 421.5 683.3 422.0 683.5 C 422.8 683.3 422.1 683.3 421.9 683.2 C 422.7 682.9 422.1 683.4 422.9 683.1 C 423.0 682.8 422.0 683.1 422.0 682.7 C 421.4 682.8 421.5 683.1 421.1 683.2 C 420.8 683.3 420.9 683.1 420.8 683.0 C 420.2 683.2 420.1 683.0 419.6 683.2 C 419.5 683.4 419.8 683.5 420.4 683.3 C 419.8 683.6 419.5 683.8 418.8 683.9 C 419.2 683.4 416.8 684.0 417.1 684.4 C 417.8 684.3 417.5 684.1 417.8 683.9 C 418.7 684.0 419.2 683.8 419.5 684.1 C 419.5 684.1 419.5 684.1 419.5 684.1 Z M 404.9 688.4 C 404.6 688.5 404.3 688.5 404.0 688.8 C 403.8 688.5 404.3 688.3 403.8 688.4 C 403.1 688.7 403.0 688.9 402.7 689.1 C 403.0 689.1 404.4 688.7 403.8 689.2 C 404.1 689.2 404.5 689.0 405.0 688.8 C 404.2 688.7 405.9 688.3 406.5 688.0 C 406.3 687.6 407.7 687.6 408.0 687.1 C 407.5 687.0 406.4 687.9 405.8 688.1 C 406.1 687.9 404.1 688.3 404.9 688.4 C 404.9 688.4 404.9 688.4 404.9 688.4 Z M 426.2 682.5 C 426.3 682.4 426.9 682.3 426.4 682.3 C 426.6 682.2 427.1 682.3 426.8 681.8 C 427.1 681.8 427.4 681.7 427.6 681.7 C 427.5 681.9 426.8 681.9 427.2 682.2 C 427.7 681.9 427.5 682.1 428.2 682.0 C 427.9 682.4 428.3 682.3 428.0 682.8 C 428.2 682.6 428.8 682.5 428.8 682.2 C 429.8 682.2 428.5 682.7 429.9 682.5 C 429.9 682.7 428.9 682.9 428.6 682.8 C 428.4 683.1 430.2 682.7 431.2 682.6 C 430.3 682.5 430.9 682.1 431.3 681.8 C 431.7 681.9 431.4 682.0 431.9 682.1 C 432.4 682.1 432.6 681.9 432.7 682.0 C 433.1 682.0 432.9 681.8 432.9 681.6 C 433.6 681.6 433.1 682.1 434.0 681.9 C 433.3 681.5 434.1 681.4 435.3 681.4 C 435.2 681.3 434.9 681.3 434.8 681.1 C 434.9 680.9 435.7 681.2 435.9 681.3 C 436.3 681.2 436.0 681.1 435.6 681.1 C 435.9 681.0 436.1 680.9 436.4 680.8 C 435.0 680.9 432.9 681.1 430.5 681.0 C 431.0 681.2 430.4 681.3 429.7 681.3 C 429.6 681.1 429.9 681.1 430.2 681.0 C 429.3 680.8 429.5 681.6 428.1 681.5 C 427.4 681.5 428.9 681.2 428.1 681.1 C 427.6 681.3 427.3 681.6 427.0 681.3 C 426.2 681.6 426.1 682.0 424.8 682.2 C 425.5 682.2 426.0 682.8 426.7 682.6 C 426.7 682.5 426.4 682.5 426.2 682.5 C 426.2 682.5 426.2 682.5 426.2 682.5 Z M 399.7 691.2 C 399.2 691.5 399.2 691.8 399.0 691.7 C 398.4 692.3 399.3 691.9 399.4 691.8 C 399.7 691.5 399.7 691.3 399.7 691.2 C 399.7 691.2 399.7 691.2 399.7 691.2 Z M 448.7 734.4 C 449.7 734.6 449.5 734.2 450.4 734.3 C 449.7 734.1 449.6 733.8 448.4 733.8 C 448.4 734.0 448.3 734.2 448.7 734.4 C 448.7 734.4 448.7 734.4 448.7 734.4 Z M 402.2 689.6 C 402.7 689.0 401.7 690.4 401.5 690.2 C 400.9 690.8 402.3 689.9 401.8 690.6 C 402.3 690.1 402.8 690.1 403.6 689.4 C 403.4 689.3 402.8 689.6 402.2 690.1 C 402.0 690.0 402.3 689.7 402.2 689.6 C 402.2 689.6 402.2 689.6 402.2 689.6 Z M 438.0 732.0 C 437.2 732.1 438.5 732.7 438.9 732.9 C 439.0 732.5 438.8 732.5 438.0 732.0 C 438.0 732.0 438.0 732.0 438.0 732.0 Z M 456.1 734.6 C 456.5 734.2 454.8 734.4 455.2 734.1 C 454.7 734.0 454.7 734.1 454.6 734.3 C 454.4 734.1 453.6 734.1 453.8 733.9 C 453.7 733.6 455.1 734.0 454.7 733.7 C 455.2 733.7 455.2 733.8 455.5 733.8 C 454.7 733.7 455.1 734.1 456.1 734.2 C 456.1 734.0 455.6 734.0 456.1 733.9 C 456.1 734.0 456.7 734.3 456.6 734.7 C 457.5 734.7 457.0 734.2 458.0 734.3 C 458.0 734.1 457.3 734.0 456.9 733.9 C 457.1 733.6 458.0 734.2 457.8 733.8 C 458.0 734.0 458.6 734.2 458.6 734.5 C 457.8 734.6 457.3 734.8 456.6 734.9 C 457.2 735.1 458.1 734.5 459.1 734.8 C 459.0 734.6 459.7 734.6 459.5 734.3 C 460.3 734.4 459.9 734.8 459.7 734.8 C 459.9 735.1 461.5 735.0 461.4 734.7 C 461.5 735.0 463.5 735.0 463.4 734.6 C 464.0 734.8 464.9 734.4 465.1 734.8 C 465.4 734.7 466.1 734.7 466.8 734.7 C 467.0 734.4 465.8 734.5 465.7 734.3 C 465.5 734.0 467.0 734.4 466.8 734.1 C 466.8 734.0 466.8 734.0 466.8 733.9 C 466.2 734.0 465.7 734.1 465.1 734.2 C 464.7 734.2 465.2 734.1 465.1 733.9 C 464.7 734.1 462.9 734.4 462.9 733.9 C 461.7 734.0 460.8 733.9 460.3 734.1 C 459.6 734.0 460.7 733.9 460.3 733.7 C 458.2 734.0 455.6 733.3 453.9 733.7 C 453.5 733.6 453.6 733.4 453.6 733.3 C 451.2 733.3 453.2 733.9 451.3 733.6 C 451.3 733.3 452.2 733.4 452.2 733.1 C 451.5 733.1 451.4 733.2 450.5 733.1 C 450.5 733.2 450.5 733.3 450.4 733.5 C 449.7 733.4 450.0 733.1 449.7 732.9 C 448.8 732.9 449.0 733.1 448.6 732.7 C 447.7 732.7 446.9 732.7 446.0 732.4 C 445.4 732.6 446.5 733.2 447.4 733.3 C 447.3 733.4 447.1 733.4 447.0 733.5 C 446.0 733.1 445.9 732.5 444.4 732.2 C 445.5 732.7 443.8 732.3 443.6 732.0 C 442.9 731.9 443.3 732.4 443.8 732.4 C 443.7 732.6 443.3 732.4 443.3 732.3 C 443.1 732.7 444.6 733.2 446.2 733.2 C 445.4 733.6 447.4 733.3 446.4 733.8 C 447.8 733.9 446.7 733.4 448.2 733.6 C 448.0 733.5 447.8 733.3 447.7 733.2 C 448.8 733.2 448.4 733.6 449.6 733.7 C 449.8 733.4 449.0 733.4 449.1 733.2 C 450.3 733.6 450.7 733.8 451.5 734.2 C 451.7 734.0 451.5 733.7 453.0 734.0 C 453.0 734.1 453.0 734.1 452.9 734.2 C 452.3 734.1 452.0 734.7 453.8 734.8 C 453.9 734.6 453.4 734.6 452.9 734.5 C 453.1 734.3 453.7 734.3 454.4 734.3 C 454.7 734.4 455.1 734.6 454.6 734.5 C 454.9 734.8 455.2 734.3 456.1 734.6 C 456.1 734.6 456.1 734.6 456.1 734.6 Z M 392.7 701.5 C 392.7 701.7 392.8 701.9 392.7 702.2 C 392.9 702.4 393.0 701.8 393.2 701.8 C 393.3 701.3 392.8 701.6 392.7 701.5 C 392.7 701.5 392.7 701.5 392.7 701.5 Z M 395.8 695.4 C 395.6 695.3 395.7 695.8 395.2 696.2 C 395.3 696.5 395.7 695.9 395.8 696.1 C 396.3 695.6 395.3 695.9 395.8 695.4 C 395.8 695.4 395.8 695.4 395.8 695.4 Z M 394.2 697.9 C 393.8 698.0 394.2 698.2 394.4 697.7 C 394.5 697.9 394.6 698.0 394.5 698.4 C 395.0 698.2 394.6 697.7 395.0 697.3 C 394.8 697.4 394.5 697.6 394.2 697.9 C 394.2 697.9 394.2 697.9 394.2 697.9 Z M 393.8 698.8 C 393.8 699.2 393.5 699.3 393.4 699.9 C 393.7 699.9 394.1 698.6 394.1 698.4 C 394.0 698.1 393.4 699.4 393.8 698.8 C 393.8 698.8 393.8 698.8 393.8 698.8 Z M 427.5 729.2 C 427.7 729.3 427.7 729.1 427.8 729.1 C 428.5 729.7 429.6 729.9 428.6 730.1 C 429.5 730.1 430.2 730.6 430.9 730.9 C 431.5 731.1 431.3 730.7 431.8 730.8 C 432.5 731.0 431.3 730.8 431.5 731.0 C 431.6 731.3 431.9 730.8 432.8 731.2 C 432.6 730.6 433.6 731.4 433.4 730.9 C 433.9 731.2 434.1 731.0 434.8 731.2 C 434.7 730.9 434.1 730.8 434.0 730.6 C 433.8 730.2 433.6 730.8 434.3 730.8 C 433.8 731.1 433.0 730.4 432.7 730.6 C 432.4 730.2 433.5 730.7 433.3 730.3 C 433.0 730.3 432.8 730.3 432.7 730.4 C 432.3 730.2 432.1 730.1 432.0 729.9 C 432.2 730.0 432.2 730.0 432.2 730.1 C 432.7 730.2 431.8 729.5 432.9 729.7 C 432.7 729.6 432.3 729.5 432.4 729.3 C 432.1 729.0 432.2 730.1 431.2 729.5 C 430.5 729.7 432.8 730.2 432.1 730.7 C 430.6 730.2 431.6 730.0 430.4 729.6 C 430.4 729.8 430.4 729.9 430.1 729.9 C 430.1 730.0 430.5 730.1 430.8 730.2 C 430.7 730.3 430.3 730.1 430.0 730.1 C 430.0 730.1 430.3 730.2 430.2 730.3 C 429.3 730.0 429.5 729.4 430.5 729.4 C 430.5 729.2 429.3 728.9 428.9 729.0 C 429.2 729.3 428.9 729.1 429.0 729.5 C 429.3 729.6 429.3 729.4 429.4 729.4 C 429.8 729.6 429.4 729.6 429.3 729.7 C 428.8 729.5 428.9 729.2 428.3 729.3 C 428.4 729.3 428.6 729.2 428.6 729.1 C 428.4 729.0 428.1 728.9 427.9 728.9 C 427.8 729.1 427.5 729.0 427.5 729.2 C 427.5 729.2 427.5 729.2 427.5 729.2 Z M 441.2 732.9 C 442.1 733.2 441.6 732.8 441.2 732.8 C 441.4 732.7 441.7 732.7 442.1 732.7 C 441.8 732.5 441.6 732.6 440.7 732.4 C 441.5 732.1 440.8 731.4 439.5 731.2 C 439.0 731.7 440.1 732.0 439.6 732.3 C 440.6 732.3 441.1 732.6 441.2 732.9 C 441.2 732.9 441.2 732.9 441.2 732.9 Z M 399.5 691.9 C 399.1 692.3 398.6 692.6 398.2 693.0 C 398.5 693.2 399.9 692.2 399.5 691.9 C 399.5 691.9 399.5 691.9 399.5 691.9 Z M 437.5 681.1 C 437.7 681.1 437.8 681.1 437.8 681.2 C 438.6 681.0 437.4 681.0 437.8 680.7 C 437.5 680.7 437.2 680.7 436.9 680.7 C 436.9 680.9 438.1 681.0 437.2 681.1 C 437.3 681.2 437.5 681.2 437.5 681.1 C 437.5 681.1 437.5 681.1 437.5 681.1 Z M 393.2 701.1 C 393.2 701.5 393.7 701.3 393.4 702.3 C 393.7 702.0 393.6 701.8 393.7 701.2 C 393.5 701.2 393.4 701.1 393.2 701.1 C 393.2 701.1 393.2 701.1 393.2 701.1 Z M 423.6 728.6 C 424.1 729.1 424.5 728.4 425.6 729.0 C 425.1 728.4 424.3 728.7 423.6 728.6 C 423.6 728.6 423.6 728.6 423.6 728.6 Z M 469.0 734.2 C 468.6 734.1 469.1 734.0 468.5 733.9 C 468.1 734.0 467.9 734.2 467.3 734.2 C 468.1 734.5 469.5 734.2 470.1 734.7 C 470.8 734.6 470.7 734.3 471.0 734.1 C 470.6 734.1 470.5 734.0 470.4 734.0 C 470.0 734.4 469.5 733.7 469.0 734.2 C 469.0 734.2 469.0 734.2 469.0 734.2 Z M 437.7 731.8 C 437.2 731.6 438.1 731.6 438.3 731.4 C 438.7 731.5 438.5 731.7 438.5 731.9 C 439.0 732.0 439.2 731.8 439.2 731.6 C 438.3 731.3 437.2 731.1 437.9 730.9 C 437.0 730.6 437.4 731.1 437.0 731.1 C 436.6 730.8 437.0 730.8 437.1 730.5 C 436.9 730.5 436.2 730.7 436.3 730.3 C 435.0 730.5 435.4 731.1 436.3 731.8 C 437.2 731.6 436.3 731.3 437.7 731.8 C 437.7 731.8 437.7 731.8 437.7 731.8 Z M 405.0 719.8 C 405.1 720.0 405.6 720.3 405.5 720.4 C 406.3 720.5 407.0 720.6 407.8 720.7 C 407.8 720.4 406.8 720.1 407.1 720.5 C 406.9 720.2 406.4 719.7 406.2 719.4 C 405.6 719.0 405.1 719.4 405.2 718.9 C 404.6 718.7 404.9 718.9 404.1 718.3 C 405.3 719.5 403.5 718.1 403.3 718.3 C 404.0 718.9 404.7 719.3 404.8 719.0 C 405.3 719.5 406.0 720.0 406.0 720.3 C 405.8 720.4 405.4 720.0 405.0 719.8 C 405.0 719.8 405.0 719.8 405.0 719.8 Z M 409.1 721.2 C 408.9 721.1 408.6 721.0 408.2 720.8 C 408.4 721.0 408.4 721.2 408.3 721.3 C 409.1 721.7 409.4 721.7 409.5 722.1 C 410.3 722.5 409.5 721.6 410.7 722.3 C 410.7 722.2 410.0 721.9 410.1 721.8 C 409.9 722.0 409.4 721.7 409.1 721.2 C 409.1 721.2 409.1 721.2 409.1 721.2 Z M 416.7 725.3 C 417.3 725.5 416.4 725.0 416.8 725.0 C 416.7 724.9 415.6 724.4 415.8 724.2 C 415.7 723.7 414.2 724.0 414.5 723.6 C 414.3 723.5 414.3 723.7 414.2 723.8 C 415.0 724.0 414.9 724.2 414.3 724.0 C 414.4 724.2 414.9 724.3 415.2 724.5 C 415.3 724.4 415.0 724.2 415.1 724.0 C 415.7 724.5 416.1 724.9 416.7 725.3 C 416.7 725.3 416.7 725.3 416.7 725.3 Z M 467.9 682.5 C 467.2 682.4 466.8 682.4 466.5 682.5 C 466.7 682.6 467.0 682.5 467.3 682.6 C 467.4 682.7 467.1 682.7 466.7 682.7 C 467.0 683.0 468.2 682.9 467.9 682.5 C 467.9 682.5 467.9 682.5 467.9 682.5 Z M 462.3 681.9 C 461.7 681.8 461.3 681.9 461.2 682.0 C 461.4 682.2 461.3 681.9 461.8 682.0 C 462.0 682.1 462.1 682.2 462.3 682.3 C 462.5 682.4 462.5 682.2 462.6 682.2 C 462.8 682.2 462.8 682.2 462.9 682.3 C 463.6 682.1 462.0 682.2 462.3 681.9 C 462.3 681.9 462.3 681.9 462.3 681.9 Z M 413.0 723.6 C 412.9 723.3 412.8 723.1 412.3 722.9 C 412.3 723.1 411.9 722.9 411.4 722.7 C 412.1 723.3 412.2 723.2 413.0 723.6 C 413.0 723.6 413.0 723.6 413.0 723.6 Z M 428.1 683.0 C 427.3 682.8 427.4 683.3 426.3 683.2 C 426.3 683.3 426.3 683.4 426.3 683.5 C 427.0 683.2 427.3 683.3 428.1 683.0 C 428.1 683.0 428.1 683.0 428.1 683.0 Z M 519.3 717.1 C 519.1 717.0 518.9 717.6 518.7 717.6 C 519.0 717.9 518.2 717.8 517.5 718.9 C 517.4 718.8 517.4 718.7 517.5 718.6 C 516.7 719.4 517.9 718.5 518.2 718.6 C 518.7 717.9 519.0 717.9 519.3 717.1 C 519.3 717.1 519.3 717.1 519.3 717.1 Z M 460.6 733.2 C 460.6 733.3 460.8 733.3 460.9 733.3 C 461.1 733.3 461.3 733.3 461.5 733.3 C 461.4 732.9 460.5 732.7 461.2 732.3 C 461.0 732.3 461.0 732.3 461.0 732.4 C 459.6 733.2 458.6 731.7 456.8 732.2 C 456.5 732.2 456.5 732.3 456.5 732.4 C 456.7 732.4 456.7 732.4 456.7 732.5 C 457.0 732.1 458.6 732.6 457.8 732.8 C 457.9 732.9 458.1 732.8 458.1 732.8 C 458.3 732.8 458.5 732.8 458.7 732.8 C 458.6 732.7 458.2 732.6 458.1 732.5 C 459.0 732.6 460.1 732.8 459.5 733.1 C 460.1 733.1 460.3 733.0 460.7 732.9 C 461.0 732.9 461.0 733.2 460.6 733.2 C 460.6 733.2 460.6 733.2 460.6 733.2 Z M 467.9 733.2 C 468.8 733.3 468.4 732.9 469.3 733.0 C 468.7 732.7 468.1 733.1 467.3 732.9 C 467.5 733.0 467.8 733.1 467.9 733.2 C 467.9 733.2 467.9 733.2 467.9 733.2 Z M 451.7 732.1 C 451.9 731.7 451.2 731.6 450.4 731.6 C 450.2 731.9 450.9 732.0 451.7 732.1 C 451.7 732.1 451.7 732.1 451.7 732.1 Z M 455.4 732.4 C 456.2 732.3 454.3 732.2 454.8 732.0 C 454.4 731.9 454.0 731.9 454.0 731.8 C 453.7 731.8 453.7 732.0 453.1 731.9 C 453.2 732.1 454.1 732.1 454.0 732.3 C 454.6 732.1 454.7 732.2 455.4 732.4 C 455.4 732.4 455.4 732.4 455.4 732.4 Z M 455.9 732.4 C 456.4 732.4 455.8 731.8 455.1 731.8 C 455.4 732.0 455.5 732.3 455.9 732.4 C 455.9 732.4 455.9 732.4 455.9 732.4 Z M 397.3 710.8 C 397.5 711.0 397.6 710.7 397.8 711.0 C 397.9 710.9 397.2 709.8 397.8 710.7 C 397.9 710.2 397.3 710.3 397.2 709.8 C 397.2 710.0 397.1 710.1 397.0 709.9 C 396.7 709.9 397.6 710.8 397.3 710.8 C 397.3 710.8 397.3 710.8 397.3 710.8 Z M 398.1 711.9 C 398.3 712.1 398.3 712.0 398.2 711.9 C 398.3 711.8 398.6 712.2 398.8 712.4 C 398.7 712.5 398.8 711.7 399.0 711.6 C 398.1 710.8 398.4 711.7 398.1 711.9 C 398.1 711.9 398.1 711.9 398.1 711.9 Z M 399.1 712.7 C 399.4 713.5 400.4 714.4 401.0 714.5 C 400.8 713.8 399.6 712.8 399.1 712.7 C 399.1 712.7 399.1 712.7 399.1 712.7 Z M 395.6 706.5 C 395.5 707.7 396.9 709.7 396.4 707.7 C 396.2 707.8 395.7 706.5 395.7 705.9 C 395.5 705.9 395.2 705.2 395.4 705.2 C 395.1 704.7 395.4 706.8 395.6 706.5 C 395.6 706.5 395.6 706.5 395.6 706.5 Z M 402.2 714.8 C 401.8 714.6 401.9 715.4 401.5 714.8 C 401.1 714.6 401.5 715.0 401.3 715.0 C 401.9 715.6 403.6 716.5 403.6 716.9 C 404.0 717.1 404.2 717.0 405.0 717.5 C 405.1 717.4 402.2 715.8 402.1 715.0 C 402.2 714.9 403.1 715.6 402.2 714.8 C 402.2 714.8 402.2 714.8 402.2 714.8 Z M 428.3 684.7 C 428.4 684.5 427.3 684.8 427.5 684.5 C 427.0 684.9 426.4 684.8 425.9 685.1 C 425.7 685.1 425.6 684.6 424.8 684.7 C 424.8 685.0 425.2 684.8 424.8 685.1 C 424.1 685.3 424.2 684.9 423.3 685.2 C 423.6 685.7 421.5 685.7 421.8 686.2 C 422.2 686.0 422.2 685.8 422.9 685.7 C 423.2 685.7 423.1 685.9 423.5 685.8 C 423.3 686.1 422.8 685.8 422.5 686.1 C 422.6 686.3 423.2 686.1 423.3 686.3 C 423.7 686.2 423.2 686.2 423.3 686.0 C 424.2 685.8 423.3 686.7 424.3 686.4 C 424.1 686.2 424.1 686.2 424.2 685.8 C 424.6 685.9 425.9 685.5 425.2 686.0 C 425.4 686.2 426.1 685.7 425.9 685.5 C 426.3 685.4 426.4 685.5 426.4 685.6 C 427.5 685.3 427.6 685.1 427.3 684.8 C 427.5 684.5 427.7 685.0 428.3 684.7 C 428.3 684.7 428.3 684.7 428.3 684.7 Z M 396.0 700.6 C 395.9 700.1 395.9 701.1 395.7 701.5 C 395.9 701.0 396.2 701.3 396.4 700.8 C 396.3 700.9 396.2 700.8 396.3 700.5 C 396.2 700.4 395.8 701.1 396.0 700.6 C 396.0 700.6 396.0 700.6 396.0 700.6 Z M 406.6 718.6 C 406.8 719.0 408.4 719.7 409.3 720.2 C 409.3 719.8 407.0 719.2 407.0 718.6 C 406.5 718.4 407.2 718.9 406.6 718.6 C 406.6 718.6 406.6 718.6 406.6 718.6 Z M 419.1 686.2 C 418.8 686.3 419.0 686.3 419.1 686.3 C 419.1 686.4 418.5 686.5 418.2 686.6 C 418.8 686.7 418.2 686.9 418.3 687.2 C 418.1 687.2 418.0 687.3 417.9 687.4 C 417.8 686.9 416.6 688.1 418.0 687.8 C 417.7 687.6 417.8 687.6 418.4 687.3 C 419.1 687.3 419.5 686.9 419.8 687.2 C 420.2 687.1 420.4 686.9 420.9 686.8 C 421.1 687.0 421.7 687.0 421.3 687.5 C 422.3 687.2 421.5 686.7 422.3 686.4 C 423.2 686.4 422.0 686.9 422.2 687.1 C 422.4 687.0 422.4 687.2 422.5 687.2 C 422.8 687.1 422.7 686.9 422.5 686.9 C 422.5 686.8 423.3 686.4 423.1 686.8 C 423.6 686.5 422.2 686.0 421.6 686.5 C 421.2 686.6 421.1 686.0 421.5 686.0 C 421.3 685.8 420.7 686.6 420.7 686.0 C 420.4 686.0 420.1 686.1 419.8 686.2 C 419.9 686.3 420.1 686.2 420.1 686.3 C 419.8 686.4 419.5 686.5 419.2 686.6 C 419.4 686.4 419.4 686.3 419.1 686.2 C 419.1 686.2 419.1 686.2 419.1 686.2 Z M 403.3 716.2 C 403.9 716.7 404.1 716.6 404.7 716.9 C 404.6 716.6 403.2 715.8 403.3 716.2 C 403.3 716.2 403.3 716.2 403.3 716.2 Z M 432.8 685.0 C 432.7 685.0 432.3 685.0 432.3 684.9 C 433.0 684.7 432.1 684.7 432.7 684.1 C 431.7 684.4 431.4 685.2 432.8 685.2 C 433.8 685.1 431.8 685.2 432.8 685.0 C 432.8 685.0 432.8 685.0 432.8 685.0 Z M 429.7 685.2 C 429.1 685.5 430.7 685.4 431.0 685.5 C 431.0 685.6 431.1 685.7 431.1 685.8 C 431.9 685.2 430.7 685.2 431.4 684.5 C 430.4 684.5 430.0 684.4 429.1 684.7 C 429.2 684.8 429.4 684.7 429.4 684.7 C 430.0 684.6 429.6 685.1 428.9 685.1 C 429.1 685.2 429.7 685.1 430.2 685.1 C 430.1 685.0 429.9 684.9 429.9 684.8 C 430.5 684.7 430.3 685.0 430.7 684.9 C 430.7 685.0 429.7 685.4 429.7 685.2 C 429.7 685.2 429.7 685.2 429.7 685.2 Z M 482.8 687.4 C 482.3 687.3 483.3 688.0 483.1 688.4 C 483.7 688.6 483.8 688.5 484.2 688.6 C 484.0 688.3 483.5 688.1 483.2 687.9 C 483.4 687.6 484.0 688.2 484.3 688.0 C 484.7 687.6 483.0 687.8 482.8 687.4 C 482.8 687.4 482.8 687.4 482.8 687.4 Z M 406.1 691.5 C 405.8 691.6 406.0 691.6 406.2 691.6 C 406.2 691.7 405.7 691.9 405.6 691.8 C 405.3 692.1 405.9 691.9 405.5 692.1 C 405.5 692.4 406.2 691.7 406.2 691.6 C 406.8 691.3 406.5 691.9 406.7 691.9 C 407.2 691.7 406.9 691.5 407.7 691.2 C 407.2 691.3 406.7 691.3 406.1 691.5 C 406.1 691.5 406.1 691.5 406.1 691.5 Z M 434.5 684.3 C 434.6 684.1 434.0 684.8 433.3 684.6 C 432.4 684.7 433.9 684.9 433.0 684.9 C 433.7 684.9 434.5 684.6 435.6 684.5 C 435.9 684.3 434.1 684.5 435.1 684.3 C 435.0 684.2 434.8 684.3 434.8 684.3 C 434.6 684.4 434.6 684.3 434.5 684.3 C 434.5 684.3 434.5 684.3 434.5 684.3 Z M 433.6 685.1 C 433.6 685.2 433.9 685.1 433.8 685.0 C 434.2 685.0 434.2 685.3 433.9 685.3 C 434.3 685.6 434.3 685.0 435.2 685.1 C 434.8 684.9 434.6 684.7 435.4 684.9 C 436.0 684.5 433.9 684.8 433.6 685.1 C 433.6 685.1 433.6 685.1 433.6 685.1 Z M 474.4 685.9 C 474.4 686.0 475.0 686.1 475.4 686.2 C 474.9 686.3 472.7 685.8 472.5 685.6 C 472.3 685.6 472.0 685.6 472.0 685.5 C 472.0 685.6 471.3 685.7 471.6 685.8 C 471.6 685.9 471.1 685.8 471.1 685.9 C 470.3 685.7 471.4 685.7 471.1 685.5 C 470.1 685.6 470.4 685.4 469.2 685.2 C 469.4 685.5 470.7 685.6 470.5 686.0 C 471.4 685.8 472.4 686.2 472.9 686.6 C 472.1 686.0 475.3 686.3 476.7 686.6 C 476.6 686.8 477.2 686.9 477.7 687.1 C 478.1 687.5 478.1 686.8 477.3 686.8 C 477.3 686.6 478.4 687.0 478.8 687.0 C 478.3 686.8 478.7 686.7 478.4 686.6 C 477.4 686.3 478.3 686.6 478.1 686.8 C 477.8 686.7 477.5 686.7 477.3 686.6 C 478.7 686.4 475.3 686.2 476.5 686.4 C 475.4 686.2 475.4 685.9 474.4 685.9 C 474.4 685.9 474.4 685.9 474.4 685.9 Z M 448.6 683.6 C 448.4 683.6 447.5 683.9 447.5 683.6 C 446.3 683.9 447.3 684.1 446.1 684.1 C 446.2 684.2 446.6 684.2 446.6 684.3 C 447.1 684.2 447.6 684.1 447.5 683.8 C 448.0 683.8 448.2 683.7 448.6 683.7 C 448.4 683.8 448.2 683.9 447.7 683.9 C 447.7 684.2 447.8 684.3 448.6 684.3 C 448.9 684.1 448.7 683.8 448.6 683.6 C 448.6 683.6 448.6 683.6 448.6 683.6 Z M 445.8 684.0 C 445.7 684.0 445.5 683.9 445.5 683.7 C 445.1 683.4 445.4 684.1 445.0 684.1 C 444.7 684.1 444.8 684.0 444.7 683.8 C 444.2 683.9 443.9 684.0 443.6 683.9 C 442.9 684.1 444.5 684.1 444.7 684.2 C 445.3 684.2 445.1 684.0 445.8 684.0 C 445.8 684.0 445.8 684.0 445.8 684.0 Z M 437.7 684.1 C 437.6 683.8 437.3 684.3 436.9 684.2 C 437.2 684.5 438.0 684.3 437.5 684.7 C 438.3 684.7 438.3 684.7 439.1 684.6 C 439.6 684.8 439.1 684.3 438.3 684.5 C 438.4 684.4 438.7 684.4 438.8 684.2 C 439.3 684.8 440.6 683.8 439.9 684.2 C 439.6 684.2 439.5 684.1 439.3 684.0 C 439.2 684.3 437.3 684.2 437.7 684.1 C 437.7 684.1 437.7 684.1 437.7 684.1 Z M 412.7 689.2 C 414.0 688.7 414.5 688.6 415.3 688.4 C 415.4 688.5 415.3 688.5 415.2 688.6 C 415.4 688.7 415.7 688.5 416.0 688.4 C 416.0 688.3 415.8 688.4 415.8 688.4 C 415.1 688.4 415.7 688.2 415.7 687.9 C 414.8 688.0 413.6 688.9 412.9 688.8 C 412.4 689.0 413.0 688.9 412.7 689.2 C 412.7 689.2 412.7 689.2 412.7 689.2 Z M 517.5 715.2 C 517.5 715.4 517.4 715.6 517.6 715.7 C 517.7 715.4 517.7 715.2 517.7 715.0 C 517.5 715.4 517.1 715.1 516.8 715.7 C 517.0 715.6 517.3 715.8 517.5 715.2 C 517.5 715.2 517.5 715.2 517.5 715.2 Z M 440.4 684.0 C 440.4 684.2 440.5 684.3 440.2 684.3 C 440.1 684.6 440.9 684.4 441.0 684.6 C 441.2 684.6 441.1 684.4 441.5 684.4 C 441.4 684.2 440.6 684.3 440.9 684.0 C 441.2 684.0 441.2 684.0 441.2 684.1 C 441.8 683.9 440.9 683.9 440.4 684.0 C 440.4 684.0 440.4 684.0 440.4 684.0 Z M 485.3 688.3 C 484.9 688.3 485.3 688.5 485.5 688.6 C 484.7 688.7 485.8 689.2 485.8 689.5 C 485.6 689.1 484.5 689.0 484.4 688.9 C 484.1 688.9 484.3 689.2 483.5 689.1 C 483.5 689.4 484.5 689.4 484.3 689.1 C 484.4 689.5 485.4 689.3 485.2 689.6 C 486.3 690.0 486.7 689.8 486.8 689.6 C 485.7 689.4 486.4 689.0 485.4 688.9 C 485.5 688.8 485.8 688.9 486.0 688.9 C 485.9 688.7 485.5 688.5 485.3 688.3 C 485.3 688.3 485.3 688.3 485.3 688.3 Z M 457.4 684.1 C 456.8 684.0 456.8 684.3 456.8 684.5 C 457.0 684.5 457.4 684.5 457.9 684.5 C 457.8 684.3 457.1 684.4 457.4 684.1 C 457.4 684.1 457.4 684.1 457.4 684.1 Z M 481.1 687.7 C 481.1 687.6 480.9 687.6 480.9 687.7 C 480.2 687.5 480.1 687.4 479.9 687.2 C 479.5 687.1 479.6 687.4 479.6 687.5 C 480.2 687.4 480.0 687.7 480.8 687.9 C 480.8 687.7 480.9 687.7 481.1 687.7 C 481.1 687.7 481.1 687.7 481.1 687.7 Z M 463.2 684.7 C 462.8 684.7 463.0 684.8 463.2 684.8 C 462.8 685.1 461.7 684.7 461.2 684.8 C 461.1 685.1 462.5 685.2 460.9 685.1 C 461.2 685.4 462.7 685.3 463.4 685.4 C 463.2 685.7 462.2 685.6 462.2 685.9 C 463.1 685.8 464.0 685.8 464.2 685.3 C 463.0 685.2 463.4 684.9 463.2 684.7 C 463.2 684.7 463.2 684.7 463.2 684.7 Z M 464.5 685.1 C 464.4 684.9 464.2 685.1 463.7 685.0 C 464.4 685.4 464.8 685.3 466.1 685.5 C 466.2 685.5 466.2 685.4 466.2 685.3 C 466.4 685.4 466.7 685.4 467.0 685.4 C 465.8 685.0 465.5 685.2 464.2 685.1 C 464.2 685.0 464.4 685.0 464.5 685.1 C 464.5 685.1 464.5 685.1 464.5 685.1 Z M 428.5 685.6 C 428.8 685.7 429.2 685.9 429.8 685.8 C 429.7 685.6 429.3 685.5 428.5 685.6 C 428.5 685.6 428.5 685.6 428.5 685.6 Z M 482.1 688.2 C 482.8 688.1 481.4 688.0 481.8 688.4 C 482.3 688.6 482.9 688.9 482.9 689.2 C 484.0 689.0 481.9 688.5 482.1 688.2 C 482.1 688.2 482.1 688.2 482.1 688.2 Z M 477.3 687.9 C 477.0 687.8 477.1 687.3 477.4 687.7 C 478.1 687.8 476.8 687.3 477.9 687.6 C 477.4 687.3 476.4 687.0 475.8 687.1 C 475.8 687.3 476.8 687.4 476.8 687.7 C 476.8 687.8 476.7 687.7 476.5 687.7 C 476.6 687.9 476.9 687.7 477.3 687.9 C 477.3 687.9 477.3 687.9 477.3 687.9 Z M 473.4 686.7 C 473.9 686.9 474.3 687.1 475.3 687.3 C 474.7 687.0 474.4 686.6 473.4 686.7 C 473.4 686.7 473.4 686.7 473.4 686.7 Z M 516.4 707.1 C 516.2 706.7 516.1 707.2 516.0 707.2 C 516.2 707.6 516.4 707.5 516.5 708.0 C 516.7 707.7 516.2 707.5 516.4 707.1 C 516.4 707.1 516.4 707.1 516.4 707.1 Z M 516.8 708.5 C 516.6 708.6 516.9 709.1 516.7 709.2 C 517.4 709.3 516.5 710.0 517.0 709.9 C 516.9 710.0 516.9 710.1 516.9 710.3 C 517.4 709.9 517.0 709.0 516.8 708.5 C 516.8 708.5 516.8 708.5 516.8 708.5 Z M 468.8 686.6 C 468.1 686.4 468.9 687.1 468.2 686.9 C 468.1 687.0 469.5 687.3 468.7 687.3 C 469.7 687.6 468.7 686.7 468.8 686.6 C 468.8 686.6 468.8 686.6 468.8 686.6 Z M 455.4 685.7 C 455.4 685.5 454.4 685.6 454.0 685.5 C 454.0 685.6 454.3 685.6 454.5 685.6 C 454.4 685.7 454.3 685.8 454.0 685.8 C 454.2 686.1 455.0 685.7 455.4 685.7 C 455.4 685.7 455.4 685.7 455.4 685.7 Z M 470.9 681.6 C 471.3 681.9 471.8 682.3 472.2 681.9 C 472.7 682.2 471.9 682.2 472.4 682.4 C 473.2 682.4 472.8 682.7 474.1 682.7 C 473.8 683.0 474.7 683.2 474.8 683.4 C 474.3 683.4 473.7 683.0 473.4 683.2 C 473.9 683.3 473.6 683.5 473.4 683.3 C 472.6 683.0 474.5 683.1 473.5 682.7 C 473.1 683.1 471.8 682.1 470.8 682.0 C 471.2 681.8 470.1 681.5 470.9 681.6 C 470.9 681.6 470.9 681.6 470.9 681.6 Z M 475.7 683.0 C 476.4 683.1 476.6 683.8 476.4 683.7 C 476.5 683.6 475.7 683.5 475.6 683.6 C 475.8 683.6 476.0 683.7 475.9 683.7 C 474.7 683.5 475.1 683.3 474.9 683.0 C 475.6 683.0 475.7 683.2 476.0 683.1 C 475.8 683.1 475.7 683.1 475.7 683.0 C 475.7 683.0 475.7 683.0 475.7 683.0 Z M 488.3 691.0 C 488.2 690.8 488.0 691.0 487.8 691.0 C 487.8 690.5 486.4 690.7 486.3 690.5 C 486.7 690.4 487.3 690.6 487.6 690.5 C 487.3 690.4 487.3 690.3 486.9 690.3 C 487.0 690.1 487.8 690.2 488.0 690.1 C 488.0 690.3 488.4 690.2 488.5 690.3 C 487.5 690.2 488.8 691.2 488.3 691.0 C 488.3 691.0 488.3 691.0 488.3 691.0 Z M 462.5 686.3 C 462.4 686.6 463.4 687.4 462.4 687.7 C 462.1 687.4 462.0 687.1 462.2 686.7 C 461.5 686.9 461.2 686.6 460.8 686.8 C 459.6 685.8 461.7 687.0 462.5 686.3 C 462.5 686.3 462.5 686.3 462.5 686.3 Z M 458.1 686.2 C 458.3 686.0 457.7 685.9 457.8 685.7 C 458.4 685.9 460.1 685.8 459.5 685.9 C 458.9 686.0 458.9 686.3 458.1 686.2 C 458.1 686.2 458.1 686.2 458.1 686.2 Z M 421.5 725.0 C 420.7 724.9 420.5 724.3 421.0 724.3 C 420.7 724.5 421.9 724.7 421.5 725.0 C 421.5 725.0 421.5 725.0 421.5 725.0 Z M 392.2 709.9 C 392.4 710.7 392.8 711.0 392.6 711.2 C 392.1 710.6 392.4 710.5 392.1 709.9 C 391.9 709.9 391.7 709.6 391.8 709.5 C 391.9 709.8 392.1 709.7 392.2 709.9 C 392.2 709.9 392.2 709.9 392.2 709.9 Z M 441.2 679.0 C 441.2 678.8 440.8 678.8 440.9 678.6 C 441.8 678.7 442.7 678.4 443.5 678.2 C 443.5 678.3 443.5 678.4 443.5 678.6 C 442.1 678.5 441.8 678.8 441.2 679.0 C 441.2 679.0 441.2 679.0 441.2 679.0 Z M 439.5 678.5 C 439.4 678.6 439.9 679.0 439.3 679.0 C 439.3 678.8 438.2 678.5 438.7 678.4 C 438.9 678.6 439.1 678.6 439.5 678.5 C 439.5 678.5 439.5 678.5 439.5 678.5 Z M 486.3 684.4 C 486.9 684.6 486.1 684.1 486.1 684.0 C 486.6 684.2 487.2 684.3 487.4 684.5 C 486.9 684.4 486.5 684.8 486.3 684.4 C 486.3 684.4 486.3 684.4 486.3 684.4 Z M 476.3 683.0 C 474.9 682.8 475.6 682.3 474.2 682.0 C 474.8 681.9 476.0 682.2 476.5 682.0 C 476.4 682.2 476.7 682.3 476.7 682.4 C 476.2 682.4 476.1 682.2 475.6 682.1 C 475.7 682.5 475.7 682.4 475.5 682.6 C 475.9 682.7 476.1 682.7 476.3 682.7 C 476.2 682.8 476.7 683.0 476.3 683.0 C 476.3 683.0 476.3 683.0 476.3 683.0 Z M 485.8 685.2 C 486.4 685.2 486.7 685.7 486.3 685.6 C 486.3 685.4 485.9 685.5 485.8 685.3 C 486.6 685.5 485.2 685.1 485.6 684.9 C 486.1 685.0 486.3 685.0 486.2 684.7 C 486.5 684.8 487.0 684.9 487.0 685.0 C 486.8 685.0 486.5 684.9 486.4 685.0 C 486.6 685.0 486.7 685.1 486.7 685.2 C 486.2 685.0 486.0 685.1 485.8 685.2 C 485.8 685.2 485.8 685.2 485.8 685.2 Z M 482.2 684.3 C 482.9 684.5 482.9 684.7 483.1 685.0 C 482.2 684.7 482.1 684.3 481.4 683.9 C 482.2 684.2 483.1 684.0 483.3 684.2 C 482.9 684.2 482.3 684.1 482.2 684.3 C 482.2 684.3 482.2 684.3 482.2 684.3 Z M 490.8 731.8 C 490.2 731.8 489.7 731.7 489.0 731.6 C 488.8 732.0 490.2 732.4 489.6 732.2 C 488.9 732.4 489.3 731.9 488.8 732.0 C 489.4 732.3 486.4 732.8 486.2 732.4 C 486.7 732.3 486.8 732.2 486.7 732.0 C 487.9 731.9 488.3 731.5 489.2 731.3 C 489.9 731.6 491.8 731.3 492.6 730.7 C 493.4 731.2 494.4 730.3 495.4 730.5 C 495.6 730.3 494.6 730.4 495.3 730.1 C 495.8 730.4 495.5 730.6 496.1 730.6 C 496.2 730.4 496.0 730.2 496.3 730.1 C 496.3 730.3 496.7 730.2 496.8 730.3 C 495.5 730.6 497.0 730.7 496.0 731.0 C 495.6 731.0 496.3 730.4 495.2 730.7 C 494.8 730.9 494.4 731.1 494.6 731.3 C 494.2 731.4 494.1 731.5 493.9 731.6 C 494.2 731.1 492.2 732.1 493.1 731.5 C 493.1 731.5 493.8 731.3 494.3 731.1 C 493.8 730.9 493.3 731.2 492.6 731.5 C 492.2 731.3 492.6 731.1 492.2 731.1 C 491.7 731.5 492.5 731.5 492.1 731.8 C 492.3 731.8 492.6 731.7 492.6 731.8 C 491.5 731.7 491.2 732.1 490.6 732.2 C 491.0 731.9 490.0 732.0 490.8 731.8 C 490.8 731.8 490.8 731.8 490.8 731.8 Z M 499.3 729.4 C 499.5 729.3 499.8 729.3 500.0 729.2 C 500.1 729.5 499.3 729.8 499.9 729.8 C 498.9 730.1 499.9 729.5 499.3 729.4 C 499.3 729.4 499.3 729.4 499.3 729.4 Z M 494.4 729.5 C 494.0 729.3 494.3 730.0 494.0 730.0 C 494.6 729.8 495.1 729.6 495.2 730.0 C 494.6 730.0 494.3 730.1 493.6 730.3 C 494.2 729.8 492.7 730.2 492.5 729.9 C 493.0 729.7 493.4 729.5 494.1 729.3 C 494.0 729.5 495.1 729.3 494.4 729.5 C 494.4 729.5 494.4 729.5 494.4 729.5 Z M 496.2 728.7 C 496.4 728.9 497.3 728.4 497.2 728.8 C 496.6 728.9 496.4 729.1 496.6 729.3 C 496.1 729.5 496.0 729.3 495.6 729.4 C 495.3 729.2 496.0 729.0 496.2 728.8 C 496.1 728.8 495.9 728.8 496.2 728.7 C 496.2 728.7 496.2 728.7 496.2 728.7 Z M 514.1 718.1 C 514.4 718.3 513.7 718.7 513.5 718.8 C 513.9 718.8 513.9 719.0 513.5 719.5 C 513.4 719.0 512.8 719.7 512.2 719.6 C 512.2 720.0 512.9 719.6 512.3 720.2 C 511.7 720.5 511.3 720.9 510.4 721.6 C 510.0 721.4 510.4 721.1 510.6 720.9 C 510.0 721.3 510.0 721.0 509.6 721.3 C 509.7 721.3 509.4 721.7 509.2 721.6 C 509.9 721.0 507.8 721.9 508.7 721.3 C 508.8 721.4 509.0 721.2 509.1 721.0 C 509.1 721.5 510.2 720.7 510.5 720.8 C 510.6 719.9 511.8 719.4 512.9 718.8 C 513.1 718.8 512.8 719.2 513.1 719.0 C 513.1 718.9 513.4 718.6 513.5 718.4 C 513.6 718.5 513.8 718.5 514.0 718.3 C 514.0 718.3 513.9 718.2 514.1 718.1 C 514.1 718.1 514.1 718.1 514.1 718.1 Z M 446.5 729.3 C 446.6 728.8 444.8 728.8 444.3 728.9 C 444.5 728.3 447.5 728.9 446.5 729.3 C 446.5 729.3 446.5 729.3 446.5 729.3 Z M 457.2 729.9 C 456.7 729.9 457.0 730.2 456.6 730.2 C 456.6 729.9 455.5 730.4 455.5 730.1 C 456.1 729.9 456.4 729.9 457.2 729.9 C 457.2 729.9 457.2 729.9 457.2 729.9 Z M 467.1 730.3 C 466.3 730.4 467.5 730.5 467.3 730.6 C 466.6 730.6 465.9 730.6 466.0 730.3 C 466.6 730.5 467.0 730.0 467.1 730.3 C 467.1 730.3 467.1 730.3 467.1 730.3 Z M 452.3 729.2 C 451.6 729.1 452.8 728.8 452.8 729.0 C 452.1 729.0 453.3 729.3 453.9 729.3 C 453.9 729.6 453.6 729.5 453.9 729.9 C 452.9 729.9 453.7 729.5 453.1 729.5 C 452.6 729.7 453.1 729.6 453.0 729.9 C 452.8 729.9 452.5 729.9 452.2 729.8 C 452.2 729.7 452.3 729.5 452.3 729.3 C 452.6 729.3 452.9 729.4 452.8 729.2 C 452.6 729.2 452.5 729.2 452.3 729.2 C 452.3 729.2 452.3 729.2 452.3 729.2 Z M 501.2 724.6 C 500.7 724.8 501.2 724.8 501.6 724.7 C 501.6 724.5 501.8 723.8 502.4 723.9 C 501.3 724.6 503.0 724.2 502.3 724.6 C 501.9 724.4 501.3 725.1 500.6 725.2 C 500.3 725.1 500.8 724.4 501.2 724.6 C 501.2 724.6 501.2 724.6 501.2 724.6 Z M 503.5 723.9 C 503.4 723.9 503.2 723.9 502.8 724.1 C 503.2 723.7 502.6 723.9 503.0 723.6 C 503.0 723.7 504.7 723.2 503.8 723.6 C 502.9 723.8 504.1 723.7 504.5 723.6 C 504.0 723.7 503.4 724.4 503.2 724.2 C 503.4 724.1 503.6 724.0 503.5 723.9 C 503.5 723.9 503.5 723.9 503.5 723.9 Z M 515.7 714.8 C 515.5 714.7 515.4 714.9 515.3 714.9 C 515.7 714.3 515.9 713.8 516.1 713.5 C 516.0 713.8 516.2 713.8 516.4 713.7 C 516.2 714.0 516.3 714.2 516.1 714.2 C 516.0 713.8 515.9 714.4 515.7 714.8 C 515.7 714.8 515.7 714.8 515.7 714.8 Z M 515.7 714.8 " fill="#C43100"></path></g></svg>