<?xml version="1.0" encoding="UTF-8" standalone="no"?><svg xmlns="http://www.w3.org/2000/svg" xmlns:xlink="http://www.w3.org/1999/xlink" clip-rule="evenodd" stroke-miterlimit="10" viewBox="0 0 977 50"><desc>SVG generated by Keynote</desc><defs></defs><g transform="matrix(1.00, 0.00, -0.00, -1.00, 0.0, 50.0)"><text xml:space="preserve" font-family="HelveticaNeue-Thin,Helvetica Neue" font-size="49.0" fill="#EBEAE9" transform="matrix(1.00, 0.00, -0.00, -1.00, -1.3, 12.1)">h</text><text xml:space="preserve" font-family="HelveticaNeue-Thin,Helvetica Neue" font-size="49.0" fill="#EBEAE9" transform="matrix(1.00, 0.00, -0.00, -1.00, 24.2, 12.1)">t</text><text xml:space="preserve" font-family="HelveticaNeue-Thin,Helvetica Neue" font-size="49.0" fill="#EBEAE9" transform="matrix(1.00, 0.00, -0.00, -1.00, 36.9, 12.1)">t</text><text xml:space="preserve" font-family="HelveticaNeue-Thin,Helvetica Neue" font-size="49.0" fill="#EBEAE9" transform="matrix(1.00, 0.00, -0.00, -1.00, 49.6, 12.1)">p</text><text xml:space="preserve" font-family="HelveticaNeue-Thin,Helvetica Neue" font-size="49.0" fill="#EBEAE9" transform="matrix(1.00, 0.00, -0.00, -1.00, 76.8, 12.1)">s</text><text xml:space="preserve" font-family="HelveticaNeue-Thin,Helvetica Neue" font-size="49.0" fill="#EBEAE9" transform="matrix(1.00, 0.00, -0.00, -1.00, 100.4, 12.1)">:</text><text xml:space="preserve" font-family="HelveticaNeue-Thin,Helvetica Neue" font-size="49.0" fill="#EBEAE9" transform="matrix(1.00, 0.00, -0.00, -1.00, 114.0, 12.1)">/</text><text xml:space="preserve" font-family="HelveticaNeue-Thin,Helvetica Neue" font-size="49.0" fill="#EBEAE9" transform="matrix(1.00, 0.00, -0.00, -1.00, 130.3, 12.1)">/</text><text xml:space="preserve" font-family="HelveticaNeue-Thin,Helvetica Neue" font-size="49.0" fill="#EBEAE9" transform="matrix(1.00, 0.00, -0.00, -1.00, 146.6, 12.1)">l</text><text xml:space="preserve" font-family="HelveticaNeue-Thin,Helvetica Neue" font-size="49.0" fill="#EBEAE9" transform="matrix(1.00, 0.00, -0.00, -1.00, 154.9, 12.1)">i</text><text xml:space="preserve" font-family="HelveticaNeue-Thin,Helvetica Neue" font-size="49.0" fill="#EBEAE9" transform="matrix(1.00, 0.00, -0.00, -1.00, 163.1, 12.1)">s</text><text xml:space="preserve" font-family="HelveticaNeue-Thin,Helvetica Neue" font-size="49.0" fill="#EBEAE9" transform="matrix(1.00, 0.00, -0.00, -1.00, 186.7, 12.1)">t</text><text xml:space="preserve" font-family="HelveticaNeue-Thin,Helvetica Neue" font-size="49.0" fill="#EBEAE9" transform="matrix(1.00, 0.00, -0.00, -1.00, 199.3, 12.1)">s</text><text xml:space="preserve" font-family="HelveticaNeue-Thin,Helvetica Neue" font-size="49.0" fill="#EBEAE9" transform="matrix(1.00, 0.00, -0.00, -1.00, 222.9, 12.1)">.</text><text xml:space="preserve" font-family="HelveticaNeue-Thin,Helvetica Neue" font-size="49.0" fill="#EBEAE9" transform="matrix(1.00, 0.00, -0.00, -1.00, 236.5, 12.1)">o</text><text xml:space="preserve" font-family="HelveticaNeue-Thin,Helvetica Neue" font-size="49.0" fill="#EBEAE9" transform="matrix(1.00, 0.00, -0.00, -1.00, 262.8, 12.1)">p</text><text xml:space="preserve" font-family="HelveticaNeue-Thin,Helvetica Neue" font-size="49.0" fill="#EBEAE9" transform="matrix(1.00, 0.00, -0.00, -1.00, 290.1, 12.1)">e</text><text xml:space="preserve" font-family="HelveticaNeue-Thin,Helvetica Neue" font-size="49.0" fill="#EBEAE9" transform="matrix(1.00, 0.00, -0.00, -1.00, 315.5, 12.1)">n</text><text xml:space="preserve" font-family="HelveticaNeue-Thin,Helvetica Neue" font-size="49.0" fill="#EBEAE9" transform="matrix(1.00, 0.00, -0.00, -1.00, 341.0, 12.1)">s</text><text xml:space="preserve" font-family="HelveticaNeue-Thin,Helvetica Neue" font-size="49.0" fill="#EBEAE9" transform="matrix(1.00, 0.00, -0.00, -1.00, 364.5, 12.1)">t</text><text xml:space="preserve" font-family="HelveticaNeue-Thin,Helvetica Neue" font-size="49.0" fill="#EBEAE9" transform="matrix(1.00, 0.00, -0.00, -1.00, 377.2, 12.1)">r</text><text xml:space="preserve" font-family="HelveticaNeue-Thin,Helvetica Neue" font-size="49.0" fill="#EBEAE9" transform="matrix(1.00, 0.00, -0.00, -1.00, 390.2, 12.1)">e</text><text xml:space="preserve" font-family="HelveticaNeue-Thin,Helvetica Neue" font-size="49.0" fill="#EBEAE9" transform="matrix(1.00, 0.00, -0.00, -1.00, 415.7, 12.1)">e</text><text xml:space="preserve" font-family="HelveticaNeue-Thin,Helvetica Neue" font-size="49.0" fill="#EBEAE9" transform="matrix(1.00, 0.00, -0.00, -1.00, 441.1, 12.1)">t</text><text xml:space="preserve" font-family="HelveticaNeue-Thin,Helvetica Neue" font-size="49.0" fill="#EBEAE9" transform="matrix(1.00, 0.00, -0.00, -1.00, 453.8, 12.1)">m</text><text xml:space="preserve" font-family="HelveticaNeue-Thin,Helvetica Neue" font-size="49.0" fill="#EBEAE9" transform="matrix(1.00, 0.00, -0.00, -1.00, 492.8, 12.1)">a</text><text xml:space="preserve" font-family="HelveticaNeue-Thin,Helvetica Neue" font-size="49.0" fill="#EBEAE9" transform="matrix(1.00, 0.00, -0.00, -1.00, 517.3, 12.1)">p</text><text xml:space="preserve" font-family="HelveticaNeue-Thin,Helvetica Neue" font-size="49.0" fill="#EBEAE9" transform="matrix(1.00, 0.00, -0.00, -1.00, 544.6, 12.1)">.</text><text xml:space="preserve" font-family="HelveticaNeue-Thin,Helvetica Neue" font-size="49.0" fill="#EBEAE9" transform="matrix(1.00, 0.00, -0.00, -1.00, 558.2, 12.1)">o</text><text xml:space="preserve" font-family="HelveticaNeue-Thin,Helvetica Neue" font-size="49.0" fill="#EBEAE9" transform="matrix(1.00, 0.00, -0.00, -1.00, 584.5, 12.1)">r</text><text xml:space="preserve" font-family="HelveticaNeue-Thin,Helvetica Neue" font-size="49.0" fill="#EBEAE9" transform="matrix(1.00, 0.00, -0.00, -1.00, 597.5, 12.1)">g</text><text xml:space="preserve" font-family="HelveticaNeue-Thin,Helvetica Neue" font-size="49.0" fill="#EBEAE9" transform="matrix(1.00, 0.00, -0.00, -1.00, 623.8, 12.1)">/</text><text xml:space="preserve" font-family="HelveticaNeue-Thin,Helvetica Neue" font-size="49.0" fill="#EBEAE9" transform="matrix(1.00, 0.00, -0.00, -1.00, 640.1, 12.1)">l</text><text xml:space="preserve" font-family="HelveticaNeue-Thin,Helvetica Neue" font-size="49.0" fill="#EBEAE9" transform="matrix(1.00, 0.00, -0.00, -1.00, 648.4, 12.1)">i</text><text xml:space="preserve" font-family="HelveticaNeue-Thin,Helvetica Neue" font-size="49.0" fill="#EBEAE9" transform="matrix(1.00, 0.00, -0.00, -1.00, 656.6, 12.1)">s</text><text xml:space="preserve" font-family="HelveticaNeue-Thin,Helvetica Neue" font-size="49.0" fill="#EBEAE9" transform="matrix(1.00, 0.00, -0.00, -1.00, 680.2, 12.1)">t</text><text xml:space="preserve" font-family="HelveticaNeue-Thin,Helvetica Neue" font-size="49.0" fill="#EBEAE9" transform="matrix(1.00, 0.00, -0.00, -1.00, 692.9, 12.1)">i</text><text xml:space="preserve" font-family="HelveticaNeue-Thin,Helvetica Neue" font-size="49.0" fill="#EBEAE9" transform="matrix(1.00, 0.00, -0.00, -1.00, 701.1, 12.1)">n</text><text xml:space="preserve" font-family="HelveticaNeue-Thin,Helvetica Neue" font-size="49.0" fill="#EBEAE9" transform="matrix(1.00, 0.00, -0.00, -1.00, 726.5, 12.1)">f</text><text xml:space="preserve" font-family="HelveticaNeue-Thin,Helvetica Neue" font-size="49.0" fill="#EBEAE9" transform="matrix(1.00, 0.00, -0.00, -1.00, 738.3, 12.1)">o</text><text xml:space="preserve" font-family="HelveticaNeue-Thin,Helvetica Neue" font-size="49.0" fill="#EBEAE9" transform="matrix(1.00, 0.00, -0.00, -1.00, 764.7, 12.1)">/</text><text xml:space="preserve" font-family="HelveticaNeue-Thin,Helvetica Neue" font-size="49.0" fill="#EBEAE9" transform="matrix(1.00, 0.00, -0.00, -1.00, 781.0, 12.1)">t</text><text xml:space="preserve" font-family="HelveticaNeue-Thin,Helvetica Neue" font-size="49.0" fill="#EBEAE9" transform="matrix(1.00, 0.00, -0.00, -1.00, 793.7, 12.1)">a</text><text xml:space="preserve" font-family="HelveticaNeue-Thin,Helvetica Neue" font-size="49.0" fill="#EBEAE9" transform="matrix(1.00, 0.00, -0.00, -1.00, 818.2, 12.1)">l</text><text xml:space="preserve" font-family="HelveticaNeue-Thin,Helvetica Neue" font-size="49.0" fill="#EBEAE9" transform="matrix(1.00, 0.00, -0.00, -1.00, 826.4, 12.1)">k</text><text xml:space="preserve" font-family="HelveticaNeue-Thin,Helvetica Neue" font-size="49.0" fill="#EBEAE9" transform="matrix(1.00, 0.00, -0.00, -1.00, 849.1, 12.1)">-</text><text xml:space="preserve" font-family="HelveticaNeue-Thin,Helvetica Neue" font-size="49.0" fill="#EBEAE9" transform="matrix(1.00, 0.00, -0.00, -1.00, 866.3, 12.1)">l</text><text xml:space="preserve" font-family="HelveticaNeue-Thin,Helvetica Neue" font-size="49.0" fill="#EBEAE9" transform="matrix(1.00, 0.00, -0.00, -1.00, 874.6, 12.1)">a</text><text xml:space="preserve" font-family="HelveticaNeue-Thin,Helvetica Neue" font-size="49.0" fill="#EBEAE9" transform="matrix(1.00, 0.00, -0.00, -1.00, 899.1, 12.1)">t</text><text xml:space="preserve" font-family="HelveticaNeue-Thin,Helvetica Neue" font-size="49.0" fill="#EBEAE9" transform="matrix(1.00, 0.00, -0.00, -1.00, 911.8, 12.1)">a</text><text xml:space="preserve" font-family="HelveticaNeue-Thin,Helvetica Neue" font-size="49.0" fill="#EBEAE9" transform="matrix(1.00, 0.00, -0.00, -1.00, 936.3, 12.1)">m</text><text xml:space="preserve" font-family="HelveticaNeue-Thin,Helvetica Neue" font-size="49.0" fill="#EBEAE9" transform="matrix(1.00, 0.00, -0.00, -1.00, 975.3, 12.1)"> </text></g></svg>