<?xml version="1.0" encoding="UTF-8" standalone="no"?><svg xmlns="http://www.w3.org/2000/svg" xmlns:xlink="http://www.w3.org/1999/xlink" clip-rule="evenodd" stroke-miterlimit="10" viewBox="0 0 1225 48"><desc>SVG generated by Keynote</desc><defs></defs><g transform="matrix(1.00, 0.00, -0.00, -1.00, 0.0, 48.0)"><text xml:space="preserve" font-family="HelveticaNeue-Thin,Helvetica Neue" font-size="49.0" fill="#EBEAE9" transform="matrix(1.00, 0.00, -0.00, -1.00, -1.0, 10.8)">L</text><text xml:space="preserve" font-family="HelveticaNeue-Thin,Helvetica Neue" font-size="49.0" fill="#EBEAE9" transform="matrix(1.00, 0.00, -0.00, -1.00, 22.6, 10.8)">o</text><text xml:space="preserve" font-family="HelveticaNeue-Thin,Helvetica Neue" font-size="49.0" fill="#EBEAE9" transform="matrix(1.00, 0.00, -0.00, -1.00, 48.9, 10.8)">c</text><text xml:space="preserve" font-family="HelveticaNeue-Thin,Helvetica Neue" font-size="49.0" fill="#EBEAE9" transform="matrix(1.00, 0.00, -0.00, -1.00, 74.4, 10.8)">a</text><text xml:space="preserve" font-family="HelveticaNeue-Thin,Helvetica Neue" font-size="49.0" fill="#EBEAE9" transform="matrix(1.00, 0.00, -0.00, -1.00, 98.9, 10.8)">l</text><text xml:space="preserve" font-family="HelveticaNeue-Thin,Helvetica Neue" font-size="49.0" fill="#EBEAE9" transform="matrix(1.00, 0.00, -0.00, -1.00, 107.1, 10.8)"> </text><text xml:space="preserve" font-family="HelveticaNeue-Thin,Helvetica Neue" font-size="49.0" fill="#EBEAE9" transform="matrix(1.00, 0.00, -0.00, -1.00, 120.7, 10.8)">a</text><text xml:space="preserve" font-family="HelveticaNeue-Thin,Helvetica Neue" font-size="49.0" fill="#EBEAE9" transform="matrix(1.00, 0.00, -0.00, -1.00, 145.2, 10.8)">n</text><text xml:space="preserve" font-family="HelveticaNeue-Thin,Helvetica Neue" font-size="49.0" fill="#EBEAE9" transform="matrix(1.00, 0.00, -0.00, -1.00, 170.7, 10.8)">d</text><text xml:space="preserve" font-family="HelveticaNeue-Thin,Helvetica Neue" font-size="49.0" fill="#EBEAE9" transform="matrix(1.00, 0.00, -0.00, -1.00, 197.9, 10.8)"> </text><text xml:space="preserve" font-family="HelveticaNeue-Thin,Helvetica Neue" font-size="49.0" fill="#EBEAE9" transform="matrix(1.00, 0.00, -0.00, -1.00, 211.5, 10.8)">i</text><text xml:space="preserve" font-family="HelveticaNeue-Thin,Helvetica Neue" font-size="49.0" fill="#EBEAE9" transform="matrix(1.00, 0.00, -0.00, -1.00, 219.8, 10.8)">n</text><text xml:space="preserve" font-family="HelveticaNeue-Thin,Helvetica Neue" font-size="49.0" fill="#EBEAE9" transform="matrix(1.00, 0.00, -0.00, -1.00, 245.2, 10.8)">t</text><text xml:space="preserve" font-family="HelveticaNeue-Thin,Helvetica Neue" font-size="49.0" fill="#EBEAE9" transform="matrix(1.00, 0.00, -0.00, -1.00, 257.2, 10.8)">e</text><text xml:space="preserve" font-family="HelveticaNeue-Thin,Helvetica Neue" font-size="49.0" fill="#EBEAE9" transform="matrix(1.00, 0.00, -0.00, -1.00, 282.6, 10.8)">r</text><text xml:space="preserve" font-family="HelveticaNeue-Thin,Helvetica Neue" font-size="49.0" fill="#EBEAE9" transform="matrix(1.00, 0.00, -0.00, -1.00, 296.2, 10.8)">n</text><text xml:space="preserve" font-family="HelveticaNeue-Thin,Helvetica Neue" font-size="49.0" fill="#EBEAE9" transform="matrix(1.00, 0.00, -0.00, -1.00, 321.7, 10.8)">a</text><text xml:space="preserve" font-family="HelveticaNeue-Thin,Helvetica Neue" font-size="49.0" fill="#EBEAE9" transform="matrix(1.00, 0.00, -0.00, -1.00, 346.2, 10.8)">t</text><text xml:space="preserve" font-family="HelveticaNeue-Thin,Helvetica Neue" font-size="49.0" fill="#EBEAE9" transform="matrix(1.00, 0.00, -0.00, -1.00, 358.9, 10.8)">i</text><text xml:space="preserve" font-family="HelveticaNeue-Thin,Helvetica Neue" font-size="49.0" fill="#EBEAE9" transform="matrix(1.00, 0.00, -0.00, -1.00, 367.1, 10.8)">o</text><text xml:space="preserve" font-family="HelveticaNeue-Thin,Helvetica Neue" font-size="49.0" fill="#EBEAE9" transform="matrix(1.00, 0.00, -0.00, -1.00, 393.4, 10.8)">n</text><text xml:space="preserve" font-family="HelveticaNeue-Thin,Helvetica Neue" font-size="49.0" fill="#EBEAE9" transform="matrix(1.00, 0.00, -0.00, -1.00, 418.8, 10.8)">a</text><text xml:space="preserve" font-family="HelveticaNeue-Thin,Helvetica Neue" font-size="49.0" fill="#EBEAE9" transform="matrix(1.00, 0.00, -0.00, -1.00, 443.3, 10.8)">l</text><text xml:space="preserve" font-family="HelveticaNeue-Thin,Helvetica Neue" font-size="49.0" fill="#EBEAE9" transform="matrix(1.00, 0.00, -0.00, -1.00, 451.6, 10.8)"> </text><text xml:space="preserve" font-family="HelveticaNeue-Thin,Helvetica Neue" font-size="49.0" fill="#EBEAE9" transform="matrix(1.00, 0.00, -0.00, -1.00, 465.2, 10.8)">s</text><text xml:space="preserve" font-family="HelveticaNeue-Thin,Helvetica Neue" font-size="49.0" fill="#EBEAE9" transform="matrix(1.00, 0.00, -0.00, -1.00, 488.8, 10.8)">c</text><text xml:space="preserve" font-family="HelveticaNeue-Thin,Helvetica Neue" font-size="49.0" fill="#EBEAE9" transform="matrix(1.00, 0.00, -0.00, -1.00, 514.2, 10.8)">h</text><text xml:space="preserve" font-family="HelveticaNeue-Thin,Helvetica Neue" font-size="49.0" fill="#EBEAE9" transform="matrix(1.00, 0.00, -0.00, -1.00, 539.6, 10.8)">o</text><text xml:space="preserve" font-family="HelveticaNeue-Thin,Helvetica Neue" font-size="49.0" fill="#EBEAE9" transform="matrix(1.00, 0.00, -0.00, -1.00, 565.9, 10.8)">l</text><text xml:space="preserve" font-family="HelveticaNeue-Thin,Helvetica Neue" font-size="49.0" fill="#EBEAE9" transform="matrix(1.00, 0.00, -0.00, -1.00, 574.2, 10.8)">a</text><text xml:space="preserve" font-family="HelveticaNeue-Thin,Helvetica Neue" font-size="49.0" fill="#EBEAE9" transform="matrix(1.00, 0.00, -0.00, -1.00, 598.7, 10.8)">r</text><text xml:space="preserve" font-family="HelveticaNeue-Thin,Helvetica Neue" font-size="49.0" fill="#EBEAE9" transform="matrix(1.00, 0.00, -0.00, -1.00, 612.3, 10.8)">l</text><text xml:space="preserve" font-family="HelveticaNeue-Thin,Helvetica Neue" font-size="49.0" fill="#EBEAE9" transform="matrix(1.00, 0.00, -0.00, -1.00, 620.5, 10.8)">y</text><text xml:space="preserve" font-family="HelveticaNeue-Thin,Helvetica Neue" font-size="49.0" fill="#EBEAE9" transform="matrix(1.00, 0.00, -0.00, -1.00, 639.1, 10.8)">,</text><text xml:space="preserve" font-family="HelveticaNeue-Thin,Helvetica Neue" font-size="49.0" fill="#EBEAE9" transform="matrix(1.00, 0.00, -0.00, -1.00, 652.7, 10.8)"> </text><text xml:space="preserve" font-family="HelveticaNeue-Thin,Helvetica Neue" font-size="49.0" fill="#EBEAE9" transform="matrix(1.00, 0.00, -0.00, -1.00, 666.3, 10.8)">G</text><text xml:space="preserve" font-family="HelveticaNeue-Thin,Helvetica Neue" font-size="49.0" fill="#EBEAE9" transform="matrix(1.00, 0.00, -0.00, -1.00, 702.7, 10.8)">L</text><text xml:space="preserve" font-family="HelveticaNeue-Thin,Helvetica Neue" font-size="49.0" fill="#EBEAE9" transform="matrix(1.00, 0.00, -0.00, -1.00, 727.2, 10.8)">A</text><text xml:space="preserve" font-family="HelveticaNeue-Thin,Helvetica Neue" font-size="49.0" fill="#EBEAE9" transform="matrix(1.00, 0.00, -0.00, -1.00, 756.2, 10.8)">M</text><text xml:space="preserve" font-family="HelveticaNeue-Thin,Helvetica Neue" font-size="49.0" fill="#EBEAE9" transform="matrix(1.00, 0.00, -0.00, -1.00, 795.8, 10.8)"> </text><text xml:space="preserve" font-family="HelveticaNeue-Thin,Helvetica Neue" font-size="49.0" fill="#EBEAE9" transform="matrix(1.00, 0.00, -0.00, -1.00, 809.5, 10.8)">a</text><text xml:space="preserve" font-family="HelveticaNeue-Thin,Helvetica Neue" font-size="49.0" fill="#EBEAE9" transform="matrix(1.00, 0.00, -0.00, -1.00, 834.0, 10.8)">n</text><text xml:space="preserve" font-family="HelveticaNeue-Thin,Helvetica Neue" font-size="49.0" fill="#EBEAE9" transform="matrix(1.00, 0.00, -0.00, -1.00, 859.4, 10.8)">d</text><text xml:space="preserve" font-family="HelveticaNeue-Thin,Helvetica Neue" font-size="49.0" fill="#EBEAE9" transform="matrix(1.00, 0.00, -0.00, -1.00, 886.6, 10.8)"> </text><text xml:space="preserve" font-family="HelveticaNeue-Thin,Helvetica Neue" font-size="49.0" fill="#EBEAE9" transform="matrix(1.00, 0.00, -0.00, -1.00, 900.3, 10.8)">e</text><text xml:space="preserve" font-family="HelveticaNeue-Thin,Helvetica Neue" font-size="49.0" fill="#EBEAE9" transform="matrix(1.00, 0.00, -0.00, -1.00, 925.1, 10.8)">x</text><text xml:space="preserve" font-family="HelveticaNeue-Thin,Helvetica Neue" font-size="49.0" fill="#EBEAE9" transform="matrix(1.00, 0.00, -0.00, -1.00, 946.9, 10.8)">p</text><text xml:space="preserve" font-family="HelveticaNeue-Thin,Helvetica Neue" font-size="49.0" fill="#EBEAE9" transform="matrix(1.00, 0.00, -0.00, -1.00, 974.1, 10.8)">e</text><text xml:space="preserve" font-family="HelveticaNeue-Thin,Helvetica Neue" font-size="49.0" fill="#EBEAE9" transform="matrix(1.00, 0.00, -0.00, -1.00, 999.5, 10.8)">r</text><text xml:space="preserve" font-family="HelveticaNeue-Thin,Helvetica Neue" font-size="49.0" fill="#EBEAE9" transform="matrix(1.00, 0.00, -0.00, -1.00, 1014.4, 10.8)">t</text><text xml:space="preserve" font-family="HelveticaNeue-Thin,Helvetica Neue" font-size="49.0" fill="#EBEAE9" transform="matrix(1.00, 0.00, -0.00, -1.00, 1027.1, 10.8)"> </text><text xml:space="preserve" font-family="HelveticaNeue-Thin,Helvetica Neue" font-size="49.0" fill="#EBEAE9" transform="matrix(1.00, 0.00, -0.00, -1.00, 1040.8, 10.8)">n</text><text xml:space="preserve" font-family="HelveticaNeue-Thin,Helvetica Neue" font-size="49.0" fill="#EBEAE9" transform="matrix(1.00, 0.00, -0.00, -1.00, 1066.2, 10.8)">e</text><text xml:space="preserve" font-family="HelveticaNeue-Thin,Helvetica Neue" font-size="49.0" fill="#EBEAE9" transform="matrix(1.00, 0.00, -0.00, -1.00, 1091.6, 10.8)">t</text><text xml:space="preserve" font-family="HelveticaNeue-Thin,Helvetica Neue" font-size="49.0" fill="#EBEAE9" transform="matrix(1.00, 0.00, -0.00, -1.00, 1104.3, 10.8)">w</text><text xml:space="preserve" font-family="HelveticaNeue-Thin,Helvetica Neue" font-size="49.0" fill="#EBEAE9" transform="matrix(1.00, 0.00, -0.00, -1.00, 1138.8, 10.8)">o</text><text xml:space="preserve" font-family="HelveticaNeue-Thin,Helvetica Neue" font-size="49.0" fill="#EBEAE9" transform="matrix(1.00, 0.00, -0.00, -1.00, 1165.1, 10.8)">r</text><text xml:space="preserve" font-family="HelveticaNeue-Thin,Helvetica Neue" font-size="49.0" fill="#EBEAE9" transform="matrix(1.00, 0.00, -0.00, -1.00, 1178.7, 10.8)">k</text><text xml:space="preserve" font-family="HelveticaNeue-Thin,Helvetica Neue" font-size="49.0" fill="#EBEAE9" transform="matrix(1.00, 0.00, -0.00, -1.00, 1201.4, 10.8)">s</text></g></svg>