<?xml version="1.0" encoding="UTF-8" standalone="no"?><svg xmlns="http://www.w3.org/2000/svg" xmlns:xlink="http://www.w3.org/1999/xlink" clip-rule="evenodd" stroke-miterlimit="10" viewBox="0 0 1249 49"><desc>SVG generated by Keynote</desc><defs></defs><g transform="matrix(1.00, 0.00, -0.00, -1.00, 0.0, 49.0)"><text xml:space="preserve" font-family="HelveticaNeue-Thin,Helvetica Neue" font-size="49.0" fill="#EBEAE9" transform="matrix(1.00, 0.00, -0.00, -1.00, 2.1, 10.9)">W</text><text xml:space="preserve" font-family="HelveticaNeue-Thin,Helvetica Neue" font-size="49.0" fill="#EBEAE9" transform="matrix(1.00, 0.00, -0.00, -1.00, 46.8, 10.9)">i</text><text xml:space="preserve" font-family="HelveticaNeue-Thin,Helvetica Neue" font-size="49.0" fill="#EBEAE9" transform="matrix(1.00, 0.00, -0.00, -1.00, 55.0, 10.9)">k</text><text xml:space="preserve" font-family="HelveticaNeue-Thin,Helvetica Neue" font-size="49.0" fill="#EBEAE9" transform="matrix(1.00, 0.00, -0.00, -1.00, 77.7, 10.9)">i</text><text xml:space="preserve" font-family="HelveticaNeue-Thin,Helvetica Neue" font-size="49.0" fill="#EBEAE9" transform="matrix(1.00, 0.00, -0.00, -1.00, 85.9, 10.9)">m</text><text xml:space="preserve" font-family="HelveticaNeue-Thin,Helvetica Neue" font-size="49.0" fill="#EBEAE9" transform="matrix(1.00, 0.00, -0.00, -1.00, 125.0, 10.9)">e</text><text xml:space="preserve" font-family="HelveticaNeue-Thin,Helvetica Neue" font-size="49.0" fill="#EBEAE9" transform="matrix(1.00, 0.00, -0.00, -1.00, 150.4, 10.9)">d</text><text xml:space="preserve" font-family="HelveticaNeue-Thin,Helvetica Neue" font-size="49.0" fill="#EBEAE9" transform="matrix(1.00, 0.00, -0.00, -1.00, 177.6, 10.9)">i</text><text xml:space="preserve" font-family="HelveticaNeue-Thin,Helvetica Neue" font-size="49.0" fill="#EBEAE9" transform="matrix(1.00, 0.00, -0.00, -1.00, 185.9, 10.9)">a</text><text xml:space="preserve" font-family="HelveticaNeue-Thin,Helvetica Neue" font-size="49.0" fill="#EBEAE9" transform="matrix(1.00, 0.00, -0.00, -1.00, 210.4, 10.9)"> </text><text xml:space="preserve" font-family="HelveticaNeue-Thin,Helvetica Neue" font-size="49.0" fill="#EBEAE9" transform="matrix(1.00, 0.00, -0.00, -1.00, 224.0, 10.9)">I</text><text xml:space="preserve" font-family="HelveticaNeue-Thin,Helvetica Neue" font-size="49.0" fill="#EBEAE9" transform="matrix(1.00, 0.00, -0.00, -1.00, 232.3, 10.9)">n</text><text xml:space="preserve" font-family="HelveticaNeue-Thin,Helvetica Neue" font-size="49.0" fill="#EBEAE9" transform="matrix(1.00, 0.00, -0.00, -1.00, 257.7, 10.9)">d</text><text xml:space="preserve" font-family="HelveticaNeue-Thin,Helvetica Neue" font-size="49.0" fill="#EBEAE9" transform="matrix(1.00, 0.00, -0.00, -1.00, 285.0, 10.9)">o</text><text xml:space="preserve" font-family="HelveticaNeue-Thin,Helvetica Neue" font-size="49.0" fill="#EBEAE9" transform="matrix(1.00, 0.00, -0.00, -1.00, 311.3, 10.9)">n</text><text xml:space="preserve" font-family="HelveticaNeue-Thin,Helvetica Neue" font-size="49.0" fill="#EBEAE9" transform="matrix(1.00, 0.00, -0.00, -1.00, 336.7, 10.9)">e</text><text xml:space="preserve" font-family="HelveticaNeue-Thin,Helvetica Neue" font-size="49.0" fill="#EBEAE9" transform="matrix(1.00, 0.00, -0.00, -1.00, 362.2, 10.9)">s</text><text xml:space="preserve" font-family="HelveticaNeue-Thin,Helvetica Neue" font-size="49.0" fill="#EBEAE9" transform="matrix(1.00, 0.00, -0.00, -1.00, 385.7, 10.9)">i</text><text xml:space="preserve" font-family="HelveticaNeue-Thin,Helvetica Neue" font-size="49.0" fill="#EBEAE9" transform="matrix(1.00, 0.00, -0.00, -1.00, 394.0, 10.9)">a</text><text xml:space="preserve" font-family="HelveticaNeue-Thin,Helvetica Neue" font-size="49.0" fill="#EBEAE9" transform="matrix(1.00, 0.00, -0.00, -1.00, 418.5, 10.9)"> </text><text xml:space="preserve" font-family="HelveticaNeue-Thin,Helvetica Neue" font-size="49.0" fill="#EBEAE9" transform="matrix(1.00, 0.00, -0.00, -1.00, 432.1, 10.9)">a</text><text xml:space="preserve" font-family="HelveticaNeue-Thin,Helvetica Neue" font-size="49.0" fill="#EBEAE9" transform="matrix(1.00, 0.00, -0.00, -1.00, 456.6, 10.9)">n</text><text xml:space="preserve" font-family="HelveticaNeue-Thin,Helvetica Neue" font-size="49.0" fill="#EBEAE9" transform="matrix(1.00, 0.00, -0.00, -1.00, 482.0, 10.9)">d</text><text xml:space="preserve" font-family="HelveticaNeue-Thin,Helvetica Neue" font-size="49.0" fill="#EBEAE9" transform="matrix(1.00, 0.00, -0.00, -1.00, 509.3, 10.9)"> </text><text xml:space="preserve" font-family="HelveticaNeue-Thin,Helvetica Neue" font-size="49.0" fill="#EBEAE9" transform="matrix(1.00, 0.00, -0.00, -1.00, 522.9, 10.9)">H</text><text xml:space="preserve" font-family="HelveticaNeue-Thin,Helvetica Neue" font-size="49.0" fill="#EBEAE9" transform="matrix(1.00, 0.00, -0.00, -1.00, 555.7, 10.9)">u</text><text xml:space="preserve" font-family="HelveticaNeue-Thin,Helvetica Neue" font-size="49.0" fill="#EBEAE9" transform="matrix(1.00, 0.00, -0.00, -1.00, 581.1, 10.9)">m</text><text xml:space="preserve" font-family="HelveticaNeue-Thin,Helvetica Neue" font-size="49.0" fill="#EBEAE9" transform="matrix(1.00, 0.00, -0.00, -1.00, 620.1, 10.9)">a</text><text xml:space="preserve" font-family="HelveticaNeue-Thin,Helvetica Neue" font-size="49.0" fill="#EBEAE9" transform="matrix(1.00, 0.00, -0.00, -1.00, 644.6, 10.9)">n</text><text xml:space="preserve" font-family="HelveticaNeue-Thin,Helvetica Neue" font-size="49.0" fill="#EBEAE9" transform="matrix(1.00, 0.00, -0.00, -1.00, 670.1, 10.9)">i</text><text xml:space="preserve" font-family="HelveticaNeue-Thin,Helvetica Neue" font-size="49.0" fill="#EBEAE9" transform="matrix(1.00, 0.00, -0.00, -1.00, 678.3, 10.9)">t</text><text xml:space="preserve" font-family="HelveticaNeue-Thin,Helvetica Neue" font-size="49.0" fill="#EBEAE9" transform="matrix(1.00, 0.00, -0.00, -1.00, 691.0, 10.9)">a</text><text xml:space="preserve" font-family="HelveticaNeue-Thin,Helvetica Neue" font-size="49.0" fill="#EBEAE9" transform="matrix(1.00, 0.00, -0.00, -1.00, 715.5, 10.9)">r</text><text xml:space="preserve" font-family="HelveticaNeue-Thin,Helvetica Neue" font-size="49.0" fill="#EBEAE9" transform="matrix(1.00, 0.00, -0.00, -1.00, 729.1, 10.9)">i</text><text xml:space="preserve" font-family="HelveticaNeue-Thin,Helvetica Neue" font-size="49.0" fill="#EBEAE9" transform="matrix(1.00, 0.00, -0.00, -1.00, 737.4, 10.9)">a</text><text xml:space="preserve" font-family="HelveticaNeue-Thin,Helvetica Neue" font-size="49.0" fill="#EBEAE9" transform="matrix(1.00, 0.00, -0.00, -1.00, 761.9, 10.9)">n</text><text xml:space="preserve" font-family="HelveticaNeue-Thin,Helvetica Neue" font-size="49.0" fill="#EBEAE9" transform="matrix(1.00, 0.00, -0.00, -1.00, 787.3, 10.9)"> </text><text xml:space="preserve" font-family="HelveticaNeue-Thin,Helvetica Neue" font-size="49.0" fill="#EBEAE9" transform="matrix(1.00, 0.00, -0.00, -1.00, 800.9, 10.9)">O</text><text xml:space="preserve" font-family="HelveticaNeue-Thin,Helvetica Neue" font-size="49.0" fill="#EBEAE9" transform="matrix(1.00, 0.00, -0.00, -1.00, 837.2, 10.9)">p</text><text xml:space="preserve" font-family="HelveticaNeue-Thin,Helvetica Neue" font-size="49.0" fill="#EBEAE9" transform="matrix(1.00, 0.00, -0.00, -1.00, 864.5, 10.9)">e</text><text xml:space="preserve" font-family="HelveticaNeue-Thin,Helvetica Neue" font-size="49.0" fill="#EBEAE9" transform="matrix(1.00, 0.00, -0.00, -1.00, 889.9, 10.9)">n</text><text xml:space="preserve" font-family="HelveticaNeue-Thin,Helvetica Neue" font-size="49.0" fill="#EBEAE9" transform="matrix(1.00, 0.00, -0.00, -1.00, 915.3, 10.9)">S</text><text xml:space="preserve" font-family="HelveticaNeue-Thin,Helvetica Neue" font-size="49.0" fill="#EBEAE9" transform="matrix(1.00, 0.00, -0.00, -1.00, 946.0, 10.9)">t</text><text xml:space="preserve" font-family="HelveticaNeue-Thin,Helvetica Neue" font-size="49.0" fill="#EBEAE9" transform="matrix(1.00, 0.00, -0.00, -1.00, 958.7, 10.9)">r</text><text xml:space="preserve" font-family="HelveticaNeue-Thin,Helvetica Neue" font-size="49.0" fill="#EBEAE9" transform="matrix(1.00, 0.00, -0.00, -1.00, 971.7, 10.9)">e</text><text xml:space="preserve" font-family="HelveticaNeue-Thin,Helvetica Neue" font-size="49.0" fill="#EBEAE9" transform="matrix(1.00, 0.00, -0.00, -1.00, 997.2, 10.9)">e</text><text xml:space="preserve" font-family="HelveticaNeue-Thin,Helvetica Neue" font-size="49.0" fill="#EBEAE9" transform="matrix(1.00, 0.00, -0.00, -1.00, 1022.6, 10.9)">t</text><text xml:space="preserve" font-family="HelveticaNeue-Thin,Helvetica Neue" font-size="49.0" fill="#EBEAE9" transform="matrix(1.00, 0.00, -0.00, -1.00, 1035.3, 10.9)">M</text><text xml:space="preserve" font-family="HelveticaNeue-Thin,Helvetica Neue" font-size="49.0" fill="#EBEAE9" transform="matrix(1.00, 0.00, -0.00, -1.00, 1074.9, 10.9)">a</text><text xml:space="preserve" font-family="HelveticaNeue-Thin,Helvetica Neue" font-size="49.0" fill="#EBEAE9" transform="matrix(1.00, 0.00, -0.00, -1.00, 1099.4, 10.9)">p</text><text xml:space="preserve" font-family="HelveticaNeue-Thin,Helvetica Neue" font-size="49.0" fill="#EBEAE9" transform="matrix(1.00, 0.00, -0.00, -1.00, 1126.7, 10.9)"> </text><text xml:space="preserve" font-family="HelveticaNeue-Thin,Helvetica Neue" font-size="49.0" fill="#EBEAE9" transform="matrix(1.00, 0.00, -0.00, -1.00, 1140.3, 10.9)">T</text><text xml:space="preserve" font-family="HelveticaNeue-Thin,Helvetica Neue" font-size="49.0" fill="#EBEAE9" transform="matrix(1.00, 0.00, -0.00, -1.00, 1161.0, 10.9)">e</text><text xml:space="preserve" font-family="HelveticaNeue-Thin,Helvetica Neue" font-size="49.0" fill="#EBEAE9" transform="matrix(1.00, 0.00, -0.00, -1.00, 1186.4, 10.9)">a</text><text xml:space="preserve" font-family="HelveticaNeue-Thin,Helvetica Neue" font-size="49.0" fill="#EBEAE9" transform="matrix(1.00, 0.00, -0.00, -1.00, 1210.9, 10.9)">m</text></g></svg>