<?xml version="1.0" encoding="UTF-8" standalone="no"?><svg xmlns="http://www.w3.org/2000/svg" xmlns:xlink="http://www.w3.org/1999/xlink" clip-rule="evenodd" stroke-miterlimit="10" viewBox="0 0 1280 800"><desc>SVG generated by Keynote</desc><defs></defs><g transform="matrix(1.00, 0.00, -0.00, -1.00, 0.0, 800.0)"><path d="M 0.0 800.0 L 1280.0 800.0 L 1280.0 0.0 L 0.0 0.0 Z M 0.0 800.0 " fill="#BBB9B4"></path><g><clipPath id="clip0x6080018aff60"><path d="M 0.0 754.0 L 1280.0 754.0 L 1280.0 46.0 L 0.0 46.0 Z M -0.1 753.9 "></path></clipPath><g clip-path="url(#clip0x6080018aff60)"><image xlink:href="../../3CB47BEF-8B42-4352-A43E-2CBC21597B0A/assets/8DAFE9D943DBC4201DD63FAE0F196C85.png" width="1386.00" height="889.00" transform="matrix(1.01, 0.00, -0.00, -1.01, -57.0, 860.0)"></image></g></g><text xml:space="preserve" font-family="HelveticaNeue-Thin,Helvetica Neue" font-size="54.0" fill="#3B3C1B" transform="matrix(1.00, 0.00, -0.00, -1.00, 23.0, 119.0)">E</text><text xml:space="preserve" font-family="HelveticaNeue-Thin,Helvetica Neue" font-size="54.0" fill="#3B3C1B" transform="matrix(1.00, 0.00, -0.00, -1.00, 53.3, 119.0)">x</text><text xml:space="preserve" font-family="HelveticaNeue-Thin,Helvetica Neue" font-size="54.0" fill="#3B3C1B" transform="matrix(1.00, 0.00, -0.00, -1.00, 77.2, 119.0)">a</text><text xml:space="preserve" font-family="HelveticaNeue-Thin,Helvetica Neue" font-size="54.0" fill="#3B3C1B" transform="matrix(1.00, 0.00, -0.00, -1.00, 104.2, 119.0)">m</text><text xml:space="preserve" font-family="HelveticaNeue-Thin,Helvetica Neue" font-size="54.0" fill="#3B3C1B" transform="matrix(1.00, 0.00, -0.00, -1.00, 147.2, 119.0)">p</text><text xml:space="preserve" font-family="HelveticaNeue-Thin,Helvetica Neue" font-size="54.0" fill="#3B3C1B" transform="matrix(1.00, 0.00, -0.00, -1.00, 177.2, 119.0)">l</text><text xml:space="preserve" font-family="HelveticaNeue-Thin,Helvetica Neue" font-size="54.0" fill="#3B3C1B" transform="matrix(1.00, 0.00, -0.00, -1.00, 186.3, 119.0)">e</text><text xml:space="preserve" font-family="HelveticaNeue-Thin,Helvetica Neue" font-size="54.0" fill="#3B3C1B" transform="matrix(1.00, 0.00, -0.00, -1.00, 214.3, 119.0)">:</text><text xml:space="preserve" font-family="HelveticaNeue-Thin,Helvetica Neue" font-size="54.0" fill="#3B3C1B" transform="matrix(1.00, 0.00, -0.00, -1.00, 229.4, 119.0)"> </text><text xml:space="preserve" font-family="HelveticaNeue-Thin,Helvetica Neue" font-size="54.0" fill="#3B3C1B" transform="matrix(1.00, 0.00, -0.00, -1.00, 244.4, 119.0)">M</text><text xml:space="preserve" font-family="HelveticaNeue-Thin,Helvetica Neue" font-size="54.0" fill="#3B3C1B" transform="matrix(1.00, 0.00, -0.00, -1.00, 288.1, 119.0)">a</text><text xml:space="preserve" font-family="HelveticaNeue-Thin,Helvetica Neue" font-size="54.0" fill="#3B3C1B" transform="matrix(1.00, 0.00, -0.00, -1.00, 315.1, 119.0)">p</text><text xml:space="preserve" font-family="HelveticaNeue-Thin,Helvetica Neue" font-size="54.0" fill="#3B3C1B" transform="matrix(1.00, 0.00, -0.00, -1.00, 345.1, 119.0)">i</text><text xml:space="preserve" font-family="HelveticaNeue-Thin,Helvetica Neue" font-size="54.0" fill="#3B3C1B" transform="matrix(1.00, 0.00, -0.00, -1.00, 354.2, 119.0)">l</text><text xml:space="preserve" font-family="HelveticaNeue-Thin,Helvetica Neue" font-size="54.0" fill="#3B3C1B" transform="matrix(1.00, 0.00, -0.00, -1.00, 363.2, 119.0)">l</text><text xml:space="preserve" font-family="HelveticaNeue-Thin,Helvetica Neue" font-size="54.0" fill="#3B3C1B" transform="matrix(1.00, 0.00, -0.00, -1.00, 372.3, 119.0)">a</text><text xml:space="preserve" font-family="HelveticaNeue-Thin,Helvetica Neue" font-size="54.0" fill="#3B3C1B" transform="matrix(1.00, 0.00, -0.00, -1.00, 399.3, 119.0)">r</text><text xml:space="preserve" font-family="HelveticaNeue-Thin,Helvetica Neue" font-size="54.0" fill="#3B3C1B" transform="matrix(1.00, 0.00, -0.00, -1.00, 415.3, 119.0)">y</text><text xml:space="preserve" font-family="HelveticaNeue-Thin,Helvetica Neue" font-size="54.0" fill="#3B3C1B" transform="matrix(1.00, 0.00, -0.00, -1.00, 435.7, 119.0)">,</text><text xml:space="preserve" font-family="HelveticaNeue-Thin,Helvetica Neue" font-size="54.0" fill="#3B3C1B" transform="matrix(1.00, 0.00, -0.00, -1.00, 450.8, 119.0)"> </text><text xml:space="preserve" font-family="HelveticaNeue-Thin,Helvetica Neue" font-size="54.0" fill="#3B3C1B" transform="matrix(1.00, 0.00, -0.00, -1.00, 465.8, 119.0)">c</text><text xml:space="preserve" font-family="HelveticaNeue-Thin,Helvetica Neue" font-size="54.0" fill="#3B3C1B" transform="matrix(1.00, 0.00, -0.00, -1.00, 493.8, 119.0)">r</text><text xml:space="preserve" font-family="HelveticaNeue-Thin,Helvetica Neue" font-size="54.0" fill="#3B3C1B" transform="matrix(1.00, 0.00, -0.00, -1.00, 508.2, 119.0)">o</text><text xml:space="preserve" font-family="HelveticaNeue-Thin,Helvetica Neue" font-size="54.0" fill="#3B3C1B" transform="matrix(1.00, 0.00, -0.00, -1.00, 537.2, 119.0)">w</text><text xml:space="preserve" font-family="HelveticaNeue-Thin,Helvetica Neue" font-size="54.0" fill="#3B3C1B" transform="matrix(1.00, 0.00, -0.00, -1.00, 575.2, 119.0)">d</text><text xml:space="preserve" font-family="HelveticaNeue-Thin,Helvetica Neue" font-size="54.0" fill="#3B3C1B" transform="matrix(1.00, 0.00, -0.00, -1.00, 605.2, 119.0)">s</text><text xml:space="preserve" font-family="HelveticaNeue-Thin,Helvetica Neue" font-size="54.0" fill="#3B3C1B" transform="matrix(1.00, 0.00, -0.00, -1.00, 631.2, 119.0)">o</text><text xml:space="preserve" font-family="HelveticaNeue-Thin,Helvetica Neue" font-size="54.0" fill="#3B3C1B" transform="matrix(1.00, 0.00, -0.00, -1.00, 660.2, 119.0)">u</text><text xml:space="preserve" font-family="HelveticaNeue-Thin,Helvetica Neue" font-size="54.0" fill="#3B3C1B" transform="matrix(1.00, 0.00, -0.00, -1.00, 688.2, 119.0)">r</text><text xml:space="preserve" font-family="HelveticaNeue-Thin,Helvetica Neue" font-size="54.0" fill="#3B3C1B" transform="matrix(1.00, 0.00, -0.00, -1.00, 702.6, 119.0)">c</text><text xml:space="preserve" font-family="HelveticaNeue-Thin,Helvetica Neue" font-size="54.0" fill="#3B3C1B" transform="matrix(1.00, 0.00, -0.00, -1.00, 730.6, 119.0)">e</text><text xml:space="preserve" font-family="HelveticaNeue-Thin,Helvetica Neue" font-size="54.0" fill="#3B3C1B" transform="matrix(1.00, 0.00, -0.00, -1.00, 758.6, 119.0)">d</text><text xml:space="preserve" font-family="HelveticaNeue-Thin,Helvetica Neue" font-size="54.0" fill="#3B3C1B" transform="matrix(1.00, 0.00, -0.00, -1.00, 788.6, 119.0)"> </text><text xml:space="preserve" font-family="HelveticaNeue-Thin,Helvetica Neue" font-size="54.0" fill="#3B3C1B" transform="matrix(1.00, 0.00, -0.00, -1.00, 803.6, 119.0)">s</text><text xml:space="preserve" font-family="HelveticaNeue-Thin,Helvetica Neue" font-size="54.0" fill="#3B3C1B" transform="matrix(1.00, 0.00, -0.00, -1.00, 829.6, 119.0)">t</text><text xml:space="preserve" font-family="HelveticaNeue-Thin,Helvetica Neue" font-size="54.0" fill="#3B3C1B" transform="matrix(1.00, 0.00, -0.00, -1.00, 843.6, 119.0)">r</text><text xml:space="preserve" font-family="HelveticaNeue-Thin,Helvetica Neue" font-size="54.0" fill="#3B3C1B" transform="matrix(1.00, 0.00, -0.00, -1.00, 858.0, 119.0)">e</text><text xml:space="preserve" font-family="HelveticaNeue-Thin,Helvetica Neue" font-size="54.0" fill="#3B3C1B" transform="matrix(1.00, 0.00, -0.00, -1.00, 886.0, 119.0)">e</text><text xml:space="preserve" font-family="HelveticaNeue-Thin,Helvetica Neue" font-size="54.0" fill="#3B3C1B" transform="matrix(1.00, 0.00, -0.00, -1.00, 914.0, 119.0)">t</text><text xml:space="preserve" font-family="HelveticaNeue-Thin,Helvetica Neue" font-size="54.0" fill="#3B3C1B" transform="matrix(1.00, 0.00, -0.00, -1.00, 928.0, 119.0)"> </text><text xml:space="preserve" font-family="HelveticaNeue-Thin,Helvetica Neue" font-size="54.0" fill="#3B3C1B" transform="matrix(1.00, 0.00, -0.00, -1.00, 943.0, 119.0)">v</text><text xml:space="preserve" font-family="HelveticaNeue-Thin,Helvetica Neue" font-size="54.0" fill="#3B3C1B" transform="matrix(1.00, 0.00, -0.00, -1.00, 967.0, 119.0)">i</text><text xml:space="preserve" font-family="HelveticaNeue-Thin,Helvetica Neue" font-size="54.0" fill="#3B3C1B" transform="matrix(1.00, 0.00, -0.00, -1.00, 976.1, 119.0)">e</text><text xml:space="preserve" font-family="HelveticaNeue-Thin,Helvetica Neue" font-size="54.0" fill="#3B3C1B" transform="matrix(1.00, 0.00, -0.00, -1.00, 1004.1, 119.0)">w</text><text xml:space="preserve" font-family="HelveticaNeue-Thin,Helvetica Neue" font-size="54.0" fill="#3B3C1B" transform="matrix(1.00, 0.00, -0.00, -1.00, 1040.8, 119.0)">,</text><text xml:space="preserve" font-family="HelveticaNeue-Thin,Helvetica Neue" font-size="54.0" fill="#3B3C1B" transform="matrix(1.00, 0.00, -0.00, -1.00, 1055.8, 119.0)"> </text><text xml:space="preserve" font-family="HelveticaNeue-Thin,Helvetica Neue" font-size="54.0" fill="#3B3C1B" transform="matrix(1.00, 0.00, -0.00, -1.00, 1070.8, 119.0)">S</text><text xml:space="preserve" font-family="HelveticaNeue-Thin,Helvetica Neue" font-size="54.0" fill="#3B3C1B" transform="matrix(1.00, 0.00, -0.00, -1.00, 1104.9, 119.0)">w</text><text xml:space="preserve" font-family="HelveticaNeue-Thin,Helvetica Neue" font-size="54.0" fill="#3B3C1B" transform="matrix(1.00, 0.00, -0.00, -1.00, 1142.9, 119.0)">e</text><text xml:space="preserve" font-family="HelveticaNeue-Thin,Helvetica Neue" font-size="54.0" fill="#3B3C1B" transform="matrix(1.00, 0.00, -0.00, -1.00, 1170.9, 119.0)">d</text><text xml:space="preserve" font-family="HelveticaNeue-Thin,Helvetica Neue" font-size="54.0" fill="#3B3C1B" transform="matrix(1.00, 0.00, -0.00, -1.00, 1200.9, 119.0)">e</text><text xml:space="preserve" font-family="HelveticaNeue-Thin,Helvetica Neue" font-size="54.0" fill="#3B3C1B" transform="matrix(1.00, 0.00, -0.00, -1.00, 1229.0, 119.0)">n</text><text xml:space="preserve" font-family="HelveticaNeue-Thin,Helvetica Neue" font-size="54.0" fill="#3B3C1B" transform="matrix(1.00, 0.00, -0.00, -1.00, 1257.0, 119.0)"> </text><text xml:space="preserve" font-family="HelveticaNeue-Thin,Helvetica Neue" font-size="30.0" fill="#3B3C1B" transform="matrix(1.00, 0.00, -0.00, -1.00, 475.7, 77.2)">h</text><text xml:space="preserve" font-family="HelveticaNeue-Thin,Helvetica Neue" font-size="30.0" fill="#3B3C1B" transform="matrix(1.00, 0.00, -0.00, -1.00, 491.3, 77.2)">t</text><text xml:space="preserve" font-family="HelveticaNeue-Thin,Helvetica Neue" font-size="30.0" fill="#3B3C1B" transform="matrix(1.00, 0.00, -0.00, -1.00, 499.0, 77.2)">t</text><text xml:space="preserve" font-family="HelveticaNeue-Thin,Helvetica Neue" font-size="30.0" fill="#3B3C1B" transform="matrix(1.00, 0.00, -0.00, -1.00, 506.8, 77.2)">p</text><text xml:space="preserve" font-family="HelveticaNeue-Thin,Helvetica Neue" font-size="30.0" fill="#3B3C1B" transform="matrix(1.00, 0.00, -0.00, -1.00, 523.5, 77.2)">:</text><text xml:space="preserve" font-family="HelveticaNeue-Thin,Helvetica Neue" font-size="30.0" fill="#3B3C1B" transform="matrix(1.00, 0.00, -0.00, -1.00, 531.8, 77.2)">/</text><text xml:space="preserve" font-family="HelveticaNeue-Thin,Helvetica Neue" font-size="30.0" fill="#3B3C1B" transform="matrix(1.00, 0.00, -0.00, -1.00, 541.8, 77.2)">/</text><text xml:space="preserve" font-family="HelveticaNeue-Thin,Helvetica Neue" font-size="30.0" fill="#3B3C1B" transform="matrix(1.00, 0.00, -0.00, -1.00, 551.8, 77.2)">w</text><text xml:space="preserve" font-family="HelveticaNeue-Thin,Helvetica Neue" font-size="30.0" fill="#3B3C1B" transform="matrix(1.00, 0.00, -0.00, -1.00, 573.5, 77.2)">w</text><text xml:space="preserve" font-family="HelveticaNeue-Thin,Helvetica Neue" font-size="30.0" fill="#3B3C1B" transform="matrix(1.00, 0.00, -0.00, -1.00, 595.2, 77.2)">w</text><text xml:space="preserve" font-family="HelveticaNeue-Thin,Helvetica Neue" font-size="30.0" fill="#3B3C1B" transform="matrix(1.00, 0.00, -0.00, -1.00, 615.6, 77.2)">.</text><text xml:space="preserve" font-family="HelveticaNeue-Thin,Helvetica Neue" font-size="30.0" fill="#3B3C1B" transform="matrix(1.00, 0.00, -0.00, -1.00, 624.0, 77.2)">m</text><text xml:space="preserve" font-family="HelveticaNeue-Thin,Helvetica Neue" font-size="30.0" fill="#3B3C1B" transform="matrix(1.00, 0.00, -0.00, -1.00, 647.9, 77.2)">a</text><text xml:space="preserve" font-family="HelveticaNeue-Thin,Helvetica Neue" font-size="30.0" fill="#3B3C1B" transform="matrix(1.00, 0.00, -0.00, -1.00, 662.9, 77.2)">p</text><text xml:space="preserve" font-family="HelveticaNeue-Thin,Helvetica Neue" font-size="30.0" fill="#3B3C1B" transform="matrix(1.00, 0.00, -0.00, -1.00, 679.5, 77.2)">i</text><text xml:space="preserve" font-family="HelveticaNeue-Thin,Helvetica Neue" font-size="30.0" fill="#3B3C1B" transform="matrix(1.00, 0.00, -0.00, -1.00, 684.6, 77.2)">l</text><text xml:space="preserve" font-family="HelveticaNeue-Thin,Helvetica Neue" font-size="30.0" fill="#3B3C1B" transform="matrix(1.00, 0.00, -0.00, -1.00, 689.6, 77.2)">l</text><text xml:space="preserve" font-family="HelveticaNeue-Thin,Helvetica Neue" font-size="30.0" fill="#3B3C1B" transform="matrix(1.00, 0.00, -0.00, -1.00, 694.7, 77.2)">a</text><text xml:space="preserve" font-family="HelveticaNeue-Thin,Helvetica Neue" font-size="30.0" fill="#3B3C1B" transform="matrix(1.00, 0.00, -0.00, -1.00, 709.7, 77.2)">r</text><text xml:space="preserve" font-family="HelveticaNeue-Thin,Helvetica Neue" font-size="30.0" fill="#3B3C1B" transform="matrix(1.00, 0.00, -0.00, -1.00, 718.5, 77.2)">y</text><text xml:space="preserve" font-family="HelveticaNeue-Thin,Helvetica Neue" font-size="30.0" fill="#3B3C1B" transform="matrix(1.00, 0.00, -0.00, -1.00, 730.4, 77.2)">.</text><text xml:space="preserve" font-family="HelveticaNeue-Thin,Helvetica Neue" font-size="30.0" fill="#3B3C1B" transform="matrix(1.00, 0.00, -0.00, -1.00, 738.8, 77.2)">c</text><text xml:space="preserve" font-family="HelveticaNeue-Thin,Helvetica Neue" font-size="30.0" fill="#3B3C1B" transform="matrix(1.00, 0.00, -0.00, -1.00, 754.3, 77.2)">o</text><text xml:space="preserve" font-family="HelveticaNeue-Thin,Helvetica Neue" font-size="30.0" fill="#3B3C1B" transform="matrix(1.00, 0.00, -0.00, -1.00, 770.4, 77.2)">m</text><text xml:space="preserve" font-family="HelveticaNeue-Thin,Helvetica Neue" font-size="30.0" fill="#3B3C1B" transform="matrix(1.00, 0.00, -0.00, -1.00, 794.3, 77.2)">/</text></g></svg>