<?xml version="1.0" encoding="UTF-8" standalone="no"?><svg xmlns="http://www.w3.org/2000/svg" xmlns:xlink="http://www.w3.org/1999/xlink" clip-rule="evenodd" stroke-miterlimit="10" viewBox="0 0 1024 768"><desc>SVG generated by Keynote</desc><defs></defs><g transform="matrix(1.00, 0.00, -0.00, -1.00, 0.0, 768.0)"><path d="M 0.0 768.0 L 1024.0 768.0 L 1024.0 0.0 L 0.0 0.0 Z M 0.0 768.0 " fill="#000000"></path><text xml:space="preserve" font-family="AvenirNext-Regular,Avenir Next" font-size="42.0" fill="#FEFFFF" transform="matrix(1.00, 0.00, -0.00, -1.00, 163.8, 370.9)">a</text><text xml:space="preserve" font-family="AvenirNext-Regular,Avenir Next" font-size="42.0" fill="#FEFFFF" transform="matrix(1.00, 0.00, -0.00, -1.00, 186.2, 370.9)"> </text><text xml:space="preserve" font-family="AvenirNext-Regular,Avenir Next" font-size="42.0" fill="#FEFFFF" transform="matrix(1.00, 0.00, -0.00, -1.00, 196.7, 370.9)">f</text><text xml:space="preserve" font-family="AvenirNext-Regular,Avenir Next" font-size="42.0" fill="#FEFFFF" transform="matrix(1.00, 0.00, -0.00, -1.00, 209.1, 370.9)">e</text><text xml:space="preserve" font-family="AvenirNext-Regular,Avenir Next" font-size="42.0" fill="#FEFFFF" transform="matrix(1.00, 0.00, -0.00, -1.00, 233.1, 370.9)">w</text><text xml:space="preserve" font-family="AvenirNext-Regular,Avenir Next" font-size="42.0" fill="#FEFFFF" transform="matrix(1.00, 0.00, -0.00, -1.00, 264.5, 370.9)"> </text><text xml:space="preserve" font-family="AvenirNext-Regular,Avenir Next" font-size="42.0" fill="#FEFFFF" transform="matrix(1.00, 0.00, -0.00, -1.00, 275.0, 370.9)">t</text><text xml:space="preserve" font-family="AvenirNext-Regular,Avenir Next" font-size="42.0" fill="#FEFFFF" transform="matrix(1.00, 0.00, -0.00, -1.00, 288.3, 370.9)">h</text><text xml:space="preserve" font-family="AvenirNext-Regular,Avenir Next" font-size="42.0" fill="#FEFFFF" transform="matrix(1.00, 0.00, -0.00, -1.00, 312.8, 370.9)">i</text><text xml:space="preserve" font-family="AvenirNext-Regular,Avenir Next" font-size="42.0" fill="#FEFFFF" transform="matrix(1.00, 0.00, -0.00, -1.00, 323.3, 370.9)">n</text><text xml:space="preserve" font-family="AvenirNext-Regular,Avenir Next" font-size="42.0" fill="#FEFFFF" transform="matrix(1.00, 0.00, -0.00, -1.00, 347.7, 370.9)">g</text><text xml:space="preserve" font-family="AvenirNext-Regular,Avenir Next" font-size="42.0" fill="#FEFFFF" transform="matrix(1.00, 0.00, -0.00, -1.00, 374.2, 370.9)">s</text><text xml:space="preserve" font-family="AvenirNext-Regular,Avenir Next" font-size="42.0" fill="#FEFFFF" transform="matrix(1.00, 0.00, -0.00, -1.00, 392.8, 370.9)"> </text><text xml:space="preserve" font-family="AvenirNext-Regular,Avenir Next" font-size="42.0" fill="#FEFFFF" transform="matrix(1.00, 0.00, -0.00, -1.00, 403.3, 370.9)">w</text><text xml:space="preserve" font-family="AvenirNext-Regular,Avenir Next" font-size="42.0" fill="#FEFFFF" transform="matrix(1.00, 0.00, -0.00, -1.00, 434.7, 370.9)">e</text><text xml:space="preserve" font-family="AvenirNext-Regular,Avenir Next" font-size="42.0" fill="#FEFFFF" transform="matrix(1.00, 0.00, -0.00, -1.00, 458.7, 370.9)">’</text><text xml:space="preserve" font-family="AvenirNext-Regular,Avenir Next" font-size="42.0" fill="#FEFFFF" transform="matrix(1.00, 0.00, -0.00, -1.00, 468.0, 370.9)">v</text><text xml:space="preserve" font-family="AvenirNext-Regular,Avenir Next" font-size="42.0" fill="#FEFFFF" transform="matrix(1.00, 0.00, -0.00, -1.00, 488.5, 370.9)">e</text><text xml:space="preserve" font-family="AvenirNext-Regular,Avenir Next" font-size="42.0" fill="#FEFFFF" transform="matrix(1.00, 0.00, -0.00, -1.00, 512.5, 370.9)"> </text><text xml:space="preserve" font-family="AvenirNext-Regular,Avenir Next" font-size="42.0" fill="#FF2600" transform="matrix(1.00, 0.00, -0.00, -1.00, 523.0, 370.9)">i</text><text xml:space="preserve" font-family="AvenirNext-Regular,Avenir Next" font-size="42.0" fill="#FF2600" transform="matrix(1.00, 0.00, -0.00, -1.00, 533.5, 370.9)">’</text><text xml:space="preserve" font-family="AvenirNext-Regular,Avenir Next" font-size="42.0" fill="#FF2600" transform="matrix(1.00, 0.00, -0.00, -1.00, 542.9, 370.9)">v</text><text xml:space="preserve" font-family="AvenirNext-Regular,Avenir Next" font-size="42.0" fill="#FF2600" transform="matrix(1.00, 0.00, -0.00, -1.00, 563.4, 370.9)">e</text><text xml:space="preserve" font-family="AvenirNext-Regular,Avenir Next" font-size="42.0" fill="#FEFFFF" transform="matrix(1.00, 0.00, -0.00, -1.00, 587.4, 370.9)"> </text><text xml:space="preserve" font-family="AvenirNext-Regular,Avenir Next" font-size="42.0" fill="#FEFFFF" transform="matrix(1.00, 0.00, -0.00, -1.00, 597.9, 370.9)">l</text><text xml:space="preserve" font-family="AvenirNext-Regular,Avenir Next" font-size="42.0" fill="#FEFFFF" transform="matrix(1.00, 0.00, -0.00, -1.00, 608.5, 370.9)">e</text><text xml:space="preserve" font-family="AvenirNext-Regular,Avenir Next" font-size="42.0" fill="#FEFFFF" transform="matrix(1.00, 0.00, -0.00, -1.00, 632.2, 370.9)">a</text><text xml:space="preserve" font-family="AvenirNext-Regular,Avenir Next" font-size="42.0" fill="#FEFFFF" transform="matrix(1.00, 0.00, -0.00, -1.00, 654.7, 370.9)">r</text><text xml:space="preserve" font-family="AvenirNext-Regular,Avenir Next" font-size="42.0" fill="#FEFFFF" transform="matrix(1.00, 0.00, -0.00, -1.00, 669.8, 370.9)">n</text><text xml:space="preserve" font-family="AvenirNext-Regular,Avenir Next" font-size="42.0" fill="#FEFFFF" transform="matrix(1.00, 0.00, -0.00, -1.00, 694.2, 370.9)">e</text><text xml:space="preserve" font-family="AvenirNext-Regular,Avenir Next" font-size="42.0" fill="#FEFFFF" transform="matrix(1.00, 0.00, -0.00, -1.00, 718.2, 370.9)">d</text><text xml:space="preserve" font-family="AvenirNext-Regular,Avenir Next" font-size="42.0" fill="#FEFFFF" transform="matrix(1.00, 0.00, -0.00, -1.00, 745.0, 370.9)"> </text><text xml:space="preserve" font-family="AvenirNext-Regular,Avenir Next" font-size="42.0" fill="#FEFFFF" transform="matrix(1.00, 0.00, -0.00, -1.00, 755.5, 370.9)">s</text><text xml:space="preserve" font-family="AvenirNext-Regular,Avenir Next" font-size="42.0" fill="#FEFFFF" transform="matrix(1.00, 0.00, -0.00, -1.00, 774.1, 370.9)">o</text><text xml:space="preserve" font-family="AvenirNext-Regular,Avenir Next" font-size="42.0" fill="#FEFFFF" transform="matrix(1.00, 0.00, -0.00, -1.00, 799.8, 370.9)"> </text><text xml:space="preserve" font-family="AvenirNext-Regular,Avenir Next" font-size="42.0" fill="#FEFFFF" transform="matrix(1.00, 0.00, -0.00, -1.00, 810.3, 370.9)">f</text><text xml:space="preserve" font-family="AvenirNext-Regular,Avenir Next" font-size="42.0" fill="#FEFFFF" transform="matrix(1.00, 0.00, -0.00, -1.00, 822.7, 370.9)">a</text><text xml:space="preserve" font-family="AvenirNext-Regular,Avenir Next" font-size="42.0" fill="#FEFFFF" transform="matrix(1.00, 0.00, -0.00, -1.00, 845.1, 370.9)">r</text><g><clipPath id="clip0x608000ca2220"><path d="M 402.3 378.4 L 512.5 378.4 L 512.5 383.0 L 402.3 383.0 Z M 402.3 378.4 "></path></clipPath><g clip-path="url(#clip0x608000ca2220)"><path d="M 244.1 35.8 L 353.3 35.8 " fill="none" stroke="#FEFFFF" stroke-width="2.51" transform="matrix(1.00, 0.00, 0.00, -1.00, 159.3, 416.5)"></path></g></g></g></svg>