<?xml version="1.0" encoding="UTF-8" standalone="no"?><svg xmlns="http://www.w3.org/2000/svg" xmlns:xlink="http://www.w3.org/1999/xlink" clip-rule="evenodd" stroke-miterlimit="10" viewBox="0 0 1200 330"><desc>SVG generated by Keynote</desc><defs></defs><g transform="matrix(1.00, 0.00, -0.00, -1.00, 0.0, 330.0)"><path d="M 18.0 318.0 L 1182.0 318.0 L 1182.0 34.0 L 18.0 34.0 Z M 18.1 317.8 " fill="#D5D5D5"></path><image xlink:href="1D3E19F057550F12C30686F8C684E1ED.png" width="1198.00" height="328.00" transform="matrix(1.00, 0.00, -0.00, 1.00, 1.1, 1.2)"></image><g><clipPath id="clip0x6080018bc020"><path d="M 8.4 11.3 L 1191.6 11.3 L 1191.6 327.6 L 8.4 327.6 Z M 8.4 11.3 "></path></clipPath><g clip-path="url(#clip0x6080018bc020)"><text xml:space="preserve" font-family="HelveticaNeue-Thin,Helvetica Neue" font-size="50.0" fill="#090502" transform="matrix(1.00, 0.00, -0.00, -1.00, 59.4, 264.9)">I</text><text xml:space="preserve" font-family="HelveticaNeue-Thin,Helvetica Neue" font-size="50.0" fill="#090502" transform="matrix(1.00, 0.00, -0.00, -1.00, 67.8, 264.9)">n</text><text xml:space="preserve" font-family="HelveticaNeue-Thin,Helvetica Neue" font-size="50.0" fill="#090502" transform="matrix(1.00, 0.00, -0.00, -1.00, 93.8, 264.9)"> </text><text xml:space="preserve" font-family="HelveticaNeue-Thin,Helvetica Neue" font-size="50.0" fill="#090502" transform="matrix(1.00, 0.00, -0.00, -1.00, 107.7, 264.9)">W</text><text xml:space="preserve" font-family="HelveticaNeue-Thin,Helvetica Neue" font-size="50.0" fill="#090502" transform="matrix(1.00, 0.00, -0.00, -1.00, 153.4, 264.9)">i</text><text xml:space="preserve" font-family="HelveticaNeue-Thin,Helvetica Neue" font-size="50.0" fill="#090502" transform="matrix(1.00, 0.00, -0.00, -1.00, 161.8, 264.9)">k</text><text xml:space="preserve" font-family="HelveticaNeue-Thin,Helvetica Neue" font-size="50.0" fill="#090502" transform="matrix(1.00, 0.00, -0.00, -1.00, 184.9, 264.9)">i</text><text xml:space="preserve" font-family="HelveticaNeue-Thin,Helvetica Neue" font-size="50.0" fill="#090502" transform="matrix(1.00, 0.00, -0.00, -1.00, 193.3, 264.9)">m</text><text xml:space="preserve" font-family="HelveticaNeue-Thin,Helvetica Neue" font-size="50.0" fill="#090502" transform="matrix(1.00, 0.00, -0.00, -1.00, 233.1, 264.9)">e</text><text xml:space="preserve" font-family="HelveticaNeue-Thin,Helvetica Neue" font-size="50.0" fill="#090502" transform="matrix(1.00, 0.00, -0.00, -1.00, 259.1, 264.9)">d</text><text xml:space="preserve" font-family="HelveticaNeue-Thin,Helvetica Neue" font-size="50.0" fill="#090502" transform="matrix(1.00, 0.00, -0.00, -1.00, 286.9, 264.9)">i</text><text xml:space="preserve" font-family="HelveticaNeue-Thin,Helvetica Neue" font-size="50.0" fill="#090502" transform="matrix(1.00, 0.00, -0.00, -1.00, 295.3, 264.9)">a</text><text xml:space="preserve" font-family="HelveticaNeue-Thin,Helvetica Neue" font-size="50.0" fill="#090502" transform="matrix(1.00, 0.00, -0.00, -1.00, 320.3, 264.9)"> </text><text xml:space="preserve" font-family="HelveticaNeue-Thin,Helvetica Neue" font-size="50.0" fill="#090502" transform="matrix(1.00, 0.00, -0.00, -1.00, 334.2, 264.9)">C</text><text xml:space="preserve" font-family="HelveticaNeue-Thin,Helvetica Neue" font-size="50.0" fill="#090502" transform="matrix(1.00, 0.00, -0.00, -1.00, 369.4, 264.9)">o</text><text xml:space="preserve" font-family="HelveticaNeue-Thin,Helvetica Neue" font-size="50.0" fill="#090502" transform="matrix(1.00, 0.00, -0.00, -1.00, 396.2, 264.9)">m</text><text xml:space="preserve" font-family="HelveticaNeue-Thin,Helvetica Neue" font-size="50.0" fill="#090502" transform="matrix(1.00, 0.00, -0.00, -1.00, 436.0, 264.9)">m</text><text xml:space="preserve" font-family="HelveticaNeue-Thin,Helvetica Neue" font-size="50.0" fill="#090502" transform="matrix(1.00, 0.00, -0.00, -1.00, 475.8, 264.9)">o</text><text xml:space="preserve" font-family="HelveticaNeue-Thin,Helvetica Neue" font-size="50.0" fill="#090502" transform="matrix(1.00, 0.00, -0.00, -1.00, 502.7, 264.9)">n</text><text xml:space="preserve" font-family="HelveticaNeue-Thin,Helvetica Neue" font-size="50.0" fill="#090502" transform="matrix(1.00, 0.00, -0.00, -1.00, 528.6, 264.9)">s</text><text xml:space="preserve" font-family="HelveticaNeue-Thin,Helvetica Neue" font-size="50.0" fill="#090502" transform="matrix(1.00, 0.00, -0.00, -1.00, 552.7, 264.9)">,</text><text xml:space="preserve" font-family="HelveticaNeue-Thin,Helvetica Neue" font-size="50.0" fill="#090502" transform="matrix(1.00, 0.00, -0.00, -1.00, 566.6, 264.9)"> </text><text xml:space="preserve" font-family="HelveticaNeue-Thin,Helvetica Neue" font-size="50.0" fill="#090502" transform="matrix(1.00, 0.00, -0.00, -1.00, 580.5, 264.9)">a</text><text xml:space="preserve" font-family="HelveticaNeue-Thin,Helvetica Neue" font-size="50.0" fill="#090502" transform="matrix(1.00, 0.00, -0.00, -1.00, 605.5, 264.9)">l</text><text xml:space="preserve" font-family="HelveticaNeue-Thin,Helvetica Neue" font-size="50.0" fill="#090502" transform="matrix(1.00, 0.00, -0.00, -1.00, 613.9, 264.9)">l</text><text xml:space="preserve" font-family="HelveticaNeue-Thin,Helvetica Neue" font-size="50.0" fill="#090502" transform="matrix(1.00, 0.00, -0.00, -1.00, 622.3, 264.9)"> </text><text xml:space="preserve" font-family="HelveticaNeue-Thin,Helvetica Neue" font-size="50.0" fill="#090502" transform="matrix(1.00, 0.00, -0.00, -1.00, 636.2, 264.9)">m</text><text xml:space="preserve" font-family="HelveticaNeue-Thin,Helvetica Neue" font-size="50.0" fill="#090502" transform="matrix(1.00, 0.00, -0.00, -1.00, 676.0, 264.9)">e</text><text xml:space="preserve" font-family="HelveticaNeue-Thin,Helvetica Neue" font-size="50.0" fill="#090502" transform="matrix(1.00, 0.00, -0.00, -1.00, 701.9, 264.9)">d</text><text xml:space="preserve" font-family="HelveticaNeue-Thin,Helvetica Neue" font-size="50.0" fill="#090502" transform="matrix(1.00, 0.00, -0.00, -1.00, 729.7, 264.9)">i</text><text xml:space="preserve" font-family="HelveticaNeue-Thin,Helvetica Neue" font-size="50.0" fill="#090502" transform="matrix(1.00, 0.00, -0.00, -1.00, 738.1, 264.9)">a</text><text xml:space="preserve" font-family="HelveticaNeue-Thin,Helvetica Neue" font-size="50.0" fill="#090502" transform="matrix(1.00, 0.00, -0.00, -1.00, 763.1, 264.9)"> </text><text xml:space="preserve" font-family="HelveticaNeue-Thin,Helvetica Neue" font-size="50.0" fill="#090502" transform="matrix(1.00, 0.00, -0.00, -1.00, 777.0, 264.9)">ﬁ</text><text xml:space="preserve" font-family="HelveticaNeue-Thin,Helvetica Neue" font-size="50.0" fill="#090502" transform="matrix(1.00, 0.00, -0.00, -1.00, 796.5, 264.9)">l</text><text xml:space="preserve" font-family="HelveticaNeue-Thin,Helvetica Neue" font-size="50.0" fill="#090502" transform="matrix(1.00, 0.00, -0.00, -1.00, 804.9, 264.9)">e</text><text xml:space="preserve" font-family="HelveticaNeue-Thin,Helvetica Neue" font-size="50.0" fill="#090502" transform="matrix(1.00, 0.00, -0.00, -1.00, 830.8, 264.9)">s</text><text xml:space="preserve" font-family="HelveticaNeue-Thin,Helvetica Neue" font-size="50.0" fill="#090502" transform="matrix(1.00, 0.00, -0.00, -1.00, 854.9, 264.9)"> </text><text xml:space="preserve" font-family="HelveticaNeue-Thin,Helvetica Neue" font-size="50.0" fill="#090502" transform="matrix(1.00, 0.00, -0.00, -1.00, 868.8, 264.9)">a</text><text xml:space="preserve" font-family="HelveticaNeue-Thin,Helvetica Neue" font-size="50.0" fill="#090502" transform="matrix(1.00, 0.00, -0.00, -1.00, 893.8, 264.9)">r</text><text xml:space="preserve" font-family="HelveticaNeue-Thin,Helvetica Neue" font-size="50.0" fill="#090502" transform="matrix(1.00, 0.00, -0.00, -1.00, 907.0, 264.9)">e</text><text xml:space="preserve" font-family="HelveticaNeue-Thin,Helvetica Neue" font-size="50.0" fill="#090502" transform="matrix(1.00, 0.00, -0.00, -1.00, 933.0, 264.9)"> </text><text xml:space="preserve" font-family="HelveticaNeue-Thin,Helvetica Neue" font-size="50.0" fill="#090502" transform="matrix(1.00, 0.00, -0.00, -1.00, 946.9, 264.9)">v</text><text xml:space="preserve" font-family="HelveticaNeue-Thin,Helvetica Neue" font-size="50.0" fill="#090502" transform="matrix(1.00, 0.00, -0.00, -1.00, 969.1, 264.9)">i</text><text xml:space="preserve" font-family="HelveticaNeue-Thin,Helvetica Neue" font-size="50.0" fill="#090502" transform="matrix(1.00, 0.00, -0.00, -1.00, 977.5, 264.9)">e</text><text xml:space="preserve" font-family="HelveticaNeue-Thin,Helvetica Neue" font-size="50.0" fill="#090502" transform="matrix(1.00, 0.00, -0.00, -1.00, 1003.5, 264.9)">w</text><text xml:space="preserve" font-family="HelveticaNeue-Thin,Helvetica Neue" font-size="50.0" fill="#090502" transform="matrix(1.00, 0.00, -0.00, -1.00, 1038.7, 264.9)">e</text><text xml:space="preserve" font-family="HelveticaNeue-Thin,Helvetica Neue" font-size="50.0" fill="#090502" transform="matrix(1.00, 0.00, -0.00, -1.00, 1064.6, 264.9)">d</text><text xml:space="preserve" font-family="HelveticaNeue-Thin,Helvetica Neue" font-size="50.0" fill="#090502" transform="matrix(1.00, 0.00, -0.00, -1.00, 1092.4, 264.9)"> </text><text xml:space="preserve" font-family="HelveticaNeue-Thin,Helvetica Neue" font-size="50.0" fill="#090502" transform="matrix(1.00, 0.00, -0.00, -1.00, 1106.3, 264.9)">i</text><text xml:space="preserve" font-family="HelveticaNeue-Thin,Helvetica Neue" font-size="50.0" fill="#090502" transform="matrix(1.00, 0.00, -0.00, -1.00, 1114.7, 264.9)">n</text><text xml:space="preserve" font-family="HelveticaNeue-Thin,Helvetica Neue" font-size="50.0" fill="#090502" transform="matrix(1.00, 0.00, -0.00, -1.00, 1140.7, 264.9)"> </text><text xml:space="preserve" font-family="HelveticaNeue-Thin,Helvetica Neue" font-size="50.0" fill="#090502" transform="matrix(1.00, 0.00, -0.00, -1.00, 32.0, 193.2)">t</text><text xml:space="preserve" font-family="HelveticaNeue-Thin,Helvetica Neue" font-size="50.0" fill="#090502" transform="matrix(1.00, 0.00, -0.00, -1.00, 45.0, 193.2)">h</text><text xml:space="preserve" font-family="HelveticaNeue-Thin,Helvetica Neue" font-size="50.0" fill="#090502" transform="matrix(1.00, 0.00, -0.00, -1.00, 71.0, 193.2)">e</text><text xml:space="preserve" font-family="HelveticaNeue-Thin,Helvetica Neue" font-size="50.0" fill="#090502" transform="matrix(1.00, 0.00, -0.00, -1.00, 96.9, 193.2)"> </text><text xml:space="preserve" font-family="HelveticaNeue-Thin,Helvetica Neue" font-size="50.0" fill="#090502" transform="matrix(1.00, 0.00, -0.00, -1.00, 110.8, 193.2)">M</text><text xml:space="preserve" font-family="HelveticaNeue-Thin,Helvetica Neue" font-size="50.0" fill="#090502" transform="matrix(1.00, 0.00, -0.00, -1.00, 151.2, 193.2)">e</text><text xml:space="preserve" font-family="HelveticaNeue-Thin,Helvetica Neue" font-size="50.0" fill="#090502" transform="matrix(1.00, 0.00, -0.00, -1.00, 177.2, 193.2)">d</text><text xml:space="preserve" font-family="HelveticaNeue-Thin,Helvetica Neue" font-size="50.0" fill="#090502" transform="matrix(1.00, 0.00, -0.00, -1.00, 205.0, 193.2)">i</text><text xml:space="preserve" font-family="HelveticaNeue-Thin,Helvetica Neue" font-size="50.0" fill="#090502" transform="matrix(1.00, 0.00, -0.00, -1.00, 213.4, 193.2)">a</text><text xml:space="preserve" font-family="HelveticaNeue-Thin,Helvetica Neue" font-size="50.0" fill="#090502" transform="matrix(1.00, 0.00, -0.00, -1.00, 238.4, 193.2)"> </text><text xml:space="preserve" font-family="HelveticaNeue-Thin,Helvetica Neue" font-size="50.0" fill="#090502" transform="matrix(1.00, 0.00, -0.00, -1.00, 252.3, 193.2)">V</text><text xml:space="preserve" font-family="HelveticaNeue-Thin,Helvetica Neue" font-size="50.0" fill="#090502" transform="matrix(1.00, 0.00, -0.00, -1.00, 279.2, 193.2)">i</text><text xml:space="preserve" font-family="HelveticaNeue-Thin,Helvetica Neue" font-size="50.0" fill="#090502" transform="matrix(1.00, 0.00, -0.00, -1.00, 287.6, 193.2)">e</text><text xml:space="preserve" font-family="HelveticaNeue-Thin,Helvetica Neue" font-size="50.0" fill="#090502" transform="matrix(1.00, 0.00, -0.00, -1.00, 313.6, 193.2)">w</text><text xml:space="preserve" font-family="HelveticaNeue-Thin,Helvetica Neue" font-size="50.0" fill="#090502" transform="matrix(1.00, 0.00, -0.00, -1.00, 348.8, 193.2)">e</text><text xml:space="preserve" font-family="HelveticaNeue-Thin,Helvetica Neue" font-size="50.0" fill="#090502" transform="matrix(1.00, 0.00, -0.00, -1.00, 374.7, 193.2)">r</text><text xml:space="preserve" font-family="HelveticaNeue-Thin,Helvetica Neue" font-size="50.0" fill="#090502" transform="matrix(1.00, 0.00, -0.00, -1.00, 386.2, 193.2)">.</text><text xml:space="preserve" font-family="HelveticaNeue-Thin,Helvetica Neue" font-size="50.0" fill="#090502" transform="matrix(1.00, 0.00, -0.00, -1.00, 400.1, 193.2)"> </text><text xml:space="preserve" font-family="HelveticaNeue-Thin,Helvetica Neue" font-size="50.0" fill="#090502" transform="matrix(1.00, 0.00, -0.00, -1.00, 414.0, 193.2)">T</text><text xml:space="preserve" font-family="HelveticaNeue-Thin,Helvetica Neue" font-size="50.0" fill="#090502" transform="matrix(1.00, 0.00, -0.00, -1.00, 435.1, 193.2)">o</text><text xml:space="preserve" font-family="HelveticaNeue-Thin,Helvetica Neue" font-size="50.0" fill="#090502" transform="matrix(1.00, 0.00, -0.00, -1.00, 462.0, 193.2)"> </text><text xml:space="preserve" font-family="HelveticaNeue-Thin,Helvetica Neue" font-size="50.0" fill="#090502" transform="matrix(1.00, 0.00, -0.00, -1.00, 475.9, 193.2)">a</text><text xml:space="preserve" font-family="HelveticaNeue-Thin,Helvetica Neue" font-size="50.0" fill="#090502" transform="matrix(1.00, 0.00, -0.00, -1.00, 500.9, 193.2)">c</text><text xml:space="preserve" font-family="HelveticaNeue-Thin,Helvetica Neue" font-size="50.0" fill="#090502" transform="matrix(1.00, 0.00, -0.00, -1.00, 526.8, 193.2)">c</text><text xml:space="preserve" font-family="HelveticaNeue-Thin,Helvetica Neue" font-size="50.0" fill="#090502" transform="matrix(1.00, 0.00, -0.00, -1.00, 552.8, 193.2)">e</text><text xml:space="preserve" font-family="HelveticaNeue-Thin,Helvetica Neue" font-size="50.0" fill="#090502" transform="matrix(1.00, 0.00, -0.00, -1.00, 578.8, 193.2)">s</text><text xml:space="preserve" font-family="HelveticaNeue-Thin,Helvetica Neue" font-size="50.0" fill="#090502" transform="matrix(1.00, 0.00, -0.00, -1.00, 602.8, 193.2)">s</text><text xml:space="preserve" font-family="HelveticaNeue-Thin,Helvetica Neue" font-size="50.0" fill="#090502" transform="matrix(1.00, 0.00, -0.00, -1.00, 626.8, 193.2)"> </text><text xml:space="preserve" font-family="HelveticaNeue-Thin,Helvetica Neue" font-size="50.0" fill="#090502" transform="matrix(1.00, 0.00, -0.00, -1.00, 640.7, 193.2)">t</text><text xml:space="preserve" font-family="HelveticaNeue-Thin,Helvetica Neue" font-size="50.0" fill="#090502" transform="matrix(1.00, 0.00, -0.00, -1.00, 653.7, 193.2)">h</text><text xml:space="preserve" font-family="HelveticaNeue-Thin,Helvetica Neue" font-size="50.0" fill="#090502" transform="matrix(1.00, 0.00, -0.00, -1.00, 679.6, 193.2)">e</text><text xml:space="preserve" font-family="HelveticaNeue-Thin,Helvetica Neue" font-size="50.0" fill="#090502" transform="matrix(1.00, 0.00, -0.00, -1.00, 705.6, 193.2)"> </text><text xml:space="preserve" font-family="HelveticaNeue-Thin,Helvetica Neue" font-size="50.0" fill="#090502" transform="matrix(1.00, 0.00, -0.00, -1.00, 719.5, 193.2)">f</text><text xml:space="preserve" font-family="HelveticaNeue-Thin,Helvetica Neue" font-size="50.0" fill="#090502" transform="matrix(1.00, 0.00, -0.00, -1.00, 731.5, 193.2)">u</text><text xml:space="preserve" font-family="HelveticaNeue-Thin,Helvetica Neue" font-size="50.0" fill="#090502" transform="matrix(1.00, 0.00, -0.00, -1.00, 757.5, 193.2)">l</text><text xml:space="preserve" font-family="HelveticaNeue-Thin,Helvetica Neue" font-size="50.0" fill="#090502" transform="matrix(1.00, 0.00, -0.00, -1.00, 765.9, 193.2)">l</text><text xml:space="preserve" font-family="HelveticaNeue-Thin,Helvetica Neue" font-size="50.0" fill="#090502" transform="matrix(1.00, 0.00, -0.00, -1.00, 774.3, 193.2)"> </text><text xml:space="preserve" font-family="HelveticaNeue-Thin,Helvetica Neue" font-size="50.0" fill="#090502" transform="matrix(1.00, 0.00, -0.00, -1.00, 788.2, 193.2)">m</text><text xml:space="preserve" font-family="HelveticaNeue-Thin,Helvetica Neue" font-size="50.0" fill="#090502" transform="matrix(1.00, 0.00, -0.00, -1.00, 828.0, 193.2)">e</text><text xml:space="preserve" font-family="HelveticaNeue-Thin,Helvetica Neue" font-size="50.0" fill="#090502" transform="matrix(1.00, 0.00, -0.00, -1.00, 853.9, 193.2)">t</text><text xml:space="preserve" font-family="HelveticaNeue-Thin,Helvetica Neue" font-size="50.0" fill="#090502" transform="matrix(1.00, 0.00, -0.00, -1.00, 866.9, 193.2)">a</text><text xml:space="preserve" font-family="HelveticaNeue-Thin,Helvetica Neue" font-size="50.0" fill="#090502" transform="matrix(1.00, 0.00, -0.00, -1.00, 891.9, 193.2)">d</text><text xml:space="preserve" font-family="HelveticaNeue-Thin,Helvetica Neue" font-size="50.0" fill="#090502" transform="matrix(1.00, 0.00, -0.00, -1.00, 919.7, 193.2)">a</text><text xml:space="preserve" font-family="HelveticaNeue-Thin,Helvetica Neue" font-size="50.0" fill="#090502" transform="matrix(1.00, 0.00, -0.00, -1.00, 944.7, 193.2)">t</text><text xml:space="preserve" font-family="HelveticaNeue-Thin,Helvetica Neue" font-size="50.0" fill="#090502" transform="matrix(1.00, 0.00, -0.00, -1.00, 957.6, 193.2)">a</text><text xml:space="preserve" font-family="HelveticaNeue-Thin,Helvetica Neue" font-size="50.0" fill="#090502" transform="matrix(1.00, 0.00, -0.00, -1.00, 982.6, 193.2)">,</text><text xml:space="preserve" font-family="HelveticaNeue-Thin,Helvetica Neue" font-size="50.0" fill="#090502" transform="matrix(1.00, 0.00, -0.00, -1.00, 996.5, 193.2)"> </text><text xml:space="preserve" font-family="HelveticaNeue-Thin,Helvetica Neue" font-size="50.0" fill="#090502" transform="matrix(1.00, 0.00, -0.00, -1.00, 1010.4, 193.2)">a</text><text xml:space="preserve" font-family="HelveticaNeue-Thin,Helvetica Neue" font-size="50.0" fill="#090502" transform="matrix(1.00, 0.00, -0.00, -1.00, 1035.5, 193.2)">n</text><text xml:space="preserve" font-family="HelveticaNeue-Thin,Helvetica Neue" font-size="50.0" fill="#090502" transform="matrix(1.00, 0.00, -0.00, -1.00, 1061.4, 193.2)">d</text><text xml:space="preserve" font-family="HelveticaNeue-Thin,Helvetica Neue" font-size="50.0" fill="#090502" transform="matrix(1.00, 0.00, -0.00, -1.00, 1089.2, 193.2)"> </text><text xml:space="preserve" font-family="HelveticaNeue-Thin,Helvetica Neue" font-size="50.0" fill="#090502" transform="matrix(1.00, 0.00, -0.00, -1.00, 1103.1, 193.2)">t</text><text xml:space="preserve" font-family="HelveticaNeue-Thin,Helvetica Neue" font-size="50.0" fill="#090502" transform="matrix(1.00, 0.00, -0.00, -1.00, 1116.0, 193.2)">h</text><text xml:space="preserve" font-family="HelveticaNeue-Thin,Helvetica Neue" font-size="50.0" fill="#090502" transform="matrix(1.00, 0.00, -0.00, -1.00, 1142.0, 193.2)">e</text><text xml:space="preserve" font-family="HelveticaNeue-Thin,Helvetica Neue" font-size="50.0" fill="#090502" transform="matrix(1.00, 0.00, -0.00, -1.00, 1168.0, 193.2)"> </text><text xml:space="preserve" font-family="HelveticaNeue-Thin,Helvetica Neue" font-size="50.0" fill="#090502" transform="matrix(1.00, 0.00, -0.00, -1.00, 85.5, 121.5)">W</text><text xml:space="preserve" font-family="HelveticaNeue-Thin,Helvetica Neue" font-size="50.0" fill="#090502" transform="matrix(1.00, 0.00, -0.00, -1.00, 131.1, 121.5)">i</text><text xml:space="preserve" font-family="HelveticaNeue-Thin,Helvetica Neue" font-size="50.0" fill="#090502" transform="matrix(1.00, 0.00, -0.00, -1.00, 139.5, 121.5)">k</text><text xml:space="preserve" font-family="HelveticaNeue-Thin,Helvetica Neue" font-size="50.0" fill="#090502" transform="matrix(1.00, 0.00, -0.00, -1.00, 162.7, 121.5)">i</text><text xml:space="preserve" font-family="HelveticaNeue-Thin,Helvetica Neue" font-size="50.0" fill="#090502" transform="matrix(1.00, 0.00, -0.00, -1.00, 171.1, 121.5)">m</text><text xml:space="preserve" font-family="HelveticaNeue-Thin,Helvetica Neue" font-size="50.0" fill="#090502" transform="matrix(1.00, 0.00, -0.00, -1.00, 210.9, 121.5)">a</text><text xml:space="preserve" font-family="HelveticaNeue-Thin,Helvetica Neue" font-size="50.0" fill="#090502" transform="matrix(1.00, 0.00, -0.00, -1.00, 235.9, 121.5)">p</text><text xml:space="preserve" font-family="HelveticaNeue-Thin,Helvetica Neue" font-size="50.0" fill="#090502" transform="matrix(1.00, 0.00, -0.00, -1.00, 263.7, 121.5)">s</text><text xml:space="preserve" font-family="HelveticaNeue-Thin,Helvetica Neue" font-size="50.0" fill="#090502" transform="matrix(1.00, 0.00, -0.00, -1.00, 287.7, 121.5)"> </text><text xml:space="preserve" font-family="HelveticaNeue-Thin,Helvetica Neue" font-size="50.0" fill="#090502" transform="matrix(1.00, 0.00, -0.00, -1.00, 301.6, 121.5)">t</text><text xml:space="preserve" font-family="HelveticaNeue-Thin,Helvetica Neue" font-size="50.0" fill="#090502" transform="matrix(1.00, 0.00, -0.00, -1.00, 313.9, 121.5)">o</text><text xml:space="preserve" font-family="HelveticaNeue-Thin,Helvetica Neue" font-size="50.0" fill="#090502" transform="matrix(1.00, 0.00, -0.00, -1.00, 340.7, 121.5)">o</text><text xml:space="preserve" font-family="HelveticaNeue-Thin,Helvetica Neue" font-size="50.0" fill="#090502" transform="matrix(1.00, 0.00, -0.00, -1.00, 367.6, 121.5)">l</text><text xml:space="preserve" font-family="HelveticaNeue-Thin,Helvetica Neue" font-size="50.0" fill="#090502" transform="matrix(1.00, 0.00, -0.00, -1.00, 375.9, 121.5)">s</text><text xml:space="preserve" font-family="HelveticaNeue-Thin,Helvetica Neue" font-size="50.0" fill="#090502" transform="matrix(1.00, 0.00, -0.00, -1.00, 400.0, 121.5)">,</text><text xml:space="preserve" font-family="HelveticaNeue-Thin,Helvetica Neue" font-size="50.0" fill="#090502" transform="matrix(1.00, 0.00, -0.00, -1.00, 413.9, 121.5)"> </text><text xml:space="preserve" font-family="HelveticaNeue-Thin,Helvetica Neue" font-size="50.0" fill="#090502" transform="matrix(1.00, 0.00, -0.00, -1.00, 427.8, 121.5)">p</text><text xml:space="preserve" font-family="HelveticaNeue-Thin,Helvetica Neue" font-size="50.0" fill="#090502" transform="matrix(1.00, 0.00, -0.00, -1.00, 455.6, 121.5)">l</text><text xml:space="preserve" font-family="HelveticaNeue-Thin,Helvetica Neue" font-size="50.0" fill="#090502" transform="matrix(1.00, 0.00, -0.00, -1.00, 464.0, 121.5)">e</text><text xml:space="preserve" font-family="HelveticaNeue-Thin,Helvetica Neue" font-size="50.0" fill="#090502" transform="matrix(1.00, 0.00, -0.00, -1.00, 489.9, 121.5)">a</text><text xml:space="preserve" font-family="HelveticaNeue-Thin,Helvetica Neue" font-size="50.0" fill="#090502" transform="matrix(1.00, 0.00, -0.00, -1.00, 514.9, 121.5)">s</text><text xml:space="preserve" font-family="HelveticaNeue-Thin,Helvetica Neue" font-size="50.0" fill="#090502" transform="matrix(1.00, 0.00, -0.00, -1.00, 539.0, 121.5)">e</text><text xml:space="preserve" font-family="HelveticaNeue-Thin,Helvetica Neue" font-size="50.0" fill="#090502" transform="matrix(1.00, 0.00, -0.00, -1.00, 564.9, 121.5)"> </text><text xml:space="preserve" font-family="HelveticaNeue-Thin,Helvetica Neue" font-size="50.0" fill="#090502" transform="matrix(1.00, 0.00, -0.00, -1.00, 578.8, 121.5)">c</text><text xml:space="preserve" font-family="HelveticaNeue-Thin,Helvetica Neue" font-size="50.0" fill="#090502" transform="matrix(1.00, 0.00, -0.00, -1.00, 604.8, 121.5)">l</text><text xml:space="preserve" font-family="HelveticaNeue-Thin,Helvetica Neue" font-size="50.0" fill="#090502" transform="matrix(1.00, 0.00, -0.00, -1.00, 613.2, 121.5)">i</text><text xml:space="preserve" font-family="HelveticaNeue-Thin,Helvetica Neue" font-size="50.0" fill="#090502" transform="matrix(1.00, 0.00, -0.00, -1.00, 621.6, 121.5)">c</text><text xml:space="preserve" font-family="HelveticaNeue-Thin,Helvetica Neue" font-size="50.0" fill="#090502" transform="matrix(1.00, 0.00, -0.00, -1.00, 647.5, 121.5)">k</text><text xml:space="preserve" font-family="HelveticaNeue-Thin,Helvetica Neue" font-size="50.0" fill="#090502" transform="matrix(1.00, 0.00, -0.00, -1.00, 670.7, 121.5)"> </text><text xml:space="preserve" font-family="HelveticaNeue-Thin,Helvetica Neue" font-size="50.0" fill="#090502" transform="matrix(1.00, 0.00, -0.00, -1.00, 684.6, 121.5)">o</text><text xml:space="preserve" font-family="HelveticaNeue-Thin,Helvetica Neue" font-size="50.0" fill="#090502" transform="matrix(1.00, 0.00, -0.00, -1.00, 711.4, 121.5)">n</text><text xml:space="preserve" font-family="HelveticaNeue-Thin,Helvetica Neue" font-size="50.0" fill="#090502" transform="matrix(1.00, 0.00, -0.00, -1.00, 737.4, 121.5)"> </text><text xml:space="preserve" font-family="HelveticaNeue-Thin,Helvetica Neue" font-size="50.0" fill="#090502" transform="matrix(1.00, 0.00, -0.00, -1.00, 751.3, 121.5)">t</text><text xml:space="preserve" font-family="HelveticaNeue-Thin,Helvetica Neue" font-size="50.0" fill="#090502" transform="matrix(1.00, 0.00, -0.00, -1.00, 764.2, 121.5)">h</text><text xml:space="preserve" font-family="HelveticaNeue-Thin,Helvetica Neue" font-size="50.0" fill="#090502" transform="matrix(1.00, 0.00, -0.00, -1.00, 790.2, 121.5)">e</text><text xml:space="preserve" font-family="HelveticaNeue-Thin,Helvetica Neue" font-size="50.0" fill="#090502" transform="matrix(1.00, 0.00, -0.00, -1.00, 816.2, 121.5)"> </text><text xml:space="preserve" font-family="HelveticaNeue-Thin,Helvetica Neue" font-size="50.0" fill="#090502" transform="matrix(1.00, 0.00, -0.00, -1.00, 830.1, 121.5)">”</text><text xml:space="preserve" font-family="HelveticaNeue-Thin,Helvetica Neue" font-size="50.0" fill="#090502" transform="matrix(1.00, 0.00, -0.00, -1.00, 845.8, 121.5)">M</text><text xml:space="preserve" font-family="HelveticaNeue-Thin,Helvetica Neue" font-size="50.0" fill="#090502" transform="matrix(1.00, 0.00, -0.00, -1.00, 886.3, 121.5)">o</text><text xml:space="preserve" font-family="HelveticaNeue-Thin,Helvetica Neue" font-size="50.0" fill="#090502" transform="matrix(1.00, 0.00, -0.00, -1.00, 913.1, 121.5)">r</text><text xml:space="preserve" font-family="HelveticaNeue-Thin,Helvetica Neue" font-size="50.0" fill="#090502" transform="matrix(1.00, 0.00, -0.00, -1.00, 926.4, 121.5)">e</text><text xml:space="preserve" font-family="HelveticaNeue-Thin,Helvetica Neue" font-size="50.0" fill="#090502" transform="matrix(1.00, 0.00, -0.00, -1.00, 952.4, 121.5)"> </text><text xml:space="preserve" font-family="HelveticaNeue-Thin,Helvetica Neue" font-size="50.0" fill="#090502" transform="matrix(1.00, 0.00, -0.00, -1.00, 966.3, 121.5)">d</text><text xml:space="preserve" font-family="HelveticaNeue-Thin,Helvetica Neue" font-size="50.0" fill="#090502" transform="matrix(1.00, 0.00, -0.00, -1.00, 994.1, 121.5)">e</text><text xml:space="preserve" font-family="HelveticaNeue-Thin,Helvetica Neue" font-size="50.0" fill="#090502" transform="matrix(1.00, 0.00, -0.00, -1.00, 1020.0, 121.5)">t</text><text xml:space="preserve" font-family="HelveticaNeue-Thin,Helvetica Neue" font-size="50.0" fill="#090502" transform="matrix(1.00, 0.00, -0.00, -1.00, 1033.0, 121.5)">a</text><text xml:space="preserve" font-family="HelveticaNeue-Thin,Helvetica Neue" font-size="50.0" fill="#090502" transform="matrix(1.00, 0.00, -0.00, -1.00, 1058.0, 121.5)">i</text><text xml:space="preserve" font-family="HelveticaNeue-Thin,Helvetica Neue" font-size="50.0" fill="#090502" transform="matrix(1.00, 0.00, -0.00, -1.00, 1066.4, 121.5)">l</text><text xml:space="preserve" font-family="HelveticaNeue-Thin,Helvetica Neue" font-size="50.0" fill="#090502" transform="matrix(1.00, 0.00, -0.00, -1.00, 1074.8, 121.5)">s</text><text xml:space="preserve" font-family="HelveticaNeue-Thin,Helvetica Neue" font-size="50.0" fill="#090502" transform="matrix(1.00, 0.00, -0.00, -1.00, 1098.8, 121.5)">”</text><text xml:space="preserve" font-family="HelveticaNeue-Thin,Helvetica Neue" font-size="50.0" fill="#090502" transform="matrix(1.00, 0.00, -0.00, -1.00, 1114.5, 121.5)"> </text><text xml:space="preserve" font-family="HelveticaNeue-Thin,Helvetica Neue" font-size="50.0" fill="#090502" transform="matrix(1.00, 0.00, -0.00, -1.00, 113.9, 49.8)">b</text><text xml:space="preserve" font-family="HelveticaNeue-Thin,Helvetica Neue" font-size="50.0" fill="#090502" transform="matrix(1.00, 0.00, -0.00, -1.00, 141.7, 49.8)">u</text><text xml:space="preserve" font-family="HelveticaNeue-Thin,Helvetica Neue" font-size="50.0" fill="#090502" transform="matrix(1.00, 0.00, -0.00, -1.00, 167.7, 49.8)">t</text><text xml:space="preserve" font-family="HelveticaNeue-Thin,Helvetica Neue" font-size="50.0" fill="#090502" transform="matrix(1.00, 0.00, -0.00, -1.00, 180.6, 49.8)">t</text><text xml:space="preserve" font-family="HelveticaNeue-Thin,Helvetica Neue" font-size="50.0" fill="#090502" transform="matrix(1.00, 0.00, -0.00, -1.00, 192.9, 49.8)">o</text><text xml:space="preserve" font-family="HelveticaNeue-Thin,Helvetica Neue" font-size="50.0" fill="#090502" transform="matrix(1.00, 0.00, -0.00, -1.00, 219.7, 49.8)">n</text><text xml:space="preserve" font-family="HelveticaNeue-Thin,Helvetica Neue" font-size="50.0" fill="#090502" transform="matrix(1.00, 0.00, -0.00, -1.00, 245.7, 49.8)">,</text><text xml:space="preserve" font-family="HelveticaNeue-Thin,Helvetica Neue" font-size="50.0" fill="#090502" transform="matrix(1.00, 0.00, -0.00, -1.00, 259.6, 49.8)"> </text><text xml:space="preserve" font-family="HelveticaNeue-Thin,Helvetica Neue" font-size="50.0" fill="#090502" transform="matrix(1.00, 0.00, -0.00, -1.00, 273.5, 49.8)">o</text><text xml:space="preserve" font-family="HelveticaNeue-Thin,Helvetica Neue" font-size="50.0" fill="#090502" transform="matrix(1.00, 0.00, -0.00, -1.00, 300.3, 49.8)">r</text><text xml:space="preserve" font-family="HelveticaNeue-Thin,Helvetica Neue" font-size="50.0" fill="#090502" transform="matrix(1.00, 0.00, -0.00, -1.00, 314.2, 49.8)"> </text><text xml:space="preserve" font-family="HelveticaNeue-Thin,Helvetica Neue" font-size="50.0" fill="#090502" transform="matrix(1.00, 0.00, -0.00, -1.00, 328.1, 49.8)">t</text><text xml:space="preserve" font-family="HelveticaNeue-Thin,Helvetica Neue" font-size="50.0" fill="#090502" transform="matrix(1.00, 0.00, -0.00, -1.00, 341.1, 49.8)">h</text><text xml:space="preserve" font-family="HelveticaNeue-Thin,Helvetica Neue" font-size="50.0" fill="#090502" transform="matrix(1.00, 0.00, -0.00, -1.00, 367.0, 49.8)">e</text><text xml:space="preserve" font-family="HelveticaNeue-Thin,Helvetica Neue" font-size="50.0" fill="#090502" transform="matrix(1.00, 0.00, -0.00, -1.00, 393.0, 49.8)"> </text><text xml:space="preserve" font-family="HelveticaNeue-Thin,Helvetica Neue" font-size="50.0" fill="#090502" transform="matrix(1.00, 0.00, -0.00, -1.00, 406.9, 49.8)">e</text><text xml:space="preserve" font-family="HelveticaNeue-Thin,Helvetica Neue" font-size="50.0" fill="#090502" transform="matrix(1.00, 0.00, -0.00, -1.00, 432.8, 49.8)">q</text><text xml:space="preserve" font-family="HelveticaNeue-Thin,Helvetica Neue" font-size="50.0" fill="#090502" transform="matrix(1.00, 0.00, -0.00, -1.00, 460.6, 49.8)">u</text><text xml:space="preserve" font-family="HelveticaNeue-Thin,Helvetica Neue" font-size="50.0" fill="#090502" transform="matrix(1.00, 0.00, -0.00, -1.00, 486.5, 49.8)">i</text><text xml:space="preserve" font-family="HelveticaNeue-Thin,Helvetica Neue" font-size="50.0" fill="#090502" transform="matrix(1.00, 0.00, -0.00, -1.00, 494.9, 49.8)">v</text><text xml:space="preserve" font-family="HelveticaNeue-Thin,Helvetica Neue" font-size="50.0" fill="#090502" transform="matrix(1.00, 0.00, -0.00, -1.00, 517.1, 49.8)">a</text><text xml:space="preserve" font-family="HelveticaNeue-Thin,Helvetica Neue" font-size="50.0" fill="#090502" transform="matrix(1.00, 0.00, -0.00, -1.00, 542.1, 49.8)">l</text><text xml:space="preserve" font-family="HelveticaNeue-Thin,Helvetica Neue" font-size="50.0" fill="#090502" transform="matrix(1.00, 0.00, -0.00, -1.00, 550.5, 49.8)">e</text><text xml:space="preserve" font-family="HelveticaNeue-Thin,Helvetica Neue" font-size="50.0" fill="#090502" transform="matrix(1.00, 0.00, -0.00, -1.00, 576.5, 49.8)">n</text><text xml:space="preserve" font-family="HelveticaNeue-Thin,Helvetica Neue" font-size="50.0" fill="#090502" transform="matrix(1.00, 0.00, -0.00, -1.00, 602.4, 49.8)">t</text><text xml:space="preserve" font-family="HelveticaNeue-Thin,Helvetica Neue" font-size="50.0" fill="#090502" transform="matrix(1.00, 0.00, -0.00, -1.00, 615.4, 49.8)"> </text><text xml:space="preserve" font-family="HelveticaNeue-Thin,Helvetica Neue" font-size="50.0" fill="#090502" transform="matrix(1.00, 0.00, -0.00, -1.00, 629.3, 49.8)">i</text><text xml:space="preserve" font-family="HelveticaNeue-Thin,Helvetica Neue" font-size="50.0" fill="#090502" transform="matrix(1.00, 0.00, -0.00, -1.00, 637.7, 49.8)">n</text><text xml:space="preserve" font-family="HelveticaNeue-Thin,Helvetica Neue" font-size="50.0" fill="#090502" transform="matrix(1.00, 0.00, -0.00, -1.00, 663.6, 49.8)"> </text><text xml:space="preserve" font-family="HelveticaNeue-Thin,Helvetica Neue" font-size="50.0" fill="#090502" transform="matrix(1.00, 0.00, -0.00, -1.00, 677.5, 49.8)">y</text><text xml:space="preserve" font-family="HelveticaNeue-Thin,Helvetica Neue" font-size="50.0" fill="#090502" transform="matrix(1.00, 0.00, -0.00, -1.00, 699.7, 49.8)">o</text><text xml:space="preserve" font-family="HelveticaNeue-Thin,Helvetica Neue" font-size="50.0" fill="#090502" transform="matrix(1.00, 0.00, -0.00, -1.00, 726.6, 49.8)">u</text><text xml:space="preserve" font-family="HelveticaNeue-Thin,Helvetica Neue" font-size="50.0" fill="#090502" transform="matrix(1.00, 0.00, -0.00, -1.00, 752.5, 49.8)">r</text><text xml:space="preserve" font-family="HelveticaNeue-Thin,Helvetica Neue" font-size="50.0" fill="#090502" transform="matrix(1.00, 0.00, -0.00, -1.00, 766.4, 49.8)"> </text><text xml:space="preserve" font-family="HelveticaNeue-Thin,Helvetica Neue" font-size="50.0" fill="#090502" transform="matrix(1.00, 0.00, -0.00, -1.00, 780.3, 49.8)">o</text><text xml:space="preserve" font-family="HelveticaNeue-Thin,Helvetica Neue" font-size="50.0" fill="#090502" transform="matrix(1.00, 0.00, -0.00, -1.00, 807.2, 49.8)">w</text><text xml:space="preserve" font-family="HelveticaNeue-Thin,Helvetica Neue" font-size="50.0" fill="#090502" transform="matrix(1.00, 0.00, -0.00, -1.00, 842.4, 49.8)">n</text><text xml:space="preserve" font-family="HelveticaNeue-Thin,Helvetica Neue" font-size="50.0" fill="#090502" transform="matrix(1.00, 0.00, -0.00, -1.00, 868.4, 49.8)"> </text><text xml:space="preserve" font-family="HelveticaNeue-Thin,Helvetica Neue" font-size="50.0" fill="#090502" transform="matrix(1.00, 0.00, -0.00, -1.00, 882.2, 49.8)">l</text><text xml:space="preserve" font-family="HelveticaNeue-Thin,Helvetica Neue" font-size="50.0" fill="#090502" transform="matrix(1.00, 0.00, -0.00, -1.00, 890.6, 49.8)">a</text><text xml:space="preserve" font-family="HelveticaNeue-Thin,Helvetica Neue" font-size="50.0" fill="#090502" transform="matrix(1.00, 0.00, -0.00, -1.00, 915.6, 49.8)">n</text><text xml:space="preserve" font-family="HelveticaNeue-Thin,Helvetica Neue" font-size="50.0" fill="#090502" transform="matrix(1.00, 0.00, -0.00, -1.00, 941.6, 49.8)">g</text><text xml:space="preserve" font-family="HelveticaNeue-Thin,Helvetica Neue" font-size="50.0" fill="#090502" transform="matrix(1.00, 0.00, -0.00, -1.00, 968.5, 49.8)">u</text><text xml:space="preserve" font-family="HelveticaNeue-Thin,Helvetica Neue" font-size="50.0" fill="#090502" transform="matrix(1.00, 0.00, -0.00, -1.00, 994.4, 49.8)">a</text><text xml:space="preserve" font-family="HelveticaNeue-Thin,Helvetica Neue" font-size="50.0" fill="#090502" transform="matrix(1.00, 0.00, -0.00, -1.00, 1019.4, 49.8)">g</text><text xml:space="preserve" font-family="HelveticaNeue-Thin,Helvetica Neue" font-size="50.0" fill="#090502" transform="matrix(1.00, 0.00, -0.00, -1.00, 1046.3, 49.8)">e</text><text xml:space="preserve" font-family="HelveticaNeue-Thin,Helvetica Neue" font-size="50.0" fill="#090502" transform="matrix(1.00, 0.00, -0.00, -1.00, 1072.2, 49.8)">.</text></g></g></g></svg>