<?xml version="1.0" encoding="UTF-8" standalone="no"?><svg xmlns="http://www.w3.org/2000/svg" xmlns:xlink="http://www.w3.org/1999/xlink" clip-rule="evenodd" stroke-miterlimit="10" viewBox="0 0 84 84"><desc>SVG generated by Keynote</desc><defs></defs><g transform="matrix(1.00, 0.00, -0.00, -1.00, 0.0, 84.0)"><g><clipPath id="clip0x600001ab8420"><path d="M 0.8 0.4 L 83.6 0.4 L 83.6 83.2 L 0.8 83.2 Z M 0.8 0.4 "></path></clipPath><g clip-path="url(#clip0x600001ab8420)"><path d="M 61.3 10.5 C 75.3 24.5 75.3 47.3 61.3 61.3 C 47.3 75.3 24.5 75.3 10.5 61.3 C -3.5 47.3 -3.5 24.5 10.5 10.5 C 24.5 -3.5 47.3 -3.5 61.3 10.5 Z M 61.3 10.5 " fill="none" stroke="#EBEAE9" stroke-opacity="0.70" stroke-width="9.00" transform="matrix(1.00, 0.00, 0.00, -1.00, 6.3, 77.7)"></path></g></g><g><clipPath id="clip0x600001ab68c0"><path d="M 16.3 15.9 L 68.1 15.9 L 68.1 67.7 L 16.3 67.7 Z M 16.3 15.9 "></path></clipPath><g clip-path="url(#clip0x600001ab68c0)"><path d="M 34.8 6.0 C 42.8 13.9 42.8 26.9 34.8 34.8 C 26.9 42.8 13.9 42.8 6.0 34.8 C -2.0 26.9 -2.0 13.9 6.0 6.0 C 13.9 -2.0 26.9 -2.0 34.8 6.0 Z M 34.8 6.0 " fill="none" stroke="#EBEAE9" stroke-opacity="0.70" stroke-width="9.00" transform="matrix(1.00, 0.00, 0.00, -1.00, 21.8, 62.2)"></path></g></g></g></svg>