<?xml version="1.0" encoding="UTF-8" standalone="no"?><svg xmlns="http://www.w3.org/2000/svg" xmlns:xlink="http://www.w3.org/1999/xlink" clip-rule="evenodd" stroke-miterlimit="10" viewBox="0 0 1024 768"><desc>SVG generated by Keynote</desc><defs></defs><g transform="matrix(1.00, 0.00, -0.00, -1.00, 0.0, 768.0)"><path d="M 0.0 768.0 L 1024.0 768.0 L 1024.0 0.0 L 0.0 0.0 Z M 0.0 768.0 " fill="#000000"></path><g><clipPath id="clip0x6000014b85a0"><path d="M 98.0 724.0 L 926.0 724.0 L 926.0 44.0 L 98.0 44.0 Z M 98.0 724.0 "></path></clipPath><g clip-path="url(#clip0x6000014b85a0)"><image xlink:href="../../A902C480-60C2-4466-B15C-5F17C150FD8C/assets/7A049E96733EBFDB09DE5DD2D8D7EC76.png" width="1365.00" height="768.00" transform="matrix(1.00, 0.00, -0.00, -1.00, -42.0, 791.0)"></image></g></g><g><clipPath id="clip0x6000014b8720"><path d="M 98.0 724.0 L 926.0 724.0 L 926.0 44.0 L 98.0 44.0 Z M 98.0 724.0 "></path></clipPath><g clip-path="url(#clip0x6000014b8720)"><image xlink:href="../../ED4C7E18-7A41-4FFC-B06C-A48670D28791/assets/523F24DAE4FFAB82F83799B38465606B.png" width="1365.00" height="768.00" transform="matrix(1.00, 0.00, -0.00, -1.00, -42.0, 790.0)"></image></g></g><path d="M 98.0 723.0 L 213.0 723.0 L 213.0 485.0 L 98.0 485.0 Z M 98.0 723.0 " fill="#000000"></path></g></svg>