<?xml version="1.0" encoding="UTF-8" standalone="no"?><svg xmlns="http://www.w3.org/2000/svg" xmlns:xlink="http://www.w3.org/1999/xlink" clip-rule="evenodd" stroke-miterlimit="10" viewBox="0 0 141 71"><desc>SVG generated by Keynote</desc><defs></defs><g transform="matrix(1.00, 0.00, -0.00, -1.00, 0.0, 71.0)"><path d="M 39.0 7.5 C 38.8 7.6 38.6 7.7 38.2 7.7 C 38.4 7.8 38.5 7.8 38.5 8.0 C 38.8 7.8 39.2 7.7 39.8 7.7 C 39.8 7.6 39.5 7.6 39.3 7.7 C 39.0 7.7 39.1 7.6 39.0 7.5 C 39.0 7.5 39.0 7.5 39.0 7.5 Z M 29.9 56.2 C 29.5 56.0 29.9 56.5 30.1 56.6 C 30.1 56.5 30.1 56.5 30.3 56.6 C 30.3 56.8 29.8 56.7 29.5 56.7 C 28.2 56.0 29.4 56.0 29.9 56.2 C 29.9 56.2 29.9 56.2 29.9 56.2 Z M 103.0 62.3 C 104.1 62.1 102.9 62.0 102.7 61.9 C 103.2 61.7 102.7 61.4 103.4 61.2 C 103.5 61.3 103.8 61.4 103.9 61.5 C 103.6 61.6 103.2 61.6 103.2 61.7 C 103.6 61.7 104.1 61.5 104.2 61.6 C 103.4 61.9 104.1 62.0 104.3 62.1 C 103.5 62.2 103.3 62.6 103.0 62.3 C 103.0 62.3 103.0 62.3 103.0 62.3 Z M 125.6 23.2 C 125.9 23.5 126.2 23.7 126.0 23.8 C 125.6 23.5 125.4 23.3 125.3 23.1 C 125.1 23.2 125.1 23.4 124.8 23.2 C 124.6 22.7 125.0 22.5 125.3 22.5 C 125.2 22.8 126.4 23.5 125.6 23.2 C 125.6 23.2 125.6 23.2 125.6 23.2 Z M 95.9 11.7 C 94.9 11.3 95.7 12.1 94.8 11.7 C 94.8 11.5 94.8 11.1 95.4 11.3 C 95.5 11.4 95.8 11.5 95.9 11.7 C 95.9 11.7 95.9 11.7 95.9 11.7 Z M 72.0 61.7 C 72.0 61.9 72.7 61.9 72.5 62.2 C 72.1 62.1 71.8 62.1 71.4 62.1 C 71.3 61.9 71.5 61.7 72.0 61.7 C 72.0 61.7 72.0 61.7 72.0 61.7 Z M 109.8 57.8 C 110.9 57.9 111.9 57.1 111.6 57.5 C 112.1 57.7 111.1 58.5 111.1 58.2 C 110.9 57.9 108.9 58.1 109.8 57.8 C 109.8 57.8 109.8 57.8 109.8 57.8 Z M 37.1 53.2 C 38.2 53.8 38.2 52.9 38.9 53.5 C 38.6 53.4 38.4 53.5 38.3 53.5 C 38.5 53.6 38.8 53.7 38.8 53.8 C 38.2 53.6 37.5 53.6 37.1 53.2 C 37.1 53.2 37.1 53.2 37.1 53.2 Z M 57.6 6.5 C 57.9 6.5 58.0 6.5 57.9 6.3 C 58.8 6.4 58.8 6.1 59.3 6.3 C 59.4 6.7 58.6 6.6 57.9 6.5 C 57.9 6.6 57.7 6.7 57.6 6.5 C 57.6 6.5 57.6 6.5 57.6 6.5 Z M 82.6 9.1 C 82.6 8.8 82.0 8.7 82.9 8.7 C 83.8 9.2 82.9 9.3 81.9 9.4 C 81.9 9.5 81.9 9.6 81.9 9.8 C 82.3 9.8 82.5 9.9 82.7 10.0 C 82.9 9.5 83.4 10.5 84.9 10.4 C 84.2 10.5 84.9 11.0 84.0 10.7 C 84.2 11.0 83.6 10.9 83.7 11.1 C 84.1 11.0 85.0 11.2 84.8 10.8 C 85.3 10.9 85.7 11.0 85.9 11.1 C 86.2 11.4 85.0 11.0 85.3 11.4 C 85.6 11.4 85.6 11.5 85.9 11.6 C 85.9 11.4 85.8 11.3 86.2 11.3 C 87.0 11.6 85.9 11.6 87.2 11.9 C 87.3 11.7 86.9 11.6 87.0 11.4 C 87.6 11.4 87.5 11.6 88.1 11.5 C 88.2 11.7 87.7 11.7 88.0 11.8 C 88.5 11.4 89.1 12.3 90.0 12.1 C 89.6 11.3 90.1 12.2 90.9 11.7 C 91.0 11.9 90.4 12.2 91.0 12.4 C 91.0 11.6 93.3 12.3 91.5 11.2 C 92.5 11.5 93.0 10.9 92.2 10.7 C 94.0 11.2 93.5 10.7 94.2 10.8 C 94.8 10.9 93.8 10.9 94.1 11.2 C 93.3 11.0 93.5 11.2 93.0 10.9 C 93.0 11.1 92.8 11.1 92.6 11.2 C 93.4 11.1 94.2 11.7 93.6 12.0 C 93.2 11.8 93.6 11.6 93.2 11.5 C 93.2 12.0 92.6 11.3 92.6 11.6 C 92.8 12.0 91.7 12.1 92.7 12.4 C 92.7 12.2 92.8 12.1 92.8 11.9 C 93.0 12.0 93.3 12.0 93.6 12.1 C 93.7 12.4 93.5 12.6 93.7 12.7 C 94.2 12.8 94.4 12.8 94.6 12.7 C 94.0 12.5 93.5 12.1 94.4 12.3 C 93.9 12.8 95.6 12.7 94.8 12.9 C 95.7 13.3 96.3 12.9 96.3 13.3 C 96.9 13.4 96.6 13.0 97.2 13.2 C 98.1 13.7 98.0 13.3 99.2 13.8 C 99.5 13.4 99.3 14.0 99.7 14.1 C 99.8 13.9 99.8 13.8 99.9 13.6 C 100.2 14.0 101.2 14.4 102.4 14.4 C 102.6 14.6 102.3 14.8 103.0 14.9 C 103.9 14.7 104.6 15.4 105.6 15.3 C 105.6 15.5 106.2 15.7 106.5 15.7 C 106.6 15.9 106.1 16.1 106.6 16.3 C 107.1 16.1 106.5 15.8 107.3 15.9 C 107.1 16.2 108.0 15.9 108.0 16.3 C 107.7 16.3 107.4 16.3 107.1 16.3 C 107.5 16.4 107.3 16.6 107.6 16.7 C 107.6 16.3 108.1 16.8 108.3 16.9 C 108.3 16.8 108.4 16.7 108.6 16.6 C 109.0 16.8 109.4 16.9 109.6 16.9 C 110.1 17.2 109.2 17.0 109.7 17.3 C 110.2 16.6 110.5 17.6 111.7 17.6 C 111.9 17.9 112.3 18.2 112.9 18.5 C 113.1 18.3 112.3 18.2 112.3 18.0 C 113.3 18.4 112.3 17.7 112.9 18.0 C 114.2 18.7 114.4 18.7 116.6 20.1 C 116.7 19.9 118.5 20.6 118.4 20.7 C 118.0 20.5 119.2 21.5 119.9 21.9 C 120.3 21.6 121.6 21.8 121.7 21.6 C 121.9 21.9 121.8 21.9 121.7 22.4 C 122.7 23.2 123.5 23.1 123.9 24.0 C 124.0 23.8 124.5 24.0 124.9 24.2 C 124.7 24.4 124.3 24.3 124.0 24.3 C 124.6 24.7 124.5 24.9 125.0 25.2 C 125.9 24.8 126.0 26.2 126.8 25.8 C 127.5 26.4 127.2 26.5 127.8 27.0 C 127.9 26.9 128.0 26.8 128.3 26.9 C 127.8 26.7 127.4 26.6 127.4 26.2 C 128.3 26.8 126.1 24.0 127.9 25.0 C 127.9 25.2 127.6 25.2 127.9 25.5 C 128.8 26.2 128.5 25.5 128.1 25.2 C 128.8 25.6 129.3 26.2 129.1 25.6 C 130.5 26.6 129.5 26.1 129.8 26.6 C 132.1 28.5 134.5 31.3 135.2 34.7 C 135.6 34.7 135.8 36.6 135.6 37.2 C 136.1 38.1 136.2 39.2 135.7 39.4 C 136.1 39.6 135.4 40.6 135.8 40.7 C 135.8 40.3 136.0 40.0 136.0 40.4 C 135.7 41.8 135.0 43.7 134.9 44.6 C 134.3 44.9 134.0 45.7 133.8 46.4 C 133.6 46.4 133.8 45.9 133.6 46.2 C 133.7 46.4 133.1 47.7 132.7 47.8 C 133.0 47.5 132.9 46.9 132.6 47.4 C 132.7 47.5 132.2 48.0 132.6 48.0 C 131.9 48.6 131.7 49.2 131.1 49.6 C 131.5 49.1 131.6 48.8 131.5 48.5 C 131.3 49.0 131.1 49.4 130.6 49.5 C 131.0 49.8 130.2 50.1 129.7 50.9 C 129.4 51.0 129.1 51.0 128.6 51.4 C 128.4 51.9 129.7 50.9 129.0 51.5 C 129.0 51.4 128.2 51.8 128.6 51.9 C 127.7 52.4 127.4 52.9 126.5 53.1 C 127.5 52.6 126.5 52.7 126.3 52.8 C 126.1 53.0 125.8 53.1 125.8 53.2 C 125.9 53.3 126.3 53.0 126.5 53.1 C 125.8 53.4 125.8 53.9 125.5 53.8 C 125.7 53.6 125.7 53.5 125.4 53.6 C 125.5 54.1 123.4 54.9 123.9 54.3 C 124.0 54.5 124.8 54.0 124.8 53.9 C 124.5 53.9 123.4 54.7 123.5 54.2 C 124.2 53.8 124.2 54.1 124.9 53.5 C 124.9 53.3 125.3 53.0 125.5 52.7 C 124.4 53.4 124.3 53.9 123.9 53.7 C 123.4 54.0 123.9 54.1 122.9 54.5 C 121.5 55.1 122.5 54.3 122.1 54.4 C 121.0 55.2 121.5 55.3 122.2 55.4 C 121.2 55.8 121.0 56.1 119.7 56.6 C 119.7 56.4 119.8 56.2 120.2 56.0 C 120.3 56.0 121.4 55.8 121.2 55.6 C 120.9 55.2 120.1 55.5 118.7 56.0 C 119.2 56.2 119.1 56.0 117.7 56.5 C 118.1 56.9 117.0 56.7 117.1 57.0 C 117.2 57.1 117.7 56.9 118.2 56.7 C 118.2 56.9 118.1 57.1 117.6 57.3 C 117.3 57.3 117.1 57.6 116.2 57.8 C 116.0 57.5 116.6 57.3 116.7 57.0 C 116.2 57.2 116.2 57.4 115.7 57.6 C 115.2 57.5 115.1 57.1 115.0 56.7 C 115.5 56.4 116.4 56.1 115.6 56.2 C 117.7 55.4 115.7 56.6 116.5 56.4 C 117.2 55.7 116.9 56.4 118.2 55.8 C 118.6 55.6 118.7 55.5 118.8 55.4 C 118.7 55.3 117.8 55.3 118.6 55.0 C 118.9 55.1 119.4 55.0 120.1 54.8 C 120.0 54.7 118.6 55.1 120.0 54.5 C 120.6 54.3 120.2 54.9 121.0 54.5 C 121.0 54.4 121.2 54.3 121.2 54.1 C 120.0 54.8 121.4 53.8 120.5 54.1 C 121.5 53.4 120.8 54.3 121.5 53.9 C 121.4 53.7 122.7 53.5 122.5 53.2 C 122.2 53.5 121.3 53.9 121.3 53.6 C 122.1 53.2 125.2 51.2 124.2 52.3 C 124.6 51.9 126.4 50.1 126.4 50.4 C 125.8 50.8 125.9 51.0 126.0 51.2 C 126.9 50.1 127.6 49.9 128.4 48.7 C 127.2 49.7 127.7 48.5 126.9 48.9 C 126.6 49.2 126.1 49.5 126.1 49.6 C 126.5 49.8 126.9 49.3 127.0 49.0 C 127.1 49.2 127.3 49.4 127.5 49.6 C 125.9 50.4 125.3 51.2 124.5 51.6 C 125.1 51.2 123.0 52.0 123.7 51.5 C 124.1 51.5 124.9 51.0 125.6 50.7 C 125.5 50.6 125.4 50.5 125.4 50.4 C 125.6 50.2 126.0 50.0 126.0 49.9 C 125.2 50.5 124.6 50.5 124.1 51.1 C 124.1 51.0 124.1 51.0 124.0 50.9 C 123.9 51.0 123.7 51.1 123.7 51.0 C 124.0 50.8 124.4 50.6 124.4 50.5 C 123.8 50.8 123.5 50.6 122.7 51.0 C 122.7 50.6 121.6 50.8 122.6 50.1 C 122.9 50.3 123.5 50.0 123.6 50.2 C 123.9 50.1 124.5 49.6 124.7 49.3 C 124.3 49.3 123.7 49.6 123.4 49.4 C 123.9 49.1 124.2 48.7 124.6 48.8 C 123.8 49.5 125.2 48.6 125.8 48.7 C 125.6 48.6 125.3 48.7 125.1 48.7 C 125.8 48.1 126.2 48.1 126.0 47.7 C 126.6 47.0 126.7 47.4 127.1 47.0 C 126.6 47.0 127.3 46.6 126.7 46.6 C 127.4 45.8 127.2 46.6 127.5 46.4 C 127.7 46.1 127.6 46.0 127.8 45.8 C 128.2 45.6 128.8 45.0 129.2 45.1 C 129.4 44.8 129.5 44.8 129.7 44.5 C 129.6 44.4 129.6 44.2 129.6 44.0 C 129.8 44.1 130.0 43.9 129.9 43.8 C 129.0 44.4 129.2 44.1 128.3 44.7 C 128.4 44.9 128.3 45.0 128.5 44.9 C 128.2 45.5 127.9 45.5 127.4 46.0 C 127.2 45.9 126.8 45.7 126.5 46.3 C 126.4 46.0 126.2 46.0 126.3 45.8 C 126.7 45.7 127.1 45.5 127.5 45.2 C 127.4 45.1 127.2 45.1 127.4 44.9 C 127.6 44.9 127.9 44.7 127.9 44.4 C 128.0 44.5 128.0 44.6 128.0 44.7 C 128.7 44.1 128.2 44.1 128.7 43.7 C 128.5 43.6 128.3 44.0 128.3 43.6 C 128.5 43.0 128.7 43.0 129.0 42.8 C 128.9 42.8 128.8 42.7 128.9 42.6 C 129.2 42.4 129.0 43.7 129.7 43.2 C 129.4 43.0 129.8 42.5 130.0 42.5 C 130.2 42.8 129.7 43.0 129.8 43.1 C 130.5 42.0 130.4 43.3 130.9 42.1 C 130.8 42.1 130.7 42.0 130.6 42.0 C 130.4 42.5 130.2 42.4 129.9 42.2 C 129.7 42.6 129.3 42.6 129.3 43.0 C 128.9 42.6 129.5 42.7 129.7 42.3 C 129.4 42.2 129.2 42.5 128.9 42.5 C 129.6 41.7 129.2 41.4 129.9 40.7 C 129.5 40.8 129.9 40.2 129.7 40.2 C 129.6 40.9 128.8 40.5 128.7 40.5 C 128.6 40.9 129.2 40.9 129.3 41.2 C 129.0 41.3 128.8 41.1 128.5 41.0 C 128.7 40.6 128.6 40.7 128.5 40.4 C 128.8 40.2 129.4 40.0 129.5 40.5 C 129.5 40.4 129.4 39.8 129.6 39.8 C 129.6 40.3 129.8 39.8 129.9 40.1 C 130.1 39.7 129.8 39.0 130.0 38.5 C 129.8 38.5 129.8 38.3 129.6 38.4 C 130.0 38.8 129.3 39.0 129.2 39.4 C 129.2 39.2 129.0 39.3 128.9 39.4 C 129.1 39.0 128.8 38.8 129.1 38.4 C 129.0 38.4 128.9 38.4 128.8 38.4 C 129.0 37.9 128.9 38.0 128.6 37.6 C 128.7 37.4 129.3 37.5 129.6 37.5 C 129.4 37.3 129.2 36.5 129.0 37.1 C 128.9 36.6 129.3 36.6 129.1 36.1 C 128.8 36.2 129.0 36.6 128.6 36.6 C 128.4 36.2 128.9 36.3 128.4 36.0 C 128.7 35.9 128.9 35.8 128.7 35.4 C 128.6 35.8 128.6 35.4 128.3 35.4 C 128.4 35.6 128.4 35.8 128.4 35.9 C 128.1 35.2 128.0 35.0 127.6 34.5 C 128.0 34.5 127.9 34.1 128.3 34.4 C 127.8 34.2 127.8 33.4 127.5 33.3 C 127.6 33.6 127.9 34.0 127.8 34.3 C 126.9 33.1 126.1 32.7 125.3 31.3 C 125.5 31.4 125.7 31.7 125.8 31.7 C 125.7 31.5 125.5 31.4 125.6 31.3 C 126.0 31.7 126.3 32.1 126.6 32.2 C 126.8 32.7 126.2 32.2 126.5 32.6 C 126.7 32.5 127.1 33.3 127.2 32.8 C 126.5 32.4 126.2 31.6 126.2 31.0 C 125.2 30.8 125.8 31.3 124.8 31.1 C 124.9 31.0 124.8 30.8 124.6 30.5 C 124.6 31.1 123.8 30.1 123.7 30.0 C 124.2 30.2 125.6 31.1 125.2 30.3 C 125.0 31.1 123.8 28.8 123.8 29.6 C 122.9 28.9 123.5 28.8 122.7 28.7 C 122.8 28.6 122.9 28.5 122.7 28.3 C 122.4 28.1 122.3 28.1 122.1 28.1 C 123.4 29.3 122.7 29.3 123.5 30.0 C 123.3 29.8 123.2 29.8 123.2 29.9 C 123.2 29.9 123.1 29.9 122.9 29.8 C 123.1 29.4 122.2 29.3 122.2 29.0 C 122.5 29.1 122.7 29.3 122.8 29.1 C 121.6 28.4 122.1 28.2 120.4 26.9 C 120.9 27.4 120.1 27.0 119.5 26.6 C 118.6 26.1 119.2 25.8 118.0 25.2 C 117.7 26.0 116.8 24.5 115.0 24.1 C 115.4 23.8 113.8 22.9 113.4 23.1 C 113.4 23.0 113.0 22.8 112.6 22.7 C 112.6 22.5 113.0 22.6 112.8 22.4 C 112.5 22.3 112.6 22.7 112.2 22.6 C 111.8 22.3 112.0 22.0 111.3 21.8 C 111.2 22.0 111.6 22.1 111.1 22.1 C 110.6 21.8 110.0 21.6 110.4 22.1 C 109.5 21.7 110.2 21.4 109.3 21.1 C 109.5 21.3 109.4 21.4 109.0 21.3 C 108.7 20.9 108.8 20.8 108.7 20.6 C 108.4 20.8 108.4 20.8 107.7 20.5 C 107.7 20.6 107.7 20.7 107.6 20.9 C 107.3 20.7 106.8 20.6 106.7 20.4 C 107.3 20.7 107.2 20.4 107.5 20.4 C 106.9 20.1 105.8 19.4 106.6 20.1 C 105.7 19.9 106.3 19.7 105.5 19.5 C 105.9 20.0 105.6 19.5 104.8 19.3 C 104.7 19.8 104.3 19.2 103.8 19.1 C 103.8 19.4 103.7 19.5 103.3 19.4 C 103.3 19.2 103.1 19.1 102.6 19.0 C 102.6 19.1 103.5 19.6 102.5 19.3 C 102.1 19.0 102.2 18.6 101.4 18.4 C 101.4 18.1 102.2 18.4 102.1 18.1 C 101.4 18.2 101.3 17.9 100.4 17.6 C 100.6 18.2 98.4 17.8 99.4 18.3 C 99.1 18.2 98.5 18.5 98.4 18.2 C 98.7 18.2 98.2 17.8 98.2 17.7 C 97.8 17.7 96.8 17.2 96.7 17.4 C 97.7 17.6 97.6 17.9 97.9 18.1 C 96.4 18.0 95.2 17.5 95.4 17.2 C 95.4 17.3 95.2 17.3 95.1 17.4 C 95.6 17.4 95.8 18.0 95.3 17.9 C 95.4 17.6 95.1 17.4 94.6 17.2 C 94.5 17.5 92.8 16.7 93.0 17.2 C 93.8 17.1 94.3 17.7 93.7 17.8 C 93.3 17.4 92.3 17.0 92.6 16.8 C 92.3 16.8 92.0 16.9 91.7 16.9 C 91.5 17.1 92.0 17.2 91.9 17.5 C 91.5 17.4 90.9 17.3 90.9 17.2 C 91.9 17.3 90.4 16.9 91.5 16.9 C 90.8 16.8 90.7 16.6 90.2 16.4 C 90.2 16.5 90.0 16.5 89.9 16.6 C 90.4 16.5 90.8 16.7 90.7 17.0 C 89.7 16.9 89.9 16.5 89.1 16.4 C 88.9 16.6 87.7 16.8 87.2 16.5 C 88.3 16.7 87.2 16.3 87.8 16.3 C 88.7 16.6 89.0 16.4 89.5 16.2 C 89.1 15.9 88.3 15.7 88.1 16.0 C 88.6 16.1 88.7 16.0 89.0 16.0 C 88.9 16.1 88.7 16.3 88.4 16.3 C 88.0 16.0 86.9 16.0 87.7 15.7 C 87.0 15.8 86.3 15.4 85.5 15.5 C 86.3 15.6 86.8 15.8 87.0 16.1 C 86.4 16.1 85.8 15.7 85.7 15.9 C 85.7 16.2 86.8 16.3 87.0 16.5 C 86.1 16.7 85.0 15.6 85.9 16.4 C 85.4 16.3 84.8 16.2 84.6 16.0 C 85.2 16.1 84.6 15.6 84.4 15.5 C 83.9 15.4 83.5 15.4 83.3 15.5 C 84.1 15.5 84.6 16.0 84.1 15.9 C 84.0 15.8 83.8 15.9 83.5 16.0 C 83.5 15.8 82.6 15.8 82.5 15.6 C 82.5 15.8 82.9 15.8 83.0 16.0 C 82.5 16.0 81.7 16.3 81.4 15.9 C 81.7 15.9 82.1 16.0 82.2 15.9 C 80.8 15.2 80.4 14.8 78.8 14.4 C 79.0 14.4 79.1 14.4 79.1 14.3 C 78.0 14.1 77.4 13.9 77.5 13.7 C 76.8 13.7 76.5 13.8 76.1 14.0 C 76.8 14.2 77.1 13.9 77.5 14.2 C 77.2 14.2 77.9 14.8 78.2 15.1 C 79.4 14.9 79.4 15.4 80.6 15.4 C 80.2 15.6 81.5 15.5 81.1 15.8 C 80.0 15.2 79.0 15.4 77.4 15.1 C 77.6 14.9 77.8 14.7 77.2 14.5 C 76.1 14.2 76.6 14.7 75.8 14.5 C 75.4 14.2 75.9 14.2 75.5 14.1 C 75.2 14.2 74.4 14.1 74.2 13.8 C 75.3 13.9 74.0 13.5 74.8 13.4 C 74.4 13.4 74.2 13.3 73.9 13.3 C 75.0 13.7 72.8 13.6 73.6 13.9 C 72.1 14.0 73.6 13.2 72.3 13.1 C 72.9 13.4 72.1 13.5 71.2 13.3 C 71.0 13.0 70.0 12.9 69.3 12.7 C 69.7 13.0 70.0 13.0 69.3 13.1 C 69.6 13.3 70.3 13.3 70.6 13.2 C 70.6 13.3 70.7 13.4 70.9 13.5 C 70.0 13.5 70.4 13.7 70.1 13.8 C 69.8 13.6 69.1 13.6 69.0 13.4 C 69.0 13.5 68.7 13.5 68.7 13.6 C 69.8 13.7 68.5 14.0 69.2 14.1 C 69.7 14.1 69.4 13.8 70.1 13.9 C 70.6 14.3 69.5 14.2 69.2 14.5 C 69.7 14.8 70.4 14.4 70.5 14.8 C 69.8 15.1 68.7 14.8 67.8 14.7 C 67.9 15.1 66.3 14.5 66.2 15.0 C 66.0 14.9 65.9 14.8 65.6 14.7 C 65.4 15.0 65.1 14.6 64.8 14.6 C 64.8 14.7 64.9 14.9 65.1 15.0 C 64.0 14.8 63.7 14.8 62.4 14.9 C 62.2 14.7 62.0 14.6 61.9 14.3 C 62.2 14.3 62.5 14.2 62.7 14.1 C 60.9 14.1 62.0 14.9 60.8 14.4 C 60.8 14.6 61.7 14.9 61.0 15.0 C 59.9 14.6 58.3 15.0 58.4 14.1 C 57.4 13.9 56.7 14.5 56.2 14.1 C 55.9 14.1 55.8 14.2 55.7 14.3 C 56.0 14.5 56.4 14.6 56.8 14.8 C 57.3 14.6 57.6 14.9 57.0 14.5 C 57.9 14.4 58.2 14.6 58.6 14.7 C 57.4 15.0 56.3 14.7 56.3 15.2 C 55.8 15.0 55.5 14.8 55.2 14.6 C 55.0 14.9 53.7 15.0 53.6 14.7 C 54.5 14.8 55.4 14.3 54.6 14.2 C 52.3 14.5 51.0 14.0 49.1 14.5 C 49.0 14.4 49.2 14.1 48.8 14.1 C 48.8 14.3 48.8 14.5 48.6 14.6 C 48.0 14.6 47.6 14.5 46.8 14.6 C 46.8 14.3 46.7 14.1 46.2 14.1 C 46.0 14.4 45.2 15.1 44.8 15.1 C 45.3 15.0 44.6 14.7 44.2 14.7 C 44.6 15.1 41.9 14.7 42.7 15.0 C 41.7 15.2 41.3 15.1 41.2 15.0 C 40.9 15.1 40.6 15.2 40.3 15.3 C 40.0 14.9 38.3 15.5 38.1 15.4 C 38.7 15.4 38.7 14.9 38.2 15.0 C 37.9 15.3 36.5 15.9 36.2 15.9 C 36.2 15.7 36.3 15.4 37.0 15.2 C 35.8 15.4 35.9 15.8 35.5 16.2 C 35.5 15.8 35.0 16.3 34.8 16.4 C 34.4 16.2 34.8 16.2 34.7 16.0 C 34.3 16.0 34.1 15.9 33.5 16.0 C 33.8 16.3 33.1 16.3 32.9 16.3 C 32.8 16.5 32.6 16.7 32.1 16.9 C 32.6 16.2 29.2 17.1 30.1 17.3 C 29.5 17.7 29.3 17.1 28.5 17.4 C 28.3 17.6 27.8 17.7 28.3 17.8 C 27.7 18.0 27.8 17.6 26.5 18.1 C 27.2 18.3 25.3 18.5 25.7 18.9 C 25.0 18.5 24.3 19.6 23.1 19.6 C 23.2 19.7 22.9 19.8 22.9 19.9 C 22.8 20.1 24.1 19.6 23.3 20.0 C 22.2 20.2 22.7 19.9 22.5 19.8 C 19.9 21.1 17.3 22.5 15.4 23.8 C 15.7 23.8 15.8 23.9 15.5 24.2 C 14.6 24.1 13.1 26.0 13.1 26.4 C 12.6 26.3 12.3 27.3 12.1 27.4 C 12.2 27.2 12.2 26.7 11.9 27.1 C 12.1 27.5 11.7 27.7 11.7 28.1 C 11.3 28.1 11.2 29.3 10.9 28.6 C 10.8 28.8 10.7 28.9 10.6 29.0 C 10.9 29.1 10.8 29.3 11.1 29.0 C 10.5 29.8 10.8 30.1 10.4 30.8 C 10.6 30.9 10.8 30.4 10.8 30.8 C 10.8 30.8 10.7 30.8 10.6 30.8 C 10.6 31.0 10.7 31.0 10.6 31.1 C 10.4 31.0 10.5 30.8 10.1 30.7 C 10.2 31.1 9.8 31.3 10.1 31.5 C 10.1 31.0 10.7 31.3 10.4 31.6 C 10.2 31.4 10.4 32.8 10.7 33.2 C 10.4 33.5 10.5 32.7 10.3 32.8 C 10.5 33.6 10.4 33.6 10.8 33.6 C 10.8 34.1 10.6 34.3 11.1 34.8 C 11.0 35.2 10.7 34.7 10.8 35.1 C 11.0 35.3 11.2 35.3 11.4 35.6 C 11.2 36.7 13.5 38.2 13.7 39.9 C 13.5 39.3 14.2 39.7 14.7 40.3 C 14.7 40.4 14.5 40.5 14.7 40.7 C 14.8 40.5 15.0 40.6 15.4 41.0 C 15.4 41.1 15.2 41.2 15.4 41.4 C 15.8 41.2 16.1 42.0 16.6 42.1 C 16.5 42.5 15.7 41.6 15.5 41.7 C 16.4 42.8 16.8 42.6 17.7 43.4 C 17.2 43.1 17.8 43.9 17.9 44.1 C 17.9 43.7 18.8 44.1 18.3 43.5 C 18.7 43.8 19.3 44.1 19.3 44.3 C 19.1 44.2 18.8 44.0 18.7 44.0 C 19.2 44.3 19.6 45.0 20.0 44.9 C 19.7 44.6 19.6 44.4 19.6 44.3 C 19.8 44.3 20.0 44.3 20.4 44.4 C 19.2 44.6 21.6 45.7 21.9 45.6 C 21.9 46.1 22.0 46.2 21.8 46.3 C 22.9 46.9 22.9 46.6 23.6 46.8 C 23.2 47.0 22.9 47.2 23.8 47.8 C 23.8 47.4 25.0 48.1 24.9 47.5 C 27.6 48.7 27.2 48.9 28.2 49.4 C 28.3 49.3 28.0 49.1 28.3 49.2 C 28.8 49.5 29.2 49.8 29.4 50.1 C 29.8 50.0 29.4 49.8 29.8 49.8 C 30.5 50.4 30.2 50.7 30.8 51.2 C 31.8 51.3 31.4 51.3 32.1 51.2 C 31.8 51.1 31.6 50.9 31.9 51.0 C 32.3 51.4 32.5 51.8 32.6 51.9 C 32.2 51.8 31.9 51.7 31.7 51.5 C 31.5 51.7 30.9 51.4 31.3 51.8 C 30.8 51.5 30.2 51.2 29.3 50.9 C 29.5 51.3 28.6 50.7 28.8 51.1 C 29.7 51.4 29.8 51.7 30.7 52.0 C 30.7 51.6 31.5 52.1 31.7 52.3 C 31.7 52.1 32.3 52.4 32.3 52.1 C 33.0 52.2 32.9 52.5 33.6 52.6 C 33.6 52.8 33.5 52.9 33.7 53.0 C 34.1 52.8 34.2 53.3 34.4 53.3 C 34.4 53.0 35.4 53.5 35.5 53.3 C 35.2 53.2 34.8 53.1 34.8 52.9 C 35.9 53.4 35.1 52.8 35.0 52.5 C 35.0 52.6 34.4 52.9 34.4 52.6 C 35.5 52.7 33.2 51.6 34.1 52.1 C 34.8 52.4 34.8 52.1 35.5 52.4 C 36.2 53.2 35.1 53.2 35.8 53.9 C 36.4 53.8 36.8 54.0 36.9 53.7 C 37.0 53.9 37.1 54.0 37.3 54.2 C 37.6 54.1 36.7 53.6 37.4 53.8 C 37.8 54.0 37.2 54.2 38.1 54.4 C 38.5 54.3 37.2 53.8 37.9 53.9 C 38.6 54.6 37.8 53.8 38.7 54.0 C 38.8 54.1 38.9 54.1 39.2 54.2 C 39.2 54.4 39.0 54.5 39.3 54.7 C 39.6 54.2 39.6 55.0 40.3 55.0 C 40.7 54.8 39.7 54.7 39.9 54.4 C 40.6 55.0 41.1 54.7 41.4 54.8 C 40.7 54.9 42.3 55.3 42.3 55.6 C 42.2 55.2 42.5 55.4 43.5 55.3 C 43.4 55.9 44.5 55.8 44.6 56.2 C 44.7 56.1 45.0 56.1 45.2 56.0 C 44.9 55.9 44.6 55.8 44.7 55.7 C 45.0 55.7 45.2 55.8 45.5 55.8 C 45.9 56.2 44.6 56.5 46.4 56.9 C 46.2 56.4 47.0 56.5 47.5 56.5 C 47.5 56.1 46.8 56.3 46.8 56.1 C 47.4 56.0 48.0 56.4 48.3 56.7 C 49.4 56.7 50.5 57.2 52.0 57.3 C 52.3 57.6 50.7 57.3 51.7 57.6 C 52.1 57.7 52.0 57.4 52.5 57.6 C 51.8 58.8 56.6 58.5 56.8 59.1 C 57.0 58.8 58.3 59.2 58.2 58.8 C 57.3 58.9 56.7 58.4 56.3 58.2 C 55.5 58.2 57.0 58.6 56.3 58.6 C 56.2 58.4 55.1 58.4 55.2 58.1 C 56.4 58.3 54.7 57.7 55.6 57.6 C 56.7 57.8 58.9 57.8 58.3 58.1 C 58.3 58.0 57.8 57.9 57.8 58.0 C 59.0 58.3 59.7 58.2 60.3 58.0 C 60.8 58.3 63.0 58.1 62.4 58.3 C 62.6 58.6 61.1 58.1 61.3 58.3 C 63.6 58.7 63.7 58.5 65.2 58.9 C 64.7 58.4 66.8 58.5 66.6 58.6 C 66.6 58.9 67.0 59.1 68.0 58.9 C 67.8 59.2 68.3 59.3 68.8 59.4 C 69.0 59.2 68.4 59.2 68.5 58.9 C 69.0 59.0 69.4 59.0 69.9 59.0 C 69.9 59.1 69.8 59.3 70.1 59.3 C 70.7 59.2 72.6 59.0 72.4 59.1 C 71.6 59.5 73.6 59.5 72.4 59.7 C 72.7 59.8 72.7 59.9 73.2 59.9 C 73.2 59.8 73.2 59.6 73.2 59.5 C 74.2 59.5 73.7 60.0 74.6 60.0 C 74.7 59.9 75.0 59.9 75.1 59.7 C 74.8 59.7 74.8 59.9 74.3 59.8 C 74.8 59.3 73.4 59.5 73.5 59.2 C 74.5 59.2 74.5 59.5 74.9 59.6 C 76.1 59.5 75.5 59.6 76.8 59.7 C 76.8 59.6 76.4 59.5 76.5 59.4 C 78.1 59.5 77.9 60.1 79.0 59.9 C 78.8 59.9 77.8 60.2 78.5 60.2 C 79.2 60.1 79.4 59.8 80.4 59.7 C 80.4 59.8 80.3 60.0 80.7 60.0 C 81.1 59.9 81.1 59.6 81.5 59.5 C 81.6 59.7 82.1 59.6 82.3 59.5 C 82.6 59.7 82.2 59.8 82.6 59.9 C 83.4 59.9 83.8 59.2 84.5 59.2 C 84.5 59.6 85.2 59.5 85.9 59.4 C 86.0 59.8 87.4 59.6 88.3 59.7 C 88.1 59.4 89.0 59.4 88.8 59.1 C 88.3 59.2 88.1 59.1 88.0 59.0 C 89.0 58.9 89.4 59.5 90.1 58.9 C 90.5 59.1 91.0 59.3 91.7 59.3 C 91.8 59.1 90.5 59.1 91.2 58.9 C 91.3 59.1 91.5 59.0 91.7 58.9 C 91.6 59.2 92.2 59.3 92.6 59.4 C 93.2 59.1 94.5 59.4 93.8 59.1 C 94.8 58.9 94.2 59.5 95.0 59.5 C 94.5 59.1 95.8 58.9 95.1 58.8 C 96.1 58.6 96.1 59.1 95.7 59.3 C 96.6 59.3 96.8 59.0 97.3 59.1 C 96.8 58.9 98.2 58.5 97.5 58.8 C 97.3 59.1 98.3 58.8 98.6 58.9 C 98.2 58.7 98.7 58.7 98.0 58.6 C 98.7 58.4 99.6 58.2 100.3 58.5 C 101.1 58.1 101.9 58.0 101.6 58.4 C 102.3 58.2 102.0 58.2 102.8 58.1 C 102.8 58.0 102.6 58.1 102.5 58.0 C 103.6 57.8 103.4 58.0 104.8 57.8 C 104.7 58.2 105.5 58.0 105.9 58.1 C 105.3 58.2 104.8 58.2 104.3 58.3 C 104.3 58.4 104.8 58.4 104.4 58.5 C 104.3 58.4 104.1 58.4 103.9 58.4 C 104.8 58.6 102.8 59.2 103.4 58.7 C 103.4 58.8 103.5 58.8 103.7 58.8 C 103.5 58.5 103.5 58.6 103.6 58.3 C 103.2 58.5 102.7 58.2 102.6 58.5 C 102.7 58.6 103.1 58.5 103.1 58.6 C 102.0 59.0 102.7 58.3 101.9 58.5 C 101.7 58.9 102.2 58.9 102.5 59.0 C 101.6 59.2 100.9 59.3 100.7 59.1 C 99.9 59.4 100.7 59.4 100.2 59.6 C 99.9 59.5 99.9 59.3 99.4 59.3 C 98.8 59.5 99.8 59.5 99.2 59.6 C 98.5 59.5 99.6 59.2 98.6 59.2 C 98.9 59.7 97.7 59.3 97.9 59.5 C 98.4 59.4 98.5 59.9 98.1 59.6 C 96.8 59.4 96.1 60.6 94.7 60.0 C 94.8 60.1 94.6 60.2 94.5 60.2 C 95.5 60.4 96.9 60.2 97.2 60.6 C 97.9 60.4 97.8 60.2 97.9 60.0 C 98.9 60.3 98.8 60.4 98.3 60.9 C 96.8 61.2 96.2 61.0 95.1 61.0 C 94.6 61.3 95.2 61.1 95.4 61.3 C 92.3 61.3 94.7 61.9 93.6 61.9 C 93.6 61.8 93.4 61.7 93.1 61.7 C 93.1 61.8 92.6 61.8 92.5 62.0 C 92.7 62.0 92.9 62.0 92.8 62.1 C 92.0 62.3 92.3 62.0 92.2 61.8 C 92.9 61.8 93.2 61.7 93.3 61.5 C 92.5 61.7 91.9 61.5 91.4 61.8 C 90.7 61.5 91.8 60.9 91.3 60.6 C 91.4 60.4 90.9 61.4 90.3 61.6 C 89.3 61.7 89.3 62.0 88.4 62.1 C 88.2 61.8 89.3 61.9 89.2 61.6 C 89.0 61.6 88.9 61.6 88.7 61.5 C 88.0 61.6 88.1 61.9 87.6 62.0 C 87.3 61.7 87.2 61.9 86.8 62.1 C 86.2 61.9 87.1 61.8 86.5 61.8 C 85.8 61.7 85.4 62.2 85.1 62.1 C 85.1 62.0 85.2 61.8 84.9 61.8 C 84.1 62.1 83.9 62.1 84.9 62.2 C 84.0 62.2 83.6 62.4 83.8 62.7 C 85.1 62.7 85.4 62.6 86.0 63.0 C 86.2 62.6 86.6 62.9 87.1 62.9 C 86.8 62.4 87.7 62.9 87.9 62.6 C 87.6 62.6 87.3 62.5 87.1 62.4 C 88.5 62.4 88.4 62.5 89.5 61.9 C 89.5 62.0 89.7 62.1 89.8 62.2 C 89.5 62.3 88.5 62.3 88.5 62.6 C 89.3 62.9 89.5 62.3 90.4 62.6 C 90.8 62.4 89.7 62.3 90.4 62.2 C 90.7 62.4 91.2 62.5 91.8 62.6 C 92.3 62.5 92.6 62.3 93.1 62.2 C 93.1 62.3 93.2 62.4 93.7 62.4 C 93.6 62.2 93.2 62.2 93.6 62.0 C 95.1 62.3 96.0 62.5 97.4 62.1 C 96.9 62.1 95.8 61.9 96.3 61.9 C 97.0 62.0 97.8 61.5 98.4 61.7 C 98.6 61.8 97.6 61.7 97.9 62.2 C 98.6 62.0 98.9 62.0 99.3 62.1 C 99.2 61.9 100.0 61.8 99.7 61.6 C 99.2 61.6 99.1 62.0 99.0 61.9 C 99.3 61.0 100.9 61.9 101.9 61.8 C 102.5 61.5 101.4 61.5 102.1 61.3 C 102.5 61.1 102.9 61.8 102.2 62.0 C 101.7 61.9 101.5 62.4 101.4 62.0 C 101.2 62.1 100.9 62.1 100.9 62.2 C 101.3 62.2 101.2 62.4 101.5 62.4 C 100.9 62.5 101.0 63.1 100.4 62.8 C 100.7 62.7 100.8 62.6 100.9 62.5 C 99.6 62.8 99.1 62.6 98.3 62.6 C 98.7 62.8 98.3 62.7 98.3 63.0 C 98.9 62.8 100.1 62.9 99.4 63.1 C 98.9 62.7 98.6 63.8 98.1 63.4 C 98.5 63.4 98.4 63.2 98.6 63.1 C 98.0 63.1 98.0 62.9 97.5 62.9 C 95.8 63.6 94.4 62.9 91.6 63.8 C 90.6 63.9 92.5 63.6 92.4 63.4 C 92.1 63.4 92.0 63.3 91.8 63.3 C 91.8 63.7 91.3 63.4 91.0 63.7 C 91.0 63.4 89.7 63.8 89.1 63.5 C 89.0 63.6 89.1 63.8 88.8 63.8 C 86.8 63.6 83.1 64.2 81.5 63.9 C 81.6 64.2 80.9 64.2 80.7 64.3 C 79.7 64.3 80.2 64.0 78.7 64.3 C 78.0 64.4 78.9 64.1 79.0 64.0 C 76.8 64.2 75.0 63.8 73.6 64.1 C 72.9 64.2 73.6 63.9 72.2 63.8 C 72.1 64.2 69.9 63.4 69.6 63.9 C 68.7 63.9 67.2 63.2 67.9 63.7 C 66.7 63.6 67.5 63.3 67.0 63.2 C 66.2 63.2 67.2 64.0 66.4 64.0 C 66.5 63.7 65.8 63.7 65.3 63.4 C 66.0 63.5 66.4 63.5 66.5 63.3 C 65.9 63.4 66.0 63.2 65.1 63.2 C 64.4 63.3 62.4 63.4 61.9 62.9 C 61.9 63.0 62.1 63.1 62.2 63.2 C 61.6 63.2 61.0 62.7 61.0 63.2 C 59.8 63.0 59.3 62.6 58.5 62.8 C 57.9 62.9 58.7 62.6 57.1 62.4 C 57.1 62.6 54.2 62.2 53.5 61.8 C 53.4 62.2 53.3 61.8 53.0 61.7 C 52.9 61.8 52.9 62.0 52.6 62.0 C 52.6 61.8 52.3 61.8 52.1 61.9 C 52.4 61.4 51.0 61.8 51.0 61.5 C 51.3 61.5 51.3 61.3 51.1 61.2 C 50.9 61.5 49.9 60.8 50.0 61.1 C 50.2 61.2 51.0 61.3 50.7 61.5 C 49.6 61.4 50.1 61.1 49.4 61.0 C 49.4 61.1 49.8 61.3 49.3 61.3 C 48.6 61.0 49.3 61.2 48.9 60.9 C 48.5 60.8 47.7 60.9 47.4 60.9 C 47.5 60.9 47.3 60.7 47.2 60.6 C 45.8 60.2 42.6 59.8 41.4 59.1 C 41.3 59.2 41.0 59.1 41.0 59.4 C 40.3 59.0 40.3 59.1 39.5 58.8 C 39.5 58.9 39.5 59.0 39.4 59.2 C 38.4 59.0 39.5 58.7 38.8 58.6 C 38.5 59.2 38.4 58.2 37.8 58.1 C 37.7 58.2 37.4 58.1 37.4 58.4 C 36.4 58.1 36.6 57.6 35.8 57.6 C 35.9 57.7 35.8 58.6 35.6 58.9 C 35.5 58.7 35.3 58.5 34.9 58.4 C 35.5 58.2 35.6 57.0 34.3 57.0 C 34.9 57.1 35.2 57.3 34.9 57.5 C 34.0 57.2 33.8 56.9 33.0 56.7 C 32.8 56.9 33.3 57.1 33.0 57.4 C 32.8 57.4 32.7 57.4 32.7 57.5 C 31.9 57.2 32.0 57.0 31.1 56.8 C 31.1 56.7 31.3 56.7 31.6 56.9 C 31.6 56.7 31.7 56.4 32.2 56.6 C 32.2 56.8 31.8 57.0 32.6 57.2 C 32.6 57.0 32.7 56.8 32.8 56.7 C 32.2 56.5 31.0 55.8 30.9 55.9 C 31.1 56.1 31.5 56.3 31.2 56.5 C 30.3 56.1 30.1 55.7 29.5 55.3 C 28.1 54.9 26.0 53.9 26.1 54.4 C 25.4 54.0 25.6 54.1 25.0 53.7 C 25.1 54.1 24.2 53.5 24.2 53.8 C 25.0 54.1 24.7 54.0 25.6 54.3 C 25.5 54.5 25.3 54.6 24.9 54.5 C 25.0 54.3 24.7 54.1 24.1 53.9 C 24.2 54.0 24.5 54.5 24.0 54.2 C 23.9 54.2 23.9 54.1 23.6 54.0 C 23.7 53.8 23.7 53.7 23.8 53.5 C 24.1 53.6 24.5 53.7 24.8 53.6 C 24.6 53.5 24.6 53.4 24.4 53.3 C 24.2 53.4 23.2 52.8 23.0 52.9 C 23.6 53.2 23.9 53.5 23.2 53.3 C 23.2 53.2 22.3 52.6 21.8 52.6 C 23.0 53.3 22.5 53.1 23.0 53.7 C 21.5 53.1 21.9 52.8 20.3 52.1 C 20.4 51.9 20.5 51.7 21.0 51.8 C 20.2 50.7 17.8 50.0 17.2 49.5 C 17.6 49.8 18.3 49.8 17.7 49.3 C 17.6 49.4 17.1 49.1 16.9 49.1 C 16.4 49.4 16.8 50.1 17.2 50.7 C 16.7 50.3 16.5 50.4 15.9 50.0 C 15.9 49.7 16.7 49.7 16.0 49.2 C 15.6 49.5 14.8 48.5 14.4 48.6 C 14.8 48.9 15.1 49.2 14.5 48.9 C 14.8 48.8 13.8 48.3 13.9 48.1 C 14.7 48.5 15.0 48.4 15.5 48.7 C 14.9 48.3 16.1 48.8 15.1 48.1 C 14.6 48.0 14.2 48.1 13.2 47.3 C 12.9 47.0 13.4 47.0 13.0 46.6 C 12.9 46.9 11.8 46.2 12.6 46.5 C 12.3 46.2 12.1 46.0 12.0 45.8 C 12.3 46.4 9.8 44.7 10.0 45.2 C 10.3 44.9 10.4 44.5 10.4 44.3 C 9.7 44.2 9.5 43.5 8.5 42.4 C 8.2 42.7 8.3 42.3 7.9 41.8 C 7.7 41.9 8.0 42.3 7.7 42.0 C 7.4 41.4 7.4 41.4 7.4 41.2 C 7.1 40.8 6.9 40.4 6.9 40.2 C 6.7 40.2 6.8 40.4 6.8 40.6 C 6.0 38.8 5.3 38.2 4.8 36.7 C 4.9 37.3 5.4 37.3 5.2 36.8 C 5.0 36.6 4.9 36.3 4.7 36.2 C 4.6 36.6 4.7 36.4 4.5 35.7 C 4.2 35.0 4.1 36.1 3.9 35.5 C 4.0 34.9 4.2 35.2 4.2 34.9 C 4.1 34.6 4.1 34.4 4.0 34.1 C 3.9 34.6 3.7 34.1 3.6 33.6 C 4.0 33.9 4.0 33.7 3.8 32.8 C 4.0 32.7 4.1 33.2 4.1 32.8 C 4.1 32.6 3.7 31.8 4.0 31.2 C 4.0 31.4 4.0 31.5 4.2 31.5 C 3.9 30.8 4.4 30.3 4.6 29.7 C 4.3 30.3 4.1 29.9 3.9 30.1 C 4.2 29.6 4.0 28.7 4.5 28.4 C 4.2 29.2 5.1 28.5 5.2 28.0 C 5.0 27.8 4.8 28.7 4.5 28.4 C 4.3 28.0 5.0 27.5 4.8 27.1 C 4.6 27.1 4.7 27.5 4.5 27.5 C 4.7 27.1 4.3 27.6 4.4 27.2 C 4.8 27.1 4.5 26.7 4.6 26.4 C 4.8 26.1 5.5 25.7 5.4 25.3 C 5.3 25.3 5.1 25.7 5.0 25.7 C 5.5 24.3 6.1 24.1 6.6 22.8 C 6.8 22.8 7.1 22.6 7.3 22.3 C 7.2 22.2 7.3 22.0 7.5 21.7 C 8.0 21.3 8.5 21.0 9.1 20.5 C 9.2 20.8 9.0 21.1 9.8 20.4 C 9.7 20.3 9.4 20.6 9.6 20.3 C 9.7 20.3 9.9 20.2 9.9 20.1 C 9.8 20.0 9.8 20.0 9.7 19.9 C 9.5 20.1 9.3 20.3 9.1 20.5 C 9.0 20.4 8.8 20.3 8.6 20.4 C 9.4 19.4 9.8 19.9 10.2 19.2 C 10.7 19.4 10.9 19.4 10.6 20.0 C 11.1 19.5 11.4 19.1 11.4 18.7 C 10.7 19.3 10.7 18.9 10.4 18.9 C 10.9 18.5 10.8 18.4 11.0 18.2 C 11.6 17.9 10.7 19.0 11.8 18.3 C 10.8 18.6 12.3 17.5 13.0 17.2 C 12.8 17.2 12.6 17.3 12.8 17.0 C 14.2 15.8 14.7 16.8 15.4 15.7 C 15.4 15.9 15.9 15.6 16.1 15.6 C 15.3 16.2 15.2 16.4 14.8 16.6 C 15.0 16.7 15.2 16.6 15.5 16.5 C 15.4 16.3 15.6 16.2 16.0 16.1 C 16.2 15.7 15.9 15.4 16.4 14.8 C 16.6 14.9 16.5 15.1 16.9 14.9 C 17.1 14.5 16.8 15.5 18.3 14.6 C 18.0 14.7 17.8 14.6 17.8 14.3 C 18.5 13.9 18.4 14.1 19.4 13.5 C 19.9 13.8 18.9 14.3 18.8 14.8 C 19.4 14.4 19.8 13.8 20.6 13.7 C 20.0 13.8 20.5 13.3 21.1 13.0 C 21.7 12.8 21.2 13.4 22.0 13.1 C 22.5 12.8 22.8 12.5 22.2 12.5 C 23.5 12.1 23.1 11.9 24.3 11.6 C 24.4 11.7 24.0 11.9 23.6 11.9 C 23.7 12.0 23.6 12.2 24.0 12.1 C 24.7 11.5 26.4 11.0 26.9 10.6 C 28.1 10.8 29.1 9.8 30.2 9.8 C 29.9 10.2 31.7 9.5 32.3 9.7 C 32.6 9.5 33.5 8.6 33.2 9.0 C 33.4 9.4 34.0 9.1 34.5 9.1 C 34.5 9.0 34.5 8.9 34.5 8.8 C 35.6 8.5 35.9 8.7 36.3 8.9 C 37.7 8.4 39.3 8.6 41.0 8.0 C 41.4 8.3 41.8 8.2 42.9 8.3 C 42.8 8.0 43.6 7.9 44.4 7.8 C 44.2 7.5 45.0 7.5 44.9 7.3 C 44.2 7.4 44.4 7.0 44.1 6.9 C 45.0 7.1 45.5 6.4 46.2 6.7 C 45.3 6.9 45.1 7.3 45.0 7.8 C 46.1 7.6 46.7 7.7 46.9 7.9 C 47.0 7.7 46.8 7.5 46.6 7.4 C 46.9 7.4 47.3 7.4 47.7 7.3 C 47.8 7.5 47.3 7.6 47.7 7.6 C 47.9 7.5 48.2 7.4 48.5 7.3 C 48.8 7.5 48.1 7.5 48.0 7.7 C 49.5 7.7 48.8 7.1 49.6 7.0 C 49.8 7.2 49.8 7.5 50.4 7.5 C 50.7 7.3 50.8 7.0 51.5 6.9 C 52.0 7.0 51.5 7.4 52.1 7.4 C 52.2 7.3 52.4 7.3 52.6 7.4 C 52.6 7.2 52.8 7.1 53.2 7.0 C 53.3 7.2 53.8 7.1 54.0 7.0 C 54.1 7.2 55.0 7.5 55.1 7.2 C 55.1 7.1 54.6 7.2 54.6 7.1 C 55.2 7.1 55.6 7.0 56.0 6.9 C 56.2 7.6 57.2 7.0 58.5 7.4 C 59.3 7.1 58.3 6.8 59.3 6.6 C 60.0 6.8 59.2 6.9 59.4 7.2 C 59.5 7.3 60.5 7.5 60.5 7.2 C 60.5 7.1 60.0 7.1 59.9 7.0 C 60.7 6.8 60.6 7.1 61.1 7.2 C 61.0 7.0 61.5 6.9 61.6 6.7 C 63.7 6.6 63.6 7.1 64.5 7.4 C 64.5 7.2 65.0 7.3 65.0 7.2 C 64.4 7.3 63.7 7.0 64.5 7.0 C 64.3 7.1 65.5 7.0 65.6 6.9 C 65.5 6.7 64.7 6.8 65.0 6.5 C 66.1 6.4 65.7 7.0 66.5 6.7 C 66.6 6.9 66.1 6.9 65.9 7.0 C 66.2 7.0 66.7 7.0 66.7 7.1 C 66.3 7.2 66.3 7.4 66.1 7.6 C 66.7 7.4 67.7 7.7 67.0 7.2 C 68.1 7.4 69.2 7.2 68.5 6.9 C 69.4 6.9 68.8 7.3 69.6 7.1 C 69.5 7.4 69.3 7.6 69.8 7.9 C 70.0 7.7 70.5 7.7 70.4 7.4 C 71.8 7.5 72.2 7.8 72.7 8.2 C 72.2 7.7 72.9 8.1 73.6 7.8 C 74.0 8.0 73.5 8.3 74.7 8.3 C 73.5 7.8 76.0 8.3 75.6 7.8 C 77.0 8.1 76.9 8.1 78.4 8.4 C 78.2 8.6 77.8 8.7 77.2 8.7 C 77.7 8.4 76.0 8.3 76.1 8.4 C 76.1 8.5 76.1 8.6 76.1 8.6 C 77.1 8.7 77.9 8.9 78.3 9.1 C 78.5 8.9 79.1 8.8 78.9 8.4 C 79.9 8.9 81.0 8.5 81.5 8.9 C 81.1 8.9 80.8 8.9 80.9 9.1 C 81.3 9.0 81.8 9.0 81.8 8.8 C 80.9 8.6 80.8 8.5 80.3 8.7 C 80.7 8.5 79.6 8.2 80.4 8.2 C 80.3 8.7 82.1 8.2 81.5 8.4 C 80.6 8.5 82.5 8.8 82.6 9.1 C 82.6 9.1 82.6 9.1 82.6 9.1 Z M 97.8 62.9 C 98.5 62.6 97.5 62.5 96.9 62.6 C 97.1 62.7 97.2 62.8 97.2 62.9 C 97.5 62.9 97.7 62.8 97.8 62.9 C 97.8 62.9 97.8 62.9 97.8 62.9 Z M 88.8 59.3 C 88.6 59.7 89.9 59.4 90.4 59.4 C 90.3 59.3 90.1 59.3 90.4 59.2 C 89.8 59.0 89.6 59.5 88.8 59.3 C 88.8 59.3 88.8 59.3 88.8 59.3 Z M 58.1 59.3 C 58.4 59.2 58.9 59.2 58.9 59.4 C 59.3 59.4 59.2 59.2 59.3 59.1 C 59.9 59.1 59.1 59.5 60.1 59.5 C 60.5 59.0 58.4 58.6 58.1 59.3 C 58.1 59.3 58.1 59.3 58.1 59.3 Z M 71.5 12.5 C 71.9 12.7 70.9 12.9 71.2 13.1 C 72.7 13.0 71.6 12.6 73.7 12.8 C 73.6 12.7 73.4 12.6 73.5 12.5 C 72.5 12.6 72.4 12.8 72.6 12.2 C 72.2 12.2 72.0 12.9 71.5 12.5 C 71.5 12.5 71.5 12.5 71.5 12.5 Z M 90.8 16.3 C 90.7 16.2 90.5 16.1 90.6 16.0 C 89.9 16.0 90.1 16.1 89.3 15.8 C 89.3 16.3 90.1 16.4 90.8 16.3 C 90.8 16.3 90.8 16.3 90.8 16.3 Z M 129.0 38.1 C 129.0 38.1 129.0 38.2 129.0 38.3 C 129.2 38.2 129.6 38.4 129.5 38.0 C 129.4 38.0 129.4 38.0 129.4 38.1 C 129.3 38.1 129.2 37.8 129.0 37.9 C 129.1 38.0 129.0 38.0 129.0 38.1 C 129.0 38.1 129.0 38.1 129.0 38.1 Z M 123.3 50.7 C 124.0 49.9 121.3 50.6 123.3 50.7 C 123.3 50.7 123.3 50.7 123.3 50.7 C 123.3 50.7 123.3 50.7 123.3 50.7 Z M 127.1 52.4 C 127.2 52.5 127.4 52.3 127.4 52.2 C 128.2 51.7 127.5 52.4 128.1 52.2 C 128.5 51.5 127.5 52.0 128.1 51.3 C 127.8 51.2 127.6 52.0 127.1 52.4 C 127.1 52.4 127.1 52.4 127.1 52.4 Z M 14.4 16.5 C 13.7 17.1 13.7 17.4 13.7 17.8 C 14.2 17.5 14.6 17.3 14.9 17.3 C 15.7 16.6 14.1 17.5 13.9 17.5 C 13.9 17.2 14.5 16.8 14.4 16.5 C 14.4 16.5 14.4 16.5 14.4 16.5 Z M 12.1 18.2 C 11.9 18.5 11.6 18.9 11.7 19.1 C 12.1 18.8 12.2 18.8 12.3 18.9 C 12.6 18.5 12.0 18.7 12.1 18.2 C 12.1 18.2 12.1 18.2 12.1 18.2 Z M 16.9 15.6 C 16.5 15.8 16.7 15.9 16.8 16.1 C 17.3 15.8 17.4 15.8 18.0 15.5 C 17.9 15.5 17.9 15.4 17.9 15.3 C 17.4 15.5 17.4 15.6 17.0 15.8 C 16.9 15.7 16.9 15.7 16.9 15.6 C 16.9 15.6 16.9 15.6 16.9 15.6 Z M 10.3 20.1 C 9.2 21.1 9.2 22.0 8.9 22.9 C 9.5 22.1 9.7 21.0 10.4 20.7 C 11.0 20.0 10.0 20.7 10.0 20.6 C 9.9 20.5 10.2 20.3 10.3 20.1 C 10.3 20.1 10.3 20.1 10.3 20.1 Z M 4.6 30.5 C 4.4 30.7 4.8 31.2 4.8 32.0 C 4.8 31.9 4.9 31.7 5.1 31.7 C 5.2 30.7 4.5 31.3 4.6 30.5 C 4.6 30.5 4.6 30.5 4.6 30.5 Z M 5.6 36.7 C 5.9 37.3 5.7 36.3 6.0 36.5 C 5.8 35.8 5.6 35.1 5.3 35.2 C 5.7 35.9 5.7 36.0 5.6 36.7 C 5.6 36.7 5.6 36.7 5.6 36.7 Z M 7.9 40.8 C 8.5 41.4 8.0 40.3 8.5 40.4 C 8.3 40.2 8.2 40.3 8.1 40.4 C 8.0 40.1 7.9 40.0 7.7 39.7 C 7.7 40.0 8.2 40.7 7.9 40.8 C 7.9 40.8 7.9 40.8 7.9 40.8 Z M 35.4 9.9 C 35.0 10.1 35.2 10.3 34.3 10.4 C 35.7 10.2 35.1 11.2 36.9 10.7 C 36.6 10.6 36.8 10.5 36.9 10.6 C 37.6 10.3 36.2 10.6 36.8 10.1 C 36.3 10.2 36.6 10.5 36.1 10.7 C 35.5 10.5 35.2 10.4 35.4 9.9 C 35.4 9.9 35.4 9.9 35.4 9.9 Z M 37.0 11.0 C 37.5 11.0 37.4 10.4 37.7 10.7 C 37.9 10.6 37.9 10.5 37.9 10.4 C 37.7 10.5 37.7 10.4 37.6 10.4 C 37.2 10.5 36.8 10.7 37.0 11.0 C 37.0 11.0 37.0 11.0 37.0 11.0 Z M 32.3 12.0 C 33.1 11.7 33.4 11.8 33.7 11.5 C 34.1 11.8 34.2 11.2 34.7 11.5 C 35.5 11.2 34.9 11.2 34.7 11.1 C 35.4 10.8 34.9 11.3 35.7 11.1 C 35.8 10.7 34.8 11.0 34.8 10.6 C 34.2 10.7 34.3 11.0 33.9 11.1 C 33.6 11.2 33.7 11.0 33.6 10.9 C 32.9 11.1 32.9 10.9 32.4 11.1 C 32.3 11.4 32.5 11.4 33.2 11.2 C 32.5 11.5 32.3 11.7 31.5 11.8 C 32.0 11.3 29.6 11.9 29.9 12.3 C 30.5 12.2 30.3 12.0 30.5 11.8 C 31.4 11.9 31.9 11.7 32.3 12.0 C 32.3 12.0 32.3 12.0 32.3 12.0 Z M 17.6 16.3 C 17.4 16.4 17.1 16.4 16.7 16.7 C 16.6 16.4 17.1 16.2 16.5 16.3 C 15.9 16.6 15.8 16.8 15.5 17.0 C 15.8 17.0 17.1 16.6 16.6 17.1 C 16.8 17.1 17.3 16.9 17.8 16.7 C 17.0 16.6 18.7 16.2 19.3 15.9 C 19.0 15.5 20.4 15.5 20.8 15.0 C 20.3 14.9 19.1 15.8 18.6 16.0 C 18.8 15.9 16.8 16.2 17.6 16.3 C 17.6 16.3 17.6 16.3 17.6 16.3 Z M 38.9 10.4 C 39.1 10.3 39.6 10.2 39.2 10.2 C 39.4 10.1 39.9 10.2 39.6 9.7 C 39.9 9.7 40.1 9.6 40.4 9.6 C 40.3 9.8 39.6 9.8 39.9 10.1 C 40.4 9.8 40.3 10.0 41.0 9.9 C 40.6 10.3 41.0 10.2 40.8 10.7 C 41.0 10.5 41.6 10.4 41.5 10.1 C 42.5 10.1 41.3 10.6 42.6 10.4 C 42.6 10.7 41.7 10.8 41.3 10.7 C 41.2 11.0 43.0 10.6 44.0 10.5 C 43.1 10.4 43.7 10.0 44.1 9.7 C 44.4 9.8 44.1 9.9 44.7 10.0 C 45.1 10.0 45.3 9.8 45.5 9.9 C 45.8 9.9 45.7 9.7 45.7 9.5 C 46.3 9.5 45.9 10.0 46.8 9.8 C 46.1 9.4 46.9 9.3 48.1 9.3 C 48.0 9.2 47.6 9.2 47.6 9.0 C 47.7 8.8 48.5 9.1 48.7 9.2 C 49.1 9.1 48.8 9.0 48.4 9.1 C 48.6 8.9 48.9 8.8 49.2 8.7 C 47.8 8.8 45.7 9.0 43.2 8.9 C 43.7 9.1 43.2 9.2 42.5 9.2 C 42.3 9.1 42.6 9.0 43.0 8.9 C 42.1 8.7 42.2 9.5 40.9 9.4 C 40.2 9.4 41.7 9.1 40.8 9.0 C 40.4 9.2 40.1 9.5 39.8 9.2 C 39.0 9.5 38.8 9.9 37.6 10.1 C 38.3 10.1 38.8 10.7 39.5 10.5 C 39.5 10.4 39.1 10.4 38.9 10.4 C 38.9 10.4 38.9 10.4 38.9 10.4 Z M 12.4 19.1 C 12.0 19.4 11.9 19.7 11.7 19.6 C 11.1 20.2 12.0 19.8 12.2 19.7 C 12.5 19.5 12.5 19.2 12.4 19.1 C 12.4 19.1 12.4 19.1 12.4 19.1 Z M 61.4 62.3 C 62.5 62.5 62.3 62.1 63.2 62.2 C 62.5 62.0 62.3 61.7 61.2 61.7 C 61.1 61.9 61.1 62.1 61.4 62.3 C 61.4 62.3 61.4 62.3 61.4 62.3 Z M 15.0 17.5 C 15.5 16.9 14.5 18.3 14.3 18.1 C 13.7 18.8 15.1 17.8 14.6 18.5 C 15.1 18.0 15.6 18.0 16.3 17.3 C 16.2 17.2 15.5 17.5 14.9 18.0 C 14.8 17.9 15.1 17.6 15.0 17.5 C 15.0 17.5 15.0 17.5 15.0 17.5 Z M 50.7 59.9 C 50.0 60.0 51.3 60.6 51.7 60.8 C 51.8 60.4 51.6 60.4 50.7 59.9 C 50.7 59.9 50.7 59.9 50.7 59.9 Z M 68.8 62.5 C 69.3 62.1 67.6 62.3 68.0 62.0 C 67.5 61.9 67.4 62.0 67.4 62.2 C 67.2 62.0 66.4 62.0 66.6 61.8 C 66.5 61.5 67.9 61.9 67.4 61.6 C 67.9 61.6 67.9 61.7 68.3 61.7 C 67.5 61.6 67.8 62.0 68.8 62.2 C 68.9 61.9 68.4 61.9 68.9 61.8 C 68.9 61.9 69.4 62.2 69.4 62.6 C 70.3 62.6 69.8 62.1 70.8 62.2 C 70.7 62.0 70.1 61.9 69.7 61.8 C 69.8 61.5 70.8 62.1 70.6 61.7 C 70.8 61.9 71.4 62.1 71.4 62.4 C 70.6 62.5 70.0 62.7 69.4 62.8 C 70.0 63.0 70.9 62.4 71.9 62.7 C 71.8 62.5 72.4 62.5 72.2 62.2 C 73.1 62.4 72.7 62.7 72.5 62.8 C 72.7 63.0 74.3 62.9 74.2 62.6 C 74.3 62.9 76.2 62.9 76.2 62.5 C 76.7 62.7 77.6 62.3 77.9 62.7 C 78.2 62.6 78.9 62.6 79.6 62.6 C 79.8 62.3 78.5 62.4 78.5 62.2 C 78.2 61.9 79.8 62.3 79.6 62.0 C 79.6 61.9 79.6 61.9 79.6 61.8 C 79.0 61.9 78.4 62.0 77.9 62.1 C 77.5 62.1 78.0 62.0 77.9 61.8 C 77.5 62.0 75.7 62.3 75.6 61.8 C 74.4 61.9 73.6 61.8 73.1 62.0 C 72.4 61.9 73.5 61.8 73.1 61.6 C 71.0 61.9 68.4 61.2 66.6 61.6 C 66.2 61.5 66.4 61.3 66.4 61.2 C 63.9 61.2 65.9 61.8 64.1 61.5 C 64.1 61.2 65.0 61.3 65.0 61.0 C 64.3 61.0 64.1 61.1 63.3 61.0 C 63.2 61.1 63.2 61.2 63.2 61.4 C 62.5 61.3 62.8 61.0 62.4 60.8 C 61.5 60.8 61.7 61.0 61.3 60.6 C 60.5 60.6 59.7 60.6 58.8 60.3 C 58.2 60.5 59.2 61.1 60.1 61.2 C 60.1 61.3 59.8 61.3 59.8 61.4 C 58.8 61.0 58.7 60.4 57.2 60.1 C 58.3 60.6 56.5 60.2 56.3 59.9 C 55.7 59.8 56.1 60.3 56.6 60.3 C 56.5 60.5 56.1 60.3 56.0 60.2 C 55.9 60.6 57.4 61.1 59.0 61.1 C 58.2 61.5 60.1 61.2 59.2 61.7 C 60.5 61.8 59.5 61.3 60.9 61.5 C 60.8 61.4 60.5 61.2 60.4 61.1 C 61.6 61.1 61.2 61.5 62.4 61.6 C 62.6 61.3 61.8 61.3 61.8 61.1 C 63.1 61.6 63.5 61.7 64.3 62.1 C 64.5 61.9 64.3 61.6 65.7 61.9 C 65.7 62.0 65.7 62.0 65.7 62.1 C 65.0 62.0 64.8 62.6 66.5 62.7 C 66.7 62.5 66.1 62.5 65.7 62.4 C 65.9 62.2 66.5 62.2 67.1 62.2 C 67.4 62.3 67.8 62.5 67.4 62.4 C 67.6 62.7 67.9 62.2 68.8 62.5 C 68.8 62.5 68.8 62.5 68.8 62.5 Z M 5.5 29.4 C 5.5 29.6 5.5 29.8 5.5 30.1 C 5.7 30.3 5.7 29.7 5.9 29.7 C 6.0 29.2 5.6 29.5 5.5 29.4 C 5.5 29.4 5.5 29.4 5.5 29.4 Z M 8.6 23.3 C 8.4 23.2 8.4 23.7 8.0 24.1 C 8.1 24.4 8.4 23.8 8.6 24.0 C 9.1 23.5 8.1 23.8 8.6 23.3 C 8.6 23.3 8.6 23.3 8.6 23.3 Z M 7.0 25.8 C 6.6 25.9 7.0 26.1 7.2 25.6 C 7.3 25.8 7.4 25.9 7.3 26.3 C 7.7 26.1 7.4 25.6 7.8 25.2 C 7.5 25.3 7.2 25.5 7.0 25.8 C 7.0 25.8 7.0 25.8 7.0 25.8 Z M 6.5 26.7 C 6.6 27.1 6.2 27.2 6.2 27.8 C 6.5 27.8 6.8 26.5 6.8 26.3 C 6.7 26.0 6.1 27.3 6.5 26.7 C 6.5 26.7 6.5 26.7 6.5 26.7 Z M 40.3 57.1 C 40.5 57.2 40.5 57.0 40.6 57.0 C 41.2 57.6 42.4 57.8 41.4 58.0 C 42.3 58.0 43.0 58.5 43.7 58.8 C 44.3 59.0 44.1 58.6 44.5 58.7 C 45.3 58.9 44.1 58.7 44.2 58.9 C 44.3 59.2 44.7 58.7 45.6 59.1 C 45.4 58.5 46.4 59.4 46.2 58.8 C 46.7 59.1 46.9 58.9 47.5 59.1 C 47.5 58.8 46.8 58.7 46.8 58.5 C 46.5 58.1 46.4 58.7 47.0 58.7 C 46.6 59.0 45.8 58.3 45.4 58.5 C 45.2 58.1 46.3 58.6 46.0 58.2 C 45.8 58.2 45.6 58.2 45.5 58.3 C 45.1 58.2 44.9 58.0 44.7 57.8 C 45.0 57.9 45.0 57.9 45.0 58.0 C 45.5 58.1 44.6 57.4 45.6 57.6 C 45.5 57.5 45.0 57.4 45.2 57.2 C 44.9 56.9 45.0 58.0 44.0 57.4 C 43.3 57.6 45.6 58.1 44.8 58.6 C 43.4 58.1 44.3 57.9 43.2 57.5 C 43.1 57.7 43.1 57.8 42.8 57.8 C 42.8 57.9 43.3 58.0 43.6 58.1 C 43.5 58.2 43.1 58.0 42.8 58.0 C 42.8 58.1 43.0 58.1 43.0 58.2 C 42.0 57.9 42.3 57.3 43.2 57.4 C 43.3 57.1 42.1 56.8 41.7 56.9 C 42.0 57.2 41.6 57.0 41.8 57.4 C 42.1 57.5 42.0 57.3 42.1 57.3 C 42.6 57.5 42.1 57.5 42.1 57.6 C 41.6 57.4 41.6 57.2 41.1 57.2 C 41.2 57.2 41.4 57.1 41.4 57.0 C 41.1 56.9 40.9 56.8 40.6 56.8 C 40.6 57.0 40.3 56.9 40.3 57.1 C 40.3 57.1 40.3 57.1 40.3 57.1 Z M 53.9 60.9 C 54.8 61.1 54.4 60.7 54.0 60.7 C 54.2 60.6 54.5 60.6 54.8 60.6 C 54.6 60.4 54.3 60.5 53.5 60.3 C 54.3 60.0 53.6 59.3 52.3 59.1 C 51.8 59.6 52.9 59.9 52.4 60.2 C 53.4 60.2 53.9 60.5 53.9 60.9 C 53.9 60.9 53.9 60.9 53.9 60.9 Z M 12.3 19.8 C 11.8 20.2 11.4 20.5 11.0 20.9 C 11.2 21.1 12.7 20.1 12.3 19.8 C 12.3 19.8 12.3 19.8 12.3 19.8 Z M 50.3 9.0 C 50.5 9.0 50.5 9.0 50.6 9.1 C 51.3 8.9 50.2 8.9 50.5 8.6 C 50.2 8.6 50.0 8.6 49.7 8.6 C 49.7 8.8 50.8 8.9 50.0 9.0 C 50.1 9.1 50.3 9.1 50.3 9.0 C 50.3 9.0 50.3 9.0 50.3 9.0 Z M 6.0 29.0 C 6.0 29.4 6.4 29.2 6.2 30.2 C 6.4 29.9 6.4 29.7 6.5 29.1 C 6.3 29.1 6.1 29.0 6.0 29.0 C 6.0 29.0 6.0 29.0 6.0 29.0 Z M 36.4 56.5 C 36.9 57.0 37.3 56.4 38.4 56.9 C 37.9 56.3 37.1 56.6 36.4 56.5 C 36.4 56.5 36.4 56.5 36.4 56.5 Z M 81.8 62.1 C 81.4 62.0 81.9 61.9 81.2 61.8 C 80.8 61.9 80.7 62.1 80.1 62.1 C 80.9 62.4 82.3 62.1 82.9 62.6 C 83.6 62.5 83.5 62.2 83.7 62.0 C 83.4 62.0 83.2 61.9 83.2 61.9 C 82.8 62.3 82.3 61.6 81.8 62.1 C 81.8 62.1 81.8 62.1 81.8 62.1 Z M 50.5 59.7 C 50.0 59.5 50.9 59.5 51.1 59.3 C 51.5 59.5 51.3 59.6 51.3 59.8 C 51.8 59.9 52.0 59.7 51.9 59.5 C 51.0 59.3 49.9 59.0 50.7 58.8 C 49.8 58.5 50.2 59.0 49.8 59.0 C 49.3 58.7 49.8 58.7 49.9 58.4 C 49.7 58.4 48.9 58.6 49.1 58.2 C 47.7 58.4 48.2 59.0 49.1 59.7 C 50.0 59.5 49.0 59.2 50.5 59.7 C 50.5 59.7 50.5 59.7 50.5 59.7 Z M 17.8 47.7 C 17.8 47.9 18.4 48.2 18.3 48.3 C 19.1 48.4 19.8 48.5 20.5 48.6 C 20.6 48.3 19.6 48.0 19.8 48.4 C 19.7 48.1 19.2 47.6 18.9 47.3 C 18.4 46.9 17.8 47.3 18.0 46.8 C 17.4 46.6 17.7 46.8 16.9 46.2 C 18.0 47.4 16.3 46.0 16.0 46.2 C 16.8 46.8 17.5 47.2 17.6 46.9 C 18.1 47.4 18.7 47.9 18.7 48.2 C 18.6 48.3 18.1 48.0 17.8 47.7 C 17.8 47.7 17.8 47.7 17.8 47.7 Z M 21.9 49.1 C 21.6 49.0 21.4 48.9 20.9 48.7 C 21.1 48.9 21.2 49.1 21.0 49.2 C 21.9 49.6 22.2 49.6 22.3 50.0 C 23.1 50.4 22.3 49.5 23.5 50.2 C 23.4 50.1 22.8 49.8 22.9 49.7 C 22.7 49.9 22.2 49.6 21.9 49.1 C 21.9 49.1 21.9 49.1 21.9 49.1 Z M 29.5 53.2 C 30.1 53.4 29.2 52.9 29.6 52.9 C 29.4 52.8 28.3 52.3 28.6 52.1 C 28.4 51.6 27.0 51.9 27.3 51.5 C 27.0 51.4 27.1 51.6 27.0 51.7 C 27.8 51.9 27.7 52.1 27.1 51.9 C 27.1 52.1 27.6 52.2 27.9 52.4 C 28.1 52.3 27.8 52.1 27.9 51.9 C 28.5 52.4 28.9 52.8 29.5 53.2 C 29.5 53.2 29.5 53.2 29.5 53.2 Z M 80.7 10.4 C 80.0 10.3 79.6 10.3 79.3 10.4 C 79.4 10.6 79.8 10.4 80.1 10.5 C 80.2 10.6 79.9 10.6 79.5 10.6 C 79.8 10.9 81.0 10.8 80.7 10.4 C 80.7 10.4 80.7 10.4 80.7 10.4 Z M 75.1 9.8 C 74.4 9.7 74.0 9.8 73.9 9.9 C 74.2 10.1 74.1 9.8 74.5 9.9 C 74.8 10.0 74.9 10.1 75.0 10.2 C 75.3 10.3 75.3 10.1 75.4 10.1 C 75.6 10.1 75.6 10.1 75.6 10.2 C 76.4 10.0 74.7 10.1 75.1 9.8 C 75.1 9.8 75.1 9.8 75.1 9.8 Z M 25.8 51.5 C 25.6 51.2 25.6 51.0 25.1 50.8 C 25.1 51.0 24.7 50.8 24.1 50.6 C 24.8 51.2 25.0 51.1 25.8 51.5 C 25.8 51.5 25.8 51.5 25.8 51.5 Z M 40.8 10.9 C 40.0 10.7 40.2 11.2 39.1 11.1 C 39.1 11.2 39.1 11.3 39.1 11.4 C 39.7 11.1 40.0 11.2 40.8 10.9 C 40.8 10.9 40.8 10.9 40.8 10.9 Z M 132.1 45.0 C 131.9 44.9 131.7 45.5 131.5 45.5 C 131.8 45.8 131.0 45.7 130.2 46.8 C 130.1 46.7 130.1 46.6 130.2 46.5 C 129.5 47.3 130.7 46.4 131.0 46.5 C 131.4 45.8 131.7 45.8 132.1 45.0 C 132.1 45.0 132.1 45.0 132.1 45.0 Z M 73.4 61.1 C 73.4 61.2 73.5 61.2 73.7 61.2 C 73.9 61.2 74.1 61.2 74.2 61.2 C 74.2 60.8 73.3 60.6 74.0 60.2 C 73.7 60.2 73.7 60.2 73.7 60.3 C 72.3 61.1 71.3 59.6 69.5 60.1 C 69.3 60.1 69.3 60.2 69.2 60.3 C 69.5 60.3 69.5 60.3 69.5 60.4 C 69.8 60.0 71.3 60.6 70.6 60.7 C 70.7 60.8 70.9 60.7 70.9 60.7 C 71.1 60.7 71.3 60.7 71.5 60.7 C 71.4 60.6 71.0 60.5 70.9 60.4 C 71.8 60.5 72.9 60.7 72.3 61.0 C 72.8 61.0 73.0 60.9 73.4 60.8 C 73.8 60.8 73.8 61.1 73.4 61.1 C 73.4 61.1 73.4 61.1 73.4 61.1 Z M 80.7 61.1 C 81.5 61.2 81.2 60.8 82.1 60.9 C 81.5 60.7 80.8 61.0 80.1 60.8 C 80.2 60.9 80.6 61.0 80.7 61.1 C 80.7 61.1 80.7 61.1 80.7 61.1 Z M 64.5 60.0 C 64.7 59.7 63.9 59.5 63.1 59.5 C 62.9 59.8 63.7 59.9 64.5 60.0 C 64.5 60.0 64.5 60.0 64.5 60.0 Z M 68.1 60.3 C 68.9 60.2 67.1 60.1 67.6 59.9 C 67.2 59.8 66.8 59.8 66.8 59.7 C 66.5 59.7 66.5 59.9 65.9 59.8 C 65.9 60.0 66.8 60.0 66.7 60.2 C 67.4 60.0 67.5 60.1 68.1 60.3 C 68.1 60.3 68.1 60.3 68.1 60.3 Z M 68.7 60.3 C 69.2 60.3 68.6 59.7 67.9 59.7 C 68.1 59.9 68.3 60.2 68.7 60.3 C 68.7 60.3 68.7 60.3 68.7 60.3 Z M 10.1 38.7 C 10.3 39.0 10.4 38.6 10.6 38.9 C 10.7 38.8 9.9 37.7 10.6 38.6 C 10.7 38.1 10.1 38.2 9.9 37.7 C 9.9 37.9 9.9 38.0 9.7 37.8 C 9.4 37.8 10.4 38.7 10.1 38.7 C 10.1 38.7 10.1 38.7 10.1 38.7 Z M 10.9 39.8 C 11.1 40.1 11.1 39.9 11.0 39.8 C 11.1 39.7 11.3 40.1 11.5 40.3 C 11.4 40.4 11.5 39.6 11.7 39.5 C 10.8 38.7 11.1 39.6 10.9 39.8 C 10.9 39.8 10.9 39.8 10.9 39.8 Z M 11.8 40.7 C 12.2 41.5 13.1 42.3 13.8 42.4 C 13.6 41.7 12.4 40.7 11.8 40.7 C 11.8 40.7 11.8 40.7 11.8 40.7 Z M 8.4 34.4 C 8.3 35.6 9.7 37.6 9.2 35.6 C 9.0 35.7 8.4 34.4 8.5 33.8 C 8.3 33.8 7.9 33.1 8.1 33.1 C 7.8 32.6 8.2 34.7 8.4 34.4 C 8.4 34.4 8.4 34.4 8.4 34.4 Z M 15.0 42.7 C 14.5 42.5 14.6 43.3 14.2 42.7 C 13.9 42.5 14.2 42.9 14.0 43.0 C 14.7 43.5 16.4 44.4 16.3 44.8 C 16.8 45.0 17.0 44.9 17.8 45.4 C 17.9 45.3 15.0 43.7 14.9 42.9 C 15.0 42.8 15.8 43.5 15.0 42.7 C 15.0 42.7 15.0 42.7 15.0 42.7 Z M 41.1 12.6 C 41.1 12.4 40.1 12.7 40.3 12.4 C 39.8 12.8 39.2 12.7 38.6 13.0 C 38.4 13.0 38.4 12.5 37.5 12.6 C 37.6 12.9 38.0 12.8 37.6 13.0 C 36.8 13.2 37.0 12.8 36.1 13.1 C 36.3 13.6 34.2 13.6 34.5 14.1 C 35.0 13.9 34.9 13.7 35.7 13.6 C 36.0 13.6 35.9 13.8 36.2 13.7 C 36.0 14.0 35.6 13.7 35.3 14.0 C 35.4 14.2 36.0 14.1 36.1 14.2 C 36.4 14.1 36.0 14.1 36.0 13.9 C 36.9 13.7 36.1 14.6 37.1 14.3 C 36.8 14.1 36.8 14.1 37.0 13.8 C 37.4 13.8 38.6 13.4 38.0 13.9 C 38.1 14.1 38.8 13.6 38.7 13.4 C 39.1 13.3 39.2 13.4 39.2 13.6 C 40.2 13.2 40.4 13.0 40.1 12.7 C 40.3 12.4 40.5 12.9 41.1 12.6 C 41.1 12.6 41.1 12.6 41.1 12.6 Z M 8.7 28.5 C 8.7 28.0 8.6 29.0 8.5 29.4 C 8.6 28.9 9.0 29.2 9.2 28.7 C 9.0 28.8 9.0 28.7 9.1 28.4 C 9.0 28.3 8.6 29.0 8.7 28.5 C 8.7 28.5 8.7 28.5 8.7 28.5 Z M 19.4 46.5 C 19.6 46.9 21.2 47.6 22.0 48.1 C 22.1 47.7 19.8 47.1 19.8 46.5 C 19.3 46.3 19.9 46.8 19.4 46.5 C 19.4 46.5 19.4 46.5 19.4 46.5 Z M 31.8 14.1 C 31.6 14.2 31.7 14.2 31.9 14.2 C 31.8 14.3 31.3 14.4 31.0 14.5 C 31.5 14.6 30.9 14.8 31.1 15.1 C 30.8 15.1 30.7 15.2 30.7 15.3 C 30.5 14.8 29.4 16.0 30.8 15.7 C 30.5 15.5 30.6 15.5 31.1 15.2 C 31.8 15.2 32.3 14.8 32.6 15.1 C 33.0 15.0 33.1 14.8 33.7 14.7 C 33.9 14.9 34.4 14.9 34.1 15.4 C 35.1 15.2 34.3 14.6 35.1 14.3 C 36.0 14.3 34.8 14.8 35.0 15.0 C 35.2 14.9 35.2 15.1 35.3 15.1 C 35.6 15.0 35.5 14.8 35.2 14.8 C 35.3 14.7 36.1 14.3 35.9 14.7 C 36.4 14.4 35.0 13.9 34.4 14.4 C 34.0 14.5 33.9 13.9 34.3 13.9 C 34.1 13.7 33.4 14.5 33.5 13.9 C 33.2 14.0 32.9 14.0 32.6 14.1 C 32.6 14.2 32.8 14.1 32.9 14.2 C 32.6 14.3 32.2 14.4 31.9 14.5 C 32.2 14.3 32.1 14.2 31.8 14.1 C 31.8 14.1 31.8 14.1 31.8 14.1 Z M 16.1 44.1 C 16.7 44.6 16.9 44.5 17.4 44.8 C 17.4 44.5 16.0 43.7 16.1 44.1 C 16.1 44.1 16.1 44.1 16.1 44.1 Z M 45.6 13.0 C 45.5 12.9 45.0 12.9 45.0 12.8 C 45.8 12.6 44.9 12.6 45.5 12.0 C 44.5 12.3 44.2 13.1 45.6 13.1 C 46.6 13.0 44.5 13.1 45.6 13.0 C 45.6 13.0 45.6 13.0 45.6 13.0 Z M 42.5 13.1 C 41.9 13.4 43.4 13.3 43.8 13.4 C 43.8 13.5 43.8 13.6 43.8 13.7 C 44.6 13.1 43.5 13.1 44.2 12.4 C 43.2 12.4 42.7 12.3 41.9 12.6 C 42.0 12.7 42.1 12.6 42.1 12.6 C 42.8 12.5 42.4 13.0 41.7 13.0 C 41.9 13.1 42.5 13.0 43.0 13.0 C 42.8 12.9 42.7 12.9 42.7 12.7 C 43.2 12.6 43.1 12.9 43.5 12.8 C 43.5 12.9 42.5 13.3 42.5 13.1 C 42.5 13.1 42.5 13.1 42.5 13.1 Z M 95.6 15.3 C 95.1 15.2 96.1 15.9 95.9 16.3 C 96.4 16.5 96.6 16.4 96.9 16.5 C 96.8 16.2 96.2 16.0 96.0 15.8 C 96.2 15.5 96.8 16.1 97.1 15.9 C 97.5 15.5 95.7 15.7 95.6 15.3 C 95.6 15.3 95.6 15.3 95.6 15.3 Z M 18.9 19.4 C 18.6 19.5 18.8 19.5 18.9 19.5 C 18.9 19.6 18.5 19.8 18.4 19.7 C 18.0 20.0 18.7 19.8 18.3 20.0 C 18.3 20.3 19.0 19.6 19.0 19.5 C 19.6 19.2 19.3 19.8 19.5 19.8 C 20.0 19.6 19.7 19.4 20.5 19.1 C 19.9 19.2 19.5 19.2 18.9 19.4 C 18.9 19.4 18.9 19.4 18.9 19.4 Z M 47.3 12.2 C 47.4 12.0 46.7 12.7 46.0 12.5 C 45.1 12.6 46.6 12.8 45.8 12.8 C 46.5 12.8 47.3 12.5 48.4 12.4 C 48.6 12.2 46.9 12.4 47.9 12.2 C 47.8 12.1 47.6 12.2 47.6 12.2 C 47.4 12.3 47.3 12.2 47.3 12.2 C 47.3 12.2 47.3 12.2 47.3 12.2 Z M 46.3 13.0 C 46.4 13.1 46.6 13.0 46.6 12.9 C 46.9 12.9 47.0 13.2 46.6 13.2 C 47.1 13.5 47.0 12.9 47.9 13.0 C 47.5 12.8 47.3 12.6 48.2 12.8 C 48.8 12.4 46.6 12.7 46.3 13.0 C 46.3 13.0 46.3 13.0 46.3 13.0 Z M 87.2 13.8 C 87.2 14.0 87.8 14.0 88.2 14.1 C 87.6 14.2 85.5 13.7 85.3 13.5 C 85.0 13.5 84.8 13.5 84.7 13.4 C 84.7 13.5 84.1 13.6 84.4 13.7 C 84.3 13.8 83.9 13.7 83.9 13.8 C 83.0 13.6 84.1 13.6 83.9 13.4 C 82.9 13.5 83.1 13.3 82.0 13.1 C 82.2 13.4 83.4 13.5 83.3 13.9 C 84.2 13.7 85.2 14.1 85.7 14.5 C 84.9 13.9 88.1 14.2 89.5 14.5 C 89.4 14.7 89.9 14.8 90.5 15.0 C 90.8 15.4 90.8 14.7 90.0 14.7 C 90.1 14.5 91.1 14.9 91.6 14.9 C 91.1 14.7 91.4 14.6 91.2 14.5 C 90.1 14.2 91.0 14.5 90.8 14.7 C 90.6 14.6 90.3 14.6 90.0 14.5 C 91.5 14.3 88.0 14.1 89.3 14.3 C 88.2 14.1 88.2 13.8 87.2 13.8 C 87.2 13.8 87.2 13.8 87.2 13.8 Z M 61.3 11.5 C 61.1 11.5 60.3 11.8 60.2 11.5 C 59.1 11.8 60.1 12.0 58.8 12.0 C 58.9 12.1 59.4 12.1 59.4 12.2 C 59.9 12.1 60.4 12.0 60.2 11.7 C 60.8 11.8 61.0 11.6 61.3 11.6 C 61.2 11.7 61.0 11.8 60.5 11.8 C 60.4 12.1 60.6 12.2 61.3 12.2 C 61.6 12.0 61.4 11.7 61.3 11.5 C 61.3 11.5 61.3 11.5 61.3 11.5 Z M 58.6 11.9 C 58.4 11.9 58.3 11.8 58.3 11.6 C 57.9 11.3 58.2 12.0 57.8 12.0 C 57.4 12.0 57.5 11.9 57.5 11.8 C 57.0 11.8 56.6 11.9 56.4 11.8 C 55.7 12.0 57.3 12.0 57.5 12.2 C 58.0 12.1 57.8 11.9 58.6 11.9 C 58.6 11.9 58.6 11.9 58.6 11.9 Z M 50.5 12.0 C 50.3 11.7 50.1 12.2 49.7 12.2 C 50.0 12.4 50.7 12.2 50.3 12.6 C 51.0 12.6 51.1 12.6 51.9 12.5 C 52.4 12.7 51.9 12.2 51.1 12.5 C 51.1 12.3 51.5 12.3 51.6 12.1 C 52.1 12.7 53.4 11.7 52.6 12.2 C 52.4 12.1 52.2 12.0 52.1 11.9 C 51.9 12.2 50.1 12.1 50.5 12.0 C 50.5 12.0 50.5 12.0 50.5 12.0 Z M 25.5 17.2 C 26.8 16.6 27.2 16.5 28.1 16.3 C 28.2 16.4 28.1 16.5 28.0 16.5 C 28.2 16.6 28.4 16.4 28.8 16.3 C 28.8 16.2 28.6 16.3 28.6 16.3 C 27.8 16.3 28.4 16.1 28.5 15.8 C 27.5 15.9 26.4 16.8 25.7 16.7 C 25.2 16.9 25.8 16.8 25.5 17.2 C 25.5 17.2 25.5 17.2 25.5 17.2 Z M 130.3 43.1 C 130.3 43.3 130.2 43.5 130.4 43.6 C 130.5 43.3 130.5 43.1 130.5 42.9 C 130.2 43.3 129.9 43.0 129.6 43.6 C 129.8 43.5 130.1 43.7 130.3 43.1 C 130.3 43.1 130.3 43.1 130.3 43.1 Z M 53.2 11.9 C 53.2 12.1 53.2 12.2 52.9 12.2 C 52.8 12.5 53.7 12.3 53.7 12.5 C 54.0 12.5 53.9 12.3 54.3 12.3 C 54.1 12.1 53.4 12.2 53.7 11.9 C 53.9 11.9 54.0 11.9 54.0 12.0 C 54.5 11.8 53.7 11.8 53.2 11.9 C 53.2 11.9 53.2 11.9 53.2 11.9 Z M 98.1 16.2 C 97.7 16.2 98.0 16.4 98.3 16.5 C 97.5 16.6 98.6 17.1 98.6 17.4 C 98.3 17.1 97.3 16.9 97.1 16.8 C 96.8 16.8 97.1 17.1 96.3 17.0 C 96.3 17.3 97.3 17.3 97.1 17.0 C 97.2 17.4 98.2 17.2 98.0 17.6 C 99.1 17.9 99.4 17.8 99.6 17.5 C 98.5 17.3 99.2 16.9 98.2 16.8 C 98.2 16.7 98.5 16.8 98.7 16.8 C 98.7 16.6 98.3 16.4 98.1 16.2 C 98.1 16.2 98.1 16.2 98.1 16.2 Z M 70.2 12.0 C 69.5 12.0 69.6 12.2 69.6 12.4 C 69.8 12.4 70.2 12.4 70.7 12.4 C 70.6 12.2 69.8 12.3 70.2 12.0 C 70.2 12.0 70.2 12.0 70.2 12.0 Z M 93.9 15.6 C 93.9 15.5 93.7 15.5 93.6 15.6 C 93.0 15.5 92.9 15.3 92.7 15.1 C 92.3 15.0 92.4 15.3 92.3 15.4 C 93.0 15.3 92.8 15.6 93.6 15.8 C 93.6 15.6 93.7 15.6 93.9 15.6 C 93.9 15.6 93.9 15.6 93.9 15.6 Z M 75.9 12.6 C 75.6 12.6 75.8 12.7 75.9 12.7 C 75.5 13.0 74.4 12.6 74.0 12.8 C 73.9 13.0 75.3 13.1 73.7 13.0 C 74.0 13.3 75.4 13.2 76.1 13.3 C 76.0 13.6 75.0 13.5 75.0 13.8 C 75.9 13.7 76.8 13.7 77.0 13.2 C 75.8 13.1 76.2 12.8 75.9 12.6 C 75.9 12.6 75.9 12.6 75.9 12.6 Z M 77.3 13.0 C 77.2 12.8 76.9 13.0 76.5 12.9 C 77.1 13.3 77.5 13.2 78.9 13.4 C 78.9 13.4 78.9 13.3 78.9 13.2 C 79.2 13.3 79.5 13.3 79.8 13.3 C 78.6 12.9 78.3 13.1 77.0 13.0 C 77.0 12.9 77.1 12.9 77.3 13.0 C 77.3 13.0 77.3 13.0 77.3 13.0 Z M 41.2 13.5 C 41.6 13.6 41.9 13.8 42.5 13.7 C 42.5 13.5 42.1 13.4 41.2 13.5 C 41.2 13.5 41.2 13.5 41.2 13.5 Z M 94.9 16.1 C 95.6 16.0 94.2 15.9 94.6 16.3 C 95.1 16.5 95.7 16.8 95.7 17.1 C 96.8 16.9 94.7 16.4 94.9 16.1 C 94.9 16.1 94.9 16.1 94.9 16.1 Z M 90.1 15.8 C 89.8 15.7 89.9 15.2 90.1 15.6 C 90.9 15.7 89.5 15.2 90.7 15.5 C 90.2 15.2 89.1 14.9 88.6 15.0 C 88.6 15.2 89.6 15.3 89.6 15.6 C 89.6 15.7 89.4 15.6 89.3 15.6 C 89.4 15.8 89.6 15.6 90.1 15.8 C 90.1 15.8 90.1 15.8 90.1 15.8 Z M 86.2 14.6 C 86.6 14.8 87.1 15.0 88.0 15.2 C 87.5 14.9 87.2 14.5 86.2 14.6 C 86.2 14.6 86.2 14.6 86.2 14.6 Z M 129.1 35.0 C 128.9 34.6 128.8 35.1 128.8 35.1 C 128.9 35.5 129.1 35.4 129.2 35.9 C 129.5 35.6 129.0 35.4 129.1 35.0 C 129.1 35.0 129.1 35.0 129.1 35.0 Z M 129.6 36.4 C 129.4 36.5 129.7 37.0 129.5 37.1 C 130.1 37.2 129.3 37.9 129.7 37.8 C 129.7 37.9 129.7 38.0 129.7 38.2 C 130.2 37.8 129.8 36.9 129.6 36.4 C 129.6 36.4 129.6 36.4 129.6 36.4 Z M 81.5 14.5 C 80.8 14.3 81.7 15.0 80.9 14.8 C 80.9 14.9 82.3 15.2 81.4 15.2 C 82.5 15.5 81.4 14.6 81.5 14.5 C 81.5 14.5 81.5 14.5 81.5 14.5 Z M 68.1 13.6 C 68.2 13.4 67.2 13.5 66.8 13.4 C 66.8 13.5 67.1 13.5 67.3 13.5 C 67.2 13.6 67.1 13.7 66.8 13.7 C 67.0 14.0 67.7 13.6 68.1 13.6 C 68.1 13.6 68.1 13.6 68.1 13.6 Z M 83.6 9.5 C 84.0 9.9 84.6 10.2 85.0 9.8 C 85.4 10.1 84.6 10.1 85.2 10.3 C 86.0 10.3 85.6 10.6 86.9 10.6 C 86.5 10.9 87.5 11.1 87.6 11.3 C 87.1 11.3 86.5 10.9 86.2 11.1 C 86.6 11.2 86.3 11.4 86.2 11.2 C 85.4 10.9 87.3 11.0 86.3 10.6 C 85.9 11.0 84.5 10.0 83.6 9.9 C 84.0 9.7 82.9 9.4 83.6 9.5 C 83.6 9.5 83.6 9.5 83.6 9.5 Z M 88.5 10.9 C 89.1 11.0 89.4 11.7 89.2 11.6 C 89.2 11.5 88.5 11.4 88.4 11.5 C 88.6 11.5 88.7 11.6 88.7 11.6 C 87.4 11.4 87.9 11.2 87.6 10.9 C 88.3 10.9 88.5 11.1 88.8 11.0 C 88.6 11.0 88.4 11.0 88.5 10.9 C 88.5 10.9 88.5 10.9 88.5 10.9 Z M 101.0 18.9 C 101.0 18.7 100.8 18.9 100.5 18.9 C 100.6 18.4 99.2 18.6 99.1 18.4 C 99.4 18.3 100.1 18.5 100.4 18.4 C 100.1 18.3 100.0 18.2 99.7 18.2 C 99.8 18.0 100.5 18.2 100.8 18.0 C 100.8 18.2 101.2 18.1 101.2 18.2 C 100.2 18.1 101.6 19.1 101.0 18.9 C 101.0 18.9 101.0 18.9 101.0 18.9 Z M 75.3 14.2 C 75.1 14.5 76.2 15.3 75.1 15.6 C 74.9 15.3 74.8 15.0 74.9 14.6 C 74.2 14.8 74.0 14.5 73.5 14.7 C 72.4 13.7 74.5 14.9 75.3 14.2 C 75.3 14.2 75.3 14.2 75.3 14.2 Z M 70.8 14.1 C 71.1 13.9 70.5 13.8 70.6 13.6 C 71.1 13.9 72.9 13.7 72.3 13.8 C 71.7 13.9 71.7 14.2 70.8 14.1 C 70.8 14.1 70.8 14.1 70.8 14.1 Z M 34.3 52.9 C 33.5 52.8 33.3 52.2 33.8 52.2 C 33.5 52.4 34.7 52.6 34.3 52.9 C 34.3 52.9 34.3 52.9 34.3 52.9 Z M 5.0 37.8 C 5.2 38.6 5.5 38.9 5.3 39.1 C 4.9 38.5 5.1 38.4 4.8 37.8 C 4.7 37.8 4.4 37.5 4.5 37.4 C 4.7 37.7 4.8 37.6 5.0 37.8 C 5.0 37.8 5.0 37.8 5.0 37.8 Z M 54.0 6.9 C 53.9 6.7 53.6 6.7 53.7 6.5 C 54.6 6.6 55.5 6.3 56.2 6.1 C 56.2 6.2 56.2 6.4 56.2 6.5 C 54.9 6.4 54.5 6.7 54.0 6.9 C 54.0 6.9 54.0 6.9 54.0 6.9 Z M 52.3 6.4 C 52.2 6.5 52.6 6.9 52.0 6.9 C 52.1 6.7 51.0 6.4 51.5 6.3 C 51.6 6.5 51.9 6.5 52.3 6.4 C 52.3 6.4 52.3 6.4 52.3 6.4 Z M 99.1 12.3 C 99.7 12.5 98.8 12.0 98.9 11.9 C 99.4 12.1 100.0 12.2 100.1 12.4 C 99.7 12.3 99.2 12.7 99.1 12.3 C 99.1 12.3 99.1 12.3 99.1 12.3 Z M 89.1 10.9 C 87.6 10.7 88.3 10.3 87.0 9.9 C 87.6 9.8 88.8 10.1 89.2 9.9 C 89.1 10.1 89.5 10.2 89.4 10.3 C 88.9 10.3 88.9 10.1 88.4 10.1 C 88.5 10.4 88.5 10.3 88.3 10.5 C 88.6 10.6 88.9 10.6 89.1 10.6 C 89.0 10.7 89.5 10.9 89.1 10.9 C 89.1 10.9 89.1 10.9 89.1 10.9 Z M 98.6 13.1 C 99.2 13.1 99.5 13.6 99.1 13.5 C 99.0 13.3 98.6 13.4 98.6 13.3 C 99.3 13.4 98.0 13.0 98.4 12.8 C 98.9 12.9 99.0 12.9 99.0 12.6 C 99.3 12.7 99.7 12.8 99.7 12.9 C 99.5 12.9 99.2 12.8 99.2 12.9 C 99.4 12.9 99.5 13.0 99.4 13.1 C 99.0 12.9 98.8 13.0 98.6 13.1 C 98.6 13.1 98.6 13.1 98.6 13.1 Z M 95.0 12.2 C 95.7 12.4 95.7 12.7 95.9 12.9 C 95.0 12.6 94.9 12.2 94.2 11.8 C 95.0 12.1 95.9 11.9 96.1 12.1 C 95.7 12.1 95.1 12.0 95.0 12.2 C 95.0 12.2 95.0 12.2 95.0 12.2 Z M 103.6 59.7 C 103.0 59.7 102.4 59.6 101.8 59.5 C 101.6 59.9 102.9 60.3 102.4 60.2 C 101.7 60.3 102.1 59.8 101.5 59.9 C 102.2 60.2 99.2 60.7 99.0 60.3 C 99.5 60.2 99.6 60.1 99.5 59.9 C 100.7 59.8 101.1 59.4 102.0 59.2 C 102.7 59.5 104.5 59.2 105.4 58.6 C 106.2 59.1 107.2 58.2 108.2 58.4 C 108.3 58.2 107.4 58.3 108.1 58.1 C 108.6 58.3 108.3 58.5 108.9 58.5 C 108.9 58.3 108.7 58.1 109.0 58.0 C 109.0 58.2 109.4 58.1 109.6 58.2 C 108.3 58.5 109.8 58.6 108.8 58.9 C 108.3 58.9 109.1 58.3 107.9 58.6 C 107.5 58.8 107.2 59.0 107.3 59.3 C 107.0 59.3 106.8 59.4 106.6 59.5 C 107.0 59.0 105.0 60.0 105.8 59.4 C 105.9 59.4 106.6 59.2 107.0 59.0 C 106.5 58.8 106.1 59.1 105.3 59.4 C 105.0 59.2 105.4 59.0 105.0 59.0 C 104.4 59.4 105.3 59.4 104.9 59.7 C 105.1 59.7 105.4 59.6 105.4 59.7 C 104.3 59.6 103.9 60.0 103.4 60.1 C 103.7 59.8 102.7 59.9 103.6 59.7 C 103.6 59.7 103.6 59.7 103.6 59.7 Z M 112.1 57.3 C 112.3 57.2 112.5 57.2 112.8 57.1 C 112.9 57.4 112.0 57.7 112.7 57.7 C 111.7 58.0 112.6 57.4 112.1 57.3 C 112.1 57.3 112.1 57.3 112.1 57.3 Z M 107.2 57.4 C 106.8 57.2 107.1 57.9 106.8 57.9 C 107.4 57.8 107.9 57.5 108.0 57.9 C 107.3 57.9 107.0 58.0 106.3 58.2 C 106.9 57.7 105.5 58.1 105.2 57.8 C 105.8 57.6 106.1 57.4 106.9 57.2 C 106.8 57.4 107.8 57.2 107.2 57.4 C 107.2 57.4 107.2 57.4 107.2 57.4 Z M 109.0 56.6 C 109.1 56.8 110.1 56.3 110.0 56.7 C 109.4 56.8 109.1 57.0 109.4 57.2 C 108.9 57.4 108.8 57.2 108.4 57.4 C 108.1 57.1 108.8 56.9 109.0 56.7 C 108.8 56.7 108.7 56.7 109.0 56.6 C 109.0 56.6 109.0 56.6 109.0 56.6 Z M 126.8 46.0 C 127.2 46.2 126.5 46.6 126.3 46.7 C 126.7 46.7 126.6 46.9 126.3 47.4 C 126.2 46.9 125.6 47.6 124.9 47.5 C 125.0 47.9 125.6 47.5 125.0 48.1 C 124.4 48.4 124.1 48.9 123.2 49.5 C 122.8 49.3 123.2 49.0 123.3 48.8 C 122.8 49.2 122.8 48.9 122.3 49.2 C 122.5 49.2 122.2 49.6 121.9 49.5 C 122.7 48.9 120.6 49.8 121.4 49.2 C 121.5 49.3 121.7 49.1 121.9 48.9 C 121.9 49.4 122.9 48.6 123.3 48.7 C 123.3 47.8 124.5 47.3 125.7 46.7 C 125.9 46.7 125.6 47.1 125.9 46.9 C 125.8 46.8 126.2 46.5 126.2 46.3 C 126.3 46.5 126.5 46.4 126.8 46.2 C 126.7 46.2 126.7 46.1 126.8 46.0 C 126.8 46.0 126.8 46.0 126.8 46.0 Z M 59.2 57.2 C 59.3 56.7 57.6 56.7 57.1 56.8 C 57.2 56.2 60.3 56.8 59.2 57.2 C 59.2 57.2 59.2 57.2 59.2 57.2 Z M 69.9 57.8 C 69.5 57.8 69.8 58.1 69.4 58.1 C 69.4 57.8 68.3 58.3 68.3 58.0 C 68.8 57.8 69.1 57.8 69.9 57.8 C 69.9 57.8 69.9 57.8 69.9 57.8 Z M 79.8 58.2 C 79.0 58.3 80.3 58.4 80.1 58.5 C 79.4 58.5 78.7 58.5 78.7 58.2 C 79.4 58.4 79.8 58.0 79.8 58.2 C 79.8 58.2 79.8 58.2 79.8 58.2 Z M 65.0 57.1 C 64.4 57.0 65.5 56.7 65.6 56.9 C 64.9 56.9 66.1 57.2 66.7 57.2 C 66.6 57.5 66.4 57.4 66.6 57.8 C 65.7 57.8 66.5 57.4 65.8 57.4 C 65.4 57.6 65.8 57.5 65.8 57.8 C 65.5 57.8 65.3 57.8 65.0 57.7 C 65.0 57.6 65.0 57.4 65.0 57.2 C 65.4 57.3 65.7 57.3 65.6 57.1 C 65.3 57.1 65.3 57.1 65.0 57.1 C 65.0 57.1 65.0 57.1 65.0 57.1 Z M 114.0 52.5 C 113.4 52.7 113.9 52.7 114.4 52.6 C 114.4 52.4 114.5 51.7 115.2 51.8 C 114.0 52.5 115.7 52.1 115.1 52.5 C 114.7 52.3 114.0 53.0 113.4 53.1 C 113.1 53.0 113.6 52.3 114.0 52.5 C 114.0 52.5 114.0 52.5 114.0 52.5 Z M 116.3 51.8 C 116.2 51.8 116.0 51.8 115.6 52.0 C 115.9 51.6 115.4 51.8 115.8 51.5 C 115.8 51.6 117.4 51.1 116.5 51.5 C 115.6 51.7 116.8 51.6 117.2 51.5 C 116.8 51.6 116.2 52.3 116.0 52.1 C 116.2 52.0 116.4 51.9 116.3 51.8 C 116.3 51.8 116.3 51.8 116.3 51.8 Z M 128.4 42.7 C 128.3 42.6 128.2 42.8 128.0 42.8 C 128.5 42.2 128.7 41.7 128.9 41.4 C 128.8 41.7 129.0 41.8 129.2 41.6 C 128.9 41.9 129.1 42.1 128.9 42.1 C 128.8 41.7 128.7 42.3 128.4 42.7 C 128.4 42.7 128.4 42.7 128.4 42.7 Z M 128.4 42.7 " fill="#C43100"></path></g></svg>