<?xml version="1.0" encoding="UTF-8" standalone="no"?><svg xmlns="http://www.w3.org/2000/svg" xmlns:xlink="http://www.w3.org/1999/xlink" clip-rule="evenodd" stroke-miterlimit="10" viewBox="0 0 141 71"><desc>SVG generated by Keynote</desc><defs></defs><g transform="matrix(1.00, 0.00, -0.00, -1.00, 0.0, 71.0)"><path d="M 39.0 7.6 C 38.8 7.7 38.6 7.8 38.2 7.8 C 38.4 7.9 38.5 8.0 38.5 8.1 C 38.8 8.0 39.2 7.8 39.8 7.8 C 39.8 7.7 39.5 7.8 39.3 7.8 C 39.0 7.8 39.1 7.7 39.0 7.6 C 39.0 7.6 39.0 7.6 39.0 7.6 Z M 29.9 56.3 C 29.5 56.1 29.9 56.6 30.1 56.7 C 30.1 56.6 30.1 56.6 30.3 56.7 C 30.3 56.9 29.8 56.8 29.5 56.8 C 28.2 56.2 29.4 56.1 29.9 56.3 C 29.9 56.3 29.9 56.3 29.9 56.3 Z M 103.0 62.4 C 104.1 62.2 102.9 62.1 102.7 62.0 C 103.2 61.9 102.7 61.5 103.4 61.3 C 103.5 61.4 103.8 61.5 103.9 61.6 C 103.6 61.7 103.2 61.7 103.2 61.8 C 103.6 61.8 104.1 61.6 104.2 61.8 C 103.4 62.0 104.1 62.1 104.3 62.3 C 103.5 62.4 103.3 62.7 103.0 62.4 C 103.0 62.4 103.0 62.4 103.0 62.4 Z M 125.6 23.4 C 125.9 23.6 126.2 23.8 126.0 23.9 C 125.6 23.7 125.4 23.4 125.3 23.3 C 125.1 23.3 125.1 23.5 124.8 23.3 C 124.6 22.8 125.0 22.7 125.3 22.6 C 125.2 22.9 126.4 23.7 125.6 23.4 C 125.6 23.4 125.6 23.4 125.6 23.4 Z M 95.9 11.8 C 94.9 11.4 95.7 12.2 94.8 11.8 C 94.8 11.6 94.8 11.2 95.4 11.4 C 95.5 11.5 95.8 11.6 95.9 11.8 C 95.9 11.8 95.9 11.8 95.9 11.8 Z M 72.0 61.8 C 72.0 62.0 72.7 62.0 72.5 62.3 C 72.1 62.3 71.8 62.2 71.4 62.2 C 71.3 62.0 71.5 61.8 72.0 61.8 C 72.0 61.8 72.0 61.8 72.0 61.8 Z M 109.8 57.9 C 110.9 58.0 111.9 57.2 111.6 57.6 C 112.1 57.8 111.1 58.7 111.1 58.3 C 110.9 58.0 108.9 58.2 109.8 57.9 C 109.8 57.9 109.8 57.9 109.8 57.9 Z M 37.1 53.3 C 38.2 53.9 38.2 53.0 38.9 53.6 C 38.6 53.5 38.4 53.6 38.3 53.6 C 38.5 53.7 38.8 53.8 38.8 53.9 C 38.2 53.8 37.5 53.7 37.1 53.3 C 37.1 53.3 37.1 53.3 37.1 53.3 Z M 57.6 6.7 C 57.9 6.6 58.0 6.6 57.9 6.5 C 58.8 6.5 58.8 6.3 59.3 6.4 C 59.4 6.8 58.6 6.7 57.9 6.7 C 57.9 6.7 57.7 6.8 57.6 6.7 C 57.6 6.7 57.6 6.7 57.6 6.7 Z M 82.6 9.2 C 82.6 8.9 82.0 8.8 82.9 8.8 C 83.8 9.3 82.9 9.4 81.9 9.5 C 81.9 9.6 81.9 9.8 81.9 9.9 C 82.3 9.9 82.5 10.0 82.7 10.1 C 82.9 9.7 83.4 10.6 84.9 10.5 C 84.2 10.6 84.9 11.1 84.0 10.8 C 84.2 11.1 83.6 11.0 83.7 11.2 C 84.1 11.1 85.0 11.3 84.8 10.9 C 85.3 11.0 85.7 11.1 85.9 11.2 C 86.2 11.6 85.0 11.1 85.3 11.5 C 85.6 11.5 85.6 11.6 85.9 11.7 C 85.9 11.6 85.8 11.4 86.2 11.4 C 87.0 11.7 85.9 11.8 87.2 12.0 C 87.3 11.8 86.9 11.7 87.0 11.5 C 87.6 11.5 87.5 11.7 88.1 11.6 C 88.2 11.8 87.7 11.8 88.0 11.9 C 88.5 11.5 89.1 12.4 90.0 12.2 C 89.6 11.4 90.1 12.3 90.9 11.8 C 91.0 12.1 90.4 12.4 91.0 12.5 C 91.0 11.7 93.3 12.4 91.5 11.4 C 92.5 11.6 93.0 11.0 92.2 10.8 C 94.0 11.3 93.5 10.8 94.2 10.9 C 94.8 11.1 93.8 11.0 94.1 11.3 C 93.3 11.1 93.5 11.3 93.0 11.1 C 93.0 11.2 92.8 11.2 92.6 11.3 C 93.4 11.2 94.2 11.9 93.6 12.1 C 93.2 12.0 93.6 11.7 93.2 11.6 C 93.2 12.1 92.6 11.4 92.6 11.7 C 92.8 12.1 91.7 12.3 92.7 12.5 C 92.7 12.4 92.8 12.2 92.8 12.0 C 93.0 12.1 93.3 12.1 93.6 12.2 C 93.7 12.5 93.5 12.7 93.7 12.9 C 94.2 13.0 94.4 12.9 94.6 12.8 C 94.0 12.6 93.5 12.2 94.4 12.4 C 93.9 12.9 95.6 12.8 94.8 13.0 C 95.7 13.4 96.3 13.0 96.3 13.4 C 96.9 13.6 96.6 13.2 97.2 13.3 C 98.1 13.8 98.0 13.4 99.2 14.0 C 99.5 13.5 99.3 14.1 99.7 14.2 C 99.8 14.0 99.8 13.9 99.9 13.7 C 100.2 14.1 101.2 14.5 102.4 14.5 C 102.6 14.7 102.3 14.9 103.0 15.0 C 103.9 14.8 104.6 15.6 105.6 15.4 C 105.6 15.6 106.2 15.8 106.5 15.8 C 106.6 16.0 106.1 16.2 106.6 16.4 C 107.1 16.2 106.5 15.9 107.3 16.1 C 107.1 16.3 108.0 16.1 108.0 16.4 C 107.7 16.4 107.4 16.4 107.1 16.4 C 107.5 16.6 107.3 16.7 107.6 16.8 C 107.6 16.4 108.1 16.9 108.3 17.1 C 108.3 16.9 108.4 16.8 108.6 16.8 C 109.0 16.9 109.4 17.0 109.6 17.0 C 110.1 17.3 109.2 17.1 109.7 17.4 C 110.2 16.7 110.5 17.7 111.7 17.7 C 111.9 18.0 112.3 18.3 112.9 18.6 C 113.1 18.5 112.3 18.3 112.3 18.1 C 113.3 18.6 112.3 17.8 112.9 18.1 C 114.2 18.8 114.4 18.8 116.6 20.2 C 116.7 20.0 118.5 20.7 118.4 20.8 C 118.0 20.6 119.2 21.6 119.9 22.0 C 120.3 21.7 121.6 21.9 121.7 21.7 C 121.9 22.0 121.8 22.0 121.7 22.5 C 122.7 23.3 123.5 23.3 123.9 24.1 C 124.0 23.9 124.5 24.1 124.9 24.4 C 124.7 24.5 124.3 24.5 124.0 24.5 C 124.6 24.8 124.5 25.0 125.0 25.3 C 125.9 24.9 126.0 26.3 126.8 26.0 C 127.5 26.5 127.2 26.6 127.8 27.2 C 127.9 27.0 128.0 27.0 128.3 27.1 C 127.8 26.8 127.4 26.7 127.4 26.3 C 128.3 27.0 126.1 24.2 127.9 25.2 C 127.9 25.3 127.6 25.4 127.9 25.7 C 128.8 26.3 128.5 25.6 128.1 25.4 C 128.8 25.7 129.3 26.3 129.1 25.7 C 130.5 26.7 129.5 26.2 129.8 26.7 C 132.1 28.6 134.5 31.4 135.2 34.8 C 135.6 34.8 135.8 36.7 135.6 37.3 C 136.1 38.2 136.2 39.3 135.7 39.5 C 136.1 39.7 135.4 40.7 135.8 40.8 C 135.8 40.4 136.0 40.1 136.0 40.6 C 135.7 41.9 135.0 43.9 134.9 44.7 C 134.3 45.0 134.0 45.9 133.8 46.5 C 133.6 46.5 133.8 46.0 133.6 46.3 C 133.7 46.6 133.1 47.8 132.7 47.9 C 133.0 47.6 132.9 47.0 132.6 47.5 C 132.7 47.6 132.2 48.1 132.6 48.2 C 131.9 48.8 131.7 49.3 131.1 49.7 C 131.5 49.2 131.6 48.9 131.5 48.7 C 131.3 49.1 131.1 49.5 130.6 49.6 C 131.0 49.9 130.2 50.3 129.7 51.0 C 129.4 51.1 129.1 51.1 128.6 51.5 C 128.4 52.0 129.7 51.1 129.0 51.7 C 129.0 51.5 128.2 51.9 128.6 52.0 C 127.7 52.5 127.4 53.0 126.5 53.3 C 127.5 52.8 126.5 52.8 126.3 52.9 C 126.1 53.1 125.8 53.3 125.8 53.3 C 125.9 53.4 126.3 53.1 126.5 53.2 C 125.8 53.5 125.8 54.0 125.5 53.9 C 125.7 53.8 125.7 53.6 125.4 53.8 C 125.5 54.2 123.4 55.0 123.9 54.5 C 124.0 54.6 124.8 54.1 124.8 54.0 C 124.5 54.0 123.4 54.8 123.5 54.3 C 124.2 53.9 124.2 54.2 124.9 53.7 C 124.9 53.4 125.3 53.1 125.5 52.8 C 124.4 53.6 124.3 54.0 123.9 53.8 C 123.4 54.1 123.9 54.2 122.9 54.7 C 121.5 55.3 122.5 54.4 122.1 54.5 C 121.0 55.3 121.5 55.5 122.2 55.5 C 121.2 55.9 121.0 56.3 119.7 56.7 C 119.7 56.5 119.8 56.3 120.2 56.1 C 120.3 56.1 121.4 55.9 121.2 55.7 C 120.9 55.4 120.1 55.6 118.7 56.1 C 119.2 56.3 119.1 56.1 117.7 56.7 C 118.1 57.0 117.0 56.8 117.1 57.1 C 117.2 57.2 117.7 57.0 118.2 56.8 C 118.2 57.0 118.1 57.2 117.6 57.4 C 117.3 57.4 117.1 57.7 116.2 57.9 C 116.0 57.7 116.6 57.4 116.7 57.2 C 116.2 57.3 116.2 57.5 115.7 57.7 C 115.2 57.6 115.1 57.2 115.0 56.8 C 115.5 56.5 116.4 56.2 115.6 56.3 C 117.7 55.5 115.7 56.7 116.5 56.5 C 117.2 55.8 116.9 56.5 118.2 55.9 C 118.6 55.8 118.7 55.6 118.8 55.5 C 118.7 55.5 117.8 55.5 118.6 55.1 C 118.9 55.2 119.4 55.2 120.1 54.9 C 120.0 54.8 118.6 55.2 120.0 54.7 C 120.6 54.4 120.2 55.0 121.0 54.6 C 121.0 54.5 121.2 54.4 121.2 54.3 C 120.0 54.9 121.4 53.9 120.5 54.2 C 121.5 53.5 120.8 54.4 121.5 54.0 C 121.4 53.8 122.7 53.6 122.5 53.3 C 122.2 53.6 121.3 54.0 121.3 53.7 C 122.1 53.4 125.2 51.3 124.2 52.4 C 124.6 52.0 126.4 50.3 126.4 50.5 C 125.8 50.9 125.9 51.1 126.0 51.3 C 126.9 50.2 127.6 50.0 128.4 48.8 C 127.2 49.8 127.7 48.6 126.9 49.0 C 126.6 49.3 126.1 49.6 126.1 49.7 C 126.5 49.9 126.9 49.4 127.0 49.1 C 127.1 49.3 127.3 49.5 127.5 49.7 C 125.9 50.6 125.3 51.4 124.5 51.7 C 125.1 51.3 123.0 52.1 123.7 51.6 C 124.1 51.6 124.9 51.1 125.6 50.8 C 125.5 50.7 125.4 50.6 125.4 50.5 C 125.6 50.3 126.0 50.1 126.0 50.0 C 125.2 50.6 124.6 50.6 124.1 51.2 C 124.1 51.2 124.1 51.1 124.0 51.0 C 123.9 51.1 123.7 51.2 123.7 51.1 C 124.0 50.9 124.4 50.7 124.4 50.6 C 123.8 50.9 123.5 50.7 122.7 51.1 C 122.7 50.7 121.6 50.9 122.6 50.2 C 122.9 50.4 123.5 50.1 123.6 50.3 C 123.9 50.2 124.5 49.8 124.7 49.4 C 124.3 49.5 123.7 49.8 123.4 49.5 C 123.9 49.2 124.2 48.9 124.6 48.9 C 123.8 49.6 125.2 48.8 125.8 48.8 C 125.6 48.7 125.3 48.8 125.1 48.8 C 125.8 48.3 126.2 48.2 126.0 47.9 C 126.6 47.2 126.7 47.6 127.1 47.1 C 126.6 47.1 127.3 46.7 126.7 46.7 C 127.4 45.9 127.2 46.7 127.5 46.5 C 127.7 46.3 127.6 46.1 127.8 45.9 C 128.2 45.7 128.8 45.1 129.2 45.2 C 129.4 44.9 129.5 44.9 129.7 44.6 C 129.6 44.5 129.6 44.3 129.6 44.2 C 129.8 44.2 130.0 44.0 129.9 43.9 C 129.0 44.5 129.2 44.2 128.3 44.8 C 128.4 45.0 128.3 45.1 128.5 45.0 C 128.2 45.6 127.9 45.6 127.4 46.1 C 127.2 46.0 126.8 45.8 126.5 46.4 C 126.4 46.1 126.2 46.2 126.3 45.9 C 126.7 45.8 127.1 45.6 127.5 45.4 C 127.4 45.2 127.2 45.2 127.4 45.0 C 127.6 45.0 127.9 44.8 127.9 44.5 C 128.0 44.6 128.0 44.7 128.0 44.8 C 128.7 44.2 128.2 44.2 128.7 43.8 C 128.5 43.7 128.3 44.1 128.3 43.7 C 128.5 43.2 128.7 43.2 129.0 43.0 C 128.9 42.9 128.8 42.9 128.9 42.7 C 129.2 42.5 129.0 43.8 129.7 43.3 C 129.4 43.1 129.8 42.6 130.0 42.6 C 130.2 42.9 129.7 43.1 129.8 43.2 C 130.5 42.1 130.4 43.4 130.9 42.2 C 130.8 42.2 130.7 42.1 130.6 42.1 C 130.4 42.6 130.2 42.5 129.9 42.4 C 129.7 42.7 129.3 42.7 129.3 43.2 C 128.9 42.7 129.5 42.8 129.7 42.4 C 129.4 42.3 129.2 42.7 128.9 42.6 C 129.6 41.8 129.2 41.5 129.9 40.8 C 129.5 40.9 129.9 40.3 129.7 40.3 C 129.6 41.0 128.8 40.6 128.7 40.6 C 128.6 41.1 129.2 41.0 129.3 41.4 C 129.0 41.4 128.8 41.3 128.5 41.1 C 128.7 40.8 128.6 40.8 128.5 40.5 C 128.8 40.3 129.4 40.2 129.5 40.6 C 129.5 40.5 129.4 39.9 129.6 39.9 C 129.6 40.4 129.8 39.9 129.9 40.2 C 130.1 39.8 129.8 39.1 130.0 38.6 C 129.8 38.6 129.8 38.4 129.6 38.5 C 130.0 38.9 129.3 39.1 129.2 39.5 C 129.2 39.3 129.0 39.4 128.9 39.5 C 129.1 39.1 128.8 38.9 129.1 38.5 C 129.0 38.5 128.9 38.6 128.8 38.6 C 129.0 38.0 128.9 38.1 128.6 37.7 C 128.7 37.5 129.3 37.6 129.6 37.6 C 129.4 37.4 129.2 36.6 129.0 37.2 C 128.9 36.7 129.3 36.7 129.1 36.2 C 128.8 36.3 129.0 36.8 128.6 36.7 C 128.4 36.3 128.9 36.4 128.4 36.2 C 128.7 36.0 128.9 35.9 128.7 35.5 C 128.6 35.9 128.6 35.5 128.3 35.5 C 128.4 35.7 128.4 35.9 128.4 36.0 C 128.1 35.3 128.0 35.1 127.6 34.6 C 128.0 34.6 127.9 34.2 128.3 34.5 C 127.8 34.3 127.8 33.5 127.5 33.4 C 127.6 33.8 127.9 34.2 127.8 34.4 C 126.9 33.2 126.1 32.8 125.3 31.4 C 125.5 31.6 125.7 31.9 125.8 31.8 C 125.7 31.7 125.5 31.5 125.6 31.4 C 126.0 31.8 126.3 32.2 126.6 32.3 C 126.8 32.8 126.2 32.3 126.5 32.7 C 126.7 32.6 127.1 33.4 127.2 32.9 C 126.5 32.5 126.2 31.7 126.2 31.1 C 125.2 30.9 125.8 31.4 124.8 31.2 C 124.9 31.1 124.8 30.9 124.6 30.7 C 124.6 31.2 123.8 30.2 123.7 30.1 C 124.2 30.3 125.6 31.2 125.2 30.4 C 125.0 31.2 123.8 28.9 123.8 29.7 C 122.9 29.0 123.5 28.9 122.7 28.8 C 122.8 28.7 122.9 28.6 122.7 28.4 C 122.4 28.2 122.3 28.3 122.1 28.2 C 123.4 29.4 122.7 29.4 123.5 30.1 C 123.3 30.0 123.2 29.9 123.2 30.0 C 123.2 30.0 123.1 30.0 122.9 29.9 C 123.1 29.5 122.2 29.4 122.2 29.1 C 122.5 29.3 122.7 29.4 122.8 29.2 C 121.6 28.5 122.1 28.3 120.4 27.0 C 120.9 27.5 120.1 27.1 119.5 26.8 C 118.6 26.2 119.2 26.0 118.0 25.3 C 117.7 26.1 116.8 24.6 115.0 24.2 C 115.4 23.9 113.8 23.0 113.4 23.2 C 113.4 23.1 113.0 22.9 112.6 22.8 C 112.6 22.6 113.0 22.7 112.8 22.5 C 112.5 22.4 112.6 22.8 112.2 22.7 C 111.8 22.4 112.0 22.1 111.3 21.9 C 111.2 22.1 111.6 22.2 111.1 22.2 C 110.6 21.9 110.0 21.7 110.4 22.2 C 109.5 21.8 110.2 21.5 109.3 21.2 C 109.5 21.4 109.4 21.5 109.0 21.4 C 108.7 21.0 108.8 20.9 108.7 20.7 C 108.4 20.9 108.4 21.0 107.7 20.6 C 107.7 20.7 107.7 20.8 107.6 21.0 C 107.3 20.8 106.8 20.7 106.7 20.6 C 107.3 20.8 107.2 20.5 107.5 20.5 C 106.9 20.2 105.8 19.5 106.6 20.2 C 105.7 20.0 106.3 19.8 105.5 19.6 C 105.9 20.1 105.6 19.7 104.8 19.5 C 104.7 19.9 104.3 19.4 103.8 19.3 C 103.8 19.5 103.7 19.6 103.3 19.5 C 103.3 19.3 103.1 19.2 102.6 19.1 C 102.6 19.2 103.5 19.7 102.5 19.4 C 102.1 19.1 102.2 18.8 101.4 18.5 C 101.4 18.2 102.2 18.5 102.1 18.2 C 101.4 18.3 101.3 18.0 100.4 17.7 C 100.6 18.3 98.4 17.9 99.4 18.5 C 99.1 18.4 98.5 18.7 98.4 18.3 C 98.7 18.3 98.2 17.9 98.2 17.8 C 97.8 17.8 96.8 17.3 96.7 17.6 C 97.7 17.7 97.6 18.0 97.9 18.3 C 96.4 18.1 95.2 17.7 95.4 17.3 C 95.4 17.4 95.2 17.4 95.1 17.5 C 95.6 17.5 95.8 18.1 95.3 18.0 C 95.4 17.7 95.1 17.6 94.6 17.4 C 94.5 17.6 92.8 16.8 93.0 17.3 C 93.8 17.2 94.3 17.8 93.7 17.9 C 93.3 17.5 92.3 17.1 92.6 16.9 C 92.3 16.9 92.0 17.0 91.7 17.0 C 91.5 17.3 92.0 17.4 91.9 17.6 C 91.5 17.5 90.9 17.4 90.9 17.3 C 91.9 17.4 90.4 17.0 91.5 17.0 C 90.8 16.9 90.7 16.7 90.2 16.5 C 90.2 16.6 90.0 16.6 89.9 16.7 C 90.4 16.6 90.8 16.8 90.7 17.1 C 89.7 17.0 89.9 16.7 89.1 16.5 C 88.9 16.7 87.7 16.9 87.2 16.6 C 88.3 16.8 87.2 16.4 87.8 16.4 C 88.7 16.7 89.0 16.5 89.5 16.3 C 89.1 16.0 88.3 15.8 88.1 16.1 C 88.6 16.3 88.7 16.1 89.0 16.1 C 88.9 16.3 88.7 16.4 88.4 16.4 C 88.0 16.1 86.9 16.1 87.7 15.8 C 87.0 15.9 86.3 15.5 85.5 15.6 C 86.3 15.7 86.8 16.0 87.0 16.2 C 86.4 16.3 85.8 15.8 85.7 16.0 C 85.7 16.3 86.8 16.4 87.0 16.6 C 86.1 16.8 85.0 15.7 85.9 16.6 C 85.4 16.4 84.8 16.3 84.6 16.1 C 85.2 16.2 84.6 15.7 84.4 15.6 C 83.9 15.5 83.5 15.5 83.3 15.6 C 84.1 15.6 84.6 16.1 84.1 16.1 C 84.0 15.9 83.8 16.1 83.5 16.1 C 83.5 15.9 82.6 15.9 82.5 15.7 C 82.5 15.9 82.9 16.0 83.0 16.1 C 82.5 16.1 81.7 16.5 81.4 16.0 C 81.7 16.0 82.1 16.1 82.2 16.0 C 80.8 15.4 80.4 14.9 78.8 14.6 C 79.0 14.6 79.1 14.5 79.1 14.4 C 78.0 14.2 77.4 14.0 77.5 13.8 C 76.8 13.8 76.5 13.9 76.1 14.1 C 76.8 14.3 77.1 14.0 77.5 14.3 C 77.2 14.3 77.9 15.0 78.2 15.2 C 79.4 15.0 79.4 15.5 80.6 15.5 C 80.2 15.8 81.5 15.7 81.1 15.9 C 80.0 15.3 79.0 15.6 77.4 15.2 C 77.6 15.0 77.8 14.8 77.2 14.6 C 76.1 14.3 76.6 14.8 75.8 14.6 C 75.4 14.3 75.9 14.3 75.5 14.2 C 75.2 14.3 74.4 14.2 74.2 13.9 C 75.3 14.0 74.0 13.6 74.8 13.5 C 74.4 13.5 74.2 13.4 73.9 13.4 C 75.0 13.8 72.8 13.7 73.6 14.0 C 72.1 14.1 73.6 13.3 72.3 13.2 C 72.9 13.5 72.1 13.6 71.2 13.5 C 71.0 13.1 70.0 13.0 69.3 12.8 C 69.7 13.1 70.0 13.1 69.3 13.2 C 69.6 13.4 70.3 13.4 70.6 13.3 C 70.6 13.5 70.7 13.6 70.9 13.6 C 70.0 13.6 70.4 13.8 70.1 13.9 C 69.8 13.7 69.1 13.7 69.0 13.5 C 69.0 13.6 68.7 13.6 68.7 13.7 C 69.8 13.8 68.5 14.1 69.2 14.2 C 69.7 14.3 69.4 13.9 70.1 14.0 C 70.6 14.4 69.5 14.4 69.2 14.6 C 69.7 14.9 70.4 14.5 70.5 14.9 C 69.8 15.2 68.7 14.9 67.8 14.8 C 67.9 15.2 66.3 14.6 66.2 15.1 C 66.0 15.0 65.9 14.9 65.6 14.8 C 65.4 15.1 65.1 14.7 64.8 14.7 C 64.8 14.9 64.9 15.0 65.1 15.1 C 64.0 14.9 63.7 14.9 62.4 15.0 C 62.2 14.8 62.0 14.7 61.9 14.4 C 62.2 14.4 62.5 14.3 62.7 14.2 C 60.9 14.2 62.0 15.0 60.8 14.5 C 60.8 14.7 61.7 15.0 61.0 15.1 C 59.9 14.8 58.3 15.1 58.4 14.3 C 57.4 14.0 56.7 14.6 56.2 14.2 C 55.9 14.2 55.8 14.3 55.7 14.4 C 56.0 14.6 56.4 14.7 56.8 14.9 C 57.3 14.7 57.6 15.0 57.0 14.6 C 57.9 14.5 58.2 14.7 58.6 14.9 C 57.4 15.1 56.3 14.9 56.3 15.3 C 55.8 15.1 55.5 14.9 55.2 14.8 C 55.0 15.0 53.7 15.1 53.6 14.8 C 54.5 14.9 55.4 14.5 54.6 14.3 C 52.3 14.6 51.0 14.1 49.1 14.6 C 49.0 14.5 49.2 14.3 48.8 14.3 C 48.8 14.4 48.8 14.6 48.6 14.7 C 48.0 14.7 47.6 14.6 46.8 14.8 C 46.8 14.5 46.7 14.3 46.2 14.2 C 46.0 14.5 45.2 15.2 44.8 15.2 C 45.3 15.1 44.6 14.8 44.2 14.9 C 44.6 15.2 41.9 14.8 42.7 15.1 C 41.7 15.3 41.3 15.2 41.2 15.1 C 40.9 15.2 40.6 15.3 40.3 15.4 C 40.0 15.0 38.3 15.7 38.1 15.5 C 38.7 15.5 38.7 15.0 38.2 15.2 C 37.9 15.5 36.5 16.0 36.2 16.0 C 36.2 15.8 36.3 15.5 37.0 15.3 C 35.8 15.5 35.9 16.0 35.5 16.3 C 35.5 15.9 35.0 16.4 34.8 16.5 C 34.4 16.4 34.8 16.3 34.7 16.1 C 34.3 16.1 34.1 16.0 33.5 16.1 C 33.8 16.4 33.1 16.4 32.9 16.4 C 32.8 16.6 32.6 16.9 32.1 17.0 C 32.6 16.3 29.2 17.2 30.1 17.4 C 29.5 17.8 29.3 17.2 28.5 17.5 C 28.3 17.8 27.8 17.8 28.3 17.9 C 27.7 18.2 27.8 17.7 26.5 18.3 C 27.2 18.4 25.3 18.6 25.7 19.0 C 25.0 18.7 24.3 19.7 23.1 19.7 C 23.2 19.8 22.9 19.9 22.9 20.0 C 22.8 20.2 24.1 19.7 23.3 20.1 C 22.2 20.4 22.7 20.0 22.5 19.9 C 19.9 21.2 17.3 22.6 15.4 23.9 C 15.7 23.9 15.8 24.0 15.5 24.3 C 14.6 24.2 13.1 26.1 13.1 26.5 C 12.6 26.4 12.3 27.5 12.1 27.5 C 12.2 27.4 12.2 26.9 11.9 27.2 C 12.1 27.6 11.7 27.8 11.7 28.2 C 11.3 28.2 11.2 29.4 10.9 28.7 C 10.8 28.9 10.7 29.0 10.6 29.1 C 10.9 29.2 10.8 29.4 11.1 29.1 C 10.5 29.9 10.8 30.2 10.4 30.9 C 10.6 31.1 10.8 30.5 10.8 31.0 C 10.8 30.9 10.7 30.9 10.6 30.9 C 10.6 31.1 10.7 31.1 10.6 31.2 C 10.4 31.2 10.5 30.9 10.1 30.9 C 10.2 31.2 9.8 31.4 10.1 31.6 C 10.1 31.1 10.7 31.5 10.4 31.7 C 10.2 31.5 10.4 32.9 10.7 33.3 C 10.4 33.6 10.5 32.8 10.3 32.9 C 10.5 33.8 10.4 33.7 10.8 33.7 C 10.8 34.2 10.6 34.5 11.1 34.9 C 11.0 35.3 10.7 34.8 10.8 35.2 C 11.0 35.4 11.2 35.4 11.4 35.7 C 11.2 36.8 13.5 38.3 13.7 40.0 C 13.5 39.4 14.2 39.9 14.7 40.4 C 14.7 40.5 14.5 40.6 14.7 40.8 C 14.8 40.6 15.0 40.7 15.4 41.1 C 15.4 41.2 15.2 41.3 15.4 41.5 C 15.8 41.4 16.1 42.1 16.6 42.2 C 16.5 42.6 15.7 41.7 15.5 41.8 C 16.4 42.9 16.8 42.8 17.7 43.5 C 17.2 43.2 17.8 44.0 17.9 44.2 C 17.9 43.8 18.8 44.2 18.3 43.7 C 18.7 43.9 19.3 44.2 19.3 44.4 C 19.1 44.3 18.8 44.1 18.7 44.1 C 19.2 44.4 19.6 45.1 20.0 45.0 C 19.7 44.8 19.6 44.6 19.6 44.4 C 19.8 44.4 20.0 44.4 20.4 44.5 C 19.2 44.7 21.6 45.8 21.9 45.7 C 21.9 46.2 22.0 46.3 21.8 46.4 C 22.9 47.1 22.9 46.7 23.6 46.9 C 23.2 47.1 22.9 47.3 23.8 48.0 C 23.8 47.5 25.0 48.2 24.9 47.6 C 27.6 48.8 27.2 49.1 28.2 49.5 C 28.3 49.4 28.0 49.2 28.3 49.3 C 28.8 49.6 29.2 49.9 29.4 50.2 C 29.8 50.1 29.4 49.9 29.8 49.9 C 30.5 50.5 30.2 50.8 30.8 51.3 C 31.8 51.4 31.4 51.4 32.1 51.3 C 31.8 51.2 31.6 51.0 31.9 51.1 C 32.3 51.5 32.5 51.9 32.6 52.1 C 32.2 51.9 31.9 51.8 31.7 51.6 C 31.5 51.8 30.9 51.6 31.3 51.9 C 30.8 51.6 30.2 51.3 29.3 51.0 C 29.5 51.4 28.6 50.8 28.8 51.2 C 29.7 51.5 29.8 51.8 30.7 52.1 C 30.7 51.7 31.5 52.2 31.7 52.4 C 31.7 52.2 32.3 52.5 32.3 52.2 C 33.0 52.4 32.9 52.6 33.6 52.8 C 33.6 52.9 33.5 53.0 33.7 53.1 C 34.1 52.9 34.2 53.4 34.4 53.5 C 34.4 53.1 35.4 53.6 35.5 53.4 C 35.2 53.3 34.8 53.2 34.8 53.1 C 35.9 53.5 35.1 52.9 35.0 52.6 C 35.0 52.7 34.4 53.0 34.4 52.7 C 35.5 52.8 33.2 51.8 34.1 52.2 C 34.8 52.5 34.8 52.2 35.5 52.6 C 36.2 53.4 35.1 53.3 35.8 54.0 C 36.4 54.0 36.8 54.1 36.9 53.9 C 37.0 54.0 37.1 54.2 37.3 54.3 C 37.6 54.2 36.7 53.8 37.4 53.9 C 37.8 54.1 37.2 54.4 38.1 54.5 C 38.5 54.4 37.2 53.9 37.9 54.1 C 38.6 54.7 37.8 53.9 38.7 54.1 C 38.8 54.2 38.9 54.3 39.2 54.3 C 39.2 54.5 39.0 54.7 39.3 54.8 C 39.6 54.3 39.6 55.1 40.3 55.2 C 40.7 54.9 39.7 54.8 39.9 54.5 C 40.6 55.1 41.1 54.8 41.4 54.9 C 40.7 55.0 42.3 55.4 42.3 55.7 C 42.2 55.3 42.5 55.5 43.5 55.5 C 43.4 56.0 44.5 55.9 44.6 56.4 C 44.7 56.2 45.0 56.2 45.2 56.1 C 44.9 56.0 44.6 55.9 44.7 55.8 C 45.0 55.8 45.2 55.9 45.5 56.0 C 45.9 56.3 44.6 56.7 46.4 57.0 C 46.2 56.5 47.0 56.6 47.5 56.6 C 47.5 56.3 46.8 56.5 46.8 56.2 C 47.4 56.1 48.0 56.5 48.3 56.8 C 49.4 56.8 50.5 57.3 52.0 57.4 C 52.3 57.7 50.7 57.4 51.7 57.7 C 52.1 57.8 52.0 57.5 52.5 57.7 C 51.8 58.9 56.6 58.6 56.8 59.2 C 57.0 58.9 58.3 59.3 58.2 58.9 C 57.3 59.0 56.7 58.6 56.3 58.3 C 55.5 58.4 57.0 58.7 56.3 58.7 C 56.2 58.5 55.1 58.5 55.2 58.2 C 56.4 58.4 54.7 57.9 55.6 57.7 C 56.7 57.9 58.9 57.9 58.3 58.2 C 58.3 58.1 57.8 58.0 57.8 58.1 C 59.0 58.4 59.7 58.3 60.3 58.1 C 60.8 58.4 63.0 58.3 62.4 58.4 C 62.6 58.7 61.1 58.2 61.3 58.5 C 63.6 58.8 63.7 58.6 65.2 59.0 C 64.7 58.6 66.8 58.6 66.6 58.7 C 66.6 59.0 67.0 59.3 68.0 59.0 C 67.8 59.3 68.3 59.4 68.8 59.6 C 69.0 59.3 68.4 59.3 68.5 59.0 C 69.0 59.1 69.4 59.1 69.9 59.1 C 69.9 59.3 69.8 59.4 70.1 59.4 C 70.7 59.3 72.6 59.1 72.4 59.3 C 71.6 59.6 73.6 59.7 72.4 59.9 C 72.7 59.9 72.7 60.0 73.2 60.0 C 73.2 59.9 73.2 59.7 73.2 59.6 C 74.2 59.6 73.7 60.1 74.6 60.2 C 74.7 60.0 75.0 60.0 75.1 59.9 C 74.8 59.9 74.8 60.0 74.3 59.9 C 74.8 59.5 73.4 59.6 73.5 59.3 C 74.5 59.3 74.5 59.6 74.9 59.8 C 76.1 59.6 75.5 59.7 76.8 59.8 C 76.8 59.7 76.4 59.7 76.5 59.5 C 78.1 59.6 77.9 60.2 79.0 60.0 C 78.8 60.1 77.8 60.3 78.5 60.3 C 79.2 60.2 79.4 59.9 80.4 59.8 C 80.4 59.9 80.3 60.1 80.7 60.1 C 81.1 60.0 81.1 59.7 81.5 59.6 C 81.6 59.8 82.1 59.7 82.3 59.6 C 82.6 59.8 82.2 59.9 82.6 60.0 C 83.4 60.0 83.8 59.3 84.5 59.3 C 84.5 59.7 85.2 59.6 85.9 59.5 C 86.0 59.9 87.4 59.7 88.3 59.8 C 88.1 59.5 89.0 59.5 88.8 59.2 C 88.3 59.3 88.1 59.2 88.0 59.1 C 89.0 59.0 89.4 59.6 90.1 59.0 C 90.5 59.2 91.0 59.4 91.7 59.4 C 91.8 59.2 90.5 59.2 91.2 59.1 C 91.3 59.2 91.5 59.1 91.7 59.0 C 91.6 59.4 92.2 59.4 92.6 59.5 C 93.2 59.2 94.5 59.5 93.8 59.2 C 94.8 59.1 94.2 59.7 95.0 59.6 C 94.5 59.2 95.8 59.0 95.1 58.9 C 96.1 58.7 96.1 59.2 95.7 59.4 C 96.6 59.4 96.8 59.1 97.3 59.2 C 96.8 59.0 98.2 58.6 97.5 58.9 C 97.3 59.2 98.3 58.9 98.6 59.0 C 98.2 58.9 98.7 58.8 98.0 58.7 C 98.7 58.5 99.6 58.4 100.3 58.6 C 101.1 58.3 101.9 58.1 101.6 58.5 C 102.3 58.3 102.0 58.3 102.8 58.3 C 102.8 58.2 102.6 58.2 102.5 58.1 C 103.6 57.9 103.4 58.1 104.8 57.9 C 104.7 58.3 105.5 58.1 105.9 58.3 C 105.3 58.4 104.8 58.4 104.3 58.4 C 104.3 58.6 104.8 58.5 104.4 58.7 C 104.3 58.6 104.1 58.6 103.9 58.6 C 104.8 58.7 102.8 59.3 103.4 58.9 C 103.4 58.9 103.5 59.0 103.7 58.9 C 103.5 58.6 103.5 58.7 103.6 58.4 C 103.2 58.6 102.7 58.3 102.6 58.6 C 102.7 58.7 103.1 58.6 103.1 58.7 C 102.0 59.1 102.7 58.4 101.9 58.6 C 101.7 59.0 102.2 59.0 102.5 59.1 C 101.6 59.3 100.9 59.4 100.7 59.2 C 99.9 59.5 100.7 59.5 100.2 59.7 C 99.9 59.6 99.9 59.4 99.4 59.4 C 98.8 59.7 99.8 59.6 99.2 59.8 C 98.5 59.7 99.6 59.3 98.6 59.3 C 98.9 59.8 97.7 59.4 97.9 59.7 C 98.4 59.5 98.5 60.0 98.1 59.7 C 96.8 59.5 96.1 60.7 94.7 60.1 C 94.8 60.2 94.6 60.3 94.5 60.4 C 95.5 60.5 96.9 60.3 97.2 60.8 C 97.9 60.6 97.8 60.3 97.9 60.2 C 98.9 60.4 98.8 60.5 98.3 61.0 C 96.8 61.3 96.2 61.1 95.1 61.1 C 94.6 61.4 95.2 61.2 95.4 61.4 C 92.3 61.4 94.7 62.0 93.6 62.1 C 93.6 61.9 93.4 61.8 93.1 61.8 C 93.1 62.0 92.6 62.0 92.5 62.1 C 92.7 62.1 92.9 62.1 92.8 62.2 C 92.0 62.4 92.3 62.1 92.2 61.9 C 92.9 61.9 93.2 61.8 93.3 61.6 C 92.5 61.8 91.9 61.6 91.4 62.0 C 90.7 61.6 91.8 61.1 91.3 60.8 C 91.4 60.5 90.9 61.6 90.3 61.7 C 89.3 61.8 89.3 62.1 88.4 62.2 C 88.2 61.9 89.3 62.0 89.2 61.7 C 89.0 61.7 88.9 61.7 88.7 61.7 C 88.0 61.7 88.1 62.0 87.6 62.1 C 87.3 61.8 87.2 62.0 86.8 62.2 C 86.2 62.1 87.1 61.9 86.5 61.9 C 85.8 61.8 85.4 62.3 85.1 62.2 C 85.1 62.1 85.2 62.0 84.9 61.9 C 84.1 62.2 83.9 62.2 84.9 62.3 C 84.0 62.3 83.6 62.5 83.8 62.8 C 85.1 62.8 85.4 62.7 86.0 63.1 C 86.2 62.8 86.6 63.0 87.1 63.0 C 86.8 62.5 87.7 63.0 87.9 62.7 C 87.6 62.7 87.3 62.6 87.1 62.5 C 88.5 62.5 88.4 62.6 89.5 62.0 C 89.5 62.1 89.7 62.2 89.8 62.3 C 89.5 62.5 88.5 62.4 88.5 62.7 C 89.3 63.0 89.5 62.4 90.4 62.7 C 90.8 62.5 89.7 62.4 90.4 62.3 C 90.7 62.5 91.2 62.7 91.8 62.7 C 92.3 62.6 92.6 62.5 93.1 62.3 C 93.1 62.4 93.2 62.5 93.7 62.5 C 93.6 62.3 93.2 62.3 93.6 62.2 C 95.1 62.4 96.0 62.6 97.4 62.2 C 96.9 62.2 95.8 62.0 96.3 62.0 C 97.0 62.1 97.8 61.6 98.4 61.8 C 98.6 61.9 97.6 61.8 97.9 62.3 C 98.6 62.2 98.9 62.1 99.3 62.2 C 99.2 62.0 100.0 62.0 99.7 61.7 C 99.2 61.8 99.1 62.1 99.0 62.0 C 99.3 61.1 100.9 62.0 101.9 61.9 C 102.5 61.6 101.4 61.7 102.1 61.4 C 102.5 61.2 102.9 61.9 102.2 62.1 C 101.7 62.1 101.5 62.5 101.4 62.2 C 101.2 62.2 100.9 62.2 100.9 62.3 C 101.3 62.3 101.2 62.5 101.5 62.6 C 100.9 62.6 101.0 63.2 100.4 62.9 C 100.7 62.9 100.8 62.7 100.9 62.6 C 99.6 63.0 99.1 62.8 98.3 62.7 C 98.7 62.9 98.3 62.9 98.3 63.1 C 98.9 63.0 100.1 63.0 99.4 63.2 C 98.9 62.9 98.6 63.9 98.1 63.6 C 98.5 63.5 98.4 63.3 98.6 63.2 C 98.0 63.2 98.0 63.0 97.5 63.0 C 95.8 63.7 94.4 63.1 91.6 64.0 C 90.6 64.0 92.5 63.7 92.4 63.5 C 92.1 63.5 92.0 63.4 91.8 63.4 C 91.8 63.8 91.3 63.5 91.0 63.8 C 91.0 63.5 89.7 63.9 89.1 63.6 C 89.0 63.8 89.1 63.9 88.8 64.0 C 86.8 63.7 83.1 64.3 81.5 64.0 C 81.6 64.3 80.9 64.3 80.7 64.4 C 79.7 64.4 80.2 64.1 78.7 64.4 C 78.0 64.5 78.9 64.2 79.0 64.1 C 76.8 64.3 75.0 63.9 73.6 64.2 C 72.9 64.3 73.6 64.0 72.2 63.9 C 72.1 64.3 69.9 63.5 69.6 64.0 C 68.7 64.0 67.2 63.3 67.9 63.8 C 66.7 63.8 67.5 63.4 67.0 63.4 C 66.2 63.3 67.2 64.1 66.4 64.1 C 66.5 63.8 65.8 63.9 65.3 63.5 C 66.0 63.6 66.4 63.6 66.5 63.4 C 65.9 63.5 66.0 63.3 65.1 63.3 C 64.4 63.4 62.4 63.5 61.9 63.0 C 61.9 63.1 62.1 63.2 62.2 63.3 C 61.6 63.3 61.0 62.9 61.0 63.3 C 59.8 63.1 59.3 62.7 58.5 63.0 C 57.9 63.0 58.7 62.7 57.1 62.5 C 57.1 62.8 54.2 62.3 53.5 61.9 C 53.4 62.3 53.3 61.9 53.0 61.8 C 52.9 61.9 52.9 62.1 52.6 62.1 C 52.6 61.9 52.3 62.0 52.1 62.0 C 52.4 61.5 51.0 61.9 51.0 61.6 C 51.3 61.6 51.3 61.4 51.1 61.3 C 50.9 61.6 49.9 60.9 50.0 61.2 C 50.2 61.3 51.0 61.4 50.7 61.6 C 49.6 61.6 50.1 61.2 49.4 61.1 C 49.4 61.2 49.8 61.4 49.3 61.4 C 48.6 61.2 49.3 61.3 48.9 61.0 C 48.5 61.0 47.7 61.0 47.4 61.0 C 47.5 61.0 47.3 60.8 47.2 60.7 C 45.8 60.3 42.6 59.9 41.4 59.2 C 41.3 59.3 41.0 59.3 41.0 59.5 C 40.3 59.1 40.3 59.2 39.5 58.9 C 39.5 59.0 39.5 59.1 39.4 59.3 C 38.4 59.1 39.5 58.8 38.8 58.7 C 38.5 59.3 38.4 58.4 37.8 58.2 C 37.7 58.3 37.4 58.3 37.4 58.5 C 36.4 58.2 36.6 57.8 35.8 57.7 C 35.9 57.8 35.8 58.7 35.6 59.0 C 35.5 58.8 35.3 58.6 34.9 58.5 C 35.5 58.3 35.6 57.1 34.3 57.1 C 34.9 57.3 35.2 57.4 34.9 57.6 C 34.0 57.4 33.8 57.1 33.0 56.8 C 32.8 57.0 33.3 57.3 33.0 57.5 C 32.8 57.5 32.7 57.5 32.7 57.6 C 31.9 57.3 32.0 57.1 31.1 56.9 C 31.1 56.8 31.3 56.8 31.6 57.0 C 31.6 56.8 31.7 56.6 32.2 56.7 C 32.2 56.9 31.8 57.1 32.6 57.3 C 32.6 57.1 32.7 57.0 32.8 56.8 C 32.2 56.6 31.0 55.9 30.9 56.0 C 31.1 56.2 31.5 56.4 31.2 56.7 C 30.3 56.3 30.1 55.8 29.5 55.4 C 28.1 55.0 26.0 54.0 26.1 54.5 C 25.4 54.1 25.6 54.2 25.0 53.9 C 25.1 54.2 24.2 53.6 24.2 53.9 C 25.0 54.2 24.7 54.2 25.6 54.4 C 25.5 54.6 25.3 54.7 24.9 54.6 C 25.0 54.4 24.7 54.2 24.1 54.0 C 24.2 54.1 24.5 54.6 24.0 54.4 C 23.9 54.3 23.9 54.2 23.6 54.1 C 23.7 53.9 23.7 53.8 23.8 53.6 C 24.1 53.7 24.5 53.8 24.8 53.8 C 24.6 53.7 24.6 53.6 24.4 53.5 C 24.2 53.6 23.2 52.9 23.0 53.0 C 23.6 53.3 23.9 53.6 23.2 53.4 C 23.2 53.3 22.3 52.7 21.8 52.7 C 23.0 53.4 22.5 53.2 23.0 53.8 C 21.5 53.2 21.9 53.0 20.3 52.2 C 20.4 52.0 20.5 51.8 21.0 51.9 C 20.2 50.8 17.8 50.1 17.2 49.6 C 17.6 49.9 18.3 49.9 17.7 49.4 C 17.6 49.5 17.1 49.2 16.9 49.2 C 16.4 49.6 16.8 50.2 17.2 50.8 C 16.7 50.4 16.5 50.5 15.9 50.1 C 15.9 49.8 16.7 49.8 16.0 49.3 C 15.6 49.7 14.8 48.6 14.4 48.7 C 14.8 49.0 15.1 49.3 14.5 49.1 C 14.8 48.9 13.8 48.4 13.9 48.2 C 14.7 48.6 15.0 48.5 15.5 48.9 C 14.9 48.4 16.1 48.9 15.1 48.2 C 14.6 48.1 14.2 48.2 13.2 47.4 C 12.9 47.1 13.4 47.1 13.0 46.7 C 12.9 47.1 11.8 46.3 12.6 46.6 C 12.3 46.3 12.1 46.1 12.0 45.9 C 12.3 46.5 9.8 44.8 10.0 45.3 C 10.3 45.0 10.4 44.6 10.4 44.4 C 9.7 44.3 9.5 43.7 8.5 42.6 C 8.2 42.8 8.3 42.4 7.9 42.0 C 7.7 42.0 8.0 42.5 7.7 42.1 C 7.4 41.5 7.4 41.5 7.4 41.3 C 7.1 40.9 6.9 40.5 6.9 40.3 C 6.7 40.4 6.8 40.5 6.8 40.7 C 6.0 38.9 5.3 38.3 4.8 36.8 C 4.9 37.5 5.4 37.4 5.2 36.9 C 5.0 36.7 4.9 36.4 4.7 36.3 C 4.6 36.7 4.7 36.5 4.5 35.8 C 4.2 35.2 4.1 36.2 3.9 35.7 C 4.0 35.0 4.2 35.3 4.2 35.0 C 4.1 34.8 4.1 34.5 4.0 34.2 C 3.9 34.7 3.7 34.2 3.6 33.8 C 4.0 34.1 4.0 33.8 3.8 32.9 C 4.0 32.8 4.1 33.3 4.1 32.9 C 4.1 32.7 3.7 32.0 4.0 31.3 C 4.0 31.5 4.0 31.6 4.2 31.6 C 3.9 30.9 4.4 30.4 4.6 29.8 C 4.3 30.4 4.1 30.0 3.9 30.3 C 4.2 29.7 4.0 28.9 4.5 28.5 C 4.2 29.3 5.1 28.7 5.2 28.1 C 5.0 27.9 4.8 28.9 4.5 28.5 C 4.3 28.1 5.0 27.6 4.8 27.2 C 4.6 27.2 4.7 27.6 4.5 27.7 C 4.7 27.2 4.3 27.8 4.4 27.3 C 4.8 27.2 4.5 26.8 4.6 26.5 C 4.8 26.3 5.5 25.8 5.4 25.4 C 5.3 25.4 5.1 25.8 5.0 25.8 C 5.5 24.4 6.1 24.2 6.6 22.9 C 6.8 22.9 7.1 22.7 7.3 22.4 C 7.2 22.4 7.3 22.1 7.5 21.8 C 8.0 21.5 8.5 21.1 9.1 20.6 C 9.2 20.9 9.0 21.2 9.8 20.5 C 9.7 20.4 9.4 20.7 9.6 20.4 C 9.7 20.4 9.9 20.3 9.9 20.2 C 9.8 20.1 9.8 20.1 9.7 20.0 C 9.5 20.2 9.3 20.4 9.1 20.6 C 9.0 20.5 8.8 20.4 8.6 20.5 C 9.4 19.5 9.8 20.1 10.2 19.3 C 10.7 19.6 10.9 19.5 10.6 20.2 C 11.1 19.6 11.4 19.2 11.4 18.9 C 10.7 19.4 10.7 19.0 10.4 19.0 C 10.9 18.7 10.8 18.5 11.0 18.3 C 11.6 18.1 10.7 19.2 11.8 18.4 C 10.8 18.7 12.3 17.6 13.0 17.3 C 12.8 17.3 12.6 17.4 12.8 17.1 C 14.2 15.9 14.7 16.9 15.4 15.8 C 15.4 16.0 15.9 15.8 16.1 15.7 C 15.3 16.3 15.2 16.5 14.8 16.7 C 15.0 16.8 15.2 16.7 15.5 16.6 C 15.4 16.4 15.6 16.3 16.0 16.2 C 16.2 15.9 15.9 15.5 16.4 14.9 C 16.6 15.0 16.5 15.2 16.9 15.0 C 17.1 14.6 16.8 15.6 18.3 14.7 C 18.0 14.8 17.8 14.7 17.8 14.4 C 18.5 14.0 18.4 14.2 19.4 13.6 C 19.9 13.9 18.9 14.5 18.8 14.9 C 19.4 14.5 19.8 13.9 20.6 13.8 C 20.0 13.9 20.5 13.4 21.1 13.1 C 21.7 12.9 21.2 13.5 22.0 13.2 C 22.5 12.9 22.8 12.6 22.2 12.6 C 23.5 12.2 23.1 12.0 24.3 11.7 C 24.4 11.8 24.0 12.0 23.6 12.0 C 23.7 12.1 23.6 12.3 24.0 12.2 C 24.7 11.7 26.4 11.1 26.9 10.7 C 28.1 11.0 29.1 9.9 30.2 9.9 C 29.9 10.3 31.7 9.6 32.3 9.8 C 32.6 9.6 33.5 8.7 33.2 9.1 C 33.4 9.5 34.0 9.2 34.5 9.2 C 34.5 9.1 34.5 9.0 34.5 8.9 C 35.6 8.6 35.9 8.9 36.3 9.0 C 37.7 8.6 39.3 8.7 41.0 8.1 C 41.4 8.4 41.8 8.3 42.9 8.4 C 42.8 8.1 43.6 8.0 44.4 7.9 C 44.2 7.6 45.0 7.6 44.9 7.4 C 44.2 7.5 44.4 7.1 44.1 7.0 C 45.0 7.2 45.5 6.6 46.2 6.8 C 45.3 7.0 45.1 7.5 45.0 7.9 C 46.1 7.7 46.7 7.8 46.9 8.0 C 47.0 7.8 46.8 7.6 46.6 7.6 C 46.9 7.5 47.3 7.5 47.7 7.4 C 47.8 7.6 47.3 7.7 47.7 7.8 C 47.9 7.6 48.2 7.5 48.5 7.4 C 48.8 7.7 48.1 7.7 48.0 7.8 C 49.5 7.8 48.8 7.3 49.6 7.1 C 49.8 7.3 49.8 7.6 50.4 7.6 C 50.7 7.4 50.8 7.1 51.5 7.1 C 52.0 7.1 51.5 7.5 52.1 7.5 C 52.2 7.4 52.4 7.4 52.6 7.5 C 52.6 7.3 52.8 7.2 53.2 7.2 C 53.3 7.3 53.8 7.2 54.0 7.1 C 54.1 7.3 55.0 7.6 55.1 7.4 C 55.1 7.2 54.6 7.3 54.6 7.2 C 55.2 7.2 55.6 7.1 56.0 7.0 C 56.2 7.7 57.2 7.1 58.5 7.5 C 59.3 7.2 58.3 7.0 59.3 6.8 C 60.0 7.0 59.2 7.0 59.4 7.4 C 59.5 7.4 60.5 7.6 60.5 7.3 C 60.5 7.2 60.0 7.3 59.9 7.2 C 60.7 6.9 60.6 7.2 61.1 7.3 C 61.0 7.1 61.5 7.0 61.6 6.9 C 63.7 6.7 63.6 7.2 64.5 7.5 C 64.5 7.4 65.0 7.4 65.0 7.3 C 64.4 7.4 63.7 7.1 64.5 7.1 C 64.3 7.2 65.5 7.1 65.6 7.0 C 65.5 6.9 64.7 6.9 65.0 6.6 C 66.1 6.5 65.7 7.1 66.5 6.8 C 66.6 7.0 66.1 7.0 65.9 7.1 C 66.2 7.2 66.7 7.1 66.7 7.3 C 66.3 7.3 66.3 7.6 66.1 7.7 C 66.7 7.5 67.7 7.8 67.0 7.4 C 68.1 7.5 69.2 7.3 68.5 7.0 C 69.4 7.0 68.8 7.4 69.6 7.2 C 69.5 7.5 69.3 7.7 69.8 8.0 C 70.0 7.8 70.5 7.8 70.4 7.5 C 71.8 7.6 72.2 8.0 72.7 8.3 C 72.2 7.8 72.9 8.2 73.6 7.9 C 74.0 8.1 73.5 8.5 74.7 8.4 C 73.5 7.9 76.0 8.4 75.6 7.9 C 77.0 8.3 76.9 8.3 78.4 8.5 C 78.2 8.7 77.8 8.8 77.2 8.8 C 77.7 8.5 76.0 8.4 76.1 8.6 C 76.1 8.6 76.1 8.7 76.1 8.8 C 77.1 8.8 77.9 9.0 78.3 9.2 C 78.5 9.0 79.1 8.9 78.9 8.6 C 79.9 9.1 81.0 8.6 81.5 9.1 C 81.1 9.0 80.8 9.0 80.9 9.2 C 81.3 9.1 81.8 9.1 81.8 8.9 C 80.9 8.7 80.8 8.6 80.3 8.8 C 80.7 8.6 79.6 8.3 80.4 8.3 C 80.3 8.8 82.1 8.3 81.5 8.6 C 80.6 8.6 82.5 8.9 82.6 9.2 C 82.6 9.2 82.6 9.2 82.6 9.2 Z M 97.8 63.0 C 98.5 62.7 97.5 62.6 96.9 62.7 C 97.1 62.8 97.2 62.9 97.2 63.1 C 97.5 63.0 97.7 62.9 97.8 63.0 C 97.8 63.0 97.8 63.0 97.8 63.0 Z M 88.8 59.4 C 88.6 59.8 89.9 59.5 90.4 59.5 C 90.3 59.5 90.1 59.4 90.4 59.3 C 89.8 59.1 89.6 59.7 88.8 59.4 C 88.8 59.4 88.8 59.4 88.8 59.4 Z M 58.1 59.4 C 58.4 59.3 58.9 59.3 58.9 59.5 C 59.3 59.5 59.2 59.3 59.3 59.2 C 59.9 59.3 59.1 59.7 60.1 59.6 C 60.5 59.1 58.4 58.7 58.1 59.4 C 58.1 59.4 58.1 59.4 58.1 59.4 Z M 71.5 12.6 C 71.9 12.8 70.9 13.0 71.2 13.3 C 72.7 13.1 71.6 12.7 73.7 12.9 C 73.6 12.9 73.4 12.8 73.5 12.6 C 72.5 12.7 72.4 12.9 72.6 12.4 C 72.2 12.3 72.0 13.0 71.5 12.6 C 71.5 12.6 71.5 12.6 71.5 12.6 Z M 90.8 16.4 C 90.7 16.3 90.5 16.2 90.6 16.1 C 89.9 16.1 90.1 16.2 89.3 15.9 C 89.3 16.4 90.1 16.5 90.8 16.4 C 90.8 16.4 90.8 16.4 90.8 16.4 Z M 129.0 38.2 C 129.0 38.3 129.0 38.3 129.0 38.4 C 129.2 38.3 129.6 38.5 129.5 38.1 C 129.4 38.1 129.4 38.2 129.4 38.2 C 129.3 38.2 129.2 38.0 129.0 38.0 C 129.1 38.1 129.0 38.2 129.0 38.2 C 129.0 38.2 129.0 38.2 129.0 38.2 Z M 123.3 50.8 C 124.0 50.0 121.3 50.8 123.3 50.8 C 123.3 50.8 123.3 50.8 123.3 50.8 C 123.3 50.8 123.3 50.8 123.3 50.8 Z M 127.1 52.5 C 127.2 52.6 127.4 52.4 127.4 52.3 C 128.2 51.8 127.5 52.5 128.1 52.3 C 128.5 51.6 127.5 52.1 128.1 51.4 C 127.8 51.4 127.6 52.1 127.1 52.5 C 127.1 52.5 127.1 52.5 127.1 52.5 Z M 14.4 16.6 C 13.7 17.2 13.7 17.6 13.7 17.9 C 14.2 17.6 14.6 17.4 14.9 17.4 C 15.7 16.7 14.1 17.6 13.9 17.6 C 13.9 17.4 14.5 16.9 14.4 16.6 C 14.4 16.6 14.4 16.6 14.4 16.6 Z M 12.1 18.3 C 11.9 18.6 11.6 19.0 11.7 19.2 C 12.1 18.9 12.2 18.9 12.3 19.0 C 12.6 18.6 12.0 18.8 12.1 18.3 C 12.1 18.3 12.1 18.3 12.1 18.3 Z M 16.9 15.7 C 16.5 15.9 16.7 16.0 16.8 16.2 C 17.3 15.9 17.4 16.0 18.0 15.7 C 17.9 15.6 17.9 15.5 17.9 15.4 C 17.4 15.6 17.4 15.7 17.0 15.9 C 16.9 15.9 16.9 15.8 16.9 15.7 C 16.9 15.7 16.9 15.7 16.9 15.7 Z M 10.3 20.3 C 9.2 21.2 9.2 22.1 8.9 23.0 C 9.5 22.2 9.7 21.1 10.4 20.8 C 11.0 20.1 10.0 20.8 10.0 20.7 C 9.9 20.6 10.2 20.4 10.3 20.3 C 10.3 20.3 10.3 20.3 10.3 20.3 Z M 4.6 30.6 C 4.4 30.8 4.8 31.4 4.8 32.1 C 4.8 32.0 4.9 31.9 5.1 31.9 C 5.2 30.8 4.5 31.4 4.6 30.6 C 4.6 30.6 4.6 30.6 4.6 30.6 Z M 5.6 36.8 C 5.9 37.4 5.7 36.4 6.0 36.6 C 5.8 35.9 5.6 35.2 5.3 35.3 C 5.7 36.0 5.7 36.1 5.6 36.8 C 5.6 36.8 5.6 36.8 5.6 36.8 Z M 7.9 40.9 C 8.5 41.5 8.0 40.4 8.5 40.5 C 8.3 40.3 8.2 40.4 8.1 40.5 C 8.0 40.3 7.9 40.1 7.7 39.8 C 7.7 40.1 8.2 40.8 7.9 40.9 C 7.9 40.9 7.9 40.9 7.9 40.9 Z M 35.4 10.0 C 35.0 10.2 35.2 10.4 34.3 10.5 C 35.7 10.3 35.1 11.3 36.9 10.8 C 36.6 10.8 36.8 10.6 36.9 10.7 C 37.6 10.4 36.2 10.7 36.8 10.2 C 36.3 10.4 36.6 10.6 36.1 10.8 C 35.5 10.6 35.2 10.5 35.4 10.0 C 35.4 10.0 35.4 10.0 35.4 10.0 Z M 37.0 11.1 C 37.5 11.1 37.4 10.5 37.7 10.8 C 37.9 10.7 37.9 10.6 37.9 10.5 C 37.7 10.6 37.7 10.5 37.6 10.5 C 37.2 10.7 36.8 10.8 37.0 11.1 C 37.0 11.1 37.0 11.1 37.0 11.1 Z M 32.3 12.1 C 33.1 11.8 33.4 11.9 33.7 11.6 C 34.1 12.0 34.2 11.3 34.7 11.6 C 35.5 11.3 34.9 11.3 34.7 11.2 C 35.4 10.9 34.9 11.4 35.7 11.2 C 35.8 10.8 34.8 11.1 34.8 10.7 C 34.2 10.8 34.3 11.1 33.9 11.2 C 33.6 11.3 33.7 11.1 33.6 11.0 C 32.9 11.2 32.9 11.0 32.4 11.2 C 32.3 11.5 32.5 11.5 33.2 11.3 C 32.5 11.6 32.3 11.9 31.5 11.9 C 32.0 11.5 29.6 12.0 29.9 12.4 C 30.5 12.3 30.3 12.1 30.5 11.9 C 31.4 12.0 31.9 11.8 32.3 12.1 C 32.3 12.1 32.3 12.1 32.3 12.1 Z M 17.6 16.4 C 17.4 16.5 17.1 16.6 16.7 16.8 C 16.6 16.6 17.1 16.3 16.5 16.4 C 15.9 16.7 15.8 16.9 15.5 17.2 C 15.8 17.2 17.1 16.7 16.6 17.2 C 16.8 17.2 17.3 17.0 17.8 16.8 C 17.0 16.7 18.7 16.3 19.3 16.0 C 19.0 15.6 20.4 15.6 20.8 15.1 C 20.3 15.0 19.1 15.9 18.6 16.1 C 18.8 16.0 16.8 16.3 17.6 16.4 C 17.6 16.4 17.6 16.4 17.6 16.4 Z M 38.9 10.6 C 39.1 10.5 39.6 10.3 39.2 10.3 C 39.4 10.2 39.9 10.3 39.6 9.8 C 39.9 9.8 40.1 9.8 40.4 9.7 C 40.3 9.9 39.6 9.9 39.9 10.2 C 40.4 10.0 40.3 10.2 41.0 10.0 C 40.6 10.4 41.0 10.3 40.8 10.8 C 41.0 10.6 41.6 10.5 41.5 10.3 C 42.5 10.2 41.3 10.7 42.6 10.5 C 42.6 10.8 41.7 10.9 41.3 10.8 C 41.2 11.1 43.0 10.7 44.0 10.6 C 43.1 10.5 43.7 10.1 44.1 9.8 C 44.4 9.9 44.1 10.0 44.7 10.1 C 45.1 10.1 45.3 9.9 45.5 10.1 C 45.8 10.0 45.7 9.8 45.7 9.6 C 46.3 9.6 45.9 10.1 46.8 9.9 C 46.1 9.6 46.9 9.4 48.1 9.4 C 48.0 9.3 47.6 9.3 47.6 9.1 C 47.7 8.9 48.5 9.2 48.7 9.3 C 49.1 9.2 48.8 9.1 48.4 9.2 C 48.6 9.0 48.9 8.9 49.2 8.8 C 47.8 8.9 45.7 9.1 43.2 9.0 C 43.7 9.2 43.2 9.3 42.5 9.3 C 42.3 9.2 42.6 9.1 43.0 9.1 C 42.1 8.8 42.2 9.6 40.9 9.5 C 40.2 9.6 41.7 9.2 40.8 9.2 C 40.4 9.3 40.1 9.6 39.8 9.3 C 39.0 9.6 38.8 10.0 37.6 10.2 C 38.3 10.2 38.8 10.9 39.5 10.6 C 39.5 10.5 39.1 10.6 38.9 10.6 C 38.9 10.6 38.9 10.6 38.9 10.6 Z M 12.4 19.2 C 12.0 19.5 11.9 19.8 11.7 19.7 C 11.1 20.3 12.0 19.9 12.2 19.9 C 12.5 19.6 12.5 19.4 12.4 19.2 C 12.4 19.2 12.4 19.2 12.4 19.2 Z M 61.4 62.4 C 62.5 62.6 62.3 62.2 63.2 62.3 C 62.5 62.1 62.3 61.8 61.2 61.8 C 61.1 62.0 61.1 62.3 61.4 62.4 C 61.4 62.4 61.4 62.4 61.4 62.4 Z M 15.0 17.7 C 15.5 17.0 14.5 18.5 14.3 18.2 C 13.7 18.9 15.1 17.9 14.6 18.6 C 15.1 18.1 15.6 18.1 16.3 17.4 C 16.2 17.3 15.5 17.7 14.9 18.1 C 14.8 18.0 15.1 17.8 15.0 17.7 C 15.0 17.7 15.0 17.7 15.0 17.7 Z M 50.7 60.0 C 50.0 60.1 51.3 60.7 51.7 60.9 C 51.8 60.5 51.6 60.5 50.7 60.0 C 50.7 60.0 50.7 60.0 50.7 60.0 Z M 68.8 62.6 C 69.3 62.2 67.6 62.5 68.0 62.1 C 67.5 62.0 67.4 62.1 67.4 62.3 C 67.2 62.1 66.4 62.2 66.6 61.9 C 66.5 61.7 67.9 62.1 67.4 61.7 C 67.9 61.7 67.9 61.8 68.3 61.8 C 67.5 61.8 67.8 62.1 68.8 62.3 C 68.9 62.0 68.4 62.0 68.9 61.9 C 68.9 62.0 69.4 62.3 69.4 62.7 C 70.3 62.7 69.8 62.2 70.8 62.3 C 70.7 62.1 70.1 62.0 69.7 61.9 C 69.8 61.6 70.8 62.3 70.6 61.8 C 70.8 62.0 71.4 62.2 71.4 62.5 C 70.6 62.6 70.0 62.8 69.4 62.9 C 70.0 63.1 70.9 62.5 71.9 62.8 C 71.8 62.6 72.4 62.7 72.2 62.4 C 73.1 62.5 72.7 62.8 72.5 62.9 C 72.7 63.1 74.3 63.0 74.2 62.7 C 74.3 63.0 76.2 63.0 76.2 62.6 C 76.7 62.9 77.6 62.4 77.9 62.8 C 78.2 62.7 78.9 62.7 79.6 62.7 C 79.8 62.4 78.5 62.6 78.5 62.3 C 78.2 62.1 79.8 62.4 79.6 62.1 C 79.6 62.1 79.6 62.0 79.6 61.9 C 79.0 62.0 78.4 62.1 77.9 62.2 C 77.5 62.2 78.0 62.1 77.9 61.9 C 77.5 62.1 75.7 62.5 75.6 61.9 C 74.4 62.0 73.6 61.9 73.1 62.1 C 72.4 62.0 73.5 61.9 73.1 61.7 C 71.0 62.0 68.4 61.4 66.6 61.7 C 66.2 61.6 66.4 61.4 66.4 61.3 C 63.9 61.3 65.9 61.9 64.1 61.6 C 64.1 61.3 65.0 61.4 65.0 61.2 C 64.3 61.1 64.1 61.2 63.3 61.1 C 63.2 61.2 63.2 61.4 63.2 61.5 C 62.5 61.4 62.8 61.1 62.4 60.9 C 61.5 60.9 61.7 61.1 61.3 60.7 C 60.5 60.7 59.7 60.7 58.8 60.5 C 58.2 60.6 59.2 61.2 60.1 61.3 C 60.1 61.4 59.8 61.4 59.8 61.5 C 58.8 61.1 58.7 60.5 57.2 60.2 C 58.3 60.7 56.5 60.3 56.3 60.0 C 55.7 60.0 56.1 60.4 56.6 60.5 C 56.5 60.6 56.1 60.4 56.0 60.3 C 55.9 60.7 57.4 61.2 59.0 61.2 C 58.2 61.6 60.1 61.3 59.2 61.8 C 60.5 61.9 59.5 61.4 60.9 61.6 C 60.8 61.5 60.5 61.3 60.4 61.2 C 61.6 61.2 61.2 61.7 62.4 61.7 C 62.6 61.5 61.8 61.4 61.8 61.2 C 63.1 61.7 63.5 61.8 64.3 62.2 C 64.5 62.0 64.3 61.7 65.7 62.0 C 65.7 62.1 65.7 62.2 65.7 62.2 C 65.0 62.1 64.8 62.7 66.5 62.8 C 66.7 62.6 66.1 62.6 65.7 62.5 C 65.9 62.3 66.5 62.3 67.1 62.3 C 67.4 62.4 67.8 62.6 67.4 62.6 C 67.6 62.9 67.9 62.3 68.8 62.6 C 68.8 62.6 68.8 62.6 68.8 62.6 Z M 5.5 29.5 C 5.5 29.7 5.5 29.9 5.5 30.2 C 5.7 30.4 5.7 29.8 5.9 29.8 C 6.0 29.3 5.6 29.6 5.5 29.5 C 5.5 29.5 5.5 29.5 5.5 29.5 Z M 8.6 23.4 C 8.4 23.3 8.4 23.9 8.0 24.3 C 8.1 24.6 8.4 24.0 8.6 24.1 C 9.1 23.6 8.1 23.9 8.6 23.4 C 8.6 23.4 8.6 23.4 8.6 23.4 Z M 7.0 25.9 C 6.6 26.0 7.0 26.2 7.2 25.8 C 7.3 25.9 7.4 26.1 7.3 26.4 C 7.7 26.2 7.4 25.8 7.8 25.3 C 7.5 25.4 7.2 25.6 7.0 25.9 C 7.0 25.9 7.0 25.9 7.0 25.9 Z M 6.5 26.8 C 6.6 27.2 6.2 27.3 6.2 28.0 C 6.5 27.9 6.8 26.6 6.8 26.4 C 6.7 26.1 6.1 27.4 6.5 26.8 C 6.5 26.8 6.5 26.8 6.5 26.8 Z M 40.3 57.2 C 40.5 57.3 40.5 57.2 40.6 57.1 C 41.2 57.7 42.4 57.9 41.4 58.1 C 42.3 58.1 43.0 58.7 43.7 58.9 C 44.3 59.1 44.1 58.7 44.5 58.8 C 45.3 59.0 44.1 58.9 44.2 59.0 C 44.3 59.3 44.7 58.8 45.6 59.3 C 45.4 58.7 46.4 59.5 46.2 58.9 C 46.7 59.2 46.9 59.0 47.5 59.2 C 47.5 59.0 46.8 58.8 46.8 58.6 C 46.5 58.2 46.4 58.8 47.0 58.9 C 46.6 59.1 45.8 58.4 45.4 58.6 C 45.2 58.2 46.3 58.7 46.0 58.3 C 45.8 58.3 45.6 58.3 45.5 58.4 C 45.1 58.3 44.9 58.1 44.7 57.9 C 45.0 58.0 45.0 58.0 45.0 58.1 C 45.5 58.2 44.6 57.5 45.6 57.7 C 45.5 57.6 45.0 57.5 45.2 57.3 C 44.9 57.0 45.0 58.1 44.0 57.6 C 43.3 57.7 45.6 58.2 44.8 58.7 C 43.4 58.3 44.3 58.0 43.2 57.7 C 43.1 57.8 43.1 57.9 42.8 57.9 C 42.8 58.0 43.3 58.1 43.6 58.2 C 43.5 58.3 43.1 58.1 42.8 58.1 C 42.8 58.2 43.0 58.2 43.0 58.3 C 42.0 58.0 42.3 57.4 43.2 57.5 C 43.3 57.2 42.1 56.9 41.7 57.0 C 42.0 57.3 41.6 57.2 41.8 57.5 C 42.1 57.6 42.0 57.5 42.1 57.4 C 42.6 57.6 42.1 57.6 42.1 57.7 C 41.6 57.5 41.6 57.3 41.1 57.3 C 41.2 57.3 41.4 57.2 41.4 57.1 C 41.1 57.0 40.9 57.0 40.6 56.9 C 40.6 57.1 40.3 57.0 40.3 57.2 C 40.3 57.2 40.3 57.2 40.3 57.2 Z M 53.9 61.0 C 54.8 61.2 54.4 60.8 54.0 60.8 C 54.2 60.7 54.5 60.7 54.8 60.7 C 54.6 60.6 54.3 60.6 53.5 60.4 C 54.3 60.1 53.6 59.4 52.3 59.3 C 51.8 59.8 52.9 60.0 52.4 60.3 C 53.4 60.3 53.9 60.6 53.9 61.0 C 53.9 61.0 53.9 61.0 53.9 61.0 Z M 12.3 19.9 C 11.8 20.3 11.4 20.6 11.0 21.0 C 11.2 21.2 12.7 20.2 12.3 19.9 C 12.3 19.9 12.3 19.9 12.3 19.9 Z M 50.3 9.1 C 50.5 9.1 50.5 9.1 50.6 9.2 C 51.3 9.0 50.2 9.0 50.5 8.7 C 50.2 8.7 50.0 8.7 49.7 8.8 C 49.7 8.9 50.8 9.0 50.0 9.1 C 50.1 9.2 50.3 9.2 50.3 9.1 C 50.3 9.1 50.3 9.1 50.3 9.1 Z M 6.0 29.1 C 6.0 29.5 6.4 29.4 6.2 30.3 C 6.4 30.0 6.4 29.8 6.5 29.2 C 6.3 29.2 6.1 29.1 6.0 29.1 C 6.0 29.1 6.0 29.1 6.0 29.1 Z M 36.4 56.6 C 36.9 57.1 37.3 56.5 38.4 57.0 C 37.9 56.4 37.1 56.7 36.4 56.6 C 36.4 56.6 36.4 56.6 36.4 56.6 Z M 81.8 62.2 C 81.4 62.1 81.9 62.1 81.2 61.9 C 80.8 62.0 80.7 62.2 80.1 62.2 C 80.9 62.5 82.3 62.2 82.9 62.7 C 83.6 62.6 83.5 62.3 83.7 62.1 C 83.4 62.1 83.2 62.1 83.2 62.0 C 82.8 62.4 82.3 61.7 81.8 62.2 C 81.8 62.2 81.8 62.2 81.8 62.2 Z M 50.5 59.9 C 50.0 59.6 50.9 59.6 51.1 59.5 C 51.5 59.6 51.3 59.8 51.3 59.9 C 51.8 60.0 52.0 59.9 51.9 59.6 C 51.0 59.4 49.9 59.1 50.7 58.9 C 49.8 58.6 50.2 59.1 49.8 59.1 C 49.3 58.8 49.8 58.8 49.9 58.5 C 49.7 58.5 48.9 58.8 49.1 58.4 C 47.7 58.5 48.2 59.1 49.1 59.8 C 50.0 59.6 49.0 59.3 50.5 59.9 C 50.5 59.9 50.5 59.9 50.5 59.9 Z M 17.8 47.9 C 17.8 48.0 18.4 48.3 18.3 48.4 C 19.1 48.6 19.8 48.6 20.5 48.7 C 20.6 48.4 19.6 48.1 19.8 48.5 C 19.7 48.2 19.2 47.7 18.9 47.4 C 18.4 47.0 17.8 47.4 18.0 46.9 C 17.4 46.7 17.7 46.9 16.9 46.3 C 18.0 47.5 16.3 46.1 16.0 46.3 C 16.8 46.9 17.5 47.3 17.6 47.0 C 18.1 47.5 18.7 48.0 18.7 48.3 C 18.6 48.4 18.1 48.1 17.8 47.9 C 17.8 47.9 17.8 47.9 17.8 47.9 Z M 21.9 49.2 C 21.6 49.1 21.4 49.0 20.9 48.8 C 21.1 49.0 21.2 49.2 21.0 49.3 C 21.9 49.8 22.2 49.7 22.3 50.1 C 23.1 50.6 22.3 49.6 23.5 50.4 C 23.4 50.2 22.8 49.9 22.9 49.8 C 22.7 50.0 22.2 49.8 21.9 49.2 C 21.9 49.2 21.9 49.2 21.9 49.2 Z M 29.5 53.3 C 30.1 53.6 29.2 53.1 29.6 53.0 C 29.4 53.0 28.3 52.4 28.6 52.2 C 28.4 51.7 27.0 52.0 27.3 51.6 C 27.0 51.5 27.1 51.7 27.0 51.8 C 27.8 52.0 27.7 52.3 27.1 52.1 C 27.1 52.2 27.6 52.4 27.9 52.5 C 28.1 52.4 27.8 52.2 27.9 52.1 C 28.5 52.5 28.9 52.9 29.5 53.3 C 29.5 53.3 29.5 53.3 29.5 53.3 Z M 80.7 10.5 C 80.0 10.4 79.6 10.4 79.3 10.5 C 79.4 10.7 79.8 10.5 80.1 10.6 C 80.2 10.8 79.9 10.7 79.5 10.7 C 79.8 11.0 81.0 10.9 80.7 10.5 C 80.7 10.5 80.7 10.5 80.7 10.5 Z M 75.1 9.9 C 74.4 9.9 74.0 9.9 73.9 10.1 C 74.2 10.3 74.1 10.0 74.5 10.0 C 74.8 10.1 74.9 10.2 75.0 10.3 C 75.3 10.4 75.3 10.2 75.4 10.2 C 75.6 10.2 75.6 10.2 75.6 10.3 C 76.4 10.1 74.7 10.3 75.1 9.9 C 75.1 9.9 75.1 9.9 75.1 9.9 Z M 25.8 51.6 C 25.6 51.3 25.6 51.1 25.1 50.9 C 25.1 51.1 24.7 51.0 24.1 50.7 C 24.8 51.3 25.0 51.2 25.8 51.6 C 25.8 51.6 25.8 51.6 25.8 51.6 Z M 40.8 11.0 C 40.0 10.8 40.2 11.3 39.1 11.3 C 39.1 11.4 39.1 11.5 39.1 11.6 C 39.7 11.2 40.0 11.3 40.8 11.0 C 40.8 11.0 40.8 11.0 40.8 11.0 Z M 132.1 45.2 C 131.9 45.0 131.7 45.6 131.5 45.6 C 131.8 45.9 131.0 45.8 130.2 46.9 C 130.1 46.8 130.1 46.7 130.2 46.6 C 129.5 47.4 130.7 46.6 131.0 46.6 C 131.4 45.9 131.7 45.9 132.1 45.2 C 132.1 45.2 132.1 45.2 132.1 45.2 Z M 73.4 61.2 C 73.4 61.3 73.5 61.3 73.7 61.3 C 73.9 61.3 74.1 61.3 74.2 61.3 C 74.2 60.9 73.3 60.7 74.0 60.3 C 73.7 60.3 73.7 60.4 73.7 60.4 C 72.3 61.3 71.3 59.7 69.5 60.2 C 69.3 60.2 69.3 60.3 69.2 60.4 C 69.5 60.4 69.5 60.4 69.5 60.5 C 69.8 60.1 71.3 60.7 70.6 60.8 C 70.7 60.9 70.9 60.8 70.9 60.8 C 71.1 60.8 71.3 60.8 71.5 60.8 C 71.4 60.7 71.0 60.6 70.9 60.5 C 71.8 60.7 72.9 60.8 72.3 61.2 C 72.8 61.2 73.0 61.0 73.4 60.9 C 73.8 60.9 73.8 61.2 73.4 61.2 C 73.4 61.2 73.4 61.2 73.4 61.2 Z M 80.7 61.2 C 81.5 61.3 81.2 61.0 82.1 61.0 C 81.5 60.8 80.8 61.1 80.1 60.9 C 80.2 61.1 80.6 61.1 80.7 61.2 C 80.7 61.2 80.7 61.2 80.7 61.2 Z M 64.5 60.1 C 64.7 59.8 63.9 59.7 63.1 59.6 C 62.9 59.9 63.7 60.0 64.5 60.1 C 64.5 60.1 64.5 60.1 64.5 60.1 Z M 68.1 60.4 C 68.9 60.4 67.1 60.3 67.6 60.0 C 67.2 60.0 66.8 59.9 66.8 59.8 C 66.5 59.9 66.5 60.0 65.9 59.9 C 65.9 60.1 66.8 60.1 66.7 60.3 C 67.4 60.2 67.5 60.2 68.1 60.4 C 68.1 60.4 68.1 60.4 68.1 60.4 Z M 68.7 60.5 C 69.2 60.4 68.6 59.8 67.9 59.8 C 68.1 60.0 68.3 60.3 68.7 60.5 C 68.7 60.5 68.7 60.5 68.7 60.5 Z M 10.1 38.8 C 10.3 39.1 10.4 38.7 10.6 39.0 C 10.7 38.9 9.9 37.8 10.6 38.7 C 10.7 38.2 10.1 38.3 9.9 37.8 C 9.9 38.0 9.9 38.2 9.7 37.9 C 9.4 37.9 10.4 38.8 10.1 38.8 C 10.1 38.8 10.1 38.8 10.1 38.8 Z M 10.9 40.0 C 11.1 40.2 11.1 40.0 11.0 39.9 C 11.1 39.9 11.3 40.2 11.5 40.4 C 11.4 40.5 11.5 39.7 11.7 39.6 C 10.8 38.8 11.1 39.7 10.9 40.0 C 10.9 40.0 10.9 40.0 10.9 40.0 Z M 11.8 40.8 C 12.2 41.6 13.1 42.4 13.8 42.6 C 13.6 41.8 12.4 40.8 11.8 40.8 C 11.8 40.8 11.8 40.8 11.8 40.8 Z M 8.4 34.5 C 8.3 35.7 9.7 37.7 9.2 35.7 C 9.0 35.8 8.4 34.6 8.5 33.9 C 8.3 33.9 7.9 33.2 8.1 33.2 C 7.8 32.7 8.2 34.8 8.4 34.5 C 8.4 34.5 8.4 34.5 8.4 34.5 Z M 15.0 42.8 C 14.5 42.7 14.6 43.4 14.2 42.8 C 13.9 42.6 14.2 43.0 14.0 43.1 C 14.7 43.6 16.4 44.5 16.3 44.9 C 16.8 45.1 17.0 45.0 17.8 45.6 C 17.9 45.4 15.0 43.9 14.9 43.0 C 15.0 42.9 15.8 43.6 15.0 42.8 C 15.0 42.8 15.0 42.8 15.0 42.8 Z M 41.1 12.8 C 41.1 12.5 40.1 12.8 40.3 12.5 C 39.8 12.9 39.2 12.8 38.6 13.2 C 38.4 13.1 38.4 12.6 37.5 12.7 C 37.6 13.0 38.0 12.9 37.6 13.1 C 36.8 13.3 37.0 12.9 36.1 13.2 C 36.3 13.7 34.2 13.7 34.5 14.2 C 35.0 14.0 34.9 13.8 35.7 13.7 C 36.0 13.7 35.9 13.9 36.2 13.8 C 36.0 14.1 35.6 13.8 35.3 14.1 C 35.4 14.3 36.0 14.2 36.1 14.4 C 36.4 14.2 36.0 14.2 36.0 14.1 C 36.9 13.8 36.1 14.7 37.1 14.5 C 36.8 14.2 36.8 14.2 37.0 13.9 C 37.4 13.9 38.6 13.5 38.0 14.0 C 38.1 14.2 38.8 13.7 38.7 13.6 C 39.1 13.4 39.2 13.5 39.2 13.7 C 40.2 13.4 40.4 13.1 40.1 12.8 C 40.3 12.5 40.5 13.0 41.1 12.8 C 41.1 12.8 41.1 12.8 41.1 12.8 Z M 8.7 28.6 C 8.7 28.1 8.6 29.1 8.5 29.5 C 8.6 29.0 9.0 29.3 9.2 28.8 C 9.0 28.9 9.0 28.9 9.1 28.5 C 9.0 28.4 8.6 29.1 8.7 28.6 C 8.7 28.6 8.7 28.6 8.7 28.6 Z M 19.4 46.6 C 19.6 47.0 21.2 47.7 22.0 48.3 C 22.1 47.8 19.8 47.2 19.8 46.6 C 19.3 46.4 19.9 46.9 19.4 46.6 C 19.4 46.6 19.4 46.6 19.4 46.6 Z M 31.8 14.2 C 31.6 14.3 31.7 14.3 31.9 14.3 C 31.8 14.4 31.3 14.5 31.0 14.6 C 31.5 14.7 30.9 14.9 31.1 15.2 C 30.8 15.3 30.7 15.3 30.7 15.4 C 30.5 14.9 29.4 16.1 30.8 15.8 C 30.5 15.6 30.6 15.6 31.1 15.3 C 31.8 15.4 32.3 15.0 32.6 15.2 C 33.0 15.1 33.1 14.9 33.7 14.8 C 33.9 15.0 34.4 15.0 34.1 15.5 C 35.1 15.3 34.3 14.7 35.1 14.5 C 36.0 14.5 34.8 14.9 35.0 15.1 C 35.2 15.0 35.2 15.2 35.3 15.2 C 35.6 15.1 35.5 14.9 35.2 14.9 C 35.3 14.8 36.1 14.4 35.9 14.8 C 36.4 14.5 35.0 14.0 34.4 14.5 C 34.0 14.6 33.9 14.1 34.3 14.0 C 34.1 13.8 33.4 14.6 33.5 14.0 C 33.2 14.1 32.9 14.1 32.6 14.2 C 32.6 14.3 32.8 14.3 32.9 14.4 C 32.6 14.4 32.2 14.5 31.9 14.6 C 32.2 14.4 32.1 14.3 31.8 14.2 C 31.8 14.2 31.8 14.2 31.8 14.2 Z M 16.1 44.2 C 16.7 44.7 16.9 44.7 17.4 45.0 C 17.4 44.6 16.0 43.8 16.1 44.2 C 16.1 44.2 16.1 44.2 16.1 44.2 Z M 45.6 13.1 C 45.5 13.0 45.0 13.1 45.0 12.9 C 45.8 12.7 44.9 12.7 45.5 12.1 C 44.5 12.5 44.2 13.2 45.6 13.3 C 46.6 13.1 44.5 13.2 45.6 13.1 C 45.6 13.1 45.6 13.1 45.6 13.1 Z M 42.5 13.3 C 41.9 13.5 43.4 13.4 43.8 13.5 C 43.8 13.6 43.8 13.7 43.8 13.8 C 44.6 13.2 43.5 13.2 44.2 12.5 C 43.2 12.5 42.7 12.5 41.9 12.7 C 42.0 12.8 42.1 12.8 42.1 12.7 C 42.8 12.7 42.4 13.1 41.7 13.1 C 41.9 13.2 42.5 13.1 43.0 13.1 C 42.8 13.0 42.7 13.0 42.7 12.8 C 43.2 12.7 43.1 13.0 43.5 12.9 C 43.5 13.1 42.5 13.4 42.5 13.3 C 42.5 13.3 42.5 13.3 42.5 13.3 Z M 95.6 15.4 C 95.1 15.4 96.1 16.0 95.9 16.4 C 96.4 16.6 96.6 16.5 96.9 16.6 C 96.8 16.3 96.2 16.2 96.0 15.9 C 96.2 15.6 96.8 16.2 97.1 16.0 C 97.5 15.6 95.7 15.8 95.6 15.4 C 95.6 15.4 95.6 15.4 95.6 15.4 Z M 18.9 19.5 C 18.6 19.6 18.8 19.6 18.9 19.6 C 18.9 19.7 18.5 19.9 18.4 19.8 C 18.0 20.1 18.7 19.9 18.3 20.2 C 18.3 20.4 19.0 19.7 19.0 19.7 C 19.6 19.3 19.3 19.9 19.5 20.0 C 20.0 19.7 19.7 19.5 20.5 19.2 C 19.9 19.3 19.5 19.3 18.9 19.5 C 18.9 19.5 18.9 19.5 18.9 19.5 Z M 47.3 12.3 C 47.4 12.1 46.7 12.8 46.0 12.6 C 45.1 12.7 46.6 12.9 45.8 12.9 C 46.5 12.9 47.3 12.6 48.4 12.5 C 48.6 12.3 46.9 12.6 47.9 12.3 C 47.8 12.2 47.6 12.3 47.6 12.4 C 47.4 12.4 47.3 12.3 47.3 12.3 C 47.3 12.3 47.3 12.3 47.3 12.3 Z M 46.3 13.1 C 46.4 13.2 46.6 13.1 46.6 13.1 C 46.9 13.0 47.0 13.3 46.6 13.4 C 47.1 13.7 47.0 13.0 47.9 13.1 C 47.5 12.9 47.3 12.8 48.2 12.9 C 48.8 12.6 46.6 12.9 46.3 13.1 C 46.3 13.1 46.3 13.1 46.3 13.1 Z M 87.2 13.9 C 87.2 14.1 87.8 14.1 88.2 14.2 C 87.6 14.4 85.5 13.9 85.3 13.6 C 85.0 13.6 84.8 13.7 84.7 13.5 C 84.7 13.6 84.1 13.7 84.4 13.8 C 84.3 13.9 83.9 13.8 83.9 13.9 C 83.0 13.7 84.1 13.7 83.9 13.5 C 82.9 13.6 83.1 13.4 82.0 13.2 C 82.2 13.6 83.4 13.6 83.3 14.0 C 84.2 13.8 85.2 14.2 85.7 14.6 C 84.9 14.0 88.1 14.3 89.5 14.6 C 89.4 14.8 89.9 14.9 90.5 15.1 C 90.8 15.5 90.8 14.8 90.0 14.8 C 90.1 14.6 91.1 15.0 91.6 15.1 C 91.1 14.8 91.4 14.7 91.2 14.6 C 90.1 14.3 91.0 14.6 90.8 14.8 C 90.6 14.8 90.3 14.7 90.0 14.7 C 91.5 14.4 88.0 14.2 89.3 14.4 C 88.2 14.2 88.2 13.9 87.2 13.9 C 87.2 13.9 87.2 13.9 87.2 13.9 Z M 61.3 11.6 C 61.1 11.7 60.3 11.9 60.2 11.6 C 59.1 11.9 60.1 12.1 58.8 12.1 C 58.9 12.3 59.4 12.2 59.4 12.3 C 59.9 12.2 60.4 12.1 60.2 11.8 C 60.8 11.9 61.0 11.8 61.3 11.7 C 61.2 11.8 61.0 11.9 60.5 11.9 C 60.4 12.2 60.6 12.4 61.3 12.3 C 61.6 12.1 61.4 11.8 61.3 11.6 C 61.3 11.6 61.3 11.6 61.3 11.6 Z M 58.6 12.0 C 58.4 12.0 58.3 11.9 58.3 11.8 C 57.9 11.4 58.2 12.1 57.8 12.2 C 57.4 12.2 57.5 12.0 57.5 11.9 C 57.0 11.9 56.6 12.0 56.4 11.9 C 55.7 12.1 57.3 12.1 57.5 12.3 C 58.0 12.3 57.8 12.0 58.6 12.0 C 58.6 12.0 58.6 12.0 58.6 12.0 Z M 50.5 12.1 C 50.3 11.8 50.1 12.3 49.7 12.3 C 50.0 12.5 50.7 12.3 50.3 12.7 C 51.0 12.8 51.1 12.8 51.9 12.6 C 52.4 12.9 51.9 12.3 51.1 12.6 C 51.1 12.4 51.5 12.4 51.6 12.2 C 52.1 12.8 53.4 11.8 52.6 12.3 C 52.4 12.2 52.2 12.1 52.1 12.0 C 51.9 12.3 50.1 12.3 50.5 12.1 C 50.5 12.1 50.5 12.1 50.5 12.1 Z M 25.5 17.3 C 26.8 16.7 27.2 16.6 28.1 16.4 C 28.2 16.5 28.1 16.6 28.0 16.6 C 28.2 16.7 28.4 16.6 28.8 16.4 C 28.8 16.3 28.6 16.4 28.6 16.4 C 27.8 16.4 28.4 16.3 28.5 16.0 C 27.5 16.0 26.4 16.9 25.7 16.8 C 25.2 17.0 25.8 16.9 25.5 17.3 C 25.5 17.3 25.5 17.3 25.5 17.3 Z M 130.3 43.3 C 130.3 43.4 130.2 43.7 130.4 43.7 C 130.5 43.4 130.5 43.2 130.5 43.0 C 130.2 43.4 129.9 43.1 129.6 43.7 C 129.8 43.6 130.1 43.8 130.3 43.3 C 130.3 43.3 130.3 43.3 130.3 43.3 Z M 53.2 12.0 C 53.2 12.2 53.2 12.3 52.9 12.4 C 52.8 12.6 53.7 12.4 53.7 12.6 C 54.0 12.6 53.9 12.4 54.3 12.4 C 54.1 12.2 53.4 12.3 53.7 12.0 C 53.9 12.0 54.0 12.0 54.0 12.1 C 54.5 11.9 53.7 11.9 53.2 12.0 C 53.2 12.0 53.2 12.0 53.2 12.0 Z M 98.1 16.3 C 97.7 16.3 98.0 16.5 98.3 16.6 C 97.5 16.7 98.6 17.2 98.6 17.5 C 98.3 17.2 97.3 17.1 97.1 16.9 C 96.8 16.9 97.1 17.3 96.3 17.1 C 96.3 17.4 97.3 17.4 97.1 17.1 C 97.2 17.5 98.2 17.3 98.0 17.7 C 99.1 18.0 99.4 17.9 99.6 17.6 C 98.5 17.4 99.2 17.1 98.2 16.9 C 98.2 16.8 98.5 16.9 98.7 16.9 C 98.7 16.7 98.3 16.5 98.1 16.3 C 98.1 16.3 98.1 16.3 98.1 16.3 Z M 70.2 12.1 C 69.5 12.1 69.6 12.3 69.6 12.6 C 69.8 12.5 70.2 12.5 70.7 12.5 C 70.6 12.4 69.8 12.4 70.2 12.1 C 70.2 12.1 70.2 12.1 70.2 12.1 Z M 93.9 15.7 C 93.9 15.6 93.7 15.6 93.6 15.7 C 93.0 15.6 92.9 15.4 92.7 15.2 C 92.3 15.1 92.4 15.4 92.3 15.5 C 93.0 15.4 92.8 15.8 93.6 15.9 C 93.6 15.8 93.7 15.7 93.9 15.7 C 93.9 15.7 93.9 15.7 93.9 15.7 Z M 75.9 12.7 C 75.6 12.7 75.8 12.8 75.9 12.8 C 75.5 13.1 74.4 12.7 74.0 12.9 C 73.9 13.1 75.3 13.2 73.7 13.1 C 74.0 13.4 75.4 13.3 76.1 13.5 C 76.0 13.7 75.0 13.6 75.0 14.0 C 75.9 13.8 76.8 13.8 77.0 13.3 C 75.8 13.2 76.2 13.0 75.9 12.7 C 75.9 12.7 75.9 12.7 75.9 12.7 Z M 77.3 13.1 C 77.2 12.9 76.9 13.1 76.5 13.0 C 77.1 13.4 77.5 13.3 78.9 13.6 C 78.9 13.5 78.9 13.4 78.9 13.4 C 79.2 13.4 79.5 13.4 79.8 13.5 C 78.6 13.0 78.3 13.2 77.0 13.1 C 77.0 13.1 77.1 13.1 77.3 13.1 C 77.3 13.1 77.3 13.1 77.3 13.1 Z M 41.2 13.6 C 41.6 13.8 41.9 13.9 42.5 13.9 C 42.5 13.6 42.1 13.5 41.2 13.6 C 41.2 13.6 41.2 13.6 41.2 13.6 Z M 94.9 16.2 C 95.6 16.2 94.2 16.0 94.6 16.4 C 95.1 16.7 95.7 16.9 95.7 17.2 C 96.8 17.0 94.7 16.5 94.9 16.2 C 94.9 16.2 94.9 16.2 94.9 16.2 Z M 90.1 15.9 C 89.8 15.8 89.9 15.3 90.1 15.7 C 90.9 15.8 89.5 15.3 90.7 15.6 C 90.2 15.4 89.1 15.0 88.6 15.1 C 88.6 15.3 89.6 15.4 89.6 15.7 C 89.6 15.8 89.4 15.7 89.3 15.7 C 89.4 15.9 89.6 15.7 90.1 15.9 C 90.1 15.9 90.1 15.9 90.1 15.9 Z M 86.2 14.7 C 86.6 14.9 87.1 15.1 88.0 15.3 C 87.5 15.0 87.2 14.6 86.2 14.7 C 86.2 14.7 86.2 14.7 86.2 14.7 Z M 129.1 35.1 C 128.9 34.7 128.8 35.2 128.8 35.3 C 128.9 35.7 129.1 35.5 129.2 36.0 C 129.5 35.7 129.0 35.5 129.1 35.1 C 129.1 35.1 129.1 35.1 129.1 35.1 Z M 129.6 36.5 C 129.4 36.7 129.7 37.1 129.5 37.2 C 130.1 37.3 129.3 38.0 129.7 37.9 C 129.7 38.0 129.7 38.1 129.7 38.3 C 130.2 37.9 129.8 37.0 129.6 36.5 C 129.6 36.5 129.6 36.5 129.6 36.5 Z M 81.5 14.6 C 80.8 14.4 81.7 15.1 80.9 14.9 C 80.9 15.0 82.3 15.3 81.4 15.3 C 82.5 15.6 81.4 14.7 81.5 14.6 C 81.5 14.6 81.5 14.6 81.5 14.6 Z M 68.1 13.7 C 68.2 13.5 67.2 13.6 66.8 13.5 C 66.8 13.6 67.1 13.6 67.3 13.7 C 67.2 13.7 67.1 13.8 66.8 13.8 C 67.0 14.1 67.7 13.7 68.1 13.7 C 68.1 13.7 68.1 13.7 68.1 13.7 Z M 83.6 9.6 C 84.0 10.0 84.6 10.3 85.0 9.9 C 85.4 10.2 84.6 10.2 85.2 10.5 C 86.0 10.4 85.6 10.7 86.9 10.7 C 86.5 11.1 87.5 11.2 87.6 11.5 C 87.1 11.4 86.5 11.0 86.2 11.2 C 86.6 11.3 86.3 11.5 86.2 11.3 C 85.4 11.0 87.3 11.1 86.3 10.7 C 85.9 11.1 84.5 10.1 83.6 10.0 C 84.0 9.8 82.9 9.5 83.6 9.6 C 83.6 9.6 83.6 9.6 83.6 9.6 Z M 88.5 11.0 C 89.1 11.1 89.4 11.8 89.2 11.7 C 89.2 11.6 88.5 11.5 88.4 11.6 C 88.6 11.6 88.7 11.7 88.7 11.7 C 87.4 11.5 87.9 11.3 87.6 11.1 C 88.3 11.0 88.5 11.3 88.8 11.2 C 88.6 11.1 88.4 11.1 88.5 11.0 C 88.5 11.0 88.5 11.0 88.5 11.0 Z M 101.0 19.0 C 101.0 18.8 100.8 19.0 100.5 19.0 C 100.6 18.5 99.2 18.8 99.1 18.5 C 99.4 18.4 100.1 18.6 100.4 18.5 C 100.1 18.4 100.0 18.3 99.7 18.3 C 99.8 18.1 100.5 18.3 100.8 18.1 C 100.8 18.3 101.2 18.2 101.2 18.4 C 100.2 18.2 101.6 19.2 101.0 19.0 C 101.0 19.0 101.0 19.0 101.0 19.0 Z M 75.3 14.3 C 75.1 14.6 76.2 15.4 75.1 15.7 C 74.9 15.4 74.8 15.1 74.9 14.8 C 74.2 14.9 74.0 14.6 73.5 14.8 C 72.4 13.8 74.5 15.0 75.3 14.3 C 75.3 14.3 75.3 14.3 75.3 14.3 Z M 70.8 14.2 C 71.1 14.0 70.5 14.0 70.6 13.7 C 71.1 14.0 72.9 13.8 72.3 13.9 C 71.7 14.0 71.7 14.3 70.8 14.2 C 70.8 14.2 70.8 14.2 70.8 14.2 Z M 34.3 53.0 C 33.5 53.0 33.3 52.3 33.8 52.3 C 33.5 52.5 34.7 52.7 34.3 53.0 C 34.3 53.0 34.3 53.0 34.3 53.0 Z M 5.0 37.9 C 5.2 38.7 5.5 39.0 5.3 39.3 C 4.9 38.6 5.1 38.6 4.8 38.0 C 4.7 38.0 4.4 37.6 4.5 37.5 C 4.7 37.8 4.8 37.7 5.0 37.9 C 5.0 37.9 5.0 37.9 5.0 37.9 Z M 54.0 7.0 C 53.9 6.9 53.6 6.8 53.7 6.6 C 54.6 6.7 55.5 6.4 56.2 6.2 C 56.2 6.3 56.2 6.5 56.2 6.6 C 54.9 6.5 54.5 6.8 54.0 7.0 C 54.0 7.0 54.0 7.0 54.0 7.0 Z M 52.3 6.5 C 52.2 6.6 52.6 7.0 52.0 7.0 C 52.1 6.8 51.0 6.5 51.5 6.4 C 51.6 6.6 51.9 6.6 52.3 6.5 C 52.3 6.5 52.3 6.5 52.3 6.5 Z M 99.1 12.5 C 99.7 12.6 98.8 12.1 98.9 12.0 C 99.4 12.2 100.0 12.3 100.1 12.5 C 99.7 12.4 99.2 12.8 99.1 12.5 C 99.1 12.5 99.1 12.5 99.1 12.5 Z M 89.1 11.0 C 87.6 10.8 88.3 10.4 87.0 10.0 C 87.6 9.9 88.8 10.2 89.2 10.0 C 89.1 10.2 89.5 10.3 89.4 10.5 C 88.9 10.4 88.9 10.2 88.4 10.2 C 88.5 10.5 88.5 10.4 88.3 10.7 C 88.6 10.7 88.9 10.7 89.1 10.7 C 89.0 10.9 89.5 11.0 89.1 11.0 C 89.1 11.0 89.1 11.0 89.1 11.0 Z M 98.6 13.2 C 99.2 13.2 99.5 13.7 99.1 13.6 C 99.0 13.4 98.6 13.5 98.6 13.4 C 99.3 13.5 98.0 13.1 98.4 12.9 C 98.9 13.0 99.0 13.0 99.0 12.8 C 99.3 12.8 99.7 12.9 99.7 13.1 C 99.5 13.0 99.2 12.9 99.2 13.0 C 99.4 13.1 99.5 13.1 99.4 13.2 C 99.0 13.1 98.8 13.1 98.6 13.2 C 98.6 13.2 98.6 13.2 98.6 13.2 Z M 95.0 12.3 C 95.7 12.5 95.7 12.8 95.9 13.0 C 95.0 12.7 94.9 12.3 94.2 11.9 C 95.0 12.2 95.9 12.0 96.1 12.2 C 95.7 12.3 95.1 12.1 95.0 12.3 C 95.0 12.3 95.0 12.3 95.0 12.3 Z M 103.6 59.8 C 103.0 59.8 102.4 59.7 101.8 59.7 C 101.6 60.0 102.9 60.4 102.4 60.3 C 101.7 60.4 102.1 59.9 101.5 60.0 C 102.2 60.3 99.2 60.8 99.0 60.4 C 99.5 60.3 99.6 60.2 99.5 60.0 C 100.7 59.9 101.1 59.6 102.0 59.3 C 102.7 59.6 104.5 59.4 105.4 58.8 C 106.2 59.2 107.2 58.3 108.2 58.6 C 108.3 58.3 107.4 58.4 108.1 58.2 C 108.6 58.4 108.3 58.6 108.9 58.6 C 108.9 58.4 108.7 58.2 109.0 58.1 C 109.0 58.3 109.4 58.2 109.6 58.3 C 108.3 58.6 109.8 58.7 108.8 59.0 C 108.3 59.0 109.1 58.4 107.9 58.7 C 107.5 58.9 107.2 59.1 107.3 59.4 C 107.0 59.4 106.8 59.5 106.6 59.6 C 107.0 59.2 105.0 60.1 105.8 59.5 C 105.9 59.5 106.6 59.4 107.0 59.1 C 106.5 58.9 106.1 59.2 105.3 59.5 C 105.0 59.3 105.4 59.2 105.0 59.2 C 104.4 59.5 105.3 59.6 104.9 59.8 C 105.1 59.8 105.4 59.7 105.4 59.8 C 104.3 59.7 103.9 60.1 103.4 60.2 C 103.7 59.9 102.7 60.0 103.6 59.8 C 103.6 59.8 103.6 59.8 103.6 59.8 Z M 112.1 57.4 C 112.3 57.3 112.5 57.3 112.8 57.2 C 112.9 57.5 112.0 57.8 112.7 57.9 C 111.7 58.1 112.6 57.5 112.1 57.4 C 112.1 57.4 112.1 57.4 112.1 57.4 Z M 107.2 57.6 C 106.8 57.3 107.1 58.0 106.8 58.1 C 107.4 57.9 107.9 57.6 108.0 58.0 C 107.3 58.0 107.0 58.1 106.3 58.4 C 106.9 57.8 105.5 58.2 105.2 57.9 C 105.8 57.7 106.1 57.5 106.9 57.3 C 106.8 57.5 107.8 57.3 107.2 57.6 C 107.2 57.6 107.2 57.6 107.2 57.6 Z M 109.0 56.7 C 109.1 56.9 110.1 56.4 110.0 56.9 C 109.4 57.0 109.1 57.1 109.4 57.3 C 108.9 57.5 108.8 57.4 108.4 57.5 C 108.1 57.2 108.8 57.0 109.0 56.8 C 108.8 56.8 108.7 56.8 109.0 56.7 C 109.0 56.7 109.0 56.7 109.0 56.7 Z M 126.8 46.2 C 127.2 46.3 126.5 46.8 126.3 46.8 C 126.7 46.9 126.6 47.0 126.3 47.5 C 126.2 47.0 125.6 47.7 124.9 47.7 C 125.0 48.0 125.6 47.6 125.0 48.2 C 124.4 48.5 124.1 49.0 123.2 49.6 C 122.8 49.4 123.2 49.1 123.3 48.9 C 122.8 49.3 122.8 49.0 122.3 49.3 C 122.5 49.4 122.2 49.7 121.9 49.6 C 122.7 49.0 120.6 49.9 121.4 49.3 C 121.5 49.4 121.7 49.2 121.9 49.1 C 121.9 49.6 122.9 48.8 123.3 48.8 C 123.3 47.9 124.5 47.4 125.7 46.8 C 125.9 46.9 125.6 47.2 125.9 47.0 C 125.8 46.9 126.2 46.6 126.2 46.4 C 126.3 46.6 126.5 46.5 126.8 46.4 C 126.7 46.3 126.7 46.3 126.8 46.2 C 126.8 46.2 126.8 46.2 126.8 46.2 Z M 59.2 57.3 C 59.3 56.8 57.6 56.8 57.1 56.9 C 57.2 56.4 60.3 56.9 59.2 57.3 C 59.2 57.3 59.2 57.3 59.2 57.3 Z M 69.9 57.9 C 69.5 57.9 69.8 58.2 69.4 58.2 C 69.4 57.9 68.3 58.4 68.3 58.1 C 68.8 57.9 69.1 57.9 69.9 57.9 C 69.9 57.9 69.9 57.9 69.9 57.9 Z M 79.8 58.3 C 79.0 58.4 80.3 58.5 80.1 58.6 C 79.4 58.6 78.7 58.6 78.7 58.3 C 79.4 58.5 79.8 58.1 79.8 58.3 C 79.8 58.3 79.8 58.3 79.8 58.3 Z M 65.0 57.2 C 64.4 57.1 65.5 56.8 65.6 57.0 C 64.9 57.0 66.1 57.3 66.7 57.3 C 66.6 57.7 66.4 57.6 66.6 57.9 C 65.7 58.0 66.5 57.5 65.8 57.5 C 65.4 57.7 65.8 57.6 65.8 57.9 C 65.5 57.9 65.3 57.9 65.0 57.8 C 65.0 57.7 65.0 57.5 65.0 57.3 C 65.4 57.4 65.7 57.4 65.6 57.2 C 65.3 57.2 65.3 57.2 65.0 57.2 C 65.0 57.2 65.0 57.2 65.0 57.2 Z M 114.0 52.6 C 113.4 52.8 113.9 52.8 114.4 52.7 C 114.4 52.5 114.5 51.9 115.2 52.0 C 114.0 52.6 115.7 52.2 115.1 52.6 C 114.7 52.5 114.0 53.1 113.4 53.2 C 113.1 53.1 113.6 52.5 114.0 52.6 C 114.0 52.6 114.0 52.6 114.0 52.6 Z M 116.3 52.0 C 116.2 51.9 116.0 52.0 115.6 52.1 C 115.9 51.7 115.4 51.9 115.8 51.6 C 115.8 51.8 117.4 51.2 116.5 51.7 C 115.6 51.8 116.8 51.7 117.2 51.6 C 116.8 51.7 116.2 52.4 116.0 52.2 C 116.2 52.1 116.4 52.0 116.3 52.0 C 116.3 52.0 116.3 52.0 116.3 52.0 Z M 128.4 42.8 C 128.3 42.7 128.2 42.9 128.0 43.0 C 128.5 42.3 128.7 41.8 128.9 41.5 C 128.8 41.8 129.0 41.9 129.2 41.7 C 128.9 42.0 129.1 42.2 128.9 42.2 C 128.8 41.8 128.7 42.4 128.4 42.8 C 128.4 42.8 128.4 42.8 128.4 42.8 Z M 128.4 42.8 " fill="#C43100"></path></g></svg>