<?xml version="1.0" encoding="UTF-8" standalone="no"?><svg xmlns="http://www.w3.org/2000/svg" xmlns:xlink="http://www.w3.org/1999/xlink" clip-rule="evenodd" stroke-miterlimit="10" viewBox="0 0 543 76"><desc>SVG generated by Keynote</desc><defs></defs><g transform="matrix(1.00, 0.00, -0.00, -1.00, 0.0, 76.0)"><text xml:space="preserve" font-family="HelveticaNeue-Thin,Helvetica Neue" font-size="100.0" fill="#EBEAE9" transform="matrix(1.00, 0.00, -0.00, -1.00, -3.6, 2.3)">D</text><text xml:space="preserve" font-family="HelveticaNeue-Thin,Helvetica Neue" font-size="100.0" fill="#EBEAE9" transform="matrix(1.00, 0.00, -0.00, -1.00, 63.1, 2.3)">a</text><text xml:space="preserve" font-family="HelveticaNeue-Thin,Helvetica Neue" font-size="100.0" fill="#EBEAE9" transform="matrix(1.00, 0.00, -0.00, -1.00, 113.1, 2.3)">t</text><text xml:space="preserve" font-family="HelveticaNeue-Thin,Helvetica Neue" font-size="100.0" fill="#EBEAE9" transform="matrix(1.00, 0.00, -0.00, -1.00, 139.0, 2.3)">a</text><text xml:space="preserve" font-family="HelveticaNeue-Thin,Helvetica Neue" font-size="100.0" fill="#EBEAE9" transform="matrix(1.00, 0.00, -0.00, -1.00, 189.0, 2.3)"> </text><text xml:space="preserve" font-family="HelveticaNeue-Thin,Helvetica Neue" font-size="100.0" fill="#EBEAE9" transform="matrix(1.00, 0.00, -0.00, -1.00, 216.8, 2.3)">i</text><text xml:space="preserve" font-family="HelveticaNeue-Thin,Helvetica Neue" font-size="100.0" fill="#EBEAE9" transform="matrix(1.00, 0.00, -0.00, -1.00, 233.6, 2.3)">s</text><text xml:space="preserve" font-family="HelveticaNeue-Thin,Helvetica Neue" font-size="100.0" fill="#EBEAE9" transform="matrix(1.00, 0.00, -0.00, -1.00, 281.7, 2.3)"> </text><text xml:space="preserve" font-family="HelveticaNeue-Thin,Helvetica Neue" font-size="100.0" fill="#EBEAE9" transform="matrix(1.00, 0.00, -0.00, -1.00, 309.5, 2.3)">l</text><text xml:space="preserve" font-family="HelveticaNeue-Thin,Helvetica Neue" font-size="100.0" fill="#EBEAE9" transform="matrix(1.00, 0.00, -0.00, -1.00, 326.3, 2.3)">i</text><text xml:space="preserve" font-family="HelveticaNeue-Thin,Helvetica Neue" font-size="100.0" fill="#EBEAE9" transform="matrix(1.00, 0.00, -0.00, -1.00, 343.1, 2.3)">n</text><text xml:space="preserve" font-family="HelveticaNeue-Thin,Helvetica Neue" font-size="100.0" fill="#EBEAE9" transform="matrix(1.00, 0.00, -0.00, -1.00, 395.0, 2.3)">k</text><text xml:space="preserve" font-family="HelveticaNeue-Thin,Helvetica Neue" font-size="100.0" fill="#EBEAE9" transform="matrix(1.00, 0.00, -0.00, -1.00, 440.1, 2.3)">e</text><text xml:space="preserve" font-family="HelveticaNeue-Thin,Helvetica Neue" font-size="100.0" fill="#EBEAE9" transform="matrix(1.00, 0.00, -0.00, -1.00, 492.0, 2.3)">d</text></g></svg>