<?xml version="1.0" encoding="UTF-8" standalone="no"?><svg xmlns="http://www.w3.org/2000/svg" xmlns:xlink="http://www.w3.org/1999/xlink" clip-rule="evenodd" stroke-miterlimit="10" viewBox="0 0 1280 800"><desc>SVG generated by Keynote</desc><defs></defs><g transform="matrix(1.00, 0.00, -0.00, -1.00, 0.0, 800.0)"><path d="M 0.0 800.0 L 1280.0 800.0 L 1280.0 0.0 L 0.0 0.0 Z M 0.0 800.0 " fill="#BBB9B4"></path><g opacity="0.15"><g><clipPath id="clip0x6080016ab2e0"><path d="M -46.0 845.0 L 1430.0 845.0 L 1430.0 -262.0 L -46.0 -262.0 Z M -46.5 845.1 "></path></clipPath><g clip-path="url(#clip0x6080016ab2e0)"><g><clipPath id="clip0x608001cbca40"><path d="M 0.0 0.0 L 1280.0 0.0 L 1280.0 800.0 L 0.0 800.0 Z M 0.0 0.0 "></path></clipPath><g clip-path="url(#clip0x608001cbca40)"><image xlink:href="../../9A1A9369-402D-4E0D-9D44-025F29226752/assets/E60B5EC3707FA5AE89575DEE9E797EB2.jpeg" width="1280.00" height="960.00" transform="matrix(1.15, 0.00, -0.00, -1.15, -46.0, 845.0)"></image></g></g></g></g></g><text xml:space="preserve" font-family="HelveticaNeue-Thin,Helvetica Neue" font-size="128.0" fill="#EBEAE9" transform="matrix(1.00, 0.00, -0.00, -1.00, 34.4, 351.6)">W</text><text xml:space="preserve" font-family="HelveticaNeue-Thin,Helvetica Neue" font-size="128.0" fill="#EBEAE9" transform="matrix(1.00, 0.00, -0.00, -1.00, 148.2, 351.6)">h</text><text xml:space="preserve" font-family="HelveticaNeue-Thin,Helvetica Neue" font-size="128.0" fill="#EBEAE9" transform="matrix(1.00, 0.00, -0.00, -1.00, 214.7, 351.6)">e</text><text xml:space="preserve" font-family="HelveticaNeue-Thin,Helvetica Neue" font-size="128.0" fill="#EBEAE9" transform="matrix(1.00, 0.00, -0.00, -1.00, 281.1, 351.6)">r</text><text xml:space="preserve" font-family="HelveticaNeue-Thin,Helvetica Neue" font-size="128.0" fill="#EBEAE9" transform="matrix(1.00, 0.00, -0.00, -1.00, 315.1, 351.6)">e</text><text xml:space="preserve" font-family="HelveticaNeue-Thin,Helvetica Neue" font-size="128.0" fill="#EBEAE9" transform="matrix(1.00, 0.00, -0.00, -1.00, 381.6, 351.6)"> </text><text xml:space="preserve" font-family="HelveticaNeue-Thin,Helvetica Neue" font-size="128.0" fill="#EBEAE9" transform="matrix(1.00, 0.00, -0.00, -1.00, 417.2, 351.6)">d</text><text xml:space="preserve" font-family="HelveticaNeue-Thin,Helvetica Neue" font-size="128.0" fill="#EBEAE9" transform="matrix(1.00, 0.00, -0.00, -1.00, 488.3, 351.6)">o</text><text xml:space="preserve" font-family="HelveticaNeue-Thin,Helvetica Neue" font-size="128.0" fill="#EBEAE9" transform="matrix(1.00, 0.00, -0.00, -1.00, 557.1, 351.6)"> </text><text xml:space="preserve" font-family="HelveticaNeue-Thin,Helvetica Neue" font-size="128.0" fill="#EBEAE9" transform="matrix(1.00, 0.00, -0.00, -1.00, 592.6, 351.6)">w</text><text xml:space="preserve" font-family="HelveticaNeue-Thin,Helvetica Neue" font-size="128.0" fill="#EBEAE9" transform="matrix(1.00, 0.00, -0.00, -1.00, 682.8, 351.6)">e</text><text xml:space="preserve" font-family="HelveticaNeue-Thin,Helvetica Neue" font-size="128.0" fill="#EBEAE9" transform="matrix(1.00, 0.00, -0.00, -1.00, 749.2, 351.6)"> </text><text xml:space="preserve" font-family="HelveticaNeue-Thin,Helvetica Neue" font-size="128.0" fill="#EBEAE9" transform="matrix(1.00, 0.00, -0.00, -1.00, 784.8, 351.6)">g</text><text xml:space="preserve" font-family="HelveticaNeue-Thin,Helvetica Neue" font-size="128.0" fill="#EBEAE9" transform="matrix(1.00, 0.00, -0.00, -1.00, 853.5, 351.6)">o</text><text xml:space="preserve" font-family="HelveticaNeue-Thin,Helvetica Neue" font-size="128.0" fill="#EBEAE9" transform="matrix(1.00, 0.00, -0.00, -1.00, 922.2, 351.6)"> </text><text xml:space="preserve" font-family="HelveticaNeue-Thin,Helvetica Neue" font-size="128.0" fill="#EBEAE9" transform="matrix(1.00, 0.00, -0.00, -1.00, 957.8, 351.6)">n</text><text xml:space="preserve" font-family="HelveticaNeue-Thin,Helvetica Neue" font-size="128.0" fill="#EBEAE9" transform="matrix(1.00, 0.00, -0.00, -1.00, 1024.3, 351.6)">e</text><text xml:space="preserve" font-family="HelveticaNeue-Thin,Helvetica Neue" font-size="128.0" fill="#EBEAE9" transform="matrix(1.00, 0.00, -0.00, -1.00, 1089.2, 351.6)">x</text><text xml:space="preserve" font-family="HelveticaNeue-Thin,Helvetica Neue" font-size="128.0" fill="#EBEAE9" transform="matrix(1.00, 0.00, -0.00, -1.00, 1146.0, 351.6)">t</text><text xml:space="preserve" font-family="HelveticaNeue-Thin,Helvetica Neue" font-size="128.0" fill="#EBEAE9" transform="matrix(1.00, 0.00, -0.00, -1.00, 1179.1, 351.6)">?</text><text xml:space="preserve" font-family="HelveticaNeue-Light,Helvetica Neue" font-size="21.0" fill="#5A5A5A" transform="matrix(1.00, 0.00, -0.00, -1.00, 778.9, 16.5)">C</text><text xml:space="preserve" font-family="HelveticaNeue-Light,Helvetica Neue" font-size="21.0" fill="#5A5A5A" transform="matrix(1.00, 0.00, -0.00, -1.00, 793.6, 16.5)">o</text><text xml:space="preserve" font-family="HelveticaNeue-Light,Helvetica Neue" font-size="21.0" fill="#5A5A5A" transform="matrix(1.00, 0.00, -0.00, -1.00, 805.3, 16.5)">m</text><text xml:space="preserve" font-family="HelveticaNeue-Light,Helvetica Neue" font-size="21.0" fill="#5A5A5A" transform="matrix(1.00, 0.00, -0.00, -1.00, 822.8, 16.5)">p</text><text xml:space="preserve" font-family="HelveticaNeue-Light,Helvetica Neue" font-size="21.0" fill="#5A5A5A" transform="matrix(1.00, 0.00, -0.00, -1.00, 834.9, 16.5)">a</text><text xml:space="preserve" font-family="HelveticaNeue-Light,Helvetica Neue" font-size="21.0" fill="#5A5A5A" transform="matrix(1.00, 0.00, -0.00, -1.00, 845.8, 16.5)">s</text><text xml:space="preserve" font-family="HelveticaNeue-Light,Helvetica Neue" font-size="21.0" fill="#5A5A5A" transform="matrix(1.00, 0.00, -0.00, -1.00, 855.9, 16.5)">s</text><text xml:space="preserve" font-family="HelveticaNeue-Light,Helvetica Neue" font-size="21.0" fill="#5A5A5A" transform="matrix(1.00, 0.00, -0.00, -1.00, 866.0, 16.5)"> </text><text xml:space="preserve" font-family="HelveticaNeue-Light,Helvetica Neue" font-size="21.0" fill="#5A5A5A" transform="matrix(1.00, 0.00, -0.00, -1.00, 871.8, 16.5)">R</text><text xml:space="preserve" font-family="HelveticaNeue-Light,Helvetica Neue" font-size="21.0" fill="#5A5A5A" transform="matrix(1.00, 0.00, -0.00, -1.00, 885.8, 16.5)">o</text><text xml:space="preserve" font-family="HelveticaNeue-Light,Helvetica Neue" font-size="21.0" fill="#5A5A5A" transform="matrix(1.00, 0.00, -0.00, -1.00, 897.5, 16.5)">s</text><text xml:space="preserve" font-family="HelveticaNeue-Light,Helvetica Neue" font-size="21.0" fill="#5A5A5A" transform="matrix(1.00, 0.00, -0.00, -1.00, 907.6, 16.5)">e</text><text xml:space="preserve" font-family="HelveticaNeue-Light,Helvetica Neue" font-size="21.0" fill="#5A5A5A" transform="matrix(1.00, 0.00, -0.00, -1.00, 918.5, 16.5)"> </text><text xml:space="preserve" font-family="HelveticaNeue-Light,Helvetica Neue" font-size="21.0" fill="#5A5A5A" transform="matrix(1.00, 0.00, -0.00, -1.00, 924.3, 16.5)">J</text><text xml:space="preserve" font-family="HelveticaNeue-Light,Helvetica Neue" font-size="21.0" fill="#5A5A5A" transform="matrix(1.00, 0.00, -0.00, -1.00, 934.8, 16.5)">u</text><text xml:space="preserve" font-family="HelveticaNeue-Light,Helvetica Neue" font-size="21.0" fill="#5A5A5A" transform="matrix(1.00, 0.00, -0.00, -1.00, 946.1, 16.5)">s</text><text xml:space="preserve" font-family="HelveticaNeue-Light,Helvetica Neue" font-size="21.0" fill="#5A5A5A" transform="matrix(1.00, 0.00, -0.00, -1.00, 956.2, 16.5)">t</text><text xml:space="preserve" font-family="HelveticaNeue-Light,Helvetica Neue" font-size="21.0" fill="#5A5A5A" transform="matrix(1.00, 0.00, -0.00, -1.00, 962.4, 16.5)">i</text><text xml:space="preserve" font-family="HelveticaNeue-Light,Helvetica Neue" font-size="21.0" fill="#5A5A5A" transform="matrix(1.00, 0.00, -0.00, -1.00, 966.3, 16.5)">n</text><text xml:space="preserve" font-family="HelveticaNeue-Light,Helvetica Neue" font-size="21.0" fill="#5A5A5A" transform="matrix(1.00, 0.00, -0.00, -1.00, 977.6, 16.5)"> </text><text xml:space="preserve" font-family="HelveticaNeue-Light,Helvetica Neue" font-size="21.0" fill="#5A5A5A" transform="matrix(1.00, 0.00, -0.00, -1.00, 983.4, 16.5)">P</text><text xml:space="preserve" font-family="HelveticaNeue-Light,Helvetica Neue" font-size="21.0" fill="#5A5A5A" transform="matrix(1.00, 0.00, -0.00, -1.00, 996.7, 16.5)">i</text><text xml:space="preserve" font-family="HelveticaNeue-Light,Helvetica Neue" font-size="21.0" fill="#5A5A5A" transform="matrix(1.00, 0.00, -0.00, -1.00, 1000.5, 16.5)">c</text><text xml:space="preserve" font-family="HelveticaNeue-Light,Helvetica Neue" font-size="21.0" fill="#5A5A5A" transform="matrix(1.00, 0.00, -0.00, -1.00, 1011.4, 16.5)">k</text><text xml:space="preserve" font-family="HelveticaNeue-Light,Helvetica Neue" font-size="21.0" fill="#5A5A5A" transform="matrix(1.00, 0.00, -0.00, -1.00, 1021.9, 16.5)">a</text><text xml:space="preserve" font-family="HelveticaNeue-Light,Helvetica Neue" font-size="21.0" fill="#5A5A5A" transform="matrix(1.00, 0.00, -0.00, -1.00, 1032.8, 16.5)">r</text><text xml:space="preserve" font-family="HelveticaNeue-Light,Helvetica Neue" font-size="21.0" fill="#5A5A5A" transform="matrix(1.00, 0.00, -0.00, -1.00, 1039.1, 16.5)">d</text><text xml:space="preserve" font-family="HelveticaNeue-Light,Helvetica Neue" font-size="21.0" fill="#5A5A5A" transform="matrix(1.00, 0.00, -0.00, -1.00, 1051.1, 16.5)"> </text><text xml:space="preserve" font-family="HelveticaNeue-Light,Helvetica Neue" font-size="21.0" fill="#5A5A5A" transform="matrix(1.00, 0.00, -0.00, -1.00, 1057.0, 16.5)">i</text><text xml:space="preserve" font-family="HelveticaNeue-Light,Helvetica Neue" font-size="21.0" fill="#5A5A5A" transform="matrix(1.00, 0.00, -0.00, -1.00, 1060.9, 16.5)">n</text><text xml:space="preserve" font-family="HelveticaNeue-Light,Helvetica Neue" font-size="21.0" fill="#5A5A5A" transform="matrix(1.00, 0.00, -0.00, -1.00, 1072.1, 16.5)"> </text><text xml:space="preserve" font-family="HelveticaNeue-Light,Helvetica Neue" font-size="21.0" fill="#5A5A5A" transform="matrix(1.00, 0.00, -0.00, -1.00, 1078.0, 16.5)">F</text><text xml:space="preserve" font-family="HelveticaNeue-Light,Helvetica Neue" font-size="21.0" fill="#5A5A5A" transform="matrix(1.00, 0.00, -0.00, -1.00, 1089.2, 16.5)">l</text><text xml:space="preserve" font-family="HelveticaNeue-Light,Helvetica Neue" font-size="21.0" fill="#5A5A5A" transform="matrix(1.00, 0.00, -0.00, -1.00, 1093.1, 16.5)">i</text><text xml:space="preserve" font-family="HelveticaNeue-Light,Helvetica Neue" font-size="21.0" fill="#5A5A5A" transform="matrix(1.00, 0.00, -0.00, -1.00, 1097.0, 16.5)">c</text><text xml:space="preserve" font-family="HelveticaNeue-Light,Helvetica Neue" font-size="21.0" fill="#5A5A5A" transform="matrix(1.00, 0.00, -0.00, -1.00, 1107.9, 16.5)">k</text><text xml:space="preserve" font-family="HelveticaNeue-Light,Helvetica Neue" font-size="21.0" fill="#5A5A5A" transform="matrix(1.00, 0.00, -0.00, -1.00, 1118.4, 16.5)">r</text><text xml:space="preserve" font-family="HelveticaNeue-Light,Helvetica Neue" font-size="21.0" fill="#5A5A5A" transform="matrix(1.00, 0.00, -0.00, -1.00, 1125.0, 16.5)"> </text><text xml:space="preserve" font-family="HelveticaNeue-Light,Helvetica Neue" font-size="21.0" fill="#5A5A5A" transform="matrix(1.00, 0.00, -0.00, -1.00, 1130.9, 16.5)">C</text><text xml:space="preserve" font-family="HelveticaNeue-Light,Helvetica Neue" font-size="21.0" fill="#5A5A5A" transform="matrix(1.00, 0.00, -0.00, -1.00, 1145.6, 16.5)">C</text><text xml:space="preserve" font-family="HelveticaNeue-Light,Helvetica Neue" font-size="21.0" fill="#5A5A5A" transform="matrix(1.00, 0.00, -0.00, -1.00, 1160.4, 16.5)"> </text><text xml:space="preserve" font-family="HelveticaNeue-Light,Helvetica Neue" font-size="21.0" fill="#5A5A5A" transform="matrix(1.00, 0.00, -0.00, -1.00, 1166.3, 16.5)">B</text><text xml:space="preserve" font-family="HelveticaNeue-Light,Helvetica Neue" font-size="21.0" fill="#5A5A5A" transform="matrix(1.00, 0.00, -0.00, -1.00, 1180.3, 16.5)">Y</text><text xml:space="preserve" font-family="HelveticaNeue-Light,Helvetica Neue" font-size="21.0" fill="#5A5A5A" transform="matrix(1.00, 0.00, -0.00, -1.00, 1190.8, 16.5)">-</text><text xml:space="preserve" font-family="HelveticaNeue-Light,Helvetica Neue" font-size="21.0" fill="#5A5A5A" transform="matrix(1.00, 0.00, -0.00, -1.00, 1198.5, 16.5)">S</text><text xml:space="preserve" font-family="HelveticaNeue-Light,Helvetica Neue" font-size="21.0" fill="#5A5A5A" transform="matrix(1.00, 0.00, -0.00, -1.00, 1211.8, 16.5)">A</text><text xml:space="preserve" font-family="HelveticaNeue-Light,Helvetica Neue" font-size="21.0" fill="#5A5A5A" transform="matrix(1.00, 0.00, -0.00, -1.00, 1225.0, 16.5)"> </text><text xml:space="preserve" font-family="HelveticaNeue-Light,Helvetica Neue" font-size="21.0" fill="#5A5A5A" transform="matrix(1.00, 0.00, -0.00, -1.00, 1230.8, 16.5)">2</text><text xml:space="preserve" font-family="HelveticaNeue-Light,Helvetica Neue" font-size="21.0" fill="#5A5A5A" transform="matrix(1.00, 0.00, -0.00, -1.00, 1242.5, 16.5)">.</text><text xml:space="preserve" font-family="HelveticaNeue-Light,Helvetica Neue" font-size="21.0" fill="#5A5A5A" transform="matrix(1.00, 0.00, -0.00, -1.00, 1248.4, 16.5)">0</text></g></svg>