<?xml version="1.0" encoding="UTF-8" standalone="no"?><svg xmlns="http://www.w3.org/2000/svg" xmlns:xlink="http://www.w3.org/1999/xlink" clip-rule="evenodd" stroke-miterlimit="10" viewBox="0 0 869 94"><desc>SVG generated by Keynote</desc><defs></defs><g transform="matrix(1.00, 0.00, -0.00, -1.00, 0.0, 94.0)"><text xml:space="preserve" font-family="HelveticaNeue-Thin,Helvetica Neue" font-size="100.0" fill="#EBEAE9" transform="matrix(1.00, 0.00, -0.00, -1.00, -0.5, 20.3)">a</text><text xml:space="preserve" font-family="HelveticaNeue-Thin,Helvetica Neue" font-size="100.0" fill="#EBEAE9" transform="matrix(1.00, 0.00, -0.00, -1.00, 49.5, 20.3)">n</text><text xml:space="preserve" font-family="HelveticaNeue-Thin,Helvetica Neue" font-size="100.0" fill="#EBEAE9" transform="matrix(1.00, 0.00, -0.00, -1.00, 101.4, 20.3)">d</text><text xml:space="preserve" font-family="HelveticaNeue-Thin,Helvetica Neue" font-size="100.0" fill="#EBEAE9" transform="matrix(1.00, 0.00, -0.00, -1.00, 157.0, 20.3)"> </text><text xml:space="preserve" font-family="HelveticaNeue-Thin,Helvetica Neue" font-size="100.0" fill="#EBEAE9" transform="matrix(1.00, 0.00, -0.00, -1.00, 184.8, 20.3)">u</text><text xml:space="preserve" font-family="HelveticaNeue-Thin,Helvetica Neue" font-size="100.0" fill="#EBEAE9" transform="matrix(1.00, 0.00, -0.00, -1.00, 236.7, 20.3)">s</text><text xml:space="preserve" font-family="HelveticaNeue-Thin,Helvetica Neue" font-size="100.0" fill="#EBEAE9" transform="matrix(1.00, 0.00, -0.00, -1.00, 284.8, 20.3)">e</text><text xml:space="preserve" font-family="HelveticaNeue-Thin,Helvetica Neue" font-size="100.0" fill="#EBEAE9" transform="matrix(1.00, 0.00, -0.00, -1.00, 336.7, 20.3)">d</text><text xml:space="preserve" font-family="HelveticaNeue-Thin,Helvetica Neue" font-size="100.0" fill="#EBEAE9" transform="matrix(1.00, 0.00, -0.00, -1.00, 392.3, 20.3)"> </text><text xml:space="preserve" font-family="HelveticaNeue-Thin,Helvetica Neue" font-size="100.0" fill="#EBEAE9" transform="matrix(1.00, 0.00, -0.00, -1.00, 420.1, 20.3)">i</text><text xml:space="preserve" font-family="HelveticaNeue-Thin,Helvetica Neue" font-size="100.0" fill="#EBEAE9" transform="matrix(1.00, 0.00, -0.00, -1.00, 436.9, 20.3)">n</text><text xml:space="preserve" font-family="HelveticaNeue-Thin,Helvetica Neue" font-size="100.0" fill="#EBEAE9" transform="matrix(1.00, 0.00, -0.00, -1.00, 488.8, 20.3)"> </text><text xml:space="preserve" font-family="HelveticaNeue-Thin,Helvetica Neue" font-size="100.0" fill="#EBEAE9" transform="matrix(1.00, 0.00, -0.00, -1.00, 516.6, 20.3)">a</text><text xml:space="preserve" font-family="HelveticaNeue-Thin,Helvetica Neue" font-size="100.0" fill="#EBEAE9" transform="matrix(1.00, 0.00, -0.00, -1.00, 566.6, 20.3)">n</text><text xml:space="preserve" font-family="HelveticaNeue-Thin,Helvetica Neue" font-size="100.0" fill="#EBEAE9" transform="matrix(1.00, 0.00, -0.00, -1.00, 618.5, 20.3)">y</text><text xml:space="preserve" font-family="HelveticaNeue-Thin,Helvetica Neue" font-size="100.0" fill="#EBEAE9" transform="matrix(1.00, 0.00, -0.00, -1.00, 662.9, 20.3)"> </text><text xml:space="preserve" font-family="HelveticaNeue-Thin,Helvetica Neue" font-size="100.0" fill="#EBEAE9" transform="matrix(1.00, 0.00, -0.00, -1.00, 690.7, 20.3)">w</text><text xml:space="preserve" font-family="HelveticaNeue-Thin,Helvetica Neue" font-size="100.0" fill="#EBEAE9" transform="matrix(1.00, 0.00, -0.00, -1.00, 761.1, 20.3)">a</text><text xml:space="preserve" font-family="HelveticaNeue-Thin,Helvetica Neue" font-size="100.0" fill="#EBEAE9" transform="matrix(1.00, 0.00, -0.00, -1.00, 811.1, 20.3)">y</text><text xml:space="preserve" font-family="HelveticaNeue-Thin,Helvetica Neue" font-size="100.0" fill="#EBEAE9" transform="matrix(1.00, 0.00, -0.00, -1.00, 850.7, 20.3)">.</text></g></svg>