<?xml version="1.0" encoding="UTF-8" standalone="no"?><svg xmlns="http://www.w3.org/2000/svg" xmlns:xlink="http://www.w3.org/1999/xlink" clip-rule="evenodd" stroke-miterlimit="10" viewBox="0 0 1024 768"><desc>SVG generated by Keynote</desc><defs></defs><g transform="matrix(1.00, 0.00, -0.00, -1.00, 0.0, 768.0)"><path d="M 0.0 768.0 L 1024.0 768.0 L 1024.0 0.0 L 0.0 0.0 Z M 0.0 768.0 " fill="#000000"></path><image xlink:href="../../548A0B97-6A05-4F0C-8411-8ADE81FD4E57/assets/07EFA1591DBE968AA30DEF3BC05B55A5.png" width="643.00" height="500.00" transform="matrix(1.00, 0.00, -0.00, -1.00, 190.4, 666.7)" opacity="0.50"></image><image xlink:href="../../548A0B97-6A05-4F0C-8411-8ADE81FD4E57/assets/0A42EE4C6962599A524C2E10FC6B1226.png" width="1284.00" height="994.00" transform="matrix(0.49, 0.00, -0.00, -0.49, 195.0, 664.0)"></image><text xml:space="preserve" font-family="AvenirNext-Regular,Avenir Next" font-size="24.0" fill="#FEFFFF" transform="matrix(1.00, 0.00, -0.00, -1.00, 199.0, 78.3)">c</text><text xml:space="preserve" font-family="AvenirNext-Regular,Avenir Next" font-size="24.0" fill="#FEFFFF" transform="matrix(1.00, 0.00, -0.00, -1.00, 211.0, 78.3)">u</text><text xml:space="preserve" font-family="AvenirNext-Regular,Avenir Next" font-size="24.0" fill="#FEFFFF" transform="matrix(1.00, 0.00, -0.00, -1.00, 224.9, 78.3)">r</text><text xml:space="preserve" font-family="AvenirNext-Regular,Avenir Next" font-size="24.0" fill="#FEFFFF" transform="matrix(1.00, 0.00, -0.00, -1.00, 233.3, 78.3)">a</text><text xml:space="preserve" font-family="AvenirNext-Regular,Avenir Next" font-size="24.0" fill="#FEFFFF" transform="matrix(1.00, 0.00, -0.00, -1.00, 245.9, 78.3)">t</text><text xml:space="preserve" font-family="AvenirNext-Regular,Avenir Next" font-size="24.0" fill="#FEFFFF" transform="matrix(1.00, 0.00, -0.00, -1.00, 253.5, 78.3)">i</text><text xml:space="preserve" font-family="AvenirNext-Regular,Avenir Next" font-size="24.0" fill="#FEFFFF" transform="matrix(1.00, 0.00, -0.00, -1.00, 259.5, 78.3)">n</text><text xml:space="preserve" font-family="AvenirNext-Regular,Avenir Next" font-size="24.0" fill="#FEFFFF" transform="matrix(1.00, 0.00, -0.00, -1.00, 273.4, 78.3)">g</text><text xml:space="preserve" font-family="AvenirNext-Regular,Avenir Next" font-size="24.0" fill="#FEFFFF" transform="matrix(1.00, 0.00, -0.00, -1.00, 288.6, 78.3)">m</text><text xml:space="preserve" font-family="AvenirNext-Regular,Avenir Next" font-size="24.0" fill="#FEFFFF" transform="matrix(1.00, 0.00, -0.00, -1.00, 309.8, 78.3)">e</text><text xml:space="preserve" font-family="AvenirNext-Regular,Avenir Next" font-size="24.0" fill="#FEFFFF" transform="matrix(1.00, 0.00, -0.00, -1.00, 323.5, 78.3)">n</text><text xml:space="preserve" font-family="AvenirNext-Regular,Avenir Next" font-size="24.0" fill="#FEFFFF" transform="matrix(1.00, 0.00, -0.00, -1.00, 337.4, 78.3)">u</text><text xml:space="preserve" font-family="AvenirNext-Regular,Avenir Next" font-size="24.0" fill="#FEFFFF" transform="matrix(1.00, 0.00, -0.00, -1.00, 351.4, 78.3)">s</text><text xml:space="preserve" font-family="AvenirNext-Regular,Avenir Next" font-size="24.0" fill="#FEFFFF" transform="matrix(1.00, 0.00, -0.00, -1.00, 362.0, 78.3)">.</text><text xml:space="preserve" font-family="AvenirNext-Regular,Avenir Next" font-size="24.0" fill="#FEFFFF" transform="matrix(1.00, 0.00, -0.00, -1.00, 368.3, 78.3)">o</text><text xml:space="preserve" font-family="AvenirNext-Regular,Avenir Next" font-size="24.0" fill="#FEFFFF" transform="matrix(1.00, 0.00, -0.00, -1.00, 382.9, 78.3)">r</text><text xml:space="preserve" font-family="AvenirNext-Regular,Avenir Next" font-size="24.0" fill="#FEFFFF" transform="matrix(1.00, 0.00, -0.00, -1.00, 391.1, 78.3)">g</text><text xml:space="preserve" font-family="AvenirNext-Regular,Avenir Next" font-size="24.0" fill="#FEFFFF" transform="matrix(1.00, 0.00, -0.00, -1.00, 406.3, 78.3)"> </text><text xml:space="preserve" font-family="AvenirNext-Regular,Avenir Next" font-size="24.0" fill="#FEFFFF" transform="matrix(1.00, 0.00, -0.00, -1.00, 412.3, 78.3)">b</text><text xml:space="preserve" font-family="AvenirNext-Regular,Avenir Next" font-size="24.0" fill="#FEFFFF" transform="matrix(1.00, 0.00, -0.00, -1.00, 427.6, 78.3)">y</text><text xml:space="preserve" font-family="AvenirNext-Regular,Avenir Next" font-size="24.0" fill="#FEFFFF" transform="matrix(1.00, 0.00, -0.00, -1.00, 439.3, 78.3)"> </text><text xml:space="preserve" font-family="AvenirNext-Regular,Avenir Next" font-size="24.0" fill="#FEFFFF" transform="matrix(1.00, 0.00, -0.00, -1.00, 445.3, 78.3)">@</text><text xml:space="preserve" font-family="AvenirNext-Regular,Avenir Next" font-size="24.0" fill="#FEFFFF" transform="matrix(1.00, 0.00, -0.00, -1.00, 464.5, 78.3)">k</text><text xml:space="preserve" font-family="AvenirNext-Regular,Avenir Next" font-size="24.0" fill="#FEFFFF" transform="matrix(1.00, 0.00, -0.00, -1.00, 476.6, 78.3)">a</text><text xml:space="preserve" font-family="AvenirNext-Regular,Avenir Next" font-size="24.0" fill="#FEFFFF" transform="matrix(1.00, 0.00, -0.00, -1.00, 489.2, 78.3)">t</text><text xml:space="preserve" font-family="AvenirNext-Regular,Avenir Next" font-size="24.0" fill="#FEFFFF" transform="matrix(1.00, 0.00, -0.00, -1.00, 496.8, 78.3)">i</text><text xml:space="preserve" font-family="AvenirNext-Regular,Avenir Next" font-size="24.0" fill="#FEFFFF" transform="matrix(1.00, 0.00, -0.00, -1.00, 502.8, 78.3)">e</text><text xml:space="preserve" font-family="AvenirNext-Regular,Avenir Next" font-size="24.0" fill="#FEFFFF" transform="matrix(1.00, 0.00, -0.00, -1.00, 516.5, 78.3)">_</text><text xml:space="preserve" font-family="AvenirNext-Regular,Avenir Next" font-size="24.0" fill="#FEFFFF" transform="matrix(1.00, 0.00, -0.00, -1.00, 528.5, 78.3)">r</text><text xml:space="preserve" font-family="AvenirNext-Regular,Avenir Next" font-size="24.0" fill="#FEFFFF" transform="matrix(1.00, 0.00, -0.00, -1.00, 536.9, 78.3)">a</text><text xml:space="preserve" font-family="AvenirNext-Regular,Avenir Next" font-size="24.0" fill="#FEFFFF" transform="matrix(1.00, 0.00, -0.00, -1.00, 549.7, 78.3)">w</text><text xml:space="preserve" font-family="AvenirNext-Regular,Avenir Next" font-size="24.0" fill="#FEFFFF" transform="matrix(1.00, 0.00, -0.00, -1.00, 567.6, 78.3)">s</text><text xml:space="preserve" font-family="AvenirNext-Regular,Avenir Next" font-size="24.0" fill="#FEFFFF" transform="matrix(1.00, 0.00, -0.00, -1.00, 578.3, 78.3)">o</text><text xml:space="preserve" font-family="AvenirNext-Regular,Avenir Next" font-size="24.0" fill="#FEFFFF" transform="matrix(1.00, 0.00, -0.00, -1.00, 592.9, 78.3)">n</text><text xml:space="preserve" font-family="AvenirNext-Regular,Avenir Next" font-size="24.0" fill="#FEFFFF" transform="matrix(1.00, 0.00, -0.00, -1.00, 606.9, 78.3)"> </text><text xml:space="preserve" font-family="AvenirNext-Regular,Avenir Next" font-size="24.0" fill="#FEFFFF" transform="matrix(1.00, 0.00, -0.00, -1.00, 612.9, 78.3)">a</text><text xml:space="preserve" font-family="AvenirNext-Regular,Avenir Next" font-size="24.0" fill="#FEFFFF" transform="matrix(1.00, 0.00, -0.00, -1.00, 625.7, 78.3)">n</text><text xml:space="preserve" font-family="AvenirNext-Regular,Avenir Next" font-size="24.0" fill="#FEFFFF" transform="matrix(1.00, 0.00, -0.00, -1.00, 639.6, 78.3)">d</text><text xml:space="preserve" font-family="AvenirNext-Regular,Avenir Next" font-size="24.0" fill="#FEFFFF" transform="matrix(1.00, 0.00, -0.00, -1.00, 654.9, 78.3)"> </text><text xml:space="preserve" font-family="AvenirNext-Regular,Avenir Next" font-size="24.0" fill="#FEFFFF" transform="matrix(1.00, 0.00, -0.00, -1.00, 660.9, 78.3)">@</text><text xml:space="preserve" font-family="AvenirNext-Regular,Avenir Next" font-size="24.0" fill="#FEFFFF" transform="matrix(1.00, 0.00, -0.00, -1.00, 680.1, 78.3)">t</text><text xml:space="preserve" font-family="AvenirNext-Regular,Avenir Next" font-size="24.0" fill="#FEFFFF" transform="matrix(1.00, 0.00, -0.00, -1.00, 687.7, 78.3)">r</text><text xml:space="preserve" font-family="AvenirNext-Regular,Avenir Next" font-size="24.0" fill="#FEFFFF" transform="matrix(1.00, 0.00, -0.00, -1.00, 695.9, 78.3)">e</text><text xml:space="preserve" font-family="AvenirNext-Regular,Avenir Next" font-size="24.0" fill="#FEFFFF" transform="matrix(1.00, 0.00, -0.00, -1.00, 709.7, 78.3)">v</text><text xml:space="preserve" font-family="AvenirNext-Regular,Avenir Next" font-size="24.0" fill="#FEFFFF" transform="matrix(1.00, 0.00, -0.00, -1.00, 721.4, 78.3)">o</text><text xml:space="preserve" font-family="AvenirNext-Regular,Avenir Next" font-size="24.0" fill="#FEFFFF" transform="matrix(1.00, 0.00, -0.00, -1.00, 736.0, 78.3)">r</text><text xml:space="preserve" font-family="AvenirNext-Regular,Avenir Next" font-size="24.0" fill="#FEFFFF" transform="matrix(1.00, 0.00, -0.00, -1.00, 744.7, 78.3)">m</text><text xml:space="preserve" font-family="AvenirNext-Regular,Avenir Next" font-size="24.0" fill="#FEFFFF" transform="matrix(1.00, 0.00, -0.00, -1.00, 765.9, 78.3)">u</text><text xml:space="preserve" font-family="AvenirNext-Regular,Avenir Next" font-size="24.0" fill="#FEFFFF" transform="matrix(1.00, 0.00, -0.00, -1.00, 779.8, 78.3)">n</text><text xml:space="preserve" font-family="AvenirNext-Regular,Avenir Next" font-size="24.0" fill="#FEFFFF" transform="matrix(1.00, 0.00, -0.00, -1.00, 793.7, 78.3)">o</text><text xml:space="preserve" font-family="AvenirNext-Regular,Avenir Next" font-size="24.0" fill="#FEFFFF" transform="matrix(1.00, 0.00, -0.00, -1.00, 808.4, 78.3)">z</text></g></svg>