<?xml version="1.0" encoding="UTF-8" standalone="no"?><svg xmlns="http://www.w3.org/2000/svg" xmlns:xlink="http://www.w3.org/1999/xlink" clip-rule="evenodd" stroke-miterlimit="10" viewBox="0 0 1024 768"><desc>SVG generated by Keynote</desc><defs></defs><g transform="matrix(1.00, 0.00, -0.00, -1.00, 0.0, 768.0)"><path d="M 0.0 768.0 L 1024.0 768.0 L 1024.0 0.0 L 0.0 0.0 Z M 0.0 768.0 " fill="#52575F"></path><path d="M 291.0 418.0 L 713.0 418.0 L 713.0 330.0 L 291.0 330.0 Z M 291.0 418.2 " fill="#000000"></path><path d="M 301.0 428.0 L 723.0 428.0 L 723.0 340.0 L 301.0 340.0 Z M 301.0 428.2 " fill="#FEFC78"></path><text xml:space="preserve" font-family="Helvetica,Helvetica" font-size="35.0" fill="#000000" transform="matrix(1.00, 0.00, -0.00, -1.00, 365.2, 371.0)">2</text><text xml:space="preserve" font-family="Helvetica,Helvetica" font-size="35.0" fill="#000000" transform="matrix(1.00, 0.00, -0.00, -1.00, 384.6, 371.0)"> </text><text xml:space="preserve" font-family="Helvetica,Helvetica" font-size="35.0" fill="#000000" transform="matrix(1.00, 0.00, -0.00, -1.00, 394.4, 371.0)">M</text><text xml:space="preserve" font-family="Helvetica,Helvetica" font-size="35.0" fill="#000000" transform="matrix(1.00, 0.00, -0.00, -1.00, 423.5, 371.0)">O</text><text xml:space="preserve" font-family="Helvetica,Helvetica" font-size="35.0" fill="#000000" transform="matrix(1.00, 0.00, -0.00, -1.00, 450.7, 371.0)">N</text><text xml:space="preserve" font-family="Helvetica,Helvetica" font-size="35.0" fill="#000000" transform="matrix(1.00, 0.00, -0.00, -1.00, 476.0, 371.0)">T</text><text xml:space="preserve" font-family="Helvetica,Helvetica" font-size="35.0" fill="#000000" transform="matrix(1.00, 0.00, -0.00, -1.00, 497.4, 371.0)">H</text><text xml:space="preserve" font-family="Helvetica,Helvetica" font-size="35.0" fill="#000000" transform="matrix(1.00, 0.00, -0.00, -1.00, 522.7, 371.0)">S</text><text xml:space="preserve" font-family="Helvetica,Helvetica" font-size="35.0" fill="#000000" transform="matrix(1.00, 0.00, -0.00, -1.00, 546.0, 371.0)"> </text><text xml:space="preserve" font-family="Helvetica,Helvetica" font-size="35.0" fill="#000000" transform="matrix(1.00, 0.00, -0.00, -1.00, 555.7, 371.0)">l</text><text xml:space="preserve" font-family="Helvetica,Helvetica" font-size="35.0" fill="#000000" transform="matrix(1.00, 0.00, -0.00, -1.00, 563.5, 371.0)">a</text><text xml:space="preserve" font-family="Helvetica,Helvetica" font-size="35.0" fill="#000000" transform="matrix(1.00, 0.00, -0.00, -1.00, 583.0, 371.0)">t</text><text xml:space="preserve" font-family="Helvetica,Helvetica" font-size="35.0" fill="#000000" transform="matrix(1.00, 0.00, -0.00, -1.00, 592.7, 371.0)">e</text><text xml:space="preserve" font-family="Helvetica,Helvetica" font-size="35.0" fill="#000000" transform="matrix(1.00, 0.00, -0.00, -1.00, 612.2, 371.0)">r</text><text xml:space="preserve" font-family="Helvetica,Helvetica" font-size="35.0" fill="#000000" transform="matrix(1.00, 0.00, -0.00, -1.00, 623.8, 371.0)">…</text></g></svg>