<?xml version="1.0" encoding="UTF-8" standalone="no"?><svg xmlns="http://www.w3.org/2000/svg" xmlns:xlink="http://www.w3.org/1999/xlink" clip-rule="evenodd" stroke-miterlimit="10" viewBox="0 0 1280 800"><desc>SVG generated by Keynote</desc><defs></defs><g transform="matrix(1.00, 0.00, -0.00, -1.00, 0.0, 800.0)"><path d="M 0.0 800.0 L 1280.0 800.0 L 1280.0 0.0 L 0.0 0.0 Z M 0.0 800.0 " fill="#BBB9B4"></path><text xml:space="preserve" font-family="HelveticaNeue-Thin,Helvetica Neue" font-size="50.0" fill="#EBEAE9" transform="matrix(1.00, 0.00, -0.00, -1.00, 64.0, 515.3)">H</text><text xml:space="preserve" font-family="HelveticaNeue-Thin,Helvetica Neue" font-size="50.0" fill="#EBEAE9" transform="matrix(1.00, 0.00, -0.00, -1.00, 97.5, 515.3)">i</text><text xml:space="preserve" font-family="HelveticaNeue-Thin,Helvetica Neue" font-size="50.0" fill="#EBEAE9" transform="matrix(1.00, 0.00, -0.00, -1.00, 105.9, 515.3)">s</text><text xml:space="preserve" font-family="HelveticaNeue-Thin,Helvetica Neue" font-size="50.0" fill="#EBEAE9" transform="matrix(1.00, 0.00, -0.00, -1.00, 129.9, 515.3)">t</text><text xml:space="preserve" font-family="HelveticaNeue-Thin,Helvetica Neue" font-size="50.0" fill="#EBEAE9" transform="matrix(1.00, 0.00, -0.00, -1.00, 142.2, 515.3)">o</text><text xml:space="preserve" font-family="HelveticaNeue-Thin,Helvetica Neue" font-size="50.0" fill="#EBEAE9" transform="matrix(1.00, 0.00, -0.00, -1.00, 169.0, 515.3)">r</text><text xml:space="preserve" font-family="HelveticaNeue-Thin,Helvetica Neue" font-size="50.0" fill="#EBEAE9" transform="matrix(1.00, 0.00, -0.00, -1.00, 182.9, 515.3)">i</text><text xml:space="preserve" font-family="HelveticaNeue-Thin,Helvetica Neue" font-size="50.0" fill="#EBEAE9" transform="matrix(1.00, 0.00, -0.00, -1.00, 191.3, 515.3)">c</text><text xml:space="preserve" font-family="HelveticaNeue-Thin,Helvetica Neue" font-size="50.0" fill="#EBEAE9" transform="matrix(1.00, 0.00, -0.00, -1.00, 217.3, 515.3)">a</text><text xml:space="preserve" font-family="HelveticaNeue-Thin,Helvetica Neue" font-size="50.0" fill="#EBEAE9" transform="matrix(1.00, 0.00, -0.00, -1.00, 242.3, 515.3)">l</text><text xml:space="preserve" font-family="HelveticaNeue-Thin,Helvetica Neue" font-size="50.0" fill="#EBEAE9" transform="matrix(1.00, 0.00, -0.00, -1.00, 250.7, 515.3)"> </text><text xml:space="preserve" font-family="HelveticaNeue-Thin,Helvetica Neue" font-size="50.0" fill="#3B3C1B" transform="matrix(1.00, 0.00, -0.00, -1.00, 264.6, 515.3)">p</text><text xml:space="preserve" font-family="HelveticaNeue-Thin,Helvetica Neue" font-size="50.0" fill="#3B3C1B" transform="matrix(1.00, 0.00, -0.00, -1.00, 292.4, 515.3)">l</text><text xml:space="preserve" font-family="HelveticaNeue-Thin,Helvetica Neue" font-size="50.0" fill="#3B3C1B" transform="matrix(1.00, 0.00, -0.00, -1.00, 300.8, 515.3)">a</text><text xml:space="preserve" font-family="HelveticaNeue-Thin,Helvetica Neue" font-size="50.0" fill="#3B3C1B" transform="matrix(1.00, 0.00, -0.00, -1.00, 325.8, 515.3)">c</text><text xml:space="preserve" font-family="HelveticaNeue-Thin,Helvetica Neue" font-size="50.0" fill="#3B3C1B" transform="matrix(1.00, 0.00, -0.00, -1.00, 351.7, 515.3)">e</text><text xml:space="preserve" font-family="HelveticaNeue-Thin,Helvetica Neue" font-size="50.0" fill="#3B3C1B" transform="matrix(1.00, 0.00, -0.00, -1.00, 377.7, 515.3)"> </text><text xml:space="preserve" font-family="HelveticaNeue-Thin,Helvetica Neue" font-size="50.0" fill="#3B3C1B" transform="matrix(1.00, 0.00, -0.00, -1.00, 391.6, 515.3)">n</text><text xml:space="preserve" font-family="HelveticaNeue-Thin,Helvetica Neue" font-size="50.0" fill="#3B3C1B" transform="matrix(1.00, 0.00, -0.00, -1.00, 417.5, 515.3)">a</text><text xml:space="preserve" font-family="HelveticaNeue-Thin,Helvetica Neue" font-size="50.0" fill="#3B3C1B" transform="matrix(1.00, 0.00, -0.00, -1.00, 442.5, 515.3)">m</text><text xml:space="preserve" font-family="HelveticaNeue-Thin,Helvetica Neue" font-size="50.0" fill="#3B3C1B" transform="matrix(1.00, 0.00, -0.00, -1.00, 482.3, 515.3)">e</text><text xml:space="preserve" font-family="HelveticaNeue-Thin,Helvetica Neue" font-size="50.0" fill="#3B3C1B" transform="matrix(1.00, 0.00, -0.00, -1.00, 508.3, 515.3)">s</text><text xml:space="preserve" font-family="HelveticaNeue-Thin,Helvetica Neue" font-size="50.0" fill="#EBEAE9" transform="matrix(1.00, 0.00, -0.00, -1.00, 532.3, 515.3)">,</text><text xml:space="preserve" font-family="HelveticaNeue-Thin,Helvetica Neue" font-size="50.0" fill="#EBEAE9" transform="matrix(1.00, 0.00, -0.00, -1.00, 546.2, 515.3)"> </text><text xml:space="preserve" font-family="HelveticaNeue-Thin,Helvetica Neue" font-size="50.0" fill="#EBEAE9" transform="matrix(1.00, 0.00, -0.00, -1.00, 560.1, 515.3)">l</text><text xml:space="preserve" font-family="HelveticaNeue-Thin,Helvetica Neue" font-size="50.0" fill="#EBEAE9" transform="matrix(1.00, 0.00, -0.00, -1.00, 568.5, 515.3)">o</text><text xml:space="preserve" font-family="HelveticaNeue-Thin,Helvetica Neue" font-size="50.0" fill="#EBEAE9" transform="matrix(1.00, 0.00, -0.00, -1.00, 595.4, 515.3)">c</text><text xml:space="preserve" font-family="HelveticaNeue-Thin,Helvetica Neue" font-size="50.0" fill="#EBEAE9" transform="matrix(1.00, 0.00, -0.00, -1.00, 621.3, 515.3)">a</text><text xml:space="preserve" font-family="HelveticaNeue-Thin,Helvetica Neue" font-size="50.0" fill="#EBEAE9" transform="matrix(1.00, 0.00, -0.00, -1.00, 646.3, 515.3)">t</text><text xml:space="preserve" font-family="HelveticaNeue-Thin,Helvetica Neue" font-size="50.0" fill="#EBEAE9" transform="matrix(1.00, 0.00, -0.00, -1.00, 659.3, 515.3)">i</text><text xml:space="preserve" font-family="HelveticaNeue-Thin,Helvetica Neue" font-size="50.0" fill="#EBEAE9" transform="matrix(1.00, 0.00, -0.00, -1.00, 667.7, 515.3)">o</text><text xml:space="preserve" font-family="HelveticaNeue-Thin,Helvetica Neue" font-size="50.0" fill="#EBEAE9" transform="matrix(1.00, 0.00, -0.00, -1.00, 694.5, 515.3)">n</text><text xml:space="preserve" font-family="HelveticaNeue-Thin,Helvetica Neue" font-size="50.0" fill="#EBEAE9" transform="matrix(1.00, 0.00, -0.00, -1.00, 720.5, 515.3)">s</text><text xml:space="preserve" font-family="HelveticaNeue-Thin,Helvetica Neue" font-size="50.0" fill="#EBEAE9" transform="matrix(1.00, 0.00, -0.00, -1.00, 744.5, 515.3)">,</text><text xml:space="preserve" font-family="HelveticaNeue-Thin,Helvetica Neue" font-size="50.0" fill="#EBEAE9" transform="matrix(1.00, 0.00, -0.00, -1.00, 758.4, 515.3)"> </text><text xml:space="preserve" font-family="HelveticaNeue-Thin,Helvetica Neue" font-size="50.0" fill="#EBEAE9" transform="matrix(1.00, 0.00, -0.00, -1.00, 772.3, 515.3)">v</text><text xml:space="preserve" font-family="HelveticaNeue-Thin,Helvetica Neue" font-size="50.0" fill="#EBEAE9" transform="matrix(1.00, 0.00, -0.00, -1.00, 794.5, 515.3)">a</text><text xml:space="preserve" font-family="HelveticaNeue-Thin,Helvetica Neue" font-size="50.0" fill="#EBEAE9" transform="matrix(1.00, 0.00, -0.00, -1.00, 819.5, 515.3)">r</text><text xml:space="preserve" font-family="HelveticaNeue-Thin,Helvetica Neue" font-size="50.0" fill="#EBEAE9" transform="matrix(1.00, 0.00, -0.00, -1.00, 833.4, 515.3)">i</text><text xml:space="preserve" font-family="HelveticaNeue-Thin,Helvetica Neue" font-size="50.0" fill="#EBEAE9" transform="matrix(1.00, 0.00, -0.00, -1.00, 841.8, 515.3)">a</text><text xml:space="preserve" font-family="HelveticaNeue-Thin,Helvetica Neue" font-size="50.0" fill="#EBEAE9" transform="matrix(1.00, 0.00, -0.00, -1.00, 866.8, 515.3)">n</text><text xml:space="preserve" font-family="HelveticaNeue-Thin,Helvetica Neue" font-size="50.0" fill="#EBEAE9" transform="matrix(1.00, 0.00, -0.00, -1.00, 892.8, 515.3)">t</text><text xml:space="preserve" font-family="HelveticaNeue-Thin,Helvetica Neue" font-size="50.0" fill="#EBEAE9" transform="matrix(1.00, 0.00, -0.00, -1.00, 905.7, 515.3)">s</text><text xml:space="preserve" font-family="HelveticaNeue-Thin,Helvetica Neue" font-size="50.0" fill="#EBEAE9" transform="matrix(1.00, 0.00, -0.00, -1.00, 929.8, 515.3)"> </text><text xml:space="preserve" font-family="HelveticaNeue-Thin,Helvetica Neue" font-size="50.0" fill="#EBEAE9" transform="matrix(1.00, 0.00, -0.00, -1.00, 943.7, 515.3)">a</text><text xml:space="preserve" font-family="HelveticaNeue-Thin,Helvetica Neue" font-size="50.0" fill="#EBEAE9" transform="matrix(1.00, 0.00, -0.00, -1.00, 968.7, 515.3)">n</text><text xml:space="preserve" font-family="HelveticaNeue-Thin,Helvetica Neue" font-size="50.0" fill="#EBEAE9" transform="matrix(1.00, 0.00, -0.00, -1.00, 994.6, 515.3)">d</text><text xml:space="preserve" font-family="HelveticaNeue-Thin,Helvetica Neue" font-size="50.0" fill="#EBEAE9" transform="matrix(1.00, 0.00, -0.00, -1.00, 1022.4, 515.3)"> </text><text xml:space="preserve" font-family="HelveticaNeue-Thin,Helvetica Neue" font-size="50.0" fill="#EBEAE9" transform="matrix(1.00, 0.00, -0.00, -1.00, 1036.3, 515.3)">c</text><text xml:space="preserve" font-family="HelveticaNeue-Thin,Helvetica Neue" font-size="50.0" fill="#EBEAE9" transform="matrix(1.00, 0.00, -0.00, -1.00, 1062.3, 515.3)">h</text><text xml:space="preserve" font-family="HelveticaNeue-Thin,Helvetica Neue" font-size="50.0" fill="#EBEAE9" transform="matrix(1.00, 0.00, -0.00, -1.00, 1088.2, 515.3)">a</text><text xml:space="preserve" font-family="HelveticaNeue-Thin,Helvetica Neue" font-size="50.0" fill="#EBEAE9" transform="matrix(1.00, 0.00, -0.00, -1.00, 1113.2, 515.3)">n</text><text xml:space="preserve" font-family="HelveticaNeue-Thin,Helvetica Neue" font-size="50.0" fill="#EBEAE9" transform="matrix(1.00, 0.00, -0.00, -1.00, 1139.2, 515.3)">g</text><text xml:space="preserve" font-family="HelveticaNeue-Thin,Helvetica Neue" font-size="50.0" fill="#EBEAE9" transform="matrix(1.00, 0.00, -0.00, -1.00, 1166.0, 515.3)">e</text><text xml:space="preserve" font-family="HelveticaNeue-Thin,Helvetica Neue" font-size="50.0" fill="#EBEAE9" transform="matrix(1.00, 0.00, -0.00, -1.00, 1192.0, 515.3)">s</text><text xml:space="preserve" font-family="HelveticaNeue-Thin,Helvetica Neue" font-size="50.0" fill="#EBEAE9" transform="matrix(1.00, 0.00, -0.00, -1.00, 258.1, 426.0)">C</text><text xml:space="preserve" font-family="HelveticaNeue-Thin,Helvetica Neue" font-size="50.0" fill="#EBEAE9" transform="matrix(1.00, 0.00, -0.00, -1.00, 293.3, 426.0)">o</text><text xml:space="preserve" font-family="HelveticaNeue-Thin,Helvetica Neue" font-size="50.0" fill="#EBEAE9" transform="matrix(1.00, 0.00, -0.00, -1.00, 320.1, 426.0)">l</text><text xml:space="preserve" font-family="HelveticaNeue-Thin,Helvetica Neue" font-size="50.0" fill="#EBEAE9" transform="matrix(1.00, 0.00, -0.00, -1.00, 328.5, 426.0)">l</text><text xml:space="preserve" font-family="HelveticaNeue-Thin,Helvetica Neue" font-size="50.0" fill="#EBEAE9" transform="matrix(1.00, 0.00, -0.00, -1.00, 336.9, 426.0)">a</text><text xml:space="preserve" font-family="HelveticaNeue-Thin,Helvetica Neue" font-size="50.0" fill="#EBEAE9" transform="matrix(1.00, 0.00, -0.00, -1.00, 361.9, 426.0)">b</text><text xml:space="preserve" font-family="HelveticaNeue-Thin,Helvetica Neue" font-size="50.0" fill="#EBEAE9" transform="matrix(1.00, 0.00, -0.00, -1.00, 389.7, 426.0)">o</text><text xml:space="preserve" font-family="HelveticaNeue-Thin,Helvetica Neue" font-size="50.0" fill="#EBEAE9" transform="matrix(1.00, 0.00, -0.00, -1.00, 416.6, 426.0)">r</text><text xml:space="preserve" font-family="HelveticaNeue-Thin,Helvetica Neue" font-size="50.0" fill="#EBEAE9" transform="matrix(1.00, 0.00, -0.00, -1.00, 429.5, 426.0)">a</text><text xml:space="preserve" font-family="HelveticaNeue-Thin,Helvetica Neue" font-size="50.0" fill="#EBEAE9" transform="matrix(1.00, 0.00, -0.00, -1.00, 454.5, 426.0)">t</text><text xml:space="preserve" font-family="HelveticaNeue-Thin,Helvetica Neue" font-size="50.0" fill="#EBEAE9" transform="matrix(1.00, 0.00, -0.00, -1.00, 467.4, 426.0)">i</text><text xml:space="preserve" font-family="HelveticaNeue-Thin,Helvetica Neue" font-size="50.0" fill="#EBEAE9" transform="matrix(1.00, 0.00, -0.00, -1.00, 475.8, 426.0)">n</text><text xml:space="preserve" font-family="HelveticaNeue-Thin,Helvetica Neue" font-size="50.0" fill="#EBEAE9" transform="matrix(1.00, 0.00, -0.00, -1.00, 501.8, 426.0)">g</text><text xml:space="preserve" font-family="HelveticaNeue-Thin,Helvetica Neue" font-size="50.0" fill="#EBEAE9" transform="matrix(1.00, 0.00, -0.00, -1.00, 528.6, 426.0)"> </text><text xml:space="preserve" font-family="HelveticaNeue-Thin,Helvetica Neue" font-size="50.0" fill="#EBEAE9" transform="matrix(1.00, 0.00, -0.00, -1.00, 542.5, 426.0)">w</text><text xml:space="preserve" font-family="HelveticaNeue-Thin,Helvetica Neue" font-size="50.0" fill="#EBEAE9" transform="matrix(1.00, 0.00, -0.00, -1.00, 577.7, 426.0)">i</text><text xml:space="preserve" font-family="HelveticaNeue-Thin,Helvetica Neue" font-size="50.0" fill="#EBEAE9" transform="matrix(1.00, 0.00, -0.00, -1.00, 586.1, 426.0)">t</text><text xml:space="preserve" font-family="HelveticaNeue-Thin,Helvetica Neue" font-size="50.0" fill="#EBEAE9" transform="matrix(1.00, 0.00, -0.00, -1.00, 599.1, 426.0)">h</text><text xml:space="preserve" font-family="HelveticaNeue-Thin,Helvetica Neue" font-size="50.0" fill="#EBEAE9" transform="matrix(1.00, 0.00, -0.00, -1.00, 625.0, 426.0)"> </text><text xml:space="preserve" font-family="HelveticaNeue-Thin,Helvetica Neue" font-size="50.0" fill="#3B3C1B" transform="matrix(1.00, 0.00, -0.00, -1.00, 638.9, 426.0)">a</text><text xml:space="preserve" font-family="HelveticaNeue-Thin,Helvetica Neue" font-size="50.0" fill="#3B3C1B" transform="matrix(1.00, 0.00, -0.00, -1.00, 663.9, 426.0)">c</text><text xml:space="preserve" font-family="HelveticaNeue-Thin,Helvetica Neue" font-size="50.0" fill="#3B3C1B" transform="matrix(1.00, 0.00, -0.00, -1.00, 689.9, 426.0)">a</text><text xml:space="preserve" font-family="HelveticaNeue-Thin,Helvetica Neue" font-size="50.0" fill="#3B3C1B" transform="matrix(1.00, 0.00, -0.00, -1.00, 714.9, 426.0)">d</text><text xml:space="preserve" font-family="HelveticaNeue-Thin,Helvetica Neue" font-size="50.0" fill="#3B3C1B" transform="matrix(1.00, 0.00, -0.00, -1.00, 742.7, 426.0)">e</text><text xml:space="preserve" font-family="HelveticaNeue-Thin,Helvetica Neue" font-size="50.0" fill="#3B3C1B" transform="matrix(1.00, 0.00, -0.00, -1.00, 768.6, 426.0)">m</text><text xml:space="preserve" font-family="HelveticaNeue-Thin,Helvetica Neue" font-size="50.0" fill="#3B3C1B" transform="matrix(1.00, 0.00, -0.00, -1.00, 808.4, 426.0)">i</text><text xml:space="preserve" font-family="HelveticaNeue-Thin,Helvetica Neue" font-size="50.0" fill="#3B3C1B" transform="matrix(1.00, 0.00, -0.00, -1.00, 816.8, 426.0)">c</text><text xml:space="preserve" font-family="HelveticaNeue-Thin,Helvetica Neue" font-size="50.0" fill="#3B3C1B" transform="matrix(1.00, 0.00, -0.00, -1.00, 842.8, 426.0)"> </text><text xml:space="preserve" font-family="HelveticaNeue-Thin,Helvetica Neue" font-size="50.0" fill="#3B3C1B" transform="matrix(1.00, 0.00, -0.00, -1.00, 856.7, 426.0)">p</text><text xml:space="preserve" font-family="HelveticaNeue-Thin,Helvetica Neue" font-size="50.0" fill="#3B3C1B" transform="matrix(1.00, 0.00, -0.00, -1.00, 884.5, 426.0)">r</text><text xml:space="preserve" font-family="HelveticaNeue-Thin,Helvetica Neue" font-size="50.0" fill="#3B3C1B" transform="matrix(1.00, 0.00, -0.00, -1.00, 897.8, 426.0)">o</text><text xml:space="preserve" font-family="HelveticaNeue-Thin,Helvetica Neue" font-size="50.0" fill="#3B3C1B" transform="matrix(1.00, 0.00, -0.00, -1.00, 924.6, 426.0)">j</text><text xml:space="preserve" font-family="HelveticaNeue-Thin,Helvetica Neue" font-size="50.0" fill="#3B3C1B" transform="matrix(1.00, 0.00, -0.00, -1.00, 933.0, 426.0)">e</text><text xml:space="preserve" font-family="HelveticaNeue-Thin,Helvetica Neue" font-size="50.0" fill="#3B3C1B" transform="matrix(1.00, 0.00, -0.00, -1.00, 959.0, 426.0)">c</text><text xml:space="preserve" font-family="HelveticaNeue-Thin,Helvetica Neue" font-size="50.0" fill="#3B3C1B" transform="matrix(1.00, 0.00, -0.00, -1.00, 984.9, 426.0)">t</text><text xml:space="preserve" font-family="HelveticaNeue-Thin,Helvetica Neue" font-size="50.0" fill="#3B3C1B" transform="matrix(1.00, 0.00, -0.00, -1.00, 997.9, 426.0)">s</text><text xml:space="preserve" font-family="HelveticaNeue-Thin,Helvetica Neue" font-size="50.0" fill="#3B3C1B" transform="matrix(1.00, 0.00, -0.00, -1.00, 144.1, 336.7)">T</text><text xml:space="preserve" font-family="HelveticaNeue-Thin,Helvetica Neue" font-size="50.0" fill="#3B3C1B" transform="matrix(1.00, 0.00, -0.00, -1.00, 165.2, 336.7)">o</text><text xml:space="preserve" font-family="HelveticaNeue-Thin,Helvetica Neue" font-size="50.0" fill="#3B3C1B" transform="matrix(1.00, 0.00, -0.00, -1.00, 192.1, 336.7)">o</text><text xml:space="preserve" font-family="HelveticaNeue-Thin,Helvetica Neue" font-size="50.0" fill="#3B3C1B" transform="matrix(1.00, 0.00, -0.00, -1.00, 218.9, 336.7)">l</text><text xml:space="preserve" font-family="HelveticaNeue-Thin,Helvetica Neue" font-size="50.0" fill="#3B3C1B" transform="matrix(1.00, 0.00, -0.00, -1.00, 227.3, 336.7)">s</text><text xml:space="preserve" font-family="HelveticaNeue-Thin,Helvetica Neue" font-size="50.0" fill="#EBEAE9" transform="matrix(1.00, 0.00, -0.00, -1.00, 251.4, 336.7)"> </text><text xml:space="preserve" font-family="HelveticaNeue-Thin,Helvetica Neue" font-size="50.0" fill="#EBEAE9" transform="matrix(1.00, 0.00, -0.00, -1.00, 265.2, 336.7)">f</text><text xml:space="preserve" font-family="HelveticaNeue-Thin,Helvetica Neue" font-size="50.0" fill="#EBEAE9" transform="matrix(1.00, 0.00, -0.00, -1.00, 277.3, 336.7)">o</text><text xml:space="preserve" font-family="HelveticaNeue-Thin,Helvetica Neue" font-size="50.0" fill="#EBEAE9" transform="matrix(1.00, 0.00, -0.00, -1.00, 304.2, 336.7)">r</text><text xml:space="preserve" font-family="HelveticaNeue-Thin,Helvetica Neue" font-size="50.0" fill="#EBEAE9" transform="matrix(1.00, 0.00, -0.00, -1.00, 318.1, 336.7)"> </text><text xml:space="preserve" font-family="HelveticaNeue-Thin,Helvetica Neue" font-size="50.0" fill="#EBEAE9" transform="matrix(1.00, 0.00, -0.00, -1.00, 332.0, 336.7)">e</text><text xml:space="preserve" font-family="HelveticaNeue-Thin,Helvetica Neue" font-size="50.0" fill="#EBEAE9" transform="matrix(1.00, 0.00, -0.00, -1.00, 357.3, 336.7)">x</text><text xml:space="preserve" font-family="HelveticaNeue-Thin,Helvetica Neue" font-size="50.0" fill="#EBEAE9" transform="matrix(1.00, 0.00, -0.00, -1.00, 379.5, 336.7)">t</text><text xml:space="preserve" font-family="HelveticaNeue-Thin,Helvetica Neue" font-size="50.0" fill="#EBEAE9" transform="matrix(1.00, 0.00, -0.00, -1.00, 392.5, 336.7)">r</text><text xml:space="preserve" font-family="HelveticaNeue-Thin,Helvetica Neue" font-size="50.0" fill="#EBEAE9" transform="matrix(1.00, 0.00, -0.00, -1.00, 405.4, 336.7)">a</text><text xml:space="preserve" font-family="HelveticaNeue-Thin,Helvetica Neue" font-size="50.0" fill="#EBEAE9" transform="matrix(1.00, 0.00, -0.00, -1.00, 430.4, 336.7)">c</text><text xml:space="preserve" font-family="HelveticaNeue-Thin,Helvetica Neue" font-size="50.0" fill="#EBEAE9" transform="matrix(1.00, 0.00, -0.00, -1.00, 456.3, 336.7)">t</text><text xml:space="preserve" font-family="HelveticaNeue-Thin,Helvetica Neue" font-size="50.0" fill="#EBEAE9" transform="matrix(1.00, 0.00, -0.00, -1.00, 469.2, 336.7)">i</text><text xml:space="preserve" font-family="HelveticaNeue-Thin,Helvetica Neue" font-size="50.0" fill="#EBEAE9" transform="matrix(1.00, 0.00, -0.00, -1.00, 477.6, 336.7)">n</text><text xml:space="preserve" font-family="HelveticaNeue-Thin,Helvetica Neue" font-size="50.0" fill="#EBEAE9" transform="matrix(1.00, 0.00, -0.00, -1.00, 503.6, 336.7)">g</text><text xml:space="preserve" font-family="HelveticaNeue-Thin,Helvetica Neue" font-size="50.0" fill="#EBEAE9" transform="matrix(1.00, 0.00, -0.00, -1.00, 530.5, 336.7)"> </text><text xml:space="preserve" font-family="HelveticaNeue-Thin,Helvetica Neue" font-size="50.0" fill="#EBEAE9" transform="matrix(1.00, 0.00, -0.00, -1.00, 544.3, 336.7)">d</text><text xml:space="preserve" font-family="HelveticaNeue-Thin,Helvetica Neue" font-size="50.0" fill="#EBEAE9" transform="matrix(1.00, 0.00, -0.00, -1.00, 572.1, 336.7)">a</text><text xml:space="preserve" font-family="HelveticaNeue-Thin,Helvetica Neue" font-size="50.0" fill="#EBEAE9" transform="matrix(1.00, 0.00, -0.00, -1.00, 597.1, 336.7)">t</text><text xml:space="preserve" font-family="HelveticaNeue-Thin,Helvetica Neue" font-size="50.0" fill="#EBEAE9" transform="matrix(1.00, 0.00, -0.00, -1.00, 610.1, 336.7)">a</text><text xml:space="preserve" font-family="HelveticaNeue-Thin,Helvetica Neue" font-size="50.0" fill="#EBEAE9" transform="matrix(1.00, 0.00, -0.00, -1.00, 635.1, 336.7)"> </text><text xml:space="preserve" font-family="HelveticaNeue-Thin,Helvetica Neue" font-size="50.0" fill="#EBEAE9" transform="matrix(1.00, 0.00, -0.00, -1.00, 649.0, 336.7)">f</text><text xml:space="preserve" font-family="HelveticaNeue-Thin,Helvetica Neue" font-size="50.0" fill="#EBEAE9" transform="matrix(1.00, 0.00, -0.00, -1.00, 661.0, 336.7)">r</text><text xml:space="preserve" font-family="HelveticaNeue-Thin,Helvetica Neue" font-size="50.0" fill="#EBEAE9" transform="matrix(1.00, 0.00, -0.00, -1.00, 674.3, 336.7)">o</text><text xml:space="preserve" font-family="HelveticaNeue-Thin,Helvetica Neue" font-size="50.0" fill="#EBEAE9" transform="matrix(1.00, 0.00, -0.00, -1.00, 701.2, 336.7)">m</text><text xml:space="preserve" font-family="HelveticaNeue-Thin,Helvetica Neue" font-size="50.0" fill="#EBEAE9" transform="matrix(1.00, 0.00, -0.00, -1.00, 741.0, 336.7)"> </text><text xml:space="preserve" font-family="HelveticaNeue-Thin,Helvetica Neue" font-size="50.0" fill="#EBEAE9" transform="matrix(1.00, 0.00, -0.00, -1.00, 754.9, 336.7)">m</text><text xml:space="preserve" font-family="HelveticaNeue-Thin,Helvetica Neue" font-size="50.0" fill="#EBEAE9" transform="matrix(1.00, 0.00, -0.00, -1.00, 794.7, 336.7)">a</text><text xml:space="preserve" font-family="HelveticaNeue-Thin,Helvetica Neue" font-size="50.0" fill="#EBEAE9" transform="matrix(1.00, 0.00, -0.00, -1.00, 819.7, 336.7)">p</text><text xml:space="preserve" font-family="HelveticaNeue-Thin,Helvetica Neue" font-size="50.0" fill="#EBEAE9" transform="matrix(1.00, 0.00, -0.00, -1.00, 847.5, 336.7)">s</text><text xml:space="preserve" font-family="HelveticaNeue-Thin,Helvetica Neue" font-size="50.0" fill="#EBEAE9" transform="matrix(1.00, 0.00, -0.00, -1.00, 871.5, 336.7)"> </text><text xml:space="preserve" font-family="HelveticaNeue-Thin,Helvetica Neue" font-size="50.0" fill="#EBEAE9" transform="matrix(1.00, 0.00, -0.00, -1.00, 885.4, 336.7)">i</text><text xml:space="preserve" font-family="HelveticaNeue-Thin,Helvetica Neue" font-size="50.0" fill="#EBEAE9" transform="matrix(1.00, 0.00, -0.00, -1.00, 893.8, 336.7)">n</text><text xml:space="preserve" font-family="HelveticaNeue-Thin,Helvetica Neue" font-size="50.0" fill="#EBEAE9" transform="matrix(1.00, 0.00, -0.00, -1.00, 919.8, 336.7)"> </text><text xml:space="preserve" font-family="HelveticaNeue-Thin,Helvetica Neue" font-size="50.0" fill="#EBEAE9" transform="matrix(1.00, 0.00, -0.00, -1.00, 933.7, 336.7)">W</text><text xml:space="preserve" font-family="HelveticaNeue-Thin,Helvetica Neue" font-size="50.0" fill="#EBEAE9" transform="matrix(1.00, 0.00, -0.00, -1.00, 979.3, 336.7)">i</text><text xml:space="preserve" font-family="HelveticaNeue-Thin,Helvetica Neue" font-size="50.0" fill="#EBEAE9" transform="matrix(1.00, 0.00, -0.00, -1.00, 987.7, 336.7)">k</text><text xml:space="preserve" font-family="HelveticaNeue-Thin,Helvetica Neue" font-size="50.0" fill="#EBEAE9" transform="matrix(1.00, 0.00, -0.00, -1.00, 1010.9, 336.7)">i</text><text xml:space="preserve" font-family="HelveticaNeue-Thin,Helvetica Neue" font-size="50.0" fill="#EBEAE9" transform="matrix(1.00, 0.00, -0.00, -1.00, 1019.3, 336.7)">m</text><text xml:space="preserve" font-family="HelveticaNeue-Thin,Helvetica Neue" font-size="50.0" fill="#EBEAE9" transform="matrix(1.00, 0.00, -0.00, -1.00, 1059.1, 336.7)">a</text><text xml:space="preserve" font-family="HelveticaNeue-Thin,Helvetica Neue" font-size="50.0" fill="#EBEAE9" transform="matrix(1.00, 0.00, -0.00, -1.00, 1084.1, 336.7)">p</text><text xml:space="preserve" font-family="HelveticaNeue-Thin,Helvetica Neue" font-size="50.0" fill="#EBEAE9" transform="matrix(1.00, 0.00, -0.00, -1.00, 1111.9, 336.7)">s</text><text xml:space="preserve" font-family="HelveticaNeue-Thin,Helvetica Neue" font-size="50.0" fill="#3B3C1B" transform="matrix(1.00, 0.00, -0.00, -1.00, 295.2, 247.5)">W</text><text xml:space="preserve" font-family="HelveticaNeue-Thin,Helvetica Neue" font-size="50.0" fill="#3B3C1B" transform="matrix(1.00, 0.00, -0.00, -1.00, 340.9, 247.5)">i</text><text xml:space="preserve" font-family="HelveticaNeue-Thin,Helvetica Neue" font-size="50.0" fill="#3B3C1B" transform="matrix(1.00, 0.00, -0.00, -1.00, 349.3, 247.5)">k</text><text xml:space="preserve" font-family="HelveticaNeue-Thin,Helvetica Neue" font-size="50.0" fill="#3B3C1B" transform="matrix(1.00, 0.00, -0.00, -1.00, 372.4, 247.5)">i</text><text xml:space="preserve" font-family="HelveticaNeue-Thin,Helvetica Neue" font-size="50.0" fill="#3B3C1B" transform="matrix(1.00, 0.00, -0.00, -1.00, 380.8, 247.5)">d</text><text xml:space="preserve" font-family="HelveticaNeue-Thin,Helvetica Neue" font-size="50.0" fill="#3B3C1B" transform="matrix(1.00, 0.00, -0.00, -1.00, 408.6, 247.5)">a</text><text xml:space="preserve" font-family="HelveticaNeue-Thin,Helvetica Neue" font-size="50.0" fill="#3B3C1B" transform="matrix(1.00, 0.00, -0.00, -1.00, 433.6, 247.5)">t</text><text xml:space="preserve" font-family="HelveticaNeue-Thin,Helvetica Neue" font-size="50.0" fill="#3B3C1B" transform="matrix(1.00, 0.00, -0.00, -1.00, 446.6, 247.5)">a</text><text xml:space="preserve" font-family="HelveticaNeue-Thin,Helvetica Neue" font-size="50.0" fill="#EBEAE9" transform="matrix(1.00, 0.00, -0.00, -1.00, 471.6, 247.5)"> </text><text xml:space="preserve" font-family="HelveticaNeue-Thin,Helvetica Neue" font-size="50.0" fill="#EBEAE9" transform="matrix(1.00, 0.00, -0.00, -1.00, 485.5, 247.5)">a</text><text xml:space="preserve" font-family="HelveticaNeue-Thin,Helvetica Neue" font-size="50.0" fill="#EBEAE9" transform="matrix(1.00, 0.00, -0.00, -1.00, 510.5, 247.5)">s</text><text xml:space="preserve" font-family="HelveticaNeue-Thin,Helvetica Neue" font-size="50.0" fill="#EBEAE9" transform="matrix(1.00, 0.00, -0.00, -1.00, 534.5, 247.5)"> </text><text xml:space="preserve" font-family="HelveticaNeue-Thin,Helvetica Neue" font-size="50.0" fill="#EBEAE9" transform="matrix(1.00, 0.00, -0.00, -1.00, 548.4, 247.5)">a</text><text xml:space="preserve" font-family="HelveticaNeue-Thin,Helvetica Neue" font-size="50.0" fill="#EBEAE9" transform="matrix(1.00, 0.00, -0.00, -1.00, 573.4, 247.5)"> </text><text xml:space="preserve" font-family="HelveticaNeue-Thin,Helvetica Neue" font-size="50.0" fill="#EBEAE9" transform="matrix(1.00, 0.00, -0.00, -1.00, 587.3, 247.5)">r</text><text xml:space="preserve" font-family="HelveticaNeue-Thin,Helvetica Neue" font-size="50.0" fill="#EBEAE9" transform="matrix(1.00, 0.00, -0.00, -1.00, 600.6, 247.5)">e</text><text xml:space="preserve" font-family="HelveticaNeue-Thin,Helvetica Neue" font-size="50.0" fill="#EBEAE9" transform="matrix(1.00, 0.00, -0.00, -1.00, 626.6, 247.5)">f</text><text xml:space="preserve" font-family="HelveticaNeue-Thin,Helvetica Neue" font-size="50.0" fill="#EBEAE9" transform="matrix(1.00, 0.00, -0.00, -1.00, 638.6, 247.5)">e</text><text xml:space="preserve" font-family="HelveticaNeue-Thin,Helvetica Neue" font-size="50.0" fill="#EBEAE9" transform="matrix(1.00, 0.00, -0.00, -1.00, 664.6, 247.5)">r</text><text xml:space="preserve" font-family="HelveticaNeue-Thin,Helvetica Neue" font-size="50.0" fill="#EBEAE9" transform="matrix(1.00, 0.00, -0.00, -1.00, 677.9, 247.5)">e</text><text xml:space="preserve" font-family="HelveticaNeue-Thin,Helvetica Neue" font-size="50.0" fill="#EBEAE9" transform="matrix(1.00, 0.00, -0.00, -1.00, 703.8, 247.5)">n</text><text xml:space="preserve" font-family="HelveticaNeue-Thin,Helvetica Neue" font-size="50.0" fill="#EBEAE9" transform="matrix(1.00, 0.00, -0.00, -1.00, 729.8, 247.5)">c</text><text xml:space="preserve" font-family="HelveticaNeue-Thin,Helvetica Neue" font-size="50.0" fill="#EBEAE9" transform="matrix(1.00, 0.00, -0.00, -1.00, 755.7, 247.5)">e</text><text xml:space="preserve" font-family="HelveticaNeue-Thin,Helvetica Neue" font-size="50.0" fill="#EBEAE9" transform="matrix(1.00, 0.00, -0.00, -1.00, 781.7, 247.5)"> </text><text xml:space="preserve" font-family="HelveticaNeue-Thin,Helvetica Neue" font-size="50.0" fill="#EBEAE9" transform="matrix(1.00, 0.00, -0.00, -1.00, 795.6, 247.5)">g</text><text xml:space="preserve" font-family="HelveticaNeue-Thin,Helvetica Neue" font-size="50.0" fill="#EBEAE9" transform="matrix(1.00, 0.00, -0.00, -1.00, 822.4, 247.5)">a</text><text xml:space="preserve" font-family="HelveticaNeue-Thin,Helvetica Neue" font-size="50.0" fill="#EBEAE9" transform="matrix(1.00, 0.00, -0.00, -1.00, 847.4, 247.5)">z</text><text xml:space="preserve" font-family="HelveticaNeue-Thin,Helvetica Neue" font-size="50.0" fill="#EBEAE9" transform="matrix(1.00, 0.00, -0.00, -1.00, 867.8, 247.5)">e</text><text xml:space="preserve" font-family="HelveticaNeue-Thin,Helvetica Neue" font-size="50.0" fill="#EBEAE9" transform="matrix(1.00, 0.00, -0.00, -1.00, 893.8, 247.5)">t</text><text xml:space="preserve" font-family="HelveticaNeue-Thin,Helvetica Neue" font-size="50.0" fill="#EBEAE9" transform="matrix(1.00, 0.00, -0.00, -1.00, 906.7, 247.5)">t</text><text xml:space="preserve" font-family="HelveticaNeue-Thin,Helvetica Neue" font-size="50.0" fill="#EBEAE9" transform="matrix(1.00, 0.00, -0.00, -1.00, 919.0, 247.5)">e</text><text xml:space="preserve" font-family="HelveticaNeue-Thin,Helvetica Neue" font-size="50.0" fill="#EBEAE9" transform="matrix(1.00, 0.00, -0.00, -1.00, 944.9, 247.5)">e</text><text xml:space="preserve" font-family="HelveticaNeue-Thin,Helvetica Neue" font-size="50.0" fill="#EBEAE9" transform="matrix(1.00, 0.00, -0.00, -1.00, 970.9, 247.5)">r</text></g></svg>