<?xml version="1.0" encoding="UTF-8" standalone="no"?><svg xmlns="http://www.w3.org/2000/svg" xmlns:xlink="http://www.w3.org/1999/xlink" clip-rule="evenodd" stroke-miterlimit="10" viewBox="0 0 995 50"><desc>SVG generated by Keynote</desc><defs></defs><g transform="matrix(1.00, 0.00, -0.00, -1.00, 0.0, 50.0)"><text xml:space="preserve" font-family="HelveticaNeue-Thin,Helvetica Neue" font-size="50.0" fill="#3B3C1B" transform="matrix(1.00, 0.00, -0.00, -1.00, 3.0, 11.7)">T</text><text xml:space="preserve" font-family="HelveticaNeue-Thin,Helvetica Neue" font-size="50.0" fill="#3B3C1B" transform="matrix(1.00, 0.00, -0.00, -1.00, 24.2, 11.7)">o</text><text xml:space="preserve" font-family="HelveticaNeue-Thin,Helvetica Neue" font-size="50.0" fill="#3B3C1B" transform="matrix(1.00, 0.00, -0.00, -1.00, 51.0, 11.7)">o</text><text xml:space="preserve" font-family="HelveticaNeue-Thin,Helvetica Neue" font-size="50.0" fill="#3B3C1B" transform="matrix(1.00, 0.00, -0.00, -1.00, 77.9, 11.7)">l</text><text xml:space="preserve" font-family="HelveticaNeue-Thin,Helvetica Neue" font-size="50.0" fill="#3B3C1B" transform="matrix(1.00, 0.00, -0.00, -1.00, 86.3, 11.7)">s</text><text xml:space="preserve" font-family="HelveticaNeue-Thin,Helvetica Neue" font-size="50.0" fill="#EBEAE9" transform="matrix(1.00, 0.00, -0.00, -1.00, 110.3, 11.7)"> </text><text xml:space="preserve" font-family="HelveticaNeue-Thin,Helvetica Neue" font-size="50.0" fill="#EBEAE9" transform="matrix(1.00, 0.00, -0.00, -1.00, 124.2, 11.7)">f</text><text xml:space="preserve" font-family="HelveticaNeue-Thin,Helvetica Neue" font-size="50.0" fill="#EBEAE9" transform="matrix(1.00, 0.00, -0.00, -1.00, 136.3, 11.7)">o</text><text xml:space="preserve" font-family="HelveticaNeue-Thin,Helvetica Neue" font-size="50.0" fill="#EBEAE9" transform="matrix(1.00, 0.00, -0.00, -1.00, 163.1, 11.7)">r</text><text xml:space="preserve" font-family="HelveticaNeue-Thin,Helvetica Neue" font-size="50.0" fill="#EBEAE9" transform="matrix(1.00, 0.00, -0.00, -1.00, 177.0, 11.7)"> </text><text xml:space="preserve" font-family="HelveticaNeue-Thin,Helvetica Neue" font-size="50.0" fill="#EBEAE9" transform="matrix(1.00, 0.00, -0.00, -1.00, 190.9, 11.7)">e</text><text xml:space="preserve" font-family="HelveticaNeue-Thin,Helvetica Neue" font-size="50.0" fill="#EBEAE9" transform="matrix(1.00, 0.00, -0.00, -1.00, 216.3, 11.7)">x</text><text xml:space="preserve" font-family="HelveticaNeue-Thin,Helvetica Neue" font-size="50.0" fill="#EBEAE9" transform="matrix(1.00, 0.00, -0.00, -1.00, 238.5, 11.7)">t</text><text xml:space="preserve" font-family="HelveticaNeue-Thin,Helvetica Neue" font-size="50.0" fill="#EBEAE9" transform="matrix(1.00, 0.00, -0.00, -1.00, 251.4, 11.7)">r</text><text xml:space="preserve" font-family="HelveticaNeue-Thin,Helvetica Neue" font-size="50.0" fill="#EBEAE9" transform="matrix(1.00, 0.00, -0.00, -1.00, 264.3, 11.7)">a</text><text xml:space="preserve" font-family="HelveticaNeue-Thin,Helvetica Neue" font-size="50.0" fill="#EBEAE9" transform="matrix(1.00, 0.00, -0.00, -1.00, 289.3, 11.7)">c</text><text xml:space="preserve" font-family="HelveticaNeue-Thin,Helvetica Neue" font-size="50.0" fill="#EBEAE9" transform="matrix(1.00, 0.00, -0.00, -1.00, 315.3, 11.7)">t</text><text xml:space="preserve" font-family="HelveticaNeue-Thin,Helvetica Neue" font-size="50.0" fill="#EBEAE9" transform="matrix(1.00, 0.00, -0.00, -1.00, 328.2, 11.7)">i</text><text xml:space="preserve" font-family="HelveticaNeue-Thin,Helvetica Neue" font-size="50.0" fill="#EBEAE9" transform="matrix(1.00, 0.00, -0.00, -1.00, 336.6, 11.7)">n</text><text xml:space="preserve" font-family="HelveticaNeue-Thin,Helvetica Neue" font-size="50.0" fill="#EBEAE9" transform="matrix(1.00, 0.00, -0.00, -1.00, 362.6, 11.7)">g</text><text xml:space="preserve" font-family="HelveticaNeue-Thin,Helvetica Neue" font-size="50.0" fill="#EBEAE9" transform="matrix(1.00, 0.00, -0.00, -1.00, 389.4, 11.7)"> </text><text xml:space="preserve" font-family="HelveticaNeue-Thin,Helvetica Neue" font-size="50.0" fill="#EBEAE9" transform="matrix(1.00, 0.00, -0.00, -1.00, 403.3, 11.7)">d</text><text xml:space="preserve" font-family="HelveticaNeue-Thin,Helvetica Neue" font-size="50.0" fill="#EBEAE9" transform="matrix(1.00, 0.00, -0.00, -1.00, 431.1, 11.7)">a</text><text xml:space="preserve" font-family="HelveticaNeue-Thin,Helvetica Neue" font-size="50.0" fill="#EBEAE9" transform="matrix(1.00, 0.00, -0.00, -1.00, 456.1, 11.7)">t</text><text xml:space="preserve" font-family="HelveticaNeue-Thin,Helvetica Neue" font-size="50.0" fill="#EBEAE9" transform="matrix(1.00, 0.00, -0.00, -1.00, 469.1, 11.7)">a</text><text xml:space="preserve" font-family="HelveticaNeue-Thin,Helvetica Neue" font-size="50.0" fill="#EBEAE9" transform="matrix(1.00, 0.00, -0.00, -1.00, 494.1, 11.7)"> </text><text xml:space="preserve" font-family="HelveticaNeue-Thin,Helvetica Neue" font-size="50.0" fill="#EBEAE9" transform="matrix(1.00, 0.00, -0.00, -1.00, 508.0, 11.7)">f</text><text xml:space="preserve" font-family="HelveticaNeue-Thin,Helvetica Neue" font-size="50.0" fill="#EBEAE9" transform="matrix(1.00, 0.00, -0.00, -1.00, 520.0, 11.7)">r</text><text xml:space="preserve" font-family="HelveticaNeue-Thin,Helvetica Neue" font-size="50.0" fill="#EBEAE9" transform="matrix(1.00, 0.00, -0.00, -1.00, 533.3, 11.7)">o</text><text xml:space="preserve" font-family="HelveticaNeue-Thin,Helvetica Neue" font-size="50.0" fill="#EBEAE9" transform="matrix(1.00, 0.00, -0.00, -1.00, 560.2, 11.7)">m</text><text xml:space="preserve" font-family="HelveticaNeue-Thin,Helvetica Neue" font-size="50.0" fill="#EBEAE9" transform="matrix(1.00, 0.00, -0.00, -1.00, 600.0, 11.7)"> </text><text xml:space="preserve" font-family="HelveticaNeue-Thin,Helvetica Neue" font-size="50.0" fill="#EBEAE9" transform="matrix(1.00, 0.00, -0.00, -1.00, 613.9, 11.7)">m</text><text xml:space="preserve" font-family="HelveticaNeue-Thin,Helvetica Neue" font-size="50.0" fill="#EBEAE9" transform="matrix(1.00, 0.00, -0.00, -1.00, 653.7, 11.7)">a</text><text xml:space="preserve" font-family="HelveticaNeue-Thin,Helvetica Neue" font-size="50.0" fill="#EBEAE9" transform="matrix(1.00, 0.00, -0.00, -1.00, 678.7, 11.7)">p</text><text xml:space="preserve" font-family="HelveticaNeue-Thin,Helvetica Neue" font-size="50.0" fill="#EBEAE9" transform="matrix(1.00, 0.00, -0.00, -1.00, 706.5, 11.7)">s</text><text xml:space="preserve" font-family="HelveticaNeue-Thin,Helvetica Neue" font-size="50.0" fill="#EBEAE9" transform="matrix(1.00, 0.00, -0.00, -1.00, 730.5, 11.7)"> </text><text xml:space="preserve" font-family="HelveticaNeue-Thin,Helvetica Neue" font-size="50.0" fill="#EBEAE9" transform="matrix(1.00, 0.00, -0.00, -1.00, 744.4, 11.7)">i</text><text xml:space="preserve" font-family="HelveticaNeue-Thin,Helvetica Neue" font-size="50.0" fill="#EBEAE9" transform="matrix(1.00, 0.00, -0.00, -1.00, 752.8, 11.7)">n</text><text xml:space="preserve" font-family="HelveticaNeue-Thin,Helvetica Neue" font-size="50.0" fill="#EBEAE9" transform="matrix(1.00, 0.00, -0.00, -1.00, 778.8, 11.7)"> </text><text xml:space="preserve" font-family="HelveticaNeue-Thin,Helvetica Neue" font-size="50.0" fill="#EBEAE9" transform="matrix(1.00, 0.00, -0.00, -1.00, 792.7, 11.7)">W</text><text xml:space="preserve" font-family="HelveticaNeue-Thin,Helvetica Neue" font-size="50.0" fill="#EBEAE9" transform="matrix(1.00, 0.00, -0.00, -1.00, 838.3, 11.7)">i</text><text xml:space="preserve" font-family="HelveticaNeue-Thin,Helvetica Neue" font-size="50.0" fill="#EBEAE9" transform="matrix(1.00, 0.00, -0.00, -1.00, 846.7, 11.7)">k</text><text xml:space="preserve" font-family="HelveticaNeue-Thin,Helvetica Neue" font-size="50.0" fill="#EBEAE9" transform="matrix(1.00, 0.00, -0.00, -1.00, 869.9, 11.7)">i</text><text xml:space="preserve" font-family="HelveticaNeue-Thin,Helvetica Neue" font-size="50.0" fill="#EBEAE9" transform="matrix(1.00, 0.00, -0.00, -1.00, 878.3, 11.7)">m</text><text xml:space="preserve" font-family="HelveticaNeue-Thin,Helvetica Neue" font-size="50.0" fill="#EBEAE9" transform="matrix(1.00, 0.00, -0.00, -1.00, 918.1, 11.7)">a</text><text xml:space="preserve" font-family="HelveticaNeue-Thin,Helvetica Neue" font-size="50.0" fill="#EBEAE9" transform="matrix(1.00, 0.00, -0.00, -1.00, 943.1, 11.7)">p</text><text xml:space="preserve" font-family="HelveticaNeue-Thin,Helvetica Neue" font-size="50.0" fill="#EBEAE9" transform="matrix(1.00, 0.00, -0.00, -1.00, 970.9, 11.7)">s</text></g></svg>