<?xml version="1.0" encoding="UTF-8" standalone="no"?><svg xmlns="http://www.w3.org/2000/svg" xmlns:xlink="http://www.w3.org/1999/xlink" clip-rule="evenodd" stroke-miterlimit="10" viewBox="0 0 764 50"><desc>SVG generated by Keynote</desc><defs></defs><g transform="matrix(1.00, 0.00, -0.00, -1.00, 0.0, 50.0)"><text xml:space="preserve" font-family="HelveticaNeue-Thin,Helvetica Neue" font-size="50.0" fill="#EBEAE9" transform="matrix(1.00, 0.00, -0.00, -1.00, 0.1, 11.0)">C</text><text xml:space="preserve" font-family="HelveticaNeue-Thin,Helvetica Neue" font-size="50.0" fill="#EBEAE9" transform="matrix(1.00, 0.00, -0.00, -1.00, 35.3, 11.0)">o</text><text xml:space="preserve" font-family="HelveticaNeue-Thin,Helvetica Neue" font-size="50.0" fill="#EBEAE9" transform="matrix(1.00, 0.00, -0.00, -1.00, 62.1, 11.0)">l</text><text xml:space="preserve" font-family="HelveticaNeue-Thin,Helvetica Neue" font-size="50.0" fill="#EBEAE9" transform="matrix(1.00, 0.00, -0.00, -1.00, 70.5, 11.0)">l</text><text xml:space="preserve" font-family="HelveticaNeue-Thin,Helvetica Neue" font-size="50.0" fill="#EBEAE9" transform="matrix(1.00, 0.00, -0.00, -1.00, 78.9, 11.0)">a</text><text xml:space="preserve" font-family="HelveticaNeue-Thin,Helvetica Neue" font-size="50.0" fill="#EBEAE9" transform="matrix(1.00, 0.00, -0.00, -1.00, 103.9, 11.0)">b</text><text xml:space="preserve" font-family="HelveticaNeue-Thin,Helvetica Neue" font-size="50.0" fill="#EBEAE9" transform="matrix(1.00, 0.00, -0.00, -1.00, 131.7, 11.0)">o</text><text xml:space="preserve" font-family="HelveticaNeue-Thin,Helvetica Neue" font-size="50.0" fill="#EBEAE9" transform="matrix(1.00, 0.00, -0.00, -1.00, 158.6, 11.0)">r</text><text xml:space="preserve" font-family="HelveticaNeue-Thin,Helvetica Neue" font-size="50.0" fill="#EBEAE9" transform="matrix(1.00, 0.00, -0.00, -1.00, 171.5, 11.0)">a</text><text xml:space="preserve" font-family="HelveticaNeue-Thin,Helvetica Neue" font-size="50.0" fill="#EBEAE9" transform="matrix(1.00, 0.00, -0.00, -1.00, 196.5, 11.0)">t</text><text xml:space="preserve" font-family="HelveticaNeue-Thin,Helvetica Neue" font-size="50.0" fill="#EBEAE9" transform="matrix(1.00, 0.00, -0.00, -1.00, 209.4, 11.0)">i</text><text xml:space="preserve" font-family="HelveticaNeue-Thin,Helvetica Neue" font-size="50.0" fill="#EBEAE9" transform="matrix(1.00, 0.00, -0.00, -1.00, 217.8, 11.0)">n</text><text xml:space="preserve" font-family="HelveticaNeue-Thin,Helvetica Neue" font-size="50.0" fill="#EBEAE9" transform="matrix(1.00, 0.00, -0.00, -1.00, 243.8, 11.0)">g</text><text xml:space="preserve" font-family="HelveticaNeue-Thin,Helvetica Neue" font-size="50.0" fill="#EBEAE9" transform="matrix(1.00, 0.00, -0.00, -1.00, 270.6, 11.0)"> </text><text xml:space="preserve" font-family="HelveticaNeue-Thin,Helvetica Neue" font-size="50.0" fill="#EBEAE9" transform="matrix(1.00, 0.00, -0.00, -1.00, 284.5, 11.0)">w</text><text xml:space="preserve" font-family="HelveticaNeue-Thin,Helvetica Neue" font-size="50.0" fill="#EBEAE9" transform="matrix(1.00, 0.00, -0.00, -1.00, 319.7, 11.0)">i</text><text xml:space="preserve" font-family="HelveticaNeue-Thin,Helvetica Neue" font-size="50.0" fill="#EBEAE9" transform="matrix(1.00, 0.00, -0.00, -1.00, 328.1, 11.0)">t</text><text xml:space="preserve" font-family="HelveticaNeue-Thin,Helvetica Neue" font-size="50.0" fill="#EBEAE9" transform="matrix(1.00, 0.00, -0.00, -1.00, 341.1, 11.0)">h</text><text xml:space="preserve" font-family="HelveticaNeue-Thin,Helvetica Neue" font-size="50.0" fill="#EBEAE9" transform="matrix(1.00, 0.00, -0.00, -1.00, 367.0, 11.0)"> </text><text xml:space="preserve" font-family="HelveticaNeue-Thin,Helvetica Neue" font-size="50.0" fill="#3B3C1B" transform="matrix(1.00, 0.00, -0.00, -1.00, 380.9, 11.0)">a</text><text xml:space="preserve" font-family="HelveticaNeue-Thin,Helvetica Neue" font-size="50.0" fill="#3B3C1B" transform="matrix(1.00, 0.00, -0.00, -1.00, 405.9, 11.0)">c</text><text xml:space="preserve" font-family="HelveticaNeue-Thin,Helvetica Neue" font-size="50.0" fill="#3B3C1B" transform="matrix(1.00, 0.00, -0.00, -1.00, 431.9, 11.0)">a</text><text xml:space="preserve" font-family="HelveticaNeue-Thin,Helvetica Neue" font-size="50.0" fill="#3B3C1B" transform="matrix(1.00, 0.00, -0.00, -1.00, 456.9, 11.0)">d</text><text xml:space="preserve" font-family="HelveticaNeue-Thin,Helvetica Neue" font-size="50.0" fill="#3B3C1B" transform="matrix(1.00, 0.00, -0.00, -1.00, 484.7, 11.0)">e</text><text xml:space="preserve" font-family="HelveticaNeue-Thin,Helvetica Neue" font-size="50.0" fill="#3B3C1B" transform="matrix(1.00, 0.00, -0.00, -1.00, 510.6, 11.0)">m</text><text xml:space="preserve" font-family="HelveticaNeue-Thin,Helvetica Neue" font-size="50.0" fill="#3B3C1B" transform="matrix(1.00, 0.00, -0.00, -1.00, 550.4, 11.0)">i</text><text xml:space="preserve" font-family="HelveticaNeue-Thin,Helvetica Neue" font-size="50.0" fill="#3B3C1B" transform="matrix(1.00, 0.00, -0.00, -1.00, 558.8, 11.0)">c</text><text xml:space="preserve" font-family="HelveticaNeue-Thin,Helvetica Neue" font-size="50.0" fill="#3B3C1B" transform="matrix(1.00, 0.00, -0.00, -1.00, 584.8, 11.0)"> </text><text xml:space="preserve" font-family="HelveticaNeue-Thin,Helvetica Neue" font-size="50.0" fill="#3B3C1B" transform="matrix(1.00, 0.00, -0.00, -1.00, 598.7, 11.0)">p</text><text xml:space="preserve" font-family="HelveticaNeue-Thin,Helvetica Neue" font-size="50.0" fill="#3B3C1B" transform="matrix(1.00, 0.00, -0.00, -1.00, 626.5, 11.0)">r</text><text xml:space="preserve" font-family="HelveticaNeue-Thin,Helvetica Neue" font-size="50.0" fill="#3B3C1B" transform="matrix(1.00, 0.00, -0.00, -1.00, 639.8, 11.0)">o</text><text xml:space="preserve" font-family="HelveticaNeue-Thin,Helvetica Neue" font-size="50.0" fill="#3B3C1B" transform="matrix(1.00, 0.00, -0.00, -1.00, 666.6, 11.0)">j</text><text xml:space="preserve" font-family="HelveticaNeue-Thin,Helvetica Neue" font-size="50.0" fill="#3B3C1B" transform="matrix(1.00, 0.00, -0.00, -1.00, 675.0, 11.0)">e</text><text xml:space="preserve" font-family="HelveticaNeue-Thin,Helvetica Neue" font-size="50.0" fill="#3B3C1B" transform="matrix(1.00, 0.00, -0.00, -1.00, 701.0, 11.0)">c</text><text xml:space="preserve" font-family="HelveticaNeue-Thin,Helvetica Neue" font-size="50.0" fill="#3B3C1B" transform="matrix(1.00, 0.00, -0.00, -1.00, 726.9, 11.0)">t</text><text xml:space="preserve" font-family="HelveticaNeue-Thin,Helvetica Neue" font-size="50.0" fill="#3B3C1B" transform="matrix(1.00, 0.00, -0.00, -1.00, 739.9, 11.0)">s</text></g></svg>