<?xml version="1.0" encoding="UTF-8" standalone="no"?><svg xmlns="http://www.w3.org/2000/svg" xmlns:xlink="http://www.w3.org/1999/xlink" clip-rule="evenodd" stroke-miterlimit="10" viewBox="0 0 605 23"><desc>SVG generated by Keynote</desc><defs></defs><g transform="matrix(1.00, 0.00, -0.00, -1.00, 0.0, 23.0)"><text xml:space="preserve" font-family="HelveticaNeue-Light,Helvetica Neue" font-size="21.0" fill="#EBEAE9" transform="matrix(1.00, 0.00, -0.00, -1.00, 1.0, 5.7)">S</text><text xml:space="preserve" font-family="HelveticaNeue-Light,Helvetica Neue" font-size="21.0" fill="#EBEAE9" transform="matrix(1.00, 0.00, -0.00, -1.00, 14.2, 5.7)">t</text><text xml:space="preserve" font-family="HelveticaNeue-Light,Helvetica Neue" font-size="21.0" fill="#EBEAE9" transform="matrix(1.00, 0.00, -0.00, -1.00, 20.4, 5.7)">a</text><text xml:space="preserve" font-family="HelveticaNeue-Light,Helvetica Neue" font-size="21.0" fill="#EBEAE9" transform="matrix(1.00, 0.00, -0.00, -1.00, 31.3, 5.7)">t</text><text xml:space="preserve" font-family="HelveticaNeue-Light,Helvetica Neue" font-size="21.0" fill="#EBEAE9" transform="matrix(1.00, 0.00, -0.00, -1.00, 37.5, 5.7)">e</text><text xml:space="preserve" font-family="HelveticaNeue-Light,Helvetica Neue" font-size="21.0" fill="#EBEAE9" transform="matrix(1.00, 0.00, -0.00, -1.00, 48.4, 5.7)"> </text><text xml:space="preserve" font-family="HelveticaNeue-Light,Helvetica Neue" font-size="21.0" fill="#EBEAE9" transform="matrix(1.00, 0.00, -0.00, -1.00, 54.3, 5.7)">o</text><text xml:space="preserve" font-family="HelveticaNeue-Light,Helvetica Neue" font-size="21.0" fill="#EBEAE9" transform="matrix(1.00, 0.00, -0.00, -1.00, 65.9, 5.7)">f</text><text xml:space="preserve" font-family="HelveticaNeue-Light,Helvetica Neue" font-size="21.0" fill="#EBEAE9" transform="matrix(1.00, 0.00, -0.00, -1.00, 71.4, 5.7)"> </text><text xml:space="preserve" font-family="HelveticaNeue-Light,Helvetica Neue" font-size="21.0" fill="#EBEAE9" transform="matrix(1.00, 0.00, -0.00, -1.00, 77.2, 5.7)">t</text><text xml:space="preserve" font-family="HelveticaNeue-Light,Helvetica Neue" font-size="21.0" fill="#EBEAE9" transform="matrix(1.00, 0.00, -0.00, -1.00, 83.4, 5.7)">h</text><text xml:space="preserve" font-family="HelveticaNeue-Light,Helvetica Neue" font-size="21.0" fill="#EBEAE9" transform="matrix(1.00, 0.00, -0.00, -1.00, 94.7, 5.7)">e</text><text xml:space="preserve" font-family="HelveticaNeue-Light,Helvetica Neue" font-size="21.0" fill="#EBEAE9" transform="matrix(1.00, 0.00, -0.00, -1.00, 105.6, 5.7)"> </text><text xml:space="preserve" font-family="HelveticaNeue-Light,Helvetica Neue" font-size="21.0" fill="#EBEAE9" transform="matrix(1.00, 0.00, -0.00, -1.00, 111.4, 5.7)">M</text><text xml:space="preserve" font-family="HelveticaNeue-Light,Helvetica Neue" font-size="21.0" fill="#EBEAE9" transform="matrix(1.00, 0.00, -0.00, -1.00, 128.7, 5.7)">a</text><text xml:space="preserve" font-family="HelveticaNeue-Light,Helvetica Neue" font-size="21.0" fill="#EBEAE9" transform="matrix(1.00, 0.00, -0.00, -1.00, 139.6, 5.7)">p</text><text xml:space="preserve" font-family="HelveticaNeue-Light,Helvetica Neue" font-size="21.0" fill="#EBEAE9" transform="matrix(1.00, 0.00, -0.00, -1.00, 151.6, 5.7)"> </text><text xml:space="preserve" font-family="HelveticaNeue-Light,Helvetica Neue" font-size="21.0" fill="#EBEAE9" transform="matrix(1.00, 0.00, -0.00, -1.00, 157.5, 5.7)">B</text><text xml:space="preserve" font-family="HelveticaNeue-Light,Helvetica Neue" font-size="21.0" fill="#EBEAE9" transform="matrix(1.00, 0.00, -0.00, -1.00, 171.5, 5.7)">a</text><text xml:space="preserve" font-family="HelveticaNeue-Light,Helvetica Neue" font-size="21.0" fill="#EBEAE9" transform="matrix(1.00, 0.00, -0.00, -1.00, 182.4, 5.7)">l</text><text xml:space="preserve" font-family="HelveticaNeue-Light,Helvetica Neue" font-size="21.0" fill="#EBEAE9" transform="matrix(1.00, 0.00, -0.00, -1.00, 186.3, 5.7)">t</text><text xml:space="preserve" font-family="HelveticaNeue-Light,Helvetica Neue" font-size="21.0" fill="#EBEAE9" transform="matrix(1.00, 0.00, -0.00, -1.00, 192.5, 5.7)">i</text><text xml:space="preserve" font-family="HelveticaNeue-Light,Helvetica Neue" font-size="21.0" fill="#EBEAE9" transform="matrix(1.00, 0.00, -0.00, -1.00, 196.4, 5.7)">c</text><text xml:space="preserve" font-family="HelveticaNeue-Light,Helvetica Neue" font-size="21.0" fill="#EBEAE9" transform="matrix(1.00, 0.00, -0.00, -1.00, 207.3, 5.7)">s</text><text xml:space="preserve" font-family="HelveticaNeue-Light,Helvetica Neue" font-size="21.0" fill="#EBEAE9" transform="matrix(1.00, 0.00, -0.00, -1.00, 217.4, 5.7)"> </text><text xml:space="preserve" font-family="HelveticaNeue-Light,Helvetica Neue" font-size="21.0" fill="#EBEAE9" transform="matrix(1.00, 0.00, -0.00, -1.00, 223.2, 5.7)">2</text><text xml:space="preserve" font-family="HelveticaNeue-Light,Helvetica Neue" font-size="21.0" fill="#EBEAE9" transform="matrix(1.00, 0.00, -0.00, -1.00, 234.9, 5.7)">0</text><text xml:space="preserve" font-family="HelveticaNeue-Light,Helvetica Neue" font-size="21.0" fill="#EBEAE9" transform="matrix(1.00, 0.00, -0.00, -1.00, 246.6, 5.7)">1</text><text xml:space="preserve" font-family="HelveticaNeue-Light,Helvetica Neue" font-size="21.0" fill="#EBEAE9" transform="matrix(1.00, 0.00, -0.00, -1.00, 258.2, 5.7)">3</text><text xml:space="preserve" font-family="HelveticaNeue-Light,Helvetica Neue" font-size="21.0" fill="#EBEAE9" transform="matrix(1.00, 0.00, -0.00, -1.00, 269.9, 5.7)">,</text><text xml:space="preserve" font-family="HelveticaNeue-Light,Helvetica Neue" font-size="21.0" fill="#EBEAE9" transform="matrix(1.00, 0.00, -0.00, -1.00, 275.8, 5.7)"> </text><text xml:space="preserve" font-family="HelveticaNeue-Light,Helvetica Neue" font-size="21.0" fill="#EBEAE9" transform="matrix(1.00, 0.00, -0.00, -1.00, 281.6, 5.7)">J</text><text xml:space="preserve" font-family="HelveticaNeue-Light,Helvetica Neue" font-size="21.0" fill="#EBEAE9" transform="matrix(1.00, 0.00, -0.00, -1.00, 292.1, 5.7)">õ</text><text xml:space="preserve" font-family="HelveticaNeue-Light,Helvetica Neue" font-size="21.0" fill="#EBEAE9" transform="matrix(1.00, 0.00, -0.00, -1.00, 303.8, 5.7)">m</text><text xml:space="preserve" font-family="HelveticaNeue-Light,Helvetica Neue" font-size="21.0" fill="#EBEAE9" transform="matrix(1.00, 0.00, -0.00, -1.00, 321.3, 5.7)">m</text><text xml:space="preserve" font-family="HelveticaNeue-Light,Helvetica Neue" font-size="21.0" fill="#EBEAE9" transform="matrix(1.00, 0.00, -0.00, -1.00, 338.8, 5.7)">u</text><text xml:space="preserve" font-family="HelveticaNeue-Light,Helvetica Neue" font-size="21.0" fill="#EBEAE9" transform="matrix(1.00, 0.00, -0.00, -1.00, 350.0, 5.7)">,</text><text xml:space="preserve" font-family="HelveticaNeue-Light,Helvetica Neue" font-size="21.0" fill="#EBEAE9" transform="matrix(1.00, 0.00, -0.00, -1.00, 355.9, 5.7)"> </text><text xml:space="preserve" font-family="HelveticaNeue-Light,Helvetica Neue" font-size="21.0" fill="#EBEAE9" transform="matrix(1.00, 0.00, -0.00, -1.00, 361.7, 5.7)">S</text><text xml:space="preserve" font-family="HelveticaNeue-Light,Helvetica Neue" font-size="21.0" fill="#EBEAE9" transform="matrix(1.00, 0.00, -0.00, -1.00, 374.9, 5.7)">K</text><text xml:space="preserve" font-family="HelveticaNeue-Light,Helvetica Neue" font-size="21.0" fill="#EBEAE9" transform="matrix(1.00, 0.00, -0.00, -1.00, 388.5, 5.7)">5</text><text xml:space="preserve" font-family="HelveticaNeue-Light,Helvetica Neue" font-size="21.0" fill="#EBEAE9" transform="matrix(1.00, 0.00, -0.00, -1.00, 400.2, 5.7)">3</text><text xml:space="preserve" font-family="HelveticaNeue-Light,Helvetica Neue" font-size="21.0" fill="#EBEAE9" transform="matrix(1.00, 0.00, -0.00, -1.00, 411.9, 5.7)"> </text><text xml:space="preserve" font-family="HelveticaNeue-Light,Helvetica Neue" font-size="21.0" fill="#EBEAE9" transform="matrix(1.00, 0.00, -0.00, -1.00, 417.7, 5.7)">O</text><text xml:space="preserve" font-family="HelveticaNeue-Light,Helvetica Neue" font-size="21.0" fill="#EBEAE9" transform="matrix(1.00, 0.00, -0.00, -1.00, 433.3, 5.7)">S</text><text xml:space="preserve" font-family="HelveticaNeue-Light,Helvetica Neue" font-size="21.0" fill="#EBEAE9" transform="matrix(1.00, 0.00, -0.00, -1.00, 446.5, 5.7)">M</text><text xml:space="preserve" font-family="HelveticaNeue-Light,Helvetica Neue" font-size="21.0" fill="#EBEAE9" transform="matrix(1.00, 0.00, -0.00, -1.00, 463.8, 5.7)">,</text><text xml:space="preserve" font-family="HelveticaNeue-Light,Helvetica Neue" font-size="21.0" fill="#EBEAE9" transform="matrix(1.00, 0.00, -0.00, -1.00, 469.6, 5.7)"> </text><text xml:space="preserve" font-family="HelveticaNeue-Light,Helvetica Neue" font-size="21.0" fill="#EBEAE9" transform="matrix(1.00, 0.00, -0.00, -1.00, 475.4, 5.7)">C</text><text xml:space="preserve" font-family="HelveticaNeue-Light,Helvetica Neue" font-size="21.0" fill="#EBEAE9" transform="matrix(1.00, 0.00, -0.00, -1.00, 490.2, 5.7)">C</text><text xml:space="preserve" font-family="HelveticaNeue-Light,Helvetica Neue" font-size="21.0" fill="#EBEAE9" transform="matrix(1.00, 0.00, -0.00, -1.00, 505.0, 5.7)"> </text><text xml:space="preserve" font-family="HelveticaNeue-Light,Helvetica Neue" font-size="21.0" fill="#EBEAE9" transform="matrix(1.00, 0.00, -0.00, -1.00, 510.8, 5.7)">B</text><text xml:space="preserve" font-family="HelveticaNeue-Light,Helvetica Neue" font-size="21.0" fill="#EBEAE9" transform="matrix(1.00, 0.00, -0.00, -1.00, 524.9, 5.7)">y</text><text xml:space="preserve" font-family="HelveticaNeue-Light,Helvetica Neue" font-size="21.0" fill="#EBEAE9" transform="matrix(1.00, 0.00, -0.00, -1.00, 534.6, 5.7)">-</text><text xml:space="preserve" font-family="HelveticaNeue-Light,Helvetica Neue" font-size="21.0" fill="#EBEAE9" transform="matrix(1.00, 0.00, -0.00, -1.00, 542.3, 5.7)">S</text><text xml:space="preserve" font-family="HelveticaNeue-Light,Helvetica Neue" font-size="21.0" fill="#EBEAE9" transform="matrix(1.00, 0.00, -0.00, -1.00, 555.6, 5.7)">A</text><text xml:space="preserve" font-family="HelveticaNeue-Light,Helvetica Neue" font-size="21.0" fill="#EBEAE9" transform="matrix(1.00, 0.00, -0.00, -1.00, 568.8, 5.7)"> </text><text xml:space="preserve" font-family="HelveticaNeue-Light,Helvetica Neue" font-size="21.0" fill="#EBEAE9" transform="matrix(1.00, 0.00, -0.00, -1.00, 574.6, 5.7)">2</text><text xml:space="preserve" font-family="HelveticaNeue-Light,Helvetica Neue" font-size="21.0" fill="#EBEAE9" transform="matrix(1.00, 0.00, -0.00, -1.00, 586.3, 5.7)">.</text><text xml:space="preserve" font-family="HelveticaNeue-Light,Helvetica Neue" font-size="21.0" fill="#EBEAE9" transform="matrix(1.00, 0.00, -0.00, -1.00, 592.2, 5.7)">0</text></g></svg>