<?xml version="1.0" encoding="UTF-8" standalone="no"?><svg xmlns="http://www.w3.org/2000/svg" xmlns:xlink="http://www.w3.org/1999/xlink" clip-rule="evenodd" stroke-miterlimit="10" viewBox="0 0 1280 800"><desc>SVG generated by Keynote</desc><defs></defs><g transform="matrix(1.00, 0.00, -0.00, -1.00, 0.0, 800.0)"><path d="M 0.0 800.0 L 1280.0 800.0 L 1280.0 0.0 L 0.0 0.0 Z M 0.0 800.0 " fill="#BBB9B4"></path><image xlink:href="../../1CCF323D-B36F-4977-BFE1-CA9F234E94E1/assets/D8D39F9AF007BB3FAC63A0F9D80C1F79.jpeg" width="1024.00" height="768.00" transform="matrix(1.25, 0.00, -0.00, -1.25, 0.0, 879.0)"></image><text xml:space="preserve" font-family="HelveticaNeue-Light,Helvetica Neue" font-size="21.0" fill="#EBEAE9" transform="matrix(1.00, 0.00, -0.00, -1.00, 668.0, 13.7)">S</text><text xml:space="preserve" font-family="HelveticaNeue-Light,Helvetica Neue" font-size="21.0" fill="#EBEAE9" transform="matrix(1.00, 0.00, -0.00, -1.00, 681.2, 13.7)">t</text><text xml:space="preserve" font-family="HelveticaNeue-Light,Helvetica Neue" font-size="21.0" fill="#EBEAE9" transform="matrix(1.00, 0.00, -0.00, -1.00, 687.4, 13.7)">a</text><text xml:space="preserve" font-family="HelveticaNeue-Light,Helvetica Neue" font-size="21.0" fill="#EBEAE9" transform="matrix(1.00, 0.00, -0.00, -1.00, 698.3, 13.7)">t</text><text xml:space="preserve" font-family="HelveticaNeue-Light,Helvetica Neue" font-size="21.0" fill="#EBEAE9" transform="matrix(1.00, 0.00, -0.00, -1.00, 704.5, 13.7)">e</text><text xml:space="preserve" font-family="HelveticaNeue-Light,Helvetica Neue" font-size="21.0" fill="#EBEAE9" transform="matrix(1.00, 0.00, -0.00, -1.00, 715.4, 13.7)"> </text><text xml:space="preserve" font-family="HelveticaNeue-Light,Helvetica Neue" font-size="21.0" fill="#EBEAE9" transform="matrix(1.00, 0.00, -0.00, -1.00, 721.3, 13.7)">o</text><text xml:space="preserve" font-family="HelveticaNeue-Light,Helvetica Neue" font-size="21.0" fill="#EBEAE9" transform="matrix(1.00, 0.00, -0.00, -1.00, 732.9, 13.7)">f</text><text xml:space="preserve" font-family="HelveticaNeue-Light,Helvetica Neue" font-size="21.0" fill="#EBEAE9" transform="matrix(1.00, 0.00, -0.00, -1.00, 738.4, 13.7)"> </text><text xml:space="preserve" font-family="HelveticaNeue-Light,Helvetica Neue" font-size="21.0" fill="#EBEAE9" transform="matrix(1.00, 0.00, -0.00, -1.00, 744.2, 13.7)">t</text><text xml:space="preserve" font-family="HelveticaNeue-Light,Helvetica Neue" font-size="21.0" fill="#EBEAE9" transform="matrix(1.00, 0.00, -0.00, -1.00, 750.4, 13.7)">h</text><text xml:space="preserve" font-family="HelveticaNeue-Light,Helvetica Neue" font-size="21.0" fill="#EBEAE9" transform="matrix(1.00, 0.00, -0.00, -1.00, 761.7, 13.7)">e</text><text xml:space="preserve" font-family="HelveticaNeue-Light,Helvetica Neue" font-size="21.0" fill="#EBEAE9" transform="matrix(1.00, 0.00, -0.00, -1.00, 772.6, 13.7)"> </text><text xml:space="preserve" font-family="HelveticaNeue-Light,Helvetica Neue" font-size="21.0" fill="#EBEAE9" transform="matrix(1.00, 0.00, -0.00, -1.00, 778.4, 13.7)">M</text><text xml:space="preserve" font-family="HelveticaNeue-Light,Helvetica Neue" font-size="21.0" fill="#EBEAE9" transform="matrix(1.00, 0.00, -0.00, -1.00, 795.7, 13.7)">a</text><text xml:space="preserve" font-family="HelveticaNeue-Light,Helvetica Neue" font-size="21.0" fill="#EBEAE9" transform="matrix(1.00, 0.00, -0.00, -1.00, 806.6, 13.7)">p</text><text xml:space="preserve" font-family="HelveticaNeue-Light,Helvetica Neue" font-size="21.0" fill="#EBEAE9" transform="matrix(1.00, 0.00, -0.00, -1.00, 818.6, 13.7)"> </text><text xml:space="preserve" font-family="HelveticaNeue-Light,Helvetica Neue" font-size="21.0" fill="#EBEAE9" transform="matrix(1.00, 0.00, -0.00, -1.00, 824.5, 13.7)">B</text><text xml:space="preserve" font-family="HelveticaNeue-Light,Helvetica Neue" font-size="21.0" fill="#EBEAE9" transform="matrix(1.00, 0.00, -0.00, -1.00, 838.5, 13.7)">a</text><text xml:space="preserve" font-family="HelveticaNeue-Light,Helvetica Neue" font-size="21.0" fill="#EBEAE9" transform="matrix(1.00, 0.00, -0.00, -1.00, 849.4, 13.7)">l</text><text xml:space="preserve" font-family="HelveticaNeue-Light,Helvetica Neue" font-size="21.0" fill="#EBEAE9" transform="matrix(1.00, 0.00, -0.00, -1.00, 853.3, 13.7)">t</text><text xml:space="preserve" font-family="HelveticaNeue-Light,Helvetica Neue" font-size="21.0" fill="#EBEAE9" transform="matrix(1.00, 0.00, -0.00, -1.00, 859.5, 13.7)">i</text><text xml:space="preserve" font-family="HelveticaNeue-Light,Helvetica Neue" font-size="21.0" fill="#EBEAE9" transform="matrix(1.00, 0.00, -0.00, -1.00, 863.4, 13.7)">c</text><text xml:space="preserve" font-family="HelveticaNeue-Light,Helvetica Neue" font-size="21.0" fill="#EBEAE9" transform="matrix(1.00, 0.00, -0.00, -1.00, 874.3, 13.7)">s</text><text xml:space="preserve" font-family="HelveticaNeue-Light,Helvetica Neue" font-size="21.0" fill="#EBEAE9" transform="matrix(1.00, 0.00, -0.00, -1.00, 884.4, 13.7)"> </text><text xml:space="preserve" font-family="HelveticaNeue-Light,Helvetica Neue" font-size="21.0" fill="#EBEAE9" transform="matrix(1.00, 0.00, -0.00, -1.00, 890.2, 13.7)">2</text><text xml:space="preserve" font-family="HelveticaNeue-Light,Helvetica Neue" font-size="21.0" fill="#EBEAE9" transform="matrix(1.00, 0.00, -0.00, -1.00, 901.9, 13.7)">0</text><text xml:space="preserve" font-family="HelveticaNeue-Light,Helvetica Neue" font-size="21.0" fill="#EBEAE9" transform="matrix(1.00, 0.00, -0.00, -1.00, 913.6, 13.7)">1</text><text xml:space="preserve" font-family="HelveticaNeue-Light,Helvetica Neue" font-size="21.0" fill="#EBEAE9" transform="matrix(1.00, 0.00, -0.00, -1.00, 925.2, 13.7)">3</text><text xml:space="preserve" font-family="HelveticaNeue-Light,Helvetica Neue" font-size="21.0" fill="#EBEAE9" transform="matrix(1.00, 0.00, -0.00, -1.00, 936.9, 13.7)">,</text><text xml:space="preserve" font-family="HelveticaNeue-Light,Helvetica Neue" font-size="21.0" fill="#EBEAE9" transform="matrix(1.00, 0.00, -0.00, -1.00, 942.8, 13.7)"> </text><text xml:space="preserve" font-family="HelveticaNeue-Light,Helvetica Neue" font-size="21.0" fill="#EBEAE9" transform="matrix(1.00, 0.00, -0.00, -1.00, 948.6, 13.7)">J</text><text xml:space="preserve" font-family="HelveticaNeue-Light,Helvetica Neue" font-size="21.0" fill="#EBEAE9" transform="matrix(1.00, 0.00, -0.00, -1.00, 959.1, 13.7)">õ</text><text xml:space="preserve" font-family="HelveticaNeue-Light,Helvetica Neue" font-size="21.0" fill="#EBEAE9" transform="matrix(1.00, 0.00, -0.00, -1.00, 970.8, 13.7)">m</text><text xml:space="preserve" font-family="HelveticaNeue-Light,Helvetica Neue" font-size="21.0" fill="#EBEAE9" transform="matrix(1.00, 0.00, -0.00, -1.00, 988.3, 13.7)">m</text><text xml:space="preserve" font-family="HelveticaNeue-Light,Helvetica Neue" font-size="21.0" fill="#EBEAE9" transform="matrix(1.00, 0.00, -0.00, -1.00, 1005.8, 13.7)">u</text><text xml:space="preserve" font-family="HelveticaNeue-Light,Helvetica Neue" font-size="21.0" fill="#EBEAE9" transform="matrix(1.00, 0.00, -0.00, -1.00, 1017.0, 13.7)">,</text><text xml:space="preserve" font-family="HelveticaNeue-Light,Helvetica Neue" font-size="21.0" fill="#EBEAE9" transform="matrix(1.00, 0.00, -0.00, -1.00, 1022.9, 13.7)"> </text><text xml:space="preserve" font-family="HelveticaNeue-Light,Helvetica Neue" font-size="21.0" fill="#EBEAE9" transform="matrix(1.00, 0.00, -0.00, -1.00, 1028.7, 13.7)">S</text><text xml:space="preserve" font-family="HelveticaNeue-Light,Helvetica Neue" font-size="21.0" fill="#EBEAE9" transform="matrix(1.00, 0.00, -0.00, -1.00, 1041.9, 13.7)">K</text><text xml:space="preserve" font-family="HelveticaNeue-Light,Helvetica Neue" font-size="21.0" fill="#EBEAE9" transform="matrix(1.00, 0.00, -0.00, -1.00, 1055.5, 13.7)">5</text><text xml:space="preserve" font-family="HelveticaNeue-Light,Helvetica Neue" font-size="21.0" fill="#EBEAE9" transform="matrix(1.00, 0.00, -0.00, -1.00, 1067.2, 13.7)">3</text><text xml:space="preserve" font-family="HelveticaNeue-Light,Helvetica Neue" font-size="21.0" fill="#EBEAE9" transform="matrix(1.00, 0.00, -0.00, -1.00, 1078.9, 13.7)"> </text><text xml:space="preserve" font-family="HelveticaNeue-Light,Helvetica Neue" font-size="21.0" fill="#EBEAE9" transform="matrix(1.00, 0.00, -0.00, -1.00, 1084.7, 13.7)">O</text><text xml:space="preserve" font-family="HelveticaNeue-Light,Helvetica Neue" font-size="21.0" fill="#EBEAE9" transform="matrix(1.00, 0.00, -0.00, -1.00, 1100.3, 13.7)">S</text><text xml:space="preserve" font-family="HelveticaNeue-Light,Helvetica Neue" font-size="21.0" fill="#EBEAE9" transform="matrix(1.00, 0.00, -0.00, -1.00, 1113.5, 13.7)">M</text><text xml:space="preserve" font-family="HelveticaNeue-Light,Helvetica Neue" font-size="21.0" fill="#EBEAE9" transform="matrix(1.00, 0.00, -0.00, -1.00, 1130.8, 13.7)">,</text><text xml:space="preserve" font-family="HelveticaNeue-Light,Helvetica Neue" font-size="21.0" fill="#EBEAE9" transform="matrix(1.00, 0.00, -0.00, -1.00, 1136.6, 13.7)"> </text><text xml:space="preserve" font-family="HelveticaNeue-Light,Helvetica Neue" font-size="21.0" fill="#EBEAE9" transform="matrix(1.00, 0.00, -0.00, -1.00, 1142.4, 13.7)">C</text><text xml:space="preserve" font-family="HelveticaNeue-Light,Helvetica Neue" font-size="21.0" fill="#EBEAE9" transform="matrix(1.00, 0.00, -0.00, -1.00, 1157.2, 13.7)">C</text><text xml:space="preserve" font-family="HelveticaNeue-Light,Helvetica Neue" font-size="21.0" fill="#EBEAE9" transform="matrix(1.00, 0.00, -0.00, -1.00, 1172.0, 13.7)"> </text><text xml:space="preserve" font-family="HelveticaNeue-Light,Helvetica Neue" font-size="21.0" fill="#EBEAE9" transform="matrix(1.00, 0.00, -0.00, -1.00, 1177.8, 13.7)">B</text><text xml:space="preserve" font-family="HelveticaNeue-Light,Helvetica Neue" font-size="21.0" fill="#EBEAE9" transform="matrix(1.00, 0.00, -0.00, -1.00, 1191.9, 13.7)">y</text><text xml:space="preserve" font-family="HelveticaNeue-Light,Helvetica Neue" font-size="21.0" fill="#EBEAE9" transform="matrix(1.00, 0.00, -0.00, -1.00, 1201.6, 13.7)">-</text><text xml:space="preserve" font-family="HelveticaNeue-Light,Helvetica Neue" font-size="21.0" fill="#EBEAE9" transform="matrix(1.00, 0.00, -0.00, -1.00, 1209.3, 13.7)">S</text><text xml:space="preserve" font-family="HelveticaNeue-Light,Helvetica Neue" font-size="21.0" fill="#EBEAE9" transform="matrix(1.00, 0.00, -0.00, -1.00, 1222.6, 13.7)">A</text><text xml:space="preserve" font-family="HelveticaNeue-Light,Helvetica Neue" font-size="21.0" fill="#EBEAE9" transform="matrix(1.00, 0.00, -0.00, -1.00, 1235.8, 13.7)"> </text><text xml:space="preserve" font-family="HelveticaNeue-Light,Helvetica Neue" font-size="21.0" fill="#EBEAE9" transform="matrix(1.00, 0.00, -0.00, -1.00, 1241.6, 13.7)">2</text><text xml:space="preserve" font-family="HelveticaNeue-Light,Helvetica Neue" font-size="21.0" fill="#EBEAE9" transform="matrix(1.00, 0.00, -0.00, -1.00, 1253.3, 13.7)">.</text><text xml:space="preserve" font-family="HelveticaNeue-Light,Helvetica Neue" font-size="21.0" fill="#EBEAE9" transform="matrix(1.00, 0.00, -0.00, -1.00, 1259.2, 13.7)">0</text></g></svg>