<?xml version="1.0" encoding="UTF-8" standalone="no"?><svg xmlns="http://www.w3.org/2000/svg" xmlns:xlink="http://www.w3.org/1999/xlink" clip-rule="evenodd" stroke-miterlimit="10" viewBox="0 0 141 71"><desc>SVG generated by Keynote</desc><defs></defs><g transform="matrix(1.00, 0.00, -0.00, -1.00, 0.0, 71.0)"><path d="M 39.2 7.8 C 39.0 7.9 38.8 8.0 38.5 8.1 C 38.6 8.1 38.8 8.2 38.8 8.3 C 39.1 8.2 39.5 8.1 40.1 8.0 C 40.0 7.9 39.7 8.0 39.5 8.0 C 39.3 8.0 39.3 7.9 39.2 7.8 C 39.2 7.8 39.2 7.8 39.2 7.8 Z M 30.2 56.5 C 29.7 56.3 30.1 56.8 30.3 56.9 C 30.3 56.9 30.4 56.8 30.6 56.9 C 30.5 57.2 30.1 57.1 29.7 57.0 C 28.4 56.4 29.6 56.3 30.2 56.5 C 30.2 56.5 30.2 56.5 30.2 56.5 Z M 103.2 62.6 C 104.4 62.4 103.1 62.3 102.9 62.3 C 103.4 62.1 102.9 61.7 103.6 61.5 C 103.7 61.7 104.0 61.7 104.2 61.8 C 103.9 61.9 103.4 62.0 103.4 62.1 C 103.8 62.0 104.3 61.9 104.4 62.0 C 103.6 62.2 104.4 62.3 104.5 62.5 C 103.8 62.6 103.6 62.9 103.2 62.6 C 103.2 62.6 103.2 62.6 103.2 62.6 Z M 125.8 23.6 C 126.2 23.8 126.4 24.1 126.3 24.2 C 125.9 23.9 125.7 23.7 125.5 23.5 C 125.4 23.5 125.4 23.7 125.1 23.5 C 124.8 23.1 125.2 22.9 125.5 22.9 C 125.4 23.1 126.7 23.9 125.8 23.6 C 125.8 23.6 125.8 23.6 125.8 23.6 Z M 96.1 12.0 C 95.2 11.7 96.0 12.4 95.0 12.1 C 95.1 11.8 95.0 11.5 95.7 11.6 C 95.7 11.8 96.1 11.9 96.1 12.0 C 96.1 12.0 96.1 12.0 96.1 12.0 Z M 72.2 62.1 C 72.2 62.3 73.0 62.2 72.8 62.5 C 72.4 62.5 72.0 62.5 71.6 62.5 C 71.6 62.2 71.7 62.1 72.2 62.1 C 72.2 62.1 72.2 62.1 72.2 62.1 Z M 110.0 58.2 C 111.1 58.2 112.1 57.5 111.9 57.8 C 112.4 58.0 111.4 58.9 111.3 58.6 C 111.1 58.2 109.2 58.4 110.0 58.2 C 110.0 58.2 110.0 58.2 110.0 58.2 Z M 37.4 53.5 C 38.4 54.1 38.4 53.2 39.1 53.8 C 38.8 53.8 38.7 53.8 38.6 53.9 C 38.7 54.0 39.0 54.0 39.0 54.1 C 38.4 54.0 37.8 53.9 37.4 53.5 C 37.4 53.5 37.4 53.5 37.4 53.5 Z M 57.9 6.9 C 58.1 6.9 58.2 6.8 58.2 6.7 C 59.1 6.7 59.0 6.5 59.6 6.7 C 59.6 7.1 58.9 6.9 58.2 6.9 C 58.2 6.9 57.9 7.0 57.9 6.9 C 57.9 6.9 57.9 6.9 57.9 6.9 Z M 82.8 9.4 C 82.8 9.2 82.3 9.0 83.1 9.0 C 84.0 9.5 83.1 9.7 82.2 9.7 C 82.2 9.9 82.1 10.0 82.1 10.1 C 82.5 10.2 82.7 10.3 82.9 10.3 C 83.2 9.9 83.7 10.8 85.1 10.7 C 84.4 10.9 85.1 11.3 84.3 11.0 C 84.5 11.3 83.8 11.2 83.9 11.5 C 84.3 11.4 85.2 11.5 85.1 11.1 C 85.6 11.2 85.9 11.3 86.2 11.4 C 86.5 11.8 85.3 11.3 85.6 11.7 C 85.8 11.8 85.9 11.9 86.1 11.9 C 86.2 11.8 86.1 11.6 86.4 11.7 C 87.3 11.9 86.2 12.0 87.4 12.2 C 87.5 12.1 87.2 12.0 87.2 11.8 C 87.8 11.7 87.8 12.0 88.3 11.9 C 88.4 12.1 87.9 12.1 88.3 12.2 C 88.7 11.8 89.4 12.6 90.2 12.4 C 89.8 11.7 90.3 12.6 91.1 12.1 C 91.2 12.3 90.7 12.6 91.3 12.7 C 91.2 11.9 93.6 12.6 91.8 11.6 C 92.8 11.8 93.2 11.3 92.4 11.0 C 94.2 11.5 93.7 11.0 94.4 11.1 C 95.1 11.3 94.0 11.2 94.3 11.5 C 93.6 11.3 93.7 11.6 93.2 11.3 C 93.2 11.4 93.1 11.5 92.9 11.5 C 93.7 11.5 94.4 12.1 93.8 12.3 C 93.5 12.2 93.9 12.0 93.4 11.8 C 93.5 12.3 92.9 11.6 92.8 11.9 C 93.1 12.4 92.0 12.5 92.9 12.8 C 93.0 12.6 93.0 12.4 93.0 12.3 C 93.3 12.3 93.6 12.4 93.8 12.4 C 94.0 12.8 93.8 12.9 94.0 13.1 C 94.4 13.2 94.7 13.2 94.8 13.1 C 94.3 12.9 93.7 12.5 94.6 12.6 C 94.1 13.1 95.8 13.0 95.0 13.2 C 96.0 13.6 96.6 13.3 96.6 13.7 C 97.1 13.8 96.8 13.4 97.4 13.6 C 98.3 14.1 98.3 13.6 99.5 14.2 C 99.8 13.8 99.6 14.3 100.0 14.4 C 100.0 14.3 100.1 14.1 100.1 13.9 C 100.5 14.3 101.5 14.7 102.6 14.7 C 102.8 14.9 102.6 15.1 103.3 15.3 C 104.1 15.1 104.8 15.8 105.8 15.6 C 105.8 15.9 106.4 16.1 106.8 16.1 C 106.9 16.2 106.3 16.4 106.9 16.6 C 107.3 16.5 106.7 16.2 107.5 16.3 C 107.3 16.6 108.3 16.3 108.2 16.6 C 107.9 16.7 107.6 16.7 107.4 16.7 C 107.7 16.8 107.6 16.9 107.8 17.0 C 107.9 16.6 108.3 17.2 108.5 17.3 C 108.5 17.1 108.7 17.0 108.9 17.0 C 109.3 17.1 109.6 17.2 109.8 17.2 C 110.3 17.6 109.5 17.4 110.0 17.6 C 110.5 17.0 110.7 18.0 111.9 17.9 C 112.1 18.3 112.5 18.6 113.2 18.9 C 113.3 18.7 112.5 18.5 112.6 18.3 C 113.6 18.8 112.5 18.1 113.1 18.3 C 114.5 19.1 114.6 19.1 116.8 20.4 C 116.9 20.2 118.8 20.9 118.7 21.0 C 118.2 20.8 119.4 21.8 120.1 22.2 C 120.5 21.9 121.8 22.1 122.0 21.9 C 122.1 22.3 122.0 22.3 121.9 22.7 C 123.0 23.5 123.8 23.5 124.1 24.4 C 124.2 24.1 124.7 24.4 125.1 24.6 C 124.9 24.7 124.6 24.7 124.3 24.7 C 124.8 25.0 124.8 25.2 125.2 25.5 C 126.2 25.2 126.3 26.6 127.1 26.2 C 127.8 26.7 127.4 26.9 128.0 27.4 C 128.1 27.2 128.3 27.2 128.5 27.3 C 128.1 27.0 127.6 26.9 127.6 26.5 C 128.6 27.2 126.4 24.4 128.1 25.4 C 128.1 25.5 127.8 25.6 128.1 25.9 C 129.1 26.5 128.8 25.9 128.4 25.6 C 129.1 26.0 129.6 26.6 129.4 25.9 C 130.7 27.0 129.7 26.4 130.0 27.0 C 132.4 28.8 134.7 31.7 135.5 35.1 C 135.9 35.1 136.0 37.0 135.9 37.6 C 136.3 38.5 136.4 39.5 136.0 39.8 C 136.3 40.0 135.7 40.9 136.0 41.0 C 136.0 40.6 136.2 40.4 136.2 40.8 C 135.9 42.2 135.2 44.1 135.1 45.0 C 134.5 45.3 134.2 46.1 134.1 46.7 C 133.9 46.7 134.1 46.3 133.8 46.6 C 133.9 46.8 133.3 48.0 133.0 48.2 C 133.3 47.9 133.2 47.3 132.8 47.7 C 133.0 47.9 132.5 48.4 132.8 48.4 C 132.1 49.0 131.9 49.5 131.3 49.9 C 131.7 49.5 131.8 49.1 131.7 48.9 C 131.5 49.4 131.3 49.8 130.8 49.9 C 131.2 50.1 130.4 50.5 129.9 51.3 C 129.6 51.3 129.4 51.3 128.8 51.8 C 128.7 52.2 129.9 51.3 129.3 51.9 C 129.2 51.8 128.5 52.1 128.8 52.3 C 127.9 52.8 127.6 53.3 126.8 53.5 C 127.7 53.0 126.8 53.1 126.5 53.2 C 126.3 53.3 126.0 53.5 126.1 53.6 C 126.2 53.7 126.6 53.4 126.7 53.4 C 126.0 53.7 126.1 54.3 125.7 54.2 C 126.0 54.0 126.0 53.8 125.6 54.0 C 125.8 54.5 123.6 55.3 124.2 54.7 C 124.2 54.8 125.0 54.4 125.0 54.2 C 124.7 54.2 123.7 55.0 123.8 54.6 C 124.4 54.2 124.5 54.4 125.2 53.9 C 125.2 53.7 125.6 53.3 125.8 53.1 C 124.6 53.8 124.5 54.2 124.2 54.0 C 123.6 54.4 124.1 54.5 123.2 54.9 C 121.8 55.5 122.8 54.7 122.4 54.7 C 121.2 55.5 121.8 55.7 122.4 55.7 C 121.5 56.2 121.2 56.5 119.9 57.0 C 119.9 56.8 120.0 56.6 120.5 56.3 C 120.5 56.4 121.6 56.1 121.5 56.0 C 121.2 55.6 120.3 55.8 118.9 56.3 C 119.4 56.6 119.4 56.3 118.0 56.9 C 118.4 57.2 117.3 57.1 117.3 57.4 C 117.4 57.4 117.9 57.2 118.4 57.0 C 118.4 57.2 118.3 57.4 117.9 57.7 C 117.5 57.7 117.3 57.9 116.4 58.1 C 116.3 57.9 116.9 57.6 117.0 57.4 C 116.5 57.6 116.4 57.8 115.9 58.0 C 115.4 57.8 115.3 57.4 115.2 57.0 C 115.8 56.8 116.6 56.5 115.9 56.5 C 117.9 55.7 115.9 56.9 116.7 56.7 C 117.4 56.0 117.2 56.7 118.4 56.2 C 118.8 56.0 118.9 55.9 119.0 55.7 C 118.9 55.7 118.1 55.7 118.9 55.3 C 119.2 55.5 119.7 55.4 120.3 55.2 C 120.3 55.0 118.9 55.5 120.2 54.9 C 120.8 54.6 120.4 55.3 121.3 54.8 C 121.2 54.7 121.5 54.6 121.5 54.5 C 120.3 55.1 121.6 54.2 120.7 54.4 C 121.7 53.8 121.1 54.6 121.7 54.3 C 121.7 54.1 122.9 53.9 122.8 53.5 C 122.5 53.9 121.6 54.2 121.6 53.9 C 122.4 53.6 125.4 51.5 124.5 52.7 C 124.8 52.2 126.7 50.5 126.6 50.8 C 126.0 51.2 126.2 51.4 126.2 51.6 C 127.2 50.5 127.9 50.3 128.6 49.0 C 127.5 50.0 128.0 48.9 127.2 49.3 C 126.9 49.5 126.4 49.8 126.4 50.0 C 126.7 50.1 127.1 49.6 127.2 49.3 C 127.4 49.5 127.6 49.7 127.7 50.0 C 126.2 50.8 125.5 51.6 124.7 52.0 C 125.3 51.5 123.2 52.3 124.0 51.8 C 124.4 51.8 125.2 51.4 125.8 51.0 C 125.7 50.9 125.7 50.8 125.6 50.8 C 125.9 50.6 126.3 50.3 126.2 50.2 C 125.5 50.8 124.9 50.9 124.4 51.4 C 124.4 51.4 124.3 51.3 124.3 51.3 C 124.1 51.4 124.0 51.4 124.0 51.3 C 124.3 51.2 124.7 50.9 124.7 50.8 C 124.0 51.1 123.7 51.0 123.0 51.3 C 123.0 50.9 121.8 51.1 122.8 50.4 C 123.1 50.6 123.7 50.4 123.8 50.5 C 124.2 50.4 124.7 50.0 124.9 49.7 C 124.5 49.7 123.9 50.0 123.7 49.8 C 124.1 49.4 124.4 49.1 124.8 49.1 C 124.0 49.9 125.5 49.0 126.0 49.0 C 125.8 49.0 125.5 49.0 125.3 49.0 C 126.0 48.5 126.4 48.5 126.2 48.1 C 126.9 47.4 126.9 47.8 127.4 47.3 C 126.8 47.3 127.5 46.9 127.0 46.9 C 127.7 46.2 127.5 47.0 127.7 46.7 C 127.9 46.5 127.9 46.4 128.0 46.1 C 128.5 46.0 129.0 45.3 129.4 45.4 C 129.6 45.1 129.7 45.2 129.9 44.9 C 129.9 44.7 129.9 44.6 129.9 44.4 C 130.0 44.4 130.2 44.3 130.2 44.1 C 129.3 44.7 129.4 44.5 128.6 45.1 C 128.6 45.2 128.5 45.3 128.8 45.2 C 128.4 45.8 128.1 45.9 127.7 46.4 C 127.4 46.3 127.0 46.0 126.8 46.7 C 126.7 46.4 126.5 46.4 126.6 46.2 C 126.9 46.1 127.3 45.8 127.7 45.6 C 127.6 45.5 127.5 45.4 127.6 45.3 C 127.9 45.2 128.1 45.0 128.2 44.7 C 128.3 44.8 128.3 44.9 128.3 45.1 C 128.9 44.4 128.4 44.4 128.9 44.0 C 128.7 44.0 128.5 44.3 128.5 43.9 C 128.8 43.4 129.0 43.4 129.2 43.2 C 129.1 43.1 129.0 43.1 129.1 43.0 C 129.5 42.7 129.2 44.0 129.9 43.6 C 129.6 43.4 130.1 42.8 130.3 42.8 C 130.4 43.1 129.9 43.3 130.1 43.5 C 130.7 42.3 130.6 43.7 131.2 42.4 C 131.0 42.4 130.9 42.4 130.8 42.3 C 130.7 42.8 130.4 42.7 130.2 42.6 C 130.0 43.0 129.5 43.0 129.5 43.4 C 129.1 43.0 129.7 43.0 129.9 42.7 C 129.6 42.5 129.4 42.9 129.2 42.8 C 129.8 42.1 129.5 41.8 130.1 41.0 C 129.7 41.1 130.2 40.5 129.9 40.6 C 129.9 41.3 129.1 40.8 128.9 40.9 C 128.9 41.3 129.5 41.3 129.6 41.6 C 129.2 41.6 129.1 41.5 128.7 41.3 C 128.9 41.0 128.8 41.0 128.8 40.7 C 129.1 40.5 129.7 40.4 129.8 40.8 C 129.7 40.7 129.6 40.2 129.9 40.2 C 129.8 40.7 130.0 40.1 130.1 40.4 C 130.4 40.1 130.0 39.3 130.3 38.8 C 130.1 38.9 130.0 38.7 129.9 38.7 C 130.2 39.2 129.5 39.3 129.5 39.7 C 129.5 39.6 129.3 39.7 129.2 39.7 C 129.4 39.3 129.1 39.1 129.4 38.8 C 129.3 38.8 129.2 38.8 129.1 38.8 C 129.2 38.3 129.1 38.3 128.8 38.0 C 128.9 37.8 129.5 37.9 129.8 37.9 C 129.6 37.7 129.5 36.9 129.3 37.4 C 129.1 37.0 129.6 36.9 129.4 36.4 C 129.1 36.6 129.3 37.0 128.8 37.0 C 128.6 36.6 129.1 36.7 128.7 36.4 C 128.9 36.3 129.2 36.2 128.9 35.8 C 128.9 36.1 128.8 35.8 128.6 35.7 C 128.6 35.9 128.7 36.1 128.6 36.3 C 128.4 35.5 128.3 35.4 127.8 34.8 C 128.2 34.8 128.1 34.4 128.5 34.8 C 128.1 34.5 128.1 33.8 127.8 33.7 C 127.8 34.0 128.1 34.4 128.1 34.6 C 127.2 33.5 126.3 33.1 125.5 31.6 C 125.7 31.8 126.0 32.1 126.1 32.0 C 126.0 31.9 125.7 31.7 125.8 31.6 C 126.2 32.0 126.6 32.4 126.8 32.6 C 127.0 33.0 126.5 32.5 126.7 32.9 C 126.9 32.8 127.4 33.6 127.5 33.1 C 126.7 32.7 126.4 31.9 126.5 31.3 C 125.5 31.1 126.1 31.6 125.0 31.4 C 125.2 31.3 125.1 31.1 124.9 30.9 C 124.8 31.4 124.1 30.5 124.0 30.4 C 124.5 30.5 125.8 31.5 125.5 30.6 C 125.2 31.4 124.1 29.2 124.0 29.9 C 123.1 29.2 123.7 29.2 123.0 29.1 C 123.0 29.0 123.2 28.9 122.9 28.7 C 122.6 28.5 122.5 28.5 122.3 28.5 C 123.6 29.6 123.0 29.6 123.7 30.3 C 123.6 30.2 123.5 30.1 123.4 30.2 C 123.4 30.3 123.4 30.3 123.2 30.1 C 123.4 29.8 122.5 29.7 122.4 29.3 C 122.7 29.5 123.0 29.7 123.0 29.5 C 121.9 28.7 122.4 28.5 120.7 27.2 C 121.1 27.7 120.4 27.4 119.7 27.0 C 118.8 26.4 119.4 26.2 118.3 25.6 C 118.0 26.3 117.0 24.8 115.3 24.5 C 115.6 24.2 114.1 23.3 113.7 23.5 C 113.7 23.3 113.2 23.2 112.9 23.0 C 112.9 22.8 113.3 22.9 113.0 22.7 C 112.7 22.7 112.8 23.1 112.4 22.9 C 112.0 22.6 112.2 22.4 111.5 22.1 C 111.4 22.4 111.8 22.4 111.4 22.5 C 110.8 22.1 110.3 21.9 110.7 22.4 C 109.8 22.1 110.4 21.7 109.5 21.4 C 109.7 21.7 109.7 21.7 109.2 21.6 C 109.0 21.3 109.0 21.1 108.9 21.0 C 108.6 21.1 108.7 21.2 108.0 20.8 C 107.9 21.0 107.9 21.1 107.8 21.2 C 107.5 21.1 107.0 20.9 107.0 20.8 C 107.6 21.1 107.5 20.8 107.8 20.7 C 107.2 20.5 106.1 19.8 106.9 20.4 C 105.9 20.3 106.5 20.0 105.8 19.8 C 106.1 20.3 105.8 19.9 105.1 19.7 C 105.0 20.1 104.6 19.6 104.1 19.5 C 104.1 19.7 103.9 19.8 103.5 19.7 C 103.6 19.6 103.3 19.4 102.8 19.3 C 102.8 19.5 103.7 19.9 102.8 19.6 C 102.3 19.3 102.4 19.0 101.7 18.8 C 101.6 18.4 102.4 18.8 102.3 18.4 C 101.6 18.5 101.5 18.2 100.6 17.9 C 100.8 18.6 98.6 18.1 99.6 18.7 C 99.3 18.6 98.8 18.9 98.6 18.5 C 99.0 18.5 98.4 18.1 98.5 18.1 C 98.0 18.0 97.0 17.6 97.0 17.8 C 97.9 17.9 97.9 18.2 98.1 18.5 C 96.7 18.3 95.5 17.9 95.7 17.6 C 95.6 17.7 95.4 17.6 95.4 17.7 C 95.9 17.8 96.1 18.4 95.5 18.3 C 95.7 18.0 95.3 17.8 94.9 17.6 C 94.8 17.9 93.0 17.0 93.3 17.5 C 94.1 17.5 94.6 18.1 93.9 18.1 C 93.5 17.7 92.6 17.3 92.8 17.1 C 92.5 17.2 92.3 17.2 92.0 17.3 C 91.7 17.5 92.3 17.6 92.1 17.8 C 91.8 17.7 91.2 17.7 91.1 17.5 C 92.2 17.7 90.6 17.2 91.7 17.2 C 91.1 17.1 91.0 16.9 90.5 16.8 C 90.4 16.9 90.2 16.8 90.2 16.9 C 90.7 16.8 91.1 17.1 90.9 17.4 C 90.0 17.2 90.2 16.9 89.4 16.8 C 89.1 16.9 88.0 17.1 87.5 16.8 C 88.5 17.0 87.4 16.7 88.1 16.6 C 89.0 17.0 89.3 16.7 89.7 16.5 C 89.3 16.3 88.5 16.0 88.4 16.4 C 88.9 16.5 88.9 16.3 89.2 16.3 C 89.1 16.5 89.0 16.6 88.6 16.6 C 88.2 16.3 87.2 16.4 87.9 16.1 C 87.2 16.1 86.5 15.7 85.8 15.8 C 86.5 16.0 87.1 16.2 87.3 16.5 C 86.6 16.5 86.0 16.0 86.0 16.3 C 86.0 16.5 87.0 16.6 87.2 16.9 C 86.3 17.0 85.2 16.0 86.1 16.8 C 85.7 16.7 85.0 16.6 84.9 16.4 C 85.4 16.4 84.9 15.9 84.6 15.8 C 84.1 15.8 83.7 15.8 83.5 15.9 C 84.3 15.9 84.8 16.4 84.3 16.3 C 84.2 16.1 84.0 16.3 83.8 16.3 C 83.7 16.1 82.9 16.1 82.7 16.0 C 82.8 16.1 83.2 16.2 83.2 16.3 C 82.7 16.4 81.9 16.7 81.6 16.2 C 81.9 16.2 82.4 16.3 82.4 16.2 C 81.1 15.6 80.7 15.2 79.0 14.8 C 79.3 14.8 79.4 14.7 79.3 14.6 C 78.3 14.5 77.6 14.2 77.8 14.0 C 77.1 14.0 76.7 14.2 76.4 14.3 C 77.0 14.5 77.3 14.3 77.7 14.5 C 77.4 14.6 78.2 15.2 78.4 15.4 C 79.6 15.2 79.6 15.8 80.9 15.7 C 80.5 16.0 81.7 15.9 81.3 16.2 C 80.3 15.6 79.2 15.8 77.6 15.4 C 77.8 15.2 78.0 15.0 77.4 14.8 C 76.4 14.5 76.8 15.0 76.0 14.9 C 75.7 14.6 76.2 14.6 75.8 14.4 C 75.5 14.5 74.7 14.4 74.4 14.1 C 75.5 14.3 74.2 13.9 75.0 13.8 C 74.6 13.7 74.4 13.7 74.2 13.6 C 75.2 14.1 73.1 13.9 73.9 14.3 C 72.3 14.3 73.8 13.5 72.5 13.5 C 73.1 13.7 72.3 13.8 71.4 13.7 C 71.2 13.4 70.3 13.3 69.5 13.1 C 69.9 13.3 70.2 13.3 69.5 13.5 C 69.9 13.6 70.5 13.7 70.9 13.6 C 70.9 13.7 71.0 13.8 71.1 13.9 C 70.2 13.9 70.6 14.1 70.3 14.1 C 70.0 14.0 69.4 13.9 69.2 13.8 C 69.2 13.9 69.0 13.9 68.9 14.0 C 70.1 14.0 68.7 14.4 69.5 14.5 C 70.0 14.5 69.7 14.2 70.3 14.2 C 70.9 14.7 69.8 14.6 69.4 14.9 C 69.9 15.2 70.6 14.8 70.8 15.2 C 70.1 15.5 69.0 15.2 68.1 15.0 C 68.1 15.4 66.6 14.9 66.4 15.4 C 66.3 15.2 66.1 15.1 65.9 15.0 C 65.6 15.4 65.3 14.9 65.1 14.9 C 65.0 15.1 65.1 15.2 65.3 15.3 C 64.2 15.1 64.0 15.1 62.6 15.3 C 62.4 15.1 62.2 14.9 62.1 14.7 C 62.4 14.6 62.7 14.6 62.9 14.5 C 61.1 14.4 62.3 15.3 61.0 14.8 C 61.1 14.9 61.9 15.3 61.3 15.4 C 60.2 15.0 58.6 15.4 58.6 14.5 C 57.6 14.2 56.9 14.8 56.5 14.4 C 56.1 14.5 56.0 14.6 55.9 14.7 C 56.2 14.8 56.6 15.0 57.0 15.1 C 57.6 15.0 57.9 15.2 57.3 14.8 C 58.2 14.8 58.4 15.0 58.9 15.1 C 57.6 15.3 56.5 15.1 56.5 15.6 C 56.1 15.4 55.8 15.2 55.4 15.0 C 55.3 15.2 53.9 15.4 53.8 15.1 C 54.7 15.1 55.7 14.7 54.8 14.5 C 52.6 14.8 51.3 14.4 49.4 14.9 C 49.3 14.7 49.4 14.5 49.1 14.5 C 49.1 14.7 49.0 14.8 48.8 14.9 C 48.2 14.9 47.9 14.8 47.0 15.0 C 47.1 14.7 46.9 14.5 46.4 14.5 C 46.2 14.8 45.5 15.5 45.0 15.4 C 45.5 15.4 44.8 15.1 44.5 15.1 C 44.8 15.5 42.2 15.1 43.0 15.4 C 42.0 15.5 41.5 15.4 41.5 15.3 C 41.1 15.4 40.9 15.5 40.5 15.7 C 40.2 15.3 38.6 15.9 38.3 15.7 C 38.9 15.8 38.9 15.3 38.5 15.4 C 38.2 15.7 36.7 16.2 36.4 16.2 C 36.5 16.1 36.5 15.8 37.3 15.5 C 36.0 15.7 36.1 16.2 35.8 16.6 C 35.7 16.1 35.2 16.6 35.1 16.7 C 34.6 16.6 35.1 16.6 35.0 16.3 C 34.5 16.4 34.3 16.2 33.8 16.4 C 34.0 16.7 33.4 16.7 33.1 16.6 C 33.1 16.9 32.8 17.1 32.3 17.3 C 32.9 16.6 29.4 17.5 30.3 17.6 C 29.7 18.1 29.5 17.5 28.7 17.8 C 28.6 18.0 28.1 18.0 28.6 18.1 C 27.9 18.4 28.0 17.9 26.8 18.5 C 27.5 18.7 25.5 18.9 26.0 19.2 C 25.2 18.9 24.5 19.9 23.4 19.9 C 23.4 20.0 23.2 20.1 23.1 20.2 C 23.0 20.4 24.4 20.0 23.6 20.4 C 22.5 20.6 23.0 20.3 22.8 20.2 C 20.2 21.5 17.5 22.9 15.7 24.2 C 16.0 24.1 16.0 24.2 15.7 24.5 C 14.8 24.5 13.4 26.4 13.3 26.7 C 12.9 26.6 12.6 27.7 12.3 27.7 C 12.5 27.6 12.4 27.1 12.2 27.4 C 12.3 27.9 11.9 28.0 12.0 28.5 C 11.6 28.5 11.5 29.7 11.1 28.9 C 11.0 29.1 10.9 29.2 10.8 29.3 C 11.2 29.5 11.0 29.7 11.3 29.4 C 10.7 30.2 11.0 30.5 10.7 31.1 C 10.8 31.3 11.1 30.8 11.1 31.2 C 11.0 31.2 10.9 31.2 10.9 31.2 C 10.8 31.3 11.0 31.4 10.8 31.4 C 10.7 31.4 10.7 31.2 10.4 31.1 C 10.4 31.5 10.0 31.7 10.3 31.8 C 10.4 31.3 10.9 31.7 10.6 32.0 C 10.4 31.7 10.7 33.1 10.9 33.5 C 10.6 33.8 10.8 33.0 10.6 33.1 C 10.7 34.0 10.6 34.0 11.0 34.0 C 11.0 34.4 10.9 34.7 11.3 35.2 C 11.3 35.6 11.0 35.1 11.1 35.4 C 11.3 35.6 11.5 35.6 11.6 35.9 C 11.4 37.1 13.7 38.5 14.0 40.3 C 13.8 39.7 14.4 40.1 14.9 40.7 C 14.9 40.8 14.7 40.8 14.9 41.0 C 15.0 40.8 15.3 41.0 15.7 41.3 C 15.6 41.5 15.4 41.5 15.7 41.7 C 16.1 41.6 16.4 42.3 16.8 42.4 C 16.8 42.8 16.0 41.9 15.7 42.1 C 16.6 43.1 17.1 43.0 17.9 43.8 C 17.4 43.5 18.1 44.3 18.2 44.5 C 18.2 44.0 19.0 44.4 18.6 43.9 C 18.9 44.1 19.5 44.5 19.5 44.6 C 19.3 44.5 19.0 44.3 19.0 44.4 C 19.5 44.6 19.9 45.3 20.3 45.2 C 20.0 45.0 19.8 44.8 19.9 44.6 C 20.1 44.6 20.3 44.6 20.6 44.7 C 19.4 44.9 21.9 46.0 22.1 45.9 C 22.1 46.5 22.3 46.5 22.1 46.7 C 23.1 47.3 23.1 46.9 23.8 47.2 C 23.5 47.4 23.1 47.5 24.1 48.2 C 24.0 47.7 25.3 48.4 25.1 47.8 C 27.9 49.1 27.4 49.3 28.5 49.7 C 28.5 49.6 28.2 49.4 28.6 49.5 C 29.0 49.8 29.4 50.1 29.7 50.4 C 30.0 50.3 29.7 50.1 30.0 50.2 C 30.7 50.8 30.4 51.0 31.0 51.5 C 32.0 51.6 31.6 51.7 32.3 51.6 C 32.1 51.5 31.8 51.2 32.1 51.3 C 32.6 51.8 32.7 52.2 32.8 52.3 C 32.4 52.2 32.1 52.0 31.9 51.9 C 31.7 52.0 31.2 51.8 31.6 52.2 C 31.0 51.9 30.4 51.6 29.6 51.3 C 29.7 51.7 28.9 51.1 29.0 51.5 C 29.9 51.8 30.1 52.1 31.0 52.4 C 30.9 52.0 31.8 52.5 31.9 52.6 C 32.0 52.4 32.6 52.7 32.5 52.4 C 33.2 52.6 33.1 52.8 33.9 53.0 C 33.9 53.1 33.7 53.2 34.0 53.4 C 34.3 53.1 34.4 53.6 34.7 53.7 C 34.6 53.3 35.6 53.8 35.7 53.6 C 35.5 53.5 35.1 53.4 35.1 53.3 C 36.2 53.7 35.4 53.1 35.2 52.8 C 35.2 53.0 34.7 53.2 34.7 52.9 C 35.7 53.0 33.5 52.0 34.3 52.4 C 35.0 52.7 35.0 52.5 35.8 52.8 C 36.5 53.6 35.3 53.5 36.1 54.3 C 36.7 54.2 37.0 54.4 37.2 54.1 C 37.3 54.2 37.4 54.4 37.6 54.5 C 37.9 54.4 37.0 54.0 37.7 54.1 C 38.0 54.3 37.5 54.6 38.3 54.7 C 38.7 54.6 37.4 54.2 38.2 54.3 C 38.8 55.0 38.1 54.1 39.0 54.3 C 39.0 54.4 39.1 54.5 39.4 54.6 C 39.4 54.7 39.3 54.9 39.6 55.0 C 39.9 54.6 39.8 55.3 40.5 55.4 C 41.0 55.1 39.9 55.0 40.2 54.8 C 40.8 55.3 41.4 55.0 41.7 55.2 C 41.0 55.3 42.6 55.6 42.5 55.9 C 42.5 55.5 42.8 55.8 43.7 55.7 C 43.6 56.3 44.7 56.1 44.8 56.6 C 45.0 56.5 45.3 56.4 45.4 56.3 C 45.1 56.2 44.8 56.2 45.0 56.0 C 45.2 56.1 45.5 56.1 45.7 56.2 C 46.1 56.5 44.9 56.9 46.6 57.2 C 46.5 56.8 47.2 56.9 47.8 56.8 C 47.8 56.5 47.1 56.7 47.0 56.5 C 47.7 56.4 48.2 56.8 48.5 57.0 C 49.6 57.1 50.8 57.5 52.3 57.6 C 52.6 57.9 51.0 57.6 52.0 58.0 C 52.4 58.0 52.2 57.8 52.8 57.9 C 52.0 59.1 56.8 58.8 57.0 59.4 C 57.2 59.2 58.5 59.5 58.4 59.1 C 57.5 59.3 57.0 58.8 56.6 58.5 C 55.7 58.6 57.3 59.0 56.5 58.9 C 56.5 58.7 55.3 58.7 55.5 58.5 C 56.6 58.6 54.9 58.1 55.8 57.9 C 56.9 58.2 59.1 58.1 58.5 58.4 C 58.6 58.3 58.1 58.2 58.0 58.3 C 59.2 58.7 60.0 58.5 60.5 58.4 C 61.0 58.7 63.3 58.5 62.7 58.6 C 62.8 58.9 61.4 58.4 61.6 58.7 C 63.8 59.1 63.9 58.8 65.4 59.2 C 64.9 58.8 67.0 58.8 66.8 58.9 C 66.8 59.2 67.3 59.5 68.2 59.2 C 68.0 59.5 68.5 59.7 69.0 59.8 C 69.2 59.5 68.6 59.5 68.7 59.3 C 69.2 59.3 69.7 59.3 70.1 59.4 C 70.2 59.5 70.1 59.6 70.4 59.7 C 70.9 59.5 72.8 59.3 72.6 59.5 C 71.8 59.9 73.9 59.9 72.6 60.1 C 72.9 60.1 73.0 60.2 73.4 60.2 C 73.4 60.1 73.4 60.0 73.4 59.8 C 74.5 59.8 73.9 60.3 74.8 60.4 C 74.9 60.2 75.3 60.2 75.4 60.1 C 75.0 60.1 75.0 60.2 74.5 60.2 C 75.1 59.7 73.6 59.9 73.7 59.5 C 74.7 59.5 74.7 59.8 75.1 60.0 C 76.3 59.8 75.7 59.9 77.0 60.0 C 77.0 59.9 76.7 59.9 76.8 59.7 C 78.3 59.9 78.2 60.5 79.2 60.3 C 79.0 60.3 78.0 60.5 78.7 60.6 C 79.4 60.4 79.7 60.1 80.6 60.1 C 80.7 60.2 80.6 60.3 80.9 60.4 C 81.3 60.2 81.3 60.0 81.7 59.9 C 81.8 60.0 82.3 59.9 82.5 59.8 C 82.9 60.1 82.4 60.2 82.8 60.2 C 83.6 60.2 84.0 59.5 84.7 59.6 C 84.7 60.0 85.4 59.8 86.1 59.7 C 86.2 60.1 87.6 60.0 88.5 60.0 C 88.3 59.7 89.3 59.8 89.0 59.5 C 88.6 59.5 88.3 59.4 88.2 59.3 C 89.3 59.2 89.6 59.8 90.4 59.3 C 90.8 59.5 91.3 59.6 92.0 59.7 C 92.0 59.5 90.7 59.4 91.4 59.3 C 91.5 59.4 91.7 59.3 92.0 59.3 C 91.9 59.6 92.5 59.6 92.8 59.8 C 93.4 59.5 94.7 59.8 94.1 59.5 C 95.1 59.3 94.5 59.9 95.2 59.8 C 94.8 59.4 96.0 59.3 95.4 59.1 C 96.4 58.9 96.4 59.4 96.0 59.6 C 96.9 59.6 97.1 59.3 97.5 59.5 C 97.1 59.2 98.4 58.8 97.7 59.1 C 97.6 59.5 98.6 59.1 98.8 59.3 C 98.4 59.1 98.9 59.0 98.2 59.0 C 98.9 58.8 99.9 58.6 100.5 58.8 C 101.3 58.5 102.1 58.3 101.8 58.7 C 102.6 58.5 102.3 58.6 103.1 58.5 C 103.0 58.4 102.8 58.4 102.8 58.3 C 103.8 58.1 103.6 58.4 105.0 58.1 C 104.9 58.5 105.8 58.3 106.1 58.5 C 105.5 58.6 105.1 58.6 104.6 58.6 C 104.5 58.8 105.0 58.8 104.6 58.9 C 104.6 58.8 104.4 58.8 104.1 58.8 C 105.1 58.9 103.1 59.5 103.7 59.1 C 103.7 59.1 103.7 59.2 103.9 59.1 C 103.7 58.9 103.7 59.0 103.8 58.6 C 103.4 58.8 103.0 58.5 102.8 58.8 C 102.9 59.0 103.3 58.8 103.4 58.9 C 102.3 59.3 103.0 58.6 102.1 58.9 C 102.0 59.2 102.4 59.2 102.7 59.4 C 101.9 59.5 101.2 59.6 100.9 59.5 C 100.2 59.7 101.0 59.7 100.5 59.9 C 100.2 59.9 100.2 59.6 99.6 59.7 C 99.1 59.9 100.0 59.9 99.4 60.0 C 98.8 59.9 99.8 59.5 98.8 59.6 C 99.1 60.0 98.0 59.6 98.1 59.9 C 98.6 59.8 98.7 60.2 98.4 60.0 C 97.1 59.7 96.3 60.9 95.0 60.4 C 95.0 60.5 94.8 60.5 94.8 60.6 C 95.7 60.7 97.1 60.6 97.4 61.0 C 98.2 60.8 98.0 60.5 98.2 60.4 C 99.1 60.6 99.0 60.7 98.6 61.2 C 97.1 61.5 96.4 61.3 95.4 61.3 C 94.9 61.6 95.4 61.4 95.7 61.6 C 92.5 61.6 95.0 62.3 93.9 62.3 C 93.9 62.1 93.6 62.1 93.3 62.1 C 93.3 62.2 92.8 62.2 92.8 62.3 C 93.0 62.3 93.1 62.4 93.1 62.5 C 92.3 62.7 92.6 62.3 92.5 62.1 C 93.1 62.1 93.5 62.0 93.5 61.8 C 92.8 62.1 92.1 61.8 91.7 62.2 C 90.9 61.8 92.0 61.3 91.6 61.0 C 91.7 60.8 91.1 61.8 90.6 62.0 C 89.6 62.0 89.6 62.4 88.7 62.4 C 88.4 62.1 89.6 62.2 89.5 62.0 C 89.2 62.0 89.2 61.9 88.9 61.9 C 88.3 62.0 88.3 62.2 87.8 62.4 C 87.6 62.1 87.4 62.3 87.0 62.4 C 86.4 62.3 87.4 62.1 86.7 62.1 C 86.1 62.1 85.6 62.5 85.4 62.5 C 85.3 62.4 85.4 62.2 85.1 62.2 C 84.3 62.4 84.1 62.4 85.1 62.6 C 84.2 62.6 83.9 62.7 84.0 63.0 C 85.3 63.0 85.6 62.9 86.2 63.3 C 86.5 63.0 86.9 63.2 87.4 63.3 C 87.0 62.8 87.9 63.2 88.2 62.9 C 87.8 62.9 87.5 62.9 87.3 62.8 C 88.7 62.7 88.7 62.8 89.8 62.2 C 89.8 62.4 89.9 62.5 90.0 62.5 C 89.7 62.7 88.7 62.7 88.7 62.9 C 89.5 63.2 89.7 62.6 90.6 63.0 C 91.0 62.7 89.9 62.7 90.6 62.6 C 91.0 62.8 91.4 62.9 92.0 63.0 C 92.6 62.9 92.9 62.7 93.3 62.5 C 93.4 62.7 93.5 62.8 93.9 62.7 C 93.9 62.6 93.4 62.5 93.9 62.4 C 95.3 62.6 96.3 62.8 97.7 62.5 C 97.2 62.4 96.0 62.2 96.6 62.2 C 97.2 62.3 98.0 61.8 98.7 62.0 C 98.9 62.1 97.9 62.0 98.2 62.5 C 98.8 62.4 99.2 62.4 99.5 62.4 C 99.5 62.2 100.2 62.2 100.0 61.9 C 99.5 62.0 99.4 62.4 99.2 62.3 C 99.5 61.4 101.2 62.2 102.1 62.1 C 102.7 61.9 101.6 61.9 102.3 61.7 C 102.7 61.5 103.1 62.1 102.4 62.4 C 101.9 62.3 101.8 62.7 101.6 62.4 C 101.4 62.5 101.1 62.5 101.1 62.6 C 101.5 62.5 101.5 62.7 101.7 62.8 C 101.2 62.8 101.2 63.4 100.7 63.2 C 101.0 63.1 101.1 63.0 101.2 62.9 C 99.8 63.2 99.3 63.0 98.5 63.0 C 99.0 63.1 98.5 63.1 98.6 63.4 C 99.2 63.2 100.4 63.2 99.6 63.4 C 99.1 63.1 98.9 64.1 98.4 63.8 C 98.7 63.7 98.6 63.5 98.8 63.4 C 98.3 63.5 98.3 63.2 97.7 63.3 C 96.1 63.9 94.6 63.3 91.8 64.2 C 90.8 64.3 92.7 64.0 92.6 63.7 C 92.3 63.7 92.3 63.7 92.1 63.7 C 92.1 64.0 91.6 63.7 91.3 64.0 C 91.3 63.7 90.0 64.1 89.3 63.9 C 89.3 64.0 89.4 64.2 89.1 64.2 C 87.0 63.9 83.3 64.6 81.8 64.3 C 81.8 64.5 81.1 64.5 80.9 64.7 C 80.0 64.6 80.4 64.4 79.0 64.7 C 78.2 64.7 79.1 64.5 79.2 64.4 C 77.1 64.5 75.2 64.2 73.8 64.5 C 73.1 64.5 73.8 64.2 72.4 64.1 C 72.4 64.6 70.2 63.8 69.8 64.3 C 69.0 64.3 67.5 63.6 68.1 64.0 C 66.9 64.0 67.8 63.6 67.3 63.6 C 66.5 63.6 67.5 64.4 66.7 64.3 C 66.8 64.0 66.1 64.1 65.6 63.7 C 66.2 63.8 66.6 63.8 66.7 63.6 C 66.2 63.8 66.2 63.5 65.3 63.5 C 64.6 63.6 62.7 63.7 62.2 63.2 C 62.1 63.3 62.3 63.4 62.4 63.5 C 61.9 63.5 61.2 63.1 61.3 63.5 C 60.0 63.4 59.5 63.0 58.7 63.2 C 58.2 63.2 59.0 62.9 57.4 62.7 C 57.3 63.0 54.5 62.5 53.7 62.2 C 53.7 62.6 53.6 62.1 53.2 62.1 C 53.1 62.2 53.2 62.3 52.9 62.3 C 52.8 62.2 52.6 62.2 52.3 62.2 C 52.6 61.8 51.3 62.2 51.3 61.8 C 51.5 61.8 51.5 61.6 51.3 61.5 C 51.2 61.9 50.1 61.1 50.2 61.4 C 50.4 61.6 51.2 61.6 50.9 61.9 C 49.8 61.8 50.4 61.5 49.6 61.3 C 49.7 61.4 50.1 61.6 49.6 61.6 C 48.8 61.4 49.5 61.5 49.1 61.2 C 48.7 61.2 47.9 61.3 47.7 61.2 C 47.7 61.2 47.5 61.0 47.4 61.0 C 46.1 60.6 42.9 60.2 41.7 59.4 C 41.5 59.5 41.2 59.5 41.3 59.7 C 40.5 59.3 40.6 59.5 39.8 59.1 C 39.8 59.2 39.7 59.4 39.7 59.5 C 38.6 59.4 39.7 59.1 39.0 58.9 C 38.7 59.6 38.7 58.6 38.0 58.4 C 37.9 58.5 37.6 58.5 37.7 58.7 C 36.7 58.4 36.9 58.0 36.0 57.9 C 36.2 58.0 36.0 59.0 35.9 59.2 C 35.7 59.0 35.5 58.9 35.2 58.7 C 35.7 58.5 35.8 57.4 34.5 57.3 C 35.2 57.5 35.4 57.7 35.2 57.9 C 34.3 57.6 34.0 57.3 33.3 57.0 C 33.0 57.3 33.6 57.5 33.3 57.8 C 33.1 57.7 33.0 57.7 33.0 57.9 C 32.2 57.5 32.2 57.3 31.3 57.2 C 31.4 57.0 31.6 57.0 31.8 57.3 C 31.9 57.0 31.9 56.8 32.5 57.0 C 32.5 57.2 32.1 57.4 32.8 57.5 C 32.9 57.3 32.9 57.2 33.0 57.0 C 32.5 56.8 31.3 56.2 31.1 56.3 C 31.3 56.5 31.7 56.7 31.4 56.9 C 30.5 56.5 30.4 56.1 29.7 55.6 C 28.4 55.2 26.2 54.2 26.3 54.8 C 25.6 54.3 25.9 54.4 25.2 54.1 C 25.3 54.5 24.5 53.9 24.4 54.1 C 25.2 54.4 25.0 54.4 25.8 54.7 C 25.7 54.8 25.5 54.9 25.2 54.8 C 25.2 54.6 24.9 54.5 24.4 54.2 C 24.4 54.3 24.8 54.8 24.2 54.6 C 24.2 54.5 24.1 54.4 23.8 54.3 C 23.9 54.2 24.0 54.0 24.0 53.9 C 24.4 53.9 24.8 54.0 25.0 54.0 C 24.8 53.9 24.8 53.8 24.6 53.7 C 24.4 53.8 23.4 53.1 23.2 53.3 C 23.8 53.5 24.1 53.9 23.5 53.6 C 23.4 53.5 22.5 53.0 22.1 52.9 C 23.3 53.7 22.7 53.4 23.3 54.1 C 21.8 53.4 22.2 53.2 20.6 52.5 C 20.6 52.2 20.7 52.0 21.2 52.1 C 20.5 51.1 18.0 50.3 17.4 49.8 C 17.8 50.2 18.6 50.1 17.9 49.7 C 17.8 49.8 17.3 49.4 17.2 49.5 C 16.6 49.8 17.1 50.4 17.5 51.0 C 16.9 50.7 16.7 50.7 16.2 50.4 C 16.1 50.1 16.9 50.0 16.3 49.6 C 15.9 49.9 15.1 48.8 14.6 48.9 C 15.1 49.2 15.3 49.6 14.8 49.3 C 15.0 49.2 14.0 48.6 14.1 48.4 C 14.9 48.9 15.3 48.8 15.7 49.1 C 15.2 48.7 16.3 49.2 15.4 48.5 C 14.8 48.3 14.4 48.4 13.4 47.7 C 13.1 47.3 13.6 47.3 13.2 47.0 C 13.1 47.3 12.1 46.5 12.9 46.8 C 12.5 46.5 12.4 46.4 12.2 46.1 C 12.5 46.8 10.0 45.1 10.2 45.5 C 10.5 45.2 10.7 44.9 10.6 44.7 C 10.0 44.5 9.7 43.9 8.8 42.8 C 8.5 43.1 8.6 42.6 8.2 42.2 C 7.9 42.2 8.2 42.7 7.9 42.4 C 7.6 41.7 7.6 41.7 7.6 41.5 C 7.4 41.1 7.2 40.8 7.1 40.5 C 7.0 40.6 7.0 40.8 7.0 40.9 C 6.3 39.2 5.5 38.5 5.1 37.0 C 5.1 37.7 5.6 37.6 5.4 37.2 C 5.3 36.9 5.1 36.7 5.0 36.5 C 4.8 36.9 4.9 36.7 4.7 36.0 C 4.4 35.4 4.3 36.4 4.2 35.9 C 4.2 35.3 4.4 35.6 4.4 35.3 C 4.4 35.0 4.3 34.7 4.3 34.5 C 4.2 35.0 4.0 34.5 3.8 34.0 C 4.2 34.3 4.2 34.1 4.0 33.2 C 4.2 33.0 4.3 33.5 4.3 33.1 C 4.4 32.9 3.9 32.2 4.2 31.6 C 4.2 31.8 4.3 31.9 4.4 31.8 C 4.2 31.1 4.7 30.6 4.9 30.1 C 4.5 30.6 4.3 30.3 4.1 30.5 C 4.5 29.9 4.3 29.1 4.7 28.7 C 4.4 29.6 5.3 28.9 5.5 28.4 C 5.2 28.2 5.0 29.1 4.7 28.7 C 4.6 28.4 5.2 27.8 5.0 27.4 C 4.8 27.4 5.0 27.8 4.8 27.9 C 4.9 27.4 4.6 28.0 4.7 27.6 C 5.1 27.4 4.7 27.0 4.8 26.8 C 5.1 26.5 5.8 26.0 5.7 25.7 C 5.6 25.6 5.4 26.1 5.3 26.1 C 5.7 24.6 6.3 24.5 6.8 23.2 C 7.1 23.1 7.3 23.0 7.6 22.7 C 7.4 22.6 7.5 22.3 7.7 22.1 C 8.2 21.7 8.7 21.3 9.3 20.9 C 9.4 21.1 9.3 21.5 10.0 20.8 C 10.0 20.6 9.6 20.9 9.9 20.6 C 9.9 20.7 10.1 20.5 10.1 20.4 C 10.1 20.4 10.0 20.3 10.0 20.3 C 9.7 20.5 9.5 20.7 9.3 20.9 C 9.2 20.7 9.1 20.7 8.9 20.8 C 9.7 19.8 10.0 20.3 10.5 19.5 C 10.9 19.8 11.2 19.7 10.9 20.4 C 11.4 19.9 11.7 19.4 11.7 19.1 C 11.0 19.7 11.0 19.2 10.7 19.3 C 11.1 18.9 11.0 18.8 11.2 18.5 C 11.9 18.3 11.0 19.4 12.1 18.6 C 11.0 18.9 12.6 17.9 13.2 17.6 C 13.0 17.5 12.8 17.6 13.0 17.3 C 14.5 16.1 14.9 17.1 15.7 16.0 C 15.7 16.3 16.1 16.0 16.4 16.0 C 15.6 16.5 15.4 16.7 15.1 17.0 C 15.2 17.0 15.5 16.9 15.7 16.8 C 15.6 16.7 15.8 16.5 16.3 16.4 C 16.4 16.1 16.1 15.7 16.7 15.1 C 16.8 15.2 16.8 15.4 17.1 15.2 C 17.4 14.8 17.1 15.8 18.6 15.0 C 18.2 15.0 18.0 14.9 18.0 14.7 C 18.7 14.2 18.6 14.4 19.6 13.8 C 20.2 14.1 19.1 14.7 19.0 15.1 C 19.6 14.7 20.1 14.2 20.9 14.0 C 20.3 14.1 20.7 13.6 21.4 13.3 C 22.0 13.1 21.5 13.8 22.2 13.5 C 22.8 13.2 23.0 12.8 22.4 12.9 C 23.8 12.5 23.3 12.3 24.5 11.9 C 24.6 12.1 24.3 12.2 23.8 12.3 C 23.9 12.3 23.8 12.5 24.3 12.4 C 24.9 11.9 26.6 11.3 27.1 11.0 C 28.3 11.2 29.3 10.2 30.5 10.1 C 30.1 10.5 31.9 9.8 32.5 10.0 C 32.8 9.8 33.7 9.0 33.4 9.3 C 33.6 9.7 34.2 9.4 34.8 9.4 C 34.7 9.3 34.7 9.2 34.7 9.1 C 35.8 8.8 36.1 9.1 36.5 9.3 C 37.9 8.8 39.5 9.0 41.2 8.4 C 41.7 8.7 42.1 8.5 43.1 8.6 C 43.1 8.3 43.9 8.2 44.7 8.1 C 44.5 7.9 45.2 7.9 45.2 7.7 C 44.5 7.7 44.7 7.3 44.3 7.3 C 45.3 7.5 45.7 6.8 46.5 7.0 C 45.6 7.3 45.3 7.7 45.2 8.2 C 46.3 8.0 46.9 8.0 47.2 8.3 C 47.2 8.0 47.1 7.9 46.8 7.8 C 47.2 7.8 47.6 7.7 47.9 7.7 C 48.0 7.8 47.5 8.0 47.9 8.0 C 48.2 7.9 48.5 7.7 48.7 7.6 C 49.1 7.9 48.3 7.9 48.2 8.1 C 49.7 8.1 49.0 7.5 49.8 7.3 C 50.0 7.5 50.0 7.8 50.7 7.9 C 50.9 7.6 51.0 7.4 51.8 7.3 C 52.2 7.3 51.8 7.8 52.3 7.8 C 52.4 7.6 52.6 7.7 52.9 7.7 C 52.9 7.5 53.1 7.4 53.4 7.4 C 53.5 7.5 54.0 7.4 54.3 7.3 C 54.3 7.5 55.2 7.8 55.4 7.6 C 55.4 7.5 54.9 7.5 54.8 7.4 C 55.5 7.4 55.9 7.4 56.2 7.3 C 56.4 8.0 57.5 7.4 58.7 7.7 C 59.5 7.5 58.6 7.2 59.6 7.0 C 60.2 7.2 59.5 7.3 59.6 7.6 C 59.8 7.6 60.7 7.8 60.7 7.6 C 60.7 7.5 60.2 7.5 60.2 7.4 C 60.9 7.1 60.9 7.5 61.3 7.6 C 61.2 7.3 61.7 7.3 61.9 7.1 C 63.9 6.9 63.9 7.5 64.7 7.7 C 64.7 7.6 65.2 7.6 65.3 7.5 C 64.7 7.6 63.9 7.3 64.7 7.3 C 64.6 7.5 65.8 7.3 65.8 7.3 C 65.7 7.1 65.0 7.1 65.3 6.8 C 66.4 6.8 65.9 7.3 66.7 7.1 C 66.8 7.3 66.3 7.3 66.1 7.4 C 66.5 7.4 66.9 7.4 67.0 7.5 C 66.6 7.6 66.6 7.8 66.4 8.0 C 66.9 7.7 67.9 8.0 67.3 7.6 C 68.4 7.7 69.5 7.6 68.7 7.3 C 69.6 7.2 69.1 7.6 69.9 7.4 C 69.7 7.8 69.5 7.9 70.1 8.2 C 70.2 8.0 70.7 8.0 70.7 7.8 C 72.0 7.8 72.4 8.2 72.9 8.5 C 72.5 8.0 73.1 8.4 73.8 8.2 C 74.2 8.3 73.8 8.7 74.9 8.7 C 73.7 8.1 76.3 8.7 75.8 8.1 C 77.2 8.5 77.2 8.5 78.6 8.7 C 78.5 8.9 78.1 9.0 77.5 9.0 C 77.9 8.8 76.2 8.6 76.3 8.8 C 76.3 8.9 76.3 8.9 76.3 9.0 C 77.4 9.0 78.1 9.2 78.5 9.4 C 78.8 9.2 79.3 9.2 79.2 8.8 C 80.1 9.3 81.3 8.9 81.7 9.3 C 81.3 9.3 81.0 9.2 81.1 9.4 C 81.5 9.4 82.0 9.4 82.0 9.1 C 81.2 8.9 81.0 8.9 80.6 9.0 C 81.0 8.8 79.8 8.5 80.6 8.6 C 80.6 9.0 82.4 8.5 81.8 8.8 C 80.8 8.9 82.7 9.2 82.8 9.4 C 82.8 9.4 82.8 9.4 82.8 9.4 Z M 98.0 63.2 C 98.8 63.0 97.8 62.8 97.2 62.9 C 97.4 63.0 97.5 63.1 97.5 63.3 C 97.7 63.2 97.9 63.1 98.0 63.2 C 98.0 63.2 98.0 63.2 98.0 63.2 Z M 89.0 59.7 C 88.8 60.1 90.1 59.7 90.7 59.8 C 90.5 59.7 90.3 59.6 90.7 59.6 C 90.1 59.3 89.9 59.9 89.0 59.7 C 89.0 59.7 89.0 59.7 89.0 59.7 Z M 58.4 59.6 C 58.6 59.6 59.1 59.6 59.2 59.7 C 59.5 59.7 59.4 59.6 59.5 59.5 C 60.2 59.5 59.3 59.9 60.3 59.9 C 60.8 59.3 58.7 58.9 58.4 59.6 C 58.4 59.6 58.4 59.6 58.4 59.6 Z M 71.8 12.8 C 72.1 13.0 71.2 13.2 71.4 13.5 C 73.0 13.4 71.8 12.9 73.9 13.2 C 73.8 13.1 73.7 13.0 73.7 12.9 C 72.7 12.9 72.6 13.1 72.9 12.6 C 72.4 12.6 72.3 13.2 71.8 12.8 C 71.8 12.8 71.8 12.8 71.8 12.8 Z M 91.0 16.7 C 90.9 16.6 90.8 16.4 90.8 16.3 C 90.2 16.3 90.3 16.4 89.5 16.2 C 89.5 16.6 90.3 16.7 91.0 16.7 C 91.0 16.7 91.0 16.7 91.0 16.7 Z M 129.2 38.4 C 129.2 38.5 129.2 38.6 129.2 38.7 C 129.4 38.6 129.9 38.8 129.7 38.3 C 129.6 38.3 129.6 38.4 129.6 38.5 C 129.5 38.4 129.5 38.2 129.3 38.3 C 129.3 38.4 129.3 38.4 129.2 38.4 C 129.2 38.4 129.2 38.4 129.2 38.4 Z M 123.5 51.1 C 124.3 50.2 121.6 51.0 123.5 51.1 C 123.5 51.1 123.5 51.1 123.5 51.1 C 123.5 51.1 123.5 51.1 123.5 51.1 Z M 127.4 52.7 C 127.5 52.8 127.6 52.6 127.6 52.6 C 128.5 52.1 127.8 52.7 128.3 52.5 C 128.8 51.9 127.7 52.4 128.4 51.6 C 128.1 51.6 127.8 52.4 127.4 52.7 C 127.4 52.7 127.4 52.7 127.4 52.7 Z M 14.6 16.9 C 13.9 17.4 13.9 17.8 13.9 18.1 C 14.4 17.8 14.9 17.6 15.1 17.6 C 15.9 16.9 14.4 17.8 14.2 17.9 C 14.1 17.6 14.8 17.1 14.6 16.9 C 14.6 16.9 14.6 16.9 14.6 16.9 Z M 12.4 18.5 C 12.2 18.9 11.8 19.3 12.0 19.5 C 12.3 19.1 12.5 19.2 12.5 19.3 C 12.8 18.8 12.2 19.0 12.4 18.5 C 12.4 18.5 12.4 18.5 12.4 18.5 Z M 17.1 15.9 C 16.7 16.1 17.0 16.3 17.0 16.4 C 17.5 16.1 17.7 16.2 18.2 15.9 C 18.2 15.8 18.1 15.7 18.1 15.6 C 17.6 15.8 17.6 16.0 17.2 16.2 C 17.2 16.1 17.1 16.0 17.1 15.9 C 17.1 15.9 17.1 15.9 17.1 15.9 Z M 10.6 20.5 C 9.4 21.5 9.4 22.3 9.2 23.3 C 9.7 22.5 9.9 21.4 10.6 21.0 C 11.2 20.3 10.3 21.1 10.2 21.0 C 10.2 20.9 10.4 20.7 10.6 20.5 C 10.6 20.5 10.6 20.5 10.6 20.5 Z M 4.9 30.8 C 4.6 31.1 5.1 31.6 5.0 32.4 C 5.1 32.2 5.2 32.1 5.3 32.1 C 5.4 31.0 4.8 31.6 4.9 30.8 C 4.9 30.8 4.9 30.8 4.9 30.8 Z M 5.9 37.0 C 6.1 37.6 5.9 36.6 6.3 36.9 C 6.0 36.2 5.8 35.4 5.5 35.5 C 5.9 36.2 6.0 36.4 5.9 37.0 C 5.9 37.0 5.9 37.0 5.9 37.0 Z M 8.1 41.2 C 8.7 41.7 8.3 40.7 8.7 40.8 C 8.5 40.5 8.4 40.7 8.3 40.7 C 8.2 40.5 8.1 40.3 8.0 40.0 C 7.9 40.3 8.5 41.1 8.1 41.2 C 8.1 41.2 8.1 41.2 8.1 41.2 Z M 35.7 10.2 C 35.3 10.4 35.5 10.7 34.5 10.8 C 35.9 10.5 35.3 11.6 37.1 11.1 C 36.8 11.0 37.0 10.8 37.1 11.0 C 37.8 10.6 36.4 10.9 37.0 10.5 C 36.5 10.6 36.9 10.9 36.4 11.0 C 35.8 10.8 35.4 10.7 35.7 10.2 C 35.7 10.2 35.7 10.2 35.7 10.2 Z M 37.2 11.4 C 37.7 11.3 37.6 10.8 37.9 11.0 C 38.2 11.0 38.1 10.9 38.1 10.8 C 37.9 10.8 37.9 10.8 37.9 10.7 C 37.4 10.9 37.0 11.1 37.2 11.4 C 37.2 11.4 37.2 11.4 37.2 11.4 Z M 32.6 12.4 C 33.3 12.0 33.6 12.2 34.0 11.8 C 34.3 12.2 34.5 11.5 35.0 11.8 C 35.8 11.5 35.2 11.5 34.9 11.4 C 35.7 11.1 35.2 11.7 35.9 11.4 C 36.0 11.0 35.0 11.3 35.1 11.0 C 34.5 11.1 34.5 11.3 34.1 11.5 C 33.8 11.5 33.9 11.3 33.8 11.2 C 33.2 11.5 33.2 11.2 32.6 11.4 C 32.5 11.7 32.8 11.7 33.4 11.5 C 32.8 11.8 32.5 12.1 31.8 12.1 C 32.2 11.7 29.8 12.2 30.1 12.7 C 30.8 12.6 30.5 12.3 30.8 12.2 C 31.7 12.2 32.2 12.1 32.6 12.4 C 32.6 12.4 32.6 12.4 32.6 12.4 Z M 17.9 16.6 C 17.6 16.7 17.3 16.8 17.0 17.0 C 16.8 16.8 17.3 16.6 16.8 16.7 C 16.1 17.0 16.1 17.1 15.7 17.4 C 16.0 17.4 17.4 17.0 16.8 17.4 C 17.1 17.5 17.5 17.3 18.0 17.0 C 17.2 17.0 18.9 16.5 19.5 16.3 C 19.3 15.9 20.7 15.8 21.0 15.4 C 20.5 15.3 19.4 16.1 18.8 16.4 C 19.1 16.2 17.1 16.5 17.9 16.6 C 17.9 16.6 17.9 16.6 17.9 16.6 Z M 39.2 10.8 C 39.3 10.7 39.9 10.5 39.4 10.6 C 39.6 10.4 40.1 10.5 39.9 10.1 C 40.1 10.0 40.4 10.0 40.6 10.0 C 40.6 10.1 39.8 10.2 40.2 10.4 C 40.7 10.2 40.5 10.4 41.2 10.3 C 40.9 10.6 41.3 10.6 41.1 11.0 C 41.2 10.8 41.9 10.7 41.8 10.5 C 42.8 10.4 41.5 10.9 42.9 10.7 C 42.9 11.0 41.9 11.1 41.6 11.0 C 41.5 11.3 43.2 10.9 44.2 10.9 C 43.3 10.7 43.9 10.4 44.4 10.1 C 44.7 10.1 44.4 10.3 44.9 10.4 C 45.4 10.4 45.6 10.1 45.7 10.3 C 46.1 10.2 45.9 10.0 45.9 9.9 C 46.6 9.8 46.2 10.3 47.1 10.2 C 46.3 9.8 47.1 9.6 48.3 9.6 C 48.3 9.5 47.9 9.5 47.8 9.4 C 48.0 9.1 48.7 9.5 48.9 9.6 C 49.3 9.5 49.0 9.3 48.6 9.4 C 48.9 9.3 49.1 9.2 49.4 9.0 C 48.1 9.1 45.9 9.4 43.5 9.3 C 44.0 9.4 43.4 9.6 42.7 9.6 C 42.6 9.4 42.9 9.3 43.2 9.3 C 42.3 9.0 42.5 9.8 41.1 9.8 C 40.4 9.8 41.9 9.4 41.1 9.4 C 40.6 9.5 40.3 9.8 40.1 9.5 C 39.2 9.8 39.1 10.2 37.8 10.4 C 38.6 10.5 39.0 11.1 39.7 10.8 C 39.7 10.7 39.4 10.8 39.2 10.8 C 39.2 10.8 39.2 10.8 39.2 10.8 Z M 12.7 19.4 C 12.2 19.7 12.2 20.0 12.0 20.0 C 11.4 20.6 12.3 20.2 12.5 20.1 C 12.7 19.8 12.7 19.6 12.7 19.4 C 12.7 19.4 12.7 19.4 12.7 19.4 Z M 61.7 62.6 C 62.7 62.8 62.5 62.4 63.4 62.5 C 62.7 62.4 62.6 62.1 61.5 62.0 C 61.4 62.3 61.3 62.5 61.7 62.6 C 61.7 62.6 61.7 62.6 61.7 62.6 Z M 15.3 17.9 C 15.7 17.2 14.7 18.7 14.6 18.5 C 13.9 19.1 15.3 18.2 14.8 18.9 C 15.3 18.3 15.8 18.3 16.6 17.7 C 16.5 17.5 15.8 17.9 15.2 18.3 C 15.0 18.2 15.3 18.0 15.3 17.9 C 15.3 17.9 15.3 17.9 15.3 17.9 Z M 51.0 60.2 C 50.2 60.3 51.5 60.9 51.9 61.1 C 52.0 60.7 51.8 60.7 51.0 60.2 C 51.0 60.2 51.0 60.2 51.0 60.2 Z M 69.1 62.8 C 69.5 62.5 67.8 62.7 68.2 62.3 C 67.7 62.3 67.7 62.4 67.6 62.5 C 67.4 62.4 66.6 62.4 66.8 62.1 C 66.7 61.9 68.1 62.3 67.7 61.9 C 68.2 61.9 68.2 62.0 68.5 62.1 C 67.7 62.0 68.1 62.3 69.1 62.5 C 69.1 62.2 68.6 62.3 69.1 62.1 C 69.2 62.2 69.7 62.5 69.6 62.9 C 70.5 63.0 70.0 62.4 71.0 62.5 C 71.0 62.3 70.3 62.3 69.9 62.2 C 70.1 61.8 71.0 62.5 70.8 62.0 C 71.0 62.3 71.6 62.4 71.6 62.8 C 70.8 62.8 70.3 63.0 69.6 63.1 C 70.2 63.4 71.1 62.7 72.2 63.1 C 72.1 62.8 72.7 62.9 72.5 62.6 C 73.3 62.7 72.9 63.1 72.7 63.1 C 72.9 63.3 74.6 63.2 74.5 63.0 C 74.6 63.2 76.5 63.2 76.4 62.8 C 77.0 63.1 77.9 62.6 78.1 63.0 C 78.4 62.9 79.1 62.9 79.8 63.0 C 80.0 62.6 78.8 62.8 78.7 62.6 C 78.5 62.3 80.0 62.6 79.8 62.4 C 79.8 62.3 79.8 62.2 79.8 62.2 C 79.2 62.3 78.7 62.4 78.1 62.4 C 77.7 62.4 78.2 62.3 78.1 62.2 C 77.7 62.3 75.9 62.7 75.9 62.1 C 74.7 62.2 73.8 62.1 73.3 62.3 C 72.6 62.3 73.7 62.2 73.3 61.9 C 71.2 62.3 68.7 61.6 66.9 61.9 C 66.5 61.9 66.6 61.7 66.6 61.5 C 64.2 61.5 66.2 62.1 64.3 61.8 C 64.3 61.5 65.2 61.7 65.2 61.4 C 64.5 61.3 64.4 61.5 63.5 61.3 C 63.5 61.5 63.5 61.6 63.5 61.7 C 62.7 61.6 63.1 61.3 62.7 61.1 C 61.8 61.1 62.0 61.3 61.6 60.9 C 60.7 61.0 59.9 61.0 59.0 60.7 C 58.5 60.8 59.5 61.4 60.4 61.6 C 60.3 61.7 60.1 61.6 60.0 61.7 C 59.0 61.4 59.0 60.8 57.4 60.5 C 58.5 61.0 56.8 60.5 56.6 60.3 C 55.9 60.2 56.4 60.7 56.8 60.7 C 56.7 60.8 56.3 60.6 56.3 60.5 C 56.1 61.0 57.6 61.4 59.2 61.4 C 58.4 61.9 60.4 61.5 59.5 62.1 C 60.8 62.1 59.7 61.6 61.2 61.9 C 61.0 61.7 60.8 61.6 60.7 61.4 C 61.8 61.5 61.4 61.9 62.6 61.9 C 62.8 61.7 62.0 61.7 62.1 61.5 C 63.3 61.9 63.7 62.0 64.5 62.4 C 64.7 62.3 64.5 61.9 66.0 62.3 C 66.0 62.3 66.0 62.4 66.0 62.5 C 65.3 62.3 65.1 62.9 66.8 63.0 C 66.9 62.8 66.4 62.8 65.9 62.8 C 66.1 62.6 66.7 62.6 67.4 62.6 C 67.7 62.6 68.1 62.8 67.6 62.8 C 67.9 63.1 68.2 62.6 69.1 62.8 C 69.1 62.8 69.1 62.8 69.1 62.8 Z M 5.7 29.7 C 5.7 29.9 5.8 30.1 5.7 30.5 C 6.0 30.6 6.0 30.0 6.2 30.0 C 6.3 29.6 5.8 29.9 5.7 29.7 C 5.7 29.7 5.7 29.7 5.7 29.7 Z M 8.8 23.7 C 8.6 23.6 8.7 24.1 8.2 24.5 C 8.4 24.8 8.7 24.2 8.8 24.3 C 9.3 23.8 8.4 24.2 8.8 23.7 C 8.8 23.7 8.8 23.7 8.8 23.7 Z M 7.2 26.2 C 6.8 26.3 7.2 26.5 7.4 26.0 C 7.6 26.1 7.6 26.3 7.5 26.6 C 8.0 26.5 7.6 26.0 8.0 25.5 C 7.8 25.6 7.5 25.8 7.2 26.2 C 7.2 26.2 7.2 26.2 7.2 26.2 Z M 6.8 27.0 C 6.8 27.5 6.5 27.6 6.4 28.2 C 6.7 28.1 7.1 26.9 7.1 26.6 C 7.0 26.3 6.4 27.7 6.8 27.0 C 6.8 27.0 6.8 27.0 6.8 27.0 Z M 40.5 57.5 C 40.8 57.5 40.7 57.4 40.8 57.3 C 41.5 58.0 42.6 58.2 41.6 58.4 C 42.5 58.3 43.2 58.9 43.9 59.1 C 44.5 59.3 44.3 58.9 44.8 59.0 C 45.5 59.3 44.3 59.1 44.5 59.3 C 44.6 59.5 44.9 59.1 45.8 59.5 C 45.7 58.9 46.6 59.7 46.4 59.1 C 46.9 59.4 47.1 59.3 47.8 59.4 C 47.7 59.2 47.1 59.1 47.1 58.8 C 46.8 58.5 46.6 59.0 47.3 59.1 C 46.8 59.3 46.0 58.7 45.7 58.8 C 45.4 58.5 46.5 59.0 46.3 58.6 C 46.0 58.6 45.8 58.6 45.7 58.6 C 45.3 58.5 45.1 58.3 45.0 58.2 C 45.2 58.2 45.2 58.3 45.2 58.3 C 45.7 58.4 44.9 57.7 45.9 58.0 C 45.7 57.8 45.3 57.7 45.4 57.5 C 45.1 57.3 45.2 58.4 44.2 57.8 C 43.5 57.9 45.8 58.5 45.1 58.9 C 43.6 58.5 44.6 58.2 43.4 57.9 C 43.4 58.0 43.4 58.2 43.1 58.1 C 43.1 58.2 43.5 58.3 43.8 58.4 C 43.8 58.5 43.3 58.4 43.0 58.3 C 43.1 58.4 43.3 58.5 43.3 58.6 C 42.3 58.2 42.5 57.6 43.5 57.7 C 43.5 57.4 42.3 57.2 41.9 57.2 C 42.2 57.5 41.9 57.4 42.1 57.8 C 42.3 57.8 42.3 57.7 42.4 57.6 C 42.8 57.8 42.4 57.8 42.3 57.9 C 41.8 57.7 41.9 57.5 41.3 57.6 C 41.5 57.5 41.6 57.5 41.6 57.3 C 41.4 57.3 41.1 57.2 40.9 57.1 C 40.8 57.3 40.5 57.3 40.5 57.5 C 40.5 57.5 40.5 57.5 40.5 57.5 Z M 54.2 61.2 C 55.1 61.4 54.6 61.1 54.2 61.0 C 54.4 60.9 54.7 60.9 55.1 60.9 C 54.8 60.8 54.6 60.8 53.7 60.6 C 54.5 60.3 53.9 59.7 52.5 59.5 C 52.0 60.0 53.1 60.3 52.6 60.5 C 53.6 60.5 54.1 60.8 54.2 61.2 C 54.2 61.2 54.2 61.2 54.2 61.2 Z M 12.5 20.2 C 12.1 20.5 11.6 20.9 11.3 21.2 C 11.5 21.4 12.9 20.5 12.5 20.2 C 12.5 20.2 12.5 20.2 12.5 20.2 Z M 50.5 9.3 C 50.7 9.3 50.8 9.4 50.8 9.4 C 51.6 9.3 50.4 9.2 50.8 8.9 C 50.5 9.0 50.2 9.0 49.9 9.0 C 49.9 9.1 51.1 9.2 50.2 9.4 C 50.3 9.5 50.5 9.4 50.5 9.3 C 50.5 9.3 50.5 9.3 50.5 9.3 Z M 6.2 29.3 C 6.2 29.8 6.7 29.6 6.4 30.5 C 6.7 30.2 6.6 30.0 6.7 29.5 C 6.5 29.4 6.4 29.4 6.2 29.3 C 6.2 29.3 6.2 29.3 6.2 29.3 Z M 36.6 56.8 C 37.1 57.3 37.5 56.7 38.6 57.2 C 38.1 56.7 37.3 56.9 36.6 56.8 C 36.6 56.8 36.6 56.8 36.6 56.8 Z M 82.0 62.4 C 81.6 62.4 82.2 62.3 81.5 62.2 C 81.1 62.3 80.9 62.4 80.4 62.5 C 81.1 62.8 82.6 62.4 83.1 62.9 C 83.8 62.9 83.8 62.5 84.0 62.3 C 83.6 62.3 83.5 62.3 83.4 62.2 C 83.0 62.7 82.5 62.0 82.0 62.4 C 82.0 62.4 82.0 62.4 82.0 62.4 Z M 50.7 60.1 C 50.3 59.8 51.1 59.9 51.3 59.7 C 51.7 59.8 51.5 60.0 51.6 60.1 C 52.0 60.2 52.2 60.1 52.2 59.8 C 51.3 59.6 50.2 59.4 50.9 59.1 C 50.1 58.9 50.5 59.4 50.0 59.3 C 49.6 59.0 50.0 59.1 50.1 58.8 C 49.9 58.8 49.2 59.0 49.3 58.6 C 48.0 58.7 48.4 59.4 49.3 60.0 C 50.2 59.9 49.3 59.6 50.7 60.1 C 50.7 60.1 50.7 60.1 50.7 60.1 Z M 18.0 48.1 C 18.1 48.2 18.6 48.5 18.5 48.6 C 19.3 48.8 20.0 48.9 20.8 48.9 C 20.8 48.6 19.8 48.4 20.1 48.8 C 19.9 48.4 19.4 48.0 19.2 47.6 C 18.6 47.2 18.1 47.6 18.3 47.2 C 17.6 47.0 17.9 47.2 17.1 46.5 C 18.3 47.7 16.6 46.3 16.3 46.6 C 17.0 47.1 17.8 47.6 17.8 47.2 C 18.3 47.7 19.0 48.2 19.0 48.6 C 18.9 48.6 18.4 48.3 18.0 48.1 C 18.0 48.1 18.0 48.1 18.0 48.1 Z M 22.2 49.5 C 21.9 49.4 21.6 49.3 21.2 49.0 C 21.4 49.3 21.4 49.4 21.3 49.6 C 22.1 50.0 22.4 49.9 22.6 50.3 C 23.3 50.8 22.5 49.8 23.7 50.6 C 23.7 50.4 23.0 50.2 23.1 50.1 C 22.9 50.2 22.4 50.0 22.2 49.5 C 22.2 49.5 22.2 49.5 22.2 49.5 Z M 29.7 53.6 C 30.3 53.8 29.5 53.3 29.8 53.2 C 29.7 53.2 28.6 52.7 28.8 52.5 C 28.7 52.0 27.2 52.3 27.5 51.8 C 27.3 51.7 27.3 51.9 27.2 52.0 C 28.0 52.3 27.9 52.5 27.3 52.3 C 27.4 52.5 27.9 52.6 28.2 52.8 C 28.3 52.6 28.0 52.4 28.1 52.3 C 28.7 52.7 29.1 53.2 29.7 53.6 C 29.7 53.6 29.7 53.6 29.7 53.6 Z M 80.9 10.8 C 80.3 10.7 79.8 10.7 79.5 10.7 C 79.7 10.9 80.0 10.8 80.3 10.8 C 80.4 11.0 80.1 11.0 79.8 10.9 C 80.1 11.2 81.2 11.1 80.9 10.8 C 80.9 10.8 80.9 10.8 80.9 10.8 Z M 75.3 10.2 C 74.7 10.1 74.3 10.1 74.2 10.3 C 74.4 10.5 74.4 10.2 74.8 10.2 C 75.0 10.3 75.2 10.5 75.3 10.6 C 75.6 10.6 75.5 10.5 75.6 10.4 C 75.8 10.4 75.8 10.5 75.9 10.5 C 76.7 10.3 75.0 10.5 75.3 10.2 C 75.3 10.2 75.3 10.2 75.3 10.2 Z M 26.0 51.8 C 25.9 51.6 25.8 51.4 25.3 51.1 C 25.3 51.4 24.9 51.2 24.4 50.9 C 25.1 51.5 25.3 51.5 26.0 51.8 C 26.0 51.8 26.0 51.8 26.0 51.8 Z M 41.1 11.2 C 40.3 11.1 40.4 11.5 39.3 11.5 C 39.3 11.6 39.3 11.7 39.3 11.8 C 40.0 11.4 40.3 11.6 41.1 11.2 C 41.1 11.2 41.1 11.2 41.1 11.2 Z M 132.3 45.4 C 132.2 45.2 131.9 45.9 131.7 45.8 C 132.0 46.2 131.2 46.0 130.5 47.1 C 130.4 47.1 130.4 47.0 130.5 46.8 C 129.7 47.6 130.9 46.8 131.2 46.8 C 131.7 46.1 132.0 46.1 132.3 45.4 C 132.3 45.4 132.3 45.4 132.3 45.4 Z M 73.7 61.4 C 73.6 61.5 73.8 61.5 73.9 61.6 C 74.1 61.6 74.3 61.6 74.5 61.6 C 74.4 61.2 73.5 61.0 74.2 60.6 C 74.0 60.5 74.0 60.6 74.0 60.7 C 72.6 61.5 71.6 60.0 69.8 60.4 C 69.5 60.4 69.5 60.5 69.5 60.6 C 69.7 60.6 69.7 60.7 69.8 60.7 C 70.0 60.3 71.6 60.9 70.9 61.0 C 70.9 61.1 71.1 61.1 71.1 61.0 C 71.3 61.0 71.5 61.0 71.7 61.1 C 71.6 60.9 71.2 60.9 71.1 60.7 C 72.0 60.9 73.1 61.0 72.5 61.4 C 73.1 61.4 73.3 61.2 73.7 61.1 C 74.0 61.2 74.0 61.5 73.7 61.4 C 73.7 61.4 73.7 61.4 73.7 61.4 Z M 80.9 61.5 C 81.8 61.5 81.4 61.2 82.3 61.2 C 81.8 61.0 81.1 61.4 80.4 61.2 C 80.5 61.3 80.8 61.3 80.9 61.5 C 80.9 61.5 80.9 61.5 80.9 61.5 Z M 64.7 60.3 C 64.9 60.0 64.2 59.9 63.4 59.8 C 63.2 60.2 63.9 60.3 64.7 60.3 C 64.7 60.3 64.7 60.3 64.7 60.3 Z M 68.4 60.6 C 69.2 60.6 67.3 60.5 67.8 60.2 C 67.4 60.2 67.0 60.2 67.0 60.0 C 66.7 60.1 66.7 60.2 66.2 60.2 C 66.2 60.4 67.1 60.3 67.0 60.5 C 67.6 60.4 67.7 60.4 68.4 60.6 C 68.4 60.6 68.4 60.6 68.4 60.6 Z M 68.9 60.7 C 69.5 60.6 68.8 60.1 68.1 60.0 C 68.4 60.3 68.5 60.5 68.9 60.7 C 68.9 60.7 68.9 60.7 68.9 60.7 Z M 10.3 39.1 C 10.5 39.3 10.6 38.9 10.8 39.3 C 10.9 39.2 10.2 38.1 10.9 39.0 C 10.9 38.4 10.3 38.5 10.2 38.1 C 10.2 38.2 10.2 38.4 10.0 38.2 C 9.7 38.2 10.6 39.0 10.3 39.1 C 10.3 39.1 10.3 39.1 10.3 39.1 Z M 11.1 40.2 C 11.3 40.4 11.3 40.2 11.2 40.1 C 11.3 40.1 11.6 40.4 11.8 40.6 C 11.7 40.7 11.8 39.9 12.0 39.8 C 11.1 39.0 11.4 39.9 11.1 40.2 C 11.1 40.2 11.1 40.2 11.1 40.2 Z M 12.1 41.0 C 12.4 41.8 13.4 42.6 14.0 42.8 C 13.8 42.0 12.6 41.0 12.1 41.0 C 12.1 41.0 12.1 41.0 12.1 41.0 Z M 8.6 34.7 C 8.6 35.9 9.9 38.0 9.4 35.9 C 9.3 36.1 8.7 34.8 8.7 34.1 C 8.6 34.1 8.2 33.5 8.4 33.4 C 8.1 33.0 8.4 35.1 8.6 34.7 C 8.6 34.7 8.6 34.7 8.6 34.7 Z M 15.2 43.1 C 14.8 42.9 14.9 43.7 14.5 43.1 C 14.1 42.8 14.5 43.2 14.3 43.3 C 14.9 43.9 16.6 44.8 16.6 45.1 C 17.0 45.3 17.2 45.2 18.0 45.8 C 18.1 45.7 15.2 44.1 15.1 43.2 C 15.2 43.2 16.1 43.8 15.2 43.1 C 15.2 43.1 15.2 43.1 15.2 43.1 Z M 41.4 13.0 C 41.4 12.7 40.4 13.1 40.5 12.7 C 40.0 13.2 39.5 13.0 38.9 13.4 C 38.7 13.3 38.7 12.9 37.8 13.0 C 37.8 13.3 38.2 13.1 37.9 13.4 C 37.1 13.6 37.2 13.2 36.3 13.5 C 36.6 13.9 34.5 13.9 34.8 14.4 C 35.2 14.3 35.2 14.0 36.0 14.0 C 36.2 13.9 36.1 14.1 36.5 14.1 C 36.3 14.4 35.8 14.0 35.5 14.4 C 35.6 14.5 36.2 14.4 36.3 14.6 C 36.7 14.5 36.2 14.5 36.3 14.3 C 37.2 14.0 36.3 15.0 37.3 14.7 C 37.1 14.4 37.1 14.4 37.2 14.1 C 37.7 14.2 38.9 13.7 38.3 14.2 C 38.4 14.4 39.1 14.0 38.9 13.8 C 39.3 13.7 39.4 13.8 39.5 13.9 C 40.5 13.6 40.6 13.3 40.3 13.0 C 40.5 12.7 40.7 13.2 41.4 13.0 C 41.4 13.0 41.4 13.0 41.4 13.0 Z M 9.0 28.8 C 8.9 28.3 8.9 29.3 8.7 29.7 C 8.9 29.2 9.2 29.5 9.4 29.0 C 9.3 29.2 9.2 29.1 9.3 28.8 C 9.2 28.6 8.8 29.4 9.0 28.8 C 9.0 28.8 9.0 28.8 9.0 28.8 Z M 19.6 46.9 C 19.8 47.2 21.4 48.0 22.3 48.5 C 22.3 48.0 20.0 47.4 20.0 46.9 C 19.6 46.6 20.2 47.2 19.6 46.9 C 19.6 46.9 19.6 46.9 19.6 46.9 Z M 32.1 14.4 C 31.8 14.5 32.0 14.6 32.1 14.5 C 32.1 14.7 31.6 14.7 31.2 14.9 C 31.8 14.9 31.2 15.2 31.4 15.4 C 31.1 15.5 31.0 15.6 30.9 15.7 C 30.8 15.1 29.6 16.3 31.0 16.0 C 30.7 15.8 30.8 15.8 31.4 15.5 C 32.1 15.6 32.5 15.2 32.8 15.5 C 33.2 15.3 33.4 15.1 33.9 15.0 C 34.1 15.2 34.7 15.2 34.3 15.7 C 35.4 15.5 34.5 14.9 35.4 14.7 C 36.2 14.7 35.0 15.1 35.3 15.3 C 35.5 15.3 35.4 15.4 35.5 15.5 C 35.8 15.4 35.8 15.1 35.5 15.2 C 35.5 15.1 36.3 14.6 36.2 15.0 C 36.6 14.8 35.2 14.3 34.6 14.7 C 34.2 14.9 34.1 14.3 34.5 14.3 C 34.3 14.0 33.7 14.9 33.8 14.2 C 33.4 14.3 33.1 14.4 32.8 14.5 C 32.9 14.5 33.1 14.5 33.1 14.6 C 32.8 14.7 32.5 14.7 32.2 14.8 C 32.4 14.6 32.4 14.5 32.1 14.4 C 32.1 14.4 32.1 14.4 32.1 14.4 Z M 16.3 44.5 C 16.9 44.9 17.1 44.9 17.7 45.2 C 17.6 44.9 16.2 44.0 16.3 44.5 C 16.3 44.5 16.3 44.5 16.3 44.5 Z M 45.8 13.3 C 45.7 13.2 45.3 13.3 45.3 13.2 C 46.1 13.0 45.1 12.9 45.7 12.3 C 44.7 12.7 44.4 13.4 45.8 13.5 C 46.8 13.3 44.8 13.5 45.8 13.3 C 45.8 13.3 45.8 13.3 45.8 13.3 Z M 42.7 13.5 C 42.1 13.7 43.7 13.7 44.0 13.7 C 44.1 13.8 44.1 13.9 44.1 14.0 C 44.9 13.5 43.7 13.5 44.4 12.8 C 43.4 12.7 43.0 12.7 42.1 13.0 C 42.2 13.1 42.4 13.0 42.4 12.9 C 43.0 12.9 42.6 13.4 41.9 13.3 C 42.1 13.4 42.8 13.3 43.2 13.3 C 43.1 13.3 42.9 13.2 42.9 13.1 C 43.5 12.9 43.3 13.2 43.7 13.2 C 43.7 13.3 42.8 13.7 42.7 13.5 C 42.7 13.5 42.7 13.5 42.7 13.5 Z M 95.8 15.7 C 95.3 15.6 96.3 16.2 96.1 16.7 C 96.7 16.8 96.8 16.8 97.2 16.8 C 97.1 16.6 96.5 16.4 96.3 16.2 C 96.4 15.8 97.0 16.4 97.3 16.2 C 97.8 15.9 96.0 16.1 95.8 15.7 C 95.8 15.7 95.8 15.7 95.8 15.7 Z M 19.1 19.7 C 18.8 19.9 19.0 19.9 19.2 19.8 C 19.2 19.9 18.7 20.2 18.6 20.1 C 18.3 20.3 19.0 20.1 18.5 20.4 C 18.5 20.6 19.2 20.0 19.2 19.9 C 19.8 19.6 19.5 20.1 19.7 20.2 C 20.2 19.9 19.9 19.8 20.7 19.5 C 20.2 19.5 19.7 19.6 19.1 19.7 C 19.1 19.7 19.1 19.7 19.1 19.7 Z M 47.5 12.5 C 47.6 12.4 47.0 13.0 46.3 12.8 C 45.4 13.0 46.9 13.1 46.1 13.2 C 46.7 13.2 47.6 12.8 48.6 12.7 C 48.9 12.5 47.1 12.8 48.1 12.6 C 48.0 12.5 47.8 12.5 47.8 12.6 C 47.6 12.6 47.6 12.6 47.5 12.5 C 47.5 12.5 47.5 12.5 47.5 12.5 Z M 46.6 13.3 C 46.6 13.4 46.9 13.3 46.9 13.3 C 47.2 13.3 47.2 13.6 46.9 13.6 C 47.4 13.9 47.3 13.3 48.2 13.4 C 47.8 13.1 47.6 13.0 48.4 13.1 C 49.0 12.8 46.9 13.1 46.6 13.3 C 46.6 13.3 46.6 13.3 46.6 13.3 Z M 87.4 14.2 C 87.5 14.3 88.0 14.4 88.5 14.4 C 87.9 14.6 85.7 14.1 85.5 13.8 C 85.3 13.9 85.0 13.9 85.0 13.8 C 85.0 13.9 84.3 13.9 84.7 14.0 C 84.6 14.1 84.1 14.0 84.1 14.1 C 83.3 13.9 84.4 14.0 84.2 13.7 C 83.1 13.9 83.4 13.7 82.2 13.5 C 82.4 13.8 83.7 13.9 83.5 14.3 C 84.5 14.1 85.4 14.4 85.9 14.8 C 85.1 14.2 88.3 14.5 89.7 14.9 C 89.7 15.1 90.2 15.1 90.7 15.4 C 91.1 15.8 91.1 15.1 90.3 15.1 C 90.3 14.9 91.4 15.3 91.8 15.3 C 91.3 15.0 91.7 14.9 91.4 14.8 C 90.4 14.6 91.3 14.9 91.1 15.0 C 90.8 15.0 90.6 14.9 90.3 14.9 C 91.8 14.7 88.3 14.4 89.5 14.6 C 88.4 14.5 88.5 14.1 87.4 14.2 C 87.4 14.2 87.4 14.2 87.4 14.2 Z M 61.6 11.9 C 61.4 11.9 60.5 12.1 60.5 11.9 C 59.4 12.1 60.3 12.4 59.1 12.4 C 59.2 12.5 59.7 12.4 59.7 12.6 C 60.1 12.5 60.6 12.4 60.5 12.1 C 61.0 12.1 61.2 12.0 61.6 12.0 C 61.4 12.1 61.2 12.2 60.7 12.2 C 60.7 12.4 60.9 12.6 61.6 12.6 C 61.9 12.3 61.7 12.1 61.6 11.9 C 61.6 11.9 61.6 11.9 61.6 11.9 Z M 58.8 12.3 C 58.7 12.2 58.5 12.1 58.6 12.0 C 58.1 11.7 58.4 12.4 58.0 12.4 C 57.7 12.4 57.8 12.2 57.7 12.1 C 57.3 12.2 56.9 12.2 56.6 12.1 C 55.9 12.3 57.5 12.4 57.7 12.5 C 58.3 12.5 58.1 12.2 58.8 12.3 C 58.8 12.3 58.8 12.3 58.8 12.3 Z M 50.7 12.3 C 50.6 12.1 50.3 12.5 50.0 12.5 C 50.2 12.8 51.0 12.5 50.5 13.0 C 51.3 13.0 51.3 13.0 52.1 12.9 C 52.6 13.1 52.1 12.6 51.3 12.8 C 51.4 12.7 51.8 12.6 51.8 12.5 C 52.4 13.0 53.7 12.0 52.9 12.5 C 52.6 12.4 52.5 12.3 52.3 12.2 C 52.2 12.5 50.3 12.5 50.7 12.3 C 50.7 12.3 50.7 12.3 50.7 12.3 Z M 25.7 17.5 C 27.0 17.0 27.5 16.8 28.4 16.6 C 28.4 16.7 28.4 16.8 28.2 16.9 C 28.4 16.9 28.7 16.8 29.1 16.6 C 29.0 16.5 28.8 16.6 28.8 16.7 C 28.1 16.7 28.7 16.5 28.7 16.2 C 27.8 16.2 26.6 17.2 25.9 17.0 C 25.4 17.3 26.0 17.1 25.7 17.5 C 25.7 17.5 25.7 17.5 25.7 17.5 Z M 130.5 43.5 C 130.5 43.6 130.4 43.9 130.6 43.9 C 130.7 43.7 130.7 43.5 130.8 43.2 C 130.5 43.6 130.1 43.4 129.8 43.9 C 130.1 43.8 130.3 44.0 130.5 43.5 C 130.5 43.5 130.5 43.5 130.5 43.5 Z M 53.4 12.3 C 53.4 12.4 53.5 12.6 53.2 12.6 C 53.1 12.8 53.9 12.7 54.0 12.8 C 54.2 12.8 54.1 12.6 54.5 12.6 C 54.4 12.5 53.7 12.6 53.9 12.2 C 54.2 12.2 54.2 12.3 54.2 12.3 C 54.8 12.2 53.9 12.1 53.4 12.3 C 53.4 12.3 53.4 12.3 53.4 12.3 Z M 98.3 16.6 C 98.0 16.5 98.3 16.7 98.5 16.8 C 97.7 17.0 98.8 17.4 98.8 17.7 C 98.6 17.4 97.5 17.3 97.4 17.2 C 97.1 17.2 97.3 17.5 96.5 17.4 C 96.6 17.6 97.5 17.6 97.3 17.4 C 97.5 17.8 98.4 17.6 98.2 17.9 C 99.3 18.3 99.7 18.1 99.8 17.8 C 98.7 17.7 99.4 17.3 98.4 17.1 C 98.5 17.0 98.8 17.1 99.0 17.2 C 98.9 16.9 98.5 16.8 98.3 16.6 C 98.3 16.6 98.3 16.6 98.3 16.6 Z M 70.4 12.3 C 69.8 12.3 69.8 12.6 69.8 12.8 C 70.1 12.7 70.4 12.7 70.9 12.8 C 70.8 12.6 70.1 12.6 70.4 12.3 C 70.4 12.3 70.4 12.3 70.4 12.3 Z M 94.1 16.0 C 94.1 15.9 93.9 15.9 93.9 15.9 C 93.2 15.8 93.1 15.6 92.9 15.4 C 92.5 15.4 92.6 15.6 92.6 15.7 C 93.2 15.6 93.0 16.0 93.8 16.1 C 93.8 16.0 93.9 16.0 94.1 16.0 C 94.1 16.0 94.1 16.0 94.1 16.0 Z M 76.2 13.0 C 75.9 13.0 76.0 13.1 76.2 13.1 C 75.8 13.4 74.7 13.0 74.2 13.1 C 74.1 13.3 75.5 13.4 73.9 13.4 C 74.2 13.6 75.7 13.6 76.4 13.7 C 76.2 14.0 75.2 13.8 75.2 14.2 C 76.1 14.1 77.1 14.0 77.2 13.6 C 76.0 13.4 76.5 13.2 76.2 13.0 C 76.2 13.0 76.2 13.0 76.2 13.0 Z M 77.5 13.3 C 77.4 13.1 77.2 13.3 76.7 13.2 C 77.4 13.7 77.8 13.6 79.2 13.8 C 79.2 13.7 79.2 13.7 79.2 13.6 C 79.4 13.6 79.7 13.7 80.0 13.7 C 78.8 13.2 78.5 13.4 77.3 13.4 C 77.2 13.3 77.4 13.3 77.5 13.3 C 77.5 13.3 77.5 13.3 77.5 13.3 Z M 41.5 13.9 C 41.9 14.0 42.2 14.1 42.8 14.1 C 42.7 13.8 42.3 13.7 41.5 13.9 C 41.5 13.9 41.5 13.9 41.5 13.9 Z M 95.1 16.4 C 95.9 16.4 94.4 16.3 94.8 16.6 C 95.3 16.9 95.9 17.1 96.0 17.4 C 97.1 17.3 94.9 16.8 95.1 16.4 C 95.1 16.4 95.1 16.4 95.1 16.4 Z M 90.3 16.1 C 90.0 16.0 90.1 15.6 90.4 15.9 C 91.1 16.1 89.8 15.5 90.9 15.8 C 90.5 15.6 89.4 15.2 88.8 15.3 C 88.8 15.6 89.8 15.7 89.8 15.9 C 89.8 16.0 89.7 16.0 89.5 16.0 C 89.6 16.1 89.9 16.0 90.3 16.1 C 90.3 16.1 90.3 16.1 90.3 16.1 Z M 86.4 14.9 C 86.9 15.1 87.4 15.4 88.3 15.5 C 87.7 15.2 87.4 14.9 86.4 14.9 C 86.4 14.9 86.4 14.9 86.4 14.9 Z M 129.4 35.3 C 129.2 34.9 129.1 35.4 129.0 35.5 C 129.2 35.9 129.4 35.8 129.5 36.2 C 129.8 36.0 129.2 35.7 129.4 35.3 C 129.4 35.3 129.4 35.3 129.4 35.3 Z M 129.8 36.8 C 129.6 36.9 129.9 37.4 129.7 37.4 C 130.4 37.6 129.5 38.2 130.0 38.1 C 129.9 38.3 129.9 38.4 129.9 38.6 C 130.4 38.1 130.0 37.2 129.8 36.8 C 129.8 36.8 129.8 36.8 129.8 36.8 Z M 81.8 14.8 C 81.1 14.7 81.9 15.3 81.2 15.1 C 81.1 15.3 82.5 15.5 81.7 15.5 C 82.7 15.9 81.7 14.9 81.8 14.8 C 81.8 14.8 81.8 14.8 81.8 14.8 Z M 68.4 13.9 C 68.4 13.7 67.4 13.8 67.0 13.8 C 67.0 13.9 67.3 13.9 67.6 13.9 C 67.4 14.0 67.3 14.1 67.0 14.1 C 67.2 14.3 68.0 13.9 68.4 13.9 C 68.4 13.9 68.4 13.9 68.4 13.9 Z M 83.9 9.9 C 84.3 10.2 84.8 10.5 85.2 10.2 C 85.7 10.5 84.9 10.4 85.4 10.7 C 86.2 10.7 85.8 10.9 87.1 11.0 C 86.8 11.3 87.7 11.4 87.8 11.7 C 87.3 11.7 86.7 11.2 86.4 11.5 C 86.9 11.5 86.6 11.8 86.4 11.6 C 85.6 11.2 87.5 11.3 86.5 11.0 C 86.2 11.3 84.8 10.4 83.8 10.2 C 84.2 10.1 83.1 9.8 83.9 9.9 C 83.9 9.9 83.9 9.9 83.9 9.9 Z M 88.7 11.2 C 89.4 11.3 89.6 12.0 89.4 12.0 C 89.5 11.8 88.7 11.7 88.6 11.8 C 88.8 11.9 89.0 11.9 88.9 12.0 C 87.7 11.7 88.2 11.5 87.9 11.3 C 88.6 11.3 88.7 11.5 89.0 11.4 C 88.8 11.4 88.7 11.3 88.7 11.2 C 88.7 11.2 88.7 11.2 88.7 11.2 Z M 101.3 19.3 C 101.2 19.1 101.0 19.2 100.8 19.2 C 100.8 18.8 99.4 19.0 99.3 18.7 C 99.7 18.7 100.3 18.8 100.6 18.8 C 100.3 18.6 100.3 18.5 99.9 18.6 C 100.0 18.3 100.8 18.5 101.0 18.4 C 101.0 18.6 101.4 18.4 101.5 18.6 C 100.5 18.5 101.8 19.4 101.3 19.3 C 101.3 19.3 101.3 19.3 101.3 19.3 Z M 75.5 14.5 C 75.4 14.8 76.5 15.6 75.4 15.9 C 75.2 15.6 75.0 15.3 75.2 15.0 C 74.5 15.1 74.2 14.8 73.8 15.1 C 72.6 14.1 74.7 15.2 75.5 14.5 C 75.5 14.5 75.5 14.5 75.5 14.5 Z M 71.1 14.5 C 71.3 14.2 70.7 14.2 70.8 14.0 C 71.4 14.2 73.1 14.0 72.5 14.2 C 71.9 14.2 71.9 14.5 71.1 14.5 C 71.1 14.5 71.1 14.5 71.1 14.5 Z M 34.6 53.2 C 33.7 53.2 33.5 52.5 34.0 52.5 C 33.7 52.8 34.9 53.0 34.6 53.2 C 34.6 53.2 34.6 53.2 34.6 53.2 Z M 5.3 38.1 C 5.4 38.9 5.8 39.3 5.6 39.5 C 5.1 38.8 5.4 38.8 5.1 38.2 C 4.9 38.2 4.7 37.9 4.8 37.7 C 4.9 38.1 5.1 37.9 5.3 38.1 C 5.3 38.1 5.3 38.1 5.3 38.1 Z M 54.2 7.2 C 54.2 7.1 53.8 7.0 54.0 6.8 C 54.8 6.9 55.8 6.7 56.5 6.4 C 56.5 6.6 56.5 6.7 56.5 6.8 C 55.1 6.8 54.8 7.0 54.2 7.2 C 54.2 7.2 54.2 7.2 54.2 7.2 Z M 52.5 6.7 C 52.4 6.9 52.9 7.2 52.3 7.2 C 52.3 7.0 51.2 6.7 51.7 6.7 C 51.9 6.9 52.2 6.8 52.5 6.7 C 52.5 6.7 52.5 6.7 52.5 6.7 Z M 99.3 12.7 C 99.9 12.8 99.1 12.4 99.1 12.2 C 99.6 12.4 100.2 12.6 100.4 12.8 C 99.9 12.6 99.5 13.0 99.3 12.7 C 99.3 12.7 99.3 12.7 99.3 12.7 Z M 89.3 11.2 C 87.9 11.0 88.6 10.6 87.2 10.3 C 87.8 10.2 89.1 10.4 89.5 10.3 C 89.4 10.4 89.7 10.5 89.7 10.7 C 89.2 10.6 89.1 10.5 88.6 10.4 C 88.7 10.7 88.7 10.6 88.5 10.9 C 88.9 11.0 89.1 11.0 89.4 10.9 C 89.2 11.1 89.7 11.3 89.3 11.2 C 89.3 11.2 89.3 11.2 89.3 11.2 Z M 98.9 13.4 C 99.4 13.5 99.8 14.0 99.3 13.8 C 99.3 13.6 98.9 13.8 98.8 13.6 C 99.6 13.7 98.2 13.3 98.6 13.2 C 99.1 13.3 99.3 13.2 99.2 13.0 C 99.5 13.1 100.0 13.2 100.0 13.3 C 99.8 13.3 99.5 13.2 99.5 13.3 C 99.6 13.3 99.8 13.3 99.7 13.4 C 99.2 13.3 99.0 13.3 98.9 13.4 C 98.9 13.4 98.9 13.4 98.9 13.4 Z M 95.2 12.5 C 95.9 12.7 95.9 13.0 96.1 13.3 C 95.2 12.9 95.1 12.5 94.4 12.2 C 95.2 12.4 96.1 12.2 96.3 12.5 C 95.9 12.5 95.3 12.3 95.2 12.5 C 95.2 12.5 95.2 12.5 95.2 12.5 Z M 103.8 60.1 C 103.2 60.0 102.7 59.9 102.0 59.9 C 101.8 60.3 103.2 60.6 102.6 60.5 C 101.9 60.7 102.3 60.2 101.8 60.2 C 102.4 60.6 99.4 61.0 99.2 60.6 C 99.7 60.6 99.8 60.5 99.7 60.3 C 100.9 60.1 101.3 59.8 102.2 59.6 C 102.9 59.8 104.8 59.6 105.7 59.0 C 106.4 59.4 107.4 58.5 108.4 58.8 C 108.6 58.6 107.6 58.6 108.3 58.4 C 108.8 58.6 108.5 58.8 109.2 58.8 C 109.2 58.7 109.0 58.5 109.3 58.4 C 109.3 58.6 109.7 58.5 109.8 58.5 C 108.6 58.8 110.0 58.9 109.0 59.3 C 108.6 59.2 109.3 58.7 108.2 58.9 C 107.8 59.1 107.4 59.3 107.6 59.6 C 107.2 59.7 107.1 59.8 106.9 59.9 C 107.2 59.4 105.2 60.3 106.1 59.7 C 106.2 59.7 106.8 59.6 107.3 59.4 C 106.8 59.1 106.3 59.4 105.6 59.7 C 105.2 59.6 105.6 59.4 105.2 59.4 C 104.7 59.7 105.6 59.8 105.1 60.0 C 105.3 60.0 105.6 59.9 105.6 60.0 C 104.5 59.9 104.2 60.3 103.6 60.4 C 104.0 60.2 103.0 60.3 103.8 60.1 C 103.8 60.1 103.8 60.1 103.8 60.1 Z M 112.3 57.6 C 112.5 57.6 112.8 57.5 113.0 57.4 C 113.1 57.7 112.3 58.0 112.9 58.1 C 111.9 58.3 112.9 57.7 112.3 57.6 C 112.3 57.6 112.3 57.6 112.3 57.6 Z M 107.4 57.8 C 107.0 57.6 107.4 58.2 107.0 58.3 C 107.6 58.1 108.1 57.9 108.3 58.2 C 107.6 58.3 107.3 58.3 106.6 58.6 C 107.2 58.0 105.8 58.4 105.5 58.1 C 106.0 57.9 106.4 57.7 107.1 57.6 C 107.0 57.7 108.1 57.6 107.4 57.8 C 107.4 57.8 107.4 57.8 107.4 57.8 Z M 109.2 56.9 C 109.4 57.1 110.3 56.7 110.2 57.1 C 109.6 57.2 109.4 57.3 109.6 57.6 C 109.1 57.7 109.0 57.6 108.6 57.7 C 108.3 57.4 109.0 57.3 109.2 57.0 C 109.1 57.1 108.9 57.0 109.2 56.9 C 109.2 56.9 109.2 56.9 109.2 56.9 Z M 127.1 46.4 C 127.5 46.5 126.7 47.0 126.5 47.0 C 126.9 47.1 126.9 47.2 126.5 47.7 C 126.4 47.2 125.9 47.9 125.2 47.9 C 125.2 48.2 125.9 47.9 125.3 48.4 C 124.7 48.7 124.3 49.2 123.4 49.8 C 123.0 49.7 123.4 49.4 123.6 49.1 C 123.0 49.6 123.0 49.2 122.6 49.5 C 122.7 49.6 122.4 49.9 122.2 49.9 C 123.0 49.3 120.9 50.2 121.7 49.6 C 121.8 49.6 122.0 49.5 122.1 49.3 C 122.1 49.8 123.2 49.0 123.5 49.0 C 123.6 48.2 124.8 47.7 125.9 47.0 C 126.1 47.1 125.8 47.4 126.1 47.2 C 126.1 47.1 126.4 46.9 126.5 46.7 C 126.6 46.8 126.8 46.7 127.0 46.6 C 127.0 46.5 127.0 46.5 127.1 46.4 C 127.1 46.4 127.1 46.4 127.1 46.4 Z M 59.5 57.5 C 59.6 57.0 57.8 57.1 57.3 57.1 C 57.5 56.6 60.5 57.2 59.5 57.5 C 59.5 57.5 59.5 57.5 59.5 57.5 Z M 70.2 58.2 C 69.7 58.1 70.0 58.4 69.6 58.4 C 69.6 58.1 68.5 58.7 68.5 58.4 C 69.1 58.1 69.4 58.2 70.2 58.2 C 70.2 58.2 70.2 58.2 70.2 58.2 Z M 80.1 58.6 C 79.3 58.6 80.5 58.7 80.3 58.9 C 79.7 58.9 78.9 58.8 79.0 58.6 C 79.6 58.7 80.0 58.3 80.1 58.6 C 80.1 58.6 80.1 58.6 80.1 58.6 Z M 65.3 57.5 C 64.6 57.3 65.8 57.0 65.8 57.2 C 65.1 57.3 66.3 57.6 66.9 57.5 C 66.9 57.9 66.6 57.8 66.9 58.1 C 65.9 58.2 66.7 57.8 66.1 57.8 C 65.6 57.9 66.1 57.9 66.0 58.2 C 65.8 58.1 65.5 58.1 65.2 58.1 C 65.2 57.9 65.3 57.8 65.3 57.6 C 65.6 57.6 65.9 57.6 65.8 57.4 C 65.6 57.4 65.5 57.5 65.3 57.5 C 65.3 57.5 65.3 57.5 65.3 57.5 Z M 114.2 52.8 C 113.7 53.0 114.2 53.0 114.6 52.9 C 114.6 52.7 114.8 52.1 115.4 52.2 C 114.3 52.9 116.0 52.5 115.3 52.9 C 114.9 52.7 114.3 53.3 113.6 53.5 C 113.3 53.3 113.8 52.7 114.2 52.8 C 114.2 52.8 114.2 52.8 114.2 52.8 Z M 116.5 52.2 C 116.4 52.1 116.2 52.2 115.9 52.4 C 116.2 52.0 115.6 52.1 116.1 51.8 C 116.0 52.0 117.7 51.4 116.8 51.9 C 115.9 52.1 117.1 52.0 117.5 51.8 C 117.0 52.0 116.4 52.6 116.2 52.4 C 116.5 52.3 116.6 52.3 116.5 52.2 C 116.5 52.2 116.5 52.2 116.5 52.2 Z M 128.7 43.1 C 128.5 42.9 128.4 43.2 128.3 43.2 C 128.7 42.6 128.9 42.0 129.1 41.7 C 129.0 42.0 129.2 42.1 129.4 42.0 C 129.2 42.3 129.3 42.4 129.1 42.5 C 129.0 42.1 128.9 42.7 128.7 43.1 C 128.7 43.1 128.7 43.1 128.7 43.1 Z M 128.7 43.1 " fill="#C43100"></path></g></svg>