<?xml version="1.0" encoding="UTF-8" standalone="no"?><svg xmlns="http://www.w3.org/2000/svg" xmlns:xlink="http://www.w3.org/1999/xlink" clip-rule="evenodd" stroke-miterlimit="10" viewBox="0 0 843 88"><desc>SVG generated by Keynote</desc><defs></defs><g transform="matrix(1.00, 0.00, -0.00, -1.00, 0.0, 88.0)"><text xml:space="preserve" font-family="HelveticaNeue-Thin,Helvetica Neue" font-size="72.0" fill="#EBEAE9" transform="matrix(1.00, 0.00, -0.00, -1.00, -0.7, 17.9)">G</text><text xml:space="preserve" font-family="HelveticaNeue-Thin,Helvetica Neue" font-size="72.0" fill="#EBEAE9" transform="matrix(1.00, 0.00, -0.00, -1.00, 52.6, 17.9)">o</text><text xml:space="preserve" font-family="HelveticaNeue-Thin,Helvetica Neue" font-size="72.0" fill="#EBEAE9" transform="matrix(1.00, 0.00, -0.00, -1.00, 91.3, 17.9)"> </text><text xml:space="preserve" font-family="HelveticaNeue-Thin,Helvetica Neue" font-size="72.0" fill="#EBEAE9" transform="matrix(1.00, 0.00, -0.00, -1.00, 111.3, 17.9)">t</text><text xml:space="preserve" font-family="HelveticaNeue-Thin,Helvetica Neue" font-size="72.0" fill="#EBEAE9" transform="matrix(1.00, 0.00, -0.00, -1.00, 129.0, 17.9)">o</text><text xml:space="preserve" font-family="HelveticaNeue-Thin,Helvetica Neue" font-size="72.0" fill="#EBEAE9" transform="matrix(1.00, 0.00, -0.00, -1.00, 167.6, 17.9)"> </text><text xml:space="preserve" font-family="HelveticaNeue-Thin,Helvetica Neue" font-size="72.0" fill="#EBEAE9" transform="matrix(1.00, 0.00, -0.00, -1.00, 187.6, 17.9)">h</text><text xml:space="preserve" font-family="HelveticaNeue-Thin,Helvetica Neue" font-size="72.0" fill="#EBEAE9" transform="matrix(1.00, 0.00, -0.00, -1.00, 225.0, 17.9)">t</text><text xml:space="preserve" font-family="HelveticaNeue-Thin,Helvetica Neue" font-size="72.0" fill="#EBEAE9" transform="matrix(1.00, 0.00, -0.00, -1.00, 243.7, 17.9)">t</text><text xml:space="preserve" font-family="HelveticaNeue-Thin,Helvetica Neue" font-size="72.0" fill="#EBEAE9" transform="matrix(1.00, 0.00, -0.00, -1.00, 262.3, 17.9)">p</text><text xml:space="preserve" font-family="HelveticaNeue-Thin,Helvetica Neue" font-size="72.0" fill="#EBEAE9" transform="matrix(1.00, 0.00, -0.00, -1.00, 302.3, 17.9)">:</text><text xml:space="preserve" font-family="HelveticaNeue-Thin,Helvetica Neue" font-size="72.0" fill="#EBEAE9" transform="matrix(1.00, 0.00, -0.00, -1.00, 322.4, 17.9)">/</text><text xml:space="preserve" font-family="HelveticaNeue-Thin,Helvetica Neue" font-size="72.0" fill="#EBEAE9" transform="matrix(1.00, 0.00, -0.00, -1.00, 346.3, 17.9)">/</text><text xml:space="preserve" font-family="HelveticaNeue-Thin,Helvetica Neue" font-size="72.0" fill="#EBEAE9" transform="matrix(1.00, 0.00, -0.00, -1.00, 370.3, 17.9)">g</text><text xml:space="preserve" font-family="HelveticaNeue-Thin,Helvetica Neue" font-size="72.0" fill="#EBEAE9" transform="matrix(1.00, 0.00, -0.00, -1.00, 409.0, 17.9)">o</text><text xml:space="preserve" font-family="HelveticaNeue-Thin,Helvetica Neue" font-size="72.0" fill="#EBEAE9" transform="matrix(1.00, 0.00, -0.00, -1.00, 447.6, 17.9)">o</text><text xml:space="preserve" font-family="HelveticaNeue-Thin,Helvetica Neue" font-size="72.0" fill="#EBEAE9" transform="matrix(1.00, 0.00, -0.00, -1.00, 486.3, 17.9)">.</text><text xml:space="preserve" font-family="HelveticaNeue-Thin,Helvetica Neue" font-size="72.0" fill="#EBEAE9" transform="matrix(1.00, 0.00, -0.00, -1.00, 506.3, 17.9)">g</text><text xml:space="preserve" font-family="HelveticaNeue-Thin,Helvetica Neue" font-size="72.0" fill="#EBEAE9" transform="matrix(1.00, 0.00, -0.00, -1.00, 545.0, 17.9)">l</text><text xml:space="preserve" font-family="HelveticaNeue-Thin,Helvetica Neue" font-size="72.0" fill="#EBEAE9" transform="matrix(1.00, 0.00, -0.00, -1.00, 557.1, 17.9)">/</text><text xml:space="preserve" font-family="HelveticaNeue-Thin,Helvetica Neue" font-size="72.0" fill="#EBEAE9" transform="matrix(1.00, 0.00, -0.00, -1.00, 581.1, 17.9)">E</text><text xml:space="preserve" font-family="HelveticaNeue-Thin,Helvetica Neue" font-size="72.0" fill="#EBEAE9" transform="matrix(1.00, 0.00, -0.00, -1.00, 621.4, 17.9)">n</text><text xml:space="preserve" font-family="HelveticaNeue-Thin,Helvetica Neue" font-size="72.0" fill="#EBEAE9" transform="matrix(1.00, 0.00, -0.00, -1.00, 658.7, 17.9)">v</text><text xml:space="preserve" font-family="HelveticaNeue-Thin,Helvetica Neue" font-size="72.0" fill="#EBEAE9" transform="matrix(1.00, 0.00, -0.00, -1.00, 690.7, 17.9)">h</text><text xml:space="preserve" font-family="HelveticaNeue-Thin,Helvetica Neue" font-size="72.0" fill="#EBEAE9" transform="matrix(1.00, 0.00, -0.00, -1.00, 728.1, 17.9)">m</text><text xml:space="preserve" font-family="HelveticaNeue-Thin,Helvetica Neue" font-size="72.0" fill="#EBEAE9" transform="matrix(1.00, 0.00, -0.00, -1.00, 785.4, 17.9)">m</text><g><clipPath id="clip0x608001ea2f40"><path d="M 186.6 9.7 L 842.7 9.7 L 842.7 15.3 L 186.6 15.3 Z M 186.6 9.7 "></path></clipPath><g clip-path="url(#clip0x608001ea2f40)"><path d="M 192.9 79.0 L 847.9 79.0 " fill="none" stroke="#EBEAE9" stroke-width="3.60" transform="matrix(1.00, 0.00, 0.00, -1.00, -5.2, 91.5)"></path></g></g></g></svg>