<?xml version="1.0" encoding="UTF-8" standalone="no"?><svg xmlns="http://www.w3.org/2000/svg" xmlns:xlink="http://www.w3.org/1999/xlink" clip-rule="evenodd" stroke-miterlimit="10" viewBox="0 0 1200 292"><desc>SVG generated by Keynote</desc><defs></defs><g transform="matrix(1.00, 0.00, -0.00, -1.00, 0.0, 292.0)"><path d="M 18.0 279.0 L 1182.0 279.0 L 1182.0 35.0 L 18.0 35.0 Z M 18.1 279.1 " fill="#D5D5D5"></path><image xlink:href="EA06A13FC1282F2364DEC477C75A92CC.png" width="1198.00" height="288.00" transform="matrix(1.00, 0.00, -0.00, 1.00, 1.1, 1.9)"></image><g><clipPath id="clip0x6000012b6860"><path d="M 1.9 12.0 L 1198.1 12.0 L 1198.1 295.4 L 1.9 295.4 Z M 1.9 12.0 "></path></clipPath><g clip-path="url(#clip0x6000012b6860)"><text xml:space="preserve" font-family="HelveticaNeue-Thin,Helvetica Neue" font-size="72.0" fill="#090502" transform="matrix(1.00, 0.00, -0.00, -1.00, 124.8, 204.5)">T</text><text xml:space="preserve" font-family="HelveticaNeue-Thin,Helvetica Neue" font-size="72.0" fill="#090502" transform="matrix(1.00, 0.00, -0.00, -1.00, 162.2, 204.5)">h</text><text xml:space="preserve" font-family="HelveticaNeue-Thin,Helvetica Neue" font-size="72.0" fill="#090502" transform="matrix(1.00, 0.00, -0.00, -1.00, 199.5, 204.5)">e</text><text xml:space="preserve" font-family="HelveticaNeue-Thin,Helvetica Neue" font-size="72.0" fill="#090502" transform="matrix(1.00, 0.00, -0.00, -1.00, 236.9, 204.5)"> </text><text xml:space="preserve" font-family="HelveticaNeue-Thin,Helvetica Neue" font-size="72.0" fill="#090502" transform="matrix(1.00, 0.00, -0.00, -1.00, 256.9, 204.5)">ﬁ</text><text xml:space="preserve" font-family="HelveticaNeue-Thin,Helvetica Neue" font-size="72.0" fill="#090502" transform="matrix(1.00, 0.00, -0.00, -1.00, 284.9, 204.5)">r</text><text xml:space="preserve" font-family="HelveticaNeue-Thin,Helvetica Neue" font-size="72.0" fill="#090502" transform="matrix(1.00, 0.00, -0.00, -1.00, 304.9, 204.5)">s</text><text xml:space="preserve" font-family="HelveticaNeue-Thin,Helvetica Neue" font-size="72.0" fill="#090502" transform="matrix(1.00, 0.00, -0.00, -1.00, 339.6, 204.5)">t</text><text xml:space="preserve" font-family="HelveticaNeue-Thin,Helvetica Neue" font-size="72.0" fill="#090502" transform="matrix(1.00, 0.00, -0.00, -1.00, 358.2, 204.5)"> </text><text xml:space="preserve" font-family="HelveticaNeue-Thin,Helvetica Neue" font-size="72.0" fill="#090502" transform="matrix(1.00, 0.00, -0.00, -1.00, 378.2, 204.5)">s</text><text xml:space="preserve" font-family="HelveticaNeue-Thin,Helvetica Neue" font-size="72.0" fill="#090502" transform="matrix(1.00, 0.00, -0.00, -1.00, 412.9, 204.5)">t</text><text xml:space="preserve" font-family="HelveticaNeue-Thin,Helvetica Neue" font-size="72.0" fill="#090502" transform="matrix(1.00, 0.00, -0.00, -1.00, 430.5, 204.5)">e</text><text xml:space="preserve" font-family="HelveticaNeue-Thin,Helvetica Neue" font-size="72.0" fill="#090502" transform="matrix(1.00, 0.00, -0.00, -1.00, 467.9, 204.5)">p</text><text xml:space="preserve" font-family="HelveticaNeue-Thin,Helvetica Neue" font-size="72.0" fill="#090502" transform="matrix(1.00, 0.00, -0.00, -1.00, 507.9, 204.5)"> </text><text xml:space="preserve" font-family="HelveticaNeue-Thin,Helvetica Neue" font-size="72.0" fill="#090502" transform="matrix(1.00, 0.00, -0.00, -1.00, 527.9, 204.5)">i</text><text xml:space="preserve" font-family="HelveticaNeue-Thin,Helvetica Neue" font-size="72.0" fill="#090502" transform="matrix(1.00, 0.00, -0.00, -1.00, 540.0, 204.5)">s</text><text xml:space="preserve" font-family="HelveticaNeue-Thin,Helvetica Neue" font-size="72.0" fill="#090502" transform="matrix(1.00, 0.00, -0.00, -1.00, 574.7, 204.5)"> </text><text xml:space="preserve" font-family="HelveticaNeue-Thin,Helvetica Neue" font-size="72.0" fill="#090502" transform="matrix(1.00, 0.00, -0.00, -1.00, 594.7, 204.5)">t</text><text xml:space="preserve" font-family="HelveticaNeue-Thin,Helvetica Neue" font-size="72.0" fill="#090502" transform="matrix(1.00, 0.00, -0.00, -1.00, 612.3, 204.5)">o</text><text xml:space="preserve" font-family="HelveticaNeue-Thin,Helvetica Neue" font-size="72.0" fill="#090502" transform="matrix(1.00, 0.00, -0.00, -1.00, 651.0, 204.5)"> </text><text xml:space="preserve" font-family="HelveticaNeue-Thin,Helvetica Neue" font-size="72.0" fill="#090502" transform="matrix(1.00, 0.00, -0.00, -1.00, 671.0, 204.5)">ﬁ</text><text xml:space="preserve" font-family="HelveticaNeue-Thin,Helvetica Neue" font-size="72.0" fill="#090502" transform="matrix(1.00, 0.00, -0.00, -1.00, 699.0, 204.5)">n</text><text xml:space="preserve" font-family="HelveticaNeue-Thin,Helvetica Neue" font-size="72.0" fill="#090502" transform="matrix(1.00, 0.00, -0.00, -1.00, 736.4, 204.5)">d</text><text xml:space="preserve" font-family="HelveticaNeue-Thin,Helvetica Neue" font-size="72.0" fill="#090502" transform="matrix(1.00, 0.00, -0.00, -1.00, 776.4, 204.5)"> </text><text xml:space="preserve" font-family="HelveticaNeue-Thin,Helvetica Neue" font-size="72.0" fill="#090502" transform="matrix(1.00, 0.00, -0.00, -1.00, 796.4, 204.5)">o</text><text xml:space="preserve" font-family="HelveticaNeue-Thin,Helvetica Neue" font-size="72.0" fill="#090502" transform="matrix(1.00, 0.00, -0.00, -1.00, 835.1, 204.5)">l</text><text xml:space="preserve" font-family="HelveticaNeue-Thin,Helvetica Neue" font-size="72.0" fill="#090502" transform="matrix(1.00, 0.00, -0.00, -1.00, 847.2, 204.5)">d</text><text xml:space="preserve" font-family="HelveticaNeue-Thin,Helvetica Neue" font-size="72.0" fill="#090502" transform="matrix(1.00, 0.00, -0.00, -1.00, 887.2, 204.5)"> </text><text xml:space="preserve" font-family="HelveticaNeue-Thin,Helvetica Neue" font-size="72.0" fill="#090502" transform="matrix(1.00, 0.00, -0.00, -1.00, 907.2, 204.5)">m</text><text xml:space="preserve" font-family="HelveticaNeue-Thin,Helvetica Neue" font-size="72.0" fill="#090502" transform="matrix(1.00, 0.00, -0.00, -1.00, 964.5, 204.5)">a</text><text xml:space="preserve" font-family="HelveticaNeue-Thin,Helvetica Neue" font-size="72.0" fill="#090502" transform="matrix(1.00, 0.00, -0.00, -1.00, 1000.5, 204.5)">p</text><text xml:space="preserve" font-family="HelveticaNeue-Thin,Helvetica Neue" font-size="72.0" fill="#090502" transform="matrix(1.00, 0.00, -0.00, -1.00, 1040.6, 204.5)">s</text><text xml:space="preserve" font-family="HelveticaNeue-Thin,Helvetica Neue" font-size="72.0" fill="#090502" transform="matrix(1.00, 0.00, -0.00, -1.00, 1075.2, 204.5)"> </text><text xml:space="preserve" font-family="HelveticaNeue-Thin,Helvetica Neue" font-size="50.0" fill="#090502" transform="matrix(1.00, 0.00, -0.00, -1.00, 118.2, 122.2)">F</text><text xml:space="preserve" font-family="HelveticaNeue-Thin,Helvetica Neue" font-size="50.0" fill="#090502" transform="matrix(1.00, 0.00, -0.00, -1.00, 142.5, 122.2)">o</text><text xml:space="preserve" font-family="HelveticaNeue-Thin,Helvetica Neue" font-size="50.0" fill="#090502" transform="matrix(1.00, 0.00, -0.00, -1.00, 169.4, 122.2)">r</text><text xml:space="preserve" font-family="HelveticaNeue-Thin,Helvetica Neue" font-size="50.0" fill="#090502" transform="matrix(1.00, 0.00, -0.00, -1.00, 183.2, 122.2)"> </text><text xml:space="preserve" font-family="HelveticaNeue-Thin,Helvetica Neue" font-size="50.0" fill="#090502" transform="matrix(1.00, 0.00, -0.00, -1.00, 197.2, 122.2)">t</text><text xml:space="preserve" font-family="HelveticaNeue-Thin,Helvetica Neue" font-size="50.0" fill="#090502" transform="matrix(1.00, 0.00, -0.00, -1.00, 210.1, 122.2)">h</text><text xml:space="preserve" font-family="HelveticaNeue-Thin,Helvetica Neue" font-size="50.0" fill="#090502" transform="matrix(1.00, 0.00, -0.00, -1.00, 236.1, 122.2)">i</text><text xml:space="preserve" font-family="HelveticaNeue-Thin,Helvetica Neue" font-size="50.0" fill="#090502" transform="matrix(1.00, 0.00, -0.00, -1.00, 244.5, 122.2)">s</text><text xml:space="preserve" font-family="HelveticaNeue-Thin,Helvetica Neue" font-size="50.0" fill="#090502" transform="matrix(1.00, 0.00, -0.00, -1.00, 268.5, 122.2)"> </text><text xml:space="preserve" font-family="HelveticaNeue-Thin,Helvetica Neue" font-size="50.0" fill="#090502" transform="matrix(1.00, 0.00, -0.00, -1.00, 282.4, 122.2)">w</text><text xml:space="preserve" font-family="HelveticaNeue-Thin,Helvetica Neue" font-size="50.0" fill="#090502" transform="matrix(1.00, 0.00, -0.00, -1.00, 317.6, 122.2)">o</text><text xml:space="preserve" font-family="HelveticaNeue-Thin,Helvetica Neue" font-size="50.0" fill="#090502" transform="matrix(1.00, 0.00, -0.00, -1.00, 344.5, 122.2)">r</text><text xml:space="preserve" font-family="HelveticaNeue-Thin,Helvetica Neue" font-size="50.0" fill="#090502" transform="matrix(1.00, 0.00, -0.00, -1.00, 358.4, 122.2)">k</text><text xml:space="preserve" font-family="HelveticaNeue-Thin,Helvetica Neue" font-size="50.0" fill="#090502" transform="matrix(1.00, 0.00, -0.00, -1.00, 381.5, 122.2)">s</text><text xml:space="preserve" font-family="HelveticaNeue-Thin,Helvetica Neue" font-size="50.0" fill="#090502" transform="matrix(1.00, 0.00, -0.00, -1.00, 405.6, 122.2)">h</text><text xml:space="preserve" font-family="HelveticaNeue-Thin,Helvetica Neue" font-size="50.0" fill="#090502" transform="matrix(1.00, 0.00, -0.00, -1.00, 431.5, 122.2)">o</text><text xml:space="preserve" font-family="HelveticaNeue-Thin,Helvetica Neue" font-size="50.0" fill="#090502" transform="matrix(1.00, 0.00, -0.00, -1.00, 458.4, 122.2)">p</text><text xml:space="preserve" font-family="HelveticaNeue-Thin,Helvetica Neue" font-size="50.0" fill="#090502" transform="matrix(1.00, 0.00, -0.00, -1.00, 486.2, 122.2)"> </text><text xml:space="preserve" font-family="HelveticaNeue-Thin,Helvetica Neue" font-size="50.0" fill="#090502" transform="matrix(1.00, 0.00, -0.00, -1.00, 500.1, 122.2)">y</text><text xml:space="preserve" font-family="HelveticaNeue-Thin,Helvetica Neue" font-size="50.0" fill="#090502" transform="matrix(1.00, 0.00, -0.00, -1.00, 522.2, 122.2)">o</text><text xml:space="preserve" font-family="HelveticaNeue-Thin,Helvetica Neue" font-size="50.0" fill="#090502" transform="matrix(1.00, 0.00, -0.00, -1.00, 549.1, 122.2)">u</text><text xml:space="preserve" font-family="HelveticaNeue-Thin,Helvetica Neue" font-size="50.0" fill="#090502" transform="matrix(1.00, 0.00, -0.00, -1.00, 575.1, 122.2)"> </text><text xml:space="preserve" font-family="HelveticaNeue-Thin,Helvetica Neue" font-size="50.0" fill="#090502" transform="matrix(1.00, 0.00, -0.00, -1.00, 589.0, 122.2)">c</text><text xml:space="preserve" font-family="HelveticaNeue-Thin,Helvetica Neue" font-size="50.0" fill="#090502" transform="matrix(1.00, 0.00, -0.00, -1.00, 614.9, 122.2)">a</text><text xml:space="preserve" font-family="HelveticaNeue-Thin,Helvetica Neue" font-size="50.0" fill="#090502" transform="matrix(1.00, 0.00, -0.00, -1.00, 639.9, 122.2)">n</text><text xml:space="preserve" font-family="HelveticaNeue-Thin,Helvetica Neue" font-size="50.0" fill="#090502" transform="matrix(1.00, 0.00, -0.00, -1.00, 665.9, 122.2)"> </text><text xml:space="preserve" font-family="HelveticaNeue-Thin,Helvetica Neue" font-size="50.0" fill="#090502" transform="matrix(1.00, 0.00, -0.00, -1.00, 679.8, 122.2)">ﬁ</text><text xml:space="preserve" font-family="HelveticaNeue-Thin,Helvetica Neue" font-size="50.0" fill="#090502" transform="matrix(1.00, 0.00, -0.00, -1.00, 699.2, 122.2)">n</text><text xml:space="preserve" font-family="HelveticaNeue-Thin,Helvetica Neue" font-size="50.0" fill="#090502" transform="matrix(1.00, 0.00, -0.00, -1.00, 725.2, 122.2)">d</text><text xml:space="preserve" font-family="HelveticaNeue-Thin,Helvetica Neue" font-size="50.0" fill="#090502" transform="matrix(1.00, 0.00, -0.00, -1.00, 753.0, 122.2)"> </text><text xml:space="preserve" font-family="HelveticaNeue-Thin,Helvetica Neue" font-size="50.0" fill="#090502" transform="matrix(1.00, 0.00, -0.00, -1.00, 766.9, 122.2)">e</text><text xml:space="preserve" font-family="HelveticaNeue-Thin,Helvetica Neue" font-size="50.0" fill="#090502" transform="matrix(1.00, 0.00, -0.00, -1.00, 792.2, 122.2)">x</text><text xml:space="preserve" font-family="HelveticaNeue-Thin,Helvetica Neue" font-size="50.0" fill="#090502" transform="matrix(1.00, 0.00, -0.00, -1.00, 814.4, 122.2)">i</text><text xml:space="preserve" font-family="HelveticaNeue-Thin,Helvetica Neue" font-size="50.0" fill="#090502" transform="matrix(1.00, 0.00, -0.00, -1.00, 822.8, 122.2)">s</text><text xml:space="preserve" font-family="HelveticaNeue-Thin,Helvetica Neue" font-size="50.0" fill="#090502" transform="matrix(1.00, 0.00, -0.00, -1.00, 846.9, 122.2)">t</text><text xml:space="preserve" font-family="HelveticaNeue-Thin,Helvetica Neue" font-size="50.0" fill="#090502" transform="matrix(1.00, 0.00, -0.00, -1.00, 859.8, 122.2)">i</text><text xml:space="preserve" font-family="HelveticaNeue-Thin,Helvetica Neue" font-size="50.0" fill="#090502" transform="matrix(1.00, 0.00, -0.00, -1.00, 868.2, 122.2)">n</text><text xml:space="preserve" font-family="HelveticaNeue-Thin,Helvetica Neue" font-size="50.0" fill="#090502" transform="matrix(1.00, 0.00, -0.00, -1.00, 894.2, 122.2)">g</text><text xml:space="preserve" font-family="HelveticaNeue-Thin,Helvetica Neue" font-size="50.0" fill="#090502" transform="matrix(1.00, 0.00, -0.00, -1.00, 921.0, 122.2)"> </text><text xml:space="preserve" font-family="HelveticaNeue-Thin,Helvetica Neue" font-size="50.0" fill="#090502" transform="matrix(1.00, 0.00, -0.00, -1.00, 934.9, 122.2)">m</text><text xml:space="preserve" font-family="HelveticaNeue-Thin,Helvetica Neue" font-size="50.0" fill="#090502" transform="matrix(1.00, 0.00, -0.00, -1.00, 974.7, 122.2)">a</text><text xml:space="preserve" font-family="HelveticaNeue-Thin,Helvetica Neue" font-size="50.0" fill="#090502" transform="matrix(1.00, 0.00, -0.00, -1.00, 999.7, 122.2)">p</text><text xml:space="preserve" font-family="HelveticaNeue-Thin,Helvetica Neue" font-size="50.0" fill="#090502" transform="matrix(1.00, 0.00, -0.00, -1.00, 1027.5, 122.2)">s</text><text xml:space="preserve" font-family="HelveticaNeue-Thin,Helvetica Neue" font-size="50.0" fill="#090502" transform="matrix(1.00, 0.00, -0.00, -1.00, 1051.5, 122.2)"> </text><text xml:space="preserve" font-family="HelveticaNeue-Thin,Helvetica Neue" font-size="50.0" fill="#090502" transform="matrix(1.00, 0.00, -0.00, -1.00, 1065.5, 122.2)">i</text><text xml:space="preserve" font-family="HelveticaNeue-Thin,Helvetica Neue" font-size="50.0" fill="#090502" transform="matrix(1.00, 0.00, -0.00, -1.00, 1073.8, 122.2)">n</text><text xml:space="preserve" font-family="HelveticaNeue-Thin,Helvetica Neue" font-size="50.0" fill="#090502" transform="matrix(1.00, 0.00, -0.00, -1.00, 1099.8, 122.2)"> </text><text xml:space="preserve" font-family="HelveticaNeue-Thin,Helvetica Neue" font-size="50.0" fill="#090502" transform="matrix(1.00, 0.00, -0.00, -1.00, 86.7, 50.5)">W</text><text xml:space="preserve" font-family="HelveticaNeue-Thin,Helvetica Neue" font-size="50.0" fill="#090502" transform="matrix(1.00, 0.00, -0.00, -1.00, 132.3, 50.5)">i</text><text xml:space="preserve" font-family="HelveticaNeue-Thin,Helvetica Neue" font-size="50.0" fill="#090502" transform="matrix(1.00, 0.00, -0.00, -1.00, 140.7, 50.5)">k</text><text xml:space="preserve" font-family="HelveticaNeue-Thin,Helvetica Neue" font-size="50.0" fill="#090502" transform="matrix(1.00, 0.00, -0.00, -1.00, 163.9, 50.5)">i</text><text xml:space="preserve" font-family="HelveticaNeue-Thin,Helvetica Neue" font-size="50.0" fill="#090502" transform="matrix(1.00, 0.00, -0.00, -1.00, 172.2, 50.5)">m</text><text xml:space="preserve" font-family="HelveticaNeue-Thin,Helvetica Neue" font-size="50.0" fill="#090502" transform="matrix(1.00, 0.00, -0.00, -1.00, 212.1, 50.5)">e</text><text xml:space="preserve" font-family="HelveticaNeue-Thin,Helvetica Neue" font-size="50.0" fill="#090502" transform="matrix(1.00, 0.00, -0.00, -1.00, 238.0, 50.5)">d</text><text xml:space="preserve" font-family="HelveticaNeue-Thin,Helvetica Neue" font-size="50.0" fill="#090502" transform="matrix(1.00, 0.00, -0.00, -1.00, 265.8, 50.5)">i</text><text xml:space="preserve" font-family="HelveticaNeue-Thin,Helvetica Neue" font-size="50.0" fill="#090502" transform="matrix(1.00, 0.00, -0.00, -1.00, 274.2, 50.5)">a</text><text xml:space="preserve" font-family="HelveticaNeue-Thin,Helvetica Neue" font-size="50.0" fill="#090502" transform="matrix(1.00, 0.00, -0.00, -1.00, 299.2, 50.5)"> </text><text xml:space="preserve" font-family="HelveticaNeue-Thin,Helvetica Neue" font-size="50.0" fill="#090502" transform="matrix(1.00, 0.00, -0.00, -1.00, 313.1, 50.5)">C</text><text xml:space="preserve" font-family="HelveticaNeue-Thin,Helvetica Neue" font-size="50.0" fill="#090502" transform="matrix(1.00, 0.00, -0.00, -1.00, 348.3, 50.5)">o</text><text xml:space="preserve" font-family="HelveticaNeue-Thin,Helvetica Neue" font-size="50.0" fill="#090502" transform="matrix(1.00, 0.00, -0.00, -1.00, 375.2, 50.5)">m</text><text xml:space="preserve" font-family="HelveticaNeue-Thin,Helvetica Neue" font-size="50.0" fill="#090502" transform="matrix(1.00, 0.00, -0.00, -1.00, 415.0, 50.5)">m</text><text xml:space="preserve" font-family="HelveticaNeue-Thin,Helvetica Neue" font-size="50.0" fill="#090502" transform="matrix(1.00, 0.00, -0.00, -1.00, 454.8, 50.5)">o</text><text xml:space="preserve" font-family="HelveticaNeue-Thin,Helvetica Neue" font-size="50.0" fill="#090502" transform="matrix(1.00, 0.00, -0.00, -1.00, 481.6, 50.5)">n</text><text xml:space="preserve" font-family="HelveticaNeue-Thin,Helvetica Neue" font-size="50.0" fill="#090502" transform="matrix(1.00, 0.00, -0.00, -1.00, 507.6, 50.5)">s</text><text xml:space="preserve" font-family="HelveticaNeue-Thin,Helvetica Neue" font-size="50.0" fill="#090502" transform="matrix(1.00, 0.00, -0.00, -1.00, 531.6, 50.5)"> </text><text xml:space="preserve" font-family="HelveticaNeue-Thin,Helvetica Neue" font-size="50.0" fill="#090502" transform="matrix(1.00, 0.00, -0.00, -1.00, 545.5, 50.5)">a</text><text xml:space="preserve" font-family="HelveticaNeue-Thin,Helvetica Neue" font-size="50.0" fill="#090502" transform="matrix(1.00, 0.00, -0.00, -1.00, 570.5, 50.5)">n</text><text xml:space="preserve" font-family="HelveticaNeue-Thin,Helvetica Neue" font-size="50.0" fill="#090502" transform="matrix(1.00, 0.00, -0.00, -1.00, 596.5, 50.5)">d</text><text xml:space="preserve" font-family="HelveticaNeue-Thin,Helvetica Neue" font-size="50.0" fill="#090502" transform="matrix(1.00, 0.00, -0.00, -1.00, 624.2, 50.5)"> </text><text xml:space="preserve" font-family="HelveticaNeue-Thin,Helvetica Neue" font-size="50.0" fill="#090502" transform="matrix(1.00, 0.00, -0.00, -1.00, 638.1, 50.5)">s</text><text xml:space="preserve" font-family="HelveticaNeue-Thin,Helvetica Neue" font-size="50.0" fill="#090502" transform="matrix(1.00, 0.00, -0.00, -1.00, 662.2, 50.5)">t</text><text xml:space="preserve" font-family="HelveticaNeue-Thin,Helvetica Neue" font-size="50.0" fill="#090502" transform="matrix(1.00, 0.00, -0.00, -1.00, 675.1, 50.5)">a</text><text xml:space="preserve" font-family="HelveticaNeue-Thin,Helvetica Neue" font-size="50.0" fill="#090502" transform="matrix(1.00, 0.00, -0.00, -1.00, 700.1, 50.5)">r</text><text xml:space="preserve" font-family="HelveticaNeue-Thin,Helvetica Neue" font-size="50.0" fill="#090502" transform="matrix(1.00, 0.00, -0.00, -1.00, 715.3, 50.5)">t</text><text xml:space="preserve" font-family="HelveticaNeue-Thin,Helvetica Neue" font-size="50.0" fill="#090502" transform="matrix(1.00, 0.00, -0.00, -1.00, 728.3, 50.5)"> </text><text xml:space="preserve" font-family="HelveticaNeue-Thin,Helvetica Neue" font-size="50.0" fill="#090502" transform="matrix(1.00, 0.00, -0.00, -1.00, 742.2, 50.5)">w</text><text xml:space="preserve" font-family="HelveticaNeue-Thin,Helvetica Neue" font-size="50.0" fill="#090502" transform="matrix(1.00, 0.00, -0.00, -1.00, 777.4, 50.5)">o</text><text xml:space="preserve" font-family="HelveticaNeue-Thin,Helvetica Neue" font-size="50.0" fill="#090502" transform="matrix(1.00, 0.00, -0.00, -1.00, 804.2, 50.5)">r</text><text xml:space="preserve" font-family="HelveticaNeue-Thin,Helvetica Neue" font-size="50.0" fill="#090502" transform="matrix(1.00, 0.00, -0.00, -1.00, 818.1, 50.5)">k</text><text xml:space="preserve" font-family="HelveticaNeue-Thin,Helvetica Neue" font-size="50.0" fill="#090502" transform="matrix(1.00, 0.00, -0.00, -1.00, 841.3, 50.5)">i</text><text xml:space="preserve" font-family="HelveticaNeue-Thin,Helvetica Neue" font-size="50.0" fill="#090502" transform="matrix(1.00, 0.00, -0.00, -1.00, 849.7, 50.5)">n</text><text xml:space="preserve" font-family="HelveticaNeue-Thin,Helvetica Neue" font-size="50.0" fill="#090502" transform="matrix(1.00, 0.00, -0.00, -1.00, 875.6, 50.5)">g</text><text xml:space="preserve" font-family="HelveticaNeue-Thin,Helvetica Neue" font-size="50.0" fill="#090502" transform="matrix(1.00, 0.00, -0.00, -1.00, 902.5, 50.5)"> </text><text xml:space="preserve" font-family="HelveticaNeue-Thin,Helvetica Neue" font-size="50.0" fill="#090502" transform="matrix(1.00, 0.00, -0.00, -1.00, 916.4, 50.5)">w</text><text xml:space="preserve" font-family="HelveticaNeue-Thin,Helvetica Neue" font-size="50.0" fill="#090502" transform="matrix(1.00, 0.00, -0.00, -1.00, 951.6, 50.5)">i</text><text xml:space="preserve" font-family="HelveticaNeue-Thin,Helvetica Neue" font-size="50.0" fill="#090502" transform="matrix(1.00, 0.00, -0.00, -1.00, 960.0, 50.5)">t</text><text xml:space="preserve" font-family="HelveticaNeue-Thin,Helvetica Neue" font-size="50.0" fill="#090502" transform="matrix(1.00, 0.00, -0.00, -1.00, 973.0, 50.5)">h</text><text xml:space="preserve" font-family="HelveticaNeue-Thin,Helvetica Neue" font-size="50.0" fill="#090502" transform="matrix(1.00, 0.00, -0.00, -1.00, 998.9, 50.5)"> </text><text xml:space="preserve" font-family="HelveticaNeue-Thin,Helvetica Neue" font-size="50.0" fill="#090502" transform="matrix(1.00, 0.00, -0.00, -1.00, 1012.8, 50.5)">t</text><text xml:space="preserve" font-family="HelveticaNeue-Thin,Helvetica Neue" font-size="50.0" fill="#090502" transform="matrix(1.00, 0.00, -0.00, -1.00, 1025.8, 50.5)">h</text><text xml:space="preserve" font-family="HelveticaNeue-Thin,Helvetica Neue" font-size="50.0" fill="#090502" transform="matrix(1.00, 0.00, -0.00, -1.00, 1051.7, 50.5)">e</text><text xml:space="preserve" font-family="HelveticaNeue-Thin,Helvetica Neue" font-size="50.0" fill="#090502" transform="matrix(1.00, 0.00, -0.00, -1.00, 1077.7, 50.5)">m</text><text xml:space="preserve" font-family="HelveticaNeue-Thin,Helvetica Neue" font-size="50.0" fill="#090502" transform="matrix(1.00, 0.00, -0.00, -1.00, 1117.5, 50.5)">.</text></g></g></g></svg>