<?xml version="1.0" encoding="UTF-8" standalone="no"?><svg xmlns="http://www.w3.org/2000/svg" xmlns:xlink="http://www.w3.org/1999/xlink" clip-rule="evenodd" stroke-miterlimit="10" viewBox="0 0 526 79"><desc>SVG generated by Keynote</desc><defs></defs><g transform="matrix(1.00, 0.00, -0.00, -1.00, 0.0, 79.0)"><text xml:space="preserve" font-family="HelveticaNeue-Thin,Helvetica Neue" font-size="100.0" fill="#EBEAE9" transform="matrix(1.00, 0.00, -0.00, -1.00, -2.2, 3.3)">S</text><text xml:space="preserve" font-family="HelveticaNeue-Thin,Helvetica Neue" font-size="100.0" fill="#EBEAE9" transform="matrix(1.00, 0.00, -0.00, -1.00, 60.8, 3.3)">o</text><text xml:space="preserve" font-family="HelveticaNeue-Thin,Helvetica Neue" font-size="100.0" fill="#EBEAE9" transform="matrix(1.00, 0.00, -0.00, -1.00, 114.5, 3.3)"> </text><text xml:space="preserve" font-family="HelveticaNeue-Thin,Helvetica Neue" font-size="100.0" fill="#EBEAE9" transform="matrix(1.00, 0.00, -0.00, -1.00, 142.3, 3.3)">l</text><text xml:space="preserve" font-family="HelveticaNeue-Thin,Helvetica Neue" font-size="100.0" fill="#EBEAE9" transform="matrix(1.00, 0.00, -0.00, -1.00, 159.1, 3.3)">e</text><text xml:space="preserve" font-family="HelveticaNeue-Thin,Helvetica Neue" font-size="100.0" fill="#EBEAE9" transform="matrix(1.00, 0.00, -0.00, -1.00, 211.0, 3.3)">t</text><text xml:space="preserve" font-family="HelveticaNeue-Thin,Helvetica Neue" font-size="100.0" fill="#EBEAE9" transform="matrix(1.00, 0.00, -0.00, -1.00, 236.9, 3.3)">’</text><text xml:space="preserve" font-family="HelveticaNeue-Thin,Helvetica Neue" font-size="100.0" fill="#EBEAE9" transform="matrix(1.00, 0.00, -0.00, -1.00, 252.5, 3.3)">s</text><text xml:space="preserve" font-family="HelveticaNeue-Thin,Helvetica Neue" font-size="100.0" fill="#EBEAE9" transform="matrix(1.00, 0.00, -0.00, -1.00, 300.6, 3.3)"> </text><text xml:space="preserve" font-family="HelveticaNeue-Thin,Helvetica Neue" font-size="100.0" fill="#EBEAE9" transform="matrix(1.00, 0.00, -0.00, -1.00, 328.4, 3.3)">d</text><text xml:space="preserve" font-family="HelveticaNeue-Thin,Helvetica Neue" font-size="100.0" fill="#EBEAE9" transform="matrix(1.00, 0.00, -0.00, -1.00, 384.0, 3.3)">o</text><text xml:space="preserve" font-family="HelveticaNeue-Thin,Helvetica Neue" font-size="100.0" fill="#EBEAE9" transform="matrix(1.00, 0.00, -0.00, -1.00, 437.7, 3.3)"> </text><text xml:space="preserve" font-family="HelveticaNeue-Thin,Helvetica Neue" font-size="100.0" fill="#EBEAE9" transform="matrix(1.00, 0.00, -0.00, -1.00, 465.5, 3.3)">i</text><text xml:space="preserve" font-family="HelveticaNeue-Thin,Helvetica Neue" font-size="100.0" fill="#EBEAE9" transform="matrix(1.00, 0.00, -0.00, -1.00, 482.3, 3.3)">t</text><text xml:space="preserve" font-family="HelveticaNeue-Thin,Helvetica Neue" font-size="100.0" fill="#EBEAE9" transform="matrix(1.00, 0.00, -0.00, -1.00, 508.2, 3.3)">!</text></g></svg>