<?xml version="1.0" encoding="UTF-8" standalone="no"?><svg xmlns="http://www.w3.org/2000/svg" xmlns:xlink="http://www.w3.org/1999/xlink" clip-rule="evenodd" stroke-miterlimit="10" viewBox="0 0 1280 800"><desc>SVG generated by Keynote</desc><defs></defs><g transform="matrix(1.00, 0.00, -0.00, -1.00, 0.0, 800.0)"><path d="M 0.0 800.0 L 1280.0 800.0 L 1280.0 0.0 L 0.0 0.0 Z M 0.0 800.0 " fill="#005392"></path><g><clipPath id="clip0x6080020a65a0"><path d="M 85.0 800.0 L 1195.0 800.0 L 1195.0 -94.0 L 85.0 -94.0 Z M 85.0 800.0 "></path></clipPath><g clip-path="url(#clip0x6080020a65a0)"><image xlink:href="../../752E1495-282C-414B-AB3D-047245F94EAC/assets/CDED67233FC1EB4CADF2D9A7A8C996C4.png" width="1110.00" height="894.00" transform="matrix(1.00, 0.00, -0.00, -1.00, 85.0, 800.0)"></image></g></g><path d="M 58.0 522.0 L 1222.0 522.0 L 1222.0 278.0 L 58.0 278.0 Z M 58.1 522.1 " fill="#D5D5D5"></path><image xlink:href="../../71E24606-4030-4FFE-BBDE-FE48E464FCCA/assets/EA06A13FC1282F2364DEC477C75A92CC.png" width="1198.00" height="288.00" transform="matrix(1.00, 0.00, -0.00, 1.00, 41.1, 244.9)"></image><g><clipPath id="clip0x6000010bd700"><path d="M 41.9 255.0 L 1238.1 255.0 L 1238.1 538.4 L 41.9 538.4 Z M 41.9 255.0 "></path></clipPath><g clip-path="url(#clip0x6000010bd700)"><text xml:space="preserve" font-family="HelveticaNeue-Thin,Helvetica Neue" font-size="72.0" fill="#090502" transform="matrix(1.00, 0.00, -0.00, -1.00, 185.6, 447.5)">N</text><text xml:space="preserve" font-family="HelveticaNeue-Thin,Helvetica Neue" font-size="72.0" fill="#090502" transform="matrix(1.00, 0.00, -0.00, -1.00, 234.5, 447.5)">o</text><text xml:space="preserve" font-family="HelveticaNeue-Thin,Helvetica Neue" font-size="72.0" fill="#090502" transform="matrix(1.00, 0.00, -0.00, -1.00, 273.1, 447.5)">w</text><text xml:space="preserve" font-family="HelveticaNeue-Thin,Helvetica Neue" font-size="72.0" fill="#090502" transform="matrix(1.00, 0.00, -0.00, -1.00, 323.8, 447.5)"> </text><text xml:space="preserve" font-family="HelveticaNeue-Thin,Helvetica Neue" font-size="72.0" fill="#090502" transform="matrix(1.00, 0.00, -0.00, -1.00, 343.8, 447.5)">i</text><text xml:space="preserve" font-family="HelveticaNeue-Thin,Helvetica Neue" font-size="72.0" fill="#090502" transform="matrix(1.00, 0.00, -0.00, -1.00, 355.9, 447.5)">t</text><text xml:space="preserve" font-family="HelveticaNeue-Thin,Helvetica Neue" font-size="72.0" fill="#090502" transform="matrix(1.00, 0.00, -0.00, -1.00, 374.6, 447.5)">’</text><text xml:space="preserve" font-family="HelveticaNeue-Thin,Helvetica Neue" font-size="72.0" fill="#090502" transform="matrix(1.00, 0.00, -0.00, -1.00, 385.8, 447.5)">s</text><text xml:space="preserve" font-family="HelveticaNeue-Thin,Helvetica Neue" font-size="72.0" fill="#090502" transform="matrix(1.00, 0.00, -0.00, -1.00, 420.4, 447.5)"> </text><text xml:space="preserve" font-family="HelveticaNeue-Thin,Helvetica Neue" font-size="72.0" fill="#090502" transform="matrix(1.00, 0.00, -0.00, -1.00, 440.5, 447.5)">t</text><text xml:space="preserve" font-family="HelveticaNeue-Thin,Helvetica Neue" font-size="72.0" fill="#090502" transform="matrix(1.00, 0.00, -0.00, -1.00, 459.1, 447.5)">i</text><text xml:space="preserve" font-family="HelveticaNeue-Thin,Helvetica Neue" font-size="72.0" fill="#090502" transform="matrix(1.00, 0.00, -0.00, -1.00, 471.2, 447.5)">m</text><text xml:space="preserve" font-family="HelveticaNeue-Thin,Helvetica Neue" font-size="72.0" fill="#090502" transform="matrix(1.00, 0.00, -0.00, -1.00, 528.5, 447.5)">e</text><text xml:space="preserve" font-family="HelveticaNeue-Thin,Helvetica Neue" font-size="72.0" fill="#090502" transform="matrix(1.00, 0.00, -0.00, -1.00, 565.9, 447.5)"> </text><text xml:space="preserve" font-family="HelveticaNeue-Thin,Helvetica Neue" font-size="72.0" fill="#090502" transform="matrix(1.00, 0.00, -0.00, -1.00, 585.9, 447.5)">t</text><text xml:space="preserve" font-family="HelveticaNeue-Thin,Helvetica Neue" font-size="72.0" fill="#090502" transform="matrix(1.00, 0.00, -0.00, -1.00, 603.5, 447.5)">o</text><text xml:space="preserve" font-family="HelveticaNeue-Thin,Helvetica Neue" font-size="72.0" fill="#090502" transform="matrix(1.00, 0.00, -0.00, -1.00, 642.2, 447.5)"> </text><text xml:space="preserve" font-family="HelveticaNeue-Thin,Helvetica Neue" font-size="72.0" fill="#090502" transform="matrix(1.00, 0.00, -0.00, -1.00, 662.2, 447.5)">w</text><text xml:space="preserve" font-family="HelveticaNeue-Thin,Helvetica Neue" font-size="72.0" fill="#090502" transform="matrix(1.00, 0.00, -0.00, -1.00, 712.9, 447.5)">a</text><text xml:space="preserve" font-family="HelveticaNeue-Thin,Helvetica Neue" font-size="72.0" fill="#090502" transform="matrix(1.00, 0.00, -0.00, -1.00, 748.9, 447.5)">r</text><text xml:space="preserve" font-family="HelveticaNeue-Thin,Helvetica Neue" font-size="72.0" fill="#090502" transform="matrix(1.00, 0.00, -0.00, -1.00, 768.9, 447.5)">p</text><text xml:space="preserve" font-family="HelveticaNeue-Thin,Helvetica Neue" font-size="72.0" fill="#090502" transform="matrix(1.00, 0.00, -0.00, -1.00, 808.9, 447.5)"> </text><text xml:space="preserve" font-family="HelveticaNeue-Thin,Helvetica Neue" font-size="72.0" fill="#090502" transform="matrix(1.00, 0.00, -0.00, -1.00, 829.0, 447.5)">t</text><text xml:space="preserve" font-family="HelveticaNeue-Thin,Helvetica Neue" font-size="72.0" fill="#090502" transform="matrix(1.00, 0.00, -0.00, -1.00, 847.6, 447.5)">h</text><text xml:space="preserve" font-family="HelveticaNeue-Thin,Helvetica Neue" font-size="72.0" fill="#090502" transform="matrix(1.00, 0.00, -0.00, -1.00, 885.0, 447.5)">e</text><text xml:space="preserve" font-family="HelveticaNeue-Thin,Helvetica Neue" font-size="72.0" fill="#090502" transform="matrix(1.00, 0.00, -0.00, -1.00, 922.3, 447.5)"> </text><text xml:space="preserve" font-family="HelveticaNeue-Thin,Helvetica Neue" font-size="72.0" fill="#090502" transform="matrix(1.00, 0.00, -0.00, -1.00, 942.4, 447.5)">m</text><text xml:space="preserve" font-family="HelveticaNeue-Thin,Helvetica Neue" font-size="72.0" fill="#090502" transform="matrix(1.00, 0.00, -0.00, -1.00, 999.7, 447.5)">a</text><text xml:space="preserve" font-family="HelveticaNeue-Thin,Helvetica Neue" font-size="72.0" fill="#090502" transform="matrix(1.00, 0.00, -0.00, -1.00, 1035.7, 447.5)">p</text><text xml:space="preserve" font-family="HelveticaNeue-Thin,Helvetica Neue" font-size="72.0" fill="#090502" transform="matrix(1.00, 0.00, -0.00, -1.00, 1075.7, 447.5)">!</text><text xml:space="preserve" font-family="HelveticaNeue-Thin,Helvetica Neue" font-size="72.0" fill="#090502" transform="matrix(1.00, 0.00, -0.00, -1.00, 1094.4, 447.5)"> </text><text xml:space="preserve" font-family="HelveticaNeue-Thin,Helvetica Neue" font-size="50.0" fill="#090502" transform="matrix(1.00, 0.00, -0.00, -1.00, 77.7, 365.2)">F</text><text xml:space="preserve" font-family="HelveticaNeue-Thin,Helvetica Neue" font-size="50.0" fill="#090502" transform="matrix(1.00, 0.00, -0.00, -1.00, 103.4, 365.2)">i</text><text xml:space="preserve" font-family="HelveticaNeue-Thin,Helvetica Neue" font-size="50.0" fill="#090502" transform="matrix(1.00, 0.00, -0.00, -1.00, 111.8, 365.2)">v</text><text xml:space="preserve" font-family="HelveticaNeue-Thin,Helvetica Neue" font-size="50.0" fill="#090502" transform="matrix(1.00, 0.00, -0.00, -1.00, 134.0, 365.2)">e</text><text xml:space="preserve" font-family="HelveticaNeue-Thin,Helvetica Neue" font-size="50.0" fill="#090502" transform="matrix(1.00, 0.00, -0.00, -1.00, 159.9, 365.2)"> </text><text xml:space="preserve" font-family="HelveticaNeue-Thin,Helvetica Neue" font-size="50.0" fill="#090502" transform="matrix(1.00, 0.00, -0.00, -1.00, 173.9, 365.2)">W</text><text xml:space="preserve" font-family="HelveticaNeue-Thin,Helvetica Neue" font-size="50.0" fill="#090502" transform="matrix(1.00, 0.00, -0.00, -1.00, 217.4, 365.2)">a</text><text xml:space="preserve" font-family="HelveticaNeue-Thin,Helvetica Neue" font-size="50.0" fill="#090502" transform="matrix(1.00, 0.00, -0.00, -1.00, 242.4, 365.2)">r</text><text xml:space="preserve" font-family="HelveticaNeue-Thin,Helvetica Neue" font-size="50.0" fill="#090502" transform="matrix(1.00, 0.00, -0.00, -1.00, 256.3, 365.2)">p</text><text xml:space="preserve" font-family="HelveticaNeue-Thin,Helvetica Neue" font-size="50.0" fill="#090502" transform="matrix(1.00, 0.00, -0.00, -1.00, 284.1, 365.2)">e</text><text xml:space="preserve" font-family="HelveticaNeue-Thin,Helvetica Neue" font-size="50.0" fill="#090502" transform="matrix(1.00, 0.00, -0.00, -1.00, 310.1, 365.2)">r</text><text xml:space="preserve" font-family="HelveticaNeue-Thin,Helvetica Neue" font-size="50.0" fill="#090502" transform="matrix(1.00, 0.00, -0.00, -1.00, 324.0, 365.2)"> </text><text xml:space="preserve" font-family="HelveticaNeue-Thin,Helvetica Neue" font-size="50.0" fill="#090502" transform="matrix(1.00, 0.00, -0.00, -1.00, 337.9, 365.2)">t</text><text xml:space="preserve" font-family="HelveticaNeue-Thin,Helvetica Neue" font-size="50.0" fill="#090502" transform="matrix(1.00, 0.00, -0.00, -1.00, 350.8, 365.2)">a</text><text xml:space="preserve" font-family="HelveticaNeue-Thin,Helvetica Neue" font-size="50.0" fill="#090502" transform="matrix(1.00, 0.00, -0.00, -1.00, 375.8, 365.2)">b</text><text xml:space="preserve" font-family="HelveticaNeue-Thin,Helvetica Neue" font-size="50.0" fill="#090502" transform="matrix(1.00, 0.00, -0.00, -1.00, 403.6, 365.2)">s</text><text xml:space="preserve" font-family="HelveticaNeue-Thin,Helvetica Neue" font-size="50.0" fill="#090502" transform="matrix(1.00, 0.00, -0.00, -1.00, 427.7, 365.2)"> </text><text xml:space="preserve" font-family="HelveticaNeue-Thin,Helvetica Neue" font-size="50.0" fill="#090502" transform="matrix(1.00, 0.00, -0.00, -1.00, 441.6, 365.2)">a</text><text xml:space="preserve" font-family="HelveticaNeue-Thin,Helvetica Neue" font-size="50.0" fill="#090502" transform="matrix(1.00, 0.00, -0.00, -1.00, 466.6, 365.2)">r</text><text xml:space="preserve" font-family="HelveticaNeue-Thin,Helvetica Neue" font-size="50.0" fill="#090502" transform="matrix(1.00, 0.00, -0.00, -1.00, 479.8, 365.2)">e</text><text xml:space="preserve" font-family="HelveticaNeue-Thin,Helvetica Neue" font-size="50.0" fill="#090502" transform="matrix(1.00, 0.00, -0.00, -1.00, 505.8, 365.2)"> </text><text xml:space="preserve" font-family="HelveticaNeue-Thin,Helvetica Neue" font-size="50.0" fill="#090502" transform="matrix(1.00, 0.00, -0.00, -1.00, 519.7, 365.2)">a</text><text xml:space="preserve" font-family="HelveticaNeue-Thin,Helvetica Neue" font-size="50.0" fill="#090502" transform="matrix(1.00, 0.00, -0.00, -1.00, 544.7, 365.2)">v</text><text xml:space="preserve" font-family="HelveticaNeue-Thin,Helvetica Neue" font-size="50.0" fill="#090502" transform="matrix(1.00, 0.00, -0.00, -1.00, 566.9, 365.2)">a</text><text xml:space="preserve" font-family="HelveticaNeue-Thin,Helvetica Neue" font-size="50.0" fill="#090502" transform="matrix(1.00, 0.00, -0.00, -1.00, 591.9, 365.2)">i</text><text xml:space="preserve" font-family="HelveticaNeue-Thin,Helvetica Neue" font-size="50.0" fill="#090502" transform="matrix(1.00, 0.00, -0.00, -1.00, 600.3, 365.2)">l</text><text xml:space="preserve" font-family="HelveticaNeue-Thin,Helvetica Neue" font-size="50.0" fill="#090502" transform="matrix(1.00, 0.00, -0.00, -1.00, 608.7, 365.2)">a</text><text xml:space="preserve" font-family="HelveticaNeue-Thin,Helvetica Neue" font-size="50.0" fill="#090502" transform="matrix(1.00, 0.00, -0.00, -1.00, 633.7, 365.2)">b</text><text xml:space="preserve" font-family="HelveticaNeue-Thin,Helvetica Neue" font-size="50.0" fill="#090502" transform="matrix(1.00, 0.00, -0.00, -1.00, 661.5, 365.2)">l</text><text xml:space="preserve" font-family="HelveticaNeue-Thin,Helvetica Neue" font-size="50.0" fill="#090502" transform="matrix(1.00, 0.00, -0.00, -1.00, 669.9, 365.2)">e</text><text xml:space="preserve" font-family="HelveticaNeue-Thin,Helvetica Neue" font-size="50.0" fill="#090502" transform="matrix(1.00, 0.00, -0.00, -1.00, 695.8, 365.2)">:</text><text xml:space="preserve" font-family="HelveticaNeue-Thin,Helvetica Neue" font-size="50.0" fill="#090502" transform="matrix(1.00, 0.00, -0.00, -1.00, 709.7, 365.2)"> </text><text xml:space="preserve" font-family="HelveticaNeue-Thin,Helvetica Neue" font-size="50.0" fill="#090502" transform="matrix(1.00, 0.00, -0.00, -1.00, 723.6, 365.2)">M</text><text xml:space="preserve" font-family="HelveticaNeue-Thin,Helvetica Neue" font-size="50.0" fill="#090502" transform="matrix(1.00, 0.00, -0.00, -1.00, 764.1, 365.2)">a</text><text xml:space="preserve" font-family="HelveticaNeue-Thin,Helvetica Neue" font-size="50.0" fill="#090502" transform="matrix(1.00, 0.00, -0.00, -1.00, 789.1, 365.2)">p</text><text xml:space="preserve" font-family="HelveticaNeue-Thin,Helvetica Neue" font-size="50.0" fill="#090502" transform="matrix(1.00, 0.00, -0.00, -1.00, 816.9, 365.2)"> </text><text xml:space="preserve" font-family="HelveticaNeue-Thin,Helvetica Neue" font-size="50.0" fill="#090502" transform="matrix(1.00, 0.00, -0.00, -1.00, 830.8, 365.2)">v</text><text xml:space="preserve" font-family="HelveticaNeue-Thin,Helvetica Neue" font-size="50.0" fill="#090502" transform="matrix(1.00, 0.00, -0.00, -1.00, 853.0, 365.2)">i</text><text xml:space="preserve" font-family="HelveticaNeue-Thin,Helvetica Neue" font-size="50.0" fill="#090502" transform="matrix(1.00, 0.00, -0.00, -1.00, 861.4, 365.2)">e</text><text xml:space="preserve" font-family="HelveticaNeue-Thin,Helvetica Neue" font-size="50.0" fill="#090502" transform="matrix(1.00, 0.00, -0.00, -1.00, 887.3, 365.2)">w</text><text xml:space="preserve" font-family="HelveticaNeue-Thin,Helvetica Neue" font-size="50.0" fill="#090502" transform="matrix(1.00, 0.00, -0.00, -1.00, 921.3, 365.2)">,</text><text xml:space="preserve" font-family="HelveticaNeue-Thin,Helvetica Neue" font-size="50.0" fill="#090502" transform="matrix(1.00, 0.00, -0.00, -1.00, 935.2, 365.2)"> </text><text xml:space="preserve" font-family="HelveticaNeue-Thin,Helvetica Neue" font-size="50.0" fill="#090502" transform="matrix(1.00, 0.00, -0.00, -1.00, 949.1, 365.2)">r</text><text xml:space="preserve" font-family="HelveticaNeue-Thin,Helvetica Neue" font-size="50.0" fill="#090502" transform="matrix(1.00, 0.00, -0.00, -1.00, 962.4, 365.2)">e</text><text xml:space="preserve" font-family="HelveticaNeue-Thin,Helvetica Neue" font-size="50.0" fill="#090502" transform="matrix(1.00, 0.00, -0.00, -1.00, 988.4, 365.2)">c</text><text xml:space="preserve" font-family="HelveticaNeue-Thin,Helvetica Neue" font-size="50.0" fill="#090502" transform="matrix(1.00, 0.00, -0.00, -1.00, 1014.3, 365.2)">t</text><text xml:space="preserve" font-family="HelveticaNeue-Thin,Helvetica Neue" font-size="50.0" fill="#090502" transform="matrix(1.00, 0.00, -0.00, -1.00, 1027.3, 365.2)">i</text><text xml:space="preserve" font-family="HelveticaNeue-Thin,Helvetica Neue" font-size="50.0" fill="#090502" transform="matrix(1.00, 0.00, -0.00, -1.00, 1035.7, 365.2)">f</text><text xml:space="preserve" font-family="HelveticaNeue-Thin,Helvetica Neue" font-size="50.0" fill="#090502" transform="matrix(1.00, 0.00, -0.00, -1.00, 1047.7, 365.2)">y</text><text xml:space="preserve" font-family="HelveticaNeue-Thin,Helvetica Neue" font-size="50.0" fill="#090502" transform="matrix(1.00, 0.00, -0.00, -1.00, 1066.7, 365.2)">,</text><text xml:space="preserve" font-family="HelveticaNeue-Thin,Helvetica Neue" font-size="50.0" fill="#090502" transform="matrix(1.00, 0.00, -0.00, -1.00, 1080.6, 365.2)"> </text><text xml:space="preserve" font-family="HelveticaNeue-Thin,Helvetica Neue" font-size="50.0" fill="#090502" transform="matrix(1.00, 0.00, -0.00, -1.00, 1094.5, 365.2)">c</text><text xml:space="preserve" font-family="HelveticaNeue-Thin,Helvetica Neue" font-size="50.0" fill="#090502" transform="matrix(1.00, 0.00, -0.00, -1.00, 1120.4, 365.2)">r</text><text xml:space="preserve" font-family="HelveticaNeue-Thin,Helvetica Neue" font-size="50.0" fill="#090502" transform="matrix(1.00, 0.00, -0.00, -1.00, 1133.8, 365.2)">o</text><text xml:space="preserve" font-family="HelveticaNeue-Thin,Helvetica Neue" font-size="50.0" fill="#090502" transform="matrix(1.00, 0.00, -0.00, -1.00, 1160.6, 365.2)">p</text><text xml:space="preserve" font-family="HelveticaNeue-Thin,Helvetica Neue" font-size="50.0" fill="#090502" transform="matrix(1.00, 0.00, -0.00, -1.00, 1188.4, 365.2)">,</text><text xml:space="preserve" font-family="HelveticaNeue-Thin,Helvetica Neue" font-size="50.0" fill="#090502" transform="matrix(1.00, 0.00, -0.00, -1.00, 1202.3, 365.2)"> </text><text xml:space="preserve" font-family="HelveticaNeue-Thin,Helvetica Neue" font-size="50.0" fill="#090502" transform="matrix(1.00, 0.00, -0.00, -1.00, 435.2, 293.5)">p</text><text xml:space="preserve" font-family="HelveticaNeue-Thin,Helvetica Neue" font-size="50.0" fill="#090502" transform="matrix(1.00, 0.00, -0.00, -1.00, 463.0, 293.5)">r</text><text xml:space="preserve" font-family="HelveticaNeue-Thin,Helvetica Neue" font-size="50.0" fill="#090502" transform="matrix(1.00, 0.00, -0.00, -1.00, 476.3, 293.5)">e</text><text xml:space="preserve" font-family="HelveticaNeue-Thin,Helvetica Neue" font-size="50.0" fill="#090502" transform="matrix(1.00, 0.00, -0.00, -1.00, 502.3, 293.5)">v</text><text xml:space="preserve" font-family="HelveticaNeue-Thin,Helvetica Neue" font-size="50.0" fill="#090502" transform="matrix(1.00, 0.00, -0.00, -1.00, 524.5, 293.5)">i</text><text xml:space="preserve" font-family="HelveticaNeue-Thin,Helvetica Neue" font-size="50.0" fill="#090502" transform="matrix(1.00, 0.00, -0.00, -1.00, 532.9, 293.5)">e</text><text xml:space="preserve" font-family="HelveticaNeue-Thin,Helvetica Neue" font-size="50.0" fill="#090502" transform="matrix(1.00, 0.00, -0.00, -1.00, 558.8, 293.5)">w</text><text xml:space="preserve" font-family="HelveticaNeue-Thin,Helvetica Neue" font-size="50.0" fill="#090502" transform="matrix(1.00, 0.00, -0.00, -1.00, 594.0, 293.5)"> </text><text xml:space="preserve" font-family="HelveticaNeue-Thin,Helvetica Neue" font-size="50.0" fill="#090502" transform="matrix(1.00, 0.00, -0.00, -1.00, 607.9, 293.5)">a</text><text xml:space="preserve" font-family="HelveticaNeue-Thin,Helvetica Neue" font-size="50.0" fill="#090502" transform="matrix(1.00, 0.00, -0.00, -1.00, 632.9, 293.5)">n</text><text xml:space="preserve" font-family="HelveticaNeue-Thin,Helvetica Neue" font-size="50.0" fill="#090502" transform="matrix(1.00, 0.00, -0.00, -1.00, 658.9, 293.5)">d</text><text xml:space="preserve" font-family="HelveticaNeue-Thin,Helvetica Neue" font-size="50.0" fill="#090502" transform="matrix(1.00, 0.00, -0.00, -1.00, 686.7, 293.5)"> </text><text xml:space="preserve" font-family="HelveticaNeue-Thin,Helvetica Neue" font-size="50.0" fill="#090502" transform="matrix(1.00, 0.00, -0.00, -1.00, 700.6, 293.5)">e</text><text xml:space="preserve" font-family="HelveticaNeue-Thin,Helvetica Neue" font-size="50.0" fill="#090502" transform="matrix(1.00, 0.00, -0.00, -1.00, 725.9, 293.5)">x</text><text xml:space="preserve" font-family="HelveticaNeue-Thin,Helvetica Neue" font-size="50.0" fill="#090502" transform="matrix(1.00, 0.00, -0.00, -1.00, 748.1, 293.5)">p</text><text xml:space="preserve" font-family="HelveticaNeue-Thin,Helvetica Neue" font-size="50.0" fill="#090502" transform="matrix(1.00, 0.00, -0.00, -1.00, 775.9, 293.5)">o</text><text xml:space="preserve" font-family="HelveticaNeue-Thin,Helvetica Neue" font-size="50.0" fill="#090502" transform="matrix(1.00, 0.00, -0.00, -1.00, 802.8, 293.5)">r</text><text xml:space="preserve" font-family="HelveticaNeue-Thin,Helvetica Neue" font-size="50.0" fill="#090502" transform="matrix(1.00, 0.00, -0.00, -1.00, 818.0, 293.5)">t</text><text xml:space="preserve" font-family="HelveticaNeue-Thin,Helvetica Neue" font-size="50.0" fill="#090502" transform="matrix(1.00, 0.00, -0.00, -1.00, 830.9, 293.5)">.</text></g></g></g></svg>