<?xml version="1.0" encoding="UTF-8" standalone="no"?><svg xmlns="http://www.w3.org/2000/svg" xmlns:xlink="http://www.w3.org/1999/xlink" clip-rule="evenodd" stroke-miterlimit="10" viewBox="0 0 1200 292"><desc>SVG generated by Keynote</desc><defs></defs><g transform="matrix(1.00, 0.00, -0.00, -1.00, 0.0, 292.0)"><path d="M 18.0 279.0 L 1182.0 279.0 L 1182.0 35.0 L 18.0 35.0 Z M 18.1 279.1 " fill="#D5D5D5"></path><image xlink:href="../../71E24606-4030-4FFE-BBDE-FE48E464FCCA/assets/EA06A13FC1282F2364DEC477C75A92CC.png" width="1198.00" height="288.00" transform="matrix(1.00, 0.00, -0.00, 1.00, 1.1, 1.9)"></image><g><clipPath id="clip0x6000014be540"><path d="M 1.9 12.0 L 1198.1 12.0 L 1198.1 295.4 L 1.9 295.4 Z M 1.9 12.0 "></path></clipPath><g clip-path="url(#clip0x6000014be540)"><text xml:space="preserve" font-family="HelveticaNeue-Thin,Helvetica Neue" font-size="72.0" fill="#090502" transform="matrix(1.00, 0.00, -0.00, -1.00, 145.6, 204.5)">N</text><text xml:space="preserve" font-family="HelveticaNeue-Thin,Helvetica Neue" font-size="72.0" fill="#090502" transform="matrix(1.00, 0.00, -0.00, -1.00, 194.5, 204.5)">o</text><text xml:space="preserve" font-family="HelveticaNeue-Thin,Helvetica Neue" font-size="72.0" fill="#090502" transform="matrix(1.00, 0.00, -0.00, -1.00, 233.1, 204.5)">w</text><text xml:space="preserve" font-family="HelveticaNeue-Thin,Helvetica Neue" font-size="72.0" fill="#090502" transform="matrix(1.00, 0.00, -0.00, -1.00, 283.8, 204.5)"> </text><text xml:space="preserve" font-family="HelveticaNeue-Thin,Helvetica Neue" font-size="72.0" fill="#090502" transform="matrix(1.00, 0.00, -0.00, -1.00, 303.8, 204.5)">i</text><text xml:space="preserve" font-family="HelveticaNeue-Thin,Helvetica Neue" font-size="72.0" fill="#090502" transform="matrix(1.00, 0.00, -0.00, -1.00, 315.9, 204.5)">t</text><text xml:space="preserve" font-family="HelveticaNeue-Thin,Helvetica Neue" font-size="72.0" fill="#090502" transform="matrix(1.00, 0.00, -0.00, -1.00, 334.6, 204.5)">’</text><text xml:space="preserve" font-family="HelveticaNeue-Thin,Helvetica Neue" font-size="72.0" fill="#090502" transform="matrix(1.00, 0.00, -0.00, -1.00, 345.8, 204.5)">s</text><text xml:space="preserve" font-family="HelveticaNeue-Thin,Helvetica Neue" font-size="72.0" fill="#090502" transform="matrix(1.00, 0.00, -0.00, -1.00, 380.4, 204.5)"> </text><text xml:space="preserve" font-family="HelveticaNeue-Thin,Helvetica Neue" font-size="72.0" fill="#090502" transform="matrix(1.00, 0.00, -0.00, -1.00, 400.5, 204.5)">t</text><text xml:space="preserve" font-family="HelveticaNeue-Thin,Helvetica Neue" font-size="72.0" fill="#090502" transform="matrix(1.00, 0.00, -0.00, -1.00, 419.1, 204.5)">i</text><text xml:space="preserve" font-family="HelveticaNeue-Thin,Helvetica Neue" font-size="72.0" fill="#090502" transform="matrix(1.00, 0.00, -0.00, -1.00, 431.2, 204.5)">m</text><text xml:space="preserve" font-family="HelveticaNeue-Thin,Helvetica Neue" font-size="72.0" fill="#090502" transform="matrix(1.00, 0.00, -0.00, -1.00, 488.5, 204.5)">e</text><text xml:space="preserve" font-family="HelveticaNeue-Thin,Helvetica Neue" font-size="72.0" fill="#090502" transform="matrix(1.00, 0.00, -0.00, -1.00, 525.9, 204.5)"> </text><text xml:space="preserve" font-family="HelveticaNeue-Thin,Helvetica Neue" font-size="72.0" fill="#090502" transform="matrix(1.00, 0.00, -0.00, -1.00, 545.9, 204.5)">t</text><text xml:space="preserve" font-family="HelveticaNeue-Thin,Helvetica Neue" font-size="72.0" fill="#090502" transform="matrix(1.00, 0.00, -0.00, -1.00, 563.5, 204.5)">o</text><text xml:space="preserve" font-family="HelveticaNeue-Thin,Helvetica Neue" font-size="72.0" fill="#090502" transform="matrix(1.00, 0.00, -0.00, -1.00, 602.2, 204.5)"> </text><text xml:space="preserve" font-family="HelveticaNeue-Thin,Helvetica Neue" font-size="72.0" fill="#090502" transform="matrix(1.00, 0.00, -0.00, -1.00, 622.2, 204.5)">w</text><text xml:space="preserve" font-family="HelveticaNeue-Thin,Helvetica Neue" font-size="72.0" fill="#090502" transform="matrix(1.00, 0.00, -0.00, -1.00, 672.9, 204.5)">a</text><text xml:space="preserve" font-family="HelveticaNeue-Thin,Helvetica Neue" font-size="72.0" fill="#090502" transform="matrix(1.00, 0.00, -0.00, -1.00, 708.9, 204.5)">r</text><text xml:space="preserve" font-family="HelveticaNeue-Thin,Helvetica Neue" font-size="72.0" fill="#090502" transform="matrix(1.00, 0.00, -0.00, -1.00, 728.9, 204.5)">p</text><text xml:space="preserve" font-family="HelveticaNeue-Thin,Helvetica Neue" font-size="72.0" fill="#090502" transform="matrix(1.00, 0.00, -0.00, -1.00, 768.9, 204.5)"> </text><text xml:space="preserve" font-family="HelveticaNeue-Thin,Helvetica Neue" font-size="72.0" fill="#090502" transform="matrix(1.00, 0.00, -0.00, -1.00, 789.0, 204.5)">t</text><text xml:space="preserve" font-family="HelveticaNeue-Thin,Helvetica Neue" font-size="72.0" fill="#090502" transform="matrix(1.00, 0.00, -0.00, -1.00, 807.6, 204.5)">h</text><text xml:space="preserve" font-family="HelveticaNeue-Thin,Helvetica Neue" font-size="72.0" fill="#090502" transform="matrix(1.00, 0.00, -0.00, -1.00, 845.0, 204.5)">e</text><text xml:space="preserve" font-family="HelveticaNeue-Thin,Helvetica Neue" font-size="72.0" fill="#090502" transform="matrix(1.00, 0.00, -0.00, -1.00, 882.3, 204.5)"> </text><text xml:space="preserve" font-family="HelveticaNeue-Thin,Helvetica Neue" font-size="72.0" fill="#090502" transform="matrix(1.00, 0.00, -0.00, -1.00, 902.4, 204.5)">m</text><text xml:space="preserve" font-family="HelveticaNeue-Thin,Helvetica Neue" font-size="72.0" fill="#090502" transform="matrix(1.00, 0.00, -0.00, -1.00, 959.7, 204.5)">a</text><text xml:space="preserve" font-family="HelveticaNeue-Thin,Helvetica Neue" font-size="72.0" fill="#090502" transform="matrix(1.00, 0.00, -0.00, -1.00, 995.7, 204.5)">p</text><text xml:space="preserve" font-family="HelveticaNeue-Thin,Helvetica Neue" font-size="72.0" fill="#090502" transform="matrix(1.00, 0.00, -0.00, -1.00, 1035.7, 204.5)">!</text><text xml:space="preserve" font-family="HelveticaNeue-Thin,Helvetica Neue" font-size="72.0" fill="#090502" transform="matrix(1.00, 0.00, -0.00, -1.00, 1054.4, 204.5)"> </text><text xml:space="preserve" font-family="HelveticaNeue-Thin,Helvetica Neue" font-size="50.0" fill="#090502" transform="matrix(1.00, 0.00, -0.00, -1.00, 37.7, 122.2)">F</text><text xml:space="preserve" font-family="HelveticaNeue-Thin,Helvetica Neue" font-size="50.0" fill="#090502" transform="matrix(1.00, 0.00, -0.00, -1.00, 63.4, 122.2)">i</text><text xml:space="preserve" font-family="HelveticaNeue-Thin,Helvetica Neue" font-size="50.0" fill="#090502" transform="matrix(1.00, 0.00, -0.00, -1.00, 71.8, 122.2)">v</text><text xml:space="preserve" font-family="HelveticaNeue-Thin,Helvetica Neue" font-size="50.0" fill="#090502" transform="matrix(1.00, 0.00, -0.00, -1.00, 94.0, 122.2)">e</text><text xml:space="preserve" font-family="HelveticaNeue-Thin,Helvetica Neue" font-size="50.0" fill="#090502" transform="matrix(1.00, 0.00, -0.00, -1.00, 120.0, 122.2)"> </text><text xml:space="preserve" font-family="HelveticaNeue-Thin,Helvetica Neue" font-size="50.0" fill="#090502" transform="matrix(1.00, 0.00, -0.00, -1.00, 133.9, 122.2)">W</text><text xml:space="preserve" font-family="HelveticaNeue-Thin,Helvetica Neue" font-size="50.0" fill="#090502" transform="matrix(1.00, 0.00, -0.00, -1.00, 177.4, 122.2)">a</text><text xml:space="preserve" font-family="HelveticaNeue-Thin,Helvetica Neue" font-size="50.0" fill="#090502" transform="matrix(1.00, 0.00, -0.00, -1.00, 202.4, 122.2)">r</text><text xml:space="preserve" font-family="HelveticaNeue-Thin,Helvetica Neue" font-size="50.0" fill="#090502" transform="matrix(1.00, 0.00, -0.00, -1.00, 216.3, 122.2)">p</text><text xml:space="preserve" font-family="HelveticaNeue-Thin,Helvetica Neue" font-size="50.0" fill="#090502" transform="matrix(1.00, 0.00, -0.00, -1.00, 244.1, 122.2)">e</text><text xml:space="preserve" font-family="HelveticaNeue-Thin,Helvetica Neue" font-size="50.0" fill="#090502" transform="matrix(1.00, 0.00, -0.00, -1.00, 270.1, 122.2)">r</text><text xml:space="preserve" font-family="HelveticaNeue-Thin,Helvetica Neue" font-size="50.0" fill="#090502" transform="matrix(1.00, 0.00, -0.00, -1.00, 284.0, 122.2)"> </text><text xml:space="preserve" font-family="HelveticaNeue-Thin,Helvetica Neue" font-size="50.0" fill="#090502" transform="matrix(1.00, 0.00, -0.00, -1.00, 297.9, 122.2)">t</text><text xml:space="preserve" font-family="HelveticaNeue-Thin,Helvetica Neue" font-size="50.0" fill="#090502" transform="matrix(1.00, 0.00, -0.00, -1.00, 310.8, 122.2)">a</text><text xml:space="preserve" font-family="HelveticaNeue-Thin,Helvetica Neue" font-size="50.0" fill="#090502" transform="matrix(1.00, 0.00, -0.00, -1.00, 335.8, 122.2)">b</text><text xml:space="preserve" font-family="HelveticaNeue-Thin,Helvetica Neue" font-size="50.0" fill="#090502" transform="matrix(1.00, 0.00, -0.00, -1.00, 363.6, 122.2)">s</text><text xml:space="preserve" font-family="HelveticaNeue-Thin,Helvetica Neue" font-size="50.0" fill="#090502" transform="matrix(1.00, 0.00, -0.00, -1.00, 387.7, 122.2)"> </text><text xml:space="preserve" font-family="HelveticaNeue-Thin,Helvetica Neue" font-size="50.0" fill="#090502" transform="matrix(1.00, 0.00, -0.00, -1.00, 401.6, 122.2)">a</text><text xml:space="preserve" font-family="HelveticaNeue-Thin,Helvetica Neue" font-size="50.0" fill="#090502" transform="matrix(1.00, 0.00, -0.00, -1.00, 426.6, 122.2)">r</text><text xml:space="preserve" font-family="HelveticaNeue-Thin,Helvetica Neue" font-size="50.0" fill="#090502" transform="matrix(1.00, 0.00, -0.00, -1.00, 439.8, 122.2)">e</text><text xml:space="preserve" font-family="HelveticaNeue-Thin,Helvetica Neue" font-size="50.0" fill="#090502" transform="matrix(1.00, 0.00, -0.00, -1.00, 465.8, 122.2)"> </text><text xml:space="preserve" font-family="HelveticaNeue-Thin,Helvetica Neue" font-size="50.0" fill="#090502" transform="matrix(1.00, 0.00, -0.00, -1.00, 479.7, 122.2)">a</text><text xml:space="preserve" font-family="HelveticaNeue-Thin,Helvetica Neue" font-size="50.0" fill="#090502" transform="matrix(1.00, 0.00, -0.00, -1.00, 504.7, 122.2)">v</text><text xml:space="preserve" font-family="HelveticaNeue-Thin,Helvetica Neue" font-size="50.0" fill="#090502" transform="matrix(1.00, 0.00, -0.00, -1.00, 526.9, 122.2)">a</text><text xml:space="preserve" font-family="HelveticaNeue-Thin,Helvetica Neue" font-size="50.0" fill="#090502" transform="matrix(1.00, 0.00, -0.00, -1.00, 551.9, 122.2)">i</text><text xml:space="preserve" font-family="HelveticaNeue-Thin,Helvetica Neue" font-size="50.0" fill="#090502" transform="matrix(1.00, 0.00, -0.00, -1.00, 560.3, 122.2)">l</text><text xml:space="preserve" font-family="HelveticaNeue-Thin,Helvetica Neue" font-size="50.0" fill="#090502" transform="matrix(1.00, 0.00, -0.00, -1.00, 568.7, 122.2)">a</text><text xml:space="preserve" font-family="HelveticaNeue-Thin,Helvetica Neue" font-size="50.0" fill="#090502" transform="matrix(1.00, 0.00, -0.00, -1.00, 593.7, 122.2)">b</text><text xml:space="preserve" font-family="HelveticaNeue-Thin,Helvetica Neue" font-size="50.0" fill="#090502" transform="matrix(1.00, 0.00, -0.00, -1.00, 621.5, 122.2)">l</text><text xml:space="preserve" font-family="HelveticaNeue-Thin,Helvetica Neue" font-size="50.0" fill="#090502" transform="matrix(1.00, 0.00, -0.00, -1.00, 629.9, 122.2)">e</text><text xml:space="preserve" font-family="HelveticaNeue-Thin,Helvetica Neue" font-size="50.0" fill="#090502" transform="matrix(1.00, 0.00, -0.00, -1.00, 655.8, 122.2)">:</text><text xml:space="preserve" font-family="HelveticaNeue-Thin,Helvetica Neue" font-size="50.0" fill="#090502" transform="matrix(1.00, 0.00, -0.00, -1.00, 669.7, 122.2)"> </text><text xml:space="preserve" font-family="HelveticaNeue-Thin,Helvetica Neue" font-size="50.0" fill="#090502" transform="matrix(1.00, 0.00, -0.00, -1.00, 683.6, 122.2)">M</text><text xml:space="preserve" font-family="HelveticaNeue-Thin,Helvetica Neue" font-size="50.0" fill="#090502" transform="matrix(1.00, 0.00, -0.00, -1.00, 724.1, 122.2)">a</text><text xml:space="preserve" font-family="HelveticaNeue-Thin,Helvetica Neue" font-size="50.0" fill="#090502" transform="matrix(1.00, 0.00, -0.00, -1.00, 749.1, 122.2)">p</text><text xml:space="preserve" font-family="HelveticaNeue-Thin,Helvetica Neue" font-size="50.0" fill="#090502" transform="matrix(1.00, 0.00, -0.00, -1.00, 776.9, 122.2)"> </text><text xml:space="preserve" font-family="HelveticaNeue-Thin,Helvetica Neue" font-size="50.0" fill="#090502" transform="matrix(1.00, 0.00, -0.00, -1.00, 790.8, 122.2)">v</text><text xml:space="preserve" font-family="HelveticaNeue-Thin,Helvetica Neue" font-size="50.0" fill="#090502" transform="matrix(1.00, 0.00, -0.00, -1.00, 813.0, 122.2)">i</text><text xml:space="preserve" font-family="HelveticaNeue-Thin,Helvetica Neue" font-size="50.0" fill="#090502" transform="matrix(1.00, 0.00, -0.00, -1.00, 821.4, 122.2)">e</text><text xml:space="preserve" font-family="HelveticaNeue-Thin,Helvetica Neue" font-size="50.0" fill="#090502" transform="matrix(1.00, 0.00, -0.00, -1.00, 847.3, 122.2)">w</text><text xml:space="preserve" font-family="HelveticaNeue-Thin,Helvetica Neue" font-size="50.0" fill="#090502" transform="matrix(1.00, 0.00, -0.00, -1.00, 881.3, 122.2)">,</text><text xml:space="preserve" font-family="HelveticaNeue-Thin,Helvetica Neue" font-size="50.0" fill="#090502" transform="matrix(1.00, 0.00, -0.00, -1.00, 895.2, 122.2)"> </text><text xml:space="preserve" font-family="HelveticaNeue-Thin,Helvetica Neue" font-size="50.0" fill="#090502" transform="matrix(1.00, 0.00, -0.00, -1.00, 909.1, 122.2)">r</text><text xml:space="preserve" font-family="HelveticaNeue-Thin,Helvetica Neue" font-size="50.0" fill="#090502" transform="matrix(1.00, 0.00, -0.00, -1.00, 922.4, 122.2)">e</text><text xml:space="preserve" font-family="HelveticaNeue-Thin,Helvetica Neue" font-size="50.0" fill="#090502" transform="matrix(1.00, 0.00, -0.00, -1.00, 948.4, 122.2)">c</text><text xml:space="preserve" font-family="HelveticaNeue-Thin,Helvetica Neue" font-size="50.0" fill="#090502" transform="matrix(1.00, 0.00, -0.00, -1.00, 974.3, 122.2)">t</text><text xml:space="preserve" font-family="HelveticaNeue-Thin,Helvetica Neue" font-size="50.0" fill="#090502" transform="matrix(1.00, 0.00, -0.00, -1.00, 987.3, 122.2)">i</text><text xml:space="preserve" font-family="HelveticaNeue-Thin,Helvetica Neue" font-size="50.0" fill="#090502" transform="matrix(1.00, 0.00, -0.00, -1.00, 995.7, 122.2)">f</text><text xml:space="preserve" font-family="HelveticaNeue-Thin,Helvetica Neue" font-size="50.0" fill="#090502" transform="matrix(1.00, 0.00, -0.00, -1.00, 1007.7, 122.2)">y</text><text xml:space="preserve" font-family="HelveticaNeue-Thin,Helvetica Neue" font-size="50.0" fill="#090502" transform="matrix(1.00, 0.00, -0.00, -1.00, 1026.7, 122.2)">,</text><text xml:space="preserve" font-family="HelveticaNeue-Thin,Helvetica Neue" font-size="50.0" fill="#090502" transform="matrix(1.00, 0.00, -0.00, -1.00, 1040.6, 122.2)"> </text><text xml:space="preserve" font-family="HelveticaNeue-Thin,Helvetica Neue" font-size="50.0" fill="#090502" transform="matrix(1.00, 0.00, -0.00, -1.00, 1054.5, 122.2)">c</text><text xml:space="preserve" font-family="HelveticaNeue-Thin,Helvetica Neue" font-size="50.0" fill="#090502" transform="matrix(1.00, 0.00, -0.00, -1.00, 1080.4, 122.2)">r</text><text xml:space="preserve" font-family="HelveticaNeue-Thin,Helvetica Neue" font-size="50.0" fill="#090502" transform="matrix(1.00, 0.00, -0.00, -1.00, 1093.8, 122.2)">o</text><text xml:space="preserve" font-family="HelveticaNeue-Thin,Helvetica Neue" font-size="50.0" fill="#090502" transform="matrix(1.00, 0.00, -0.00, -1.00, 1120.6, 122.2)">p</text><text xml:space="preserve" font-family="HelveticaNeue-Thin,Helvetica Neue" font-size="50.0" fill="#090502" transform="matrix(1.00, 0.00, -0.00, -1.00, 1148.4, 122.2)">,</text><text xml:space="preserve" font-family="HelveticaNeue-Thin,Helvetica Neue" font-size="50.0" fill="#090502" transform="matrix(1.00, 0.00, -0.00, -1.00, 1162.3, 122.2)"> </text><text xml:space="preserve" font-family="HelveticaNeue-Thin,Helvetica Neue" font-size="50.0" fill="#090502" transform="matrix(1.00, 0.00, -0.00, -1.00, 395.2, 50.5)">p</text><text xml:space="preserve" font-family="HelveticaNeue-Thin,Helvetica Neue" font-size="50.0" fill="#090502" transform="matrix(1.00, 0.00, -0.00, -1.00, 423.0, 50.5)">r</text><text xml:space="preserve" font-family="HelveticaNeue-Thin,Helvetica Neue" font-size="50.0" fill="#090502" transform="matrix(1.00, 0.00, -0.00, -1.00, 436.3, 50.5)">e</text><text xml:space="preserve" font-family="HelveticaNeue-Thin,Helvetica Neue" font-size="50.0" fill="#090502" transform="matrix(1.00, 0.00, -0.00, -1.00, 462.3, 50.5)">v</text><text xml:space="preserve" font-family="HelveticaNeue-Thin,Helvetica Neue" font-size="50.0" fill="#090502" transform="matrix(1.00, 0.00, -0.00, -1.00, 484.5, 50.5)">i</text><text xml:space="preserve" font-family="HelveticaNeue-Thin,Helvetica Neue" font-size="50.0" fill="#090502" transform="matrix(1.00, 0.00, -0.00, -1.00, 492.9, 50.5)">e</text><text xml:space="preserve" font-family="HelveticaNeue-Thin,Helvetica Neue" font-size="50.0" fill="#090502" transform="matrix(1.00, 0.00, -0.00, -1.00, 518.8, 50.5)">w</text><text xml:space="preserve" font-family="HelveticaNeue-Thin,Helvetica Neue" font-size="50.0" fill="#090502" transform="matrix(1.00, 0.00, -0.00, -1.00, 554.0, 50.5)"> </text><text xml:space="preserve" font-family="HelveticaNeue-Thin,Helvetica Neue" font-size="50.0" fill="#090502" transform="matrix(1.00, 0.00, -0.00, -1.00, 567.9, 50.5)">a</text><text xml:space="preserve" font-family="HelveticaNeue-Thin,Helvetica Neue" font-size="50.0" fill="#090502" transform="matrix(1.00, 0.00, -0.00, -1.00, 592.9, 50.5)">n</text><text xml:space="preserve" font-family="HelveticaNeue-Thin,Helvetica Neue" font-size="50.0" fill="#090502" transform="matrix(1.00, 0.00, -0.00, -1.00, 618.9, 50.5)">d</text><text xml:space="preserve" font-family="HelveticaNeue-Thin,Helvetica Neue" font-size="50.0" fill="#090502" transform="matrix(1.00, 0.00, -0.00, -1.00, 646.7, 50.5)"> </text><text xml:space="preserve" font-family="HelveticaNeue-Thin,Helvetica Neue" font-size="50.0" fill="#090502" transform="matrix(1.00, 0.00, -0.00, -1.00, 660.6, 50.5)">e</text><text xml:space="preserve" font-family="HelveticaNeue-Thin,Helvetica Neue" font-size="50.0" fill="#090502" transform="matrix(1.00, 0.00, -0.00, -1.00, 685.9, 50.5)">x</text><text xml:space="preserve" font-family="HelveticaNeue-Thin,Helvetica Neue" font-size="50.0" fill="#090502" transform="matrix(1.00, 0.00, -0.00, -1.00, 708.1, 50.5)">p</text><text xml:space="preserve" font-family="HelveticaNeue-Thin,Helvetica Neue" font-size="50.0" fill="#090502" transform="matrix(1.00, 0.00, -0.00, -1.00, 735.9, 50.5)">o</text><text xml:space="preserve" font-family="HelveticaNeue-Thin,Helvetica Neue" font-size="50.0" fill="#090502" transform="matrix(1.00, 0.00, -0.00, -1.00, 762.8, 50.5)">r</text><text xml:space="preserve" font-family="HelveticaNeue-Thin,Helvetica Neue" font-size="50.0" fill="#090502" transform="matrix(1.00, 0.00, -0.00, -1.00, 778.0, 50.5)">t</text><text xml:space="preserve" font-family="HelveticaNeue-Thin,Helvetica Neue" font-size="50.0" fill="#090502" transform="matrix(1.00, 0.00, -0.00, -1.00, 790.9, 50.5)">.</text></g></g></g></svg>