<?xml version="1.0" encoding="UTF-8" standalone="no"?><svg xmlns="http://www.w3.org/2000/svg" xmlns:xlink="http://www.w3.org/1999/xlink" clip-rule="evenodd" stroke-miterlimit="10" viewBox="0 0 1024 768"><desc>SVG generated by Keynote</desc><defs></defs><g transform="matrix(1.00, 0.00, -0.00, -1.00, 0.0, 768.0)"><path d="M 0.0 768.0 L 1024.0 768.0 L 1024.0 0.0 L 0.0 0.0 Z M 0.0 768.0 " fill="#52575F"></path><image xlink:href="A2D3C1D8D485474367B08B62B3E3B304.png" width="672.00" height="389.00" transform="matrix(1.00, 0.00, -0.00, -1.00, 176.0, 509.0)"></image><path d="M 209.0 638.0 L 805.0 638.0 L 805.0 549.0 L 209.0 549.0 Z M 209.0 637.6 " fill="#000000"></path><path d="M 219.0 648.0 L 815.0 648.0 L 815.0 559.0 L 219.0 559.0 Z M 219.0 647.6 " fill="#FEFC78"></path><text xml:space="preserve" font-family="Helvetica,Helvetica" font-size="35.0" fill="#000000" transform="matrix(1.00, 0.00, -0.00, -1.00, 292.6, 590.5)">L</text><text xml:space="preserve" font-family="Helvetica,Helvetica" font-size="35.0" fill="#000000" transform="matrix(1.00, 0.00, -0.00, -1.00, 312.1, 590.5)">A</text><text xml:space="preserve" font-family="Helvetica,Helvetica" font-size="35.0" fill="#000000" transform="matrix(1.00, 0.00, -0.00, -1.00, 332.9, 590.5)">T</text><text xml:space="preserve" font-family="Helvetica,Helvetica" font-size="35.0" fill="#000000" transform="matrix(1.00, 0.00, -0.00, -1.00, 354.2, 590.5)">E</text><text xml:space="preserve" font-family="Helvetica,Helvetica" font-size="35.0" fill="#000000" transform="matrix(1.00, 0.00, -0.00, -1.00, 377.6, 590.5)">R</text><text xml:space="preserve" font-family="Helvetica,Helvetica" font-size="35.0" fill="#000000" transform="matrix(1.00, 0.00, -0.00, -1.00, 402.9, 590.5)"> </text><text xml:space="preserve" font-family="Helvetica,Helvetica" font-size="35.0" fill="#000000" transform="matrix(1.00, 0.00, -0.00, -1.00, 412.6, 590.5)">t</text><text xml:space="preserve" font-family="Helvetica,Helvetica" font-size="35.0" fill="#000000" transform="matrix(1.00, 0.00, -0.00, -1.00, 422.3, 590.5)">h</text><text xml:space="preserve" font-family="Helvetica,Helvetica" font-size="35.0" fill="#000000" transform="matrix(1.00, 0.00, -0.00, -1.00, 441.8, 590.5)">a</text><text xml:space="preserve" font-family="Helvetica,Helvetica" font-size="35.0" fill="#000000" transform="matrix(1.00, 0.00, -0.00, -1.00, 461.2, 590.5)">t</text><text xml:space="preserve" font-family="Helvetica,Helvetica" font-size="35.0" fill="#000000" transform="matrix(1.00, 0.00, -0.00, -1.00, 471.0, 590.5)"> </text><text xml:space="preserve" font-family="Helvetica,Helvetica" font-size="35.0" fill="#000000" transform="matrix(1.00, 0.00, -0.00, -1.00, 480.7, 590.5)">d</text><text xml:space="preserve" font-family="Helvetica,Helvetica" font-size="35.0" fill="#000000" transform="matrix(1.00, 0.00, -0.00, -1.00, 500.2, 590.5)">a</text><text xml:space="preserve" font-family="Helvetica,Helvetica" font-size="35.0" fill="#000000" transform="matrix(1.00, 0.00, -0.00, -1.00, 519.6, 590.5)">y</text><text xml:space="preserve" font-family="Helvetica,Helvetica" font-size="35.0" fill="#000000" transform="matrix(1.00, 0.00, -0.00, -1.00, 537.1, 590.5)"> </text><text xml:space="preserve" font-family="Helvetica,Helvetica" font-size="35.0" fill="#000000" transform="matrix(1.00, 0.00, -0.00, -1.00, 546.8, 590.5)">a</text><text xml:space="preserve" font-family="Helvetica,Helvetica" font-size="35.0" fill="#000000" transform="matrix(1.00, 0.00, -0.00, -1.00, 566.3, 590.5)">t</text><text xml:space="preserve" font-family="Helvetica,Helvetica" font-size="35.0" fill="#000000" transform="matrix(1.00, 0.00, -0.00, -1.00, 576.0, 590.5)"> </text><text xml:space="preserve" font-family="Helvetica,Helvetica" font-size="35.0" fill="#000000" transform="matrix(1.00, 0.00, -0.00, -1.00, 585.7, 590.5)">1</text><text xml:space="preserve" font-family="Helvetica,Helvetica" font-size="35.0" fill="#000000" transform="matrix(1.00, 0.00, -0.00, -1.00, 605.2, 590.5)">:</text><text xml:space="preserve" font-family="Helvetica,Helvetica" font-size="35.0" fill="#000000" transform="matrix(1.00, 0.00, -0.00, -1.00, 614.9, 590.5)">0</text><text xml:space="preserve" font-family="Helvetica,Helvetica" font-size="35.0" fill="#000000" transform="matrix(1.00, 0.00, -0.00, -1.00, 634.4, 590.5)">0</text><text xml:space="preserve" font-family="Helvetica,Helvetica" font-size="35.0" fill="#000000" transform="matrix(1.00, 0.00, -0.00, -1.00, 653.9, 590.5)">A</text><text xml:space="preserve" font-family="Helvetica,Helvetica" font-size="35.0" fill="#000000" transform="matrix(1.00, 0.00, -0.00, -1.00, 677.2, 590.5)">M</text><text xml:space="preserve" font-family="Helvetica,Helvetica" font-size="35.0" fill="#000000" transform="matrix(1.00, 0.00, -0.00, -1.00, 706.4, 590.5)">…</text></g></svg>