<?xml version="1.0" encoding="UTF-8" standalone="no"?><svg xmlns="http://www.w3.org/2000/svg" xmlns:xlink="http://www.w3.org/1999/xlink" clip-rule="evenodd" stroke-miterlimit="10" viewBox="0 0 219 51"><desc>SVG generated by Keynote</desc><defs></defs><g transform="matrix(1.00, 0.00, -0.00, -1.00, 0.0, 51.0)"><text xml:space="preserve" font-family="AvenirNext-Regular,Avenir Next" font-size="48.0" fill="#FEFFFF" transform="matrix(1.00, 0.00, -0.00, -1.00, -1.7, 12.9)">b</text><text xml:space="preserve" font-family="AvenirNext-Regular,Avenir Next" font-size="48.0" fill="#FEFFFF" transform="matrix(1.00, 0.00, -0.00, -1.00, 28.8, 12.9)">a</text><text xml:space="preserve" font-family="AvenirNext-Regular,Avenir Next" font-size="48.0" fill="#FEFFFF" transform="matrix(1.00, 0.00, -0.00, -1.00, 54.5, 12.9)">c</text><text xml:space="preserve" font-family="AvenirNext-Regular,Avenir Next" font-size="48.0" fill="#FEFFFF" transform="matrix(1.00, 0.00, -0.00, -1.00, 78.5, 12.9)">k</text><text xml:space="preserve" font-family="AvenirNext-Regular,Avenir Next" font-size="48.0" fill="#FEFFFF" transform="matrix(1.00, 0.00, -0.00, -1.00, 102.4, 12.9)">y</text><text xml:space="preserve" font-family="AvenirNext-Regular,Avenir Next" font-size="48.0" fill="#FEFFFF" transform="matrix(1.00, 0.00, -0.00, -1.00, 125.8, 12.9)">a</text><text xml:space="preserve" font-family="AvenirNext-Regular,Avenir Next" font-size="48.0" fill="#FEFFFF" transform="matrix(1.00, 0.00, -0.00, -1.00, 151.4, 12.9)">r</text><text xml:space="preserve" font-family="AvenirNext-Regular,Avenir Next" font-size="48.0" fill="#FEFFFF" transform="matrix(1.00, 0.00, -0.00, -1.00, 167.8, 12.9)">d</text><text xml:space="preserve" font-family="AvenirNext-Regular,Avenir Next" font-size="48.0" fill="#FEFFFF" transform="matrix(1.00, 0.00, -0.00, -1.00, 198.4, 12.9)">s</text></g></svg>