<?xml version="1.0" encoding="UTF-8" standalone="no"?><svg xmlns="http://www.w3.org/2000/svg" xmlns:xlink="http://www.w3.org/1999/xlink" clip-rule="evenodd" stroke-miterlimit="10" viewBox="0 0 193 52"><desc>SVG generated by Keynote</desc><defs></defs><g transform="matrix(1.00, 0.00, -0.00, -1.00, 0.0, 52.0)"><text xml:space="preserve" font-family="AvenirNext-Regular,Avenir Next" font-size="48.0" fill="#FEFFFF" transform="matrix(1.00, 0.00, -0.00, -1.00, 1.6, 12.6)">f</text><text xml:space="preserve" font-family="AvenirNext-Regular,Avenir Next" font-size="48.0" fill="#FEFFFF" transform="matrix(1.00, 0.00, -0.00, -1.00, 15.7, 12.6)">o</text><text xml:space="preserve" font-family="AvenirNext-Regular,Avenir Next" font-size="48.0" fill="#FEFFFF" transform="matrix(1.00, 0.00, -0.00, -1.00, 45.0, 12.6)">o</text><text xml:space="preserve" font-family="AvenirNext-Regular,Avenir Next" font-size="48.0" fill="#FEFFFF" transform="matrix(1.00, 0.00, -0.00, -1.00, 74.4, 12.6)">t</text><text xml:space="preserve" font-family="AvenirNext-Regular,Avenir Next" font-size="48.0" fill="#FEFFFF" transform="matrix(1.00, 0.00, -0.00, -1.00, 89.6, 12.6)">p</text><text xml:space="preserve" font-family="AvenirNext-Regular,Avenir Next" font-size="48.0" fill="#FEFFFF" transform="matrix(1.00, 0.00, -0.00, -1.00, 120.1, 12.6)">r</text><text xml:space="preserve" font-family="AvenirNext-Regular,Avenir Next" font-size="48.0" fill="#FEFFFF" transform="matrix(1.00, 0.00, -0.00, -1.00, 137.3, 12.6)">i</text><text xml:space="preserve" font-family="AvenirNext-Regular,Avenir Next" font-size="48.0" fill="#FEFFFF" transform="matrix(1.00, 0.00, -0.00, -1.00, 149.3, 12.6)">n</text><text xml:space="preserve" font-family="AvenirNext-Regular,Avenir Next" font-size="48.0" fill="#FEFFFF" transform="matrix(1.00, 0.00, -0.00, -1.00, 177.2, 12.6)">t</text></g></svg>