<?xml version="1.0" encoding="UTF-8" standalone="no"?><svg xmlns="http://www.w3.org/2000/svg" xmlns:xlink="http://www.w3.org/1999/xlink" clip-rule="evenodd" stroke-miterlimit="10" viewBox="0 0 187 51"><desc>SVG generated by Keynote</desc><defs></defs><g transform="matrix(1.00, 0.00, -0.00, -1.00, 0.0, 51.0)"><text xml:space="preserve" font-family="AvenirNext-Regular,Avenir Next" font-size="48.0" fill="#FEFFFF" transform="matrix(1.00, 0.00, -0.00, -1.00, -0.3, 13.2)">s</text><text xml:space="preserve" font-family="AvenirNext-Regular,Avenir Next" font-size="48.0" fill="#FEFFFF" transform="matrix(1.00, 0.00, -0.00, -1.00, 21.0, 13.2)">k</text><text xml:space="preserve" font-family="AvenirNext-Regular,Avenir Next" font-size="48.0" fill="#FEFFFF" transform="matrix(1.00, 0.00, -0.00, -1.00, 44.9, 13.2)">y</text><text xml:space="preserve" font-family="AvenirNext-Regular,Avenir Next" font-size="48.0" fill="#FEFFFF" transform="matrix(1.00, 0.00, -0.00, -1.00, 68.4, 13.2)">l</text><text xml:space="preserve" font-family="AvenirNext-Regular,Avenir Next" font-size="48.0" fill="#FEFFFF" transform="matrix(1.00, 0.00, -0.00, -1.00, 80.5, 13.2)">i</text><text xml:space="preserve" font-family="AvenirNext-Regular,Avenir Next" font-size="48.0" fill="#FEFFFF" transform="matrix(1.00, 0.00, -0.00, -1.00, 92.5, 13.2)">g</text><text xml:space="preserve" font-family="AvenirNext-Regular,Avenir Next" font-size="48.0" fill="#FEFFFF" transform="matrix(1.00, 0.00, -0.00, -1.00, 122.8, 13.2)">h</text><text xml:space="preserve" font-family="AvenirNext-Regular,Avenir Next" font-size="48.0" fill="#FEFFFF" transform="matrix(1.00, 0.00, -0.00, -1.00, 150.8, 13.2)">t</text><text xml:space="preserve" font-family="AvenirNext-Regular,Avenir Next" font-size="48.0" fill="#FEFFFF" transform="matrix(1.00, 0.00, -0.00, -1.00, 166.0, 13.2)">s</text></g></svg>