<?xml version="1.0" encoding="UTF-8" standalone="no"?><svg xmlns="http://www.w3.org/2000/svg" xmlns:xlink="http://www.w3.org/1999/xlink" clip-rule="evenodd" stroke-miterlimit="10" viewBox="0 0 1024 768"><desc>SVG generated by Keynote</desc><defs></defs><g transform="matrix(1.00, 0.00, -0.00, -1.00, 0.0, 768.0)"><path d="M 0.0 768.0 L 1024.0 768.0 L 1024.0 0.0 L 0.0 0.0 Z M 0.0 768.0 " fill="#52575F"></path><path d="M 261.0 418.0 L 743.0 418.0 L 743.0 330.0 L 261.0 330.0 Z M 261.3 418.2 " fill="#000000"></path><path d="M 271.0 428.0 L 753.0 428.0 L 753.0 340.0 L 271.0 340.0 Z M 271.3 428.2 " fill="#FEFC78"></path><text xml:space="preserve" font-family="Helvetica,Helvetica" font-size="35.0" fill="#000000" transform="matrix(1.00, 0.00, -0.00, -1.00, 333.1, 371.0)">A</text><text xml:space="preserve" font-family="Helvetica,Helvetica" font-size="35.0" fill="#000000" transform="matrix(1.00, 0.00, -0.00, -1.00, 354.5, 371.0)"> </text><text xml:space="preserve" font-family="Helvetica,Helvetica" font-size="35.0" fill="#000000" transform="matrix(1.00, 0.00, -0.00, -1.00, 364.2, 371.0)">F</text><text xml:space="preserve" font-family="Helvetica,Helvetica" font-size="35.0" fill="#000000" transform="matrix(1.00, 0.00, -0.00, -1.00, 385.6, 371.0)">E</text><text xml:space="preserve" font-family="Helvetica,Helvetica" font-size="35.0" fill="#000000" transform="matrix(1.00, 0.00, -0.00, -1.00, 408.9, 371.0)">W</text><text xml:space="preserve" font-family="Helvetica,Helvetica" font-size="35.0" fill="#000000" transform="matrix(1.00, 0.00, -0.00, -1.00, 442.0, 371.0)"> </text><text xml:space="preserve" font-family="Helvetica,Helvetica" font-size="35.0" fill="#000000" transform="matrix(1.00, 0.00, -0.00, -1.00, 451.7, 371.0)">H</text><text xml:space="preserve" font-family="Helvetica,Helvetica" font-size="35.0" fill="#000000" transform="matrix(1.00, 0.00, -0.00, -1.00, 477.0, 371.0)">O</text><text xml:space="preserve" font-family="Helvetica,Helvetica" font-size="35.0" fill="#000000" transform="matrix(1.00, 0.00, -0.00, -1.00, 504.2, 371.0)">U</text><text xml:space="preserve" font-family="Helvetica,Helvetica" font-size="35.0" fill="#000000" transform="matrix(1.00, 0.00, -0.00, -1.00, 529.5, 371.0)">R</text><text xml:space="preserve" font-family="Helvetica,Helvetica" font-size="35.0" fill="#000000" transform="matrix(1.00, 0.00, -0.00, -1.00, 554.8, 371.0)">S</text><text xml:space="preserve" font-family="Helvetica,Helvetica" font-size="35.0" fill="#000000" transform="matrix(1.00, 0.00, -0.00, -1.00, 578.1, 371.0)"> </text><text xml:space="preserve" font-family="Helvetica,Helvetica" font-size="35.0" fill="#000000" transform="matrix(1.00, 0.00, -0.00, -1.00, 587.8, 371.0)">l</text><text xml:space="preserve" font-family="Helvetica,Helvetica" font-size="35.0" fill="#000000" transform="matrix(1.00, 0.00, -0.00, -1.00, 595.6, 371.0)">a</text><text xml:space="preserve" font-family="Helvetica,Helvetica" font-size="35.0" fill="#000000" transform="matrix(1.00, 0.00, -0.00, -1.00, 615.1, 371.0)">t</text><text xml:space="preserve" font-family="Helvetica,Helvetica" font-size="35.0" fill="#000000" transform="matrix(1.00, 0.00, -0.00, -1.00, 624.8, 371.0)">e</text><text xml:space="preserve" font-family="Helvetica,Helvetica" font-size="35.0" fill="#000000" transform="matrix(1.00, 0.00, -0.00, -1.00, 644.3, 371.0)">r</text><text xml:space="preserve" font-family="Helvetica,Helvetica" font-size="35.0" fill="#000000" transform="matrix(1.00, 0.00, -0.00, -1.00, 655.9, 371.0)">…</text></g></svg>