<?xml version="1.0" encoding="UTF-8" standalone="no"?><svg xmlns="http://www.w3.org/2000/svg" xmlns:xlink="http://www.w3.org/1999/xlink" clip-rule="evenodd" stroke-miterlimit="10" viewBox="0 0 1280 800"><desc>SVG generated by Keynote</desc><defs></defs><g transform="matrix(1.00, 0.00, -0.00, -1.00, 0.0, 800.0)"><path d="M 0.0 800.0 L 1280.0 800.0 L 1280.0 0.0 L 0.0 0.0 Z M 0.0 800.0 " fill="#BBB9B4"></path><g><clipPath id="clip0x6080018bc740"><path d="M 85.0 800.0 L 1195.0 800.0 L 1195.0 116.0 L 85.0 116.0 Z M 85.0 800.0 "></path></clipPath><g clip-path="url(#clip0x6080018bc740)"><image xlink:href="../../479955FC-92C5-4EB0-AF52-33A9DEF71E28/assets/08E92CCAF9A8C23259894724B4BB1747.png" width="1110.00" height="684.00" transform="matrix(1.00, 0.00, -0.00, -1.00, 85.0, 800.0)"></image></g></g><path d="M 343.2 573.8 C 343.0 573.9 342.8 574.0 342.5 574.1 C 342.6 574.1 342.8 574.2 342.8 574.3 C 343.1 574.2 343.5 574.1 344.1 574.0 C 344.0 573.9 343.7 574.0 343.5 574.0 C 343.3 574.0 343.3 573.9 343.2 573.8 C 343.2 573.8 343.2 573.8 343.2 573.8 Z M 334.2 622.6 C 333.7 622.3 334.1 622.8 334.3 622.9 C 334.3 622.9 334.4 622.8 334.6 622.9 C 334.5 623.2 334.1 623.1 333.7 623.0 C 332.4 622.4 333.6 622.3 334.2 622.6 C 334.2 622.6 334.2 622.6 334.2 622.6 Z M 407.2 628.6 C 408.4 628.4 407.1 628.3 406.9 628.3 C 407.4 628.1 406.9 627.7 407.6 627.5 C 407.7 627.7 408.0 627.7 408.2 627.8 C 407.9 627.9 407.4 628.0 407.4 628.1 C 407.8 628.0 408.3 627.9 408.4 628.0 C 407.6 628.2 408.4 628.3 408.5 628.5 C 407.8 628.6 407.6 628.9 407.2 628.6 C 407.2 628.6 407.2 628.6 407.2 628.6 Z M 429.8 589.6 C 430.2 589.8 430.4 590.1 430.3 590.2 C 429.9 589.9 429.7 589.7 429.5 589.5 C 429.4 589.5 429.4 589.7 429.1 589.5 C 428.8 589.1 429.2 588.9 429.5 588.9 C 429.4 589.1 430.7 589.9 429.8 589.6 C 429.8 589.6 429.8 589.6 429.8 589.6 Z M 400.1 578.0 C 399.2 577.7 400.0 578.4 399.0 578.1 C 399.1 577.8 399.0 577.5 399.7 577.6 C 399.7 577.8 400.1 577.9 400.1 578.0 C 400.1 578.0 400.1 578.0 400.1 578.0 Z M 376.2 628.1 C 376.2 628.3 377.0 628.2 376.8 628.5 C 376.4 628.5 376.0 628.5 375.6 628.5 C 375.6 628.2 375.7 628.1 376.2 628.1 C 376.2 628.1 376.2 628.1 376.2 628.1 Z M 414.0 624.2 C 415.1 624.2 416.1 623.5 415.9 623.8 C 416.4 624.0 415.4 624.9 415.3 624.6 C 415.1 624.2 413.2 624.4 414.0 624.2 C 414.0 624.2 414.0 624.2 414.0 624.2 Z M 341.4 619.5 C 342.4 620.1 342.4 619.2 343.1 619.8 C 342.8 619.8 342.7 619.8 342.6 619.9 C 342.7 620.0 343.0 620.0 343.0 620.1 C 342.4 620.0 341.8 619.9 341.4 619.5 C 341.4 619.5 341.4 619.5 341.4 619.5 Z M 361.9 572.9 C 362.1 572.9 362.2 572.8 362.2 572.7 C 363.1 572.7 363.0 572.5 363.6 572.7 C 363.6 573.1 362.9 572.9 362.2 572.9 C 362.2 572.9 361.9 573.0 361.9 572.9 C 361.9 572.9 361.9 572.9 361.9 572.9 Z M 386.8 575.4 C 386.8 575.2 386.3 575.0 387.1 575.0 C 388.0 575.5 387.1 575.7 386.2 575.7 C 386.2 575.9 386.1 576.0 386.1 576.1 C 386.5 576.2 386.7 576.3 386.9 576.3 C 387.2 575.9 387.7 576.8 389.1 576.7 C 388.4 576.9 389.1 577.3 388.3 577.0 C 388.5 577.3 387.8 577.2 387.9 577.5 C 388.3 577.4 389.2 577.5 389.1 577.1 C 389.6 577.2 389.9 577.3 390.2 577.4 C 390.5 577.8 389.3 577.3 389.6 577.7 C 389.8 577.8 389.9 577.9 390.1 577.9 C 390.2 577.8 390.1 577.6 390.4 577.6 C 391.3 577.9 390.2 578.0 391.4 578.2 C 391.5 578.1 391.2 578.0 391.2 577.8 C 391.8 577.7 391.8 578.0 392.3 577.9 C 392.4 578.1 391.9 578.1 392.3 578.2 C 392.7 577.8 393.4 578.6 394.2 578.4 C 393.8 577.7 394.3 578.6 395.1 578.1 C 395.2 578.3 394.7 578.6 395.3 578.7 C 395.2 577.9 397.6 578.6 395.8 577.6 C 396.8 577.8 397.2 577.3 396.4 577.0 C 398.2 577.5 397.7 577.0 398.4 577.1 C 399.1 577.3 398.0 577.2 398.3 577.5 C 397.6 577.3 397.7 577.6 397.2 577.3 C 397.2 577.4 397.1 577.5 396.9 577.5 C 397.7 577.5 398.4 578.1 397.8 578.3 C 397.5 578.2 397.9 578.0 397.4 577.8 C 397.5 578.3 396.9 577.6 396.8 577.9 C 397.1 578.4 396.0 578.5 396.9 578.8 C 397.0 578.6 397.0 578.4 397.0 578.3 C 397.3 578.3 397.6 578.4 397.8 578.4 C 398.0 578.8 397.8 578.9 398.0 579.1 C 398.4 579.2 398.7 579.2 398.8 579.1 C 398.3 578.9 397.7 578.5 398.6 578.6 C 398.1 579.1 399.8 579.0 399.0 579.2 C 400.0 579.6 400.6 579.3 400.6 579.7 C 401.1 579.8 400.8 579.4 401.4 579.6 C 402.3 580.1 402.3 579.6 403.5 580.2 C 403.8 579.8 403.6 580.3 404.0 580.4 C 404.0 580.3 404.1 580.1 404.1 579.9 C 404.5 580.3 405.5 580.7 406.6 580.7 C 406.8 580.9 406.6 581.1 407.3 581.3 C 408.1 581.1 408.8 581.8 409.8 581.6 C 409.8 581.9 410.4 582.1 410.8 582.1 C 410.9 582.2 410.3 582.4 410.9 582.6 C 411.3 582.5 410.7 582.2 411.5 582.3 C 411.3 582.6 412.3 582.3 412.2 582.6 C 411.9 582.7 411.6 582.7 411.4 582.7 C 411.7 582.8 411.6 582.9 411.8 583.0 C 411.9 582.6 412.3 583.2 412.5 583.3 C 412.5 583.1 412.7 583.0 412.9 583.0 C 413.3 583.1 413.6 583.2 413.8 583.2 C 414.3 583.6 413.5 583.4 414.0 583.6 C 414.5 583.0 414.7 584.0 415.9 583.9 C 416.1 584.3 416.5 584.6 417.2 584.9 C 417.3 584.7 416.5 584.5 416.6 584.3 C 417.6 584.8 416.5 584.1 417.1 584.3 C 418.5 585.1 418.6 585.1 420.8 586.4 C 420.9 586.2 422.8 586.9 422.7 587.0 C 422.2 586.8 423.4 587.8 424.1 588.2 C 424.5 587.9 425.8 588.1 426.0 587.9 C 426.1 588.3 426.0 588.3 425.9 588.7 C 427.0 589.5 427.8 589.5 428.1 590.4 C 428.2 590.1 428.7 590.4 429.1 590.6 C 428.9 590.7 428.6 590.7 428.3 590.7 C 428.8 591.0 428.8 591.2 429.2 591.5 C 430.2 591.2 430.3 592.6 431.1 592.2 C 431.8 592.7 431.4 592.9 432.0 593.4 C 432.1 593.2 432.3 593.2 432.5 593.3 C 432.1 593.0 431.6 592.9 431.6 592.5 C 432.6 593.2 430.4 590.4 432.1 591.4 C 432.1 591.5 431.8 591.6 432.1 591.9 C 433.1 592.5 432.8 591.9 432.4 591.6 C 433.1 592.0 433.6 592.6 433.4 591.9 C 434.7 593.0 433.7 592.4 434.0 593.0 C 436.4 594.8 438.7 597.7 439.5 601.1 C 439.9 601.1 440.0 603.0 439.9 603.6 C 440.3 604.5 440.4 605.5 440.0 605.8 C 440.3 606.0 439.7 606.9 440.0 607.0 C 440.0 606.6 440.2 606.4 440.2 606.8 C 439.9 608.2 439.2 610.1 439.1 611.0 C 438.5 611.3 438.2 612.1 438.1 612.7 C 437.9 612.7 438.1 612.3 437.8 612.6 C 437.9 612.8 437.3 614.0 437.0 614.2 C 437.3 613.9 437.2 613.3 436.8 613.7 C 437.0 613.9 436.5 614.4 436.8 614.4 C 436.1 615.0 435.9 615.5 435.3 615.9 C 435.7 615.5 435.8 615.1 435.7 614.9 C 435.5 615.4 435.3 615.8 434.8 615.9 C 435.2 616.1 434.4 616.5 433.9 617.3 C 433.6 617.3 433.4 617.3 432.8 617.8 C 432.7 618.2 433.9 617.3 433.3 617.9 C 433.2 617.8 432.5 618.1 432.8 618.3 C 431.9 618.8 431.6 619.3 430.8 619.5 C 431.7 619.0 430.8 619.1 430.5 619.2 C 430.3 619.3 430.0 619.5 430.1 619.6 C 430.2 619.7 430.6 619.4 430.7 619.4 C 430.0 619.7 430.1 620.3 429.7 620.2 C 430.0 620.0 430.0 619.8 429.6 620.0 C 429.8 620.5 427.6 621.3 428.2 620.7 C 428.2 620.8 429.0 620.4 429.0 620.2 C 428.7 620.2 427.7 621.0 427.8 620.6 C 428.4 620.2 428.5 620.4 429.2 619.9 C 429.2 619.7 429.6 619.3 429.8 619.1 C 428.6 619.8 428.5 620.2 428.2 620.0 C 427.6 620.4 428.1 620.5 427.2 620.9 C 425.8 621.5 426.8 620.7 426.4 620.7 C 425.2 621.5 425.8 621.7 426.4 621.7 C 425.5 622.2 425.2 622.5 423.9 623.0 C 423.9 622.8 424.0 622.6 424.5 622.3 C 424.5 622.4 425.6 622.1 425.5 622.0 C 425.2 621.6 424.3 621.8 422.9 622.3 C 423.4 622.6 423.4 622.3 422.0 622.9 C 422.4 623.2 421.3 623.1 421.3 623.4 C 421.4 623.4 421.9 623.2 422.4 623.0 C 422.4 623.2 422.3 623.4 421.9 623.7 C 421.5 623.7 421.3 623.9 420.4 624.1 C 420.3 623.9 420.9 623.6 421.0 623.4 C 420.5 623.6 420.4 623.8 419.9 624.0 C 419.4 623.8 419.3 623.4 419.2 623.0 C 419.8 622.8 420.6 622.5 419.9 622.5 C 421.9 621.7 419.9 622.9 420.7 622.7 C 421.4 622.0 421.2 622.7 422.4 622.2 C 422.8 622.0 422.9 621.9 423.0 621.7 C 422.9 621.7 422.1 621.7 422.9 621.3 C 423.2 621.5 423.7 621.4 424.3 621.2 C 424.3 621.0 422.9 621.5 424.2 620.9 C 424.8 620.6 424.4 621.3 425.3 620.8 C 425.2 620.7 425.5 620.6 425.5 620.5 C 424.3 621.1 425.6 620.2 424.7 620.4 C 425.7 619.8 425.1 620.6 425.7 620.3 C 425.7 620.1 426.9 619.9 426.8 619.5 C 426.5 619.9 425.6 620.2 425.6 619.9 C 426.4 619.6 429.4 617.5 428.5 618.7 C 428.8 618.2 430.7 616.5 430.6 616.8 C 430.0 617.2 430.2 617.4 430.2 617.6 C 431.2 616.5 431.9 616.3 432.6 615.0 C 431.5 616.0 432.0 614.9 431.2 615.3 C 430.9 615.5 430.4 615.8 430.4 616.0 C 430.7 616.1 431.1 615.6 431.2 615.3 C 431.4 615.5 431.6 615.7 431.7 616.0 C 430.2 616.8 429.5 617.6 428.7 618.0 C 429.3 617.5 427.2 618.3 428.0 617.8 C 428.4 617.8 429.2 617.4 429.8 617.0 C 429.7 616.9 429.7 616.8 429.6 616.8 C 429.9 616.6 430.3 616.3 430.2 616.2 C 429.5 616.8 428.9 616.9 428.4 617.4 C 428.4 617.4 428.3 617.3 428.3 617.3 C 428.1 617.4 428.0 617.4 428.0 617.3 C 428.3 617.2 428.7 616.9 428.7 616.8 C 428.0 617.1 427.7 617.0 427.0 617.3 C 427.0 616.9 425.8 617.1 426.8 616.4 C 427.1 616.6 427.7 616.4 427.8 616.5 C 428.2 616.4 428.7 616.0 428.9 615.7 C 428.5 615.7 427.9 616.0 427.7 615.8 C 428.1 615.4 428.4 615.1 428.8 615.1 C 428.0 615.9 429.5 615.0 430.0 615.0 C 429.8 615.0 429.5 615.0 429.3 615.0 C 430.0 614.5 430.4 614.5 430.2 614.1 C 430.9 613.4 430.9 613.8 431.4 613.3 C 430.8 613.3 431.5 612.9 431.0 612.9 C 431.7 612.2 431.5 613.0 431.7 612.7 C 431.9 612.5 431.9 612.4 432.0 612.1 C 432.5 612.0 433.0 611.3 433.4 611.4 C 433.6 611.1 433.7 611.2 433.9 610.9 C 433.9 610.7 433.9 610.6 433.9 610.4 C 434.0 610.4 434.2 610.3 434.2 610.1 C 433.3 610.7 433.4 610.5 432.6 611.1 C 432.6 611.2 432.5 611.3 432.8 611.2 C 432.4 611.8 432.1 611.9 431.7 612.4 C 431.4 612.3 431.0 612.0 430.8 612.7 C 430.7 612.4 430.5 612.4 430.6 612.2 C 430.9 612.1 431.3 611.8 431.7 611.6 C 431.6 611.5 431.5 611.4 431.6 611.3 C 431.9 611.2 432.1 611.0 432.2 610.7 C 432.3 610.8 432.3 610.9 432.3 611.1 C 432.9 610.4 432.4 610.4 432.9 610.0 C 432.7 610.0 432.5 610.3 432.5 609.9 C 432.8 609.4 433.0 609.4 433.2 609.2 C 433.1 609.1 433.0 609.1 433.1 609.0 C 433.5 608.7 433.2 610.0 433.9 609.6 C 433.6 609.4 434.1 608.8 434.3 608.8 C 434.4 609.1 433.9 609.3 434.1 609.5 C 434.7 608.3 434.6 609.7 435.2 608.4 C 435.0 608.4 434.9 608.4 434.8 608.3 C 434.7 608.8 434.4 608.7 434.2 608.6 C 434.0 609.0 433.5 609.0 433.5 609.4 C 433.1 609.0 433.7 609.0 433.9 608.7 C 433.6 608.5 433.4 608.9 433.2 608.8 C 433.8 608.1 433.5 607.8 434.1 607.0 C 433.7 607.1 434.2 606.5 433.9 606.6 C 433.9 607.3 433.1 606.8 432.9 606.9 C 432.9 607.3 433.5 607.3 433.6 607.6 C 433.2 607.6 433.1 607.5 432.7 607.3 C 432.9 607.0 432.8 607.0 432.8 606.7 C 433.1 606.5 433.7 606.4 433.8 606.8 C 433.7 606.7 433.6 606.2 433.9 606.2 C 433.8 606.7 434.0 606.1 434.1 606.4 C 434.4 606.1 434.0 605.3 434.3 604.8 C 434.1 604.9 434.0 604.7 433.9 604.7 C 434.2 605.2 433.5 605.3 433.5 605.7 C 433.5 605.6 433.3 605.7 433.2 605.7 C 433.4 605.3 433.1 605.1 433.4 604.8 C 433.3 604.8 433.2 604.8 433.1 604.8 C 433.2 604.3 433.1 604.3 432.8 604.0 C 432.9 603.8 433.5 603.9 433.8 603.9 C 433.6 603.7 433.5 602.9 433.3 603.4 C 433.1 603.0 433.6 602.9 433.4 602.4 C 433.1 602.6 433.3 603.0 432.8 603.0 C 432.6 602.6 433.1 602.7 432.7 602.4 C 432.9 602.3 433.2 602.2 432.9 601.8 C 432.9 602.1 432.8 601.8 432.6 601.7 C 432.6 601.9 432.7 602.1 432.6 602.3 C 432.4 601.5 432.3 601.4 431.8 600.8 C 432.2 600.8 432.1 600.4 432.5 600.8 C 432.1 600.5 432.1 599.8 431.8 599.7 C 431.8 600.0 432.1 600.4 432.1 600.6 C 431.2 599.5 430.3 599.1 429.5 597.6 C 429.7 597.8 430.0 598.1 430.1 598.0 C 430.0 597.9 429.7 597.7 429.8 597.6 C 430.2 598.0 430.6 598.4 430.8 598.6 C 431.0 599.0 430.5 598.5 430.7 598.9 C 430.9 598.8 431.4 599.6 431.5 599.1 C 430.7 598.7 430.4 597.9 430.5 597.3 C 429.5 597.1 430.1 597.6 429.0 597.4 C 429.2 597.3 429.1 597.1 428.9 596.9 C 428.8 597.4 428.1 596.5 428.0 596.4 C 428.5 596.5 429.8 597.5 429.5 596.6 C 429.2 597.4 428.1 595.2 428.0 595.9 C 427.1 595.2 427.7 595.2 427.0 595.1 C 427.0 595.0 427.2 594.9 426.9 594.7 C 426.6 594.5 426.5 594.5 426.3 594.5 C 427.6 595.6 427.0 595.6 427.7 596.3 C 427.6 596.2 427.5 596.1 427.4 596.2 C 427.4 596.3 427.4 596.3 427.2 596.1 C 427.4 595.8 426.5 595.7 426.4 595.3 C 426.7 595.5 427.0 595.7 427.0 595.5 C 425.9 594.7 426.4 594.5 424.7 593.2 C 425.1 593.7 424.4 593.4 423.7 593.0 C 422.8 592.4 423.4 592.2 422.3 591.6 C 422.0 592.3 421.0 590.8 419.3 590.5 C 419.6 590.2 418.1 589.3 417.7 589.5 C 417.7 589.3 417.2 589.2 416.9 589.0 C 416.9 588.8 417.3 588.9 417.0 588.7 C 416.7 588.7 416.8 589.1 416.4 588.9 C 416.0 588.6 416.2 588.4 415.5 588.1 C 415.4 588.4 415.8 588.4 415.4 588.5 C 414.8 588.1 414.3 587.9 414.7 588.4 C 413.8 588.1 414.4 587.7 413.5 587.4 C 413.7 587.7 413.7 587.7 413.2 587.6 C 413.0 587.3 413.0 587.1 412.9 587.0 C 412.6 587.1 412.7 587.2 412.0 586.8 C 411.9 587.0 411.9 587.1 411.8 587.2 C 411.5 587.1 411.0 586.9 411.0 586.8 C 411.6 587.1 411.5 586.8 411.8 586.7 C 411.2 586.5 410.1 585.8 410.9 586.4 C 409.9 586.3 410.5 586.0 409.8 585.8 C 410.1 586.3 409.8 585.9 409.1 585.7 C 409.0 586.1 408.6 585.6 408.1 585.5 C 408.1 585.7 407.9 585.8 407.5 585.7 C 407.6 585.6 407.3 585.4 406.8 585.3 C 406.8 585.5 407.7 585.9 406.8 585.6 C 406.3 585.3 406.4 585.0 405.7 584.8 C 405.6 584.4 406.4 584.8 406.3 584.4 C 405.6 584.5 405.5 584.2 404.6 583.9 C 404.8 584.6 402.6 584.1 403.6 584.7 C 403.3 584.6 402.8 584.9 402.6 584.5 C 403.0 584.5 402.4 584.1 402.5 584.1 C 402.0 584.0 401.0 583.6 401.0 583.8 C 401.9 583.9 401.9 584.2 402.1 584.5 C 400.7 584.3 399.5 583.9 399.7 583.6 C 399.6 583.7 399.4 583.6 399.4 583.7 C 399.9 583.8 400.1 584.4 399.5 584.3 C 399.7 584.0 399.3 583.8 398.9 583.6 C 398.8 583.9 397.0 583.0 397.3 583.5 C 398.1 583.5 398.6 584.1 397.9 584.1 C 397.5 583.7 396.6 583.3 396.8 583.1 C 396.5 583.2 396.3 583.2 396.0 583.3 C 395.7 583.5 396.3 583.6 396.1 583.8 C 395.8 583.7 395.2 583.7 395.1 583.5 C 396.2 583.7 394.6 583.2 395.7 583.2 C 395.1 583.1 395.0 582.9 394.5 582.8 C 394.4 582.9 394.2 582.8 394.2 582.9 C 394.7 582.8 395.1 583.1 394.9 583.4 C 394.0 583.2 394.2 582.9 393.4 582.8 C 393.1 582.9 392.0 583.1 391.5 582.8 C 392.5 583.0 391.4 582.7 392.1 582.6 C 393.0 583.0 393.3 582.7 393.7 582.5 C 393.3 582.3 392.5 582.0 392.4 582.4 C 392.9 582.5 392.9 582.3 393.2 582.3 C 393.1 582.5 393.0 582.6 392.6 582.6 C 392.2 582.3 391.2 582.4 391.9 582.1 C 391.2 582.1 390.5 581.7 389.8 581.8 C 390.5 582.0 391.1 582.2 391.3 582.5 C 390.6 582.5 390.0 582.0 390.0 582.3 C 390.0 582.5 391.0 582.6 391.2 582.9 C 390.3 583.0 389.2 582.0 390.1 582.8 C 389.7 582.7 389.0 582.6 388.9 582.4 C 389.4 582.4 388.9 581.9 388.6 581.8 C 388.1 581.8 387.7 581.8 387.5 581.9 C 388.3 581.9 388.8 582.4 388.3 582.3 C 388.2 582.1 388.0 582.3 387.8 582.3 C 387.7 582.1 386.9 582.1 386.7 582.0 C 386.8 582.1 387.2 582.2 387.2 582.3 C 386.7 582.4 385.9 582.7 385.6 582.2 C 385.9 582.2 386.4 582.3 386.4 582.2 C 385.1 581.6 384.7 581.2 383.0 580.8 C 383.3 580.8 383.4 580.7 383.3 580.6 C 382.3 580.5 381.6 580.2 381.8 580.0 C 381.1 580.0 380.7 580.2 380.4 580.3 C 381.0 580.5 381.3 580.3 381.7 580.5 C 381.4 580.6 382.2 581.2 382.4 581.4 C 383.6 581.2 383.6 581.8 384.9 581.7 C 384.5 582.0 385.7 581.9 385.3 582.2 C 384.3 581.6 383.2 581.8 381.6 581.4 C 381.8 581.2 382.0 581.0 381.4 580.8 C 380.4 580.5 380.8 581.0 380.0 580.9 C 379.7 580.6 380.2 580.6 379.8 580.4 C 379.5 580.5 378.7 580.4 378.4 580.1 C 379.5 580.3 378.2 579.9 379.0 579.8 C 378.6 579.7 378.4 579.7 378.2 579.6 C 379.2 580.1 377.1 579.9 377.9 580.3 C 376.3 580.3 377.8 579.5 376.5 579.5 C 377.1 579.7 376.3 579.8 375.4 579.7 C 375.2 579.4 374.3 579.3 373.5 579.1 C 373.9 579.3 374.2 579.3 373.5 579.5 C 373.9 579.6 374.5 579.7 374.9 579.6 C 374.9 579.7 375.0 579.8 375.1 579.9 C 374.2 579.9 374.6 580.1 374.3 580.1 C 374.0 580.0 373.4 579.9 373.2 579.8 C 373.2 579.9 373.0 579.9 372.9 580.0 C 374.1 580.0 372.7 580.4 373.5 580.5 C 374.0 580.5 373.7 580.2 374.3 580.2 C 374.9 580.7 373.8 580.6 373.4 580.9 C 373.9 581.2 374.6 580.8 374.8 581.2 C 374.1 581.5 373.0 581.2 372.1 581.0 C 372.1 581.4 370.6 580.9 370.4 581.4 C 370.3 581.2 370.1 581.1 369.9 581.0 C 369.6 581.4 369.3 580.9 369.1 580.9 C 369.0 581.1 369.1 581.2 369.3 581.3 C 368.2 581.1 368.0 581.1 366.6 581.3 C 366.4 581.1 366.2 580.9 366.1 580.7 C 366.4 580.6 366.7 580.6 366.9 580.5 C 365.1 580.4 366.3 581.3 365.0 580.8 C 365.1 580.9 365.9 581.3 365.3 581.4 C 364.2 581.0 362.6 581.4 362.6 580.5 C 361.6 580.2 360.9 580.8 360.5 580.4 C 360.1 580.5 360.0 580.6 359.9 580.7 C 360.2 580.8 360.6 581.0 361.0 581.1 C 361.6 581.0 361.9 581.2 361.3 580.8 C 362.2 580.8 362.4 581.0 362.9 581.1 C 361.6 581.3 360.5 581.1 360.5 581.6 C 360.1 581.4 359.8 581.2 359.4 581.0 C 359.3 581.2 357.9 581.4 357.8 581.1 C 358.7 581.1 359.7 580.7 358.8 580.5 C 356.6 580.8 355.3 580.4 353.4 580.9 C 353.3 580.7 353.4 580.5 353.1 580.5 C 353.1 580.7 353.0 580.8 352.8 580.9 C 352.2 580.9 351.9 580.8 351.0 581.0 C 351.1 580.7 350.9 580.5 350.4 580.5 C 350.2 580.8 349.5 581.5 349.0 581.4 C 349.5 581.4 348.8 581.1 348.5 581.1 C 348.8 581.5 346.2 581.1 347.0 581.4 C 346.0 581.5 345.5 581.4 345.5 581.3 C 345.1 581.4 344.9 581.5 344.5 581.7 C 344.2 581.3 342.6 581.9 342.3 581.7 C 342.9 581.8 342.9 581.3 342.5 581.4 C 342.2 581.7 340.7 582.2 340.4 582.2 C 340.5 582.1 340.5 581.8 341.3 581.5 C 340.0 581.7 340.1 582.2 339.8 582.6 C 339.7 582.1 339.2 582.6 339.1 582.7 C 338.6 582.6 339.1 582.6 339.0 582.3 C 338.5 582.4 338.3 582.2 337.8 582.4 C 338.0 582.7 337.4 582.7 337.1 582.6 C 337.1 582.9 336.8 583.1 336.3 583.3 C 336.9 582.6 333.4 583.5 334.3 583.6 C 333.7 584.1 333.5 583.5 332.7 583.8 C 332.6 584.0 332.1 584.0 332.6 584.1 C 331.9 584.4 332.0 583.9 330.8 584.5 C 331.5 584.7 329.5 584.9 330.0 585.2 C 329.2 584.9 328.5 585.9 327.4 585.9 C 327.4 586.0 327.2 586.1 327.1 586.2 C 327.0 586.4 328.4 586.0 327.6 586.4 C 326.5 586.6 327.0 586.3 326.8 586.2 C 324.2 587.5 321.5 588.9 319.7 590.2 C 320.0 590.1 320.0 590.2 319.7 590.5 C 318.8 590.5 317.4 592.4 317.3 592.7 C 316.9 592.6 316.6 593.7 316.3 593.7 C 316.5 593.6 316.4 593.1 316.2 593.4 C 316.3 593.9 315.9 594.0 316.0 594.5 C 315.6 594.5 315.5 595.7 315.1 594.9 C 315.0 595.1 314.9 595.2 314.8 595.3 C 315.2 595.5 315.0 595.7 315.3 595.4 C 314.7 596.2 315.0 596.5 314.7 597.1 C 314.8 597.3 315.1 596.8 315.1 597.2 C 315.0 597.2 314.9 597.2 314.9 597.2 C 314.8 597.3 315.0 597.4 314.8 597.4 C 314.7 597.4 314.7 597.2 314.4 597.1 C 314.4 597.5 314.0 597.7 314.3 597.8 C 314.4 597.3 314.9 597.7 314.6 598.0 C 314.4 597.7 314.7 599.1 314.9 599.5 C 314.6 599.8 314.8 599.0 314.6 599.1 C 314.7 600.0 314.6 600.0 315.0 600.0 C 315.0 600.4 314.9 600.7 315.3 601.2 C 315.3 601.6 315.0 601.1 315.1 601.4 C 315.3 601.6 315.5 601.6 315.6 601.9 C 315.4 603.1 317.7 604.5 318.0 606.3 C 317.8 605.7 318.4 606.1 318.9 606.7 C 318.9 606.8 318.7 606.8 318.9 607.0 C 319.0 606.8 319.3 607.0 319.7 607.3 C 319.6 607.5 319.4 607.5 319.7 607.7 C 320.1 607.6 320.4 608.3 320.8 608.4 C 320.8 608.8 320.0 607.9 319.7 608.1 C 320.6 609.1 321.1 609.0 321.9 609.8 C 321.4 609.5 322.1 610.3 322.2 610.5 C 322.2 610.0 323.0 610.4 322.6 609.9 C 322.9 610.1 323.5 610.5 323.5 610.6 C 323.3 610.5 323.0 610.3 323.0 610.4 C 323.5 610.6 323.9 611.3 324.3 611.2 C 324.0 611.0 323.8 610.8 323.9 610.6 C 324.1 610.6 324.3 610.6 324.6 610.7 C 323.4 610.9 325.9 612.0 326.1 611.9 C 326.1 612.5 326.3 612.5 326.1 612.7 C 327.1 613.3 327.1 612.9 327.8 613.2 C 327.5 613.4 327.1 613.5 328.1 614.2 C 328.0 613.7 329.3 614.4 329.1 613.8 C 331.9 615.1 331.4 615.3 332.5 615.7 C 332.5 615.6 332.2 615.4 332.6 615.5 C 333.0 615.8 333.4 616.1 333.7 616.4 C 334.0 616.3 333.7 616.1 334.0 616.2 C 334.7 616.8 334.4 617.0 335.0 617.5 C 336.0 617.6 335.6 617.7 336.3 617.6 C 336.1 617.5 335.8 617.2 336.1 617.3 C 336.6 617.8 336.7 618.2 336.8 618.3 C 336.4 618.2 336.1 618.0 335.9 617.9 C 335.7 618.0 335.2 617.8 335.6 618.2 C 335.0 617.9 334.4 617.6 333.6 617.3 C 333.7 617.7 332.9 617.1 333.0 617.5 C 333.9 617.8 334.1 618.1 335.0 618.4 C 334.9 618.0 335.8 618.5 335.9 618.6 C 336.0 618.4 336.6 618.7 336.5 618.4 C 337.2 618.6 337.1 618.8 337.9 619.0 C 337.9 619.1 337.7 619.2 338.0 619.4 C 338.3 619.1 338.4 619.6 338.7 619.7 C 338.6 619.3 339.6 619.8 339.7 619.6 C 339.5 619.5 339.1 619.4 339.1 619.3 C 340.2 619.7 339.4 619.1 339.2 618.8 C 339.2 619.0 338.7 619.2 338.7 618.9 C 339.7 619.0 337.5 618.0 338.3 618.4 C 339.0 618.7 339.0 618.5 339.8 618.8 C 340.5 619.6 339.3 619.5 340.1 620.3 C 340.7 620.2 341.0 620.4 341.2 620.1 C 341.3 620.2 341.4 620.4 341.6 620.5 C 341.9 620.4 341.0 620.0 341.7 620.1 C 342.0 620.3 341.5 620.6 342.3 620.7 C 342.7 620.6 341.4 620.2 342.2 620.3 C 342.8 621.0 342.1 620.1 343.0 620.3 C 343.0 620.4 343.1 620.5 343.4 620.6 C 343.4 620.7 343.3 620.9 343.6 621.0 C 343.9 620.6 343.8 621.3 344.5 621.4 C 345.0 621.1 343.9 621.0 344.2 620.8 C 344.8 621.3 345.4 621.0 345.7 621.2 C 345.0 621.3 346.6 621.6 346.5 621.9 C 346.5 621.5 346.8 621.8 347.7 621.7 C 347.6 622.3 348.7 622.1 348.8 622.6 C 349.0 622.5 349.3 622.4 349.4 622.3 C 349.1 622.2 348.8 622.2 349.0 622.0 C 349.2 622.1 349.5 622.1 349.7 622.2 C 350.1 622.5 348.9 622.9 350.6 623.2 C 350.5 622.8 351.2 622.9 351.8 622.8 C 351.8 622.5 351.1 622.7 351.0 622.5 C 351.7 622.4 352.2 622.8 352.5 623.0 C 353.6 623.1 354.8 623.5 356.3 623.6 C 356.6 623.9 355.0 623.6 356.0 624.0 C 356.4 624.0 356.2 623.8 356.8 623.9 C 356.0 625.1 360.8 624.8 361.0 625.4 C 361.2 625.2 362.5 625.5 362.4 625.1 C 361.5 625.3 361.0 624.8 360.6 624.5 C 359.7 624.6 361.3 625.0 360.5 624.9 C 360.5 624.7 359.3 624.7 359.5 624.5 C 360.6 624.6 358.9 624.1 359.8 623.9 C 360.9 624.2 363.1 624.1 362.5 624.4 C 362.6 624.3 362.1 624.2 362.0 624.3 C 363.2 624.7 364.0 624.5 364.5 624.4 C 365.0 624.7 367.3 624.5 366.7 624.6 C 366.8 624.9 365.4 624.4 365.6 624.7 C 367.8 625.1 367.9 624.8 369.4 625.2 C 368.9 624.8 371.0 624.8 370.8 624.9 C 370.8 625.2 371.3 625.5 372.2 625.2 C 372.0 625.5 372.5 625.7 373.0 625.8 C 373.2 625.5 372.6 625.5 372.7 625.3 C 373.2 625.3 373.7 625.3 374.1 625.4 C 374.2 625.5 374.1 625.6 374.4 625.7 C 374.9 625.5 376.8 625.3 376.6 625.5 C 375.8 625.9 377.9 625.9 376.6 626.1 C 376.9 626.1 377.0 626.2 377.4 626.2 C 377.4 626.1 377.4 626.0 377.4 625.8 C 378.5 625.8 377.9 626.3 378.8 626.4 C 378.9 626.2 379.3 626.2 379.4 626.1 C 379.0 626.1 379.0 626.2 378.5 626.2 C 379.1 625.7 377.6 625.9 377.7 625.5 C 378.7 625.5 378.7 625.8 379.1 626.0 C 380.3 625.8 379.7 625.9 381.0 626.0 C 381.0 625.9 380.7 625.9 380.8 625.7 C 382.3 625.9 382.2 626.5 383.2 626.3 C 383.0 626.3 382.0 626.5 382.7 626.6 C 383.4 626.4 383.7 626.1 384.6 626.1 C 384.7 626.2 384.6 626.3 384.9 626.4 C 385.3 626.2 385.3 626.0 385.7 625.9 C 385.8 626.0 386.3 625.9 386.5 625.8 C 386.9 626.1 386.4 626.2 386.8 626.2 C 387.6 626.2 388.0 625.5 388.7 625.6 C 388.7 626.0 389.4 625.8 390.1 625.7 C 390.2 626.1 391.6 626.0 392.5 626.0 C 392.3 625.7 393.3 625.8 393.0 625.5 C 392.6 625.5 392.3 625.4 392.2 625.3 C 393.3 625.2 393.6 625.8 394.4 625.3 C 394.8 625.5 395.3 625.6 396.0 625.7 C 396.0 625.5 394.7 625.4 395.4 625.3 C 395.5 625.4 395.7 625.3 396.0 625.3 C 395.9 625.6 396.5 625.6 396.8 625.8 C 397.4 625.5 398.7 625.8 398.1 625.5 C 399.1 625.3 398.5 625.9 399.2 625.8 C 398.8 625.4 400.0 625.3 399.4 625.1 C 400.4 624.9 400.4 625.4 400.0 625.6 C 400.9 625.6 401.1 625.3 401.5 625.5 C 401.1 625.2 402.4 624.8 401.7 625.1 C 401.6 625.5 402.6 625.1 402.8 625.3 C 402.4 625.1 402.9 625.0 402.2 625.0 C 402.9 624.8 403.9 624.6 404.5 624.8 C 405.3 624.5 406.1 624.3 405.8 624.7 C 406.6 624.5 406.3 624.6 407.1 624.5 C 407.0 624.4 406.8 624.4 406.8 624.3 C 407.8 624.1 407.6 624.4 409.0 624.1 C 408.9 624.5 409.8 624.3 410.1 624.5 C 409.5 624.6 409.1 624.6 408.6 624.6 C 408.5 624.8 409.0 624.8 408.6 624.9 C 408.6 624.8 408.4 624.8 408.1 624.8 C 409.1 624.9 407.1 625.5 407.7 625.1 C 407.7 625.1 407.7 625.2 407.9 625.1 C 407.7 624.9 407.7 625.0 407.8 624.6 C 407.4 624.8 407.0 624.5 406.8 624.8 C 406.9 625.0 407.3 624.8 407.4 624.9 C 406.3 625.3 407.0 624.6 406.1 624.9 C 406.0 625.2 406.4 625.2 406.7 625.4 C 405.9 625.5 405.2 625.6 404.9 625.5 C 404.2 625.7 405.0 625.7 404.5 625.9 C 404.2 625.9 404.2 625.6 403.6 625.7 C 403.1 625.9 404.0 625.9 403.4 626.0 C 402.8 625.9 403.8 625.5 402.8 625.6 C 403.1 626.0 402.0 625.6 402.1 625.9 C 402.6 625.8 402.7 626.2 402.4 626.0 C 401.1 625.7 400.3 626.9 399.0 626.4 C 399.0 626.5 398.8 626.5 398.8 626.6 C 399.7 626.7 401.1 626.6 401.4 627.0 C 402.2 626.8 402.1 626.5 402.2 626.4 C 403.1 626.6 403.0 626.7 402.6 627.2 C 401.1 627.5 400.4 627.3 399.4 627.3 C 398.9 627.6 399.4 627.4 399.7 627.6 C 396.5 627.6 399.0 628.3 397.9 628.3 C 397.9 628.1 397.6 628.1 397.3 628.1 C 397.3 628.2 396.8 628.2 396.8 628.3 C 397.0 628.3 397.1 628.4 397.1 628.5 C 396.3 628.7 396.6 628.3 396.5 628.1 C 397.1 628.1 397.5 628.0 397.5 627.8 C 396.8 628.1 396.1 627.8 395.7 628.2 C 394.9 627.8 396.0 627.3 395.6 627.0 C 395.7 626.8 395.1 627.8 394.6 628.0 C 393.6 628.0 393.6 628.4 392.7 628.4 C 392.4 628.1 393.6 628.2 393.5 628.0 C 393.2 628.0 393.2 627.9 392.9 627.9 C 392.3 628.0 392.3 628.2 391.8 628.4 C 391.6 628.1 391.4 628.3 391.0 628.4 C 390.4 628.3 391.4 628.1 390.7 628.1 C 390.1 628.1 389.6 628.5 389.4 628.5 C 389.3 628.4 389.4 628.2 389.1 628.2 C 388.3 628.4 388.1 628.4 389.1 628.6 C 388.2 628.6 387.9 628.7 388.0 629.0 C 389.3 629.0 389.6 628.9 390.2 629.3 C 390.5 629.0 390.9 629.2 391.4 629.3 C 391.0 628.8 391.9 629.2 392.2 628.9 C 391.8 628.9 391.5 628.9 391.3 628.8 C 392.7 628.7 392.7 628.8 393.8 628.2 C 393.8 628.4 393.9 628.5 394.0 628.5 C 393.7 628.7 392.7 628.7 392.7 628.9 C 393.5 629.2 393.7 628.6 394.6 629.0 C 395.0 628.7 393.9 628.7 394.6 628.6 C 395.0 628.8 395.4 628.9 396.0 629.0 C 396.6 628.9 396.9 628.7 397.3 628.5 C 397.4 628.7 397.5 628.8 397.9 628.7 C 397.9 628.6 397.4 628.5 397.9 628.4 C 399.3 628.6 400.3 628.8 401.7 628.5 C 401.2 628.4 400.0 628.2 400.6 628.2 C 401.2 628.3 402.0 627.8 402.7 628.0 C 402.9 628.1 401.9 628.0 402.2 628.5 C 402.8 628.4 403.2 628.4 403.5 628.4 C 403.5 628.2 404.2 628.2 404.0 627.9 C 403.5 628.0 403.4 628.4 403.2 628.3 C 403.5 627.4 405.2 628.2 406.1 628.1 C 406.7 627.9 405.6 627.9 406.3 627.7 C 406.7 627.5 407.1 628.1 406.4 628.4 C 405.9 628.3 405.8 628.7 405.6 628.4 C 405.4 628.5 405.1 628.5 405.1 628.6 C 405.5 628.5 405.5 628.7 405.7 628.8 C 405.2 628.8 405.2 629.4 404.7 629.2 C 405.0 629.1 405.1 629.0 405.2 628.9 C 403.8 629.2 403.3 629.0 402.5 629.0 C 403.0 629.1 402.5 629.1 402.6 629.4 C 403.2 629.2 404.4 629.2 403.6 629.4 C 403.1 629.1 402.9 630.1 402.4 629.8 C 402.7 629.7 402.6 629.5 402.8 629.4 C 402.3 629.5 402.3 629.2 401.7 629.3 C 400.1 629.9 398.6 629.3 395.8 630.2 C 394.8 630.3 396.7 630.0 396.6 629.7 C 396.3 629.7 396.3 629.7 396.1 629.7 C 396.1 630.0 395.6 629.7 395.3 630.0 C 395.3 629.7 394.0 630.1 393.3 629.9 C 393.3 630.0 393.4 630.2 393.1 630.2 C 391.0 629.9 387.3 630.6 385.8 630.3 C 385.8 630.5 385.1 630.5 384.9 630.7 C 384.0 630.6 384.4 630.4 383.0 630.7 C 382.2 630.7 383.1 630.5 383.2 630.4 C 381.1 630.5 379.2 630.2 377.8 630.5 C 377.1 630.5 377.8 630.2 376.4 630.1 C 376.4 630.6 374.2 629.8 373.8 630.3 C 373.0 630.3 371.5 629.6 372.1 630.0 C 370.9 630.0 371.8 629.6 371.3 629.6 C 370.5 629.6 371.5 630.4 370.7 630.3 C 370.8 630.0 370.1 630.1 369.6 629.7 C 370.2 629.8 370.6 629.8 370.7 629.6 C 370.2 629.8 370.2 629.5 369.3 629.5 C 368.6 629.6 366.7 629.7 366.2 629.2 C 366.1 629.3 366.3 629.4 366.4 629.5 C 365.9 629.5 365.2 629.1 365.3 629.5 C 364.0 629.4 363.5 629.0 362.7 629.2 C 362.2 629.2 363.0 628.9 361.4 628.7 C 361.3 629.0 358.5 628.5 357.7 628.2 C 357.7 628.6 357.6 628.1 357.2 628.1 C 357.1 628.2 357.2 628.3 356.9 628.3 C 356.8 628.2 356.6 628.2 356.3 628.2 C 356.6 627.8 355.3 628.2 355.3 627.8 C 355.5 627.8 355.5 627.6 355.3 627.5 C 355.2 627.9 354.1 627.1 354.2 627.4 C 354.4 627.6 355.2 627.6 354.9 627.9 C 353.8 627.8 354.4 627.5 353.6 627.3 C 353.7 627.4 354.1 627.6 353.6 627.6 C 352.8 627.4 353.5 627.5 353.1 627.2 C 352.7 627.2 351.9 627.3 351.7 627.2 C 351.7 627.2 351.5 627.0 351.4 627.0 C 350.1 626.6 346.9 626.2 345.7 625.4 C 345.5 625.5 345.2 625.5 345.3 625.7 C 344.5 625.3 344.6 625.5 343.8 625.1 C 343.8 625.2 343.7 625.4 343.7 625.5 C 342.6 625.4 343.7 625.1 343.0 624.9 C 342.7 625.6 342.7 624.6 342.0 624.4 C 341.9 624.5 341.6 624.5 341.7 624.7 C 340.7 624.4 340.9 624.0 340.0 623.9 C 340.2 624.0 340.0 625.0 339.9 625.2 C 339.7 625.0 339.5 624.9 339.2 624.7 C 339.7 624.5 339.8 623.4 338.5 623.3 C 339.2 623.5 339.4 623.7 339.2 623.9 C 338.3 623.6 338.0 623.3 337.3 623.0 C 337.0 623.3 337.6 623.5 337.3 623.8 C 337.1 623.7 337.0 623.7 337.0 623.9 C 336.2 623.5 336.2 623.3 335.3 623.2 C 335.4 623.0 335.6 623.0 335.8 623.3 C 335.9 623.0 335.9 622.8 336.5 623.0 C 336.5 623.2 336.1 623.4 336.8 623.5 C 336.9 623.3 336.9 623.2 337.0 623.0 C 336.5 622.8 335.3 622.2 335.1 622.3 C 335.3 622.5 335.7 622.7 335.4 622.9 C 334.5 622.5 334.4 622.1 333.7 621.6 C 332.4 621.2 330.2 620.2 330.3 620.8 C 329.6 620.3 329.9 620.4 329.2 620.1 C 329.3 620.5 328.4 619.9 328.4 620.1 C 329.2 620.4 329.0 620.4 329.8 620.7 C 329.7 620.8 329.5 620.9 329.2 620.8 C 329.2 620.6 328.9 620.5 328.4 620.2 C 328.4 620.3 328.8 620.8 328.2 620.6 C 328.2 620.5 328.1 620.4 327.8 620.3 C 327.9 620.2 328.0 620.0 328.0 619.9 C 328.4 619.9 328.8 620.0 329.0 620.0 C 328.8 619.9 328.8 619.8 328.6 619.7 C 328.4 619.8 327.4 619.1 327.2 619.3 C 327.8 619.5 328.1 619.9 327.5 619.6 C 327.4 619.5 326.5 619.0 326.1 618.9 C 327.3 619.7 326.7 619.4 327.3 620.1 C 325.8 619.4 326.2 619.2 324.6 618.5 C 324.6 618.2 324.7 618.0 325.2 618.1 C 324.5 617.1 322.0 616.3 321.4 615.8 C 321.8 616.2 322.6 616.1 321.9 615.7 C 321.8 615.8 321.3 615.4 321.2 615.5 C 320.6 615.8 321.1 616.4 321.5 617.0 C 320.9 616.7 320.7 616.7 320.2 616.4 C 320.1 616.1 320.9 616.0 320.3 615.6 C 319.9 615.9 319.1 614.8 318.6 614.9 C 319.1 615.2 319.3 615.6 318.8 615.3 C 319.0 615.2 318.0 614.6 318.1 614.4 C 318.9 614.9 319.3 614.8 319.7 615.1 C 319.2 614.7 320.3 615.2 319.4 614.5 C 318.8 614.3 318.4 614.4 317.4 613.7 C 317.1 613.3 317.6 613.3 317.2 613.0 C 317.1 613.3 316.1 612.5 316.9 612.8 C 316.5 612.5 316.4 612.4 316.2 612.1 C 316.5 612.8 314.0 611.1 314.2 611.5 C 314.5 611.2 314.7 610.9 314.6 610.7 C 314.0 610.5 313.7 609.9 312.8 608.8 C 312.5 609.1 312.6 608.6 312.2 608.2 C 311.9 608.2 312.2 608.7 311.9 608.4 C 311.6 607.7 311.6 607.7 311.6 607.5 C 311.4 607.1 311.2 606.8 311.1 606.5 C 311.0 606.6 311.0 606.8 311.0 606.9 C 310.3 605.2 309.5 604.5 309.1 603.0 C 309.1 603.7 309.6 603.6 309.4 603.2 C 309.3 602.9 309.1 602.7 309.0 602.5 C 308.8 602.9 308.9 602.7 308.7 602.0 C 308.4 601.4 308.3 602.4 308.2 601.9 C 308.2 601.3 308.4 601.6 308.4 601.3 C 308.4 601.0 308.3 600.7 308.3 600.5 C 308.2 601.0 308.0 600.5 307.8 600.0 C 308.2 600.3 308.2 600.1 308.0 599.2 C 308.2 599.0 308.3 599.5 308.3 599.1 C 308.4 598.9 307.9 598.2 308.2 597.6 C 308.2 597.8 308.3 597.9 308.4 597.8 C 308.2 597.1 308.7 596.6 308.9 596.1 C 308.5 596.6 308.3 596.3 308.1 596.5 C 308.5 595.9 308.3 595.1 308.7 594.7 C 308.4 595.6 309.3 594.9 309.5 594.4 C 309.2 594.2 309.0 595.1 308.7 594.7 C 308.6 594.4 309.2 593.8 309.0 593.4 C 308.8 593.4 309.0 593.8 308.8 593.9 C 308.9 593.4 308.6 594.0 308.7 593.6 C 309.1 593.4 308.7 593.0 308.8 592.8 C 309.1 592.5 309.8 592.0 309.7 591.7 C 309.6 591.6 309.4 592.1 309.3 592.1 C 309.7 590.6 310.3 590.5 310.8 589.2 C 311.1 589.1 311.3 589.0 311.6 588.7 C 311.4 588.6 311.5 588.3 311.7 588.1 C 312.2 587.7 312.7 587.3 313.3 586.9 C 313.4 587.1 313.3 587.5 314.0 586.8 C 314.0 586.6 313.6 586.9 313.9 586.6 C 313.9 586.7 314.1 586.5 314.1 586.4 C 314.1 586.4 314.0 586.3 314.0 586.3 C 313.7 586.5 313.5 586.7 313.3 586.9 C 313.2 586.7 313.1 586.7 312.9 586.8 C 313.7 585.8 314.0 586.3 314.5 585.5 C 314.9 585.8 315.2 585.7 314.9 586.4 C 315.4 585.9 315.7 585.4 315.7 585.1 C 315.0 585.7 315.0 585.2 314.7 585.3 C 315.1 584.9 315.0 584.8 315.2 584.5 C 315.9 584.3 315.0 585.4 316.1 584.6 C 315.0 584.9 316.6 583.9 317.2 583.6 C 317.0 583.5 316.8 583.6 317.0 583.3 C 318.5 582.1 318.9 583.1 319.7 582.0 C 319.7 582.3 320.1 582.0 320.4 582.0 C 319.6 582.5 319.4 582.7 319.1 583.0 C 319.2 583.0 319.5 582.9 319.7 582.8 C 319.6 582.7 319.8 582.5 320.3 582.4 C 320.4 582.1 320.1 581.7 320.7 581.1 C 320.8 581.2 320.8 581.4 321.2 581.2 C 321.4 580.8 321.1 581.8 322.6 581.0 C 322.2 581.0 322.0 580.9 322.0 580.7 C 322.7 580.2 322.6 580.4 323.6 579.8 C 324.2 580.1 323.1 580.7 323.0 581.1 C 323.6 580.7 324.1 580.2 324.9 580.0 C 324.3 580.1 324.7 579.6 325.4 579.3 C 326.0 579.1 325.5 579.8 326.2 579.5 C 326.8 579.2 327.0 578.8 326.4 578.9 C 327.8 578.5 327.3 578.3 328.5 577.9 C 328.6 578.1 328.3 578.2 327.8 578.3 C 327.9 578.3 327.8 578.5 328.3 578.4 C 328.9 577.9 330.6 577.3 331.1 577.0 C 332.3 577.2 333.3 576.2 334.5 576.1 C 334.1 576.5 335.9 575.8 336.5 576.0 C 336.8 575.8 337.7 575.0 337.4 575.3 C 337.6 575.7 338.2 575.4 338.8 575.4 C 338.7 575.3 338.7 575.2 338.7 575.1 C 339.8 574.8 340.1 575.1 340.5 575.3 C 341.9 574.8 343.5 575.0 345.2 574.4 C 345.7 574.7 346.1 574.5 347.1 574.6 C 347.1 574.3 347.9 574.2 348.7 574.1 C 348.5 573.9 349.2 573.9 349.2 573.7 C 348.5 573.7 348.7 573.3 348.3 573.3 C 349.3 573.5 349.7 572.8 350.5 573.0 C 349.6 573.3 349.3 573.7 349.2 574.2 C 350.3 574.0 350.9 574.0 351.2 574.3 C 351.2 574.0 351.1 573.9 350.8 573.8 C 351.2 573.8 351.6 573.7 351.9 573.7 C 352.0 573.8 351.5 574.0 351.9 574.0 C 352.2 573.9 352.5 573.7 352.7 573.6 C 353.1 573.9 352.3 573.9 352.2 574.1 C 353.7 574.1 353.0 573.5 353.8 573.3 C 354.0 573.5 354.0 573.8 354.7 573.9 C 354.9 573.6 355.0 573.4 355.8 573.3 C 356.2 573.3 355.8 573.8 356.3 573.8 C 356.4 573.6 356.6 573.7 356.9 573.7 C 356.9 573.5 357.1 573.4 357.4 573.4 C 357.5 573.5 358.0 573.4 358.3 573.3 C 358.3 573.5 359.2 573.8 359.4 573.6 C 359.4 573.5 358.9 573.5 358.8 573.4 C 359.5 573.4 359.9 573.4 360.2 573.3 C 360.4 574.0 361.5 573.4 362.7 573.7 C 363.5 573.5 362.6 573.2 363.6 573.0 C 364.2 573.2 363.5 573.3 363.6 573.6 C 363.8 573.6 364.7 573.8 364.7 573.6 C 364.7 573.5 364.2 573.5 364.2 573.4 C 364.9 573.1 364.9 573.5 365.3 573.6 C 365.2 573.3 365.7 573.3 365.9 573.1 C 367.9 572.9 367.9 573.5 368.7 573.7 C 368.7 573.6 369.2 573.6 369.3 573.5 C 368.7 573.6 367.9 573.3 368.7 573.3 C 368.6 573.5 369.8 573.3 369.8 573.3 C 369.7 573.1 369.0 573.1 369.3 572.8 C 370.4 572.8 369.9 573.3 370.7 573.1 C 370.8 573.3 370.3 573.3 370.1 573.4 C 370.5 573.4 370.9 573.4 371.0 573.5 C 370.6 573.6 370.6 573.8 370.4 574.0 C 370.9 573.7 371.9 574.0 371.3 573.6 C 372.4 573.7 373.5 573.6 372.7 573.3 C 373.6 573.2 373.1 573.6 373.9 573.4 C 373.7 573.8 373.5 573.9 374.1 574.2 C 374.2 574.0 374.7 574.0 374.7 573.8 C 376.0 573.8 376.4 574.2 376.9 574.5 C 376.5 574.0 377.1 574.4 377.8 574.2 C 378.2 574.3 377.8 574.7 378.9 574.7 C 377.7 574.1 380.3 574.7 379.8 574.1 C 381.2 574.5 381.2 574.5 382.6 574.7 C 382.5 574.9 382.1 575.0 381.5 575.0 C 381.9 574.8 380.2 574.6 380.3 574.8 C 380.3 574.9 380.3 574.9 380.3 575.0 C 381.4 575.0 382.1 575.2 382.5 575.4 C 382.8 575.2 383.3 575.2 383.2 574.8 C 384.1 575.3 385.3 574.9 385.7 575.3 C 385.3 575.3 385.0 575.2 385.1 575.4 C 385.5 575.4 386.0 575.4 386.0 575.1 C 385.2 574.9 385.0 574.9 384.6 575.0 C 385.0 574.8 383.8 574.5 384.6 574.6 C 384.6 575.0 386.4 574.5 385.8 574.8 C 384.8 574.9 386.7 575.2 386.8 575.4 C 386.8 575.4 386.8 575.4 386.8 575.4 Z M 402.0 629.2 C 402.8 629.0 401.8 628.8 401.2 628.9 C 401.4 629.0 401.5 629.1 401.5 629.3 C 401.7 629.2 401.9 629.1 402.0 629.2 C 402.0 629.2 402.0 629.2 402.0 629.2 Z M 393.0 625.7 C 392.8 626.1 394.1 625.7 394.7 625.8 C 394.5 625.7 394.3 625.6 394.7 625.6 C 394.1 625.3 393.9 625.9 393.0 625.7 C 393.0 625.7 393.0 625.7 393.0 625.7 Z M 362.4 625.6 C 362.6 625.6 363.1 625.6 363.2 625.7 C 363.5 625.7 363.4 625.6 363.5 625.5 C 364.2 625.5 363.3 625.9 364.3 625.9 C 364.8 625.3 362.7 624.9 362.4 625.6 C 362.4 625.6 362.4 625.6 362.4 625.6 Z M 375.8 578.8 C 376.1 579.0 375.2 579.2 375.4 579.5 C 377.0 579.4 375.8 578.9 377.9 579.2 C 377.8 579.1 377.7 579.0 377.7 578.9 C 376.7 578.9 376.6 579.1 376.9 578.6 C 376.4 578.6 376.3 579.2 375.8 578.8 C 375.8 578.8 375.8 578.8 375.8 578.8 Z M 395.0 582.7 C 394.9 582.6 394.8 582.4 394.8 582.3 C 394.2 582.3 394.3 582.4 393.5 582.2 C 393.5 582.6 394.3 582.7 395.0 582.7 C 395.0 582.7 395.0 582.7 395.0 582.7 Z M 433.2 604.4 C 433.2 604.5 433.2 604.6 433.2 604.7 C 433.4 604.6 433.9 604.8 433.7 604.3 C 433.6 604.3 433.6 604.4 433.6 604.5 C 433.5 604.4 433.5 604.2 433.3 604.3 C 433.3 604.4 433.3 604.4 433.2 604.4 C 433.2 604.4 433.2 604.4 433.2 604.4 Z M 427.5 617.1 C 428.3 616.2 425.6 617.0 427.5 617.1 C 427.5 617.1 427.5 617.1 427.5 617.1 C 427.5 617.1 427.5 617.1 427.5 617.1 Z M 431.4 618.7 C 431.5 618.8 431.6 618.6 431.6 618.6 C 432.5 618.1 431.8 618.7 432.3 618.5 C 432.8 617.9 431.7 618.4 432.4 617.6 C 432.1 617.6 431.8 618.4 431.4 618.7 C 431.4 618.7 431.4 618.7 431.4 618.7 Z M 318.6 582.9 C 317.9 583.4 317.9 583.8 317.9 584.1 C 318.4 583.8 318.9 583.6 319.1 583.6 C 319.9 582.9 318.4 583.8 318.2 583.9 C 318.1 583.6 318.8 583.1 318.6 582.9 C 318.6 582.9 318.6 582.9 318.6 582.9 Z M 316.4 584.5 C 316.2 584.9 315.8 585.3 316.0 585.5 C 316.3 585.1 316.5 585.2 316.5 585.3 C 316.8 584.8 316.2 585.0 316.4 584.5 C 316.4 584.5 316.4 584.5 316.4 584.5 Z M 321.1 581.9 C 320.7 582.1 321.0 582.3 321.0 582.4 C 321.5 582.1 321.7 582.2 322.2 581.9 C 322.2 581.8 322.1 581.7 322.1 581.6 C 321.6 581.8 321.6 582.0 321.2 582.2 C 321.2 582.1 321.1 582.0 321.1 581.9 C 321.1 581.9 321.1 581.9 321.1 581.9 Z M 314.6 586.5 C 313.4 587.5 313.4 588.3 313.2 589.3 C 313.7 588.5 313.9 587.4 314.6 587.0 C 315.2 586.3 314.3 587.1 314.2 587.0 C 314.2 586.9 314.4 586.7 314.6 586.5 C 314.6 586.5 314.6 586.5 314.6 586.5 Z M 308.9 596.8 C 308.6 597.1 309.1 597.6 309.0 598.4 C 309.1 598.2 309.2 598.1 309.3 598.1 C 309.4 597.0 308.8 597.6 308.9 596.8 C 308.9 596.8 308.9 596.8 308.9 596.8 Z M 309.9 603.0 C 310.1 603.6 309.9 602.6 310.3 602.9 C 310.0 602.2 309.8 601.4 309.5 601.5 C 309.9 602.2 310.0 602.4 309.9 603.0 C 309.9 603.0 309.9 603.0 309.9 603.0 Z M 312.1 607.2 C 312.7 607.7 312.3 606.7 312.7 606.8 C 312.5 606.5 312.4 606.7 312.3 606.7 C 312.2 606.5 312.1 606.3 311.9 606.0 C 311.9 606.3 312.5 607.1 312.1 607.2 C 312.1 607.2 312.1 607.2 312.1 607.2 Z M 339.7 576.2 C 339.3 576.4 339.5 576.7 338.5 576.8 C 339.9 576.5 339.3 577.6 341.1 577.1 C 340.8 577.0 341.0 576.8 341.1 577.0 C 341.8 576.6 340.4 576.9 341.0 576.5 C 340.5 576.6 340.9 576.9 340.4 577.0 C 339.8 576.8 339.4 576.7 339.7 576.2 C 339.7 576.2 339.7 576.2 339.7 576.2 Z M 341.2 577.4 C 341.7 577.3 341.6 576.8 341.9 577.0 C 342.2 577.0 342.1 576.9 342.1 576.8 C 341.9 576.8 341.9 576.8 341.9 576.7 C 341.4 576.9 341.0 577.1 341.2 577.4 C 341.2 577.4 341.2 577.4 341.2 577.4 Z M 336.6 578.4 C 337.3 578.0 337.6 578.2 338.0 577.8 C 338.3 578.2 338.5 577.5 339.0 577.8 C 339.8 577.5 339.2 577.5 338.9 577.4 C 339.7 577.1 339.2 577.7 339.9 577.4 C 340.0 577.0 339.0 577.3 339.1 577.0 C 338.5 577.1 338.5 577.3 338.1 577.5 C 337.8 577.5 337.9 577.3 337.8 577.2 C 337.2 577.5 337.2 577.2 336.6 577.4 C 336.5 577.7 336.8 577.7 337.4 577.5 C 336.8 577.8 336.5 578.1 335.8 578.1 C 336.2 577.7 333.8 578.2 334.1 578.7 C 334.8 578.6 334.5 578.3 334.8 578.2 C 335.7 578.2 336.2 578.1 336.6 578.4 C 336.6 578.4 336.6 578.4 336.6 578.4 Z M 321.9 582.6 C 321.6 582.7 321.3 582.8 321.0 583.0 C 320.8 582.8 321.3 582.6 320.8 582.7 C 320.1 583.0 320.1 583.1 319.7 583.4 C 320.0 583.4 321.4 583.0 320.8 583.4 C 321.1 583.5 321.5 583.3 322.0 583.0 C 321.2 583.0 322.9 582.5 323.5 582.3 C 323.3 581.9 324.7 581.8 325.0 581.4 C 324.5 581.3 323.4 582.1 322.8 582.4 C 323.1 582.2 321.1 582.5 321.9 582.6 C 321.9 582.6 321.9 582.6 321.9 582.6 Z M 343.2 576.8 C 343.3 576.7 343.9 576.5 343.4 576.6 C 343.6 576.4 344.1 576.5 343.9 576.1 C 344.1 576.0 344.4 576.0 344.6 576.0 C 344.6 576.1 343.8 576.2 344.2 576.4 C 344.7 576.2 344.5 576.4 345.2 576.3 C 344.9 576.6 345.3 576.6 345.1 577.0 C 345.2 576.8 345.9 576.7 345.8 576.5 C 346.8 576.4 345.5 576.9 346.9 576.7 C 346.9 577.0 345.9 577.1 345.6 577.0 C 345.5 577.3 347.2 576.9 348.2 576.9 C 347.3 576.7 347.9 576.4 348.4 576.1 C 348.7 576.1 348.4 576.3 348.9 576.4 C 349.4 576.4 349.6 576.1 349.7 576.3 C 350.1 576.2 349.9 576.0 349.9 575.9 C 350.6 575.8 350.2 576.3 351.1 576.2 C 350.3 575.8 351.1 575.6 352.3 575.6 C 352.3 575.5 351.9 575.5 351.8 575.4 C 352.0 575.1 352.7 575.5 352.9 575.6 C 353.3 575.5 353.0 575.3 352.6 575.4 C 352.9 575.3 353.1 575.2 353.4 575.0 C 352.1 575.1 349.9 575.4 347.5 575.3 C 348.0 575.4 347.4 575.6 346.7 575.6 C 346.6 575.4 346.9 575.3 347.2 575.3 C 346.3 575.0 346.5 575.8 345.1 575.8 C 344.4 575.8 345.9 575.4 345.1 575.4 C 344.6 575.5 344.3 575.8 344.1 575.5 C 343.2 575.8 343.1 576.2 341.8 576.4 C 342.6 576.5 343.0 577.1 343.7 576.8 C 343.7 576.7 343.4 576.8 343.2 576.8 C 343.2 576.8 343.2 576.8 343.2 576.8 Z M 316.7 585.4 C 316.2 585.7 316.2 586.0 316.0 586.0 C 315.4 586.6 316.3 586.2 316.5 586.1 C 316.7 585.8 316.7 585.6 316.7 585.4 C 316.7 585.4 316.7 585.4 316.7 585.4 Z M 365.7 628.6 C 366.7 628.8 366.5 628.4 367.4 628.5 C 366.7 628.4 366.6 628.1 365.5 628.0 C 365.4 628.3 365.3 628.5 365.7 628.6 C 365.7 628.6 365.7 628.6 365.7 628.6 Z M 319.3 583.9 C 319.7 583.2 318.7 584.7 318.6 584.5 C 317.9 585.1 319.3 584.2 318.8 584.9 C 319.3 584.3 319.8 584.3 320.6 583.7 C 320.5 583.5 319.8 583.9 319.2 584.3 C 319.0 584.2 319.3 584.0 319.3 583.9 C 319.3 583.9 319.3 583.9 319.3 583.9 Z M 355.0 626.2 C 354.2 626.3 355.5 626.9 355.9 627.1 C 356.0 626.7 355.8 626.7 355.0 626.2 C 355.0 626.2 355.0 626.2 355.0 626.2 Z M 373.1 628.8 C 373.5 628.5 371.8 628.7 372.2 628.3 C 371.7 628.3 371.7 628.4 371.6 628.5 C 371.4 628.4 370.6 628.4 370.8 628.1 C 370.7 627.9 372.1 628.3 371.7 627.9 C 372.2 627.9 372.2 628.0 372.5 628.1 C 371.7 628.0 372.1 628.3 373.1 628.5 C 373.1 628.2 372.6 628.3 373.1 628.1 C 373.2 628.2 373.7 628.5 373.6 628.9 C 374.5 629.0 374.0 628.4 375.0 628.5 C 375.0 628.3 374.3 628.3 373.9 628.2 C 374.1 627.8 375.0 628.5 374.8 628.0 C 375.0 628.3 375.6 628.4 375.6 628.8 C 374.8 628.8 374.3 629.0 373.6 629.1 C 374.2 629.4 375.1 628.7 376.2 629.1 C 376.1 628.8 376.7 628.9 376.5 628.6 C 377.3 628.7 376.9 629.1 376.7 629.1 C 376.9 629.3 378.6 629.2 378.5 629.0 C 378.6 629.2 380.5 629.2 380.4 628.8 C 381.0 629.1 381.9 628.6 382.1 629.1 C 382.4 628.9 383.1 628.9 383.8 629.0 C 384.0 628.6 382.8 628.8 382.7 628.6 C 382.5 628.3 384.0 628.6 383.8 628.4 C 383.8 628.3 383.8 628.2 383.8 628.2 C 383.2 628.3 382.7 628.4 382.1 628.5 C 381.7 628.4 382.2 628.3 382.1 628.2 C 381.7 628.3 379.9 628.7 379.9 628.1 C 378.7 628.2 377.8 628.1 377.3 628.3 C 376.6 628.3 377.7 628.2 377.3 627.9 C 375.2 628.3 372.7 627.6 370.9 627.9 C 370.5 627.9 370.6 627.7 370.6 627.5 C 368.2 627.5 370.2 628.1 368.3 627.8 C 368.3 627.5 369.2 627.7 369.2 627.4 C 368.5 627.3 368.4 627.5 367.5 627.3 C 367.5 627.5 367.5 627.6 367.5 627.7 C 366.7 627.6 367.1 627.3 366.7 627.1 C 365.8 627.1 366.0 627.3 365.6 626.9 C 364.7 627.0 363.9 627.0 363.0 626.7 C 362.5 626.8 363.5 627.4 364.4 627.6 C 364.3 627.7 364.1 627.6 364.0 627.7 C 363.0 627.4 363.0 626.8 361.4 626.5 C 362.5 627.0 360.8 626.5 360.6 626.3 C 359.9 626.2 360.4 626.7 360.8 626.7 C 360.7 626.8 360.3 626.6 360.3 626.5 C 360.1 627.0 361.6 627.4 363.2 627.4 C 362.4 627.9 364.4 627.5 363.5 628.1 C 364.8 628.1 363.7 627.6 365.2 627.9 C 365.0 627.7 364.8 627.6 364.7 627.4 C 365.8 627.5 365.4 627.9 366.6 627.9 C 366.8 627.7 366.0 627.7 366.1 627.5 C 367.3 627.9 367.7 628.0 368.5 628.4 C 368.7 628.3 368.5 627.9 370.0 628.3 C 370.0 628.3 370.0 628.4 370.0 628.5 C 369.3 628.3 369.1 628.9 370.8 629.0 C 370.9 628.8 370.4 628.8 369.9 628.8 C 370.1 628.6 370.7 628.6 371.4 628.6 C 371.7 628.6 372.1 628.8 371.6 628.8 C 371.9 629.1 372.2 628.6 373.1 628.8 C 373.1 628.8 373.1 628.8 373.1 628.8 Z M 309.7 595.7 C 309.7 595.9 309.8 596.1 309.7 596.5 C 310.0 596.6 310.0 596.0 310.2 596.0 C 310.3 595.6 309.8 595.9 309.7 595.7 C 309.7 595.7 309.7 595.7 309.7 595.7 Z M 312.8 589.7 C 312.6 589.6 312.7 590.1 312.2 590.5 C 312.4 590.8 312.7 590.2 312.8 590.3 C 313.3 589.8 312.4 590.2 312.8 589.7 C 312.8 589.7 312.8 589.7 312.8 589.7 Z M 311.2 592.2 C 310.8 592.3 311.2 592.5 311.4 592.0 C 311.6 592.1 311.6 592.3 311.5 592.6 C 312.0 592.5 311.6 592.0 312.0 591.5 C 311.8 591.6 311.5 591.8 311.2 592.2 C 311.2 592.2 311.2 592.2 311.2 592.2 Z M 310.8 593.0 C 310.8 593.5 310.5 593.6 310.4 594.2 C 310.7 594.1 311.1 592.9 311.1 592.6 C 311.0 592.3 310.4 593.7 310.8 593.0 C 310.8 593.0 310.8 593.0 310.8 593.0 Z M 344.5 623.5 C 344.8 623.5 344.7 623.4 344.8 623.3 C 345.5 624.0 346.6 624.2 345.6 624.4 C 346.5 624.3 347.2 624.9 347.9 625.1 C 348.5 625.3 348.3 624.9 348.8 625.0 C 349.5 625.3 348.3 625.1 348.5 625.3 C 348.6 625.5 348.9 625.1 349.8 625.5 C 349.7 624.9 350.6 625.7 350.4 625.1 C 350.9 625.4 351.1 625.3 351.8 625.4 C 351.7 625.2 351.1 625.1 351.1 624.8 C 350.8 624.5 350.6 625.0 351.3 625.1 C 350.8 625.3 350.0 624.7 349.7 624.8 C 349.4 624.5 350.5 625.0 350.3 624.6 C 350.0 624.6 349.8 624.6 349.7 624.6 C 349.3 624.5 349.1 624.3 349.0 624.2 C 349.2 624.2 349.2 624.3 349.2 624.3 C 349.7 624.4 348.9 623.7 349.9 624.0 C 349.7 623.8 349.3 623.7 349.4 623.5 C 349.1 623.3 349.2 624.4 348.2 623.8 C 347.5 623.9 349.8 624.5 349.1 624.9 C 347.6 624.5 348.6 624.2 347.4 623.9 C 347.4 624.0 347.4 624.2 347.1 624.1 C 347.1 624.2 347.5 624.3 347.8 624.4 C 347.8 624.5 347.3 624.4 347.0 624.3 C 347.1 624.4 347.3 624.5 347.3 624.6 C 346.3 624.2 346.5 623.6 347.5 623.7 C 347.5 623.4 346.3 623.2 345.9 623.2 C 346.2 623.5 345.9 623.4 346.1 623.8 C 346.3 623.8 346.3 623.7 346.4 623.6 C 346.8 623.8 346.4 623.8 346.3 623.9 C 345.8 623.7 345.9 623.5 345.3 623.6 C 345.5 623.5 345.6 623.5 345.6 623.3 C 345.4 623.3 345.1 623.2 344.9 623.1 C 344.8 623.3 344.5 623.3 344.5 623.5 C 344.5 623.5 344.5 623.5 344.5 623.5 Z M 358.2 627.2 C 359.1 627.4 358.6 627.1 358.2 627.0 C 358.4 626.9 358.7 626.9 359.1 626.9 C 358.8 626.8 358.6 626.8 357.7 626.6 C 358.5 626.3 357.9 625.7 356.5 625.5 C 356.0 626.0 357.1 626.3 356.6 626.5 C 357.6 626.5 358.1 626.8 358.2 627.2 C 358.2 627.2 358.2 627.2 358.2 627.2 Z M 316.5 586.2 C 316.1 586.5 315.6 586.9 315.3 587.2 C 315.5 587.4 316.9 586.5 316.5 586.2 C 316.5 586.2 316.5 586.2 316.5 586.2 Z M 354.5 575.3 C 354.7 575.3 354.8 575.4 354.8 575.4 C 355.6 575.3 354.4 575.2 354.8 574.9 C 354.5 575.0 354.2 575.0 353.9 575.0 C 353.9 575.1 355.1 575.2 354.2 575.4 C 354.3 575.5 354.5 575.4 354.5 575.3 C 354.5 575.3 354.5 575.3 354.5 575.3 Z M 310.2 595.3 C 310.2 595.8 310.7 595.6 310.4 596.5 C 310.7 596.2 310.6 596.0 310.7 595.5 C 310.5 595.4 310.4 595.4 310.2 595.3 C 310.2 595.3 310.2 595.3 310.2 595.3 Z M 340.6 622.8 C 341.1 623.3 341.5 622.7 342.6 623.2 C 342.1 622.7 341.3 622.9 340.6 622.8 C 340.6 622.8 340.6 622.8 340.6 622.8 Z M 386.0 628.4 C 385.6 628.4 386.2 628.3 385.5 628.2 C 385.1 628.3 384.9 628.4 384.4 628.5 C 385.1 628.8 386.6 628.4 387.1 628.9 C 387.8 628.9 387.8 628.5 388.0 628.3 C 387.6 628.3 387.5 628.3 387.4 628.2 C 387.0 628.7 386.5 628.0 386.0 628.4 C 386.0 628.4 386.0 628.4 386.0 628.4 Z M 354.7 626.1 C 354.3 625.8 355.1 625.9 355.3 625.7 C 355.7 625.8 355.5 626.0 355.6 626.1 C 356.0 626.2 356.2 626.1 356.2 625.8 C 355.3 625.6 354.2 625.4 354.9 625.1 C 354.1 624.9 354.5 625.4 354.0 625.3 C 353.6 625.0 354.0 625.1 354.1 624.8 C 353.9 624.8 353.2 625.0 353.3 624.6 C 352.0 624.7 352.4 625.4 353.3 626.0 C 354.2 625.9 353.3 625.6 354.7 626.1 C 354.7 626.1 354.7 626.1 354.7 626.1 Z M 322.0 614.1 C 322.1 614.2 322.6 614.5 322.5 614.6 C 323.3 614.8 324.0 614.9 324.8 614.9 C 324.8 614.6 323.8 614.4 324.1 614.8 C 323.9 614.4 323.4 614.0 323.2 613.6 C 322.6 613.2 322.1 613.6 322.3 613.2 C 321.6 613.0 321.9 613.2 321.1 612.5 C 322.3 613.7 320.6 612.3 320.3 612.6 C 321.0 613.1 321.8 613.6 321.8 613.2 C 322.3 613.7 323.0 614.2 323.0 614.6 C 322.9 614.6 322.4 614.3 322.0 614.1 C 322.0 614.1 322.0 614.1 322.0 614.1 Z M 326.2 615.5 C 325.9 615.4 325.6 615.3 325.2 615.0 C 325.4 615.3 325.4 615.4 325.3 615.6 C 326.1 616.0 326.4 615.9 326.6 616.3 C 327.3 616.8 326.5 615.8 327.7 616.6 C 327.7 616.4 327.0 616.2 327.1 616.1 C 326.9 616.2 326.4 616.0 326.2 615.5 C 326.2 615.5 326.2 615.5 326.2 615.5 Z M 333.7 619.6 C 334.3 619.8 333.5 619.3 333.8 619.2 C 333.7 619.2 332.6 618.7 332.8 618.5 C 332.7 618.0 331.2 618.3 331.5 617.8 C 331.3 617.7 331.3 617.9 331.2 618.0 C 332.0 618.3 331.9 618.5 331.3 618.3 C 331.4 618.5 331.9 618.6 332.2 618.8 C 332.3 618.6 332.0 618.4 332.1 618.3 C 332.7 618.7 333.1 619.2 333.7 619.6 C 333.7 619.6 333.7 619.6 333.7 619.6 Z M 384.9 576.8 C 384.3 576.7 383.8 576.7 383.5 576.7 C 383.7 576.9 384.0 576.8 384.3 576.8 C 384.4 577.0 384.1 577.0 383.8 576.9 C 384.1 577.2 385.2 577.1 384.9 576.8 C 384.9 576.8 384.9 576.8 384.9 576.8 Z M 379.3 576.2 C 378.7 576.1 378.3 576.1 378.2 576.3 C 378.4 576.5 378.4 576.2 378.8 576.2 C 379.0 576.3 379.2 576.5 379.3 576.6 C 379.6 576.6 379.5 576.5 379.6 576.4 C 379.8 576.4 379.8 576.5 379.9 576.5 C 380.7 576.3 379.0 576.5 379.3 576.2 C 379.3 576.2 379.3 576.2 379.3 576.2 Z M 330.0 617.8 C 329.9 617.6 329.8 617.4 329.3 617.1 C 329.3 617.4 328.9 617.2 328.4 616.9 C 329.1 617.5 329.3 617.5 330.0 617.8 C 330.0 617.8 330.0 617.8 330.0 617.8 Z M 345.1 577.2 C 344.3 577.1 344.4 577.5 343.3 577.5 C 343.3 577.6 343.3 577.7 343.3 577.8 C 344.0 577.4 344.3 577.6 345.1 577.2 C 345.1 577.2 345.1 577.2 345.1 577.2 Z M 436.3 611.4 C 436.2 611.2 435.9 611.9 435.7 611.8 C 436.0 612.2 435.2 612.0 434.5 613.1 C 434.4 613.1 434.4 613.0 434.5 612.8 C 433.7 613.6 434.9 612.8 435.2 612.8 C 435.7 612.1 436.0 612.1 436.3 611.4 C 436.3 611.4 436.3 611.4 436.3 611.4 Z M 377.7 627.4 C 377.6 627.5 377.8 627.5 377.9 627.6 C 378.1 627.6 378.3 627.6 378.5 627.6 C 378.4 627.2 377.5 627.0 378.2 626.6 C 378.0 626.5 378.0 626.6 378.0 626.7 C 376.6 627.5 375.6 626.0 373.8 626.4 C 373.5 626.4 373.5 626.5 373.5 626.6 C 373.7 626.6 373.7 626.7 373.8 626.7 C 374.0 626.3 375.6 626.9 374.9 627.0 C 374.9 627.1 375.1 627.1 375.1 627.0 C 375.3 627.0 375.5 627.0 375.7 627.1 C 375.6 626.9 375.2 626.9 375.1 626.7 C 376.0 626.9 377.1 627.0 376.5 627.4 C 377.1 627.4 377.3 627.2 377.7 627.1 C 378.0 627.2 378.0 627.5 377.7 627.4 C 377.7 627.4 377.7 627.4 377.7 627.4 Z M 384.9 627.5 C 385.8 627.5 385.4 627.2 386.3 627.2 C 385.8 627.0 385.1 627.4 384.4 627.2 C 384.5 627.3 384.8 627.3 384.9 627.5 C 384.9 627.5 384.9 627.5 384.9 627.5 Z M 368.7 626.3 C 368.9 626.0 368.2 625.9 367.4 625.8 C 367.2 626.2 367.9 626.3 368.7 626.3 C 368.7 626.3 368.7 626.3 368.7 626.3 Z M 372.4 626.6 C 373.2 626.6 371.3 626.5 371.8 626.2 C 371.4 626.2 371.0 626.2 371.0 626.0 C 370.7 626.1 370.7 626.2 370.2 626.2 C 370.2 626.4 371.1 626.3 371.0 626.5 C 371.6 626.4 371.7 626.4 372.4 626.6 C 372.4 626.6 372.4 626.6 372.4 626.6 Z M 372.9 626.7 C 373.5 626.6 372.8 626.1 372.1 626.0 C 372.4 626.3 372.5 626.5 372.9 626.7 C 372.9 626.7 372.9 626.7 372.9 626.7 Z M 314.3 605.1 C 314.5 605.3 314.6 604.9 314.8 605.3 C 314.9 605.2 314.2 604.1 314.9 605.0 C 314.9 604.4 314.3 604.5 314.2 604.1 C 314.2 604.2 314.2 604.4 314.0 604.2 C 313.7 604.2 314.6 605.0 314.3 605.1 C 314.3 605.1 314.3 605.1 314.3 605.1 Z M 315.1 606.2 C 315.3 606.4 315.3 606.2 315.2 606.1 C 315.3 606.1 315.6 606.4 315.8 606.6 C 315.7 606.7 315.8 605.9 316.0 605.8 C 315.1 605.0 315.4 605.9 315.1 606.2 C 315.1 606.2 315.1 606.2 315.1 606.2 Z M 316.1 607.0 C 316.4 607.8 317.4 608.6 318.0 608.8 C 317.8 608.0 316.6 607.0 316.1 607.0 C 316.1 607.0 316.1 607.0 316.1 607.0 Z M 312.6 600.7 C 312.6 601.9 313.9 604.0 313.4 601.9 C 313.3 602.1 312.7 600.8 312.7 600.1 C 312.6 600.1 312.2 599.5 312.4 599.4 C 312.1 599.0 312.4 601.1 312.6 600.7 C 312.6 600.7 312.6 600.7 312.6 600.7 Z M 319.2 609.1 C 318.8 608.9 318.9 609.7 318.5 609.1 C 318.1 608.8 318.5 609.2 318.3 609.3 C 318.9 609.9 320.6 610.8 320.6 611.1 C 321.0 611.3 321.2 611.2 322.0 611.8 C 322.1 611.7 319.2 610.1 319.1 609.2 C 319.2 609.2 320.1 609.8 319.2 609.1 C 319.2 609.1 319.2 609.1 319.2 609.1 Z M 345.4 579.0 C 345.4 578.7 344.4 579.1 344.5 578.7 C 344.0 579.2 343.5 579.0 342.9 579.4 C 342.7 579.3 342.7 578.9 341.8 579.0 C 341.8 579.3 342.2 579.1 341.9 579.4 C 341.1 579.6 341.2 579.2 340.3 579.5 C 340.6 579.9 338.5 579.9 338.8 580.4 C 339.2 580.3 339.2 580.0 340.0 580.0 C 340.2 579.9 340.1 580.1 340.5 580.1 C 340.3 580.4 339.8 580.0 339.5 580.4 C 339.6 580.5 340.2 580.4 340.3 580.6 C 340.7 580.5 340.2 580.5 340.3 580.3 C 341.2 580.0 340.3 581.0 341.3 580.7 C 341.1 580.4 341.1 580.4 341.2 580.1 C 341.7 580.2 342.9 579.7 342.3 580.2 C 342.4 580.4 343.1 580.0 342.9 579.8 C 343.3 579.7 343.4 579.8 343.5 579.9 C 344.5 579.6 344.6 579.3 344.3 579.0 C 344.5 578.7 344.7 579.2 345.4 579.0 C 345.4 579.0 345.4 579.0 345.4 579.0 Z M 313.0 594.8 C 312.9 594.3 312.9 595.3 312.7 595.7 C 312.9 595.2 313.2 595.5 313.4 595.0 C 313.3 595.2 313.2 595.1 313.3 594.8 C 313.2 594.6 312.8 595.4 313.0 594.8 C 313.0 594.8 313.0 594.8 313.0 594.8 Z M 323.6 612.9 C 323.8 613.2 325.4 614.0 326.3 614.5 C 326.3 614.0 324.0 613.4 324.0 612.9 C 323.6 612.6 324.2 613.2 323.6 612.9 C 323.6 612.9 323.6 612.9 323.6 612.9 Z M 336.1 580.4 C 335.8 580.5 336.0 580.6 336.1 580.5 C 336.1 580.7 335.6 580.7 335.2 580.9 C 335.8 580.9 335.2 581.2 335.4 581.4 C 335.1 581.5 335.0 581.6 334.9 581.7 C 334.8 581.1 333.6 582.3 335.0 582.0 C 334.7 581.8 334.8 581.8 335.4 581.5 C 336.1 581.6 336.5 581.2 336.8 581.5 C 337.2 581.3 337.4 581.1 337.9 581.0 C 338.1 581.2 338.7 581.2 338.3 581.7 C 339.4 581.5 338.5 580.9 339.4 580.7 C 340.2 580.7 339.0 581.1 339.3 581.3 C 339.5 581.3 339.4 581.4 339.5 581.5 C 339.8 581.4 339.8 581.1 339.5 581.2 C 339.5 581.1 340.3 580.6 340.2 581.0 C 340.6 580.8 339.2 580.3 338.6 580.7 C 338.2 580.9 338.1 580.3 338.5 580.3 C 338.3 580.0 337.7 580.9 337.8 580.2 C 337.4 580.3 337.1 580.4 336.8 580.5 C 336.9 580.5 337.1 580.5 337.1 580.6 C 336.8 580.7 336.5 580.7 336.2 580.8 C 336.4 580.6 336.4 580.5 336.1 580.4 C 336.1 580.4 336.1 580.4 336.1 580.4 Z M 320.3 610.5 C 320.9 610.9 321.1 610.9 321.7 611.2 C 321.6 610.9 320.2 610.0 320.3 610.5 C 320.3 610.5 320.3 610.5 320.3 610.5 Z M 349.8 579.3 C 349.7 579.2 349.3 579.3 349.3 579.2 C 350.1 579.0 349.1 578.9 349.7 578.3 C 348.7 578.7 348.4 579.4 349.8 579.5 C 350.8 579.3 348.8 579.5 349.8 579.3 C 349.8 579.3 349.8 579.3 349.8 579.3 Z M 346.7 579.5 C 346.1 579.7 347.7 579.7 348.0 579.7 C 348.1 579.8 348.1 579.9 348.1 580.0 C 348.9 579.5 347.7 579.5 348.4 578.8 C 347.4 578.7 347.0 578.7 346.1 579.0 C 346.2 579.1 346.4 579.0 346.4 578.9 C 347.0 578.9 346.6 579.4 345.9 579.3 C 346.1 579.4 346.8 579.3 347.2 579.3 C 347.1 579.3 346.9 579.2 346.9 579.1 C 347.5 578.9 347.3 579.2 347.7 579.2 C 347.7 579.3 346.8 579.7 346.7 579.5 C 346.7 579.5 346.7 579.5 346.7 579.5 Z M 399.8 581.7 C 399.3 581.6 400.3 582.2 400.1 582.7 C 400.7 582.8 400.8 582.8 401.2 582.8 C 401.1 582.6 400.5 582.4 400.3 582.2 C 400.4 581.8 401.0 582.4 401.3 582.2 C 401.8 581.9 400.0 582.1 399.8 581.7 C 399.8 581.7 399.8 581.7 399.8 581.7 Z M 323.1 585.7 C 322.8 585.9 323.0 585.9 323.2 585.8 C 323.2 585.9 322.7 586.2 322.6 586.1 C 322.3 586.3 323.0 586.1 322.5 586.4 C 322.5 586.6 323.2 586.0 323.2 585.9 C 323.8 585.6 323.5 586.1 323.7 586.2 C 324.2 585.9 323.9 585.8 324.7 585.5 C 324.2 585.5 323.7 585.6 323.1 585.7 C 323.1 585.7 323.1 585.7 323.1 585.7 Z M 351.5 578.5 C 351.6 578.4 351.0 579.0 350.3 578.8 C 349.4 579.0 350.9 579.1 350.1 579.2 C 350.7 579.2 351.6 578.8 352.6 578.7 C 352.9 578.5 351.1 578.8 352.1 578.6 C 352.0 578.5 351.8 578.5 351.8 578.6 C 351.6 578.6 351.6 578.6 351.5 578.5 C 351.5 578.5 351.5 578.5 351.5 578.5 Z M 350.6 579.3 C 350.6 579.4 350.9 579.3 350.9 579.3 C 351.2 579.3 351.2 579.6 350.9 579.6 C 351.4 579.9 351.3 579.3 352.2 579.4 C 351.8 579.1 351.6 579.0 352.4 579.1 C 353.0 578.8 350.9 579.1 350.6 579.3 C 350.6 579.3 350.6 579.3 350.6 579.3 Z M 391.4 580.2 C 391.5 580.3 392.0 580.4 392.5 580.4 C 391.9 580.6 389.7 580.1 389.5 579.8 C 389.3 579.9 389.0 579.9 389.0 579.8 C 389.0 579.9 388.3 579.9 388.7 580.0 C 388.6 580.1 388.1 580.0 388.1 580.1 C 387.3 579.9 388.4 580.0 388.2 579.7 C 387.1 579.9 387.4 579.7 386.2 579.5 C 386.4 579.8 387.7 579.9 387.5 580.3 C 388.5 580.1 389.4 580.4 389.9 580.8 C 389.1 580.2 392.3 580.5 393.7 580.9 C 393.7 581.1 394.2 581.1 394.7 581.4 C 395.1 581.8 395.1 581.1 394.3 581.1 C 394.3 580.9 395.4 581.3 395.8 581.3 C 395.3 581.0 395.7 580.9 395.4 580.8 C 394.4 580.6 395.3 580.9 395.1 581.0 C 394.8 581.0 394.6 580.9 394.3 580.9 C 395.8 580.7 392.3 580.4 393.5 580.6 C 392.4 580.5 392.5 580.1 391.4 580.2 C 391.4 580.2 391.4 580.2 391.4 580.2 Z M 365.6 577.9 C 365.4 577.9 364.5 578.1 364.5 577.9 C 363.4 578.1 364.3 578.4 363.1 578.4 C 363.2 578.5 363.7 578.4 363.7 578.6 C 364.1 578.5 364.6 578.4 364.5 578.1 C 365.0 578.1 365.2 578.0 365.6 578.0 C 365.4 578.1 365.2 578.2 364.7 578.2 C 364.7 578.4 364.9 578.6 365.6 578.6 C 365.9 578.3 365.7 578.1 365.6 577.9 C 365.6 577.9 365.6 577.9 365.6 577.9 Z M 362.8 578.3 C 362.7 578.2 362.5 578.1 362.6 578.0 C 362.1 577.7 362.4 578.4 362.0 578.4 C 361.7 578.4 361.8 578.2 361.7 578.1 C 361.3 578.2 360.9 578.2 360.6 578.1 C 359.9 578.3 361.5 578.4 361.7 578.5 C 362.3 578.5 362.1 578.2 362.8 578.3 C 362.8 578.3 362.8 578.3 362.8 578.3 Z M 354.7 578.3 C 354.6 578.1 354.3 578.5 354.0 578.5 C 354.2 578.8 355.0 578.5 354.5 579.0 C 355.3 579.0 355.3 579.0 356.1 578.9 C 356.6 579.1 356.1 578.6 355.3 578.8 C 355.4 578.7 355.8 578.6 355.8 578.5 C 356.4 579.0 357.7 578.0 356.9 578.5 C 356.6 578.4 356.5 578.3 356.3 578.2 C 356.2 578.5 354.3 578.5 354.7 578.3 C 354.7 578.3 354.7 578.3 354.7 578.3 Z M 329.7 583.5 C 331.0 583.0 331.5 582.8 332.4 582.6 C 332.4 582.7 332.4 582.8 332.2 582.9 C 332.4 582.9 332.7 582.8 333.1 582.6 C 333.0 582.5 332.8 582.6 332.8 582.7 C 332.1 582.7 332.7 582.5 332.7 582.2 C 331.8 582.2 330.6 583.2 329.9 583.0 C 329.4 583.3 330.0 583.1 329.7 583.5 C 329.7 583.5 329.7 583.5 329.7 583.5 Z M 434.5 609.5 C 434.5 609.6 434.4 609.9 434.6 609.9 C 434.7 609.7 434.7 609.5 434.8 609.2 C 434.5 609.6 434.1 609.4 433.8 609.9 C 434.1 609.8 434.3 610.0 434.5 609.5 C 434.5 609.5 434.5 609.5 434.5 609.5 Z M 357.4 578.3 C 357.4 578.4 357.5 578.6 357.2 578.6 C 357.1 578.8 357.9 578.7 358.0 578.8 C 358.2 578.8 358.1 578.6 358.5 578.6 C 358.4 578.5 357.7 578.6 357.9 578.2 C 358.2 578.2 358.2 578.3 358.2 578.3 C 358.8 578.2 357.9 578.1 357.4 578.3 C 357.4 578.3 357.4 578.3 357.4 578.3 Z M 402.3 582.6 C 402.0 582.5 402.3 582.7 402.5 582.8 C 401.7 583.0 402.8 583.4 402.8 583.7 C 402.6 583.4 401.5 583.3 401.4 583.2 C 401.1 583.2 401.3 583.5 400.5 583.4 C 400.6 583.6 401.5 583.6 401.3 583.4 C 401.5 583.8 402.4 583.6 402.2 583.9 C 403.3 584.3 403.7 584.1 403.8 583.8 C 402.7 583.7 403.4 583.3 402.4 583.1 C 402.5 583.0 402.8 583.1 403.0 583.2 C 402.9 582.9 402.5 582.8 402.3 582.6 C 402.3 582.6 402.3 582.6 402.3 582.6 Z M 374.4 578.3 C 373.8 578.3 373.8 578.6 373.8 578.8 C 374.1 578.7 374.4 578.7 374.9 578.8 C 374.8 578.6 374.1 578.6 374.4 578.3 C 374.4 578.3 374.4 578.3 374.4 578.3 Z M 398.1 582.0 C 398.1 581.9 397.9 581.9 397.9 581.9 C 397.2 581.8 397.1 581.6 396.9 581.4 C 396.5 581.4 396.6 581.6 396.6 581.8 C 397.2 581.6 397.0 582.0 397.8 582.1 C 397.8 582.0 397.9 582.0 398.1 582.0 C 398.1 582.0 398.1 582.0 398.1 582.0 Z M 380.2 579.0 C 379.9 579.0 380.0 579.1 380.2 579.1 C 379.8 579.4 378.7 579.0 378.2 579.1 C 378.1 579.3 379.5 579.4 377.9 579.4 C 378.2 579.6 379.7 579.6 380.4 579.7 C 380.2 580.0 379.2 579.8 379.2 580.2 C 380.1 580.1 381.1 580.0 381.2 579.6 C 380.0 579.4 380.5 579.2 380.2 579.0 C 380.2 579.0 380.2 579.0 380.2 579.0 Z M 381.5 579.3 C 381.4 579.1 381.2 579.3 380.7 579.2 C 381.4 579.7 381.8 579.6 383.2 579.8 C 383.2 579.7 383.2 579.7 383.2 579.6 C 383.4 579.6 383.7 579.7 384.0 579.7 C 382.8 579.2 382.5 579.4 381.3 579.4 C 381.2 579.3 381.4 579.3 381.5 579.3 C 381.5 579.3 381.5 579.3 381.5 579.3 Z M 345.5 579.9 C 345.9 580.0 346.2 580.1 346.8 580.1 C 346.7 579.8 346.3 579.7 345.5 579.9 C 345.5 579.9 345.5 579.9 345.5 579.9 Z M 399.1 582.4 C 399.9 582.4 398.4 582.2 398.8 582.6 C 399.3 582.9 399.9 583.1 400.0 583.4 C 401.1 583.3 398.9 582.8 399.1 582.4 C 399.1 582.4 399.1 582.4 399.1 582.4 Z M 394.3 582.1 C 394.0 582.0 394.1 581.6 394.4 581.9 C 395.1 582.1 393.8 581.5 394.9 581.8 C 394.5 581.6 393.4 581.2 392.8 581.3 C 392.8 581.6 393.8 581.7 393.8 581.9 C 393.8 582.0 393.7 582.0 393.5 582.0 C 393.6 582.1 393.9 582.0 394.3 582.1 C 394.3 582.1 394.3 582.1 394.3 582.1 Z M 390.4 580.9 C 390.9 581.1 391.4 581.4 392.3 581.5 C 391.7 581.2 391.4 580.9 390.4 580.9 C 390.4 580.9 390.4 580.9 390.4 580.9 Z M 433.4 601.3 C 433.2 600.9 433.1 601.4 433.0 601.5 C 433.2 601.9 433.4 601.8 433.5 602.2 C 433.8 602.0 433.2 601.7 433.4 601.3 C 433.4 601.3 433.4 601.3 433.4 601.3 Z M 433.8 602.8 C 433.6 602.9 433.9 603.4 433.7 603.4 C 434.4 603.6 433.5 604.2 434.0 604.1 C 433.9 604.3 433.9 604.4 433.9 604.6 C 434.4 604.1 434.0 603.2 433.8 602.8 C 433.8 602.8 433.8 602.8 433.8 602.8 Z M 385.8 580.8 C 385.1 580.7 385.9 581.3 385.2 581.1 C 385.1 581.3 386.5 581.5 385.7 581.5 C 386.7 581.9 385.7 580.9 385.8 580.8 C 385.8 580.8 385.8 580.8 385.8 580.8 Z M 372.4 579.9 C 372.4 579.7 371.4 579.8 371.0 579.8 C 371.0 579.9 371.3 579.9 371.6 579.9 C 371.4 580.0 371.3 580.1 371.0 580.1 C 371.2 580.3 372.0 579.9 372.4 579.9 C 372.4 579.9 372.4 579.9 372.4 579.9 Z M 387.9 575.9 C 388.3 576.2 388.8 576.5 389.2 576.2 C 389.7 576.5 388.9 576.4 389.4 576.7 C 390.2 576.7 389.8 576.9 391.1 577.0 C 390.8 577.3 391.7 577.4 391.8 577.7 C 391.3 577.7 390.7 577.2 390.4 577.5 C 390.9 577.5 390.6 577.8 390.4 577.6 C 389.6 577.2 391.5 577.3 390.5 577.0 C 390.2 577.3 388.8 576.4 387.8 576.2 C 388.2 576.1 387.1 575.8 387.9 575.9 C 387.9 575.9 387.9 575.9 387.9 575.9 Z M 392.7 577.2 C 393.4 577.3 393.6 578.0 393.4 578.0 C 393.5 577.8 392.7 577.7 392.6 577.8 C 392.8 577.9 393.0 577.9 392.9 578.0 C 391.7 577.7 392.2 577.5 391.9 577.3 C 392.6 577.3 392.7 577.5 393.0 577.4 C 392.8 577.4 392.7 577.3 392.7 577.2 C 392.7 577.2 392.7 577.2 392.7 577.2 Z M 405.3 585.3 C 405.2 585.1 405.0 585.2 404.8 585.2 C 404.8 584.8 403.4 585.0 403.3 584.7 C 403.7 584.7 404.3 584.8 404.6 584.8 C 404.3 584.6 404.3 584.5 403.9 584.6 C 404.0 584.3 404.8 584.5 405.0 584.4 C 405.0 584.6 405.4 584.4 405.5 584.6 C 404.5 584.5 405.8 585.4 405.3 585.3 C 405.3 585.3 405.3 585.3 405.3 585.3 Z M 379.5 580.5 C 379.4 580.8 380.5 581.6 379.4 581.9 C 379.2 581.6 379.0 581.3 379.2 581.0 C 378.5 581.1 378.2 580.8 377.8 581.1 C 376.6 580.1 378.7 581.2 379.5 580.5 C 379.5 580.5 379.5 580.5 379.5 580.5 Z M 375.1 580.5 C 375.3 580.2 374.7 580.2 374.8 580.0 C 375.4 580.2 377.1 580.0 376.5 580.2 C 375.9 580.2 375.9 580.5 375.1 580.5 C 375.1 580.5 375.1 580.5 375.1 580.5 Z M 338.6 619.2 C 337.7 619.2 337.5 618.5 338.0 618.5 C 337.7 618.8 338.9 619.0 338.6 619.2 C 338.6 619.2 338.6 619.2 338.6 619.2 Z M 309.3 604.1 C 309.4 604.9 309.8 605.3 309.6 605.5 C 309.1 604.8 309.4 604.8 309.1 604.2 C 308.9 604.2 308.7 603.9 308.8 603.7 C 308.9 604.1 309.1 603.9 309.3 604.1 C 309.3 604.1 309.3 604.1 309.3 604.1 Z M 358.2 573.2 C 358.2 573.1 357.8 573.0 358.0 572.8 C 358.8 572.9 359.8 572.7 360.5 572.4 C 360.5 572.6 360.5 572.7 360.5 572.8 C 359.1 572.8 358.8 573.0 358.2 573.2 C 358.2 573.2 358.2 573.2 358.2 573.2 Z M 356.5 572.7 C 356.4 572.9 356.9 573.2 356.3 573.2 C 356.3 573.0 355.2 572.7 355.7 572.7 C 355.9 572.9 356.2 572.8 356.5 572.7 C 356.5 572.7 356.5 572.7 356.5 572.7 Z M 403.3 578.7 C 403.9 578.8 403.1 578.4 403.1 578.2 C 403.6 578.4 404.2 578.6 404.4 578.8 C 403.9 578.6 403.5 579.0 403.3 578.7 C 403.3 578.7 403.3 578.7 403.3 578.7 Z M 393.3 577.2 C 391.9 577.0 392.6 576.6 391.2 576.3 C 391.8 576.2 393.1 576.4 393.5 576.3 C 393.4 576.4 393.7 576.5 393.7 576.7 C 393.2 576.6 393.1 576.5 392.6 576.4 C 392.7 576.7 392.7 576.6 392.5 576.9 C 392.9 577.0 393.1 577.0 393.4 576.9 C 393.2 577.1 393.7 577.3 393.3 577.2 C 393.3 577.2 393.3 577.2 393.3 577.2 Z M 402.9 579.4 C 403.4 579.5 403.8 580.0 403.3 579.8 C 403.3 579.6 402.9 579.8 402.8 579.6 C 403.6 579.7 402.2 579.3 402.6 579.2 C 403.1 579.3 403.3 579.2 403.2 579.0 C 403.5 579.1 404.0 579.2 404.0 579.3 C 403.8 579.3 403.5 579.2 403.5 579.3 C 403.6 579.3 403.8 579.3 403.7 579.4 C 403.2 579.3 403.0 579.3 402.9 579.4 C 402.9 579.4 402.9 579.4 402.9 579.4 Z M 399.2 578.5 C 399.9 578.7 399.9 579.0 400.1 579.3 C 399.2 578.9 399.1 578.5 398.4 578.2 C 399.2 578.4 400.1 578.2 400.3 578.5 C 399.9 578.5 399.3 578.3 399.2 578.5 C 399.2 578.5 399.2 578.5 399.2 578.5 Z M 407.8 626.1 C 407.2 626.0 406.7 625.9 406.0 625.9 C 405.8 626.3 407.2 626.6 406.6 626.5 C 405.9 626.7 406.3 626.2 405.8 626.2 C 406.4 626.6 403.4 627.0 403.2 626.6 C 403.7 626.6 403.8 626.5 403.7 626.3 C 404.9 626.1 405.3 625.8 406.2 625.6 C 406.9 625.8 408.8 625.6 409.7 625.0 C 410.4 625.4 411.4 624.5 412.4 624.8 C 412.6 624.6 411.6 624.6 412.3 624.4 C 412.8 624.6 412.5 624.8 413.2 624.8 C 413.2 624.7 413.0 624.5 413.3 624.4 C 413.3 624.6 413.7 624.5 413.8 624.5 C 412.6 624.8 414.0 624.9 413.0 625.3 C 412.6 625.2 413.3 624.7 412.2 624.9 C 411.8 625.1 411.4 625.3 411.6 625.6 C 411.2 625.7 411.1 625.8 410.9 625.9 C 411.2 625.4 409.2 626.3 410.1 625.7 C 410.2 625.7 410.8 625.6 411.3 625.4 C 410.8 625.1 410.3 625.4 409.6 625.7 C 409.2 625.6 409.6 625.4 409.2 625.4 C 408.7 625.7 409.6 625.8 409.1 626.0 C 409.3 626.0 409.6 625.9 409.6 626.0 C 408.5 625.9 408.2 626.3 407.6 626.4 C 408.0 626.2 407.0 626.3 407.8 626.1 C 407.8 626.1 407.8 626.1 407.8 626.1 Z M 416.3 623.6 C 416.5 623.6 416.8 623.5 417.0 623.4 C 417.1 623.7 416.3 624.0 416.9 624.1 C 415.9 624.3 416.9 623.7 416.3 623.6 C 416.3 623.6 416.3 623.6 416.3 623.6 Z M 411.4 623.8 C 411.0 623.6 411.4 624.2 411.0 624.3 C 411.6 624.1 412.1 623.9 412.3 624.2 C 411.6 624.3 411.3 624.3 410.6 624.6 C 411.2 624.0 409.8 624.4 409.5 624.1 C 410.0 623.9 410.4 623.7 411.1 623.6 C 411.0 623.7 412.1 623.6 411.4 623.8 C 411.4 623.8 411.4 623.8 411.4 623.8 Z M 413.2 622.9 C 413.4 623.1 414.3 622.7 414.2 623.1 C 413.6 623.2 413.4 623.3 413.6 623.6 C 413.1 623.7 413.0 623.6 412.6 623.7 C 412.3 623.4 413.0 623.3 413.2 623.0 C 413.1 623.1 412.9 623.0 413.2 622.9 C 413.2 622.9 413.2 622.9 413.2 622.9 Z M 431.1 612.4 C 431.5 612.5 430.7 613.0 430.5 613.0 C 430.9 613.1 430.9 613.2 430.5 613.7 C 430.4 613.2 429.9 613.9 429.2 613.9 C 429.2 614.2 429.9 613.9 429.3 614.4 C 428.7 614.7 428.3 615.2 427.4 615.8 C 427.0 615.7 427.4 615.4 427.6 615.1 C 427.0 615.6 427.0 615.2 426.6 615.5 C 426.7 615.6 426.4 615.9 426.2 615.9 C 427.0 615.3 424.9 616.2 425.7 615.6 C 425.8 615.6 426.0 615.5 426.1 615.3 C 426.1 615.8 427.2 615.0 427.5 615.0 C 427.6 614.2 428.8 613.7 429.9 613.0 C 430.1 613.1 429.8 613.4 430.1 613.2 C 430.1 613.1 430.4 612.9 430.5 612.7 C 430.6 612.8 430.8 612.7 431.0 612.6 C 431.0 612.5 431.0 612.5 431.1 612.4 C 431.1 612.4 431.1 612.4 431.1 612.4 Z M 363.5 623.5 C 363.6 623.0 361.8 623.1 361.3 623.1 C 361.5 622.6 364.5 623.2 363.5 623.5 C 363.5 623.5 363.5 623.5 363.5 623.5 Z M 374.2 624.2 C 373.7 624.1 374.0 624.4 373.6 624.4 C 373.6 624.1 372.5 624.7 372.5 624.4 C 373.1 624.1 373.4 624.2 374.2 624.2 C 374.2 624.2 374.2 624.2 374.2 624.2 Z M 384.1 624.6 C 383.3 624.6 384.5 624.7 384.3 624.9 C 383.7 624.9 382.9 624.8 383.0 624.6 C 383.6 624.7 384.0 624.3 384.1 624.6 C 384.1 624.6 384.1 624.6 384.1 624.6 Z M 369.3 623.5 C 368.6 623.3 369.8 623.0 369.8 623.2 C 369.1 623.3 370.3 623.6 370.9 623.5 C 370.9 623.9 370.6 623.8 370.9 624.1 C 369.9 624.2 370.7 623.8 370.1 623.8 C 369.6 623.9 370.1 623.9 370.0 624.2 C 369.8 624.1 369.5 624.1 369.2 624.1 C 369.2 623.9 369.3 623.8 369.3 623.6 C 369.6 623.6 369.9 623.6 369.8 623.4 C 369.6 623.4 369.5 623.5 369.3 623.5 C 369.3 623.5 369.3 623.5 369.3 623.5 Z M 418.2 618.8 C 417.7 619.0 418.2 619.0 418.6 618.9 C 418.6 618.7 418.8 618.1 419.4 618.2 C 418.3 618.9 420.0 618.5 419.3 618.9 C 418.9 618.7 418.3 619.3 417.6 619.5 C 417.3 619.3 417.8 618.7 418.2 618.8 C 418.2 618.8 418.2 618.8 418.2 618.8 Z M 420.5 618.2 C 420.4 618.1 420.2 618.2 419.9 618.4 C 420.2 618.0 419.6 618.1 420.1 617.8 C 420.0 618.0 421.7 617.4 420.8 617.9 C 419.9 618.1 421.1 618.0 421.5 617.8 C 421.0 618.0 420.4 618.6 420.2 618.4 C 420.5 618.3 420.6 618.3 420.5 618.2 C 420.5 618.2 420.5 618.2 420.5 618.2 Z M 432.7 609.1 C 432.5 608.9 432.4 609.2 432.3 609.2 C 432.7 608.6 432.9 608.0 433.1 607.7 C 433.0 608.0 433.2 608.1 433.4 608.0 C 433.2 608.3 433.3 608.4 433.1 608.5 C 433.0 608.1 432.9 608.7 432.7 609.1 C 432.7 609.1 432.7 609.1 432.7 609.1 Z M 432.7 609.1 " fill="#C43100"></path></g></svg>