<?xml version="1.0" encoding="UTF-8" standalone="no"?><svg xmlns="http://www.w3.org/2000/svg" xmlns:xlink="http://www.w3.org/1999/xlink" clip-rule="evenodd" stroke-miterlimit="10" viewBox="0 0 1280 800"><desc>SVG generated by Keynote</desc><defs></defs><g transform="matrix(1.00, 0.00, -0.00, -1.00, 0.0, 800.0)"><path d="M 0.0 800.0 L 1280.0 800.0 L 1280.0 0.0 L 0.0 0.0 Z M 0.0 800.0 " fill="#BBB9B4"></path><g><clipPath id="clip0x6080014b7520"><path d="M 85.0 800.0 L 1195.0 800.0 L 1195.0 -136.0 L 85.0 -136.0 Z M 85.0 800.0 "></path></clipPath><g clip-path="url(#clip0x6080014b7520)"><image xlink:href="../../6249454E-CBC5-4829-824A-5FE02F3535B6/assets/39F397F6192FA4C1C1EFF9AE00B52E67.png" width="1110.00" height="936.00" transform="matrix(1.00, 0.00, -0.00, -1.00, 85.0, 800.0)"></image></g></g><g opacity="0.00"><g><clipPath id="clip0x6080016a7440"><path d="M 495.9 411.9 L 620.1 411.9 L 620.1 536.2 L 495.9 536.2 Z M 495.9 411.9 "></path></clipPath><g clip-path="url(#clip0x6080016a7440)"><path d="M 61.3 10.5 C 75.3 24.5 75.3 47.3 61.3 61.3 C 47.3 75.3 24.5 75.3 10.5 61.3 C -3.5 47.3 -3.5 24.5 10.5 10.5 C 24.5 -3.5 47.3 -3.5 61.3 10.5 Z M 61.3 10.5 " fill="none" stroke="#EBEAE9" stroke-opacity="0.70" stroke-width="9.00" transform="matrix(1.50, 0.00, 0.00, -1.50, 504.1, 527.9)"></path></g></g><g><clipPath id="clip0x608001eb2000"><path d="M 519.2 435.2 L 596.8 435.2 L 596.8 512.9 L 519.2 512.9 Z M 519.2 435.2 "></path></clipPath><g clip-path="url(#clip0x608001eb2000)"><path d="M 34.8 6.0 C 42.8 13.9 42.8 26.9 34.8 34.8 C 26.9 42.8 13.9 42.8 6.0 34.8 C -2.0 26.9 -2.0 13.9 6.0 6.0 C 13.9 -2.0 26.9 -2.0 34.8 6.0 Z M 34.8 6.0 " fill="none" stroke="#EBEAE9" stroke-opacity="0.70" stroke-width="9.00" transform="matrix(1.50, 0.00, 0.00, -1.50, 527.4, 504.7)"></path></g></g></g></g></svg>