<?xml version="1.0" encoding="UTF-8" standalone="no"?><svg xmlns="http://www.w3.org/2000/svg" xmlns:xlink="http://www.w3.org/1999/xlink" clip-rule="evenodd" stroke-miterlimit="10" viewBox="0 0 1024 768"><desc>SVG generated by Keynote</desc><defs></defs><g transform="matrix(1.00, 0.00, -0.00, -1.00, 0.0, 768.0)"><path d="M 0.0 768.0 L 1024.0 768.0 L 1024.0 0.0 L 0.0 0.0 Z M 0.0 768.0 " fill="#000000"></path><image xlink:href="../../F2B282DF-BD85-4B58-9B8D-4D3FFA084F3E/assets/69BFB431D7A1C698D7774B104DB1D9B5.png" width="460.00" height="241.00" transform="matrix(1.00, 0.00, -0.00, -1.00, 41.0, 509.0)"></image><image xlink:href="../../F2B282DF-BD85-4B58-9B8D-4D3FFA084F3E/assets/F58F2DA655540C1C54F930EEF20226C3.png" width="220.00" height="220.00" transform="matrix(1.00, 0.00, -0.00, -1.00, 763.0, 353.0)"></image><image xlink:href="../../F2B282DF-BD85-4B58-9B8D-4D3FFA084F3E/assets/8A92F2E379725CED55B277F98F78603B.png" width="220.00" height="220.00" transform="matrix(1.00, 0.00, -0.00, -1.00, 763.2, 634.8)"></image><g><clipPath id="clip0x600000cae520"><path d="M 501.0 558.0 L 761.0 558.0 L 761.0 210.0 L 501.0 210.0 Z M 500.9 558.0 "></path></clipPath><g clip-path="url(#clip0x600000cae520)"><g><clipPath id="clip0x600000cae880"><path d="M 500.9 210.0 L 760.9 210.0 L 760.9 558.0 L 500.9 558.0 Z M 500.9 210.0 "></path></clipPath><g clip-path="url(#clip0x600000cae880)"><image xlink:href="../../F2B282DF-BD85-4B58-9B8D-4D3FFA084F3E/assets/664AA4A91EEDD714008F3F9020035A69.png" width="260.00" height="348.00" transform="matrix(1.00, 0.00, -0.00, -1.00, 501.0, 558.0)"></image></g></g></g></g><g><clipPath id="clip0x600000cae8e0"><path d="M 568.0 305.5 L 696.0 305.5 L 696.0 331.0 L 568.0 331.0 Z M 568.0 305.5 "></path></clipPath><g clip-path="url(#clip0x600000cae8e0)"><path d="M 569.0 330.0 L 695.0 330.0 L 695.0 306.0 L 569.0 306.0 Z M 569.0 330.0 " fill="#FE2500"></path></g></g></g></svg>