<?xml version="1.0" encoding="UTF-8" standalone="no"?><svg xmlns="http://www.w3.org/2000/svg" xmlns:xlink="http://www.w3.org/1999/xlink" clip-rule="evenodd" stroke-miterlimit="10" viewBox="0 0 1200 330"><desc>SVG generated by Keynote</desc><defs></defs><g transform="matrix(1.00, 0.00, -0.00, -1.00, 0.0, 330.0)"><path d="M 18.0 318.0 L 1182.0 318.0 L 1182.0 34.0 L 18.0 34.0 Z M 18.1 317.8 " fill="#EBEAE9"></path><image xlink:href="../../F914AAB3-9361-4B28-A797-4EBF60544015/assets/1D3E19F057550F12C30686F8C684E1ED.png" width="1198.00" height="328.00" transform="matrix(1.00, 0.00, -0.00, 1.00, 1.1, 1.2)"></image><g><clipPath id="clip0x6080010ae880"><path d="M 8.4 11.3 L 1191.6 11.3 L 1191.6 327.6 L 8.4 327.6 Z M 8.4 11.3 "></path></clipPath><g clip-path="url(#clip0x6080010ae880)"><text xml:space="preserve" font-family="HelveticaNeue-Thin,Helvetica Neue" font-size="50.0" fill="#090502" transform="matrix(1.00, 0.00, -0.00, -1.00, 27.0, 264.9)">C</text><text xml:space="preserve" font-family="HelveticaNeue-Thin,Helvetica Neue" font-size="50.0" fill="#090502" transform="matrix(1.00, 0.00, -0.00, -1.00, 62.2, 264.9)">l</text><text xml:space="preserve" font-family="HelveticaNeue-Thin,Helvetica Neue" font-size="50.0" fill="#090502" transform="matrix(1.00, 0.00, -0.00, -1.00, 70.6, 264.9)">i</text><text xml:space="preserve" font-family="HelveticaNeue-Thin,Helvetica Neue" font-size="50.0" fill="#090502" transform="matrix(1.00, 0.00, -0.00, -1.00, 79.0, 264.9)">c</text><text xml:space="preserve" font-family="HelveticaNeue-Thin,Helvetica Neue" font-size="50.0" fill="#090502" transform="matrix(1.00, 0.00, -0.00, -1.00, 105.0, 264.9)">k</text><text xml:space="preserve" font-family="HelveticaNeue-Thin,Helvetica Neue" font-size="50.0" fill="#090502" transform="matrix(1.00, 0.00, -0.00, -1.00, 128.1, 264.9)">i</text><text xml:space="preserve" font-family="HelveticaNeue-Thin,Helvetica Neue" font-size="50.0" fill="#090502" transform="matrix(1.00, 0.00, -0.00, -1.00, 136.5, 264.9)">n</text><text xml:space="preserve" font-family="HelveticaNeue-Thin,Helvetica Neue" font-size="50.0" fill="#090502" transform="matrix(1.00, 0.00, -0.00, -1.00, 162.5, 264.9)">g</text><text xml:space="preserve" font-family="HelveticaNeue-Thin,Helvetica Neue" font-size="50.0" fill="#090502" transform="matrix(1.00, 0.00, -0.00, -1.00, 189.3, 264.9)"> </text><text xml:space="preserve" font-family="HelveticaNeue-Thin,Helvetica Neue" font-size="50.0" fill="#090502" transform="matrix(1.00, 0.00, -0.00, -1.00, 203.2, 264.9)">o</text><text xml:space="preserve" font-family="HelveticaNeue-Thin,Helvetica Neue" font-size="50.0" fill="#090502" transform="matrix(1.00, 0.00, -0.00, -1.00, 230.1, 264.9)">n</text><text xml:space="preserve" font-family="HelveticaNeue-Thin,Helvetica Neue" font-size="50.0" fill="#090502" transform="matrix(1.00, 0.00, -0.00, -1.00, 256.0, 264.9)"> </text><text xml:space="preserve" font-family="HelveticaNeue-Thin,Helvetica Neue" font-size="50.0" fill="#090502" transform="matrix(1.00, 0.00, -0.00, -1.00, 269.9, 264.9)">t</text><text xml:space="preserve" font-family="HelveticaNeue-Thin,Helvetica Neue" font-size="50.0" fill="#090502" transform="matrix(1.00, 0.00, -0.00, -1.00, 282.9, 264.9)">h</text><text xml:space="preserve" font-family="HelveticaNeue-Thin,Helvetica Neue" font-size="50.0" fill="#090502" transform="matrix(1.00, 0.00, -0.00, -1.00, 308.8, 264.9)">e</text><text xml:space="preserve" font-family="HelveticaNeue-Thin,Helvetica Neue" font-size="50.0" fill="#090502" transform="matrix(1.00, 0.00, -0.00, -1.00, 334.8, 264.9)"> </text><text xml:space="preserve" font-family="HelveticaNeue-Thin,Helvetica Neue" font-size="50.0" fill="#090502" transform="matrix(1.00, 0.00, -0.00, -1.00, 348.6, 264.9)">b</text><text xml:space="preserve" font-family="HelveticaNeue-Thin,Helvetica Neue" font-size="50.0" fill="#090502" transform="matrix(1.00, 0.00, -0.00, -1.00, 376.4, 264.9)">i</text><text xml:space="preserve" font-family="HelveticaNeue-Thin,Helvetica Neue" font-size="50.0" fill="#090502" transform="matrix(1.00, 0.00, -0.00, -1.00, 384.8, 264.9)">g</text><text xml:space="preserve" font-family="HelveticaNeue-Thin,Helvetica Neue" font-size="50.0" fill="#090502" transform="matrix(1.00, 0.00, -0.00, -1.00, 411.7, 264.9)">,</text><text xml:space="preserve" font-family="HelveticaNeue-Thin,Helvetica Neue" font-size="50.0" fill="#090502" transform="matrix(1.00, 0.00, -0.00, -1.00, 425.6, 264.9)"> </text><text xml:space="preserve" font-family="HelveticaNeue-Thin,Helvetica Neue" font-size="50.0" fill="#090502" transform="matrix(1.00, 0.00, -0.00, -1.00, 439.5, 264.9)">b</text><text xml:space="preserve" font-family="HelveticaNeue-Thin,Helvetica Neue" font-size="50.0" fill="#090502" transform="matrix(1.00, 0.00, -0.00, -1.00, 467.3, 264.9)">l</text><text xml:space="preserve" font-family="HelveticaNeue-Thin,Helvetica Neue" font-size="50.0" fill="#090502" transform="matrix(1.00, 0.00, -0.00, -1.00, 475.7, 264.9)">u</text><text xml:space="preserve" font-family="HelveticaNeue-Thin,Helvetica Neue" font-size="50.0" fill="#090502" transform="matrix(1.00, 0.00, -0.00, -1.00, 501.6, 264.9)">e</text><text xml:space="preserve" font-family="HelveticaNeue-Thin,Helvetica Neue" font-size="50.0" fill="#090502" transform="matrix(1.00, 0.00, -0.00, -1.00, 527.6, 264.9)"> </text><text xml:space="preserve" font-family="HelveticaNeue-Thin,Helvetica Neue" font-size="50.0" fill="#090502" transform="matrix(1.00, 0.00, -0.00, -1.00, 541.5, 264.9)">b</text><text xml:space="preserve" font-family="HelveticaNeue-Thin,Helvetica Neue" font-size="50.0" fill="#090502" transform="matrix(1.00, 0.00, -0.00, -1.00, 569.3, 264.9)">u</text><text xml:space="preserve" font-family="HelveticaNeue-Thin,Helvetica Neue" font-size="50.0" fill="#090502" transform="matrix(1.00, 0.00, -0.00, -1.00, 595.2, 264.9)">t</text><text xml:space="preserve" font-family="HelveticaNeue-Thin,Helvetica Neue" font-size="50.0" fill="#090502" transform="matrix(1.00, 0.00, -0.00, -1.00, 608.2, 264.9)">t</text><text xml:space="preserve" font-family="HelveticaNeue-Thin,Helvetica Neue" font-size="50.0" fill="#090502" transform="matrix(1.00, 0.00, -0.00, -1.00, 620.4, 264.9)">o</text><text xml:space="preserve" font-family="HelveticaNeue-Thin,Helvetica Neue" font-size="50.0" fill="#090502" transform="matrix(1.00, 0.00, -0.00, -1.00, 647.3, 264.9)">n</text><text xml:space="preserve" font-family="HelveticaNeue-Thin,Helvetica Neue" font-size="50.0" fill="#090502" transform="matrix(1.00, 0.00, -0.00, -1.00, 673.2, 264.9)"> </text><text xml:space="preserve" font-family="HelveticaNeue-Thin,Helvetica Neue" font-size="50.0" fill="#090502" transform="matrix(1.00, 0.00, -0.00, -1.00, 687.1, 264.9)">i</text><text xml:space="preserve" font-family="HelveticaNeue-Thin,Helvetica Neue" font-size="50.0" fill="#090502" transform="matrix(1.00, 0.00, -0.00, -1.00, 695.5, 264.9)">n</text><text xml:space="preserve" font-family="HelveticaNeue-Thin,Helvetica Neue" font-size="50.0" fill="#090502" transform="matrix(1.00, 0.00, -0.00, -1.00, 721.5, 264.9)"> </text><text xml:space="preserve" font-family="HelveticaNeue-Thin,Helvetica Neue" font-size="50.0" fill="#090502" transform="matrix(1.00, 0.00, -0.00, -1.00, 735.4, 264.9)">t</text><text xml:space="preserve" font-family="HelveticaNeue-Thin,Helvetica Neue" font-size="50.0" fill="#090502" transform="matrix(1.00, 0.00, -0.00, -1.00, 748.4, 264.9)">h</text><text xml:space="preserve" font-family="HelveticaNeue-Thin,Helvetica Neue" font-size="50.0" fill="#090502" transform="matrix(1.00, 0.00, -0.00, -1.00, 774.3, 264.9)">e</text><text xml:space="preserve" font-family="HelveticaNeue-Thin,Helvetica Neue" font-size="50.0" fill="#090502" transform="matrix(1.00, 0.00, -0.00, -1.00, 800.3, 264.9)"> </text><text xml:space="preserve" font-family="HelveticaNeue-Thin,Helvetica Neue" font-size="50.0" fill="#090502" transform="matrix(1.00, 0.00, -0.00, -1.00, 814.2, 264.9)">M</text><text xml:space="preserve" font-family="HelveticaNeue-Thin,Helvetica Neue" font-size="50.0" fill="#090502" transform="matrix(1.00, 0.00, -0.00, -1.00, 854.6, 264.9)">a</text><text xml:space="preserve" font-family="HelveticaNeue-Thin,Helvetica Neue" font-size="50.0" fill="#090502" transform="matrix(1.00, 0.00, -0.00, -1.00, 879.6, 264.9)">p</text><text xml:space="preserve" font-family="HelveticaNeue-Thin,Helvetica Neue" font-size="50.0" fill="#090502" transform="matrix(1.00, 0.00, -0.00, -1.00, 907.4, 264.9)"> </text><text xml:space="preserve" font-family="HelveticaNeue-Thin,Helvetica Neue" font-size="50.0" fill="#090502" transform="matrix(1.00, 0.00, -0.00, -1.00, 921.3, 264.9)">t</text><text xml:space="preserve" font-family="HelveticaNeue-Thin,Helvetica Neue" font-size="50.0" fill="#090502" transform="matrix(1.00, 0.00, -0.00, -1.00, 933.6, 264.9)">e</text><text xml:space="preserve" font-family="HelveticaNeue-Thin,Helvetica Neue" font-size="50.0" fill="#090502" transform="matrix(1.00, 0.00, -0.00, -1.00, 959.5, 264.9)">m</text><text xml:space="preserve" font-family="HelveticaNeue-Thin,Helvetica Neue" font-size="50.0" fill="#090502" transform="matrix(1.00, 0.00, -0.00, -1.00, 999.3, 264.9)">p</text><text xml:space="preserve" font-family="HelveticaNeue-Thin,Helvetica Neue" font-size="50.0" fill="#090502" transform="matrix(1.00, 0.00, -0.00, -1.00, 1027.1, 264.9)">l</text><text xml:space="preserve" font-family="HelveticaNeue-Thin,Helvetica Neue" font-size="50.0" fill="#090502" transform="matrix(1.00, 0.00, -0.00, -1.00, 1035.5, 264.9)">a</text><text xml:space="preserve" font-family="HelveticaNeue-Thin,Helvetica Neue" font-size="50.0" fill="#090502" transform="matrix(1.00, 0.00, -0.00, -1.00, 1060.5, 264.9)">t</text><text xml:space="preserve" font-family="HelveticaNeue-Thin,Helvetica Neue" font-size="50.0" fill="#090502" transform="matrix(1.00, 0.00, -0.00, -1.00, 1072.8, 264.9)">e</text><text xml:space="preserve" font-family="HelveticaNeue-Thin,Helvetica Neue" font-size="50.0" fill="#090502" transform="matrix(1.00, 0.00, -0.00, -1.00, 1098.7, 264.9)"> </text><text xml:space="preserve" font-family="HelveticaNeue-Thin,Helvetica Neue" font-size="50.0" fill="#090502" transform="matrix(1.00, 0.00, -0.00, -1.00, 1112.6, 264.9)">w</text><text xml:space="preserve" font-family="HelveticaNeue-Thin,Helvetica Neue" font-size="50.0" fill="#090502" transform="matrix(1.00, 0.00, -0.00, -1.00, 1147.8, 264.9)">i</text><text xml:space="preserve" font-family="HelveticaNeue-Thin,Helvetica Neue" font-size="50.0" fill="#090502" transform="matrix(1.00, 0.00, -0.00, -1.00, 1156.2, 264.9)">l</text><text xml:space="preserve" font-family="HelveticaNeue-Thin,Helvetica Neue" font-size="50.0" fill="#090502" transform="matrix(1.00, 0.00, -0.00, -1.00, 1164.6, 264.9)">l</text><text xml:space="preserve" font-family="HelveticaNeue-Thin,Helvetica Neue" font-size="50.0" fill="#090502" transform="matrix(1.00, 0.00, -0.00, -1.00, 1173.0, 264.9)"> </text><text xml:space="preserve" font-family="HelveticaNeue-Thin,Helvetica Neue" font-size="50.0" fill="#090502" transform="matrix(1.00, 0.00, -0.00, -1.00, 28.6, 193.2)">b</text><text xml:space="preserve" font-family="HelveticaNeue-Thin,Helvetica Neue" font-size="50.0" fill="#090502" transform="matrix(1.00, 0.00, -0.00, -1.00, 56.4, 193.2)">r</text><text xml:space="preserve" font-family="HelveticaNeue-Thin,Helvetica Neue" font-size="50.0" fill="#090502" transform="matrix(1.00, 0.00, -0.00, -1.00, 70.3, 193.2)">i</text><text xml:space="preserve" font-family="HelveticaNeue-Thin,Helvetica Neue" font-size="50.0" fill="#090502" transform="matrix(1.00, 0.00, -0.00, -1.00, 78.7, 193.2)">n</text><text xml:space="preserve" font-family="HelveticaNeue-Thin,Helvetica Neue" font-size="50.0" fill="#090502" transform="matrix(1.00, 0.00, -0.00, -1.00, 104.7, 193.2)">g</text><text xml:space="preserve" font-family="HelveticaNeue-Thin,Helvetica Neue" font-size="50.0" fill="#090502" transform="matrix(1.00, 0.00, -0.00, -1.00, 131.5, 193.2)"> </text><text xml:space="preserve" font-family="HelveticaNeue-Thin,Helvetica Neue" font-size="50.0" fill="#090502" transform="matrix(1.00, 0.00, -0.00, -1.00, 145.4, 193.2)">y</text><text xml:space="preserve" font-family="HelveticaNeue-Thin,Helvetica Neue" font-size="50.0" fill="#090502" transform="matrix(1.00, 0.00, -0.00, -1.00, 167.6, 193.2)">o</text><text xml:space="preserve" font-family="HelveticaNeue-Thin,Helvetica Neue" font-size="50.0" fill="#090502" transform="matrix(1.00, 0.00, -0.00, -1.00, 194.4, 193.2)">u</text><text xml:space="preserve" font-family="HelveticaNeue-Thin,Helvetica Neue" font-size="50.0" fill="#090502" transform="matrix(1.00, 0.00, -0.00, -1.00, 220.4, 193.2)"> </text><text xml:space="preserve" font-family="HelveticaNeue-Thin,Helvetica Neue" font-size="50.0" fill="#090502" transform="matrix(1.00, 0.00, -0.00, -1.00, 234.3, 193.2)">t</text><text xml:space="preserve" font-family="HelveticaNeue-Thin,Helvetica Neue" font-size="50.0" fill="#090502" transform="matrix(1.00, 0.00, -0.00, -1.00, 246.6, 193.2)">o</text><text xml:space="preserve" font-family="HelveticaNeue-Thin,Helvetica Neue" font-size="50.0" fill="#090502" transform="matrix(1.00, 0.00, -0.00, -1.00, 273.4, 193.2)"> </text><text xml:space="preserve" font-family="HelveticaNeue-Thin,Helvetica Neue" font-size="50.0" fill="#090502" transform="matrix(1.00, 0.00, -0.00, -1.00, 287.3, 193.2)">t</text><text xml:space="preserve" font-family="HelveticaNeue-Thin,Helvetica Neue" font-size="50.0" fill="#090502" transform="matrix(1.00, 0.00, -0.00, -1.00, 300.2, 193.2)">h</text><text xml:space="preserve" font-family="HelveticaNeue-Thin,Helvetica Neue" font-size="50.0" fill="#090502" transform="matrix(1.00, 0.00, -0.00, -1.00, 326.2, 193.2)">e</text><text xml:space="preserve" font-family="HelveticaNeue-Thin,Helvetica Neue" font-size="50.0" fill="#090502" transform="matrix(1.00, 0.00, -0.00, -1.00, 352.1, 193.2)"> </text><text xml:space="preserve" font-family="HelveticaNeue-Thin,Helvetica Neue" font-size="50.0" fill="#090502" transform="matrix(1.00, 0.00, -0.00, -1.00, 366.0, 193.2)">W</text><text xml:space="preserve" font-family="HelveticaNeue-Thin,Helvetica Neue" font-size="50.0" fill="#090502" transform="matrix(1.00, 0.00, -0.00, -1.00, 411.7, 193.2)">i</text><text xml:space="preserve" font-family="HelveticaNeue-Thin,Helvetica Neue" font-size="50.0" fill="#090502" transform="matrix(1.00, 0.00, -0.00, -1.00, 420.1, 193.2)">k</text><text xml:space="preserve" font-family="HelveticaNeue-Thin,Helvetica Neue" font-size="50.0" fill="#090502" transform="matrix(1.00, 0.00, -0.00, -1.00, 443.2, 193.2)">i</text><text xml:space="preserve" font-family="HelveticaNeue-Thin,Helvetica Neue" font-size="50.0" fill="#090502" transform="matrix(1.00, 0.00, -0.00, -1.00, 451.6, 193.2)">m</text><text xml:space="preserve" font-family="HelveticaNeue-Thin,Helvetica Neue" font-size="50.0" fill="#090502" transform="matrix(1.00, 0.00, -0.00, -1.00, 491.4, 193.2)">a</text><text xml:space="preserve" font-family="HelveticaNeue-Thin,Helvetica Neue" font-size="50.0" fill="#090502" transform="matrix(1.00, 0.00, -0.00, -1.00, 516.4, 193.2)">p</text><text xml:space="preserve" font-family="HelveticaNeue-Thin,Helvetica Neue" font-size="50.0" fill="#090502" transform="matrix(1.00, 0.00, -0.00, -1.00, 544.2, 193.2)">s</text><text xml:space="preserve" font-family="HelveticaNeue-Thin,Helvetica Neue" font-size="50.0" fill="#090502" transform="matrix(1.00, 0.00, -0.00, -1.00, 568.3, 193.2)"> </text><text xml:space="preserve" font-family="HelveticaNeue-Thin,Helvetica Neue" font-size="50.0" fill="#090502" transform="matrix(1.00, 0.00, -0.00, -1.00, 582.2, 193.2)">W</text><text xml:space="preserve" font-family="HelveticaNeue-Thin,Helvetica Neue" font-size="50.0" fill="#090502" transform="matrix(1.00, 0.00, -0.00, -1.00, 625.7, 193.2)">a</text><text xml:space="preserve" font-family="HelveticaNeue-Thin,Helvetica Neue" font-size="50.0" fill="#090502" transform="matrix(1.00, 0.00, -0.00, -1.00, 650.7, 193.2)">r</text><text xml:space="preserve" font-family="HelveticaNeue-Thin,Helvetica Neue" font-size="50.0" fill="#090502" transform="matrix(1.00, 0.00, -0.00, -1.00, 664.6, 193.2)">p</text><text xml:space="preserve" font-family="HelveticaNeue-Thin,Helvetica Neue" font-size="50.0" fill="#090502" transform="matrix(1.00, 0.00, -0.00, -1.00, 692.4, 193.2)">e</text><text xml:space="preserve" font-family="HelveticaNeue-Thin,Helvetica Neue" font-size="50.0" fill="#090502" transform="matrix(1.00, 0.00, -0.00, -1.00, 718.4, 193.2)">r</text><text xml:space="preserve" font-family="HelveticaNeue-Thin,Helvetica Neue" font-size="50.0" fill="#090502" transform="matrix(1.00, 0.00, -0.00, -1.00, 729.9, 193.2)">.</text><text xml:space="preserve" font-family="HelveticaNeue-Thin,Helvetica Neue" font-size="50.0" fill="#090502" transform="matrix(1.00, 0.00, -0.00, -1.00, 743.8, 193.2)"> </text><text xml:space="preserve" font-family="HelveticaNeue-Thin,Helvetica Neue" font-size="50.0" fill="#090502" transform="matrix(1.00, 0.00, -0.00, -1.00, 757.7, 193.2)">I</text><text xml:space="preserve" font-family="HelveticaNeue-Thin,Helvetica Neue" font-size="50.0" fill="#090502" transform="matrix(1.00, 0.00, -0.00, -1.00, 766.2, 193.2)">f</text><text xml:space="preserve" font-family="HelveticaNeue-Thin,Helvetica Neue" font-size="50.0" fill="#090502" transform="matrix(1.00, 0.00, -0.00, -1.00, 778.2, 193.2)"> </text><text xml:space="preserve" font-family="HelveticaNeue-Thin,Helvetica Neue" font-size="50.0" fill="#090502" transform="matrix(1.00, 0.00, -0.00, -1.00, 792.1, 193.2)">t</text><text xml:space="preserve" font-family="HelveticaNeue-Thin,Helvetica Neue" font-size="50.0" fill="#090502" transform="matrix(1.00, 0.00, -0.00, -1.00, 805.1, 193.2)">h</text><text xml:space="preserve" font-family="HelveticaNeue-Thin,Helvetica Neue" font-size="50.0" fill="#090502" transform="matrix(1.00, 0.00, -0.00, -1.00, 831.0, 193.2)">e</text><text xml:space="preserve" font-family="HelveticaNeue-Thin,Helvetica Neue" font-size="50.0" fill="#090502" transform="matrix(1.00, 0.00, -0.00, -1.00, 857.0, 193.2)"> </text><text xml:space="preserve" font-family="HelveticaNeue-Thin,Helvetica Neue" font-size="50.0" fill="#090502" transform="matrix(1.00, 0.00, -0.00, -1.00, 870.9, 193.2)">m</text><text xml:space="preserve" font-family="HelveticaNeue-Thin,Helvetica Neue" font-size="50.0" fill="#090502" transform="matrix(1.00, 0.00, -0.00, -1.00, 910.7, 193.2)">a</text><text xml:space="preserve" font-family="HelveticaNeue-Thin,Helvetica Neue" font-size="50.0" fill="#090502" transform="matrix(1.00, 0.00, -0.00, -1.00, 935.7, 193.2)">p</text><text xml:space="preserve" font-family="HelveticaNeue-Thin,Helvetica Neue" font-size="50.0" fill="#090502" transform="matrix(1.00, 0.00, -0.00, -1.00, 963.5, 193.2)"> </text><text xml:space="preserve" font-family="HelveticaNeue-Thin,Helvetica Neue" font-size="50.0" fill="#090502" transform="matrix(1.00, 0.00, -0.00, -1.00, 977.4, 193.2)">i</text><text xml:space="preserve" font-family="HelveticaNeue-Thin,Helvetica Neue" font-size="50.0" fill="#090502" transform="matrix(1.00, 0.00, -0.00, -1.00, 985.8, 193.2)">s</text><text xml:space="preserve" font-family="HelveticaNeue-Thin,Helvetica Neue" font-size="50.0" fill="#090502" transform="matrix(1.00, 0.00, -0.00, -1.00, 1009.8, 193.2)"> </text><text xml:space="preserve" font-family="HelveticaNeue-Thin,Helvetica Neue" font-size="50.0" fill="#090502" transform="matrix(1.00, 0.00, -0.00, -1.00, 1023.7, 193.2)">a</text><text xml:space="preserve" font-family="HelveticaNeue-Thin,Helvetica Neue" font-size="50.0" fill="#090502" transform="matrix(1.00, 0.00, -0.00, -1.00, 1048.7, 193.2)">l</text><text xml:space="preserve" font-family="HelveticaNeue-Thin,Helvetica Neue" font-size="50.0" fill="#090502" transform="matrix(1.00, 0.00, -0.00, -1.00, 1057.1, 193.2)">r</text><text xml:space="preserve" font-family="HelveticaNeue-Thin,Helvetica Neue" font-size="50.0" fill="#090502" transform="matrix(1.00, 0.00, -0.00, -1.00, 1070.4, 193.2)">e</text><text xml:space="preserve" font-family="HelveticaNeue-Thin,Helvetica Neue" font-size="50.0" fill="#090502" transform="matrix(1.00, 0.00, -0.00, -1.00, 1096.4, 193.2)">a</text><text xml:space="preserve" font-family="HelveticaNeue-Thin,Helvetica Neue" font-size="50.0" fill="#090502" transform="matrix(1.00, 0.00, -0.00, -1.00, 1121.4, 193.2)">d</text><text xml:space="preserve" font-family="HelveticaNeue-Thin,Helvetica Neue" font-size="50.0" fill="#090502" transform="matrix(1.00, 0.00, -0.00, -1.00, 1149.2, 193.2)">y</text><text xml:space="preserve" font-family="HelveticaNeue-Thin,Helvetica Neue" font-size="50.0" fill="#090502" transform="matrix(1.00, 0.00, -0.00, -1.00, 1171.4, 193.2)"> </text><text xml:space="preserve" font-family="HelveticaNeue-Thin,Helvetica Neue" font-size="50.0" fill="#090502" transform="matrix(1.00, 0.00, -0.00, -1.00, 23.4, 121.5)">t</text><text xml:space="preserve" font-family="HelveticaNeue-Thin,Helvetica Neue" font-size="50.0" fill="#090502" transform="matrix(1.00, 0.00, -0.00, -1.00, 36.4, 121.5)">h</text><text xml:space="preserve" font-family="HelveticaNeue-Thin,Helvetica Neue" font-size="50.0" fill="#090502" transform="matrix(1.00, 0.00, -0.00, -1.00, 62.4, 121.5)">e</text><text xml:space="preserve" font-family="HelveticaNeue-Thin,Helvetica Neue" font-size="50.0" fill="#090502" transform="matrix(1.00, 0.00, -0.00, -1.00, 88.3, 121.5)">r</text><text xml:space="preserve" font-family="HelveticaNeue-Thin,Helvetica Neue" font-size="50.0" fill="#090502" transform="matrix(1.00, 0.00, -0.00, -1.00, 101.6, 121.5)">e</text><text xml:space="preserve" font-family="HelveticaNeue-Thin,Helvetica Neue" font-size="50.0" fill="#090502" transform="matrix(1.00, 0.00, -0.00, -1.00, 127.6, 121.5)">,</text><text xml:space="preserve" font-family="HelveticaNeue-Thin,Helvetica Neue" font-size="50.0" fill="#090502" transform="matrix(1.00, 0.00, -0.00, -1.00, 141.5, 121.5)"> </text><text xml:space="preserve" font-family="HelveticaNeue-Thin,Helvetica Neue" font-size="50.0" fill="#090502" transform="matrix(1.00, 0.00, -0.00, -1.00, 155.4, 121.5)">y</text><text xml:space="preserve" font-family="HelveticaNeue-Thin,Helvetica Neue" font-size="50.0" fill="#090502" transform="matrix(1.00, 0.00, -0.00, -1.00, 177.6, 121.5)">o</text><text xml:space="preserve" font-family="HelveticaNeue-Thin,Helvetica Neue" font-size="50.0" fill="#090502" transform="matrix(1.00, 0.00, -0.00, -1.00, 204.4, 121.5)">u</text><text xml:space="preserve" font-family="HelveticaNeue-Thin,Helvetica Neue" font-size="50.0" fill="#090502" transform="matrix(1.00, 0.00, -0.00, -1.00, 230.4, 121.5)"> </text><text xml:space="preserve" font-family="HelveticaNeue-Thin,Helvetica Neue" font-size="50.0" fill="#090502" transform="matrix(1.00, 0.00, -0.00, -1.00, 244.3, 121.5)">c</text><text xml:space="preserve" font-family="HelveticaNeue-Thin,Helvetica Neue" font-size="50.0" fill="#090502" transform="matrix(1.00, 0.00, -0.00, -1.00, 270.2, 121.5)">a</text><text xml:space="preserve" font-family="HelveticaNeue-Thin,Helvetica Neue" font-size="50.0" fill="#090502" transform="matrix(1.00, 0.00, -0.00, -1.00, 295.2, 121.5)">n</text><text xml:space="preserve" font-family="HelveticaNeue-Thin,Helvetica Neue" font-size="50.0" fill="#090502" transform="matrix(1.00, 0.00, -0.00, -1.00, 321.2, 121.5)"> </text><text xml:space="preserve" font-family="HelveticaNeue-Thin,Helvetica Neue" font-size="50.0" fill="#090502" transform="matrix(1.00, 0.00, -0.00, -1.00, 335.1, 121.5)">v</text><text xml:space="preserve" font-family="HelveticaNeue-Thin,Helvetica Neue" font-size="50.0" fill="#090502" transform="matrix(1.00, 0.00, -0.00, -1.00, 357.2, 121.5)">i</text><text xml:space="preserve" font-family="HelveticaNeue-Thin,Helvetica Neue" font-size="50.0" fill="#090502" transform="matrix(1.00, 0.00, -0.00, -1.00, 365.6, 121.5)">e</text><text xml:space="preserve" font-family="HelveticaNeue-Thin,Helvetica Neue" font-size="50.0" fill="#090502" transform="matrix(1.00, 0.00, -0.00, -1.00, 391.6, 121.5)">w</text><text xml:space="preserve" font-family="HelveticaNeue-Thin,Helvetica Neue" font-size="50.0" fill="#090502" transform="matrix(1.00, 0.00, -0.00, -1.00, 426.8, 121.5)"> </text><text xml:space="preserve" font-family="HelveticaNeue-Thin,Helvetica Neue" font-size="50.0" fill="#090502" transform="matrix(1.00, 0.00, -0.00, -1.00, 440.7, 121.5)">a</text><text xml:space="preserve" font-family="HelveticaNeue-Thin,Helvetica Neue" font-size="50.0" fill="#090502" transform="matrix(1.00, 0.00, -0.00, -1.00, 465.7, 121.5)">n</text><text xml:space="preserve" font-family="HelveticaNeue-Thin,Helvetica Neue" font-size="50.0" fill="#090502" transform="matrix(1.00, 0.00, -0.00, -1.00, 491.6, 121.5)">d</text><text xml:space="preserve" font-family="HelveticaNeue-Thin,Helvetica Neue" font-size="50.0" fill="#090502" transform="matrix(1.00, 0.00, -0.00, -1.00, 519.4, 121.5)"> </text><text xml:space="preserve" font-family="HelveticaNeue-Thin,Helvetica Neue" font-size="50.0" fill="#090502" transform="matrix(1.00, 0.00, -0.00, -1.00, 533.3, 121.5)">e</text><text xml:space="preserve" font-family="HelveticaNeue-Thin,Helvetica Neue" font-size="50.0" fill="#090502" transform="matrix(1.00, 0.00, -0.00, -1.00, 559.3, 121.5)">d</text><text xml:space="preserve" font-family="HelveticaNeue-Thin,Helvetica Neue" font-size="50.0" fill="#090502" transform="matrix(1.00, 0.00, -0.00, -1.00, 587.1, 121.5)">i</text><text xml:space="preserve" font-family="HelveticaNeue-Thin,Helvetica Neue" font-size="50.0" fill="#090502" transform="matrix(1.00, 0.00, -0.00, -1.00, 595.5, 121.5)">t</text><text xml:space="preserve" font-family="HelveticaNeue-Thin,Helvetica Neue" font-size="50.0" fill="#090502" transform="matrix(1.00, 0.00, -0.00, -1.00, 608.4, 121.5)"> </text><text xml:space="preserve" font-family="HelveticaNeue-Thin,Helvetica Neue" font-size="50.0" fill="#090502" transform="matrix(1.00, 0.00, -0.00, -1.00, 622.3, 121.5)">i</text><text xml:space="preserve" font-family="HelveticaNeue-Thin,Helvetica Neue" font-size="50.0" fill="#090502" transform="matrix(1.00, 0.00, -0.00, -1.00, 630.7, 121.5)">t</text><text xml:space="preserve" font-family="HelveticaNeue-Thin,Helvetica Neue" font-size="50.0" fill="#090502" transform="matrix(1.00, 0.00, -0.00, -1.00, 643.7, 121.5)">,</text><text xml:space="preserve" font-family="HelveticaNeue-Thin,Helvetica Neue" font-size="50.0" fill="#090502" transform="matrix(1.00, 0.00, -0.00, -1.00, 657.6, 121.5)"> </text><text xml:space="preserve" font-family="HelveticaNeue-Thin,Helvetica Neue" font-size="50.0" fill="#090502" transform="matrix(1.00, 0.00, -0.00, -1.00, 671.5, 121.5)">i</text><text xml:space="preserve" font-family="HelveticaNeue-Thin,Helvetica Neue" font-size="50.0" fill="#090502" transform="matrix(1.00, 0.00, -0.00, -1.00, 679.9, 121.5)">f</text><text xml:space="preserve" font-family="HelveticaNeue-Thin,Helvetica Neue" font-size="50.0" fill="#090502" transform="matrix(1.00, 0.00, -0.00, -1.00, 691.9, 121.5)"> </text><text xml:space="preserve" font-family="HelveticaNeue-Thin,Helvetica Neue" font-size="50.0" fill="#090502" transform="matrix(1.00, 0.00, -0.00, -1.00, 705.8, 121.5)">i</text><text xml:space="preserve" font-family="HelveticaNeue-Thin,Helvetica Neue" font-size="50.0" fill="#090502" transform="matrix(1.00, 0.00, -0.00, -1.00, 714.2, 121.5)">t</text><text xml:space="preserve" font-family="HelveticaNeue-Thin,Helvetica Neue" font-size="50.0" fill="#090502" transform="matrix(1.00, 0.00, -0.00, -1.00, 727.2, 121.5)"> </text><text xml:space="preserve" font-family="HelveticaNeue-Thin,Helvetica Neue" font-size="50.0" fill="#090502" transform="matrix(1.00, 0.00, -0.00, -1.00, 741.1, 121.5)">i</text><text xml:space="preserve" font-family="HelveticaNeue-Thin,Helvetica Neue" font-size="50.0" fill="#090502" transform="matrix(1.00, 0.00, -0.00, -1.00, 749.5, 121.5)">s</text><text xml:space="preserve" font-family="HelveticaNeue-Thin,Helvetica Neue" font-size="50.0" fill="#090502" transform="matrix(1.00, 0.00, -0.00, -1.00, 773.5, 121.5)"> </text><text xml:space="preserve" font-family="HelveticaNeue-Thin,Helvetica Neue" font-size="50.0" fill="#090502" transform="matrix(1.00, 0.00, -0.00, -1.00, 787.4, 121.5)">n</text><text xml:space="preserve" font-family="HelveticaNeue-Thin,Helvetica Neue" font-size="50.0" fill="#090502" transform="matrix(1.00, 0.00, -0.00, -1.00, 813.4, 121.5)">o</text><text xml:space="preserve" font-family="HelveticaNeue-Thin,Helvetica Neue" font-size="50.0" fill="#090502" transform="matrix(1.00, 0.00, -0.00, -1.00, 840.2, 121.5)">t</text><text xml:space="preserve" font-family="HelveticaNeue-Thin,Helvetica Neue" font-size="50.0" fill="#090502" transform="matrix(1.00, 0.00, -0.00, -1.00, 853.2, 121.5)">,</text><text xml:space="preserve" font-family="HelveticaNeue-Thin,Helvetica Neue" font-size="50.0" fill="#090502" transform="matrix(1.00, 0.00, -0.00, -1.00, 867.1, 121.5)"> </text><text xml:space="preserve" font-family="HelveticaNeue-Thin,Helvetica Neue" font-size="50.0" fill="#090502" transform="matrix(1.00, 0.00, -0.00, -1.00, 881.0, 121.5)">y</text><text xml:space="preserve" font-family="HelveticaNeue-Thin,Helvetica Neue" font-size="50.0" fill="#090502" transform="matrix(1.00, 0.00, -0.00, -1.00, 903.2, 121.5)">o</text><text xml:space="preserve" font-family="HelveticaNeue-Thin,Helvetica Neue" font-size="50.0" fill="#090502" transform="matrix(1.00, 0.00, -0.00, -1.00, 930.0, 121.5)">u</text><text xml:space="preserve" font-family="HelveticaNeue-Thin,Helvetica Neue" font-size="50.0" fill="#090502" transform="matrix(1.00, 0.00, -0.00, -1.00, 956.0, 121.5)"> </text><text xml:space="preserve" font-family="HelveticaNeue-Thin,Helvetica Neue" font-size="50.0" fill="#090502" transform="matrix(1.00, 0.00, -0.00, -1.00, 969.9, 121.5)">c</text><text xml:space="preserve" font-family="HelveticaNeue-Thin,Helvetica Neue" font-size="50.0" fill="#090502" transform="matrix(1.00, 0.00, -0.00, -1.00, 995.8, 121.5)">a</text><text xml:space="preserve" font-family="HelveticaNeue-Thin,Helvetica Neue" font-size="50.0" fill="#090502" transform="matrix(1.00, 0.00, -0.00, -1.00, 1020.8, 121.5)">n</text><text xml:space="preserve" font-family="HelveticaNeue-Thin,Helvetica Neue" font-size="50.0" fill="#090502" transform="matrix(1.00, 0.00, -0.00, -1.00, 1046.8, 121.5)"> </text><text xml:space="preserve" font-family="HelveticaNeue-Thin,Helvetica Neue" font-size="50.0" fill="#090502" transform="matrix(1.00, 0.00, -0.00, -1.00, 1060.7, 121.5)">a</text><text xml:space="preserve" font-family="HelveticaNeue-Thin,Helvetica Neue" font-size="50.0" fill="#090502" transform="matrix(1.00, 0.00, -0.00, -1.00, 1085.7, 121.5)">d</text><text xml:space="preserve" font-family="HelveticaNeue-Thin,Helvetica Neue" font-size="50.0" fill="#090502" transform="matrix(1.00, 0.00, -0.00, -1.00, 1113.5, 121.5)">d</text><text xml:space="preserve" font-family="HelveticaNeue-Thin,Helvetica Neue" font-size="50.0" fill="#090502" transform="matrix(1.00, 0.00, -0.00, -1.00, 1141.3, 121.5)"> </text><text xml:space="preserve" font-family="HelveticaNeue-Thin,Helvetica Neue" font-size="50.0" fill="#090502" transform="matrix(1.00, 0.00, -0.00, -1.00, 1155.2, 121.5)">i</text><text xml:space="preserve" font-family="HelveticaNeue-Thin,Helvetica Neue" font-size="50.0" fill="#090502" transform="matrix(1.00, 0.00, -0.00, -1.00, 1163.6, 121.5)">t</text><text xml:space="preserve" font-family="HelveticaNeue-Thin,Helvetica Neue" font-size="50.0" fill="#090502" transform="matrix(1.00, 0.00, -0.00, -1.00, 1176.6, 121.5)"> </text><text xml:space="preserve" font-family="HelveticaNeue-Thin,Helvetica Neue" font-size="50.0" fill="#090502" transform="matrix(1.00, 0.00, -0.00, -1.00, 286.3, 49.8)">a</text><text xml:space="preserve" font-family="HelveticaNeue-Thin,Helvetica Neue" font-size="50.0" fill="#090502" transform="matrix(1.00, 0.00, -0.00, -1.00, 311.3, 49.8)">n</text><text xml:space="preserve" font-family="HelveticaNeue-Thin,Helvetica Neue" font-size="50.0" fill="#090502" transform="matrix(1.00, 0.00, -0.00, -1.00, 337.2, 49.8)">d</text><text xml:space="preserve" font-family="HelveticaNeue-Thin,Helvetica Neue" font-size="50.0" fill="#090502" transform="matrix(1.00, 0.00, -0.00, -1.00, 365.1, 49.8)"> </text><text xml:space="preserve" font-family="HelveticaNeue-Thin,Helvetica Neue" font-size="50.0" fill="#090502" transform="matrix(1.00, 0.00, -0.00, -1.00, 379.0, 49.8)">e</text><text xml:space="preserve" font-family="HelveticaNeue-Thin,Helvetica Neue" font-size="50.0" fill="#090502" transform="matrix(1.00, 0.00, -0.00, -1.00, 404.9, 49.8)">d</text><text xml:space="preserve" font-family="HelveticaNeue-Thin,Helvetica Neue" font-size="50.0" fill="#090502" transform="matrix(1.00, 0.00, -0.00, -1.00, 432.7, 49.8)">i</text><text xml:space="preserve" font-family="HelveticaNeue-Thin,Helvetica Neue" font-size="50.0" fill="#090502" transform="matrix(1.00, 0.00, -0.00, -1.00, 441.1, 49.8)">t</text><text xml:space="preserve" font-family="HelveticaNeue-Thin,Helvetica Neue" font-size="50.0" fill="#090502" transform="matrix(1.00, 0.00, -0.00, -1.00, 454.1, 49.8)"> </text><text xml:space="preserve" font-family="HelveticaNeue-Thin,Helvetica Neue" font-size="50.0" fill="#090502" transform="matrix(1.00, 0.00, -0.00, -1.00, 468.0, 49.8)">a</text><text xml:space="preserve" font-family="HelveticaNeue-Thin,Helvetica Neue" font-size="50.0" fill="#090502" transform="matrix(1.00, 0.00, -0.00, -1.00, 493.0, 49.8)">f</text><text xml:space="preserve" font-family="HelveticaNeue-Thin,Helvetica Neue" font-size="50.0" fill="#090502" transform="matrix(1.00, 0.00, -0.00, -1.00, 505.0, 49.8)">t</text><text xml:space="preserve" font-family="HelveticaNeue-Thin,Helvetica Neue" font-size="50.0" fill="#090502" transform="matrix(1.00, 0.00, -0.00, -1.00, 517.2, 49.8)">e</text><text xml:space="preserve" font-family="HelveticaNeue-Thin,Helvetica Neue" font-size="50.0" fill="#090502" transform="matrix(1.00, 0.00, -0.00, -1.00, 543.2, 49.8)">r</text><text xml:space="preserve" font-family="HelveticaNeue-Thin,Helvetica Neue" font-size="50.0" fill="#090502" transform="matrix(1.00, 0.00, -0.00, -1.00, 554.7, 49.8)">.</text><text xml:space="preserve" font-family="HelveticaNeue-Thin,Helvetica Neue" font-size="50.0" fill="#090502" transform="matrix(1.00, 0.00, -0.00, -1.00, 568.6, 49.8)"> </text><text xml:space="preserve" font-family="HelveticaNeue-Thin,Helvetica Neue" font-size="50.0" fill="#090502" transform="matrix(1.00, 0.00, -0.00, -1.00, 582.5, 49.8)">Y</text><text xml:space="preserve" font-family="HelveticaNeue-Thin,Helvetica Neue" font-size="50.0" fill="#090502" transform="matrix(1.00, 0.00, -0.00, -1.00, 606.1, 49.8)">o</text><text xml:space="preserve" font-family="HelveticaNeue-Thin,Helvetica Neue" font-size="50.0" fill="#090502" transform="matrix(1.00, 0.00, -0.00, -1.00, 633.0, 49.8)">u</text><text xml:space="preserve" font-family="HelveticaNeue-Thin,Helvetica Neue" font-size="50.0" fill="#090502" transform="matrix(1.00, 0.00, -0.00, -1.00, 658.9, 49.8)"> </text><text xml:space="preserve" font-family="HelveticaNeue-Thin,Helvetica Neue" font-size="50.0" fill="#090502" transform="matrix(1.00, 0.00, -0.00, -1.00, 672.8, 49.8)">m</text><text xml:space="preserve" font-family="HelveticaNeue-Thin,Helvetica Neue" font-size="50.0" fill="#090502" transform="matrix(1.00, 0.00, -0.00, -1.00, 712.6, 49.8)">u</text><text xml:space="preserve" font-family="HelveticaNeue-Thin,Helvetica Neue" font-size="50.0" fill="#090502" transform="matrix(1.00, 0.00, -0.00, -1.00, 738.5, 49.8)">s</text><text xml:space="preserve" font-family="HelveticaNeue-Thin,Helvetica Neue" font-size="50.0" fill="#090502" transform="matrix(1.00, 0.00, -0.00, -1.00, 762.6, 49.8)">t</text><text xml:space="preserve" font-family="HelveticaNeue-Thin,Helvetica Neue" font-size="50.0" fill="#090502" transform="matrix(1.00, 0.00, -0.00, -1.00, 775.5, 49.8)"> </text><text xml:space="preserve" font-family="HelveticaNeue-Thin,Helvetica Neue" font-size="50.0" fill="#090502" transform="matrix(1.00, 0.00, -0.00, -1.00, 789.4, 49.8)">l</text><text xml:space="preserve" font-family="HelveticaNeue-Thin,Helvetica Neue" font-size="50.0" fill="#090502" transform="matrix(1.00, 0.00, -0.00, -1.00, 797.8, 49.8)">o</text><text xml:space="preserve" font-family="HelveticaNeue-Thin,Helvetica Neue" font-size="50.0" fill="#090502" transform="matrix(1.00, 0.00, -0.00, -1.00, 824.7, 49.8)">g</text><text xml:space="preserve" font-family="HelveticaNeue-Thin,Helvetica Neue" font-size="50.0" fill="#090502" transform="matrix(1.00, 0.00, -0.00, -1.00, 851.5, 49.8)"> </text><text xml:space="preserve" font-family="HelveticaNeue-Thin,Helvetica Neue" font-size="50.0" fill="#090502" transform="matrix(1.00, 0.00, -0.00, -1.00, 865.4, 49.8)">i</text><text xml:space="preserve" font-family="HelveticaNeue-Thin,Helvetica Neue" font-size="50.0" fill="#090502" transform="matrix(1.00, 0.00, -0.00, -1.00, 873.8, 49.8)">n</text><text xml:space="preserve" font-family="HelveticaNeue-Thin,Helvetica Neue" font-size="50.0" fill="#090502" transform="matrix(1.00, 0.00, -0.00, -1.00, 899.8, 49.8)">.</text></g></g></g></svg>