<?xml version="1.0" encoding="UTF-8" standalone="no"?><svg xmlns="http://www.w3.org/2000/svg" xmlns:xlink="http://www.w3.org/1999/xlink" clip-rule="evenodd" stroke-miterlimit="10" viewBox="0 0 914 140"><desc>SVG generated by Keynote</desc><defs></defs><g transform="matrix(1.00, 0.00, -0.00, -1.00, 0.0, 140.0)"><text xml:space="preserve" font-family="HelveticaNeue-Thin,Helvetica Neue" font-size="150.0" fill="#EBEAE9" transform="matrix(1.00, 0.00, -0.00, -1.00, 4.2, 29.6)">T</text><text xml:space="preserve" font-family="HelveticaNeue-Thin,Helvetica Neue" font-size="150.0" fill="#EBEAE9" transform="matrix(1.00, 0.00, -0.00, -1.00, 67.6, 29.6)">o</text><text xml:space="preserve" font-family="HelveticaNeue-Thin,Helvetica Neue" font-size="150.0" fill="#EBEAE9" transform="matrix(1.00, 0.00, -0.00, -1.00, 148.2, 29.6)">o</text><text xml:space="preserve" font-family="HelveticaNeue-Thin,Helvetica Neue" font-size="150.0" fill="#EBEAE9" transform="matrix(1.00, 0.00, -0.00, -1.00, 228.7, 29.6)">l</text><text xml:space="preserve" font-family="HelveticaNeue-Thin,Helvetica Neue" font-size="150.0" fill="#EBEAE9" transform="matrix(1.00, 0.00, -0.00, -1.00, 253.9, 29.6)">s</text><text xml:space="preserve" font-family="HelveticaNeue-Thin,Helvetica Neue" font-size="150.0" fill="#EBEAE9" transform="matrix(1.00, 0.00, -0.00, -1.00, 326.1, 29.6)"> </text><text xml:space="preserve" font-family="HelveticaNeue-Thin,Helvetica Neue" font-size="150.0" fill="#EBEAE9" transform="matrix(1.00, 0.00, -0.00, -1.00, 367.8, 29.6)">f</text><text xml:space="preserve" font-family="HelveticaNeue-Thin,Helvetica Neue" font-size="150.0" fill="#EBEAE9" transform="matrix(1.00, 0.00, -0.00, -1.00, 403.9, 29.6)">o</text><text xml:space="preserve" font-family="HelveticaNeue-Thin,Helvetica Neue" font-size="150.0" fill="#EBEAE9" transform="matrix(1.00, 0.00, -0.00, -1.00, 484.5, 29.6)">r</text><text xml:space="preserve" font-family="HelveticaNeue-Thin,Helvetica Neue" font-size="150.0" fill="#EBEAE9" transform="matrix(1.00, 0.00, -0.00, -1.00, 526.2, 29.6)"> </text><text xml:space="preserve" font-family="HelveticaNeue-Thin,Helvetica Neue" font-size="150.0" fill="#EBEAE9" transform="matrix(1.00, 0.00, -0.00, -1.00, 567.9, 29.6)">m</text><text xml:space="preserve" font-family="HelveticaNeue-Thin,Helvetica Neue" font-size="150.0" fill="#EBEAE9" transform="matrix(1.00, 0.00, -0.00, -1.00, 687.3, 29.6)">a</text><text xml:space="preserve" font-family="HelveticaNeue-Thin,Helvetica Neue" font-size="150.0" fill="#EBEAE9" transform="matrix(1.00, 0.00, -0.00, -1.00, 762.3, 29.6)">p</text><text xml:space="preserve" font-family="HelveticaNeue-Thin,Helvetica Neue" font-size="150.0" fill="#EBEAE9" transform="matrix(1.00, 0.00, -0.00, -1.00, 845.7, 29.6)">s</text></g></svg>