<?xml version="1.0" encoding="UTF-8" standalone="no"?><svg xmlns="http://www.w3.org/2000/svg" xmlns:xlink="http://www.w3.org/1999/xlink" clip-rule="evenodd" stroke-miterlimit="10" viewBox="0 0 1280 800"><desc>SVG generated by Keynote</desc><defs></defs><g transform="matrix(1.00, 0.00, -0.00, -1.00, 0.0, 800.0)"><path d="M 0.0 800.0 L 1280.0 800.0 L 1280.0 0.0 L 0.0 0.0 Z M 0.0 800.0 " fill="#BBB9B4"></path><g><clipPath id="clip0x6080016ab1c0"><path d="M 85.0 1732.0 L 1195.0 1732.0 L 1195.0 -932.0 L 85.0 -932.0 Z M 85.0 1732.0 "></path></clipPath><g clip-path="url(#clip0x6080016ab1c0)"><image xlink:href="../../114E4C45-93A0-4010-95CE-5BD649068928/assets/5A81A9B87CBB634C931680F3E2702229.png" width="1110.00" height="2664.00" transform="matrix(1.00, 0.00, -0.00, -1.00, 85.0, 1732.0)"></image></g></g><g opacity="0.00"><g><clipPath id="clip0x6080016ab4c0"><path d="M 530.8 307.3 L 655.0 307.3 L 655.0 431.5 L 530.8 431.5 Z M 530.8 307.3 "></path></clipPath><g clip-path="url(#clip0x6080016ab4c0)"><path d="M 61.3 10.5 C 75.3 24.5 75.3 47.3 61.3 61.3 C 47.3 75.3 24.5 75.3 10.5 61.3 C -3.5 47.3 -3.5 24.5 10.5 10.5 C 24.5 -3.5 47.3 -3.5 61.3 10.5 Z M 61.3 10.5 " fill="none" stroke="#EBEAE9" stroke-opacity="0.70" stroke-width="9.00" transform="matrix(1.50, 0.00, 0.00, -1.50, 539.0, 423.3)"></path></g></g><g><clipPath id="clip0x6080016ab700"><path d="M 554.1 330.5 L 631.7 330.5 L 631.7 408.2 L 554.1 408.2 Z M 554.1 330.5 "></path></clipPath><g clip-path="url(#clip0x6080016ab700)"><path d="M 34.8 6.0 C 42.8 13.9 42.8 26.9 34.8 34.8 C 26.9 42.8 13.9 42.8 6.0 34.8 C -2.0 26.9 -2.0 13.9 6.0 6.0 C 13.9 -2.0 26.9 -2.0 34.8 6.0 Z M 34.8 6.0 " fill="none" stroke="#EBEAE9" stroke-opacity="0.70" stroke-width="9.00" transform="matrix(1.50, 0.00, 0.00, -1.50, 562.3, 400.0)"></path></g></g></g></g></svg>