<?xml version="1.0" encoding="UTF-8" standalone="no"?><svg xmlns="http://www.w3.org/2000/svg" xmlns:xlink="http://www.w3.org/1999/xlink" clip-rule="evenodd" stroke-miterlimit="10" viewBox="0 0 1280 800"><desc>SVG generated by Keynote</desc><defs></defs><g transform="matrix(1.00, 0.00, -0.00, -1.00, 0.0, 800.0)"><path d="M 0.0 800.0 L 1280.0 800.0 L 1280.0 0.0 L 0.0 0.0 Z M 0.0 800.0 " fill="#BBB9B4"></path><g><clipPath id="clip0x6080010be180"><path d="M 85.0 1548.0 L 1195.0 1548.0 L 1195.0 -6.0 L 85.0 -6.0 Z M 85.0 1547.9 "></path></clipPath><g clip-path="url(#clip0x6080010be180)"><image xlink:href="../../D4FDA83C-CEAC-45C8-8ED6-1BA899631B4D/assets/057A30FB55F6EC610229D6CDB65921D4.png" width="1110.00" height="1554.00" transform="matrix(1.00, 0.00, -0.00, -1.00, 85.0, 1547.9)"></image></g></g><path d="M 384.3 539.3 C 384.1 539.4 383.9 539.5 383.5 539.5 C 383.7 539.6 383.8 539.7 383.8 539.8 C 384.1 539.7 384.5 539.5 385.1 539.5 C 385.1 539.4 384.8 539.5 384.6 539.5 C 384.3 539.5 384.3 539.4 384.3 539.3 C 384.3 539.3 384.3 539.3 384.3 539.3 Z M 375.2 588.0 C 374.7 587.8 375.2 588.3 375.3 588.4 C 375.4 588.3 375.4 588.3 375.6 588.4 C 375.6 588.6 375.1 588.5 374.8 588.5 C 373.5 587.9 374.6 587.8 375.2 588.0 C 375.2 588.0 375.2 588.0 375.2 588.0 Z M 448.3 594.1 C 449.4 593.9 448.2 593.8 448.0 593.7 C 448.5 593.6 448.0 593.2 448.6 593.0 C 448.8 593.1 449.0 593.2 449.2 593.3 C 448.9 593.4 448.5 593.4 448.4 593.5 C 448.8 593.5 449.4 593.3 449.5 593.5 C 448.6 593.7 449.4 593.8 449.6 593.9 C 448.8 594.1 448.6 594.4 448.3 594.1 C 448.3 594.1 448.3 594.1 448.3 594.1 Z M 470.9 555.1 C 471.2 555.3 471.5 555.5 471.3 555.6 C 470.9 555.4 470.7 555.1 470.5 554.9 C 470.4 555.0 470.4 555.2 470.1 555.0 C 469.9 554.5 470.3 554.4 470.6 554.3 C 470.4 554.6 471.7 555.4 470.9 555.1 C 470.9 555.1 470.9 555.1 470.9 555.1 Z M 441.2 543.5 C 440.2 543.1 441.0 543.9 440.0 543.5 C 440.1 543.3 440.0 542.9 440.7 543.1 C 440.7 543.2 441.1 543.3 441.2 543.5 C 441.2 543.5 441.2 543.5 441.2 543.5 Z M 417.2 593.5 C 417.2 593.7 418.0 593.7 417.8 594.0 C 417.4 594.0 417.1 593.9 416.7 593.9 C 416.6 593.7 416.7 593.5 417.2 593.5 C 417.2 593.5 417.2 593.5 417.2 593.5 Z M 455.0 589.6 C 456.2 589.7 457.2 588.9 456.9 589.3 C 457.4 589.5 456.4 590.4 456.4 590.0 C 456.2 589.7 454.2 589.9 455.0 589.6 C 455.0 589.6 455.0 589.6 455.0 589.6 Z M 382.4 585.0 C 383.5 585.6 383.5 584.7 384.1 585.3 C 383.9 585.2 383.7 585.3 383.6 585.3 C 383.8 585.4 384.1 585.5 384.0 585.6 C 383.5 585.5 382.8 585.4 382.4 585.0 C 382.4 585.0 382.4 585.0 382.4 585.0 Z M 402.9 538.4 C 403.1 538.3 403.2 538.3 403.2 538.2 C 404.1 538.2 404.1 538.0 404.6 538.1 C 404.7 538.5 403.9 538.4 403.2 538.4 C 403.2 538.4 403.0 538.5 402.9 538.4 C 402.9 538.4 402.9 538.4 402.9 538.4 Z M 427.8 540.9 C 427.8 540.6 427.3 540.5 428.2 540.5 C 429.0 541.0 428.2 541.1 427.2 541.2 C 427.2 541.3 427.2 541.5 427.2 541.6 C 427.5 541.6 427.8 541.7 428.0 541.8 C 428.2 541.4 428.7 542.3 430.2 542.2 C 429.5 542.3 430.2 542.8 429.3 542.5 C 429.5 542.8 428.9 542.7 429.0 542.9 C 429.4 542.8 430.3 543.0 430.1 542.6 C 430.6 542.7 431.0 542.8 431.2 542.9 C 431.5 543.3 430.3 542.8 430.6 543.2 C 430.9 543.2 430.9 543.3 431.1 543.4 C 431.2 543.3 431.1 543.1 431.4 543.1 C 432.3 543.4 431.2 543.5 432.5 543.7 C 432.6 543.5 432.2 543.4 432.3 543.2 C 432.9 543.2 432.8 543.4 433.4 543.3 C 433.5 543.5 432.9 543.5 433.3 543.6 C 433.7 543.2 434.4 544.1 435.2 543.9 C 434.8 543.1 435.3 544.0 436.1 543.5 C 436.3 543.7 435.7 544.1 436.3 544.2 C 436.2 543.4 438.6 544.1 436.8 543.1 C 437.8 543.3 438.3 542.7 437.5 542.5 C 439.2 543.0 438.7 542.5 439.4 542.6 C 440.1 542.8 439.0 542.7 439.3 543.0 C 438.6 542.8 438.8 543.0 438.3 542.8 C 438.2 542.9 438.1 542.9 437.9 543.0 C 438.7 542.9 439.5 543.6 438.9 543.8 C 438.5 543.7 438.9 543.4 438.4 543.3 C 438.5 543.8 437.9 543.1 437.8 543.4 C 438.1 543.8 437.0 544.0 438.0 544.2 C 438.0 544.1 438.0 543.9 438.1 543.7 C 438.3 543.8 438.6 543.8 438.9 543.9 C 439.0 544.2 438.8 544.4 439.0 544.6 C 439.4 544.7 439.7 544.6 439.9 544.5 C 439.3 544.3 438.7 543.9 439.7 544.1 C 439.2 544.6 440.9 544.5 440.1 544.7 C 441.0 545.1 441.6 544.7 441.6 545.1 C 442.1 545.3 441.9 544.9 442.5 545.0 C 443.4 545.5 443.3 545.1 444.5 545.7 C 444.8 545.2 444.6 545.8 445.0 545.9 C 445.1 545.7 445.1 545.6 445.1 545.4 C 445.5 545.8 446.5 546.2 447.6 546.2 C 447.9 546.4 447.6 546.6 448.3 546.7 C 449.2 546.5 449.9 547.2 450.9 547.1 C 450.9 547.3 451.5 547.5 451.8 547.5 C 451.9 547.7 451.4 547.9 451.9 548.1 C 452.4 547.9 451.8 547.6 452.5 547.8 C 452.4 548.0 453.3 547.8 453.2 548.1 C 453.0 548.1 452.7 548.1 452.4 548.1 C 452.7 548.3 452.6 548.4 452.8 548.5 C 452.9 548.1 453.4 548.6 453.5 548.8 C 453.6 548.6 453.7 548.5 453.9 548.5 C 454.3 548.6 454.7 548.7 454.9 548.7 C 455.4 549.0 454.5 548.8 455.0 549.1 C 455.5 548.4 455.7 549.4 457.0 549.4 C 457.1 549.7 457.5 550.0 458.2 550.3 C 458.3 550.2 457.6 550.0 457.6 549.8 C 458.6 550.3 457.5 549.5 458.2 549.8 C 459.5 550.5 459.7 550.5 461.9 551.9 C 461.9 551.7 463.8 552.4 463.7 552.5 C 463.2 552.3 464.5 553.3 465.1 553.7 C 465.6 553.4 466.8 553.6 467.0 553.4 C 467.1 553.7 467.1 553.7 467.0 554.2 C 468.0 555.0 468.8 555.0 469.1 555.8 C 469.2 555.6 469.7 555.8 470.2 556.1 C 469.9 556.2 469.6 556.2 469.3 556.2 C 469.8 556.5 469.8 556.7 470.3 557.0 C 471.2 556.6 471.3 558.0 472.1 557.7 C 472.8 558.2 472.5 558.3 473.1 558.9 C 473.2 558.7 473.3 558.7 473.5 558.8 C 473.1 558.5 472.7 558.4 472.6 558.0 C 473.6 558.7 471.4 555.8 473.2 556.9 C 473.1 557.0 472.9 557.1 473.2 557.4 C 474.1 558.0 473.8 557.3 473.4 557.1 C 474.1 557.4 474.6 558.0 474.4 557.4 C 475.7 558.4 474.8 557.9 475.1 558.4 C 477.4 560.3 479.7 563.1 480.5 566.5 C 480.9 566.5 481.0 568.4 480.9 569.0 C 481.3 569.9 481.4 571.0 481.0 571.2 C 481.4 571.4 480.7 572.4 481.0 572.5 C 481.1 572.1 481.2 571.8 481.3 572.3 C 480.9 573.6 480.2 575.6 480.2 576.4 C 479.6 576.7 479.3 577.6 479.1 578.2 C 478.9 578.2 479.1 577.7 478.9 578.0 C 479.0 578.3 478.4 579.5 478.0 579.6 C 478.3 579.3 478.2 578.7 477.8 579.2 C 478.0 579.3 477.5 579.8 477.8 579.9 C 477.2 580.5 477.0 581.0 476.3 581.4 C 476.7 580.9 476.9 580.6 476.8 580.4 C 476.6 580.8 476.4 581.2 475.9 581.3 C 476.3 581.6 475.5 582.0 474.9 582.7 C 474.6 582.8 474.4 582.8 473.8 583.2 C 473.7 583.7 474.9 582.8 474.3 583.4 C 474.2 583.2 473.5 583.6 473.9 583.7 C 473.0 584.2 472.6 584.7 471.8 585.0 C 472.8 584.5 471.8 584.5 471.6 584.6 C 471.4 584.8 471.1 585.0 471.1 585.0 C 471.2 585.1 471.6 584.8 471.7 584.9 C 471.0 585.2 471.1 585.7 470.7 585.6 C 471.0 585.4 471.0 585.3 470.6 585.5 C 470.8 585.9 468.6 586.7 469.2 586.2 C 469.3 586.3 470.0 585.8 470.1 585.7 C 469.8 585.7 468.7 586.5 468.8 586.0 C 469.4 585.6 469.5 585.9 470.2 585.4 C 470.2 585.1 470.6 584.8 470.8 584.5 C 469.7 585.3 469.5 585.7 469.2 585.5 C 468.7 585.8 469.2 585.9 468.2 586.4 C 466.8 587.0 467.8 586.1 467.4 586.2 C 466.3 587.0 466.8 587.2 467.5 587.2 C 466.5 587.6 466.3 588.0 465.0 588.4 C 465.0 588.2 465.1 588.0 465.5 587.8 C 465.6 587.8 466.7 587.6 466.5 587.4 C 466.2 587.1 465.3 587.3 464.0 587.8 C 464.4 588.0 464.4 587.8 463.0 588.4 C 463.4 588.7 462.3 588.5 462.4 588.8 C 462.5 588.9 463.0 588.7 463.4 588.5 C 463.5 588.7 463.4 588.9 462.9 589.1 C 462.6 589.1 462.4 589.4 461.5 589.6 C 461.3 589.4 461.9 589.1 462.0 588.9 C 461.5 589.0 461.5 589.2 461.0 589.4 C 460.5 589.3 460.4 588.9 460.3 588.5 C 460.8 588.2 461.7 587.9 460.9 588.0 C 462.9 587.2 460.9 588.4 461.7 588.2 C 462.5 587.5 462.2 588.2 463.5 587.6 C 463.9 587.5 464.0 587.3 464.1 587.2 C 464.0 587.2 463.1 587.2 463.9 586.8 C 464.2 586.9 464.7 586.9 465.4 586.6 C 465.3 586.5 463.9 586.9 465.2 586.4 C 465.9 586.1 465.5 586.7 466.3 586.3 C 466.3 586.2 466.5 586.1 466.5 586.0 C 465.3 586.6 466.7 585.6 465.8 585.9 C 466.8 585.2 466.1 586.1 466.8 585.7 C 466.7 585.5 468.0 585.3 467.8 585.0 C 467.5 585.3 466.6 585.7 466.6 585.4 C 467.4 585.1 470.5 583.0 469.5 584.1 C 469.9 583.7 471.7 582.0 471.7 582.2 C 471.1 582.6 471.2 582.8 471.2 583.0 C 472.2 581.9 472.9 581.7 473.7 580.5 C 472.5 581.5 473.0 580.3 472.2 580.7 C 471.9 581.0 471.4 581.3 471.4 581.4 C 471.7 581.6 472.2 581.1 472.3 580.8 C 472.4 581.0 472.6 581.2 472.8 581.4 C 471.2 582.3 470.5 583.1 469.7 583.4 C 470.4 583.0 468.3 583.8 469.0 583.3 C 469.4 583.3 470.2 582.8 470.8 582.5 C 470.8 582.4 470.7 582.3 470.7 582.2 C 470.9 582.0 471.3 581.8 471.3 581.7 C 470.5 582.3 469.9 582.3 469.4 582.9 C 469.4 582.9 469.4 582.8 469.3 582.7 C 469.2 582.8 469.0 582.9 469.0 582.8 C 469.3 582.6 469.7 582.4 469.7 582.3 C 469.0 582.6 468.8 582.4 468.0 582.8 C 468.0 582.4 466.9 582.6 467.8 581.9 C 468.2 582.1 468.8 581.8 468.8 582.0 C 469.2 581.9 469.7 581.5 469.9 581.1 C 469.5 581.2 468.9 581.5 468.7 581.2 C 469.2 580.9 469.4 580.6 469.9 580.6 C 469.1 581.3 470.5 580.5 471.0 580.5 C 470.8 580.4 470.6 580.5 470.4 580.5 C 471.1 580.0 471.5 579.9 471.2 579.6 C 471.9 578.8 472.0 579.3 472.4 578.8 C 471.8 578.8 472.6 578.4 472.0 578.4 C 472.7 577.6 472.5 578.4 472.8 578.2 C 473.0 578.0 472.9 577.8 473.1 577.6 C 473.5 577.4 474.1 576.8 474.4 576.9 C 474.6 576.6 474.8 576.6 475.0 576.3 C 474.9 576.2 474.9 576.0 474.9 575.9 C 475.0 575.9 475.3 575.7 475.2 575.6 C 474.3 576.2 474.5 575.9 473.6 576.5 C 473.7 576.7 473.6 576.8 473.8 576.7 C 473.4 577.3 473.1 577.3 472.7 577.8 C 472.5 577.7 472.1 577.5 471.8 578.1 C 471.7 577.8 471.5 577.9 471.6 577.6 C 472.0 577.5 472.4 577.3 472.7 577.1 C 472.7 576.9 472.5 576.9 472.6 576.7 C 472.9 576.7 473.2 576.5 473.2 576.2 C 473.3 576.3 473.3 576.4 473.3 576.5 C 474.0 575.9 473.4 575.9 474.0 575.5 C 473.8 575.4 473.5 575.8 473.6 575.4 C 473.8 574.9 474.0 574.9 474.2 574.7 C 474.2 574.6 474.1 574.6 474.1 574.4 C 474.5 574.2 474.2 575.5 474.9 575.0 C 474.7 574.8 475.1 574.3 475.3 574.3 C 475.4 574.6 474.9 574.8 475.1 574.9 C 475.7 573.8 475.6 575.1 476.2 573.9 C 476.1 573.9 476.0 573.8 475.8 573.8 C 475.7 574.3 475.4 574.2 475.2 574.1 C 475.0 574.4 474.6 574.4 474.6 574.9 C 474.1 574.4 474.7 574.5 474.9 574.1 C 474.7 574.0 474.5 574.4 474.2 574.3 C 474.9 573.5 474.5 573.2 475.2 572.5 C 474.8 572.6 475.2 572.0 474.9 572.0 C 474.9 572.7 474.1 572.3 474.0 572.3 C 473.9 572.8 474.5 572.7 474.6 573.1 C 474.3 573.1 474.1 573.0 473.7 572.8 C 474.0 572.5 473.9 572.5 473.8 572.2 C 474.1 572.0 474.7 571.9 474.8 572.3 C 474.8 572.2 474.7 571.6 474.9 571.6 C 474.8 572.1 475.1 571.6 475.2 571.9 C 475.4 571.5 475.1 570.8 475.3 570.3 C 475.1 570.3 475.1 570.1 474.9 570.2 C 475.2 570.6 474.6 570.8 474.5 571.2 C 474.5 571.0 474.3 571.1 474.2 571.2 C 474.4 570.8 474.1 570.6 474.4 570.2 C 474.3 570.2 474.2 570.2 474.1 570.3 C 474.3 569.7 474.2 569.8 473.8 569.4 C 474.0 569.2 474.5 569.3 474.9 569.3 C 474.7 569.1 474.5 568.3 474.3 568.9 C 474.2 568.4 474.6 568.4 474.4 567.9 C 474.1 568.0 474.3 568.5 473.9 568.4 C 473.6 568.0 474.1 568.1 473.7 567.9 C 474.0 567.7 474.2 567.6 474.0 567.2 C 473.9 567.6 473.9 567.2 473.6 567.2 C 473.7 567.4 473.7 567.6 473.7 567.7 C 473.4 567.0 473.3 566.8 472.9 566.3 C 473.3 566.3 473.1 565.9 473.5 566.2 C 473.1 566.0 473.1 565.2 472.8 565.1 C 472.9 565.5 473.2 565.9 473.1 566.1 C 472.2 564.9 471.4 564.5 470.6 563.1 C 470.8 563.3 471.0 563.6 471.1 563.5 C 471.0 563.4 470.8 563.2 470.9 563.1 C 471.3 563.5 471.6 563.9 471.9 564.0 C 472.1 564.5 471.5 564.0 471.8 564.4 C 472.0 564.3 472.4 565.1 472.5 564.6 C 471.8 564.2 471.5 563.4 471.5 562.8 C 470.5 562.6 471.1 563.1 470.1 562.9 C 470.2 562.8 470.1 562.6 469.9 562.4 C 469.8 562.9 469.1 561.9 469.0 561.8 C 469.5 562.0 470.9 562.9 470.5 562.1 C 470.3 562.9 469.1 560.6 469.1 561.4 C 468.2 560.7 468.7 560.6 468.0 560.5 C 468.1 560.4 468.2 560.3 468.0 560.1 C 467.7 559.9 467.5 560.0 467.4 559.9 C 468.7 561.1 468.0 561.1 468.8 561.8 C 468.6 561.7 468.5 561.6 468.5 561.7 C 468.4 561.7 468.4 561.7 468.2 561.6 C 468.4 561.2 467.5 561.1 467.5 560.8 C 467.8 561.0 468.0 561.1 468.0 560.9 C 466.9 560.2 467.4 560.0 465.7 558.7 C 466.1 559.2 465.4 558.8 464.8 558.5 C 463.9 557.9 464.5 557.7 463.3 557.0 C 463.0 557.8 462.1 556.3 460.3 555.9 C 460.7 555.6 459.1 554.7 458.7 554.9 C 458.7 554.8 458.2 554.6 457.9 554.5 C 457.9 554.3 458.3 554.4 458.0 554.2 C 457.7 554.1 457.9 554.5 457.5 554.4 C 457.1 554.1 457.3 553.8 456.6 553.6 C 456.5 553.8 456.9 553.9 456.4 553.9 C 455.9 553.6 455.3 553.4 455.7 553.9 C 454.8 553.5 455.4 553.2 454.6 552.9 C 454.8 553.1 454.7 553.2 454.3 553.1 C 454.0 552.7 454.0 552.6 454.0 552.4 C 453.6 552.6 453.7 552.7 453.0 552.3 C 453.0 552.4 452.9 552.5 452.9 552.7 C 452.6 552.5 452.1 552.4 452.0 552.3 C 452.6 552.5 452.5 552.2 452.8 552.2 C 452.2 551.9 451.1 551.2 451.9 551.9 C 451.0 551.7 451.5 551.5 450.8 551.3 C 451.1 551.8 450.8 551.4 450.1 551.2 C 450.0 551.6 449.6 551.1 449.1 551.0 C 449.1 551.2 449.0 551.3 448.5 551.2 C 448.6 551.0 448.4 550.9 447.9 550.8 C 447.8 550.9 448.8 551.4 447.8 551.1 C 447.4 550.8 447.5 550.5 446.7 550.2 C 446.6 549.9 447.5 550.2 447.4 549.9 C 446.7 550.0 446.5 549.7 445.7 549.4 C 445.9 550.0 443.6 549.6 444.6 550.2 C 444.3 550.1 443.8 550.3 443.6 550.0 C 444.0 550.0 443.5 549.6 443.5 549.5 C 443.1 549.5 442.1 549.0 442.0 549.3 C 443.0 549.4 442.9 549.7 443.1 550.0 C 441.7 549.8 440.5 549.4 440.7 549.0 C 440.7 549.1 440.5 549.1 440.4 549.2 C 440.9 549.2 441.1 549.8 440.5 549.7 C 440.7 549.4 440.3 549.3 439.9 549.1 C 439.8 549.3 438.0 548.5 438.3 549.0 C 439.1 548.9 439.6 549.5 439.0 549.6 C 438.6 549.2 437.6 548.8 437.9 548.6 C 437.6 548.6 437.3 548.7 437.0 548.7 C 436.7 549.0 437.3 549.1 437.2 549.3 C 436.8 549.2 436.2 549.1 436.2 549.0 C 437.2 549.1 435.7 548.7 436.8 548.7 C 436.1 548.6 436.0 548.4 435.5 548.2 C 435.5 548.3 435.3 548.3 435.2 548.4 C 435.7 548.3 436.1 548.5 435.9 548.8 C 435.0 548.7 435.2 548.4 434.4 548.2 C 434.2 548.4 433.0 548.6 432.5 548.3 C 433.6 548.5 432.5 548.1 433.1 548.1 C 434.0 548.4 434.3 548.2 434.7 548.0 C 434.4 547.7 433.6 547.5 433.4 547.8 C 433.9 548.0 433.9 547.8 434.2 547.8 C 434.2 548.0 434.0 548.1 433.6 548.1 C 433.2 547.8 432.2 547.8 432.9 547.5 C 432.2 547.6 431.5 547.2 430.8 547.3 C 431.6 547.4 432.1 547.7 432.3 547.9 C 431.6 548.0 431.1 547.5 431.0 547.7 C 431.0 548.0 432.1 548.1 432.2 548.3 C 431.4 548.5 430.2 547.4 431.2 548.3 C 430.7 548.1 430.1 548.0 429.9 547.8 C 430.5 547.9 429.9 547.4 429.7 547.3 C 429.2 547.2 428.8 547.2 428.6 547.3 C 429.4 547.3 429.9 547.8 429.3 547.8 C 429.2 547.6 429.1 547.8 428.8 547.8 C 428.8 547.6 427.9 547.6 427.8 547.4 C 427.8 547.6 428.2 547.7 428.3 547.8 C 427.7 547.8 427.0 548.2 426.6 547.7 C 427.0 547.7 427.4 547.8 427.4 547.7 C 426.1 547.1 425.7 546.6 424.1 546.3 C 424.3 546.3 424.4 546.2 424.4 546.1 C 423.3 545.9 422.6 545.7 422.8 545.5 C 422.1 545.5 421.8 545.6 421.4 545.8 C 422.1 546.0 422.3 545.7 422.7 546.0 C 422.5 546.0 423.2 546.7 423.5 546.9 C 424.7 546.7 424.7 547.2 425.9 547.2 C 425.5 547.5 426.7 547.4 426.4 547.6 C 425.3 547.0 424.2 547.3 422.6 546.9 C 422.9 546.7 423.1 546.5 422.4 546.3 C 421.4 546.0 421.9 546.5 421.0 546.3 C 420.7 546.0 421.2 546.0 420.8 545.9 C 420.5 546.0 419.7 545.9 419.5 545.6 C 420.6 545.7 419.3 545.3 420.0 545.2 C 419.7 545.2 419.5 545.1 419.2 545.1 C 420.3 545.5 418.1 545.4 418.9 545.7 C 417.4 545.8 418.8 545.0 417.6 544.9 C 418.2 545.2 417.4 545.3 416.5 545.2 C 416.2 544.8 415.3 544.7 414.6 544.5 C 415.0 544.8 415.2 544.8 414.5 544.9 C 414.9 545.1 415.6 545.1 415.9 545.0 C 415.9 545.2 416.0 545.3 416.2 545.3 C 415.3 545.3 415.6 545.5 415.3 545.6 C 415.1 545.4 414.4 545.4 414.3 545.2 C 414.3 545.3 414.0 545.3 414.0 545.4 C 415.1 545.5 413.8 545.8 414.5 545.9 C 415.0 546.0 414.7 545.6 415.3 545.7 C 415.9 546.1 414.8 546.1 414.5 546.3 C 415.0 546.6 415.6 546.2 415.8 546.6 C 415.1 546.9 414.0 546.6 413.1 546.5 C 413.1 546.9 411.6 546.3 411.4 546.8 C 411.3 546.7 411.2 546.6 410.9 546.5 C 410.7 546.8 410.4 546.4 410.1 546.4 C 410.1 546.6 410.2 546.7 410.4 546.8 C 409.3 546.6 409.0 546.6 407.7 546.7 C 407.5 546.5 407.2 546.4 407.1 546.1 C 407.4 546.1 407.7 546.0 408.0 545.9 C 406.2 545.9 407.3 546.7 406.1 546.2 C 406.1 546.4 407.0 546.7 406.3 546.8 C 405.2 546.5 403.6 546.8 403.6 546.0 C 402.6 545.7 402.0 546.3 401.5 545.9 C 401.2 545.9 401.1 546.0 401.0 546.1 C 401.3 546.3 401.7 546.4 402.0 546.6 C 402.6 546.4 402.9 546.7 402.3 546.3 C 403.2 546.2 403.4 546.4 403.9 546.6 C 402.7 546.8 401.6 546.6 401.5 547.0 C 401.1 546.8 400.8 546.6 400.4 546.5 C 400.3 546.7 399.0 546.8 398.9 546.5 C 399.8 546.6 400.7 546.2 399.9 546.0 C 397.6 546.3 396.3 545.8 394.4 546.3 C 394.3 546.2 394.5 546.0 394.1 546.0 C 394.1 546.1 394.1 546.3 393.9 546.4 C 393.3 546.4 392.9 546.3 392.1 546.5 C 392.1 546.2 391.9 546.0 391.5 545.9 C 391.3 546.2 390.5 546.9 390.0 546.9 C 390.5 546.8 389.9 546.5 389.5 546.6 C 389.9 546.9 387.2 546.5 388.0 546.8 C 387.0 547.0 386.5 546.9 386.5 546.8 C 386.1 546.9 385.9 547.0 385.5 547.1 C 385.3 546.7 383.6 547.4 383.3 547.2 C 383.9 547.2 384.0 546.7 383.5 546.9 C 383.2 547.2 381.7 547.7 381.5 547.7 C 381.5 547.5 381.6 547.2 382.3 547.0 C 381.0 547.2 381.1 547.6 380.8 548.0 C 380.8 547.6 380.3 548.1 380.1 548.2 C 379.7 548.1 380.1 548.0 380.0 547.8 C 379.6 547.8 379.4 547.7 378.8 547.8 C 379.1 548.1 378.4 548.1 378.2 548.1 C 378.1 548.3 377.8 548.6 377.4 548.7 C 377.9 548.0 374.4 548.9 375.3 549.1 C 374.7 549.5 374.6 548.9 373.7 549.2 C 373.6 549.5 373.1 549.5 373.6 549.6 C 373.0 549.9 373.1 549.4 371.8 550.0 C 372.5 550.1 370.5 550.3 371.0 550.7 C 370.3 550.4 369.5 551.4 368.4 551.4 C 368.4 551.5 368.2 551.6 368.2 551.7 C 368.1 551.9 369.4 551.4 368.6 551.8 C 367.5 552.1 368.0 551.7 367.8 551.6 C 365.2 552.9 362.5 554.3 360.7 555.6 C 361.0 555.6 361.1 555.7 360.7 556.0 C 359.9 555.9 358.4 557.8 358.3 558.2 C 357.9 558.1 357.6 559.2 357.4 559.2 C 357.5 559.1 357.4 558.5 357.2 558.9 C 357.4 559.3 357.0 559.5 357.0 559.9 C 356.6 559.9 356.5 561.1 356.1 560.4 C 356.0 560.6 356.0 560.7 355.9 560.8 C 356.2 560.9 356.1 561.1 356.4 560.8 C 355.8 561.6 356.1 561.9 355.7 562.6 C 355.9 562.8 356.1 562.2 356.1 562.7 C 356.0 562.6 356.0 562.6 355.9 562.6 C 355.9 562.8 356.0 562.8 355.9 562.9 C 355.7 562.9 355.8 562.6 355.4 562.6 C 355.5 562.9 355.0 563.1 355.3 563.3 C 355.4 562.8 355.9 563.2 355.6 563.4 C 355.5 563.2 355.7 564.6 356.0 565.0 C 355.6 565.3 355.8 564.5 355.6 564.6 C 355.8 565.5 355.7 565.4 356.1 565.4 C 356.1 565.9 355.9 566.2 356.3 566.6 C 356.3 567.0 356.0 566.5 356.1 566.9 C 356.3 567.1 356.5 567.1 356.7 567.4 C 356.5 568.5 358.8 570.0 359.0 571.7 C 358.8 571.1 359.4 571.6 360.0 572.1 C 359.9 572.2 359.7 572.3 359.9 572.5 C 360.1 572.3 360.3 572.4 360.7 572.8 C 360.7 572.9 360.5 573.0 360.7 573.2 C 361.1 573.1 361.4 573.8 361.9 573.9 C 361.8 574.3 361.0 573.4 360.8 573.5 C 361.7 574.6 362.1 574.5 363.0 575.2 C 362.5 574.9 363.1 575.7 363.2 575.9 C 363.2 575.5 364.0 575.9 363.6 575.4 C 364.0 575.6 364.6 575.9 364.6 576.1 C 364.4 576.0 364.0 575.8 364.0 575.8 C 364.5 576.1 364.9 576.8 365.3 576.7 C 365.0 576.5 364.8 576.3 364.9 576.1 C 365.1 576.1 365.3 576.1 365.6 576.2 C 364.5 576.4 366.9 577.5 367.2 577.4 C 367.2 577.9 367.3 578.0 367.1 578.1 C 368.1 578.8 368.2 578.4 368.9 578.6 C 368.5 578.8 368.1 579.0 369.1 579.7 C 369.1 579.2 370.3 579.9 370.1 579.3 C 372.9 580.5 372.5 580.8 373.5 581.2 C 373.6 581.1 373.3 580.9 373.6 581.0 C 374.1 581.3 374.4 581.6 374.7 581.9 C 375.1 581.8 374.7 581.6 375.1 581.6 C 375.8 582.2 375.4 582.5 376.1 583.0 C 377.1 583.1 376.7 583.1 377.3 583.0 C 377.1 582.9 376.8 582.7 377.2 582.8 C 377.6 583.2 377.7 583.6 377.8 583.8 C 377.4 583.6 377.1 583.5 377.0 583.3 C 376.8 583.5 376.2 583.3 376.6 583.6 C 376.1 583.3 375.4 583.0 374.6 582.7 C 374.8 583.1 373.9 582.5 374.0 582.9 C 375.0 583.2 375.1 583.5 376.0 583.8 C 375.9 583.4 376.8 583.9 376.9 584.1 C 377.0 583.9 377.6 584.2 377.6 583.9 C 378.3 584.1 378.2 584.3 378.9 584.4 C 378.9 584.6 378.8 584.7 379.0 584.8 C 379.4 584.6 379.5 585.1 379.7 585.1 C 379.6 584.8 380.6 585.3 380.8 585.1 C 380.5 585.0 380.1 584.9 380.1 584.8 C 381.2 585.2 380.4 584.6 380.2 584.3 C 380.3 584.4 379.7 584.7 379.7 584.4 C 380.7 584.5 378.5 583.5 379.3 583.9 C 380.0 584.2 380.1 583.9 380.8 584.3 C 381.5 585.1 380.4 585.0 381.1 585.7 C 381.7 585.7 382.1 585.8 382.2 585.6 C 382.3 585.7 382.4 585.9 382.6 586.0 C 382.9 585.9 382.0 585.5 382.7 585.6 C 383.1 585.8 382.5 586.1 383.3 586.2 C 383.7 586.1 382.5 585.6 383.2 585.8 C 383.8 586.4 383.1 585.6 384.0 585.8 C 384.0 585.9 384.2 586.0 384.5 586.0 C 384.5 586.2 384.3 586.4 384.6 586.5 C 384.9 586.0 384.9 586.8 385.6 586.9 C 386.0 586.6 384.9 586.5 385.2 586.2 C 385.9 586.8 386.4 586.5 386.7 586.6 C 386.0 586.7 387.6 587.1 387.6 587.4 C 387.5 587.0 387.8 587.2 388.7 587.2 C 388.6 587.7 389.7 587.6 389.9 588.1 C 390.0 587.9 390.3 587.9 390.5 587.8 C 390.2 587.7 389.9 587.6 390.0 587.5 C 390.3 587.5 390.5 587.6 390.8 587.7 C 391.2 588.0 389.9 588.4 391.6 588.7 C 391.5 588.2 392.3 588.3 392.8 588.3 C 392.8 588.0 392.1 588.2 392.1 587.9 C 392.7 587.8 393.3 588.2 393.6 588.5 C 394.6 588.5 395.8 589.0 397.3 589.1 C 397.6 589.4 396.0 589.1 397.0 589.4 C 397.4 589.5 397.2 589.2 397.8 589.4 C 397.1 590.6 401.8 590.3 402.0 590.9 C 402.3 590.6 403.6 591.0 403.5 590.6 C 402.6 590.7 402.0 590.3 401.6 590.0 C 400.8 590.1 402.3 590.4 401.5 590.4 C 401.5 590.2 400.4 590.2 400.5 589.9 C 401.7 590.1 399.9 589.6 400.9 589.4 C 401.9 589.6 404.1 589.6 403.6 589.9 C 403.6 589.8 403.1 589.7 403.0 589.8 C 404.2 590.1 405.0 590.0 405.5 589.8 C 406.1 590.1 408.3 590.0 407.7 590.1 C 407.9 590.4 406.4 589.9 406.6 590.2 C 408.9 590.5 408.9 590.3 410.4 590.7 C 410.0 590.3 412.1 590.3 411.9 590.4 C 411.8 590.7 412.3 591.0 413.2 590.7 C 413.1 591.0 413.6 591.1 414.0 591.3 C 414.3 591.0 413.6 591.0 413.8 590.7 C 414.2 590.8 414.7 590.8 415.2 590.8 C 415.2 591.0 415.1 591.1 415.4 591.1 C 416.0 591.0 417.8 590.8 417.7 591.0 C 416.9 591.3 418.9 591.4 417.6 591.6 C 418.0 591.6 418.0 591.7 418.5 591.7 C 418.5 591.6 418.5 591.4 418.5 591.3 C 419.5 591.3 419.0 591.8 419.8 591.8 C 419.9 591.7 420.3 591.7 420.4 591.6 C 420.1 591.6 420.0 591.7 419.6 591.6 C 420.1 591.2 418.7 591.3 418.8 591.0 C 419.7 591.0 419.7 591.3 420.1 591.5 C 421.4 591.3 420.8 591.4 422.1 591.5 C 422.1 591.4 421.7 591.4 421.8 591.2 C 423.4 591.3 423.2 591.9 424.3 591.7 C 424.0 591.8 423.1 592.0 423.7 592.0 C 424.5 591.9 424.7 591.6 425.7 591.5 C 425.7 591.6 425.6 591.8 426.0 591.8 C 426.4 591.7 426.4 591.4 426.8 591.3 C 426.8 591.5 427.4 591.4 427.6 591.3 C 427.9 591.5 427.5 591.6 427.9 591.7 C 428.7 591.7 429.1 591.0 429.8 591.0 C 429.7 591.4 430.5 591.3 431.1 591.2 C 431.3 591.6 432.6 591.4 433.6 591.5 C 433.3 591.2 434.3 591.2 434.1 590.9 C 433.6 591.0 433.4 590.9 433.3 590.8 C 434.3 590.7 434.7 591.3 435.4 590.7 C 435.8 590.9 436.3 591.1 437.0 591.1 C 437.1 590.9 435.8 590.9 436.5 590.8 C 436.5 590.9 436.8 590.8 437.0 590.7 C 436.9 591.1 437.5 591.1 437.8 591.2 C 438.4 590.9 439.8 591.2 439.1 590.9 C 440.1 590.8 439.5 591.4 440.3 591.3 C 439.8 590.9 441.1 590.7 440.4 590.6 C 441.4 590.4 441.4 590.9 441.0 591.1 C 441.9 591.1 442.1 590.8 442.6 590.9 C 442.1 590.7 443.4 590.3 442.8 590.6 C 442.6 590.9 443.6 590.6 443.8 590.7 C 443.5 590.6 444.0 590.5 443.3 590.4 C 443.9 590.2 444.9 590.1 445.6 590.3 C 446.4 590.0 447.2 589.8 446.8 590.2 C 447.6 590.0 447.3 590.0 448.1 590.0 C 448.1 589.9 447.9 589.9 447.8 589.8 C 448.8 589.6 448.7 589.8 450.0 589.6 C 450.0 590.0 450.8 589.8 451.1 590.0 C 450.6 590.1 450.1 590.1 449.6 590.1 C 449.6 590.3 450.0 590.2 449.7 590.4 C 449.6 590.3 449.4 590.3 449.2 590.3 C 450.1 590.4 448.1 591.0 448.7 590.5 C 448.7 590.6 448.8 590.7 449.0 590.6 C 448.7 590.3 448.8 590.4 448.9 590.1 C 448.4 590.3 448.0 590.0 447.9 590.3 C 447.9 590.4 448.4 590.3 448.4 590.4 C 447.3 590.8 448.0 590.1 447.1 590.3 C 447.0 590.7 447.5 590.7 447.7 590.8 C 446.9 591.0 446.2 591.1 445.9 590.9 C 445.2 591.2 446.0 591.2 445.5 591.4 C 445.2 591.3 445.2 591.1 444.7 591.1 C 444.1 591.4 445.0 591.3 444.5 591.5 C 443.8 591.4 444.8 591.0 443.9 591.0 C 444.2 591.5 443.0 591.1 443.1 591.4 C 443.7 591.2 443.7 591.7 443.4 591.4 C 442.1 591.2 441.4 592.4 440.0 591.8 C 440.0 591.9 439.8 592.0 439.8 592.1 C 440.8 592.2 442.2 592.0 442.5 592.5 C 443.2 592.3 443.1 592.0 443.2 591.8 C 444.1 592.1 444.1 592.2 443.6 592.7 C 442.1 593.0 441.4 592.8 440.4 592.8 C 439.9 593.1 440.5 592.9 440.7 593.1 C 437.6 593.1 440.0 593.7 438.9 593.8 C 438.9 593.6 438.7 593.5 438.3 593.5 C 438.4 593.7 437.9 593.7 437.8 593.8 C 438.0 593.8 438.1 593.8 438.1 593.9 C 437.3 594.1 437.6 593.8 437.5 593.6 C 438.1 593.6 438.5 593.5 438.6 593.3 C 437.8 593.5 437.2 593.3 436.7 593.7 C 435.9 593.3 437.0 592.8 436.6 592.5 C 436.7 592.2 436.2 593.3 435.6 593.4 C 434.6 593.5 434.6 593.8 433.7 593.9 C 433.5 593.6 434.6 593.7 434.5 593.4 C 434.3 593.4 434.2 593.4 434.0 593.4 C 433.3 593.4 433.4 593.7 432.9 593.8 C 432.6 593.5 432.4 593.7 432.1 593.9 C 431.5 593.8 432.4 593.6 431.8 593.6 C 431.1 593.5 430.6 594.0 430.4 593.9 C 430.4 593.8 430.5 593.7 430.1 593.6 C 429.4 593.9 429.2 593.9 430.1 594.0 C 429.3 594.0 428.9 594.2 429.1 594.5 C 430.4 594.5 430.7 594.4 431.3 594.8 C 431.5 594.5 431.9 594.7 432.4 594.7 C 432.1 594.2 433.0 594.7 433.2 594.4 C 432.9 594.4 432.6 594.3 432.4 594.2 C 433.7 594.2 433.7 594.3 434.8 593.7 C 434.8 593.8 434.9 593.9 435.1 594.0 C 434.8 594.1 433.8 594.1 433.7 594.4 C 434.5 594.7 434.8 594.1 435.7 594.4 C 436.0 594.2 434.9 594.1 435.7 594.0 C 436.0 594.2 436.5 594.4 437.0 594.4 C 437.6 594.3 437.9 594.2 438.4 594.0 C 438.4 594.1 438.5 594.2 438.9 594.2 C 438.9 594.0 438.4 594.0 438.9 593.9 C 440.4 594.1 441.3 594.3 442.7 593.9 C 442.2 593.9 441.0 593.7 441.6 593.7 C 442.2 593.8 443.0 593.3 443.7 593.5 C 443.9 593.6 442.9 593.5 443.2 594.0 C 443.8 593.9 444.2 593.8 444.5 593.9 C 444.5 593.7 445.2 593.6 445.0 593.4 C 444.5 593.5 444.4 593.8 444.3 593.7 C 444.6 592.8 446.2 593.7 447.2 593.6 C 447.8 593.3 446.6 593.4 447.3 593.1 C 447.8 592.9 448.1 593.6 447.5 593.8 C 447.0 593.8 446.8 594.2 446.7 593.9 C 446.5 593.9 446.2 593.9 446.2 594.0 C 446.5 594.0 446.5 594.2 446.7 594.3 C 446.2 594.3 446.2 594.9 445.7 594.6 C 446.0 594.6 446.1 594.4 446.2 594.3 C 444.8 594.7 444.4 594.5 443.5 594.4 C 444.0 594.6 443.5 594.6 443.6 594.8 C 444.2 594.7 445.4 594.7 444.7 594.9 C 444.2 594.6 443.9 595.6 443.4 595.3 C 443.8 595.2 443.7 595.0 443.9 594.9 C 443.3 594.9 443.3 594.7 442.8 594.7 C 441.1 595.4 439.7 594.8 436.9 595.7 C 435.9 595.7 437.8 595.4 437.7 595.2 C 437.4 595.2 437.3 595.1 437.1 595.1 C 437.1 595.5 436.6 595.2 436.3 595.5 C 436.3 595.2 435.0 595.6 434.3 595.3 C 434.3 595.5 434.4 595.6 434.1 595.7 C 432.0 595.4 428.4 596.0 426.8 595.7 C 426.9 596.0 426.2 596.0 426.0 596.1 C 425.0 596.1 425.4 595.8 424.0 596.1 C 423.3 596.2 424.1 595.9 424.3 595.8 C 422.1 596.0 420.2 595.6 418.9 595.9 C 418.2 596.0 418.9 595.7 417.4 595.6 C 417.4 596.0 415.2 595.2 414.9 595.7 C 414.0 595.7 412.5 595.0 413.2 595.5 C 412.0 595.5 412.8 595.1 412.3 595.1 C 411.5 595.0 412.5 595.8 411.7 595.8 C 411.8 595.5 411.1 595.6 410.6 595.2 C 411.2 595.3 411.7 595.3 411.8 595.1 C 411.2 595.2 411.2 595.0 410.3 595.0 C 409.7 595.1 407.7 595.2 407.2 594.7 C 407.2 594.8 407.3 594.9 407.5 595.0 C 406.9 595.0 406.3 594.6 406.3 595.0 C 405.0 594.8 404.5 594.4 403.8 594.7 C 403.2 594.7 404.0 594.4 402.4 594.2 C 402.3 594.5 399.5 594.0 398.8 593.6 C 398.7 594.0 398.6 593.6 398.2 593.5 C 398.2 593.6 398.2 593.8 397.9 593.8 C 397.9 593.6 397.6 593.7 397.4 593.7 C 397.6 593.2 396.3 593.6 396.3 593.3 C 396.5 593.3 396.6 593.1 396.3 593.0 C 396.2 593.3 395.2 592.6 395.2 592.9 C 395.5 593.0 396.2 593.1 396.0 593.3 C 394.9 593.3 395.4 592.9 394.7 592.8 C 394.7 592.9 395.1 593.1 394.6 593.1 C 393.9 592.9 394.6 593.0 394.1 592.7 C 393.7 592.7 393.0 592.7 392.7 592.7 C 392.8 592.7 392.6 592.5 392.5 592.4 C 391.1 592.0 387.9 591.6 386.7 590.9 C 386.6 591.0 386.3 591.0 386.3 591.2 C 385.6 590.8 385.6 590.9 384.8 590.6 C 384.8 590.7 384.8 590.8 384.7 591.0 C 383.6 590.8 384.7 590.5 384.0 590.4 C 383.8 591.0 383.7 590.0 383.1 589.9 C 383.0 590.0 382.7 590.0 382.7 590.2 C 381.7 589.9 381.9 589.5 381.0 589.4 C 381.2 589.5 381.1 590.4 380.9 590.7 C 380.8 590.5 380.6 590.3 380.2 590.2 C 380.8 590.0 380.9 588.8 379.6 588.8 C 380.2 589.0 380.4 589.1 380.2 589.3 C 379.3 589.1 379.1 588.8 378.3 588.5 C 378.1 588.7 378.6 589.0 378.3 589.2 C 378.1 589.2 378.0 589.2 378.0 589.3 C 377.2 589.0 377.3 588.8 376.3 588.6 C 376.4 588.5 376.6 588.5 376.9 588.7 C 376.9 588.5 377.0 588.3 377.5 588.4 C 377.5 588.6 377.1 588.8 377.9 589.0 C 377.9 588.8 378.0 588.7 378.0 588.5 C 377.5 588.3 376.3 587.6 376.1 587.7 C 376.4 587.9 376.8 588.1 376.4 588.4 C 375.5 588.0 375.4 587.5 374.7 587.1 C 373.4 586.7 371.3 585.7 371.3 586.2 C 370.6 585.8 370.9 585.9 370.3 585.6 C 370.3 585.9 369.5 585.3 369.4 585.6 C 370.3 585.9 370.0 585.9 370.8 586.1 C 370.7 586.3 370.5 586.4 370.2 586.3 C 370.2 586.1 369.9 585.9 369.4 585.7 C 369.5 585.8 369.8 586.3 369.2 586.1 C 369.2 586.0 369.1 585.9 368.9 585.8 C 368.9 585.6 369.0 585.5 369.1 585.3 C 369.4 585.4 369.8 585.5 370.1 585.5 C 369.8 585.4 369.8 585.3 369.7 585.2 C 369.4 585.3 368.5 584.6 368.3 584.7 C 368.9 585.0 369.2 585.3 368.5 585.1 C 368.4 585.0 367.5 584.4 367.1 584.4 C 368.3 585.1 367.8 584.9 368.3 585.5 C 366.8 584.9 367.2 584.7 365.6 583.9 C 365.7 583.7 365.8 583.5 366.2 583.6 C 365.5 582.5 363.1 581.8 362.4 581.3 C 362.9 581.6 363.6 581.6 362.9 581.1 C 362.9 581.2 362.4 580.9 362.2 580.9 C 361.7 581.3 362.1 581.9 362.5 582.5 C 361.9 582.1 361.7 582.2 361.2 581.8 C 361.2 581.5 362.0 581.5 361.3 581.0 C 360.9 581.3 360.1 580.3 359.7 580.4 C 360.1 580.7 360.3 581.0 359.8 580.8 C 360.0 580.6 359.1 580.1 359.2 579.9 C 360.0 580.3 360.3 580.2 360.8 580.6 C 360.2 580.1 361.4 580.6 360.4 579.9 C 359.9 579.8 359.4 579.9 358.5 579.1 C 358.2 578.8 358.7 578.8 358.2 578.4 C 358.2 578.8 357.1 578.0 357.9 578.3 C 357.6 578.0 357.4 577.8 357.3 577.6 C 357.5 578.2 355.1 576.5 355.2 577.0 C 355.5 576.7 355.7 576.3 355.7 576.1 C 355.0 576.0 354.7 575.4 353.8 574.3 C 353.5 574.5 353.6 574.1 353.2 573.7 C 353.0 573.7 353.2 574.2 353.0 573.8 C 352.6 573.2 352.6 573.2 352.7 573.0 C 352.4 572.6 352.2 572.2 352.1 572.0 C 352.0 572.1 352.0 572.2 352.0 572.4 C 351.3 570.6 350.5 570.0 350.1 568.5 C 350.2 569.2 350.7 569.1 350.5 568.6 C 350.3 568.4 350.2 568.1 350.0 568.0 C 349.8 568.4 350.0 568.2 349.8 567.5 C 349.5 566.9 349.4 567.9 349.2 567.4 C 349.2 566.7 349.5 567.0 349.5 566.7 C 349.4 566.5 349.4 566.2 349.3 565.9 C 349.2 566.4 349.0 565.9 348.8 565.5 C 349.2 565.8 349.3 565.5 349.1 564.6 C 349.2 564.5 349.4 565.0 349.4 564.6 C 349.4 564.4 348.9 563.7 349.2 563.0 C 349.3 563.2 349.3 563.3 349.4 563.3 C 349.2 562.6 349.7 562.1 349.9 561.5 C 349.6 562.1 349.4 561.7 349.1 562.0 C 349.5 561.4 349.3 560.6 349.8 560.2 C 349.5 561.0 350.3 560.4 350.5 559.8 C 350.2 559.6 350.1 560.5 349.8 560.2 C 349.6 559.8 350.2 559.3 350.1 558.9 C 349.9 558.9 350.0 559.3 349.8 559.4 C 349.9 558.9 349.6 559.5 349.7 559.0 C 350.1 558.9 349.8 558.5 349.9 558.2 C 350.1 558.0 350.8 557.5 350.7 557.1 C 350.6 557.1 350.4 557.5 350.3 557.5 C 350.7 556.1 351.4 555.9 351.9 554.6 C 352.1 554.6 352.3 554.4 352.6 554.1 C 352.5 554.1 352.6 553.8 352.7 553.5 C 353.2 553.2 353.8 552.8 354.4 552.3 C 354.5 552.6 354.3 552.9 355.1 552.2 C 355.0 552.1 354.7 552.4 354.9 552.1 C 355.0 552.1 355.2 552.0 355.2 551.9 C 355.1 551.8 355.1 551.8 355.0 551.7 C 354.8 551.9 354.6 552.1 354.4 552.3 C 354.3 552.2 354.1 552.1 353.9 552.2 C 354.7 551.2 355.1 551.8 355.5 551.0 C 355.9 551.3 356.2 551.2 355.9 551.9 C 356.4 551.3 356.7 550.9 356.7 550.6 C 356.0 551.1 356.0 550.7 355.7 550.7 C 356.2 550.4 356.1 550.2 356.3 550.0 C 356.9 549.8 356.0 550.9 357.1 550.1 C 356.1 550.4 357.6 549.3 358.2 549.0 C 358.1 549.0 357.8 549.1 358.1 548.8 C 359.5 547.6 360.0 548.6 360.7 547.5 C 360.7 547.7 361.2 547.5 361.4 547.4 C 360.6 548.0 360.4 548.2 360.1 548.4 C 360.2 548.5 360.5 548.4 360.8 548.3 C 360.7 548.1 360.9 548.0 361.3 547.9 C 361.5 547.6 361.1 547.2 361.7 546.6 C 361.8 546.7 361.8 546.9 362.2 546.7 C 362.4 546.3 362.1 547.3 363.6 546.4 C 363.3 546.5 363.1 546.4 363.1 546.1 C 363.8 545.7 363.7 545.9 364.6 545.3 C 365.2 545.6 364.2 546.2 364.0 546.6 C 364.7 546.2 365.1 545.6 365.9 545.5 C 365.3 545.6 365.7 545.1 366.4 544.8 C 367.0 544.6 366.5 545.2 367.3 544.9 C 367.8 544.6 368.1 544.3 367.4 544.3 C 368.8 543.9 368.4 543.7 369.5 543.4 C 369.6 543.5 369.3 543.7 368.9 543.7 C 369.0 543.8 368.9 544.0 369.3 543.9 C 370.0 543.4 371.6 542.8 372.1 542.4 C 373.3 542.7 374.4 541.6 375.5 541.6 C 375.1 542.0 377.0 541.3 377.6 541.5 C 377.9 541.3 378.8 540.4 378.4 540.8 C 378.6 541.2 379.3 540.9 379.8 540.9 C 379.8 540.8 379.8 540.7 379.7 540.6 C 380.9 540.3 381.2 540.6 381.6 540.7 C 382.9 540.2 384.5 540.4 386.2 539.8 C 386.7 540.1 387.1 540.0 388.2 540.1 C 388.1 539.8 388.9 539.7 389.7 539.6 C 389.5 539.3 390.2 539.3 390.2 539.1 C 389.5 539.2 389.7 538.8 389.3 538.7 C 390.3 538.9 390.7 538.3 391.5 538.5 C 390.6 538.7 390.4 539.2 390.3 539.6 C 391.4 539.4 392.0 539.5 392.2 539.7 C 392.3 539.5 392.1 539.3 391.9 539.3 C 392.2 539.2 392.6 539.2 392.9 539.1 C 393.1 539.3 392.6 539.4 393.0 539.5 C 393.2 539.3 393.5 539.2 393.8 539.1 C 394.1 539.4 393.4 539.4 393.3 539.5 C 394.7 539.5 394.0 539.0 394.8 538.8 C 395.1 539.0 395.0 539.3 395.7 539.3 C 396.0 539.1 396.0 538.8 396.8 538.8 C 397.3 538.8 396.8 539.2 397.4 539.2 C 397.4 539.1 397.7 539.1 397.9 539.2 C 397.9 539.0 398.1 538.9 398.5 538.8 C 398.5 539.0 399.1 538.9 399.3 538.8 C 399.4 539.0 400.2 539.3 400.4 539.1 C 400.4 538.9 399.9 539.0 399.9 538.9 C 400.5 538.9 400.9 538.8 401.3 538.7 C 401.5 539.4 402.5 538.8 403.8 539.2 C 404.6 538.9 403.6 538.7 404.6 538.5 C 405.2 538.7 404.5 538.7 404.6 539.1 C 404.8 539.1 405.7 539.3 405.8 539.0 C 405.8 538.9 405.3 539.0 405.2 538.8 C 406.0 538.6 405.9 538.9 406.3 539.0 C 406.3 538.8 406.8 538.7 406.9 538.5 C 408.9 538.4 408.9 538.9 409.7 539.2 C 409.7 539.1 410.2 539.1 410.3 539.0 C 409.7 539.1 408.9 538.8 409.7 538.8 C 409.6 538.9 410.8 538.8 410.9 538.7 C 410.8 538.6 410.0 538.6 410.3 538.3 C 411.4 538.2 410.9 538.8 411.8 538.5 C 411.8 538.7 411.4 538.7 411.2 538.8 C 411.5 538.9 412.0 538.8 412.0 539.0 C 411.6 539.0 411.6 539.3 411.4 539.4 C 412.0 539.2 413.0 539.5 412.3 539.1 C 413.4 539.2 414.5 539.0 413.8 538.7 C 414.7 538.7 414.1 539.1 414.9 538.9 C 414.8 539.2 414.5 539.4 415.1 539.7 C 415.2 539.5 415.8 539.5 415.7 539.2 C 417.1 539.3 417.4 539.7 418.0 540.0 C 417.5 539.5 418.1 539.9 418.8 539.6 C 419.2 539.8 418.8 540.2 419.9 540.1 C 418.8 539.6 421.3 540.1 420.8 539.6 C 422.2 540.0 422.2 540.0 423.7 540.2 C 423.5 540.4 423.1 540.5 422.5 540.5 C 423.0 540.2 421.3 540.1 421.4 540.3 C 421.4 540.3 421.4 540.4 421.4 540.5 C 422.4 540.5 423.1 540.7 423.6 540.9 C 423.8 540.7 424.3 540.6 424.2 540.2 C 425.2 540.8 426.3 540.3 426.7 540.8 C 426.4 540.7 426.0 540.7 426.1 540.9 C 426.6 540.8 427.1 540.8 427.0 540.6 C 426.2 540.4 426.1 540.3 425.6 540.5 C 426.0 540.3 424.9 540.0 425.7 540.0 C 425.6 540.5 427.4 540.0 426.8 540.3 C 425.9 540.3 427.8 540.6 427.8 540.9 C 427.8 540.9 427.8 540.9 427.8 540.9 Z M 443.0 594.7 C 443.8 594.4 442.8 594.3 442.2 594.4 C 442.4 594.5 442.5 594.6 442.5 594.8 C 442.7 594.7 443.0 594.6 443.0 594.7 C 443.0 594.7 443.0 594.7 443.0 594.7 Z M 434.1 591.1 C 433.8 591.5 435.2 591.2 435.7 591.2 C 435.5 591.2 435.4 591.1 435.7 591.0 C 435.1 590.8 434.9 591.4 434.1 591.1 C 434.1 591.1 434.1 591.1 434.1 591.1 Z M 403.4 591.1 C 403.6 591.0 404.2 591.0 404.2 591.2 C 404.5 591.2 404.5 591.0 404.6 590.9 C 405.2 591.0 404.3 591.4 405.3 591.3 C 405.8 590.8 403.7 590.4 403.4 591.1 C 403.4 591.1 403.4 591.1 403.4 591.1 Z M 416.8 544.3 C 417.2 544.5 416.2 544.7 416.5 545.0 C 418.0 544.8 416.9 544.4 419.0 544.6 C 418.9 544.6 418.7 544.5 418.7 544.3 C 417.7 544.4 417.6 544.6 417.9 544.1 C 417.5 544.0 417.3 544.7 416.8 544.3 C 416.8 544.3 416.8 544.3 416.8 544.3 Z M 436.1 548.1 C 435.9 548.0 435.8 547.9 435.9 547.8 C 435.2 547.8 435.3 547.9 434.5 547.6 C 434.6 548.1 435.4 548.2 436.1 548.1 C 436.1 548.1 436.1 548.1 436.1 548.1 Z M 474.2 569.9 C 474.3 569.9 474.3 570.0 474.3 570.1 C 474.5 570.0 474.9 570.2 474.7 569.8 C 474.6 569.8 474.7 569.9 474.7 569.9 C 474.5 569.9 474.5 569.7 474.3 569.7 C 474.4 569.8 474.3 569.9 474.2 569.9 C 474.2 569.9 474.2 569.9 474.2 569.9 Z M 468.5 582.5 C 469.3 581.7 466.6 582.5 468.5 582.5 C 468.5 582.5 468.5 582.5 468.5 582.5 C 468.5 582.5 468.5 582.5 468.5 582.5 Z M 472.4 584.2 C 472.5 584.3 472.7 584.1 472.6 584.0 C 473.5 583.5 472.8 584.2 473.3 584.0 C 473.8 583.3 472.7 583.8 473.4 583.1 C 473.1 583.1 472.9 583.8 472.4 584.2 C 472.4 584.2 472.4 584.2 472.4 584.2 Z M 359.7 548.3 C 359.0 548.9 358.9 549.3 359.0 549.6 C 359.5 549.3 359.9 549.1 360.1 549.1 C 361.0 548.4 359.4 549.3 359.2 549.3 C 359.2 549.1 359.8 548.6 359.7 548.3 C 359.7 548.3 359.7 548.3 359.7 548.3 Z M 357.4 550.0 C 357.2 550.3 356.9 550.7 357.0 550.9 C 357.4 550.6 357.5 550.6 357.6 550.7 C 357.9 550.3 357.3 550.5 357.4 550.0 C 357.4 550.0 357.4 550.0 357.4 550.0 Z M 362.1 547.4 C 361.8 547.6 362.0 547.7 362.0 547.9 C 362.6 547.6 362.7 547.7 363.3 547.4 C 363.2 547.3 363.2 547.2 363.1 547.1 C 362.6 547.3 362.7 547.4 362.3 547.6 C 362.2 547.6 362.2 547.5 362.1 547.4 C 362.1 547.4 362.1 547.4 362.1 547.4 Z M 355.6 552.0 C 354.5 552.9 354.4 553.8 354.2 554.7 C 354.8 553.9 355.0 552.8 355.7 552.5 C 356.3 551.8 355.3 552.5 355.3 552.4 C 355.2 552.3 355.5 552.1 355.6 552.0 C 355.6 552.0 355.6 552.0 355.6 552.0 Z M 349.9 562.3 C 349.6 562.5 350.1 563.1 350.0 563.8 C 350.1 563.7 350.2 563.6 350.3 563.6 C 350.4 562.5 349.8 563.1 349.9 562.3 C 349.9 562.3 349.9 562.3 349.9 562.3 Z M 350.9 568.5 C 351.2 569.1 351.0 568.1 351.3 568.3 C 351.0 567.6 350.9 566.9 350.6 567.0 C 351.0 567.7 351.0 567.8 350.9 568.5 C 350.9 568.5 350.9 568.5 350.9 568.5 Z M 353.2 572.6 C 353.8 573.2 353.3 572.1 353.7 572.2 C 353.6 572.0 353.5 572.1 353.3 572.2 C 353.3 572.0 353.2 571.8 353.0 571.5 C 353.0 571.8 353.5 572.5 353.2 572.6 C 353.2 572.6 353.2 572.6 353.2 572.6 Z M 380.7 541.7 C 380.3 541.9 380.5 542.1 379.6 542.2 C 381.0 542.0 380.4 543.0 382.2 542.5 C 381.9 542.5 382.0 542.3 382.2 542.4 C 382.8 542.1 381.5 542.4 382.1 541.9 C 381.6 542.1 381.9 542.3 381.4 542.5 C 380.8 542.3 380.5 542.2 380.7 541.7 C 380.7 541.7 380.7 541.7 380.7 541.7 Z M 382.2 542.8 C 382.8 542.8 382.7 542.2 383.0 542.5 C 383.2 542.4 383.1 542.3 383.2 542.2 C 383.0 542.3 382.9 542.2 382.9 542.2 C 382.5 542.4 382.1 542.5 382.2 542.8 C 382.2 542.8 382.2 542.8 382.2 542.8 Z M 377.6 543.8 C 378.4 543.5 378.7 543.6 379.0 543.3 C 379.4 543.7 379.5 543.0 380.0 543.3 C 380.8 543.0 380.2 543.0 379.9 542.9 C 380.7 542.6 380.2 543.1 381.0 542.9 C 381.0 542.5 380.0 542.8 380.1 542.4 C 379.5 542.5 379.5 542.8 379.2 542.9 C 378.9 543.0 378.9 542.8 378.9 542.7 C 378.2 542.9 378.2 542.7 377.6 542.9 C 377.6 543.2 377.8 543.2 378.4 543.0 C 377.8 543.3 377.6 543.6 376.8 543.6 C 377.3 543.2 374.9 543.7 375.2 544.1 C 375.8 544.0 375.6 543.8 375.8 543.6 C 376.7 543.7 377.2 543.5 377.6 543.8 C 377.6 543.8 377.6 543.8 377.6 543.8 Z M 362.9 548.1 C 362.6 548.2 362.4 548.3 362.0 548.5 C 361.8 548.3 362.4 548.0 361.8 548.1 C 361.2 548.4 361.1 548.6 360.7 548.9 C 361.0 548.9 362.4 548.4 361.8 548.9 C 362.1 548.9 362.5 548.7 363.1 548.5 C 362.3 548.4 363.9 548.0 364.6 547.7 C 364.3 547.3 365.7 547.3 366.1 546.8 C 365.6 546.7 364.4 547.6 363.9 547.8 C 364.1 547.7 362.1 548.0 362.9 548.1 C 362.9 548.1 362.9 548.1 362.9 548.1 Z M 384.2 542.3 C 384.4 542.1 384.9 542.0 384.5 542.0 C 384.7 541.9 385.2 542.0 384.9 541.5 C 385.2 541.5 385.4 541.5 385.7 541.4 C 385.6 541.6 384.9 541.6 385.2 541.9 C 385.7 541.7 385.5 541.9 386.2 541.7 C 385.9 542.1 386.3 542.0 386.1 542.5 C 386.3 542.3 386.9 542.2 386.8 542.0 C 387.8 541.9 386.6 542.4 387.9 542.2 C 387.9 542.5 387.0 542.6 386.6 542.5 C 386.5 542.8 388.3 542.4 389.2 542.3 C 388.3 542.2 389.0 541.8 389.4 541.5 C 389.7 541.6 389.4 541.7 390.0 541.8 C 390.4 541.8 390.6 541.6 390.8 541.8 C 391.1 541.7 391.0 541.5 391.0 541.3 C 391.6 541.3 391.2 541.8 392.1 541.6 C 391.4 541.3 392.1 541.1 393.4 541.1 C 393.3 541.0 392.9 541.0 392.8 540.8 C 393.0 540.6 393.7 540.9 393.9 541.0 C 394.4 540.9 394.1 540.8 393.7 540.9 C 393.9 540.7 394.2 540.6 394.4 540.5 C 393.1 540.6 391.0 540.8 388.5 540.7 C 389.0 540.9 388.5 541.0 387.7 541.0 C 387.6 540.9 387.9 540.8 388.2 540.8 C 387.4 540.5 387.5 541.3 386.2 541.2 C 385.5 541.3 386.9 540.9 386.1 540.8 C 385.7 541.0 385.4 541.3 385.1 541.0 C 384.3 541.3 384.1 541.7 382.9 541.9 C 383.6 541.9 384.0 542.6 384.8 542.3 C 384.7 542.2 384.4 542.2 384.2 542.3 C 384.2 542.3 384.2 542.3 384.2 542.3 Z M 357.7 550.9 C 357.3 551.2 357.2 551.5 357.0 551.4 C 356.4 552.0 357.3 551.6 357.5 551.6 C 357.7 551.3 357.8 551.1 357.7 550.9 C 357.7 550.9 357.7 550.9 357.7 550.9 Z M 406.7 594.1 C 407.8 594.3 407.6 593.9 408.4 594.0 C 407.8 593.8 407.6 593.5 406.5 593.5 C 406.4 593.7 406.4 593.9 406.7 594.1 C 406.7 594.1 406.7 594.1 406.7 594.1 Z M 360.3 549.4 C 360.8 548.7 359.7 550.2 359.6 549.9 C 359.0 550.6 360.3 549.6 359.9 550.3 C 360.4 549.8 360.9 549.8 361.6 549.1 C 361.5 549.0 360.8 549.4 360.2 549.8 C 360.0 549.7 360.4 549.5 360.3 549.4 C 360.3 549.4 360.3 549.4 360.3 549.4 Z M 396.0 591.7 C 395.2 591.8 396.6 592.4 397.0 592.6 C 397.1 592.2 396.8 592.2 396.0 591.7 C 396.0 591.7 396.0 591.7 396.0 591.7 Z M 414.1 594.3 C 414.5 593.9 412.8 594.2 413.3 593.8 C 412.8 593.7 412.7 593.8 412.7 594.0 C 412.4 593.8 411.6 593.9 411.9 593.6 C 411.8 593.4 413.1 593.8 412.7 593.4 C 413.2 593.4 413.2 593.5 413.6 593.5 C 412.8 593.5 413.1 593.8 414.1 594.0 C 414.1 593.7 413.7 593.7 414.2 593.6 C 414.2 593.7 414.7 594.0 414.7 594.4 C 415.5 594.4 415.0 593.9 416.1 594.0 C 416.0 593.8 415.4 593.7 415.0 593.6 C 415.1 593.3 416.1 594.0 415.8 593.5 C 416.0 593.7 416.6 593.9 416.7 594.2 C 415.8 594.3 415.3 594.5 414.6 594.6 C 415.2 594.8 416.2 594.2 417.2 594.5 C 417.1 594.3 417.7 594.4 417.5 594.1 C 418.3 594.2 417.9 594.5 417.8 594.6 C 418.0 594.8 419.6 594.7 419.5 594.4 C 419.6 594.7 421.5 594.7 421.5 594.3 C 422.0 594.6 422.9 594.1 423.2 594.5 C 423.5 594.4 424.1 594.4 424.9 594.4 C 425.0 594.1 423.8 594.3 423.7 594.0 C 423.5 593.7 425.0 594.1 424.9 593.8 C 424.9 593.8 424.9 593.7 424.9 593.6 C 424.3 593.7 423.7 593.8 423.2 593.9 C 422.7 593.9 423.3 593.8 423.2 593.6 C 422.8 593.8 421.0 594.2 420.9 593.6 C 419.7 593.7 418.9 593.6 418.4 593.8 C 417.6 593.7 418.8 593.6 418.4 593.4 C 416.2 593.7 413.7 593.1 411.9 593.4 C 411.5 593.3 411.7 593.1 411.6 593.0 C 409.2 593.0 411.2 593.6 409.3 593.3 C 409.4 593.0 410.3 593.1 410.2 592.8 C 409.6 592.8 409.4 592.9 408.5 592.8 C 408.5 592.9 408.5 593.1 408.5 593.2 C 407.8 593.1 408.1 592.8 407.7 592.6 C 406.8 592.6 407.0 592.8 406.6 592.4 C 405.8 592.4 404.9 592.4 404.1 592.2 C 403.5 592.3 404.5 592.9 405.4 593.0 C 405.3 593.1 405.1 593.1 405.1 593.2 C 404.1 592.8 404.0 592.2 402.4 591.9 C 403.6 592.4 401.8 592.0 401.6 591.7 C 401.0 591.7 401.4 592.1 401.8 592.2 C 401.7 592.3 401.3 592.1 401.3 592.0 C 401.2 592.4 402.6 592.9 404.3 592.9 C 403.5 593.3 405.4 593.0 404.5 593.5 C 405.8 593.6 404.7 593.1 406.2 593.3 C 406.1 593.2 405.8 593.0 405.7 592.9 C 406.8 592.9 406.5 593.4 407.6 593.4 C 407.9 593.2 407.1 593.1 407.1 592.9 C 408.4 593.4 408.8 593.5 409.6 593.9 C 409.8 593.7 409.6 593.4 411.0 593.7 C 411.0 593.8 411.0 593.9 411.0 593.9 C 410.3 593.8 410.1 594.4 411.8 594.5 C 411.9 594.3 411.4 594.3 411.0 594.2 C 411.2 594.0 411.7 594.0 412.4 594.0 C 412.7 594.1 413.1 594.3 412.7 594.3 C 412.9 594.6 413.2 594.0 414.1 594.3 C 414.1 594.3 414.1 594.3 414.1 594.3 Z M 350.8 561.2 C 350.8 561.4 350.8 561.6 350.7 561.9 C 351.0 562.1 351.0 561.5 351.2 561.5 C 351.3 561.0 350.9 561.3 350.8 561.2 C 350.8 561.2 350.8 561.2 350.8 561.2 Z M 353.9 555.1 C 353.6 555.0 353.7 555.6 353.3 556.0 C 353.4 556.2 353.7 555.7 353.9 555.8 C 354.3 555.3 353.4 555.6 353.9 555.1 C 353.9 555.1 353.9 555.1 353.9 555.1 Z M 352.2 557.6 C 351.9 557.7 352.2 557.9 352.5 557.5 C 352.6 557.6 352.7 557.8 352.6 558.1 C 353.0 557.9 352.7 557.5 353.1 557.0 C 352.8 557.1 352.5 557.3 352.2 557.6 C 352.2 557.6 352.2 557.6 352.2 557.6 Z M 351.8 558.5 C 351.9 558.9 351.5 559.0 351.5 559.7 C 351.7 559.6 352.1 558.3 352.1 558.1 C 352.0 557.8 351.4 559.1 351.8 558.5 C 351.8 558.5 351.8 558.5 351.8 558.5 Z M 385.5 588.9 C 385.8 589.0 385.8 588.8 385.8 588.8 C 386.5 589.4 387.7 589.6 386.7 589.8 C 387.6 589.8 388.3 590.4 389.0 590.6 C 389.6 590.8 389.3 590.4 389.8 590.5 C 390.6 590.7 389.4 590.6 389.5 590.7 C 389.6 591.0 389.9 590.5 390.8 590.9 C 390.7 590.4 391.6 591.2 391.5 590.6 C 391.9 590.9 392.1 590.7 392.8 590.9 C 392.8 590.7 392.1 590.5 392.1 590.3 C 391.8 589.9 391.7 590.5 392.3 590.6 C 391.9 590.8 391.0 590.1 390.7 590.3 C 390.4 589.9 391.6 590.4 391.3 590.0 C 391.1 590.0 390.8 590.0 390.8 590.1 C 390.4 590.0 390.1 589.8 390.0 589.6 C 390.3 589.7 390.3 589.7 390.3 589.8 C 390.7 589.9 389.9 589.2 390.9 589.4 C 390.8 589.3 390.3 589.2 390.4 589.0 C 390.2 588.7 390.2 589.8 389.3 589.3 C 388.5 589.4 390.9 589.9 390.1 590.4 C 388.7 590.0 389.6 589.7 388.5 589.4 C 388.4 589.5 388.4 589.6 388.1 589.6 C 388.1 589.7 388.6 589.8 388.9 589.9 C 388.8 590.0 388.4 589.8 388.1 589.8 C 388.1 589.9 388.3 589.9 388.3 590.0 C 387.3 589.7 387.6 589.1 388.5 589.2 C 388.5 588.9 387.3 588.6 387.0 588.7 C 387.2 589.0 386.9 588.9 387.1 589.2 C 387.3 589.3 387.3 589.2 387.4 589.1 C 387.9 589.3 387.4 589.3 387.3 589.4 C 386.8 589.2 386.9 589.0 386.3 589.0 C 386.5 589.0 386.6 588.9 386.7 588.8 C 386.4 588.7 386.1 588.7 385.9 588.6 C 385.9 588.8 385.5 588.7 385.5 588.9 C 385.5 588.9 385.5 588.9 385.5 588.9 Z M 399.2 592.7 C 400.1 592.9 399.7 592.5 399.3 592.5 C 399.5 592.4 399.8 592.4 400.1 592.4 C 399.9 592.3 399.6 592.3 398.8 592.1 C 399.6 591.8 398.9 591.1 397.5 591.0 C 397.0 591.5 398.2 591.7 397.7 592.0 C 398.7 592.0 399.2 592.3 399.2 592.7 C 399.2 592.7 399.2 592.7 399.2 592.7 Z M 357.5 551.6 C 357.1 552.0 356.7 552.3 356.3 552.7 C 356.5 552.9 358.0 551.9 357.5 551.6 C 357.5 551.6 357.5 551.6 357.5 551.6 Z M 395.5 540.8 C 395.8 540.8 395.8 540.8 395.8 540.9 C 396.6 540.7 395.4 540.7 395.8 540.4 C 395.5 540.4 395.2 540.4 395.0 540.5 C 394.9 540.6 396.1 540.7 395.3 540.8 C 395.3 540.9 395.5 540.9 395.5 540.8 C 395.5 540.8 395.5 540.8 395.5 540.8 Z M 351.3 560.8 C 351.3 561.2 351.7 561.1 351.4 562.0 C 351.7 561.7 351.7 561.5 351.7 560.9 C 351.6 560.9 351.4 560.8 351.3 560.8 C 351.3 560.8 351.3 560.8 351.3 560.8 Z M 381.6 588.3 C 382.2 588.8 382.5 588.2 383.7 588.7 C 383.2 588.1 382.4 588.4 381.6 588.3 C 381.6 588.3 381.6 588.3 381.6 588.3 Z M 427.1 593.9 C 426.7 593.8 427.2 593.8 426.5 593.6 C 426.1 593.7 426.0 593.9 425.4 593.9 C 426.2 594.2 427.6 593.9 428.2 594.4 C 428.9 594.3 428.8 594.0 429.0 593.8 C 428.7 593.8 428.5 593.8 428.5 593.7 C 428.1 594.1 427.6 593.4 427.1 593.9 C 427.1 593.9 427.1 593.9 427.1 593.9 Z M 395.8 591.6 C 395.3 591.3 396.2 591.3 396.4 591.2 C 396.7 591.3 396.6 591.5 396.6 591.6 C 397.1 591.7 397.2 591.6 397.2 591.3 C 396.3 591.1 395.2 590.8 395.9 590.6 C 395.1 590.3 395.5 590.8 395.1 590.8 C 394.6 590.5 395.1 590.5 395.2 590.2 C 394.9 590.2 394.2 590.5 394.4 590.1 C 393.0 590.2 393.5 590.8 394.4 591.5 C 395.3 591.3 394.3 591.0 395.8 591.6 C 395.8 591.6 395.8 591.6 395.8 591.6 Z M 363.1 579.6 C 363.1 579.7 363.6 580.0 363.6 580.1 C 364.3 580.3 365.1 580.3 365.8 580.4 C 365.8 580.1 364.9 579.8 365.1 580.2 C 365.0 579.9 364.4 579.4 364.2 579.1 C 363.6 578.7 363.1 579.1 363.3 578.6 C 362.7 578.4 363.0 578.6 362.2 578.0 C 363.3 579.2 361.6 577.8 361.3 578.0 C 362.1 578.6 362.8 579.0 362.9 578.7 C 363.4 579.2 364.0 579.7 364.0 580.0 C 363.9 580.1 363.4 579.8 363.1 579.6 C 363.1 579.6 363.1 579.6 363.1 579.6 Z M 367.2 580.9 C 366.9 580.8 366.6 580.7 366.2 580.5 C 366.4 580.7 366.4 580.9 366.3 581.0 C 367.1 581.5 367.4 581.4 367.6 581.8 C 368.4 582.3 367.6 581.3 368.7 582.1 C 368.7 581.9 368.1 581.6 368.1 581.5 C 367.9 581.7 367.4 581.5 367.2 580.9 C 367.2 580.9 367.2 580.9 367.2 580.9 Z M 374.7 585.0 C 375.3 585.3 374.5 584.8 374.9 584.7 C 374.7 584.7 373.6 584.1 373.9 583.9 C 373.7 583.4 372.3 583.7 372.6 583.3 C 372.3 583.2 372.3 583.4 372.3 583.5 C 373.1 583.7 373.0 584.0 372.4 583.8 C 372.4 583.9 372.9 584.1 373.2 584.2 C 373.3 584.1 373.1 583.9 373.2 583.8 C 373.8 584.2 374.2 584.6 374.7 585.0 C 374.7 585.0 374.7 585.0 374.7 585.0 Z M 425.9 542.2 C 425.3 542.1 424.9 542.1 424.5 542.2 C 424.7 542.4 425.1 542.2 425.4 542.3 C 425.4 542.5 425.1 542.4 424.8 542.4 C 425.1 542.7 426.3 542.6 425.9 542.2 C 425.9 542.2 425.9 542.2 425.9 542.2 Z M 420.4 541.6 C 419.7 541.6 419.3 541.6 419.2 541.8 C 419.4 542.0 419.4 541.7 419.8 541.7 C 420.0 541.8 420.2 541.9 420.3 542.0 C 420.6 542.1 420.6 541.9 420.6 541.9 C 420.9 541.9 420.9 541.9 420.9 542.0 C 421.7 541.8 420.0 542.0 420.4 541.6 C 420.4 541.6 420.4 541.6 420.4 541.6 Z M 371.1 583.3 C 370.9 583.0 370.9 582.8 370.3 582.6 C 370.3 582.8 370.0 582.7 369.4 582.4 C 370.1 583.0 370.3 582.9 371.1 583.3 C 371.1 583.3 371.1 583.3 371.1 583.3 Z M 386.1 542.7 C 385.3 542.5 385.5 543.0 384.3 543.0 C 384.4 543.1 384.4 543.2 384.4 543.2 C 385.0 542.9 385.3 543.0 386.1 542.7 C 386.1 542.7 386.1 542.7 386.1 542.7 Z M 477.4 576.9 C 477.2 576.7 476.9 577.3 476.8 577.3 C 477.1 577.6 476.3 577.5 475.5 578.6 C 475.4 578.5 475.4 578.4 475.5 578.3 C 474.8 579.1 476.0 578.3 476.3 578.3 C 476.7 577.6 477.0 577.6 477.4 576.9 C 477.4 576.9 477.4 576.9 477.4 576.9 Z M 418.7 592.9 C 418.6 593.0 418.8 593.0 419.0 593.0 C 419.2 593.0 419.3 593.0 419.5 593.0 C 419.5 592.6 418.6 592.4 419.3 592.0 C 419.0 592.0 419.0 592.1 419.0 592.1 C 417.6 593.0 416.6 591.4 414.8 591.9 C 414.5 591.9 414.6 592.0 414.5 592.1 C 414.7 592.1 414.8 592.1 414.8 592.2 C 415.0 591.8 416.6 592.4 415.9 592.5 C 415.9 592.6 416.2 592.5 416.2 592.5 C 416.4 592.5 416.6 592.5 416.7 592.5 C 416.6 592.4 416.3 592.3 416.2 592.2 C 417.1 592.4 418.2 592.5 417.6 592.9 C 418.1 592.9 418.3 592.7 418.7 592.6 C 419.1 592.6 419.0 592.9 418.7 592.9 C 418.7 592.9 418.7 592.9 418.7 592.9 Z M 425.9 592.9 C 426.8 593.0 426.5 592.7 427.3 592.7 C 426.8 592.5 426.1 592.8 425.4 592.6 C 425.5 592.8 425.9 592.8 425.9 592.9 C 425.9 592.9 425.9 592.9 425.9 592.9 Z M 409.8 591.8 C 410.0 591.5 409.2 591.4 408.4 591.3 C 408.2 591.6 408.9 591.7 409.8 591.8 C 409.8 591.8 409.8 591.8 409.8 591.8 Z M 413.4 592.1 C 414.2 592.1 412.4 592.0 412.9 591.7 C 412.5 591.7 412.1 591.6 412.1 591.5 C 411.7 591.6 411.7 591.7 411.2 591.6 C 411.2 591.8 412.1 591.8 412.0 592.0 C 412.7 591.9 412.8 591.9 413.4 592.1 C 413.4 592.1 413.4 592.1 413.4 592.1 Z M 413.9 592.2 C 414.5 592.1 413.9 591.5 413.2 591.5 C 413.4 591.7 413.5 592.0 413.9 592.2 C 413.9 592.2 413.9 592.2 413.9 592.2 Z M 355.4 570.5 C 355.5 570.8 355.6 570.4 355.9 570.7 C 356.0 570.6 355.2 569.5 355.9 570.4 C 356.0 569.9 355.4 570.0 355.2 569.5 C 355.2 569.7 355.2 569.9 355.0 569.6 C 354.7 569.6 355.7 570.5 355.4 570.5 C 355.4 570.5 355.4 570.5 355.4 570.5 Z M 356.2 571.7 C 356.4 571.9 356.4 571.7 356.3 571.6 C 356.4 571.6 356.6 571.9 356.8 572.1 C 356.7 572.2 356.8 571.4 357.0 571.3 C 356.1 570.5 356.4 571.4 356.2 571.7 C 356.2 571.7 356.2 571.7 356.2 571.7 Z M 357.1 572.5 C 357.5 573.3 358.4 574.1 359.0 574.3 C 358.9 573.5 357.7 572.5 357.1 572.5 C 357.1 572.5 357.1 572.5 357.1 572.5 Z M 353.7 566.2 C 353.6 567.4 355.0 569.4 354.5 567.4 C 354.3 567.5 353.7 566.3 353.7 565.6 C 353.6 565.6 353.2 564.9 353.4 564.9 C 353.1 564.4 353.5 566.5 353.7 566.2 C 353.7 566.2 353.7 566.2 353.7 566.2 Z M 360.3 574.5 C 359.8 574.3 359.9 575.1 359.5 574.5 C 359.2 574.3 359.5 574.7 359.3 574.8 C 360.0 575.3 361.7 576.2 361.6 576.6 C 362.1 576.8 362.3 576.7 363.0 577.3 C 363.1 577.1 360.3 575.6 360.1 574.7 C 360.3 574.6 361.1 575.3 360.3 574.5 C 360.3 574.5 360.3 574.5 360.3 574.5 Z M 386.4 544.5 C 386.4 544.2 385.4 544.5 385.6 544.2 C 385.1 544.6 384.5 544.5 383.9 544.9 C 383.7 544.8 383.7 544.3 382.8 544.4 C 382.8 544.7 383.3 544.6 382.9 544.8 C 382.1 545.0 382.3 544.6 381.4 544.9 C 381.6 545.4 379.5 545.4 379.8 545.9 C 380.3 545.7 380.2 545.5 381.0 545.4 C 381.3 545.4 381.2 545.6 381.5 545.5 C 381.3 545.8 380.8 545.5 380.6 545.8 C 380.7 546.0 381.3 545.9 381.4 546.0 C 381.7 545.9 381.2 545.9 381.3 545.8 C 382.2 545.5 381.4 546.4 382.4 546.2 C 382.1 545.9 382.1 545.9 382.3 545.6 C 382.7 545.6 383.9 545.2 383.3 545.7 C 383.4 545.9 384.1 545.4 384.0 545.3 C 384.4 545.1 384.4 545.2 384.5 545.4 C 385.5 545.1 385.6 544.8 385.4 544.5 C 385.5 544.2 385.8 544.7 386.4 544.5 C 386.4 544.5 386.4 544.5 386.4 544.5 Z M 354.0 560.3 C 353.9 559.8 353.9 560.8 353.7 561.2 C 353.9 560.7 354.3 561.0 354.5 560.5 C 354.3 560.6 354.2 560.6 354.4 560.2 C 354.3 560.1 353.9 560.8 354.0 560.3 C 354.0 560.3 354.0 560.3 354.0 560.3 Z M 364.7 578.3 C 364.9 578.7 366.5 579.4 367.3 580.0 C 367.4 579.5 365.0 578.9 365.1 578.3 C 364.6 578.1 365.2 578.6 364.7 578.3 C 364.7 578.3 364.7 578.3 364.7 578.3 Z M 377.1 545.9 C 376.9 546.0 377.0 546.0 377.1 546.0 C 377.1 546.1 376.6 546.2 376.2 546.3 C 376.8 546.4 376.2 546.6 376.4 546.9 C 376.1 547.0 376.0 547.0 376.0 547.1 C 375.8 546.6 374.6 547.8 376.1 547.5 C 375.7 547.3 375.9 547.3 376.4 547.0 C 377.1 547.1 377.6 546.7 377.9 546.9 C 378.3 546.8 378.4 546.6 379.0 546.5 C 379.2 546.7 379.7 546.7 379.4 547.2 C 380.4 547.0 379.6 546.4 380.4 546.2 C 381.2 546.2 380.1 546.6 380.3 546.8 C 380.5 546.7 380.5 546.9 380.6 546.9 C 380.9 546.8 380.8 546.6 380.5 546.6 C 380.6 546.5 381.3 546.1 381.2 546.5 C 381.6 546.2 380.2 545.7 379.7 546.2 C 379.3 546.3 379.1 545.8 379.5 545.7 C 379.4 545.5 378.7 546.3 378.8 545.7 C 378.5 545.8 378.2 545.8 377.9 545.9 C 377.9 546.0 378.1 546.0 378.1 546.1 C 377.8 546.1 377.5 546.2 377.2 546.3 C 377.4 546.1 377.4 546.0 377.1 545.9 C 377.1 545.9 377.1 545.9 377.1 545.9 Z M 361.3 575.9 C 361.9 576.4 362.2 576.4 362.7 576.7 C 362.6 576.3 361.3 575.5 361.3 575.9 C 361.3 575.9 361.3 575.9 361.3 575.9 Z M 390.9 544.8 C 390.8 544.7 390.3 544.8 390.3 544.6 C 391.1 544.4 390.2 544.4 390.7 543.8 C 389.7 544.2 389.5 544.9 390.9 545.0 C 391.9 544.8 389.8 544.9 390.9 544.8 C 390.9 544.8 390.9 544.8 390.9 544.8 Z M 387.7 545.0 C 387.1 545.2 388.7 545.1 389.1 545.2 C 389.1 545.3 389.1 545.4 389.1 545.5 C 389.9 544.9 388.7 544.9 389.5 544.2 C 388.4 544.2 388.0 544.2 387.2 544.4 C 387.2 544.5 387.4 544.5 387.4 544.4 C 388.1 544.4 387.7 544.8 387.0 544.8 C 387.2 544.9 387.8 544.8 388.2 544.8 C 388.1 544.7 388.0 544.7 388.0 544.5 C 388.5 544.4 388.3 544.7 388.7 544.6 C 388.7 544.8 387.8 545.1 387.7 545.0 C 387.7 545.0 387.7 545.0 387.7 545.0 Z M 440.9 547.1 C 440.3 547.1 441.3 547.7 441.2 548.1 C 441.7 548.3 441.9 548.2 442.2 548.3 C 442.1 548.0 441.5 547.9 441.3 547.6 C 441.5 547.3 442.1 547.9 442.4 547.7 C 442.8 547.3 441.0 547.5 440.9 547.1 C 440.9 547.1 440.9 547.1 440.9 547.1 Z M 364.1 551.2 C 363.9 551.3 364.1 551.3 364.2 551.3 C 364.2 551.4 363.7 551.6 363.7 551.5 C 363.3 551.8 364.0 551.6 363.5 551.9 C 363.5 552.1 364.3 551.4 364.2 551.4 C 364.8 551.0 364.5 551.6 364.8 551.7 C 365.3 551.4 365.0 551.2 365.8 550.9 C 365.2 551.0 364.7 551.0 364.1 551.2 C 364.1 551.2 364.1 551.2 364.1 551.2 Z M 392.6 544.0 C 392.7 543.8 392.0 544.5 391.3 544.3 C 390.4 544.4 391.9 544.6 391.1 544.6 C 391.8 544.6 392.6 544.3 393.7 544.2 C 393.9 544.0 392.2 544.3 393.1 544.0 C 393.1 543.9 392.8 544.0 392.9 544.1 C 392.6 544.1 392.6 544.0 392.6 544.0 C 392.6 544.0 392.6 544.0 392.6 544.0 Z M 391.6 544.8 C 391.7 544.9 391.9 544.8 391.9 544.8 C 392.2 544.7 392.3 545.0 391.9 545.1 C 392.4 545.4 392.3 544.7 393.2 544.8 C 392.8 544.6 392.6 544.5 393.4 544.6 C 394.1 544.3 391.9 544.6 391.6 544.8 C 391.6 544.8 391.6 544.8 391.6 544.8 Z M 432.4 545.6 C 432.5 545.8 433.1 545.8 433.5 545.9 C 432.9 546.1 430.8 545.5 430.6 545.3 C 430.3 545.3 430.1 545.4 430.0 545.2 C 430.0 545.3 429.4 545.4 429.7 545.5 C 429.6 545.6 429.2 545.5 429.1 545.6 C 428.3 545.4 429.4 545.4 429.2 545.2 C 428.2 545.3 428.4 545.1 427.3 544.9 C 427.4 545.3 428.7 545.3 428.6 545.7 C 429.5 545.5 430.4 545.9 430.9 546.3 C 430.2 545.7 433.3 546.0 434.8 546.3 C 434.7 546.5 435.2 546.6 435.8 546.8 C 436.1 547.2 436.1 546.5 435.3 546.5 C 435.4 546.3 436.4 546.7 436.9 546.8 C 436.4 546.5 436.7 546.4 436.4 546.3 C 435.4 546.0 436.3 546.3 436.1 546.5 C 435.9 546.5 435.6 546.4 435.3 546.3 C 436.8 546.1 433.3 545.9 434.6 546.1 C 433.5 545.9 433.5 545.6 432.4 545.6 C 432.4 545.6 432.4 545.6 432.4 545.6 Z M 406.6 543.3 C 406.4 543.4 405.5 543.6 405.5 543.3 C 404.4 543.6 405.4 543.8 404.1 543.8 C 404.2 544.0 404.7 543.9 404.7 544.0 C 405.2 543.9 405.6 543.8 405.5 543.5 C 406.1 543.6 406.2 543.5 406.6 543.4 C 406.5 543.5 406.3 543.6 405.8 543.6 C 405.7 543.9 405.9 544.1 406.6 544.0 C 406.9 543.8 406.7 543.5 406.6 543.3 C 406.6 543.3 406.6 543.3 406.6 543.3 Z M 403.9 543.7 C 403.7 543.7 403.6 543.6 403.6 543.5 C 403.2 543.1 403.4 543.8 403.0 543.9 C 402.7 543.9 402.8 543.7 402.8 543.6 C 402.3 543.6 401.9 543.7 401.7 543.6 C 400.9 543.8 402.5 543.8 402.8 544.0 C 403.3 544.0 403.1 543.7 403.9 543.7 C 403.9 543.7 403.9 543.7 403.9 543.7 Z M 395.8 543.8 C 395.6 543.5 395.4 544.0 395.0 544.0 C 395.3 544.2 396.0 544.0 395.5 544.4 C 396.3 544.5 396.4 544.5 397.1 544.3 C 397.7 544.6 397.2 544.0 396.3 544.3 C 396.4 544.1 396.8 544.1 396.8 543.9 C 397.4 544.5 398.7 543.5 397.9 544.0 C 397.7 543.9 397.5 543.8 397.4 543.7 C 397.2 544.0 395.4 544.0 395.8 543.8 C 395.8 543.8 395.8 543.8 395.8 543.8 Z M 370.7 549.0 C 372.1 548.4 372.5 548.3 373.4 548.1 C 373.4 548.2 373.4 548.3 373.2 548.3 C 373.5 548.4 373.7 548.3 374.1 548.1 C 374.0 548.0 373.9 548.1 373.9 548.1 C 373.1 548.1 373.7 548.0 373.7 547.7 C 372.8 547.7 371.7 548.6 370.9 548.5 C 370.5 548.7 371.1 548.6 370.7 549.0 C 370.7 549.0 370.7 549.0 370.7 549.0 Z M 475.5 575.0 C 475.6 575.1 475.4 575.4 475.6 575.4 C 475.7 575.1 475.7 574.9 475.8 574.7 C 475.5 575.1 475.2 574.8 474.9 575.4 C 475.1 575.3 475.3 575.5 475.5 575.0 C 475.5 575.0 475.5 575.0 475.5 575.0 Z M 398.4 543.7 C 398.5 543.9 398.5 544.0 398.2 544.1 C 398.1 544.3 399.0 544.1 399.0 544.3 C 399.3 544.3 399.2 544.1 399.5 544.1 C 399.4 543.9 398.7 544.0 399.0 543.7 C 399.2 543.7 399.2 543.7 399.3 543.8 C 399.8 543.6 399.0 543.6 398.4 543.7 C 398.4 543.7 398.4 543.7 398.4 543.7 Z M 443.3 548.0 C 443.0 548.0 443.3 548.2 443.6 548.3 C 442.8 548.4 443.9 548.9 443.8 549.2 C 443.6 548.9 442.6 548.8 442.4 548.6 C 442.1 548.6 442.4 549.0 441.6 548.8 C 441.6 549.1 442.5 549.1 442.4 548.8 C 442.5 549.2 443.5 549.0 443.3 549.4 C 444.4 549.7 444.7 549.6 444.9 549.3 C 443.8 549.1 444.5 548.8 443.5 548.6 C 443.5 548.5 443.8 548.6 444.0 548.6 C 444.0 548.4 443.6 548.2 443.3 548.0 C 443.3 548.0 443.3 548.0 443.3 548.0 Z M 415.4 543.8 C 414.8 543.8 414.8 544.0 414.8 544.3 C 415.1 544.2 415.5 544.2 416.0 544.2 C 415.9 544.1 415.1 544.1 415.4 543.8 C 415.4 543.8 415.4 543.8 415.4 543.8 Z M 439.2 547.4 C 439.1 547.3 438.9 547.3 438.9 547.4 C 438.3 547.3 438.1 547.1 437.9 546.9 C 437.6 546.8 437.7 547.1 437.6 547.2 C 438.3 547.1 438.1 547.5 438.9 547.6 C 438.9 547.5 439.0 547.4 439.2 547.4 C 439.2 547.4 439.2 547.4 439.2 547.4 Z M 421.2 544.4 C 420.9 544.4 421.1 544.5 421.2 544.5 C 420.8 544.8 419.7 544.4 419.3 544.6 C 419.2 544.8 420.6 544.9 419.0 544.8 C 419.2 545.1 420.7 545.0 421.4 545.2 C 421.2 545.4 420.2 545.3 420.3 545.7 C 421.1 545.5 422.1 545.5 422.3 545.0 C 421.0 544.9 421.5 544.7 421.2 544.4 C 421.2 544.4 421.2 544.4 421.2 544.4 Z M 422.6 544.8 C 422.5 544.6 422.2 544.8 421.8 544.7 C 422.4 545.1 422.8 545.0 424.2 545.3 C 424.2 545.2 424.2 545.1 424.2 545.1 C 424.5 545.1 424.8 545.1 425.0 545.2 C 423.9 544.7 423.6 544.9 422.3 544.8 C 422.2 544.8 422.4 544.8 422.6 544.8 C 422.6 544.8 422.6 544.8 422.6 544.8 Z M 386.5 545.3 C 386.9 545.5 387.2 545.6 387.8 545.6 C 387.7 545.3 387.3 545.2 386.5 545.3 C 386.5 545.3 386.5 545.3 386.5 545.3 Z M 440.2 547.9 C 440.9 547.9 439.5 547.7 439.8 548.1 C 440.4 548.4 440.9 548.6 441.0 548.9 C 442.1 548.7 439.9 548.2 440.2 547.9 C 440.2 547.9 440.2 547.9 440.2 547.9 Z M 435.4 547.6 C 435.1 547.5 435.2 547.0 435.4 547.4 C 436.1 547.5 434.8 547.0 436.0 547.3 C 435.5 547.1 434.4 546.7 433.9 546.8 C 433.8 547.0 434.9 547.1 434.8 547.4 C 434.9 547.5 434.7 547.4 434.6 547.4 C 434.6 547.6 434.9 547.4 435.4 547.6 C 435.4 547.6 435.4 547.6 435.4 547.6 Z M 431.5 546.4 C 431.9 546.6 432.4 546.8 433.3 547.0 C 432.7 546.7 432.5 546.3 431.5 546.4 C 431.5 546.4 431.5 546.4 431.5 546.4 Z M 474.4 566.8 C 474.2 566.4 474.1 566.9 474.1 567.0 C 474.2 567.4 474.4 567.2 474.5 567.7 C 474.8 567.4 474.3 567.2 474.4 566.8 C 474.4 566.8 474.4 566.8 474.4 566.8 Z M 474.8 568.2 C 474.7 568.4 474.9 568.8 474.7 568.9 C 475.4 569.0 474.6 569.7 475.0 569.6 C 475.0 569.7 474.9 569.8 475.0 570.0 C 475.4 569.6 475.0 568.7 474.8 568.2 C 474.8 568.2 474.8 568.2 474.8 568.2 Z M 426.8 546.3 C 426.1 546.1 427.0 546.8 426.2 546.6 C 426.2 546.7 427.6 547.0 426.7 547.0 C 427.8 547.3 426.7 546.4 426.8 546.3 C 426.8 546.3 426.8 546.3 426.8 546.3 Z M 413.4 545.4 C 413.5 545.2 412.5 545.3 412.1 545.2 C 412.1 545.3 412.4 545.3 412.6 545.4 C 412.5 545.4 412.3 545.5 412.1 545.5 C 412.3 545.8 413.0 545.4 413.4 545.4 C 413.4 545.4 413.4 545.4 413.4 545.4 Z M 428.9 541.3 C 429.3 541.7 429.9 542.0 430.3 541.6 C 430.7 541.9 429.9 541.9 430.5 542.2 C 431.3 542.1 430.8 542.4 432.1 542.4 C 431.8 542.8 432.7 542.9 432.9 543.2 C 432.3 543.1 431.8 542.7 431.5 542.9 C 431.9 543.0 431.6 543.2 431.5 543.0 C 430.7 542.7 432.5 542.8 431.6 542.4 C 431.2 542.8 429.8 541.8 428.9 541.7 C 429.3 541.5 428.2 541.2 428.9 541.3 C 428.9 541.3 428.9 541.3 428.9 541.3 Z M 433.8 542.7 C 434.4 542.8 434.7 543.5 434.5 543.4 C 434.5 543.3 433.8 543.2 433.7 543.3 C 433.8 543.3 434.0 543.4 433.9 543.4 C 432.7 543.2 433.2 543.0 432.9 542.8 C 433.6 542.7 433.8 543.0 434.0 542.9 C 433.9 542.8 433.7 542.8 433.8 542.7 C 433.8 542.7 433.8 542.7 433.8 542.7 Z M 446.3 550.7 C 446.3 550.5 446.1 550.7 445.8 550.7 C 445.9 550.2 444.5 550.5 444.4 550.2 C 444.7 550.1 445.4 550.3 445.7 550.2 C 445.4 550.1 445.3 550.0 444.9 550.0 C 445.1 549.8 445.8 550.0 446.1 549.8 C 446.1 550.0 446.5 549.9 446.5 550.1 C 445.5 549.9 446.9 550.9 446.3 550.7 C 446.3 550.7 446.3 550.7 446.3 550.7 Z M 420.5 546.0 C 420.4 546.3 421.5 547.1 420.4 547.4 C 420.2 547.1 420.1 546.8 420.2 546.5 C 419.5 546.6 419.3 546.3 418.8 546.5 C 417.7 545.5 419.8 546.7 420.5 546.0 C 420.5 546.0 420.5 546.0 420.5 546.0 Z M 416.1 545.9 C 416.4 545.7 415.8 545.7 415.9 545.4 C 416.4 545.7 418.1 545.5 417.5 545.6 C 417.0 545.7 416.9 546.0 416.1 545.9 C 416.1 545.9 416.1 545.9 416.1 545.9 Z M 379.6 584.7 C 378.8 584.7 378.6 584.0 379.1 584.0 C 378.8 584.2 380.0 584.4 379.6 584.7 C 379.6 584.7 379.6 584.7 379.6 584.7 Z M 350.3 569.6 C 350.4 570.4 350.8 570.7 350.6 571.0 C 350.2 570.3 350.4 570.3 350.1 569.7 C 350.0 569.7 349.7 569.3 349.8 569.2 C 350.0 569.5 350.1 569.4 350.3 569.6 C 350.3 569.6 350.3 569.6 350.3 569.6 Z M 399.3 538.7 C 399.2 538.6 398.9 538.5 399.0 538.3 C 399.8 538.4 400.8 538.1 401.5 537.9 C 401.5 538.0 401.5 538.2 401.5 538.3 C 400.2 538.2 399.8 538.5 399.3 538.7 C 399.3 538.7 399.3 538.7 399.3 538.7 Z M 397.6 538.2 C 397.4 538.3 397.9 538.7 397.3 538.7 C 397.3 538.5 396.3 538.2 396.7 538.1 C 396.9 538.3 397.2 538.3 397.6 538.2 C 397.6 538.2 397.6 538.2 397.6 538.2 Z M 444.3 544.2 C 445.0 544.3 444.1 543.8 444.2 543.7 C 444.6 543.9 445.3 544.0 445.4 544.2 C 445.0 544.1 444.5 544.5 444.3 544.2 C 444.3 544.2 444.3 544.2 444.3 544.2 Z M 434.3 542.7 C 432.9 542.5 433.6 542.1 432.2 541.7 C 432.8 541.6 434.1 541.9 434.5 541.7 C 434.4 541.9 434.8 542.0 434.7 542.2 C 434.2 542.1 434.1 541.9 433.6 541.9 C 433.8 542.2 433.8 542.1 433.5 542.4 C 433.9 542.4 434.2 542.4 434.4 542.4 C 434.3 542.6 434.7 542.7 434.3 542.7 C 434.3 542.7 434.3 542.7 434.3 542.7 Z M 443.9 544.9 C 444.4 544.9 444.8 545.4 444.3 545.3 C 444.3 545.1 443.9 545.2 443.8 545.1 C 444.6 545.2 443.3 544.8 443.7 544.6 C 444.1 544.7 444.3 544.7 444.3 544.5 C 444.6 544.5 445.0 544.6 445.0 544.8 C 444.8 544.7 444.5 544.6 444.5 544.7 C 444.6 544.8 444.8 544.8 444.7 544.9 C 444.3 544.8 444.0 544.8 443.9 544.9 C 443.9 544.9 443.9 544.9 443.9 544.9 Z M 440.2 544.0 C 441.0 544.2 441.0 544.5 441.2 544.7 C 440.2 544.4 440.2 544.0 439.5 543.6 C 440.3 543.9 441.2 543.7 441.4 543.9 C 441.0 544.0 440.3 543.8 440.2 544.0 C 440.2 544.0 440.2 544.0 440.2 544.0 Z M 448.9 591.5 C 448.3 591.5 447.7 591.4 447.0 591.4 C 446.9 591.7 448.2 592.1 447.7 592.0 C 447.0 592.1 447.4 591.6 446.8 591.7 C 447.4 592.0 444.5 592.5 444.3 592.1 C 444.7 592.0 444.9 591.9 444.7 591.7 C 445.9 591.6 446.4 591.3 447.2 591.0 C 447.9 591.3 449.8 591.1 450.7 590.5 C 451.5 590.9 452.5 590.0 453.4 590.3 C 453.6 590.0 452.6 590.1 453.3 589.9 C 453.9 590.1 453.5 590.3 454.2 590.3 C 454.2 590.1 454.0 589.9 454.3 589.8 C 454.3 590.0 454.7 589.9 454.9 590.0 C 453.6 590.3 455.1 590.4 454.1 590.7 C 453.6 590.7 454.4 590.1 453.2 590.4 C 452.8 590.6 452.4 590.8 452.6 591.1 C 452.3 591.1 452.1 591.2 451.9 591.3 C 452.3 590.9 450.3 591.8 451.1 591.2 C 451.2 591.2 451.9 591.1 452.3 590.8 C 451.8 590.6 451.3 590.9 450.6 591.2 C 450.2 591.0 450.7 590.9 450.3 590.9 C 449.7 591.2 450.6 591.3 450.2 591.5 C 450.4 591.5 450.6 591.4 450.7 591.5 C 449.6 591.4 449.2 591.8 448.7 591.9 C 449.0 591.6 448.0 591.7 448.9 591.5 C 448.9 591.5 448.9 591.5 448.9 591.5 Z M 457.4 589.1 C 457.6 589.0 457.8 589.0 458.0 588.9 C 458.2 589.2 457.3 589.5 458.0 589.6 C 457.0 589.8 457.9 589.2 457.4 589.1 C 457.4 589.1 457.4 589.1 457.4 589.1 Z M 452.5 589.3 C 452.0 589.0 452.4 589.7 452.1 589.8 C 452.6 589.6 453.1 589.3 453.3 589.7 C 452.6 589.7 452.3 589.8 451.6 590.1 C 452.2 589.5 450.8 589.9 450.5 589.6 C 451.0 589.4 451.4 589.2 452.1 589.0 C 452.1 589.2 453.1 589.0 452.5 589.3 C 452.5 589.3 452.5 589.3 452.5 589.3 Z M 454.2 588.4 C 454.4 588.6 455.4 588.1 455.2 588.6 C 454.6 588.7 454.4 588.8 454.6 589.0 C 454.2 589.2 454.1 589.1 453.7 589.2 C 453.3 588.9 454.1 588.7 454.3 588.5 C 454.1 588.5 454.0 588.5 454.2 588.4 C 454.2 588.4 454.2 588.4 454.2 588.4 Z M 472.1 577.9 C 472.5 578.0 471.7 578.5 471.6 578.5 C 471.9 578.6 471.9 578.7 471.6 579.2 C 471.5 578.7 470.9 579.4 470.2 579.4 C 470.3 579.7 470.9 579.3 470.3 579.9 C 469.7 580.2 469.3 580.7 468.4 581.3 C 468.1 581.1 468.4 580.8 468.6 580.6 C 468.1 581.0 468.1 580.7 467.6 581.0 C 467.8 581.1 467.5 581.4 467.2 581.3 C 468.0 580.7 465.9 581.6 466.7 581.0 C 466.8 581.1 467.0 580.9 467.2 580.8 C 467.2 581.3 468.2 580.5 468.6 580.5 C 468.6 579.6 469.8 579.1 471.0 578.5 C 471.1 578.6 470.9 578.9 471.2 578.7 C 471.1 578.6 471.4 578.3 471.5 578.1 C 471.6 578.3 471.8 578.2 472.0 578.1 C 472.0 578.0 472.0 578.0 472.1 577.9 C 472.1 577.9 472.1 577.9 472.1 577.9 Z M 404.5 589.0 C 404.6 588.5 402.8 588.5 402.4 588.6 C 402.5 588.1 405.5 588.6 404.5 589.0 C 404.5 589.0 404.5 589.0 404.5 589.0 Z M 415.2 589.6 C 414.8 589.6 415.1 589.9 414.7 589.9 C 414.7 589.6 413.6 590.1 413.6 589.8 C 414.1 589.6 414.4 589.6 415.2 589.6 C 415.2 589.6 415.2 589.6 415.2 589.6 Z M 425.1 590.0 C 424.3 590.1 425.5 590.2 425.4 590.3 C 424.7 590.3 424.0 590.3 424.0 590.0 C 424.6 590.2 425.0 589.8 425.1 590.0 C 425.1 590.0 425.1 590.0 425.1 590.0 Z M 410.3 588.9 C 409.7 588.8 410.8 588.5 410.9 588.7 C 410.2 588.7 411.3 589.0 412.0 589.0 C 411.9 589.4 411.6 589.3 411.9 589.6 C 410.9 589.7 411.8 589.2 411.1 589.2 C 410.6 589.4 411.1 589.3 411.1 589.6 C 410.8 589.6 410.5 589.6 410.3 589.5 C 410.3 589.4 410.3 589.2 410.3 589.0 C 410.6 589.1 411.0 589.1 410.9 588.9 C 410.6 588.9 410.5 588.9 410.3 588.9 C 410.3 588.9 410.3 588.9 410.3 588.9 Z M 459.2 584.3 C 458.7 584.5 459.2 584.5 459.6 584.4 C 459.7 584.2 459.8 583.6 460.5 583.7 C 459.3 584.3 461.0 583.9 460.4 584.3 C 460.0 584.2 459.3 584.8 458.7 584.9 C 458.3 584.8 458.9 584.2 459.2 584.3 C 459.2 584.3 459.2 584.3 459.2 584.3 Z M 461.6 583.7 C 461.5 583.6 461.3 583.7 460.9 583.8 C 461.2 583.4 460.6 583.6 461.1 583.3 C 461.1 583.5 462.7 582.9 461.8 583.4 C 460.9 583.5 462.1 583.4 462.5 583.3 C 462.1 583.4 461.5 584.1 461.3 583.9 C 461.5 583.8 461.7 583.7 461.6 583.7 C 461.6 583.7 461.6 583.7 461.6 583.7 Z M 473.7 574.5 C 473.6 574.4 473.4 574.6 473.3 574.6 C 473.7 574.0 474.0 573.5 474.1 573.2 C 474.1 573.5 474.3 573.6 474.5 573.4 C 474.2 573.7 474.3 573.9 474.1 573.9 C 474.1 573.5 474.0 574.1 473.7 574.5 C 473.7 574.5 473.7 574.5 473.7 574.5 Z M 473.7 574.5 " fill="#C43100"></path></g></svg>