<?xml version="1.0" encoding="UTF-8" standalone="no"?><svg xmlns="http://www.w3.org/2000/svg" xmlns:xlink="http://www.w3.org/1999/xlink" clip-rule="evenodd" stroke-miterlimit="10" viewBox="0 0 1024 768"><desc>SVG generated by Keynote</desc><defs></defs><g transform="matrix(1.00, 0.00, -0.00, -1.00, 0.0, 768.0)"><path d="M 0.0 768.0 L 1024.0 768.0 L 1024.0 0.0 L 0.0 0.0 Z M 0.0 768.0 " fill="#FEFFFF"></path><g><clipPath id="clip0x600000aa8d00"><path d="M 320.0 276.0 L 704.0 276.0 L 704.0 492.0 L 320.0 492.0 Z M 320.0 276.0 "></path></clipPath><g clip-path="url(#clip0x600000aa8d00)"><path d="M 512.5 489.0 L 515.4 489.0 L 536.6 458.3 L 536.6 489.0 L 539.4 489.0 L 539.4 453.4 L 536.7 453.4 L 515.2 484.4 L 515.2 453.4 L 512.5 453.4 L 512.5 489.0 " fill="#000000"></path><path d="M 562.7 469.3 C 562.7 473.1 560.7 477.1 555.8 477.1 C 551.4 477.1 548.8 473.7 548.1 469.3 L 562.7 469.3 Z M 545.0 466.4 C 545.0 473.6 549.1 479.5 555.9 479.5 C 562.4 479.5 566.0 474.3 565.5 467.0 L 547.9 467.0 C 547.9 466.8 547.9 466.6 547.9 466.4 C 548.0 460.6 550.4 455.2 556.5 455.2 C 559.8 455.2 562.5 456.6 563.9 457.6 L 565.1 455.4 C 563.5 454.3 560.5 452.8 556.4 452.8 C 548.6 452.8 545.0 459.1 545.0 466.4 " fill="#000000"></path><path d="M 568.5 478.9 L 571.5 478.9 L 577.7 457.7 L 584.3 478.9 L 587.1 478.9 L 593.7 457.6 L 600.0 478.9 L 602.8 478.9 L 595.1 453.4 L 592.5 453.4 L 585.6 474.9 L 578.7 453.4 L 576.2 453.4 L 568.5 478.9 " fill="#000000"></path><path d="M 627.3 466.8 L 615.4 489.0 L 618.7 489.0 L 628.8 469.8 L 628.9 469.8 L 639.0 489.0 L 642.0 489.0 L 630.2 466.8 L 630.2 453.4 L 627.3 453.4 L 627.3 466.8 " fill="#000000"></path><path d="M 659.8 466.1 C 659.8 471.9 656.7 477.1 650.9 477.1 C 645.2 477.1 642.5 472.0 642.5 466.2 C 642.5 460.5 645.4 455.2 651.1 455.2 C 657.0 455.2 659.8 460.4 659.8 466.1 Z M 639.6 466.1 C 639.6 472.5 643.0 479.5 651.0 479.5 C 659.0 479.5 662.7 472.6 662.7 466.2 C 662.7 459.8 659.1 452.8 651.1 452.8 C 643.1 452.8 639.6 459.7 639.6 466.1 " fill="#000000"></path><path d="M 668.1 478.9 L 670.8 478.9 L 670.8 474.5 C 671.8 476.3 674.1 479.5 677.7 479.5 C 678.8 479.5 679.7 479.2 680.1 479.1 L 679.4 476.4 C 679.0 476.6 678.4 476.8 677.4 476.8 C 673.8 476.8 671.5 472.7 670.8 471.2 L 670.8 453.4 L 668.1 453.4 L 668.1 478.9 " fill="#000000"></path><path d="M 688.3 467.7 L 699.5 478.9 L 702.9 478.9 L 691.7 467.7 L 703.5 453.4 L 700.0 453.4 L 688.3 467.7 Z M 685.3 491.9 L 688.0 491.9 L 688.0 453.4 L 685.3 453.4 Z M 685.3 491.9 " fill="#000000"></path><path d="M 519.9 417.5 C 526.7 417.5 529.5 420.6 529.5 425.3 C 529.5 429.7 526.8 432.9 520.0 432.9 L 515.5 432.9 L 515.5 417.5 L 519.9 417.5 Z M 512.6 435.5 L 520.3 435.5 C 527.8 435.5 532.5 431.8 532.5 425.4 C 532.5 419.0 528.1 415.0 520.0 415.0 L 515.5 415.0 L 515.5 399.9 L 512.6 399.9 L 512.6 435.5 " fill="#000000"></path><path d="M 537.0 407.3 L 537.0 425.3 L 539.7 425.3 L 539.7 407.9 C 539.7 404.2 541.1 401.8 545.0 401.8 C 548.8 401.8 551.9 405.4 552.8 406.9 L 552.8 425.3 L 555.6 425.3 L 555.6 404.8 C 555.6 402.7 555.8 400.8 556.0 399.9 L 553.2 399.9 C 553.0 400.7 552.8 402.6 552.8 404.0 C 551.6 402.1 548.7 399.3 544.4 399.3 C 539.1 399.3 537.0 402.7 537.0 407.3 " fill="#000000"></path><path d="M 579.8 412.6 C 579.8 418.1 577.7 423.4 571.5 423.4 C 569.3 423.4 566.7 422.1 565.3 420.5 L 565.3 402.7 C 566.4 402.1 568.2 401.7 570.2 401.7 C 576.7 401.7 579.8 407.3 579.8 412.6 Z M 562.5 401.2 L 562.5 438.3 L 565.3 438.3 L 565.3 423.0 C 566.8 424.8 569.3 425.9 571.9 425.9 C 579.2 425.9 582.7 420.1 582.7 412.7 C 582.7 405.5 577.9 399.3 570.1 399.3 C 567.1 399.3 564.3 400.0 562.5 401.2 " fill="#000000"></path><path d="M 588.4 438.3 L 591.2 438.3 L 591.2 399.9 L 588.4 399.9 Z M 588.4 438.3 " fill="#000000"></path><path d="M 599.5 425.3 L 602.3 425.3 L 602.3 399.9 L 599.5 399.9 Z M 598.8 432.9 C 598.8 434.1 599.8 435.0 600.9 435.0 C 602.1 435.0 603.0 434.1 603.0 432.9 C 603.0 431.7 602.1 430.7 600.9 430.7 C 599.8 430.7 598.8 431.7 598.8 432.9 " fill="#000000"></path><path d="M 607.7 412.6 C 607.7 420.7 612.3 425.9 618.9 425.9 C 622.7 425.9 625.1 424.5 626.5 423.3 L 625.0 421.2 C 623.6 422.5 621.7 423.5 618.8 423.5 C 613.2 423.5 610.6 418.6 610.6 412.7 C 610.6 407.1 613.1 401.7 618.8 401.7 C 621.7 401.7 624.2 403.0 625.3 404.0 L 626.5 401.9 C 625.1 400.7 622.5 399.3 618.6 399.3 C 611.3 399.3 607.7 405.8 607.7 412.6 " fill="#000000"></path><path d="M 511.8 346.3 L 511.8 381.9 L 519.4 381.9 L 519.4 352.4 L 532.6 352.4 L 532.6 346.3 L 511.8 346.3 " fill="#000000"></path><path d="M 538.2 372.3 L 545.4 372.3 L 545.4 346.3 L 538.2 346.3 Z M 541.8 375.7 C 539.3 375.7 537.5 377.7 537.5 380.0 C 537.5 382.2 539.3 384.1 541.8 384.1 C 544.3 384.1 546.2 382.2 546.2 380.0 C 546.2 377.7 544.3 375.7 541.8 375.7 " fill="#000000"></path><path d="M 558.7 351.8 C 559.2 351.6 560.3 351.2 562.3 351.2 C 566.3 351.2 568.6 354.2 568.6 359.5 C 568.6 364.4 567.0 367.4 563.1 367.4 C 560.9 367.4 559.2 365.9 558.7 365.4 L 558.7 351.8 Z M 558.7 384.8 L 558.7 370.3 C 559.9 371.5 562.2 373.0 565.1 373.0 C 571.6 373.0 576.1 368.5 576.1 359.5 C 576.1 350.6 570.2 345.7 562.3 345.7 C 556.4 345.7 552.9 347.2 551.6 347.7 L 551.6 384.8 L 558.7 384.8 " fill="#000000"></path><path d="M 596.1 366.1 C 595.7 366.3 594.9 366.7 593.4 366.7 C 590.2 366.7 588.4 363.9 587.7 362.7 L 587.7 346.3 L 580.6 346.3 L 580.6 372.3 L 587.7 372.3 L 587.7 368.8 C 588.8 370.7 591.0 373.0 594.3 373.0 C 596.2 373.0 597.2 372.6 597.8 372.3 L 596.1 366.1 " fill="#000000"></path><path d="M 614.1 357.8 L 613.2 357.8 C 609.0 357.8 606.1 356.6 606.1 353.6 C 606.1 351.6 607.7 350.8 609.3 350.8 C 611.9 350.8 613.4 352.3 614.1 353.1 L 614.1 357.8 Z M 614.9 346.3 C 614.7 346.9 614.5 348.3 614.5 349.1 C 613.3 347.7 610.8 345.7 607.2 345.7 C 602.7 345.7 599.3 348.3 599.3 353.0 C 599.3 359.8 606.3 362.2 613.2 362.2 L 614.1 362.2 L 614.1 363.7 C 614.1 366.0 613.2 367.4 609.9 367.4 C 606.5 367.4 604.2 365.6 603.3 364.9 L 600.2 369.2 C 601.7 370.6 605.1 373.0 610.7 373.0 C 617.8 373.0 621.2 370.2 621.2 363.3 L 621.2 354.0 C 621.2 350.5 621.5 348.0 621.9 346.3 L 614.9 346.3 " fill="#000000"></path><path d="M 642.4 366.1 C 641.9 366.3 641.1 366.7 639.6 366.7 C 636.5 366.7 634.6 363.9 634.0 362.7 L 634.0 346.3 L 626.9 346.3 L 626.9 372.3 L 634.0 372.3 L 634.0 368.8 C 635.1 370.7 637.2 373.0 640.5 373.0 C 642.5 373.0 643.5 372.6 644.1 372.3 L 642.4 366.1 " fill="#000000"></path><path d="M 646.6 372.3 L 654.2 372.3 L 660.0 355.2 L 660.2 355.2 L 665.5 372.3 L 672.8 372.3 L 662.1 343.5 C 659.8 337.4 657.1 333.8 650.0 333.8 C 647.8 333.8 646.5 334.1 646.0 334.3 L 647.0 339.9 C 647.4 339.8 648.0 339.6 649.5 339.6 C 653.1 339.6 654.4 341.4 655.4 344.2 L 656.4 346.8 L 646.6 372.3 " fill="#000000"></path><path d="M 416.8 382.3 C 416.6 381.0 415.8 378.5 414.5 378.3 C 413.2 378.2 412.3 379.6 411.4 380.1 C 409.8 380.9 407.6 381.5 405.6 382.2 C 403.9 382.8 401.5 383.5 400.8 385.2 C 399.7 387.6 402.2 388.8 403.9 389.4 C 405.6 389.9 406.8 390.1 409.0 390.2 C 412.2 390.3 415.3 389.9 416.3 387.9 C 417.0 386.6 417.2 384.2 416.8 382.3 Z M 446.2 380.7 C 440.6 383.5 433.4 384.8 428.1 387.8 C 424.0 390.1 420.8 393.9 416.3 396.0 C 411.7 398.2 404.8 400.5 402.1 401.1 C 392.8 403.4 385.0 400.4 382.3 398.3 C 377.2 394.3 373.2 387.8 374.8 378.4 C 375.4 374.4 376.7 371.1 378.6 368.3 C 386.5 357.2 401.2 353.6 412.8 346.6 C 413.3 346.3 413.7 346.4 413.9 346.8 C 415.9 349.6 417.5 352.0 420.8 353.3 C 424.1 354.7 429.4 354.3 433.9 354.0 C 438.6 353.8 443.7 354.2 445.4 356.7 C 447.4 359.6 447.3 365.4 444.2 367.2 C 442.6 368.2 440.1 368.2 438.3 369.0 C 436.9 369.7 435.9 370.8 435.2 372.4 C 434.6 373.7 434.0 375.9 434.8 377.3 C 435.5 378.6 437.4 378.3 438.9 377.9 C 441.8 377.3 446.7 376.5 449.5 377.8 C 450.3 378.2 447.3 380.2 446.2 380.7 " fill="#FFFEFE"></path><path d="M 328.3 372.9 C 328.5 373.8 328.6 374.1 329.1 374.9 C 330.0 376.2 341.0 388.6 358.1 391.6 C 360.3 391.9 362.0 391.7 362.3 390.8 C 363.0 389.3 361.7 388.3 360.1 387.4 C 332.7 371.1 334.7 346.7 334.4 336.8 C 334.5 332.7 331.6 332.0 330.8 333.9 C 327.6 342.7 324.9 356.4 328.3 372.9 " fill="#FFFEFE"></path><path d="M 346.8 408.7 C 347.4 409.3 347.8 409.6 348.6 409.8 C 359.1 412.4 369.6 410.8 377.2 407.4 C 378.9 406.6 379.7 405.6 378.6 404.9 C 377.2 404.0 372.8 401.2 370.5 399.0 C 369.8 398.4 368.5 398.4 367.8 398.5 C 358.9 399.6 354.3 400.3 340.9 395.3 C 338.9 394.4 337.0 395.6 338.0 397.2 C 339.7 400.4 343.9 405.7 346.8 408.7 " fill="#FFFEFE"></path><path d="M 364.1 419.2 C 361.8 419.5 361.8 421.2 362.8 421.8 C 365.3 423.6 369.3 425.7 373.4 427.3 C 374.6 427.8 375.2 427.9 376.4 427.8 C 379.4 427.5 384.3 425.5 390.1 421.4 C 396.9 416.5 403.0 407.2 398.9 408.0 C 396.3 408.4 397.5 408.3 394.4 408.6 C 391.4 408.9 389.3 408.6 387.9 408.7 C 387.3 408.8 386.8 409.2 386.4 409.6 C 380.6 414.8 373.9 418.0 364.1 419.2 " fill="#FFFEFE"></path><path d="M 474.2 338.0 C 473.5 336.1 472.8 333.7 471.2 334.8 C 468.3 337.0 461.8 341.1 455.6 343.5 C 455.2 343.5 455.3 344.0 455.4 344.3 C 455.8 345.2 456.0 346.2 456.2 347.3 C 456.4 348.4 457.2 349.2 457.7 350.0 C 459.3 352.6 460.2 357.1 460.6 359.9 C 460.8 362.5 460.7 365.3 460.1 367.7 C 459.9 368.7 459.1 370.0 459.2 371.2 C 459.2 372.3 459.7 373.4 459.8 374.7 C 460.1 378.5 455.4 381.6 452.8 382.8 C 446.9 385.6 440.6 388.1 434.3 391.4 C 430.7 393.3 427.8 397.5 424.9 399.7 C 422.0 401.9 412.7 405.6 409.0 406.6 C 408.1 406.9 407.8 407.2 407.7 407.9 C 406.1 415.3 401.8 423.4 393.7 429.6 C 391.1 431.7 394.0 432.8 397.6 433.0 C 454.6 435.0 487.3 382.5 474.2 338.0 " fill="#FFFEFE"></path><path d="M 451.0 363.2 C 451.0 363.5 450.9 364.5 450.9 364.7 C 450.9 365.2 452.0 365.9 452.4 366.3 C 453.2 366.9 454.1 367.6 454.6 367.9 C 454.8 368.0 455.0 367.7 455.0 367.6 C 457.1 364.4 456.3 356.6 454.8 352.8 C 454.6 352.4 454.3 352.3 454.2 352.6 C 453.4 354.2 452.3 355.8 450.9 356.6 C 450.7 356.8 450.7 357.2 450.7 357.3 C 451.1 359.0 451.3 361.0 451.0 363.2 " fill="#FFFEFE"></path><path d="M 425.1 343.8 C 425.5 345.1 426.1 345.9 427.1 346.5 C 429.0 347.7 432.2 347.8 435.2 348.0 C 438.2 348.2 441.4 348.4 443.5 349.3 C 444.8 349.9 446.0 351.6 448.0 350.7 C 449.0 350.3 449.5 349.5 449.7 348.6 C 450.1 347.7 450.3 346.7 450.2 345.5 C 449.9 341.8 446.9 340.0 446.4 336.5 C 446.3 336.0 446.2 335.2 445.9 334.9 C 443.7 332.6 439.2 333.1 435.1 333.5 C 433.6 333.7 432.2 333.7 431.2 334.2 C 430.5 334.5 429.8 335.2 429.3 335.7 C 428.0 336.9 427.2 337.8 425.9 339.3 C 425.5 339.8 424.5 340.7 424.4 341.2 C 424.3 341.8 424.9 343.3 425.1 343.8 " fill="#FFFEFE"></path><path d="M 353.8 300.5 C 352.3 301.7 351.6 302.7 350.8 304.2 C 343.8 315.4 339.9 354.9 348.9 368.3 C 351.7 373.0 354.8 370.8 353.8 367.2 C 352.0 359.0 353.1 354.4 357.1 345.6 C 363.3 332.5 382.5 314.2 387.6 307.6 C 396.3 296.3 399.2 288.0 399.1 285.8 C 399.1 284.1 398.8 283.0 395.8 283.2 C 380.0 284.5 364.7 291.0 353.8 300.5 " fill="#FFFEFE"></path><path d="M 362.8 353.8 C 358.0 365.5 361.1 376.1 363.3 380.1 C 364.3 382.1 365.4 383.4 366.7 383.0 C 368.2 382.6 368.6 381.1 368.8 378.3 C 370.3 354.8 384.5 346.9 402.3 338.6 C 416.3 331.5 432.3 323.2 445.7 303.3 C 447.7 300.5 448.0 298.7 445.7 297.1 C 437.5 291.5 430.1 287.6 419.3 285.1 C 417.7 284.7 416.0 285.0 414.6 288.7 C 399.5 327.5 374.3 325.7 362.8 353.8 " fill="#FFFEFE"></path></g></g><g><clipPath id="clip0x600000aa9900"><path d="M 320.0 491.9 L 703.5 491.9 L 703.5 276.0 L 320.0 276.0 Z M 320.0 491.9 "></path></clipPath><g clip-path="url(#clip0x600000aa9900)"><g><clipPath id="clip0x600000aa9a80"><path d="M 320.0 276.0 L 704.0 276.0 L 704.0 492.0 L 320.0 492.0 Z M 320.0 276.0 "></path></clipPath><g clip-path="url(#clip0x600000aa9a80)"><path d="M 455.9 306.1 C 453.6 303.8 452.3 305.6 451.6 307.1 C 448.4 313.9 445.2 319.6 440.2 325.1 C 439.3 326.0 440.0 327.3 441.3 327.1 C 442.9 327.0 444.0 327.1 445.8 327.9 C 447.3 328.5 449.1 330.7 450.0 333.8 C 450.6 336.0 450.6 336.7 452.0 336.8 C 452.3 336.8 453.0 336.8 453.4 336.7 C 455.0 336.2 456.8 334.8 458.1 333.8 C 461.5 331.2 466.5 325.5 467.4 323.7 C 468.0 322.5 467.4 321.7 467.1 321.0 C 465.4 317.4 459.8 310.0 455.9 306.1 " fill="#FFFEFE"></path><path d="M 455.9 306.1 C 453.6 303.8 452.3 305.6 451.6 307.1 C 448.4 313.9 445.2 319.6 440.2 325.1 C 439.3 326.0 440.0 327.3 441.3 327.1 C 442.9 327.0 444.0 327.1 445.8 327.9 C 447.3 328.5 449.1 330.7 450.0 333.8 C 450.6 336.0 450.6 336.7 452.0 336.8 C 452.3 336.8 453.0 336.8 453.4 336.6 C 455.0 336.2 456.8 334.8 458.1 333.8 C 461.5 331.2 466.5 325.5 467.4 323.7 C 468.0 322.5 467.4 321.7 467.1 321.0 C 465.4 317.4 459.8 309.9 455.9 306.1 Z M 362.8 353.8 C 358.0 365.5 361.1 376.1 363.3 380.1 C 364.3 382.1 365.4 383.4 366.8 383.0 C 368.2 382.6 368.6 381.1 368.8 378.3 C 370.3 354.8 384.5 346.9 402.3 338.6 C 416.3 331.5 432.3 323.2 445.7 303.3 C 447.7 300.5 448.0 298.7 445.7 297.1 C 437.6 291.5 430.2 287.6 419.3 285.1 C 417.7 284.7 416.0 285.0 414.6 288.7 C 399.6 327.5 374.3 325.7 362.8 353.8 Z M 328.3 372.9 C 328.5 373.9 328.6 374.1 329.2 374.9 C 330.1 376.2 341.1 388.6 358.1 391.6 C 360.4 391.9 362.0 391.7 362.3 390.8 C 363.0 389.3 361.7 388.4 360.1 387.4 C 332.8 371.1 334.7 346.8 334.4 336.8 C 334.5 332.7 331.6 332.0 330.8 333.9 C 327.6 342.7 324.9 356.4 328.3 372.9 Z M 346.8 408.7 C 347.4 409.3 347.8 409.6 348.6 409.9 C 359.1 412.5 369.6 410.8 377.2 407.4 C 378.9 406.7 379.7 405.6 378.6 404.9 C 377.2 404.0 372.8 401.2 370.5 399.0 C 369.8 398.4 368.5 398.4 367.8 398.5 C 358.9 399.7 354.3 400.3 340.9 395.3 C 338.9 394.4 337.0 395.6 338.0 397.2 C 339.7 400.4 343.9 405.7 346.8 408.7 Z M 425.1 343.8 C 425.5 345.1 426.1 345.9 427.1 346.5 C 429.0 347.7 432.2 347.8 435.2 348.0 C 438.2 348.2 441.4 348.4 443.5 349.4 C 444.8 349.9 446.0 351.6 448.0 350.8 C 449.0 350.4 449.5 349.5 449.7 348.7 C 450.1 347.7 450.3 346.7 450.2 345.5 C 449.9 341.8 446.9 340.0 446.4 336.6 C 446.3 336.0 446.2 335.3 445.9 335.0 C 443.7 332.6 439.2 333.1 435.1 333.5 C 433.6 333.7 432.2 333.7 431.2 334.2 C 430.5 334.5 429.8 335.2 429.3 335.8 C 428.0 337.0 427.2 337.9 425.9 339.3 C 425.5 339.8 424.5 340.7 424.4 341.3 C 424.3 341.8 424.9 343.3 425.1 343.8 Z M 364.1 419.3 C 361.8 419.5 361.8 421.2 362.8 421.9 C 365.3 423.6 369.3 425.7 373.4 427.3 C 374.6 427.8 375.2 428.0 376.4 427.8 C 379.4 427.5 384.3 425.5 390.1 421.4 C 396.9 416.5 403.0 407.3 398.9 408.0 C 396.3 408.5 397.5 408.3 394.4 408.7 C 391.4 408.9 389.3 408.6 387.9 408.8 C 387.3 408.8 386.8 409.2 386.4 409.6 C 380.6 414.8 373.9 418.1 364.1 419.3 Z M 382.3 398.3 C 385.0 400.5 392.8 403.4 402.1 401.2 C 404.8 400.5 411.7 398.2 416.3 396.0 C 420.8 393.9 424.0 390.1 428.1 387.8 C 433.4 384.9 440.6 383.5 446.2 380.8 C 447.3 380.2 450.3 378.2 449.5 377.8 C 446.7 376.6 441.8 377.3 438.9 377.9 C 437.4 378.3 435.5 378.7 434.8 377.4 C 434.0 375.9 434.6 373.7 435.2 372.4 C 435.9 370.8 436.9 369.7 438.3 369.1 C 440.1 368.2 442.6 368.2 444.2 367.2 C 447.3 365.4 447.4 359.6 445.4 356.7 C 443.7 354.3 438.6 353.8 433.9 354.1 C 429.4 354.3 424.1 354.8 420.8 353.4 C 417.5 352.0 415.9 349.7 413.9 346.8 C 413.7 346.4 413.3 346.3 412.8 346.6 C 401.2 353.6 386.5 357.2 378.6 368.4 C 376.7 371.1 375.4 374.4 374.8 378.4 C 373.2 387.8 377.2 394.3 382.3 398.3 Z M 451.0 363.2 C 451.0 363.5 450.9 364.5 450.9 364.7 C 450.9 365.2 452.0 365.9 452.4 366.3 C 453.2 366.9 454.1 367.6 454.6 367.9 C 454.8 368.0 455.0 367.7 455.0 367.6 C 457.1 364.5 456.3 356.6 454.8 352.8 C 454.6 352.4 454.3 352.3 454.2 352.6 C 453.4 354.3 452.3 355.8 450.9 356.6 C 450.7 356.8 450.7 357.2 450.7 357.3 C 451.1 359.1 451.3 361.0 451.0 363.2 Z M 474.2 338.0 C 473.5 336.1 472.8 333.7 471.2 334.8 C 468.3 337.0 461.8 341.2 455.6 343.5 C 455.2 343.5 455.3 344.0 455.4 344.3 C 455.8 345.3 456.0 346.2 456.2 347.3 C 456.4 348.4 457.2 349.2 457.7 350.0 C 459.3 352.6 460.2 357.1 460.6 359.9 C 460.8 362.5 460.7 365.3 460.1 367.7 C 459.9 368.7 459.1 370.1 459.2 371.2 C 459.2 372.3 459.7 373.4 459.8 374.7 C 460.1 378.5 455.4 381.7 452.8 382.9 C 446.9 385.6 440.6 388.1 434.3 391.4 C 430.7 393.3 427.8 397.5 424.9 399.7 C 422.0 402.0 412.7 405.7 409.0 406.6 C 408.1 406.9 407.8 407.3 407.7 407.9 C 406.1 415.3 401.8 423.4 393.7 429.7 C 391.1 431.7 394.0 432.9 397.6 433.0 C 454.6 435.0 487.3 382.5 474.2 338.0 Z M 353.8 300.5 C 352.3 301.7 351.6 302.8 350.8 304.2 C 343.8 315.4 339.9 354.9 348.9 368.3 C 351.7 373.0 354.8 370.8 353.8 367.2 C 352.0 359.0 353.1 354.5 357.1 345.6 C 363.3 332.5 382.5 314.3 387.6 307.6 C 396.3 296.3 399.2 288.0 399.1 285.8 C 399.1 284.1 398.8 283.0 395.8 283.3 C 380.0 284.5 364.7 291.1 353.8 300.5 Z M 401.7 440.4 C 356.7 440.4 320.0 403.7 320.0 358.2 C 320.0 312.6 356.9 276.0 401.7 276.0 C 447.2 276.0 484.1 312.6 484.1 358.2 C 484.1 403.7 447.2 440.4 401.7 440.4 " fill="#1A1918"></path></g></g></g></g><g><clipPath id="clip0x600000aa9cc0"><path d="M 320.0 276.0 L 704.0 276.0 L 704.0 492.0 L 320.0 492.0 Z M 320.0 276.0 "></path></clipPath><g clip-path="url(#clip0x600000aa9cc0)"><path d="M 405.6 382.2 C 407.6 381.5 409.8 380.9 411.4 380.1 C 412.3 379.6 413.2 378.2 414.5 378.3 C 415.8 378.5 416.6 381.0 416.8 382.3 C 417.2 384.2 417.0 386.6 416.4 387.9 C 415.3 389.9 412.2 390.3 409.0 390.2 C 406.8 390.1 405.6 389.9 403.9 389.4 C 402.2 388.8 399.7 387.6 400.8 385.2 C 401.5 383.5 403.9 382.8 405.6 382.2 " fill="#1A1918"></path></g></g></g></svg>