<?xml version="1.0" encoding="UTF-8" standalone="no"?><svg xmlns="http://www.w3.org/2000/svg" xmlns:xlink="http://www.w3.org/1999/xlink" clip-rule="evenodd" stroke-miterlimit="10" viewBox="0 0 515 60"><desc>SVG generated by Keynote</desc><defs></defs><g transform="matrix(1.00, 0.00, -0.00, -1.00, 0.0, 60.0)"><text xml:space="preserve" font-family="HelveticaNeue-UltraLight,Helvetica Neue" font-size="77.0" fill="#3B3C1B" transform="matrix(1.00, 0.00, -0.00, -1.00, 0.6, 2.6)">J</text><text xml:space="preserve" font-family="HelveticaNeue-UltraLight,Helvetica Neue" font-size="77.0" fill="#3B3C1B" transform="matrix(1.00, 0.00, -0.00, -1.00, 36.3, 2.6)">o</text><text xml:space="preserve" font-family="HelveticaNeue-UltraLight,Helvetica Neue" font-size="77.0" fill="#3B3C1B" transform="matrix(1.00, 0.00, -0.00, -1.00, 76.2, 2.6)">i</text><text xml:space="preserve" font-family="HelveticaNeue-UltraLight,Helvetica Neue" font-size="77.0" fill="#3B3C1B" transform="matrix(1.00, 0.00, -0.00, -1.00, 86.2, 2.6)">n</text><text xml:space="preserve" font-family="HelveticaNeue-UltraLight,Helvetica Neue" font-size="77.0" fill="#3B3C1B" transform="matrix(1.00, 0.00, -0.00, -1.00, 124.7, 2.6)"> </text><text xml:space="preserve" font-family="HelveticaNeue-UltraLight,Helvetica Neue" font-size="77.0" fill="#3B3C1B" transform="matrix(1.00, 0.00, -0.00, -1.00, 146.1, 2.6)">t</text><text xml:space="preserve" font-family="HelveticaNeue-UltraLight,Helvetica Neue" font-size="77.0" fill="#3B3C1B" transform="matrix(1.00, 0.00, -0.00, -1.00, 164.7, 2.6)">h</text><text xml:space="preserve" font-family="HelveticaNeue-UltraLight,Helvetica Neue" font-size="77.0" fill="#3B3C1B" transform="matrix(1.00, 0.00, -0.00, -1.00, 203.2, 2.6)">e</text><text xml:space="preserve" font-family="HelveticaNeue-UltraLight,Helvetica Neue" font-size="77.0" fill="#3B3C1B" transform="matrix(1.00, 0.00, -0.00, -1.00, 241.7, 2.6)"> </text><text xml:space="preserve" font-family="HelveticaNeue-UltraLight,Helvetica Neue" font-size="77.0" fill="#3B3C1B" transform="matrix(1.00, 0.00, -0.00, -1.00, 263.1, 2.6)">n</text><text xml:space="preserve" font-family="HelveticaNeue-UltraLight,Helvetica Neue" font-size="77.0" fill="#3B3C1B" transform="matrix(1.00, 0.00, -0.00, -1.00, 301.6, 2.6)">e</text><text xml:space="preserve" font-family="HelveticaNeue-UltraLight,Helvetica Neue" font-size="77.0" fill="#3B3C1B" transform="matrix(1.00, 0.00, -0.00, -1.00, 340.1, 2.6)">t</text><text xml:space="preserve" font-family="HelveticaNeue-UltraLight,Helvetica Neue" font-size="77.0" fill="#3B3C1B" transform="matrix(1.00, 0.00, -0.00, -1.00, 358.7, 2.6)">w</text><text xml:space="preserve" font-family="HelveticaNeue-UltraLight,Helvetica Neue" font-size="77.0" fill="#3B3C1B" transform="matrix(1.00, 0.00, -0.00, -1.00, 411.4, 2.6)">o</text><text xml:space="preserve" font-family="HelveticaNeue-UltraLight,Helvetica Neue" font-size="77.0" fill="#3B3C1B" transform="matrix(1.00, 0.00, -0.00, -1.00, 451.4, 2.6)">r</text><text xml:space="preserve" font-family="HelveticaNeue-UltraLight,Helvetica Neue" font-size="77.0" fill="#3B3C1B" transform="matrix(1.00, 0.00, -0.00, -1.00, 471.3, 2.6)">k</text><text xml:space="preserve" font-family="HelveticaNeue-UltraLight,Helvetica Neue" font-size="77.0" fill="#3B3C1B" transform="matrix(1.00, 0.00, -0.00, -1.00, 505.5, 2.6)">!</text></g></svg>